<svg id="Layer_1" data-name="Layer 1" xmlns="http://www.w3.org/2000/svg" viewBox="0 0 4000 2000"><path d="M1499.37,1266.35l-21.15,144.39c-350.69,8.49-476.88-181.86-578.75-278.29-73.56-69.69-145.27-62.89-179.38-53.68a115.71,115.71,0,0,0-20.66,7.31L619.3,1120c-36.6,15.45-76.78,21.37-116,15.22-93.79-14.7-113.81-81.77-97.84-149.39,11.69-49.73,44-92.09,87.44-119,72.74-45.08,154.87-61,236.65-56.23,163.66,9.35,325.88,101,408.27,205.12Z" fill="#ff6f0d"/><path d="M720.09,1078.77a115.71,115.71,0,0,0-20.66,7.31L619.3,1120c-36.6,15.45-76.78,21.37-116,15.22-93.79-14.7-113.81-81.77-97.84-149.39,11.69-49.73,44-92.09,87.44-119,72.74-45.08,154.87-61,236.65-56.23C729.5,810.57,603.49,943.06,720.09,1078.77Z" fill="#fff"/><g opacity="0.3"><path d="M1497.6,1278.56l-19.38,132.18c-350.69,8.49-476.88-181.86-578.75-278.29-73.56-69.69-145.27-62.89-179.38-53.68a115.71,115.71,0,0,0-20.66,7.31L619.3,1120c-36.6,15.45-76.78,21.37-116,15.22-93.79-14.7-113.81-81.77-97.84-149.39a184.92,184.92,0,0,1,35-72.17c6.62,43.44,36.12,78.92,101.33,89.14,39.27,6.15,79.45.23,116.05-15.22L738,953.67a115.15,115.15,0,0,1,20.66-7.32c34.12-9.21,105.82-16,179.38,53.68C1038,1094.67,1161.43,1279.83,1497.6,1278.56Z" fill="#000072"/></g><path d="M879.89,841.25s-45,70.63-37.93,135.66c0,0,0,.56.09,1.58,3.87,53.08,66.86,79,107.4,44.54,44.93-38.24,89.9-77.44,132.71-65.34" fill="#000072"/><g opacity="0.6"><path d="M1499.37,1266.35l-4,27.54-354.27-245.57c-82.38-104.1-244.6-195.77-408.26-205.12-81.78-4.73-163.91,11.15-236.66,56.23-43.39,26.92-75.74,69.29-87.43,119a173.83,173.83,0,0,0-4.88,37.42c-5.29-21.7-4.16-45.82,1.55-70,11.69-49.73,44-92.09,87.44-119,72.74-45.08,154.87-61,236.65-56.23,163.66,9.35,325.88,101,408.27,205.12Z" fill="#fff"/></g><path d="M1243.24,1234.58s-4.21,128.9,50.75,114.61,58.49-69.56,140.19-70.41-89.36-61-89.36-61" fill="#000072"/><path d="M1479.55,1423.62c-.34,0-.68.06-1,.06-308.32,7.46-444.89-134.45-544.61-238.06-15.22-15.82-29.6-30.75-43.34-43.76-94.12-89.11-184.34-44.67-185.24-44.21-.28.14-.56.27-.85.39l-80.14,33.87c-40,16.89-82.53,22.47-123.08,16.1-43.56-6.83-75.31-24.7-94.4-53.1-19.63-29.21-24.5-68-14.09-112.08,12.16-51.54,46.15-97.85,93.24-127,101.76-63.08,232.62-76,368.46-36.28,117.75,34.4,227.45,104.73,293.45,188.12a13,13,0,0,1-20.32,16.07C1009,873.79,712.69,745.76,499.68,877.81c-41.31,25.61-71.09,66.05-81.69,111-6.07,25.73-9.2,62.53,10.38,91.68,14.9,22.17,40.78,36.29,76.91,42,35.78,5.61,73.46.64,109-14.38l79.93-33.77c8.95-4.2,111.23-48.71,214.2,48.77,14.18,13.43,28.75,28.58,44.19,44.61C1049,1267.8,1181,1405,1477.9,1397.78a13,13,0,0,1,1.65,25.84Z" fill="#000072"/><path d="M1293.32,1466.55c11.22-38.64,44.08-84.25,44.08-84.25l108.77,16.3-26.1,109.15" fill="#fff"/><g opacity="0.3"><path d="M1293.32,1466.55c11.22-38.64,44.08-84.25,44.08-84.25l108.77,16.3-26.1,109.15" fill="#000072"/></g><path d="M3061.32,1676l-145.81-110,50.47-16.17,173.78-55.8c49.85,9.69,85.19,25.18,108.66,43.57C3360.9,1625.65,3201.11,1779.74,3061.32,1676Z" fill="#fff"/><path d="M1834.05,1895.24c-97,122.33-254.59,10.75-254.59,10.75l146.93-94.2" fill="#ff6f0d"/><g opacity="0.3"><path d="M1834.05,1895.24c-97,122.33-254.59,10.75-254.59,10.75l146.93-94.2" fill="#000072"/></g><line x1="1579.46" y1="1905.99" x2="1726.39" y2="1811.79" fill="#f47414"/><path d="M3009.19,1815.7c-61.6,28.65-149.84,27.2-201.19-26.38a358.68,358.68,0,0,1-49.27,27.21c-105.86,48.13-239.33,48.75-391.14,17.67-2.28,1.29-4.51,2.59-6.79,3.88-185.7,105.55-370.62,113.21-554.93,47.72a915,915,0,0,1-96.78-41c-.16-.06-.26-.16-.42-.21l-5.28,3.42c-7.93,5.08-15.75,9.89-23.53,14.45,0,0-.1.06-.15.06-6,3.52-12,6.89-17.93,10-146.94,78.39-273.11,54.61-368.45-121-1.76,1.24-3.57,2.38-5.44,3.47-86.63,52.33-259.89-9.48-207.77-173.06a140.13,140.13,0,0,1,16.89-35.28,132.09,132.09,0,0,1,26.22-28.86,210.66,210.66,0,0,1,53.06-31.3c50.72-20.83,126.58-30.26,232.74,7.57,0,0,.06-7.2,1-19.43,3.11-38.71,15.29-127.88,62.75-199.17a250.5,250.5,0,0,1,29.48-36.64c91.55-93.68,564.77,32.44,564.77,32.44l848,298.34,15.9,5.6C3130,1674.3,3096.24,1775.13,3009.19,1815.7Z" fill="#ff6f0d"/><path d="M1414.39,1557.87c71.91,75.35,193,25.77,174.42-19-2.37-5.72-7-10.12-12.29-13.33-80.68-48.9-137.59-183-137.59-183l-24.54,124" fill="#000072"/><path d="M1414.37,1603.42c-56.22,10.1-99.07,53-124.2,139.32l-2.28,12.18c-86.63,52.33-259.89-9.48-207.77-173.06,8-25.07,22.7-47.56,43.11-64.14,42.54-34.56,132.59-78.29,285.8-23.73,0,0,.06-7.2,1-19.43Z" fill="#fff"/><g opacity="0.3"><path d="M3061.32,1676l-145.81-110,50.47-16.17,36.32,9.79c11.92,46.74,286.12,142.28,246.12-22C3360.9,1625.65,3201.11,1779.74,3061.32,1676Z" fill="#000072"/></g><path d="M1565.77,1304c0,1.81,18,153.61,125.08,200.61,25.47,11.17,54-8.85,52.47-36.62l-.09-1.43c-3.24-47.93,5.18-95.85,5.18-95.85" fill="#000072"/><path d="M1604.2,1888.62c-109.67-68.22-55.27-184.8,0-145.89s149,35.32,149.28,34.44c0,0-14.78,55.32-64.65,76.69" fill="#000072"/><g opacity="0.3"><path d="M2183.8,1585.85s-333.16-22.28-471.92-133.31-266.58,84.19-223.42,270.93c0,0-72.53-14.15-155.44-123.52s-157.15-111.14-157.15-111.14.16-.83.42-2.39c50.72-20.83,126.58-30.26,232.74,7.57,0,0,.06-7.2,1-19.43,3.11-38.71,15.29-127.88,62.75-199.17l310.72,67.15Z" fill="#000072"/></g><path d="M2527.11,1645.09c-131.17,161.55-184.36,120.46-189.61-45.17L2446,1628.23" fill="#000072"/><path d="M2808,1789.32a358.68,358.68,0,0,1-49.27,27.21l-10-3c-97.21-56.06-32.28-177.93-32.28-177.93s112.54-38.86,198.6-66.06l15.9,5.6C3270.85,1744.4,2931.94,1918.6,2808,1789.32Z" fill="#fff"/><path d="M2360.8,1838.08c-218.24,124-435.39,112.9-651.71,6.69,16.37-12.49,39.53-36.9,48.55-79.64,147.51,99.74,404,60.21,465.75-35.86Z" fill="#fff"/><path d="M2037.4,1940.73h0c-105.69,0-215.93-27.35-327.79-81.3-93.81,60.2-174.79,80.59-247.37,62.34-67-16.84-125.4-68.06-173.71-152.31-50.77,26.72-124.41,20.45-174.31-16.51-52.56-38.92-69.47-102.72-46.43-175,9-28.16,25.33-52.46,47.28-70.27,40.79-33.1,130.69-79.88,281.86-31.44,3.25-45.49,19.1-167.68,96.12-246.49,41-42,151.36-49.64,327.93-22.67,129,19.69,248.24,51.3,249.43,51.62a13,13,0,0,1-6.67,25c-129.6-34.52-481.44-108.25-552.17-35.87-86.9,88.92-89.56,244.72-89.57,246.29a13,13,0,0,1-17.3,12.06c-149.21-53.12-235.27-9.27-273.3,21.59-18,14.62-31.48,34.69-38.92,58-26.67,83.64,11.84,127.6,37.16,146.35,45.69,33.84,114.36,37.65,156.32,8.67a13,13,0,0,1,18.75,4.48c46,84.66,101.08,135.59,163.84,151.37,65.83,16.54,144.24-4.61,233-62.9a12.94,12.94,0,0,1,12.82-.8c229.49,112.8,441,109.54,646.68-9.93a12.91,12.91,0,0,1,9.1-1.49c187.92,38.44,328.8,24.36,430.67-43a13,13,0,0,1,16.5,1.84c45.37,47.31,121.75,48.17,173.52,28.94,44.68-16.6,72.4-46,74.13-78.53,2.49-46.73-47.17-97.87-139.83-144a13,13,0,0,1,11.55-23.19c131.34,65.4,156.32,127.77,154.15,168.57-2.3,43.22-36.32,81.14-91,101.45-58.58,21.76-139.54,20.89-193.53-27.82-106.16,66-249.15,79.75-436.55,42.14C2262.26,1909.5,2150.44,1940.73,2037.4,1940.73Z" fill="#000072"/><path d="M2506,1548.34c-9.59,10.26-22.75,18.76-39.95,25.08-225.39,82.9-253.94,27.15-619.17-158-274.77-139.33-613.63-196.58-764.61-216.43-49.75-6.48-79.07-9-79.07-9,77.25-239.12,242.69-333.42,547.46-198.6,50.1-153.74,197.77-191.3,197.77-191.3l472.39,241.61S2622.25,1424.56,2506,1548.34Z" fill="red"/><g opacity="0.6"><path d="M2233.44,1054,1758,823.88s-123.12,34.19-179.73,158.78c-9.06,20-32.29,29-52.85,21.44-267-98.27-417.8-14.83-491.78,189-19.58-2.18-30.41-3.11-30.41-3.11,77.25-239.12,242.69-333.42,547.46-198.6,50.1-153.74,197.77-191.3,197.77-191.3l472.39,241.61S2225.36,1046.06,2233.44,1054Z" fill="#fff"/></g><path d="M2300.52,1624c-84.66,0-158.52-39.11-302.22-115.19-45.15-23.9-96.31-51-157.3-81.91-358.68-181.88-834.16-223.64-838.93-224A12.95,12.95,0,0,1,990.83,1186C1031,1061.88,1094.25,979.72,1179,941.79c93.46-41.84,215.89-31,364.08,32.16,55.46-147.5,196-184.85,202.17-186.41a13,13,0,0,1,6.39,25.11c-2.3.61-141.61,38.43-188.64,182.74a12.93,12.93,0,0,1-17.55,7.83c-147-65-266.7-77.7-355.86-37.78-75.39,33.75-130.76,103.58-168.95,213.25,87.44,9.15,506.75,60.16,832.11,225.14,61.19,31,112.46,58.18,157.7,82.13,222.57,117.83,268.91,142.34,451.14,75.3,29.07-10.69,45.71-28,50.87-52.81,29.23-140.85-297.29-454.25-300.59-457.4a13,13,0,0,1,17.88-18.74c13.91,13.26,340.2,326.57,308.07,481.39-7,33.85-29.66,58-67.29,71.88C2400.44,1611.35,2348.72,1624,2300.52,1624Z" fill="#000072"/><path d="M1557,980.08c27.68,16.51,54.64,33.48,81.51,50.89s53.33,35.28,79.55,53.57,52,37.2,77.47,56.53,50.23,39.61,74.51,60.42a5.18,5.18,0,0,1-6.57,8l-.07,0q-37.37-29.48-76.3-56.89c-26-18.14-52.34-35.91-79.13-53s-53.77-33.74-81.07-49.93-54.91-32-82.58-47l-.13-.07a13,13,0,1,1,12.35-22.78Z" fill="#000072"/><g opacity="0.3"><path d="M2506,1548.34c-9.59,10.26-22.75,18.76-39.95,25.08-225.39,82.9-253.94,27.15-619.17-158-274.77-139.33-613.63-196.58-764.61-216.43.67-1.14,1.34-2.33,2.07-3.47,162.38-265.7,399-66,637.31,32.49s145.07-164.93,145.07-164.93l366.74,86.48c40.31,26.89,63.32,59.48,236.06,335.8C2484.37,1509.12,2496.39,1530,2506,1548.34Z" fill="#000072"/></g><g opacity="0.3"><path d="M1592.74,1016S1670,825.37,1831,1176.72" fill="#000072"/></g><path d="M1422,1494.54c-1.14,13.74-1.74,28.08-2,42.16s-.11,28.3.63,42.39a351.81,351.81,0,0,0,4.29,41.92c2.37,13.74,5.47,27.46,11.18,39.78l0,.11a5.19,5.19,0,0,1-9.2,4.77c-7.61-13.21-12.14-27.44-16-41.66a365.37,365.37,0,0,1-8.42-43.16c-2.08-14.48-3.56-29-4.59-43.53s-1.75-29-1.86-43.92a13,13,0,0,1,25.94-.19c0,.39,0,.77,0,1.15Z" fill="#000072"/><path d="M1702.05,1833.45a29.93,29.93,0,0,0,3.29-2.29c1.31-1.05,2.65-2.22,4-3.38l3.9-3.79,3.73-4.16a143.46,143.46,0,0,0,13.4-18.6,215.11,215.11,0,0,0,19.86-43c2.89-7.48,4.82-15.34,7.15-23.08,2.06-7.82,3.73-15.77,5.55-23.69,1.36-8,2.87-16,4.12-24.12l3-24.38,0-.25a5.18,5.18,0,0,1,10.31.86l-1.09,25.06c-.63,8.35-1.53,16.69-2.29,25.07-1.23,8.32-2.32,16.69-3.82,25-1.79,8.28-3.18,16.65-5.61,24.85a234.3,234.3,0,0,1-18,48.44,165.27,165.27,0,0,1-13.86,22.77l-4.15,5.42-4.58,5.25c-1.65,1.71-3.31,3.4-5.1,5.07a52.19,52.19,0,0,1-6.55,5.24l-1.77,1.18a13.17,13.17,0,0,1-14.64-21.89A14,14,0,0,1,1702.05,1833.45Z" fill="#000072"/><path d="M2211,1708.35c11,12,23.71,23.21,36.53,33.79s26.37,20.51,40.1,30,27.89,18.37,42.3,26.79c7.13,4.32,14.54,8.21,21.77,12.33l22.15,11.62.36.19a13,13,0,0,1-12,23c-.29-.15-.59-.33-.86-.5l-21.85-13.69c-7.13-4.81-14.4-9.37-21.39-14.37-14.12-9.77-27.87-20.08-41.27-30.8s-26.32-22-38.72-33.9-24.26-24.09-35.16-38a5.18,5.18,0,0,1,7.87-6.71Z" fill="#000072"/><path d="M2798,1797.58l-23.38-40.37a5.26,5.26,0,0,1,8-6.62L2818,1781a13.14,13.14,0,1,1-17.15,19.91A13.47,13.47,0,0,1,2798,1797.58Z" fill="#000072"/><path d="M2905.88,1720.18c13.75,15,25.58,32.89,30.84,54.21a87.83,87.83,0,0,1,1.72,33.17,101.11,101.11,0,0,1-10.49,32,13,13,0,1,1-23.11-11.85,11,11,0,0,1,.81-1.37l.16-.24a77.52,77.52,0,0,0,11-22.79,67.67,67.67,0,0,0,2.05-25.69c-1.87-17.72-10.06-35.33-21-50.9l-.06-.07a5.19,5.19,0,0,1,8.07-6.49Z" fill="#000072"/><path d="M2999,1693.16a129.82,129.82,0,0,1,21.67,25.89,111.29,111.29,0,0,1,14,31.53,85.79,85.79,0,0,1,1.88,35.76c-1.45,12.27-6.54,23.5-12.08,34.26a13,13,0,0,1-23.1-11.9,13.21,13.21,0,0,1,.71-1.21l.65-1c5.08-7.66,10.17-15.63,12.25-24.59a65.7,65.7,0,0,0,1.91-27.78,95.14,95.14,0,0,0-8.61-28.11,117.92,117.92,0,0,0-16.41-25.37l-.24-.28a5.18,5.18,0,0,1,7.41-7.21Z" fill="#000072"/><path d="M1270.77,1674l34.73,73.06a13,13,0,1,1-24.36,8.82L1261,1677.51a5.2,5.2,0,0,1,9.74-3.52Z" fill="#000072"/><path d="M1161.68,1628.29a90.24,90.24,0,0,1-14.38,21.49,74.92,74.92,0,0,1-21,16.5,72.65,72.65,0,0,1-13,5.21c-4.62.9-9.33,2.09-14.09,2-4.83.44-9.48-.18-14.21-.73s-9.07-2.06-13.68-3.16a13.06,13.06,0,0,1,6-25.41,14.07,14.07,0,0,1,2.27.76l1.36.62c6,2.71,12.26,5.39,18.67,5.91,3.24.67,6.42.26,9.72.28a53.2,53.2,0,0,0,9.7-2.14,58.91,58.91,0,0,0,18.38-10.16,79,79,0,0,0,15.06-16l.25-.36a5.18,5.18,0,0,1,8.93,5.18Z" fill="#000072"/><path d="M1211.68,1706.39a92.2,92.2,0,0,1-14.34,23.53,78.67,78.67,0,0,1-21.72,18.2c-4.17,2.57-8.84,4.23-13.49,6-4.79,1.23-9.65,2.6-14.62,2.86-5,.77-9.88.37-14.87.19s-9.64-1.44-14.52-2.21a13,13,0,0,1,4.05-25.7,13.26,13.26,0,0,1,1.57.35l2,.58c3.43,1,6.89,2.51,10.39,3.27,3.49.61,7.06,1.59,10.58,1.52,3.59.44,7.07-.09,10.66-.37,3.46-.76,7.08-1.34,10.44-2.8a62.25,62.25,0,0,0,19.3-11.74,80.61,80.61,0,0,0,15.16-17.93l.25-.39a5.17,5.17,0,0,1,9.19,4.68Z" fill="#000072"/><g opacity="0.3"><path d="M3073.55,1737.93l-64.36,77.77c-61.6,28.65-149.84,27.2-201.19-26.38a358.68,358.68,0,0,1-49.27,27.21c-105.86,48.13-239.33,48.75-391.14,17.67-2.28,1.29-4.51,2.59-6.79,3.88-185.7,105.55-370.62,113.21-554.93,47.72,3.89.83,8.09,1.76,12.49,2.8,329,76.89,371.66-225.39,371.66-225.39C2414.89,1816.94,2764,1711.6,2764,1711.6,2832.61,1786.27,3073.55,1737.93,3073.55,1737.93Z" fill="#000072"/></g><g opacity="0.3"><path d="M1775.2,1596.79v79s-12,122.28-71.81,172.23a92.3,92.3,0,0,1-23.53,14.45s-.1.06-.15.06a92.61,92.61,0,0,0-17.93,10c-146.94,78.39-273.11,54.61-368.45-121-1.76,1.24-3.57,2.38-5.44,3.47-86.63,52.33-259.89-9.48-207.77-173.06a140.13,140.13,0,0,1,16.89-35.28l6.32-5.55c10.57,212.6,117.41,195.08,147.57,147.62,6.53-10.31,21.29-11.19,29.74-2.38C1517.48,1932.85,1648.83,1774.35,1775.2,1596.79Z" fill="#000072"/></g><path d="M3159.52,1723.57c-33.09,0-69.72-10.33-105.9-37.19a13,13,0,1,1,15.44-20.8c60.39,44.83,121.53,36.12,158.62,13,32.72-20.4,50.28-53,44.74-82.95-7.64-41.31-56.89-73.73-135.15-88.94a13,13,0,1,1,4.95-25.43c122.21,23.75,150,78.9,155.67,109.66,7.49,40.53-14.69,83.57-56.5,109.64A155.82,155.82,0,0,1,3159.52,1723.57Z" fill="#000072"/><path d="M3122.71,1594.67a108,108,0,0,1,20.56,23.61,89.42,89.42,0,0,1,12.43,29.66c1.35,5.39,1.54,11,1.84,16.66-.47,5.58-.6,11.36-2.19,16.8-1,5.67-3.25,10.79-5.36,16.06-.93,2.72-2.51,5-3.82,7.43l-4.16,7.27a13,13,0,0,1-22.52-12.89c.19-.34.4-.66.61-1l1.13-1.62c2.39-3.41,5.39-6.64,7.47-10.24s4.31-7.23,5.5-11.17c1.79-3.82,2.28-7.91,3.3-12,.25-4.14.8-8.36.27-12.63a73.19,73.19,0,0,0-6.94-25.43,97.31,97.31,0,0,0-15-22.86l-.28-.3a5.18,5.18,0,0,1,7.21-7.4Z" fill="#000072"/><path d="M3221.35,1585.68a128.3,128.3,0,0,1,15.08,27.07,113.86,113.86,0,0,1,7.94,30.58,86.3,86.3,0,0,1-2.57,32.83c-2.62,11.08-8.55,20.92-14.89,30.25a13,13,0,1,1-20.62-15.76l.84-1c5.39-6.21,10.9-12.71,13.81-20.57a66.33,66.33,0,0,0,5.32-25,98.06,98.06,0,0,0-3.32-26.83,117.55,117.55,0,0,0-10.13-25.79l-.17-.31a5.17,5.17,0,0,1,8.71-5.55Z" fill="#000072"/><path d="M1718.69,1965.2c-76.65,0-145.64-47.88-146.72-48.64a13,13,0,0,1,15-21.14c6.19,4.35,148.86,102.9,237-8.23a13,13,0,0,1,20.3,16.09C1807.05,1950.14,1761.66,1965.2,1718.69,1965.2Z" fill="#000072"/><path d="M1293.32,1479.51a13,13,0,0,1-12.44-16.57c11.72-40.33,44.62-86.27,46-88.21a13,13,0,0,1,21,15.14c-.31.44-31.7,44.3-42.16,80.3A13,13,0,0,1,1293.32,1479.51Z" fill="#000072"/><path d="M3069,1524.93c-362.37,144.64-787.91,112.82-1002.77-118C1975.9,1309.54,1927,1173.7,1922,997.06c-132.37-116-219.74-250.14-246.59-408.56-6.53-38.37,12.86-76.49,47.31-94.62,70.74-37.25,215.32-86.58,461.51-62C2449,218.38,2948.46,201.67,3198.05,574c0,0,61.06,97.06,89,250.25,9.15,50.17,18.43,88.47,26.82,117.38a529.88,529.88,0,0,0,17.48,51.63c16.93,42.07,27.4,86.67,28.91,132C3364.22,1243.31,3324,1412.29,3069,1524.93Z" fill="#ff6f0d"/><path d="M2495.05,293.61c34.16-87.52,66.71-178.58,117.11-230.47a85.3,85.3,0,0,1,108.31-11.4c73.92,49,221.54,164.27,316.89,354.64" fill="#ff6f0d"/><g opacity="0.6"><path d="M3037.36,406.4l-22.69-4.74c-95-168.29-228.1-271.74-297.08-317.43a85.37,85.37,0,0,0-108.31,11.44c-44.56,45.84-75.12,122.27-105.19,199.84l-9-1.9c34.18-87.54,66.69-178.57,117.1-230.46a85.39,85.39,0,0,1,108.31-11.44C2794.41,100.72,2942,216,3037.36,406.4Z" fill="#fff"/></g><path d="M2210.22,412.08s-65.45,51-95,116.93Q2441.53,621.94,2210.22,412.08Z" fill="#000072"/><path d="M2305,355.69q88.58,53.79,174.2,124.93c35.24,29.28,87.09-3.68,75.81-48.08-9.42-37.11-32.29-82.44-70.21-137" fill="#000072"/><path d="M2568.88,283.57c45,34.84,87.3,77,127.65,124.63,18.92,22.34,55.59,9.46,56-19.81.48-31.15-7.58-64.91-27.34-102.24" fill="#000072"/><g opacity="0.6"><path d="M3360.27,1152.51c-2.39-42.65-12.58-84.53-28.6-124.24-11.18-27.7-28-79.64-44.25-169-27.9-153.19-89-250.25-89-250.25-249.58-372.28-749-355.57-1013.84-142-246.19-24.6-390.77,24.78-461.52,62a90.62,90.62,0,0,0-47,63.4c-.25-1.3-.5-2.61-.7-3.9-6.53-38.37,12.86-76.49,47.31-94.62,70.74-37.25,215.32-86.58,461.51-62C2449,218.38,2948.46,201.67,3198.05,574c0,0,61.06,97.06,89,250.25,16.28,89.37,33.08,141.25,44.3,169,16.93,42.07,27.4,86.67,28.91,132Q3360.66,1138.47,3360.27,1152.51Z" fill="#fff"/></g><path d="M2810.75,1112.83s-131.64,33.74-141.36,125.25,93.4,151.27,226.94,116.16c141.19-37.12,175.75-204.09,80-243.65C2976.31,1110.59,2910.49,1083.8,2810.75,1112.83Z" fill="#fff"/><path d="M2687.76,282.55l11.53-100.93a24.28,24.28,0,0,1,39.12-16.37c38.23,30.06,104.09,86.92,175.58,171.29" fill="#ff69b8"/><g opacity="0.3"><path d="M2914,336.56l-77.88-18.62c-43.73-44.3-81.65-76.37-107.2-96.47a24.23,24.23,0,0,0-34.72,4.89l5.11-44.75a24.27,24.27,0,0,1,39.14-16.33C2776.64,195.3,2842.52,252.18,2914,336.56Z" fill="#000072"/></g><path d="M1945.87,884.6c7.12-127.1,37.77-232.94,96.49-313.41C1727.84,566.49,1728.72,631,1945.87,884.6Z" fill="#ff69b8"/><g opacity="0.3"><path d="M2042.36,571.19Q2009,617,1987.44,673.5c-111.73-41.22-170.13-42.71-188.28,2.67C1770.37,593,1843.06,568.2,2042.36,571.19Z" fill="#000072"/></g><path d="M3009.7,778.11l62.92-46a60.3,60.3,0,0,0,11.75-11.09c17-21.34,16.46-37.4-4.07-47.39-16.83-8.19-36.59-7.66-53.76-.21-86.25,37.44-106.88,120.59-48.7,116.74C2989.38,789.45,3000.36,784.93,3009.7,778.11Z" fill="#fff"/><path d="M2548.72,841.32l-77.19-10.63a60.52,60.52,0,0,1-15.6-4.19c-25-10.75-32.22-25.12-18.88-43.66,10.93-15.19,28.58-24.09,47.23-25.67,93.69-7.93,151.28,55.5,98.23,79.7C2572,841.67,2560.18,842.9,2548.72,841.32Z" fill="#fff"/><path d="M2891.22,1098.16c-40.32-14.84-86.81,5.08-106.52,26-7.67,8.13-4.89,21.37,5.23,26.1,49.41,23.1,87.46,16.51,110.51-29.31A16.5,16.5,0,0,0,2891.22,1098.16Z" fill="#000072"/><path d="M2866,1149.12c3.21,9.46,6,19,8.92,28.58l4.14,14.37,1,3.61.57,2.18c.21.88.43,1.75.57,2.64a46.88,46.88,0,0,1,.81,10.78,46.14,46.14,0,0,1-5.88,20.77,44.42,44.42,0,0,1-6.45,8.84c-2.19,2.2-4.07,4.18-6.31,6a113.51,113.51,0,0,1-28.49,18.29,103.68,103.68,0,0,1-32.8,8.76c-11.47.86-23.87-.09-35.24-6.06a44.32,44.32,0,0,1-22.69-28.65c-2.76-11.54-2-22.66.35-32.92a5.52,5.52,0,0,1,10.91,1.2v.14c0,9.47,1,18.81,4.48,26.3a26.78,26.78,0,0,0,15.67,15c6.86,2.51,15.21,2.46,23.42,1a86.84,86.84,0,0,0,24.13-8.83,96.31,96.31,0,0,0,20.82-15.29c1.53-1.41,3-3.14,4.32-4.49a15.39,15.39,0,0,0,2.22-3.3,19,19,0,0,0,2-7.82,17.83,17.83,0,0,0-.34-4.12,9.18,9.18,0,0,0-.23-1l-.13-.53-.25-.9-1-3.61-3.86-14.45c-2.38-9.69-5-19.33-7.09-29.09a13.76,13.76,0,0,1,26.48-7.35Z" fill="#000072"/><path d="M2877.61,1191.32l1,3,.89,2.31a38.38,38.38,0,0,0,2,4.39,40.09,40.09,0,0,0,5.56,7.94,41.27,41.27,0,0,0,35.81,13.67,83.27,83.27,0,0,0,10.56-2.47,79.4,79.4,0,0,0,10.33-4.34,60,60,0,0,0,17.63-13.2,39.47,39.47,0,0,0,9.48-18.65,35.51,35.51,0,0,0-2.69-20.79c-2.82-6.92-8.17-12.87-13.61-18.64l-.39-.41a5.49,5.49,0,0,1,7.65-7.85c6.72,6,13.55,12.43,18,21.07a49.74,49.74,0,0,1,6,28.67c-1,10.08-5.25,19.55-11.08,27.39a78.27,78.27,0,0,1-21.51,19.14,99.44,99.44,0,0,1-12.72,6.59,101.08,101.08,0,0,1-14,4.47,64,64,0,0,1-30.7-1.27,66.4,66.4,0,0,1-40.89-34.58l-1.68-3.54-1.28-2.92a13.75,13.75,0,0,1,25.19-11C2877.35,1190.62,2877.49,1191,2877.61,1191.32Z" fill="#000072"/><path d="M2448.72,1611.11c-163.55-27.72-298.18-94.64-392-195.4-92.05-99.16-141.67-238-147.54-412.65-139.88-123.83-220.56-258.77-246.63-412.39-7.42-43.8,14.31-87.3,54.08-108.24,79.71-42,224.68-86.95,463.57-64,149.56-118.38,366.62-172.85,568-142.25,135,20.5,324.55,87.59,460.58,290.52,2.75,4.36,62.92,101.26,91,255.14,16,88.15,32.53,139.18,43.54,166.47,18.32,45.42,28.37,91.33,29.89,136.45,6.17,183-94.4,321.63-298.92,412-181.72,72.53-381.62,101.87-563.3,82.81Q2479.2,1616.28,2448.72,1611.11ZM2756.31,303.76q-6.06-1-12-1.92C2548.05,272,2336.54,325.7,2192.34,442a13,13,0,0,1-9.42,2.8c-248-24.77-391,27.33-454.18,60.58-29.84,15.71-46.16,48.26-40.6,81,25.28,149,104.57,280.2,242.39,401a13,13,0,0,1,4.41,9.38c4.81,170.88,52.18,305.92,140.8,401.39,101.08,108.61,252.55,176.3,437.94,195.78,177.58,18.64,373.1-10.1,550.55-80.92,193.46-85.5,288.84-215.86,283.07-387.26-1.42-42.08-10.85-85-28-127.63-11.46-28.41-28.56-81.23-45-171.52-27.14-149-86.59-244.72-87.19-245.67C3060.47,392,2885.25,325.62,2756.31,303.76Zm-572.1,128.12h0Z" fill="#000072"/><path d="M3035.21,419.15a12.9,12.9,0,0,1-9.43-7c-93-185.7-235.69-298.77-312.46-349.64a72.39,72.39,0,0,0-91.87,9.62c-44.39,45.7-75.64,126.34-105.85,204.32q-4.24,10.93-8.48,21.84A13,13,0,1,1,2483,288.9q4.24-10.86,8.46-21.78c31.15-80.4,63.36-163.53,111.43-213a98.28,98.28,0,0,1,124.76-13.17c78.92,52.3,225.61,168.56,321.31,359.64a12.95,12.95,0,0,1-13.73,18.57Z" fill="#000072"/><path d="M2911.82,349.31a12.89,12.89,0,0,1-7.72-4.4c-69.06-81.5-132.57-137.15-173.69-169.47a11.32,11.32,0,0,0-18.25,7.65L2700.63,284a13,13,0,1,1-25.74-2.94l11.53-100.93a37.23,37.23,0,0,1,60-25.08c42.06,33.07,107,89.94,177.45,173.1a13,13,0,0,1-12,21.14Z" fill="#000072"/><path d="M1943.71,897.37A12.88,12.88,0,0,1,1936,893c-114.36-133.55-175.56-221.52-150-276,21-44.77,92.94-61.26,256.52-58.81a12.95,12.95,0,0,1,10.27,20.58c-55.23,75.69-86.86,178.81-94,306.5a13,13,0,0,1-15.1,12ZM2018,583.92c-129.43-.35-194.07,13.45-208.47,44.14-19,40.48,46.4,129.71,125.77,224C1945,744.47,1972.72,654.5,2018,583.92Z" fill="#000072"/><path d="M3319.3,976.3c2.41-2.13,4.16-3.45,6.21-5s4-2.83,6-4.21c4-2.65,8.05-5.23,12.19-7.51S3352,955,3356.2,953c4.17-2.18,8.49-4,12.77-5.85a309,309,0,0,1,53-16.75c9.05-1.75,18.05-3.66,27.17-4.66,9.07-1.43,18.2-2,27.31-2.66,4.54-.44,9.11-.46,13.66-.52l13.65-.21c9.09.18,18.16.72,27.22,1.08a5.17,5.17,0,0,1,0,10.34h-.37c-8.86.3-17.7.41-26.51.87l-13.18,1.16c-4.39.37-8.77.71-13.11,1.46-8.7,1.27-17.4,2.43-25.93,4.43-8.61,1.57-17,4-25.41,6.27a289.27,289.27,0,0,0-48.13,19.12c-3.79,2-7.62,3.92-11.24,6.17s-7.3,4.37-10.79,6.74-6.9,4.82-10.17,7.34c-1.6,1.29-3.27,2.54-4.74,3.88s-3.16,2.79-4,3.7l-.12.12a13,13,0,1,1-18.66-18C3318.79,976.77,3319.05,976.52,3319.3,976.3Z" fill="#000072"/><path d="M3359.82,1099c9.11.7,17,1.93,25.38,3.35s16.34,3.23,24.39,5.23a366.83,366.83,0,0,1,47.25,15.09c7.74,2.84,15.21,6.41,22.75,9.72,7.36,3.74,14.83,7.17,21.92,11.39,14.48,7.83,28,17.33,41.08,27.1a5.18,5.18,0,0,1-5.83,8.56l-.22-.14c-13.44-8.4-27.05-16.46-41.51-22.83-7.06-3.49-14.5-6.18-21.76-9.17-7.45-2.57-14.79-5.4-22.37-7.5a348,348,0,0,0-45.78-10.66c-7.72-1.27-15.46-2.27-23.19-3.05s-15.71-1.23-22.68-1.19h-.36a13,13,0,1,1-.12-25.94C3359.11,1099,3359.48,1099,3359.82,1099Z" fill="#000072"/><path d="M2113.8,1284.86a181.23,181.23,0,0,0-18.8-1.26c-6.49-.12-13-.06-19.57.27a307.08,307.08,0,0,0-181.67,70.5,348.89,348.89,0,0,0-55,58.28l0,0a5.18,5.18,0,0,1-8.43-6,361.21,361.21,0,0,1,54.07-63,322.37,322.37,0,0,1,68.53-48A333,333,0,0,1,2073.68,1260c7.05-.69,14.13-1.1,21.26-1.31a203.84,203.84,0,0,1,22,.49,13,13,0,1,1-2.12,25.83,5.7,5.7,0,0,1-.58-.06Z" fill="#000072"/><path d="M2189.29,1429c-2.05.6-5.06,1.66-7.65,2.67s-5.37,2.19-8,3.38c-5.34,2.42-10.61,5.11-15.79,8a228,228,0,0,0-29.58,19.89,230.26,230.26,0,0,0-48.51,52.69,253.58,253.58,0,0,0-31,65.49,328.63,328.63,0,0,0-13.72,72.18,5.18,5.18,0,0,1-10.35-.55,341.44,341.44,0,0,1,10.37-75.56,269.67,269.67,0,0,1,29.41-71.24,250.46,250.46,0,0,1,81.15-83.48c5.58-3.48,11.3-6.79,17.2-9.84,3-1.51,6-3,9-4.36s6-2.63,9.87-4a13,13,0,0,1,8.6,24.46l-.64.21Z" fill="#000072"/><g opacity="0.3"><path d="M1952.61,872.51a442.41,442.41,0,0,0-10,92.55c5,176.64,53.92,312.47,144.26,409.82,214.86,230.87,640.39,262.69,1002.77,118,109.71-48.46,179.63-107.35,223.4-168.12q-7.71,13.47-17,26.89c54.87-78.92,66.41-160.61,64.18-226.47-1.51-45.35-12-90-28.91-132a528.58,528.58,0,0,1-17.48-51.62l-8.71,1.15c20.35,620.15-1187,674.74-1352.53-70.3C1952.6,872.45,1952.6,872.48,1952.61,872.51Z" fill="#000072"/></g><path d="M2574.4,916.29c-60.44-17.58-128,27.26-151,100.14s7.42,146.22,67.86,163.8,128-27.25,151-100.14S2634.83,933.87,2574.4,916.29Z" fill="#000072"/><path d="M2564,946.67c-20.9,2.9-34.24,26.6-29.79,52.94s25,45.32,45.9,42.42,34.24-26.59,29.79-52.93S2584.94,943.77,2564,946.67Z" fill="#fff"/><path d="M2467.15,1093.82c-10.38,3.87-14.22,17.64-8.57,30.76s18.65,20.61,29,16.73,14.21-17.64,8.56-30.76S2477.52,1089.94,2467.15,1093.82Z" fill="#b199c5"/><path d="M3059.67,848c56.55-18.65,122,19.58,146.25,85.39s-2,134.27-58.52,152.92-122-19.59-146.25-85.39S3003.13,866.66,3059.67,848Z" fill="#000072"/><path d="M3070.51,875.41c19.87,1.78,33.3,22.93,30,47.24s-22.08,42.58-41.94,40.8-33.3-22.93-30-47.24S3050.65,873.63,3070.51,875.41Z" fill="#fff"/><path d="M3167.22,1006.14c9.94,3.11,14,15.56,9.15,27.82s-16.91,19.66-26.86,16.55-14.05-15.57-9.16-27.82S3157.27,1003,3167.22,1006.14Z" fill="#b199c5"/></svg>