<?xml version="1.0" encoding="UTF-8"?><svg id="a" xmlns="http://www.w3.org/2000/svg" viewBox="0 0 256 256"><g><path d="M173.126,184.515c7.371-2.729,16.245-3.543,24.583-4.294,13.971-1.251,26.422-2.307,27.726-11.839,1.82-13.285-20.574-13.682-35.515-12.503-7.342,.574-12.882,1.533-12.882,1.533l-3.912,27.103Z" fill="#fff"/><g opacity=".2"><path d="M173.126,184.515l3.912-27.103s5.541-.958,12.882-1.533c3.746,4.244,8.624,10.7,10.074,16.878,13.187-1.717,26.236-6.021,22.315-13.633,2.545,2.096,3.908,4.904,3.395,8.631-1.309,9.547-13.807,10.592-27.806,11.848l-.189,.618c-8.337,.751-17.212,1.564-24.583,4.294Z" fill="#390075"/></g><path d="M223.231,175.668c2.064-1.733,3.429-4.014,3.847-7.06,.489-3.566-.503-6.571-2.947-8.931-10.494-10.134-45.873-4.156-47.374-3.896-.903,.155-1.506,1.013-1.35,1.914,.156,.902,1.013,1.506,1.914,1.351,9.766-1.686,36.798-4.432,44.509,3.015,1.665,1.608,2.308,3.602,1.966,6.098-1.118,8.164-12.638,9.197-25.977,10.392-8.66,.776-17.614,1.579-25.266,4.412-.857,.319-1.296,1.271-.978,2.129,.318,.858,1.271,1.296,2.129,.978,7.237-2.68,15.968-3.462,24.411-4.219,10.14-.909,19.878-1.782,25.117-6.182Z" fill="#390075"/></g><g><path d="M13.484,127.105c.867,1.898,1.905,3.807,3.114,5.676,5.531,8.575,14.565,16.402,26.261,18.911,3.697,.792,7.427,.85,11.03,.304,1.009-.146,2.009-.342,2.992-.585-1.014-2.78-3.317-6.605-8.521-8.631-7.721-3.005-22.052,5.514-34.876-15.675Z" fill="#33aef1"/><g opacity=".6"><path d="M14.237,126.446c.867,1.898,1.905,3.807,3.114,5.676,5.452,5.503,13.395,12.464,19.108,12.973,9.023,.801,12.197-.597,18.184,6.242,1.009-.146,2.009-.342,2.992-.585-1.014-2.78-3.317-6.605-8.521-8.631-7.721-3.005-22.052,5.514-34.876-15.675Z" fill="#fff"/></g><path d="M13.464,127.075c.01,.006,.013,.018,.021,.029,12.824,21.19,27.156,12.67,34.876,15.675,5.204,2.026,7.507,5.85,8.521,8.631,1.461-.351,2.892-.801,4.278-1.344,.96-.367,1.904-.777,2.82-1.228-1.049-4.77-3.718-11.79-10.446-14.223-10.567-3.82-15.6,1.644-26.505-2.46-4.983-1.876-11.974-8.803-15.699-22.879-.387,.905-.652,1.913-.803,3.008-.567,4.097,.477,9.395,2.938,14.792Z" fill="#fdd800"/><g opacity=".6"><path d="M10.525,112.284c2.08,7.217,6.456,19.294,12.994,21.911,9.464,3.787,13.744,2.75,21.417,2.519,6.845-.205,13.035,4.228,16.222,13.353,.96-.367,1.904-.777,2.82-1.228-1.049-4.77-3.718-11.79-10.446-14.223-10.567-3.82-15.6,1.644-26.505-2.46-4.983-1.876-11.974-8.803-15.699-22.879-.387,.905-.652,1.913-.803,3.008Z" fill="#fff"/></g><path d="M11.329,109.276c3.725,14.076,10.717,21.004,15.699,22.879,10.905,4.104,15.938-1.36,26.505,2.46,6.728,2.433,9.397,9.453,10.446,14.223,1.216-.594,2.395-1.247,3.527-1.966,1.26-.791,2.458-1.653,3.589-2.575-.072-4.657-1.076-12.591-6.613-17.056-8.177-6.597-28.895,.321-38.798-4.986-7.265-3.894-10.491-10.366-12.093-16.047-.537,.43-1.003,.932-1.399,1.502-.338,.477-.622,.997-.863,1.566Z" fill="#b177ea"/><g opacity=".6"><path d="M12.512,107.165c2.892,7.892,8.189,16.904,14.846,19.542,16.504,6.542,38.946-8.458,40.469,19.62,1.26-.791,2.458-1.653,3.589-2.575-.072-4.657-1.076-12.591-6.613-17.056-8.177-6.597-28.895,.321-38.798-4.986-7.265-3.894-10.491-10.366-12.093-16.047-.537,.43-1.003,.932-1.399,1.502Z" fill="#fff"/></g><path d="M13.591,106.208c1.602,5.681,4.829,12.154,12.093,16.047,9.904,5.308,30.622-1.611,38.798,4.986,5.536,4.465,6.541,12.399,6.613,17.056,2.464-2.013,4.602-4.314,6.301-6.789,.624-.907,1.191-1.837,1.688-2.784-1.221-6.278-4.46-18.621-15.814-21.111-14.845-3.258-34.273,13.868-47.512-8.563-.483,.122-.979,.342-1.506,.678-.178,.115-.361,.241-.544,.384-.04,.028-.079,.064-.118,.096Z" fill="#fe6dcb"/><g opacity=".6"><path d="M14.893,104.637c2.192,3.832,4.806,7.372,8.41,9.849,4.686,3.225,10.568,4.287,16.258,4.265,5.69-.025,11.321-1.039,16.986-1.59,1.531-.148,3.079-.266,4.608-.111,4.974,.498,9.333,3.83,12.144,7.963,1.971,2.899,3.28,6.178,4.305,9.513,.15,.493,.276,1.174,.432,1.89,.624-.907,1.191-1.837,1.688-2.784-1.221-6.278-4.46-18.621-15.814-21.111-14.845-3.258-34.273,13.868-47.512-8.563-.483,.122-.979,.342-1.506,.678Z" fill="#fff"/></g><path d="M63.626,111.995c-5.352-1.175-11.196,.11-16.847,1.352-11.016,2.422-21.421,4.709-29.594-9.139-.373-.632-1.118-.943-1.83-.765l-.048,.013c-.857,.223-1.704,.658-2.586,1.328-.063,.046-.13,.1-.191,.153-1.164,.936-2.081,2.177-2.727,3.69h0c-1.99,4.673-1.184,11.826,2.155,19.136,.015,.033,.032,.066,.049,.098,4.658,10.152,15.105,22.147,30.504,25.45,4.802,1.029,9.769,.931,14.763-.292,.202-.048,.404-.099,.605-.152,2.318-.604,4.612-1.457,6.826-2.539,2.659-1.293,5.162-2.889,7.437-4.744,3.561-2.911,6.467-6.399,8.407-10.088,.175-.333,.232-.717,.16-1.087-2.515-12.938-8.262-20.479-17.083-22.414Zm8.55,28.453c-.068-.562-.153-1.141-.257-1.733-.01-.057-.02-.113-.03-.17-.052-.287-.109-.576-.17-.868-.011-.054-.024-.107-.035-.161-.062-.285-.128-.571-.199-.858l-.017-.072c-.076-.299-.158-.6-.245-.901-.018-.063-.036-.125-.055-.188-.089-.298-.182-.596-.283-.894-.016-.048-.033-.095-.05-.143-.097-.282-.2-.563-.308-.843-.015-.039-.029-.078-.045-.117-.117-.297-.242-.593-.374-.887-.027-.061-.055-.122-.083-.183-.135-.295-.276-.589-.425-.879-.018-.034-.037-.068-.055-.102-.143-.274-.294-.545-.451-.813-.026-.044-.051-.089-.077-.133-.168-.28-.344-.556-.528-.829-.037-.055-.075-.11-.113-.165-.191-.276-.389-.549-.598-.815-.014-.017-.028-.034-.042-.051-.202-.255-.414-.503-.632-.748-.041-.045-.08-.091-.122-.136-.226-.247-.462-.487-.707-.721-.048-.046-.098-.091-.147-.137-.258-.24-.522-.475-.8-.699-4.68-3.775-12.482-3.514-20.744-3.237-6.821,.228-13.874,.465-18.263-1.887-.346-.186-.685-.379-1.017-.579-.118-.071-.23-.148-.347-.221-.211-.132-.422-.264-.627-.402-.135-.091-.265-.189-.398-.283-.179-.127-.36-.253-.534-.385-.137-.103-.268-.212-.402-.319-.164-.13-.329-.259-.488-.394-.134-.113-.263-.232-.394-.349-.152-.135-.305-.27-.453-.409-.13-.123-.255-.25-.382-.376-.142-.141-.285-.282-.424-.428-.124-.131-.245-.266-.366-.4-.134-.149-.269-.297-.399-.45-.118-.138-.233-.281-.348-.423-.127-.157-.254-.314-.377-.475-.112-.146-.22-.295-.329-.445-.12-.165-.239-.331-.355-.5-.105-.153-.208-.309-.31-.466-.113-.174-.225-.349-.334-.527-.098-.16-.194-.322-.289-.485-.107-.183-.212-.368-.314-.555-.091-.167-.181-.335-.27-.505-.1-.193-.198-.388-.294-.585-.084-.173-.168-.347-.249-.523-.094-.203-.186-.41-.276-.618-.077-.178-.154-.357-.228-.539-.088-.215-.173-.433-.257-.652-.07-.183-.14-.366-.208-.553-.066-.184-.13-.372-.194-.559,9.261,13.906,21.333,11.266,32.035,8.913,5.546-1.219,10.785-2.371,15.425-1.352,7.285,1.599,12.136,8.068,14.425,19.232-1.295,2.328-3.028,4.565-5.097,6.589-.015-.149-.032-.298-.049-.449-.006-.051-.013-.103-.019-.155Zm-2.938-1.499l.012,.062c.057,.314,.107,.625,.152,.932,.005,.033,.01,.067,.015,.1,.043,.296,.08,.587,.113,.874,.005,.042,.01,.084,.015,.125,.031,.279,.058,.553,.081,.821,.004,.044,.008,.089,.011,.133,.022,.263,.04,.519,.055,.768l.008,.136c.007,.129,.012,.252,.017,.377-1.541,1.226-3.194,2.324-4.934,3.278-.061-.216-.125-.432-.192-.65l-.007-.024c-.093-.3-.193-.602-.297-.905-.014-.042-.028-.083-.043-.125-.101-.29-.209-.581-.322-.871-.02-.052-.04-.103-.06-.155-.114-.288-.233-.576-.359-.864-.022-.05-.044-.1-.066-.149-.13-.293-.266-.585-.409-.875-.017-.034-.035-.068-.052-.102-.151-.303-.308-.604-.474-.902l-.006-.011c-.166-.297-.341-.591-.522-.881-.023-.036-.044-.073-.067-.109-.175-.276-.358-.548-.547-.816-.033-.046-.065-.092-.098-.138-.19-.264-.387-.523-.591-.778-.035-.043-.071-.086-.106-.13-.211-.257-.429-.51-.656-.756-.028-.03-.056-.059-.084-.088-.24-.256-.488-.507-.746-.749l-.005-.005c-.258-.241-.528-.472-.806-.697-.034-.028-.068-.056-.102-.084-.267-.212-.544-.416-.828-.612-.049-.034-.097-.067-.147-.1-.284-.191-.577-.373-.88-.546-.052-.03-.105-.059-.158-.088-.311-.173-.629-.338-.96-.491-.041-.019-.084-.037-.126-.056-.35-.159-.709-.309-1.082-.443-5.483-1.982-9.57-1.592-13.522-1.215-3.97,.379-7.719,.737-12.969-1.237-.144-.054-.29-.113-.438-.177-.06-.026-.122-.057-.183-.084-.088-.04-.176-.079-.266-.123-.069-.034-.14-.072-.21-.108-.083-.043-.165-.083-.249-.129-.075-.041-.151-.086-.226-.129-.081-.046-.16-.09-.242-.138-.076-.046-.154-.096-.23-.144-.082-.051-.164-.1-.246-.154-.077-.05-.156-.106-.234-.158-.083-.056-.166-.111-.249-.17-.08-.057-.161-.118-.242-.177-.082-.06-.165-.119-.248-.182-.083-.063-.166-.131-.25-.196-.082-.064-.163-.127-.245-.194-.084-.069-.169-.142-.253-.213-.082-.069-.164-.137-.246-.209-.083-.073-.167-.15-.251-.226-.084-.076-.168-.15-.252-.228-.085-.079-.17-.163-.255-.245-.083-.08-.166-.158-.249-.24-.086-.085-.172-.175-.259-.263-.083-.085-.166-.168-.249-.255-.086-.09-.172-.185-.257-.278-.083-.09-.167-.179-.25-.272-.085-.095-.171-.195-.256-.293-.084-.097-.168-.192-.252-.291-.085-.101-.17-.206-.255-.31-.083-.102-.167-.202-.25-.306-.086-.107-.171-.219-.256-.329-.083-.107-.165-.212-.248-.321-.085-.113-.169-.229-.254-.345-.082-.113-.165-.224-.247-.339-.084-.118-.168-.241-.252-.362-.082-.118-.164-.235-.245-.357-.083-.124-.166-.252-.249-.379-.081-.124-.162-.247-.243-.374-.083-.13-.165-.265-.247-.398-.079-.129-.159-.256-.238-.388-.082-.137-.164-.278-.246-.419-.078-.134-.156-.267-.233-.403-.081-.144-.162-.291-.243-.438-.076-.139-.153-.277-.228-.418-.08-.15-.16-.304-.239-.457-.075-.144-.15-.288-.224-.436-.079-.156-.156-.316-.234-.475-.073-.15-.147-.3-.219-.453-.077-.163-.153-.329-.229-.495-.071-.155-.143-.31-.213-.468-.076-.171-.151-.345-.226-.519-.068-.159-.137-.318-.205-.479-.075-.179-.148-.361-.222-.543-.066-.164-.132-.327-.197-.493-.073-.186-.144-.375-.216-.565-.064-.168-.127-.337-.19-.508-.07-.193-.14-.389-.209-.585-.062-.175-.123-.349-.183-.527-.068-.2-.134-.402-.201-.606-.059-.179-.117-.358-.174-.539-.066-.208-.13-.419-.194-.631-.056-.184-.112-.369-.166-.556-.052-.179-.103-.361-.154-.543,.091-.207,.188-.406,.293-.596,.058,.156,.118,.309,.178,.463,.093,.242,.189,.483,.287,.72,.077,.186,.155,.371,.234,.554,.103,.237,.209,.47,.317,.701,.082,.175,.163,.351,.247,.524,.115,.236,.235,.467,.355,.697,.084,.16,.166,.321,.252,.479,.135,.247,.276,.489,.418,.73,.078,.132,.153,.268,.232,.398,.202,.331,.411,.655,.624,.974,.023,.035,.045,.072,.069,.106,.238,.351,.484,.693,.736,1.029,.083,.11,.169,.215,.254,.323,.174,.223,.348,.446,.529,.662,.105,.125,.213,.246,.32,.369,.167,.192,.334,.383,.506,.569,.117,.126,.236,.249,.355,.372,.17,.176,.341,.35,.516,.52,.125,.122,.252,.241,.379,.36,.177,.165,.356,.326,.537,.486,.131,.115,.262,.229,.396,.34,.187,.157,.377,.309,.569,.46,.134,.106,.268,.212,.404,.314,.202,.152,.409,.299,.617,.446,.132,.093,.263,.188,.397,.279,.232,.157,.47,.307,.708,.456,.116,.072,.228,.148,.345,.218,.358,.216,.723,.425,1.095,.625,5.026,2.693,12.445,2.444,19.621,2.204,7.407-.248,15.066-.505,18.968,2.644,.294,.237,.573,.488,.84,.747,.016,.016,.033,.031,.05,.047,.255,.25,.496,.51,.727,.777,.024,.028,.049,.055,.073,.083,.223,.261,.433,.531,.634,.806,.027,.036,.054,.072,.08,.109,.195,.272,.38,.551,.555,.835,.026,.042,.052,.084,.078,.127,.171,.283,.333,.57,.487,.862,.024,.045,.047,.09,.071,.136,.15,.293,.293,.589,.426,.888,.02,.045,.04,.09,.059,.135,.132,.303,.257,.608,.373,.914,.016,.041,.03,.083,.046,.124,.116,.312,.224,.626,.325,.94,.011,.035,.021,.069,.032,.104,.101,.322,.196,.645,.282,.967l.016,.064c.178,.673,.324,1.342,.445,1.998Zm-13.233-1.52c.123,.089,.24,.184,.359,.276,.162,.126,.324,.252,.479,.386,.117,.101,.229,.206,.342,.311,.146,.135,.291,.271,.43,.411,.11,.111,.216,.225,.321,.339,.132,.143,.263,.288,.389,.436,.101,.119,.2,.24,.297,.362,.121,.151,.238,.304,.353,.459,.093,.126,.184,.252,.273,.381,.11,.158,.216,.319,.32,.481,.084,.13,.168,.261,.248,.393,.1,.165,.197,.333,.291,.501,.075,.133,.151,.266,.223,.401,.092,.172,.179,.346,.266,.521,.066,.134,.134,.267,.198,.401,.085,.18,.164,.361,.243,.543,.057,.131,.117,.261,.172,.393,.081,.194,.155,.388,.23,.582,.046,.119,.095,.238,.139,.358,.086,.235,.166,.47,.245,.704,.026,.079,.056,.158,.082,.236,.1,.309,.194,.617,.282,.922,.034,.12,.064,.237,.097,.356,.017,.062,.034,.125,.05,.187-1.57,.71-3.175,1.292-4.796,1.745-.051-.107-.102-.215-.156-.323-.037-.074-.077-.149-.116-.224-.066-.126-.133-.253-.203-.38-.044-.08-.091-.16-.137-.24-.072-.124-.145-.248-.222-.373-.05-.082-.102-.164-.154-.246-.08-.125-.164-.25-.249-.375-.055-.081-.109-.161-.167-.241-.093-.131-.191-.261-.29-.392-.056-.074-.11-.148-.168-.222-.12-.152-.246-.303-.374-.453-.043-.051-.084-.102-.128-.153-.175-.201-.359-.399-.55-.596-.042-.043-.087-.085-.13-.127-.152-.152-.307-.304-.469-.453-.074-.068-.153-.135-.23-.202-.138-.122-.277-.243-.423-.363-.089-.073-.182-.145-.274-.217-.142-.111-.286-.221-.435-.33-.1-.073-.201-.144-.304-.215-.151-.105-.307-.208-.465-.309-.108-.069-.215-.138-.326-.205-.167-.101-.339-.2-.513-.297-.111-.062-.22-.125-.333-.185-.196-.104-.4-.203-.605-.302-.101-.048-.198-.099-.3-.146-.312-.143-.634-.281-.968-.411-2.389-.931-5.256-.873-8.291-.813-1.875,.037-3.864,.076-5.929-.105-.025-.002-.051-.004-.076-.006-.198-.018-.397-.04-.596-.062-.064-.007-.128-.012-.193-.02-.146-.017-.294-.039-.44-.059-.119-.016-.237-.03-.357-.048-.109-.016-.218-.037-.327-.054-.158-.026-.316-.05-.475-.079-.096-.018-.192-.039-.288-.058-.173-.034-.346-.067-.52-.105-.092-.02-.186-.045-.278-.067-.178-.042-.356-.082-.535-.129-.096-.025-.192-.055-.288-.081-.177-.049-.353-.096-.53-.15-.097-.029-.194-.064-.291-.095-.177-.057-.354-.112-.532-.174-.091-.032-.183-.069-.275-.103-.184-.067-.368-.133-.552-.207-.093-.037-.186-.08-.279-.118-.184-.077-.368-.152-.552-.235-.088-.04-.176-.085-.264-.126-.19-.089-.38-.176-.57-.273-.088-.044-.176-.095-.264-.141-.191-.1-.381-.199-.572-.306-.093-.052-.186-.111-.278-.165-.187-.109-.374-.217-.561-.334-.091-.057-.183-.121-.274-.18-.189-.122-.378-.242-.567-.373-.091-.063-.183-.133-.274-.198-.19-.135-.379-.268-.569-.412-.093-.07-.186-.148-.279-.221-.188-.147-.376-.292-.565-.449-.098-.082-.197-.171-.295-.256-.183-.156-.365-.31-.548-.476-.105-.095-.21-.199-.315-.297-.177-.165-.353-.327-.53-.501-.107-.106-.214-.22-.322-.329-.174-.176-.348-.349-.521-.535-.116-.124-.232-.257-.347-.385-.165-.182-.331-.36-.496-.55-.119-.138-.238-.286-.358-.428-.161-.192-.323-.38-.484-.58-.126-.156-.251-.324-.376-.485-.155-.199-.309-.392-.464-.599-.131-.175-.261-.362-.391-.542-.149-.206-.298-.407-.447-.62-.041-.059-.081-.122-.122-.182-.436-.809-.838-1.613-1.199-2.404-.015-.033-.031-.065-.048-.097-1.647-3.624-2.613-7.22-2.845-10.34,.12,.306,.241,.609,.364,.907,.011,.026,.021,.053,.032,.079,.239,.574,.484,1.128,.734,1.671,.043,.093,.085,.188,.129,.281,.242,.516,.488,1.017,.738,1.505,.05,.097,.1,.192,.15,.288,.255,.487,.513,.963,.775,1.421,.036,.063,.072,.123,.108,.185,.261,.451,.526,.888,.794,1.311,.023,.036,.046,.074,.069,.11,.276,.432,.556,.847,.838,1.25,.05,.072,.101,.145,.151,.216,.275,.388,.552,.761,.832,1.122,.052,.067,.103,.132,.155,.197,.286,.363,.573,.716,.862,1.051,.028,.032,.056,.063,.084,.095,.284,.327,.569,.64,.855,.94,.033,.034,.065,.07,.098,.104,.29,.302,.581,.587,.872,.862,.053,.05,.106,.1,.159,.15,.286,.265,.571,.518,.856,.758,.049,.042,.099,.081,.148,.122,.294,.243,.588,.476,.88,.692l.045,.032c.288,.212,.575,.409,.86,.596,.038,.025,.076,.051,.115,.076,.281,.181,.56,.347,.836,.503,.052,.029,.103,.058,.155,.086,.273,.15,.544,.289,.811,.415,.043,.02,.085,.039,.128,.058,.279,.128,.555,.247,.826,.349,5.831,2.193,10.069,1.789,14.168,1.397,3.825-.365,7.438-.71,12.355,1.067,.362,.131,.711,.278,1.048,.438,.113,.053,.218,.115,.328,.172,.219,.112,.439,.224,.648,.348,.125,.074,.242,.156,.363,.233,.183,.118,.367,.235,.542,.361Zm-29.925,3.762c.223,.101,.446,.196,.668,.288,.11,.046,.22,.094,.329,.138,.311,.124,.621,.24,.93,.348,.019,.007,.039,.015,.058,.021,.327,.113,.653,.217,.978,.314,.112,.033,.222,.062,.333,.093,.214,.06,.429,.12,.642,.174,.129,.033,.258,.062,.387,.093,.195,.046,.389,.09,.582,.131,.133,.028,.266,.055,.398,.08,.191,.037,.38,.072,.569,.104,.129,.022,.259,.044,.387,.065,.196,.031,.39,.058,.584,.084,.119,.016,.239,.033,.357,.048,.222,.027,.443,.051,.663,.073,.087,.009,.175,.02,.262,.028,.303,.028,.603,.052,.902,.071,.092,.006,.182,.01,.273,.015,.211,.012,.422,.024,.631,.033,.118,.005,.234,.008,.351,.012,.181,.006,.361,.012,.539,.016,.123,.003,.245,.005,.367,.006,.172,.003,.344,.005,.514,.005,.12,0,.239,.001,.358,.001,.174,0,.345,0,.517-.002,.112,0,.224-.001,.336-.003,.188-.002,.373-.005,.557-.008,.09-.001,.18-.003,.269-.004,.265-.005,.527-.01,.785-.015,2.882-.058,5.37-.107,7.263,.63,.273,.106,.534,.219,.79,.335,.08,.036,.156,.075,.234,.112,.174,.083,.345,.167,.511,.255,.085,.045,.168,.09,.25,.136,.156,.086,.309,.175,.458,.265,.076,.046,.152,.091,.226,.138,.162,.103,.319,.208,.473,.314,.051,.036,.105,.07,.156,.106,.202,.145,.398,.292,.585,.443,.03,.024,.057,.049,.087,.073,.155,.127,.306,.256,.451,.386,.056,.051,.11,.102,.165,.153,.115,.107,.227,.215,.335,.323,.056,.057,.112,.114,.167,.171,.104,.109,.205,.218,.303,.328,.048,.054,.097,.108,.144,.162,.114,.133,.224,.266,.33,.4,.024,.031,.051,.061,.075,.092,.129,.165,.251,.331,.368,.497,.031,.044,.06,.089,.09,.133,.084,.122,.165,.244,.243,.366,.038,.059,.074,.118,.11,.177,.067,.109,.132,.218,.195,.327,.034,.06,.069,.12,.102,.179,.047,.084,.09,.167,.134,.251-3.953,.755-7.864,.729-11.651-.084-6.853-1.47-12.646-4.823-17.296-8.957,.057,.026,.114,.05,.171,.076Z" fill="#390075"/></g><path d="M129.997,206.709c36.999-.465,52.354-17.75,57.473-35.336,4.487-15.363,1.155-30.96-2.367-35.755,0,0-26.586,6.389-68.472-5.094-3.383-.924-6.607-1.615-9.678-2.093-34.933-5.412-49.827,16.805-51.122,30.185-1.407,14.551,4.834,48.967,74.166,48.093Z" fill="#fff"/><g opacity=".2"><path d="M57.13,161.486c4.08,15.917,20.264,35.766,73.13,35.098,21.421-.271,35.584-6.18,44.708-14.52,4.174-3.815,1.948-10.735-3.662-11.442-2.166-.273-4.349-.618-6.545-1.037-29.224-5.577-51.784-22.45-57.809-41.153,3.072,.478,6.295,1.169,9.678,2.093,41.886,11.483,68.472,5.094,68.472,5.094,2.006,2.731,3.948,8.969,4.421,16.669,.325-2.848,.424-5.628,.347-8.262,4.386,19.768-.455,61.775-58.416,62.508-64.863,.816-74.505-29.251-74.326-45.049Z" fill="#390075"/></g><path d="M64.369,188.725c-10.709-11.646-10.691-25.048-10.187-30.27,.703-7.269,5.195-17.615,15.694-24.851,8.341-5.748,23.298-11.226,47.194-4.675,40.92,11.218,67.385,5.139,67.648,5.077h0c.648-.154,1.327,.094,1.721,.631,4.588,6.249,8.426,27.374-.597,45.474-6.305,12.648-21.107,27.817-55.823,28.255-.878,.011-1.748,.016-2.612,.016-29.838,0-51.039-6.609-63.038-19.657Zm51.826-56.601c-22.667-6.214-36.676-1.141-44.438,4.208-9.574,6.598-13.674,16.213-14.276,22.442-.462,4.779-.478,17.046,9.327,27.708,11.682,12.704,32.917,18.961,63.17,18.571,26.156-.33,44.448-9.466,52.899-26.419,7.917-15.881,5.239-34.646,1.461-41.16-5.605,1.098-30.68,4.922-68.143-5.349Zm68.905,3.493h0Z" fill="#390075"/><g><path d="M160.37,198.416c.396-.069,.793-.127,1.194-.181l.004-.003c20.62-2.878,48.413,8.333,53.197-5.952,1.196-3.567,.378-6.579-1.733-9.111l-.003-.004c-9.108-10.932-42.29-13.038-42.29-13.038l-10.369,28.29Z" fill="#fff"/><g opacity=".2"><path d="M160.37,198.416c20.62-2.878,49.611,8.149,54.395-6.136,1.196-3.567,.378-6.579-1.733-9.111,2.794,9.403-40.48-.207-49.517,6.667,0,0-2.938,8.332-3.145,8.58Z" fill="#451661"/></g><path d="M170.705,170.679c2.246,1.021,4.522,1.476,6.809,1.853,2.282,.402,4.579,.674,6.869,1,2.291,.32,4.557,.782,6.804,1.293,2.246,.514,4.471,1.101,6.655,1.782,2.181,.686,4.324,1.466,6.367,2.404,2.043,.931,3.99,2.035,5.654,3.377,1.654,1.338,2.995,2.961,3.522,4.772,.262,.904,.331,1.849,.214,2.809-.018,.24-.066,.48-.12,.721-.04,.241-.11,.482-.184,.722l-.106,.36-.143,.341-.277,.686c-.87,1.734-2.297,3.075-4.212,3.844-1.885,.801-4.066,1.18-6.293,1.325-4.474,.288-9.111-.132-13.745-.558-4.642-.439-9.322-.948-14.061-1.191l-1.779-.08-1.786-.046c-1.193-.009-2.387-.097-3.59-.085-1.2-.008-2.408,.114-3.596,.369-1.186,.264-2.359,.706-3.429,1.497-.275,.203-.333,.59-.13,.864,.073,.099,.17,.17,.277,.211l.037,.014c.626,.238,1.218,.351,1.803,.444,.584,.09,1.163,.16,1.732,.177,.568,.008,1.141,.038,1.708,.025,.284-.003,.566-.019,.85-.031,.285-.003,.569-.017,.854-.034,1.135-.08,2.282-.144,3.429-.133l1.724,.041,1.728,.078c4.612,.236,9.242,.738,13.919,1.181,4.677,.424,9.404,.872,14.285,.564,2.432-.166,4.94-.559,7.373-1.587,.614-.225,1.193-.591,1.781-.908,.287-.178,.559-.392,.837-.588l.414-.303c.132-.109,.254-.234,.381-.351,.251-.239,.503-.476,.747-.721l.647-.816c.104-.139,.22-.27,.311-.416l.261-.445c.17-.299,.352-.594,.506-.898l.386-.939,.189-.471,.144-.481c.097-.319,.188-.641,.248-.978,.073-.331,.136-.664,.168-1.009,.168-1.361,.069-2.796-.325-4.139-.389-1.348-1.073-2.569-1.878-3.63-.809-1.064-1.746-1.975-2.734-2.777-1.984-1.597-4.152-2.805-6.361-3.817-2.212-1.015-4.477-1.836-6.759-2.554-2.284-.713-4.589-1.319-6.905-1.85-2.316-.531-4.645-.973-6.967-1.438-2.323-.462-4.659-.867-7.022-1.04-1.18-.093-2.363-.163-3.557-.099-1.195,.062-2.39,.193-3.605,.558-.311,.094-.488,.422-.394,.734,.051,.168,.17,.297,.318,.365l.006,.003Z" fill="#390075"/></g><path d="M15.851,170.049c2.589,7.394,13.454,7.132,18.378,7.289,4.925,.157,7.361,10.593,22.283,9.906,5.775-.267,10.5-2.645,14.195-5.607,6.73-5.398,10.041-12.729,10.041-12.729l-9.068-23.055c-24.132-8.882-44.503,2.438-52.514,13.246-3.045,4.102-4.305,8.13-3.316,10.95Z" fill="#fff"/><g opacity=".2"><path d="M15.851,170.049c2.589,7.394,13.454,7.132,18.378,7.289,4.925,.157,7.361,10.593,22.283,9.906,5.775-.267,10.5-2.645,14.195-5.607l.006-.009s6.609-4.754,8.758-11.582c0,0-22.606,16.529-37.325-3.385,0,0-19.953,5.388-22.98-7.563-3.045,4.102-4.305,8.13-3.316,10.95Z" fill="#390075"/></g><path d="M72.789,179.045c-2.564,1.327-4.798,2.741-7.158,3.902-2.362,1.128-4.809,2.025-7.384,2.417-.641,.117-1.289,.155-1.942,.211-.664,.03-1.327,.046-1.986,.025-1.318-.039-2.621-.182-3.885-.451-2.533-.537-4.881-1.606-6.952-3.188-1.048-.779-2.027-1.68-3.044-2.64-.511-.479-1.028-.975-1.605-1.473-.578-.495-1.208-1.001-2-1.435-.197-.108-.417-.204-.626-.302-.229-.084-.455-.172-.696-.238-.249-.052-.488-.129-.749-.147l-.385-.036c-.071-.007-.124-.009-.163-.009l-.134-.004-2.105-.056c-1.382-.041-2.74-.116-4.076-.261-2.653-.294-5.279-.875-7.348-2.121-1.019-.629-1.878-1.411-2.469-2.364-.306-.457-.539-1.014-.705-1.51-.144-.467-.206-.994-.192-1.55,.022-1.115,.36-2.321,.837-3.484,.494-1.165,1.128-2.306,1.872-3.391,1.482-2.177,3.324-4.159,5.349-5.931,4.061-3.547,8.86-6.281,13.962-8.099,5.109-1.814,10.542-2.7,15.965-2.587,1.355,.037,2.71,.114,4.059,.264,1.348,.158,2.683,.416,4.005,.723,1.323,.296,2.653,.553,4.001,.795,1.36,.201,2.732,.385,4.256,.267h.017c.33-.027,.577-.315,.552-.646-.012-.155-.083-.292-.187-.391-1.124-1.057-2.411-1.789-3.763-2.328-1.354-.533-2.762-.922-4.196-1.167-2.876-.439-5.769-.758-8.678-.83-5.818-.122-11.658,.829-17.142,2.778-5.48,1.955-10.623,4.878-15.034,8.728-2.201,1.928-4.223,4.091-5.907,6.562-.844,1.233-1.588,2.556-2.191,3.979-.582,1.431-1.046,2.971-1.091,4.674-.021,.847,.069,1.735,.339,2.611,.275,.834,.603,1.58,1.068,2.299,.896,1.441,2.18,2.589,3.55,3.428,1.382,.83,2.848,1.387,4.312,1.785,1.466,.394,2.937,.637,4.396,.799,1.458,.159,2.909,.236,4.335,.279l2.109,.056,.129,.004c.049,0,.084,.003,.1,.007l.139,.015c.093-.004,.188,.043,.284,.054,.098,.026,.199,.071,.301,.102,.106,.056,.211,.096,.322,.157,.897,.489,1.89,1.448,2.909,2.406,1.026,.967,2.117,1.977,3.325,2.876,2.393,1.836,5.281,3.16,8.248,3.779,1.484,.318,2.986,.475,4.475,.527,.372,.007,.746,.029,1.116,.023l1.112-.017c.748-.036,1.506-.065,2.254-.163,1.499-.173,2.997-.46,4.436-.933,1.438-.47,2.825-1.088,4.121-1.844,2.6-1.488,4.87-3.534,6.309-6.148,.154-.279,.052-.629-.227-.783-.174-.096-.375-.092-.54-.009l-.008,.004Z" fill="#390075"/><g><path d="M109.115,125.543c2.149,25.437,30.866,38.538,64.683,35.681,33.817-2.857,59.929-20.59,57.78-46.027-2.149-25.437-31.745-48.946-65.562-46.089-33.817,2.857-59.05,30.998-56.901,56.435Z" fill="#fff"/><g opacity=".2"><path d="M173.204,161.183c33.814-2.859,59.928-20.591,57.778-46.03-.011-.16-.026-.318-.044-.48-3.68,20.803-27.539,34.935-57.411,37.461-33.767,2.85-62.447-10.203-64.677-35.563-.463,2.985-.584,5.973-.333,8.929,2.15,25.439,30.867,38.539,64.688,35.683Z" fill="#390075"/></g><path d="M173.938,162.874c-17.169,1.45-33.195-1.182-45.124-7.412-12.89-6.732-20.272-17.03-21.35-29.78-1.091-12.918,4.531-26.76,15.425-37.979,11.335-11.671,26.6-18.862,42.987-20.247,16.386-1.384,32.642,3.143,45.774,12.748,12.622,9.232,20.487,21.935,21.579,34.853,1.077,12.749-4.473,24.14-16.051,32.939-6.393,4.859-14.436,8.699-23.532,11.315-6.15,1.769-12.783,2.978-19.708,3.563Zm-48.671-72.863c-10.226,10.53-15.511,23.43-14.501,35.392,1.95,23.082,27.813,37.133,62.893,34.17,6.94-.586,13.409-1.768,19.312-3.465,23.939-6.886,38.522-22.255,36.957-40.771-1.978-23.419-29.672-47.459-63.772-44.578-4.286,.362-8.488,1.141-12.557,2.311-10.731,3.086-20.517,8.894-28.332,16.942Z" fill="#390075"/><path d="M163.198,88.003c1.008,.118,2.143,.121,3.412-.029,6.441-.765,8.52-4.472,8.593-6.986-1.598,1.531-5.991,5.32-12.005,7.015Z" fill="#fe6dcb"/><path d="M160.356,87.259c.624,.278,1.332,.497,2.131,.641,.23,.043,.467,.079,.708,.101,6.014-1.695,10.408-5.484,12.005-7.015,.01-.116,.003-.232,.001-.344-.076-1.764-.469-4.22-1.095-6.971,0,0-5.166,6.324-14.281,8.689-1.038,.268-2.124,.489-3.261,.638,.334,1.463,1.494,3.242,3.791,4.262Z" fill="#33aef1"/><g opacity=".6"><path d="M160.356,87.259c-.237-1.674-.408-3.31-.529-4.899-1.038,.268-2.124,.489-3.261,.638,.334,1.463,1.494,3.242,3.791,4.262Z" fill="#fff"/></g><path d="M156.566,82.997c1.137-.149,2.224-.37,3.261-.638,9.114-2.364,14.281-8.689,14.281-8.689-.63-2.78-1.505-5.869-2.525-8.855,0,0-2.875,5.465-11.934,9.882-1.126,.55-2.349,1.085-3.672,1.587,.051,2.629,.239,4.935,.558,6.572,.009,.045,.019,.095,.031,.139Z" fill="#fdd800"/><g opacity=".6"><path d="M156.566,82.997c1.137-.149,2.224-.37,3.261-.638-.201-2.682-.248-5.237-.178-7.661-1.126,.55-2.349,1.085-3.672,1.587,.051,2.629,.239,4.935,.558,6.572,.009,.045,.019,.095,.031,.139Z" fill="#fff"/></g><path d="M155.977,76.286c1.323-.502,2.546-1.037,3.672-1.587,9.06-4.417,11.934-9.882,11.934-9.882-1.103-3.228-2.389-6.337-3.752-8.82,0,0-2.274,4.874-7.14,8.425-1.273,.932-2.722,1.771-4.359,2.408-.297,3.252-.414,6.556-.355,9.456Z" fill="#b177ea"/><g opacity=".6"><path d="M155.977,76.286c1.323-.502,2.546-1.037,3.672-1.587,.106-3.767,.501-7.208,1.042-10.277-1.273,.932-2.722,1.771-4.359,2.408-.297,3.252-.414,6.556-.355,9.456Z" fill="#fff"/></g><path d="M156.265,66.597c1.637-.636,3.086-1.475,4.359-2.408,4.867-3.551,7.14-8.425,7.14-8.425-1.115-2.044-2.277-3.661-3.435-4.569-.749-.59-1.5-.884-2.228-.796-3.226,.383-5.102,8.122-5.837,16.198Z" fill="#fe6dcb"/><g opacity=".6"><path d="M155.902,66.953c1.637-.636,3.086-1.475,4.359-2.408,1.008-5.733,2.537-10.167,3.706-12.994-.749-.59-1.5-.884-2.228-.796-3.226,.383-5.102,8.122-5.837,16.198Z" fill="#fff"/></g><path d="M173.148,64.279c-1.204-3.527-2.541-6.667-3.863-9.079-2.438-4.474-4.83-6.507-7.309-6.214-4.749,.569-6.587,9.933-7.296,17.693-.297,3.274-.422,6.606-.361,9.638,.053,2.769,.257,5.139,.589,6.855,.017,.095,.038,.188,.063,.277v.004c.028,.112,.059,.225,.093,.338,.013,.045,.03,.097,.047,.148,.035,.106,.065,.192,.097,.278,.026,.068,.049,.127,.073,.188,.038,.092,.077,.181,.118,.27,.034,.074,.054,.12,.077,.166,.068,.139,.141,.278,.22,.418,.014,.025,.038,.065,.062,.104,.067,.112,.131,.216,.199,.32l.078,.114,.031,.045c.066,.094,.135,.189,.206,.283l.112,.145c.087,.109,.186,.225,.288,.341,.021,.024,.05,.057,.08,.088,.099,.11,.234,.247,.375,.381,.01,.01,.055,.051,.065,.061,.124,.115,.246,.222,.373,.327l.092,.075,.021,.017c.127,.102,.259,.201,.395,.298l.088,.063c.353,.243,.726,.464,1.115,.659,.011,.006,.063,.03,.074,.036l.088,.042c.079,.039,.159,.078,.242,.115,.058,.025,.105,.044,.152,.063l.223,.091c.156,.062,.314,.12,.475,.174,.078,.027,.146,.051,.216,.072,.152,.048,.31,.093,.47,.136l.052,.014c.063,.018,.127,.035,.192,.051,.186,.045,.373,.084,.561,.121,.061,.014,.116,.026,.173,.036,.298,.055,.579,.095,.848,.12,1.142,.135,2.421,.125,3.76-.033,.962-.114,1.852-.295,2.669-.53,4.947-1.423,7.28-4.865,7.384-8.026,.007-.133,.006-.267,.004-.397v-.052c-.05-1.131-.209-2.47-.478-4.023-.139-.806-.307-1.666-.5-2.556l-.036-.168c-.04-.186-.081-.373-.124-.563-.66-2.914-1.55-6.035-2.575-9.025Zm.399,16.408l-.006,.006c-.084,.075-.176,.154-.267,.233-.052,.045-.101,.088-.156,.135-.117,.1-.243,.204-.37,.309-.036,.029-.068,.057-.104,.087-.166,.135-.34,.275-.522,.417-.052,.041-.109,.083-.162,.124-.133,.103-.268,.206-.409,.311-.076,.057-.157,.115-.236,.172-.126,.092-.252,.183-.383,.276-.09,.063-.184,.127-.276,.191-.128,.088-.257,.177-.389,.265-.1,.067-.203,.134-.306,.2-.133,.086-.267,.172-.404,.259-.109,.068-.22,.137-.332,.205-.139,.085-.28,.169-.424,.253-.116,.068-.232,.135-.351,.203-.147,.084-.298,.166-.449,.249-.121,.066-.242,.132-.366,.196-.158,.083-.32,.164-.482,.245-.123,.061-.245,.123-.37,.184-.176,.084-.356,.166-.536,.248-.118,.053-.234,.108-.353,.16-.216,.094-.437,.184-.659,.273-.089,.036-.176,.074-.267,.109-.314,.122-.633,.239-.958,.349-.052,.018-.106,.033-.159,.05-.154-.011-.309-.021-.458-.038-.209-.02-.393-.046-.604-.085l-.116-.026c-.149-.029-.286-.057-.417-.089l-.171-.047c-.117-.032-.227-.062-.333-.096l-.119-.04c-.14-.048-.247-.087-.352-.128l-.227-.092c-.066-.028-.108-.049-.15-.07l-.078-.037-.054-.026c-.257-.128-.497-.27-.719-.423l-.057-.042c-.086-.061-.167-.122-.245-.184l-.018-.014-.045-.037c-.084-.069-.158-.135-.23-.201l-.042-.038c-.084-.08-.164-.16-.237-.242l-.048-.054c-.045-.05-.103-.119-.158-.188l-.05-.065c-.047-.062-.083-.111-.117-.159,.258-.053,.51-.112,.762-.172,.095-.022,.192-.043,.285-.066,.365-.09,.725-.185,1.077-.286,.03-.009,.059-.018,.089-.027,.063-.018,.124-.038,.187-.057,.322-.096,.639-.197,.95-.301,.078-.026,.157-.052,.234-.079,.353-.122,.7-.248,1.04-.38,.054-.021,.107-.043,.161-.064,.3-.118,.594-.24,.884-.365,.067-.029,.135-.058,.202-.087,.323-.142,.64-.288,.949-.437,.051-.025,.1-.05,.151-.074,.271-.132,.535-.266,.795-.403,.061-.032,.123-.064,.183-.096,.29-.155,.574-.312,.85-.47,.049-.028,.095-.056,.144-.084,.239-.139,.472-.278,.699-.419,.056-.035,.113-.069,.168-.103,.256-.16,.505-.32,.747-.481,.047-.031,.093-.063,.139-.094,.205-.138,.404-.275,.598-.412,.052-.037,.105-.073,.156-.11,.22-.157,.434-.314,.639-.469,.046-.035,.09-.069,.136-.104,.17-.13,.335-.258,.495-.385,.047-.038,.096-.075,.142-.113,.184-.148,.361-.293,.531-.436,.044-.037,.086-.073,.13-.11,.136-.116,.268-.229,.394-.341,.042-.037,.085-.074,.125-.11,.062-.056,.122-.11,.182-.164,.029,.158,.061,.322,.088,.476,.242,1.404,.386,2.592,.429,3.534Zm-11.28-28.391c.033-.01,.066-.016,.099-.02,.518-.061,1.875,.748,3.758,4.06l-.013,.023c-.061,.104-.128,.217-.2,.335-.02,.032-.041,.066-.061,.1-.059,.097-.123,.198-.189,.302-.023,.036-.045,.071-.069,.108-.085,.132-.176,.27-.273,.413-.026,.039-.054,.079-.081,.118-.078,.115-.16,.233-.246,.353-.033,.047-.066,.093-.1,.141-.111,.154-.227,.312-.348,.473-.029,.039-.061,.079-.091,.119-.1,.131-.205,.265-.312,.4-.043,.054-.085,.107-.129,.161-.137,.169-.279,.34-.427,.513-.028,.033-.058,.066-.086,.098-.128,.147-.26,.296-.396,.445-.051,.056-.102,.112-.154,.167-.161,.173-.326,.347-.497,.521l-.057,.057c-.167,.168-.341,.335-.518,.502-.057,.054-.115,.108-.173,.161-.17,.156-.343,.312-.522,.466-.03,.026-.059,.053-.089,.079-.204,.174-.415,.345-.63,.515-.062,.049-.125,.097-.188,.146-.185,.142-.374,.283-.567,.421-.045,.032-.089,.066-.135,.098-.232,.162-.47,.32-.714,.475-.064,.041-.13,.081-.195,.121-.133,.082-.271,.161-.407,.241,1.028-8.3,2.908-11.792,4.012-12.11Zm10.112,21.272l-.034,.036-.056,.057c-.226,.228-.502,.496-.823,.791l-.096,.088c-.16,.146-.331,.298-.512,.455-.029,.026-.061,.052-.091,.078-.174,.149-.357,.303-.55,.461-.027,.022-.053,.044-.081,.066-.208,.168-.428,.341-.657,.516-.048,.037-.098,.074-.147,.111-.238,.179-.483,.361-.742,.544l-.058,.041c-.248,.175-.508,.351-.775,.526-.049,.032-.097,.064-.146,.097-.281,.183-.572,.365-.873,.546-.052,.031-.106,.063-.159,.094-.309,.183-.625,.365-.954,.543l-.022,.013c-.333,.181-.68,.357-1.034,.531-.063,.031-.125,.061-.189,.092-.354,.17-.718,.337-1.092,.498-.042,.018-.085,.035-.127,.053-.359,.152-.727,.298-1.104,.439-.047,.018-.093,.036-.141,.053-.394,.144-.799,.281-1.212,.41-.076,.024-.153,.047-.229,.07-.424,.128-.854,.25-1.297,.36l-.044,.01c-.377,.093-.765,.172-1.155,.25-.161-1.208-.273-2.691-.325-4.334,.352-.145,.698-.292,1.035-.44,.069-.03,.135-.062,.203-.092,.335-.149,.663-.3,.984-.453,.133-.063,.262-.127,.392-.191,.256-.125,.507-.25,.753-.376,.129-.066,.258-.132,.384-.199,.263-.138,.519-.277,.771-.417,.091-.051,.186-.101,.276-.152,.332-.187,.655-.376,.968-.564,.085-.051,.165-.102,.248-.153,.231-.142,.459-.284,.68-.426,.107-.069,.211-.137,.315-.206,.197-.129,.389-.258,.577-.388,.097-.066,.194-.132,.288-.199,.22-.154,.433-.308,.642-.461,.05-.037,.102-.074,.152-.11,.252-.188,.494-.374,.729-.56,.074-.058,.144-.116,.216-.174,.163-.131,.322-.261,.476-.39,.08-.067,.159-.133,.236-.2,.147-.125,.289-.249,.427-.372,.066-.059,.134-.117,.198-.176,.194-.175,.382-.348,.56-.518l.042-.041c.168-.161,.328-.318,.483-.473,.056-.056,.109-.111,.164-.167,.11-.112,.217-.223,.319-.332,.054-.057,.107-.114,.16-.171,.103-.112,.202-.221,.298-.328,.04-.045,.081-.09,.12-.134,.046-.052,.089-.103,.134-.154,.571,1.861,1.077,3.726,1.496,5.521Zm-13.66-6.351c.196-.101,.389-.204,.579-.31,.089-.049,.177-.098,.265-.149,.215-.124,.427-.251,.634-.381,.049-.03,.099-.06,.147-.09,.252-.16,.497-.324,.737-.491,.07-.049,.137-.098,.206-.147,.173-.123,.343-.248,.51-.374,.078-.059,.156-.118,.233-.178,.165-.128,.327-.258,.486-.388,.061-.05,.123-.099,.183-.149,.212-.178,.419-.357,.62-.537,.044-.039,.085-.079,.128-.118,.159-.145,.316-.291,.468-.437,.065-.062,.128-.125,.192-.187,.132-.129,.261-.258,.387-.388,.058-.059,.116-.118,.173-.177,.165-.172,.326-.344,.481-.516l.032-.034c.165-.182,.322-.363,.476-.543,.051-.059,.099-.117,.148-.176,.105-.125,.207-.249,.307-.371,.05-.062,.1-.123,.149-.185,.105-.132,.206-.262,.305-.391,.033-.043,.068-.087,.1-.13,.125-.166,.245-.328,.361-.488,.04-.055,.077-.108,.115-.162,.076-.107,.15-.213,.222-.316,.044-.064,.087-.128,.13-.191,.018-.027,.038-.056,.057-.083,.798,1.724,1.587,3.699,2.332,5.845l-.009,.012c-.076,.106-.16,.221-.254,.345l-.022,.029c-.09,.118-.19,.245-.297,.377l-.052,.064c-.115,.141-.24,.29-.374,.446l-.062,.07c-.132,.152-.273,.309-.424,.472l-.036,.039c-.158,.17-.329,.348-.509,.529-.033,.033-.067,.067-.1,.101-.369,.369-.783,.758-1.243,1.161-.044,.038-.087,.076-.131,.115-.23,.2-.471,.402-.724,.607-.033,.026-.067,.053-.1,.08-.235,.189-.481,.38-.736,.572-.047,.035-.092,.07-.139,.105-.278,.207-.569,.416-.871,.625-.06,.042-.123,.084-.184,.126-.291,.199-.591,.398-.904,.598-.031,.019-.059,.039-.09,.058-.332,.21-.681,.42-1.039,.63-.081,.048-.164,.095-.246,.143-.366,.21-.741,.42-1.133,.628-.034,.018-.071,.036-.105,.054-.366,.192-.745,.383-1.134,.572-.095,.046-.189,.092-.285,.138-.341,.162-.697,.322-1.056,.481,.018-2.12,.125-4.341,.31-6.55,.175-.081,.349-.162,.52-.247,.09-.045,.179-.091,.268-.137Z" fill="#390075"/><path d="M143.351,84.508s-6.981-20.828-15.661-19.687c-8.68,1.141-11.387,31.948-9.977,39.084,0,0,13.401-.851,25.638-19.397Z" fill="#fff"/><path d="M143.874,84.332c.327-1.665-.006-3.116-.484-4.505-.465-1.397-1.133-2.712-1.847-4.002-.718-1.288-1.408-2.595-2.182-3.868-.774-1.273-1.616-2.52-2.577-3.712-.964-1.188-2.044-2.332-3.371-3.309-1.312-.964-3.004-1.754-4.901-1.815l-.705,.035c-.118,.008-.233,.013-.353,.026l-.379,.069c-.255,.041-.491,.131-.735,.201-.228,.095-.47,.178-.681,.295-.872,.442-1.575,1.036-2.161,1.66-1.16,1.262-1.937,2.642-2.599,4.025-1.303,2.778-2.121,5.628-2.804,8.486-.67,2.861-1.163,5.739-1.541,8.628-.377,2.889-.638,5.788-.77,8.706-.034,.729-.055,1.46-.071,2.193-.012,.733-.091,1.468-.114,2.209-.026,.741,.051,1.488,.25,2.231,.215,.735,.57,1.495,1.321,2.128,.298,.251,.744,.213,.995-.085,.021-.025,.04-.05,.056-.077l.032-.052c.486-.776,.691-1.445,.806-2.139,.1-.687,.126-1.373,.074-2.065-.046-.692-.119-1.391-.106-2.091,.008-.7,.034-1.402,.065-2.105,.127-2.811,.381-5.628,.746-8.424,.366-2.796,.843-5.576,1.481-8.299,.644-2.713,1.433-5.404,2.571-7.822,.567-1.199,1.239-2.335,2.028-3.186,.393-.42,.813-.751,1.222-.958,.101-.061,.204-.084,.304-.135,.102-.02,.2-.071,.301-.08l.15-.03,.183-.007c.123-.005,.246-.013,.369-.024,.983,.041,2.033,.458,3.019,1.185,.985,.724,1.901,1.673,2.739,2.709,.839,1.04,1.607,2.173,2.322,3.349,.713,1.178,1.39,2.395,1.949,3.673,.564,1.277,1.084,2.572,1.736,3.816,.63,1.255,1.349,2.473,2.612,3.518l.019,.016c.27,.224,.671,.186,.894-.085,.069-.084,.114-.183,.134-.282Z" fill="#390075"/><g><path d="M135.58,83.641s-2.666-10.402-6.367-9.702c-3.701,.699-5.29,16.27-4.794,19.848,0,0,5.701-.62,11.161-10.146Z" fill="#fe6dcb"/><path d="M128.905,72.311c-1.538,.29-3.759,1.661-5.294,10.179-.771,4.276-1.137,9.338-.834,11.525,.123,.888,.929,1.516,1.82,1.419,.056-.006,.375-.046,.898-.196,1.988-.572,6.92-2.745,11.52-10.773,.214-.374,.274-.817,.167-1.235-.716-2.793-3.428-11.835-8.279-10.919Zm-2.914,19.189c.042-2.094,.314-5.144,.814-8.044,1.021-5.918,2.358-7.73,2.745-7.898,.902-.168,2.99,3.357,4.25,7.843-3.01,5.033-5.995,7.19-7.809,8.098Z" fill="#390075"/></g><path d="M189.925,78.968s1.9-21.885,10.606-22.811c8.706-.927,18.563,28.385,18.867,35.654,0,0-13.227,2.317-29.473-12.842Z" fill="#fff"/><path d="M190.475,79.016c.983-1.312,1.397-2.665,1.714-4.032,.343-1.362,.544-2.743,.793-4.116,.244-1.374,.616-2.716,1.033-4.028,.419-1.311,.9-2.593,1.472-3.8,.571-1.204,1.239-2.341,2.027-3.276,.788-.938,1.71-1.59,2.657-1.86,.122-.018,.243-.039,.364-.063l.18-.036,.153-.006c.101-.015,.208,.011,.312,.007,.109,.025,.214,.024,.327,.059,.446,.105,.932,.328,1.413,.645,.966,.641,1.886,1.588,2.719,2.621,1.673,2.084,3.071,4.515,4.334,7.001,1.259,2.497,2.375,5.088,3.387,7.72,1.01,2.633,1.918,5.312,2.701,8.014,.195,.676,.385,1.352,.557,2.031,.177,.678,.27,1.374,.388,2.058,.112,.685,.298,1.346,.557,1.99,.275,.648,.631,1.25,1.286,1.89l.041,.04c.279,.273,.725,.268,.998-.01,.023-.023,.046-.051,.064-.076,.582-.791,.749-1.613,.786-2.378,.02-.769-.081-1.513-.28-2.228-.196-.715-.446-1.411-.629-2.121-.187-.709-.38-1.414-.584-2.115-.813-2.805-1.747-5.562-2.791-8.282-1.046-2.719-2.2-5.402-3.522-8.026-1.334-2.618-2.798-5.196-4.716-7.591-.968-1.189-2.047-2.349-3.471-3.303-.716-.469-1.539-.882-2.49-1.107-.232-.063-.487-.088-.731-.127-.254-.011-.505-.043-.762-.023l-.384,.022c-.119,.016-.233,.038-.349,.058l-.693,.132c-1.829,.505-3.289,1.669-4.338,2.914-1.061,1.261-1.842,2.626-2.5,4.007-.655,1.384-1.18,2.794-1.634,4.213-.454,1.419-.818,2.851-1.214,4.272-.391,1.422-.733,2.857-.857,4.324-.139,1.463-.122,2.951,.586,4.493,.147,.319,.524,.458,.842,.312,.099-.045,.18-.113,.241-.194l.017-.022Z" fill="#390075"/><g><path d="M196.976,76.614s.519-10.979,4.603-11.296c4.084-.317,9.231,14.603,9.499,18.265,0,0-6.189,.938-14.101-6.969Z" fill="#fe6dcb"/><path d="M204.555,64.865c-1.019-.876-2.063-1.279-3.105-1.199-5.278,.414-6.031,10.792-6.129,12.87-.022,.466,.154,.92,.484,1.25,8.407,8.402,15.234,7.479,15.521,7.435,.072-.011,.143-.027,.211-.046,.743-.214,1.25-.922,1.193-1.713-.255-3.48-4.128-15.118-8.174-18.597Zm4.528,16.974c-2.1-.338-5.908-1.573-10.408-5.88,.308-4.154,1.528-8.572,2.889-8.964,.047-.014,.095-.022,.142-.026,.331-.019,2.073,1.062,4.552,6.692,1.257,2.854,2.306,6.039,2.825,8.178Z" fill="#390075"/></g><path d="M214.341,108.883c2.017-1.232,4.037-2.328,6.104-3.319,2.062-.991,4.148-1.903,6.293-2.657,2.141-.754,4.308-1.459,6.536-1.982,1.106-.31,2.232-.525,3.364-.777,.564-.159,1.138-.219,1.711-.338,.574-.11,1.151-.225,1.731-.367-.584-.088-1.171-.149-1.762-.206-.59-.052-1.185-.113-1.776-.101-1.182,.023-2.381,.012-3.558,.187-2.373,.24-4.703,.841-6.952,1.638-2.254,.795-4.397,1.891-6.391,3.193-1.978,1.318-3.848,2.842-5.301,4.728Z" fill="#390075"/><path d="M215.651,114.698c2.27-.657,4.508-1.182,6.763-1.594,2.25-.413,4.503-.743,6.771-.905,2.264-.164,4.54-.273,6.827-.19,1.148-.008,2.292,.082,3.451,.136,.585-.005,1.155,.088,1.739,.125,.583,.045,1.169,.086,1.767,.102-.54-.239-1.09-.453-1.645-.663-.556-.205-1.113-.421-1.687-.565-1.146-.289-2.3-.616-3.482-.757-2.352-.393-4.758-.428-7.138-.251-2.383,.174-4.74,.666-7.006,1.397-2.255,.75-4.461,1.728-6.359,3.165Z" fill="#390075"/><path d="M215.843,122.339c2.359-.139,4.658-.156,6.948-.059,2.286,.095,4.556,.271,6.803,.614,2.245,.341,4.488,.737,6.7,1.324,1.122,.246,2.217,.586,3.335,.896,.572,.125,1.107,.341,1.669,.506,.558,.172,1.121,.342,1.701,.49-.474-.352-.963-.682-1.458-1.01-.497-.323-.993-.656-1.52-.924-1.054-.536-2.107-1.109-3.229-1.508-2.207-.904-4.546-1.469-6.906-1.823-2.363-.358-4.77-.398-7.142-.187-2.365,.233-4.732,.699-6.901,1.681Z" fill="#390075"/><path d="M141.095,124.26c-1.981-1.321-4.241-2.165-6.537-2.779-2.306-.594-4.687-.945-7.077-.976-2.386-.034-4.786,.144-7.111,.677-1.172,.211-2.303,.606-3.43,.963-.564,.179-1.108,.427-1.65,.665-.541,.243-1.078,.489-1.603,.76,.596-.051,1.179-.128,1.757-.207,.581-.071,1.144-.198,1.729-.228,1.153-.124,2.289-.282,3.436-.342,2.278-.219,4.556-.246,6.826-.218,2.273,.026,4.542,.221,6.813,.499,2.276,.276,4.541,.666,6.846,1.187Z" fill="#390075"/><path d="M141.718,130.188c-2.259-.753-4.661-.972-7.038-.959-2.381,.034-4.771,.323-7.084,.923-2.311,.595-4.579,1.399-6.681,2.526-1.075,.513-2.062,1.191-3.056,1.833-.497,.321-.956,.704-1.416,1.076-.458,.377-.911,.756-1.346,1.155,.561-.207,1.103-.434,1.641-.663,.542-.222,1.051-.492,1.607-.676,1.08-.423,2.134-.875,3.224-1.235,2.14-.812,4.331-1.438,6.528-2.009,2.2-.573,4.439-.983,6.703-1.313,2.268-.333,4.556-.553,6.917-.659Z" fill="#390075"/><path d="M143.986,137.487c-2.369-.235-4.761,.083-7.076,.62-2.315,.56-4.581,1.37-6.705,2.466-2.122,1.092-4.156,2.377-5.957,3.941-.935,.737-1.748,1.618-2.575,2.463-.414,.423-.777,.897-1.143,1.363-.364,.469-.722,.938-1.057,1.424,.502-.325,.981-.667,1.454-1.009,.479-.336,.916-.713,1.418-1.014,.96-.651,1.888-1.325,2.872-1.918,1.908-1.265,3.905-2.359,5.922-3.402,2.019-1.046,4.112-1.94,6.247-2.763,2.138-.826,4.321-1.547,6.6-2.172Z" fill="#390075"/><g><g opacity=".2"><path d="M170.15,131.671c3.228,3.036,6.299,3.69,8.946,3.222,5.234-.921,8.831-6.217,8.831-6.217,4.082,3.031,7.431,3.925,10.099,3.732,4.424-.32,6.994-3.625,7.965-5.187-10.317,3.08-16.058-1.818-16.058-1.818l-4.761,.581c-3.814,7.724-14.691,5.746-15.022,5.687Z" fill="#390075"/></g><path d="M179.096,134.893c1.04,2.266,2.577,4.804,4.358,6.781,1.979,2.21,4.256,3.74,6.483,3.468,2.244-.274,4.105-2.322,5.499-4.964,1.26-2.389,2.144-5.268,2.59-7.77-2.668,.193-6.017-.701-10.099-3.732,0,0-3.597,5.296-8.831,6.217Z" fill="#390075"/><g><path d="M183.454,141.673c1.979,2.21,4.256,3.74,6.483,3.468,2.244-.274,4.105-2.322,5.499-4.964-1.155-2.227-3.709-3.612-6.48-3.274-2.779,.339-4.935,2.316-5.503,4.77Z" fill="#fb64c0"/><path d="M189.961,145.334c-2.058,.251-4.358-.97-6.651-3.532l-.067-.075,.022-.098c.601-2.601,2.88-4.576,5.668-4.919,2.77-.338,5.453,1.019,6.676,3.377l.047,.09-.048,.09c-1.344,2.545-2.92,4.186-4.61,4.812-.342,.127-.688,.212-1.038,.254Zm-.981-8.238c-2.593,.315-4.716,2.129-5.314,4.523,1.538,1.699,3.849,3.622,6.247,3.329,2.426-.295,4.216-2.737,5.304-4.772-1.17-2.16-3.663-3.396-6.237-3.081Z" fill="#390075"/></g><g><path d="M192.151,120.436c-1.244-1.283-9.052-.601-10.167,1.241-1.115,1.842,3.22,5.52,5.795,5.205,2.575-.314,5.752-5.023,4.372-6.447Z" fill="#390075"/><path d="M187.976,128.498c-2.517,.307-5.674-1.756-7.044-3.876-1.183-1.83-.72-3.158-.339-3.787,.998-1.651,3.881-2.299,6.124-2.554,1.889-.214,5.258-.366,6.603,1.022h0c.493,.509,1.212,1.672,.482,3.737-.73,2.065-2.676,4.414-4.817,5.207-.333,.123-.67,.209-1.008,.25Zm-4.515-6.032c.099,.276,.454,.851,1.224,1.497,1.121,.94,2.329,1.374,2.897,1.305,.514-.064,1.472-.701,2.301-1.8,.615-.814,.895-1.534,.961-1.908-1.547-.478-6.277,.09-7.383,.906Zm-.121,.106h0Z" fill="#390075"/><g><path d="M182.765,121.538c.075,.618,2.027,.889,4.358,.604,2.331-.285,4.16-1.017,4.085-1.635-.075-.618-2.027-.889-4.358-.604s-4.16,1.017-4.085,1.635Z" fill="#fff"/><path d="M187.148,122.351c-2.201,.268-4.486,.084-4.593-.787h0c-.051-.415,.377-.806,1.27-1.163,.787-.315,1.853-.567,2.998-.706,1.145-.14,2.238-.153,3.079-.036,.953,.132,1.463,.409,1.513,.824,.057,.468-.542,.894-1.45,1.231-.784,.291-1.798,.514-2.818,.638Zm-3.166-1.56c-.827,.331-1.022,.617-1.009,.722,.039,.318,1.49,.742,4.124,.42,2.635-.323,3.94-1.083,3.901-1.401-.013-.105-.27-.335-1.153-.457-.806-.112-1.861-.098-2.97,.037-1.033,.126-1.994,.343-2.731,.617-.055,.02-.109,.041-.161,.062Z" fill="#390075"/></g></g><path d="M201.065,133.27c3.305-1.225,5.306-3.842,6.149-5.175,.019-.026,.037-.053,.054-.081,.343-.55,.52-.923,.539-.964,.351-.75,.028-1.643-.722-1.993-.748-.351-1.638-.029-1.991,.717h0s-.109,.228-.325,.581c-.017,.024-.034,.049-.049,.075-.781,1.257-3.007,4.208-6.801,4.483-2.699,.196-5.759-.962-9.097-3.44-.328-.243-.741-.343-1.144-.274-.402,.067-.76,.297-.99,.636-.031,.046-3.32,4.783-7.85,5.583-2.593,.459-5.17-.496-7.659-2.837-.014-.013-.028-.026-.043-.038l-.027-.023c-.207-.198-.415-.406-.625-.623-.575-.595-1.522-.613-2.12-.037-.596,.575-.612,1.524-.037,2.12,.263,.272,.523,.531,.782,.777,.027,.026,.055,.051,.084,.074,3.196,2.976,6.615,4.167,10.164,3.539,4.198-.738,7.379-3.881,8.873-5.645,3.492,2.334,6.819,3.402,9.904,3.179,1.071-.078,2.047-.306,2.93-.633Z" fill="#390075"/><path d="M190.119,146.629c-2.5,.305-5.191-1.063-7.779-3.953-1.713-1.902-3.392-4.511-4.606-7.158-.194-.422-.181-.91,.035-1.321,.216-.412,.61-.699,1.068-.78,4.53-.8,7.819-5.538,7.85-5.583,.23-.339,.588-.569,.99-.636,.403-.068,.816,.031,1.144,.274,3.338,2.479,6.398,3.636,9.097,3.44,.461-.033,.912,.148,1.222,.492,.31,.343,.444,.811,.362,1.266-.514,2.888-1.512,5.879-2.739,8.207-1.498,2.838-3.315,4.687-5.314,5.428-.435,.161-.879,.27-1.33,.325Zm-1.888-15.906c-1.25,1.475-3.678,3.913-6.894,5.105-.028,.01-.056,.021-.085,.031,.974,1.807,2.139,3.505,3.318,4.814,1.881,2.101,3.722,3.159,5.185,2.981,1.484-.181,3.031-1.665,4.356-4.175,.847-1.607,1.573-3.583,2.072-5.604-2.522-.247-5.184-1.302-7.952-3.151Z" fill="#390075"/></g><g><g><ellipse cx="203.676" cy="106.581" rx="6.689" ry="9.49" transform="translate(-16.168 39.409) rotate(-10.632)" fill="#390075"/><path d="M205.462,116.095c-3.728,.699-7.563-3-8.548-8.245h0c-.475-2.53-.226-5.041,.702-7.071,.937-2.053,2.455-3.371,4.274-3.713,3.728-.7,7.562,2.999,8.548,8.245,.919,4.896-.963,9.435-4.248,10.589-.235,.083-.478,.148-.727,.195Zm-7.5-15.158c-.895,1.959-1.134,4.389-.673,6.843h0c.946,5.04,4.581,8.602,8.103,7.941,3.528-.667,5.617-5.3,4.671-10.339-.946-5.04-4.581-8.602-8.103-7.941-.232,.043-.46,.104-.681,.182-1.392,.489-2.554,1.643-3.317,3.314Z" fill="#390075"/></g><g><ellipse cx="207.259" cy="104.557" rx="2.021" ry="3.187" transform="translate(-15.733 40.036) rotate(-10.632)" fill="#fff"/><path d="M207.883,107.877c-1.198,.225-2.453-1.081-2.797-2.911-.164-.872-.101-1.735,.176-2.43,.289-.725,.779-1.186,1.374-1.298,.597-.112,1.219,.14,1.751,.711,.511,.547,.882,1.329,1.046,2.2,.322,1.717-.27,3.296-1.335,3.67-.069,.024-.142,.044-.215,.058Zm-2.266-5.2c-.251,.629-.306,1.417-.156,2.218h0c.305,1.624,1.359,2.793,2.351,2.607,.998-.18,1.551-1.659,1.246-3.283-.15-.802-.488-1.516-.949-2.011-.44-.472-.938-.683-1.403-.596-.056,.011-.111,.025-.165,.044-.391,.137-.716,.493-.926,1.02Z" fill="#390075"/></g></g><g><g><ellipse cx="162.344" cy="113.599" rx="6.689" ry="9.49" transform="translate(-13.149 21.607) rotate(-7.319)" fill="#390075"/><path d="M163.577,123.201c-3.763,.483-7.377-3.432-8.057-8.726h0c-.328-2.553,.066-5.046,1.109-7.019,1.055-1.995,2.646-3.224,4.482-3.459,3.762-.483,7.376,3.431,8.057,8.725,.634,4.941-1.507,9.364-4.853,10.326-.24,.069-.486,.12-.738,.153Zm-6.611-15.566c-1.006,1.904-1.386,4.316-1.068,6.792h0c.653,5.086,4.077,8.852,7.63,8.396,3.561-.462,5.914-4.967,5.261-10.052-.653-5.086-4.077-8.852-7.63-8.396-.235,.03-.465,.078-.69,.143-1.418,.408-2.644,1.493-3.503,3.117Z" fill="#390075"/></g><g><ellipse cx="165.751" cy="111.987" rx="2.021" ry="3.187" transform="translate(-12.916 22.028) rotate(-7.319)" fill="#fff"/><path d="M166.181,115.337c-1.209,.155-2.386-1.221-2.624-3.068-.113-.88,0-1.738,.316-2.416,.331-.707,.846-1.139,1.447-1.216,.603-.077,1.209,.21,1.707,.811,.478,.576,.804,1.377,.917,2.257,.222,1.733-.46,3.274-1.545,3.586-.071,.02-.144,.036-.218,.045Zm-1.962-5.322c-.287,.613-.388,1.397-.284,2.205h0c.21,1.638,1.196,2.867,2.197,2.739,1.007-.122,1.644-1.567,1.434-3.205-.104-.809-.399-1.541-.832-2.063-.412-.496-.897-.736-1.366-.676-.057,.007-.112,.019-.167,.034-.398,.115-.743,.451-.983,.965Z" fill="#390075"/></g></g></g></svg>