<?xml version="1.0" encoding="UTF-8"?><svg id="a" xmlns="http://www.w3.org/2000/svg" viewBox="0 0 256 256"><g><path d="M157.705,185.044c7.752,1.3,15.854,5.01,23.46,8.507,12.741,5.866,24.067,11.145,29.941,3.526,8.189-10.618-11.039-22.105-24.586-28.516-6.654-3.155-11.937-5.08-11.937-5.08l-16.878,21.564Z" fill="#fff"/><g opacity=".2"><path d="M157.705,185.044l16.878-21.564s5.283,1.925,11.937,5.08c1.138,5.545,2.157,13.572,.341,19.653,12.293,5.072,25.754,7.831,26.14-.723,1.164,3.085,.95,6.199-1.349,9.176-5.886,7.63-17.247,2.318-30.015-3.558l-.472,.442c-7.606-3.497-15.709-7.207-23.46-8.507Z" fill="#390075"/></g><path d="M205.57,202.3c2.653-.477,4.972-1.776,6.85-4.21,2.198-2.85,2.833-5.95,1.887-9.214-4.061-14.012-37.724-26.429-39.155-26.95-.86-.315-1.81,.13-2.124,.988-.313,.86,.129,1.811,.988,2.124,9.31,3.396,34.125,14.465,37.108,24.761,.644,2.223,.21,4.273-1.329,6.267-5.032,6.525-15.539,1.69-27.704-3.91-7.898-3.636-16.065-7.395-24.112-8.744-.903-.15-1.756,.458-1.907,1.36-.151,.902,.458,1.756,1.36,1.907,7.611,1.276,15.574,4.941,23.274,8.487,9.248,4.257,18.129,8.345,24.863,7.134Z" fill="#390075"/></g><g><path d="M11.021,112.963c-.198,2.077-.254,4.249-.141,6.473,.503,10.192,4.413,21.487,13.288,29.507,2.806,2.535,6.007,4.449,9.401,5.778,.947,.378,1.91,.708,2.884,.989,.512-2.915,.429-7.379-3.065-11.735-5.184-6.462-21.855-6.25-22.367-31.012Z" fill="#33aef1"/><g opacity=".6"><path d="M12.002,112.769c-.198,2.077-.254,4.249-.141,6.473,1.971,7.492,5.37,17.492,10.062,20.789,7.414,5.205,10.862,5.581,12.627,14.497,.947,.378,1.91,.708,2.884,.989,.512-2.915,.429-7.379-3.065-11.735-5.184-6.462-21.855-6.25-22.367-31.012Z" fill="#fff"/></g><path d="M11.018,112.927c.006,.01,.002,.022,.003,.036,.512,24.763,17.183,24.55,22.367,31.012,3.494,4.356,3.576,8.82,3.065,11.735,1.441,.427,2.905,.752,4.377,.975,1.015,.162,2.037,.279,3.056,.346,1.477-4.655,2.675-12.069-1.936-17.54-7.242-8.591-14.333-6.376-21.725-15.382-3.377-4.116-5.969-13.611-2.157-27.664-.788,.591-1.521,1.331-2.2,2.203-2.539,3.264-4.285,8.375-4.85,14.279Z" fill="#fdd800"/><g opacity=".6"><path d="M15.868,98.648c-1.807,7.29-4.055,19.937,.299,25.472,6.303,8.012,10.528,9.253,17.289,12.889,6.031,3.244,9.175,10.178,7.373,19.675,1.015,.162,2.037,.279,3.056,.346,1.477-4.655,2.675-12.069-1.936-17.54-7.242-8.591-14.333-6.376-21.725-15.382-3.377-4.116-5.969-13.611-2.157-27.664-.788,.591-1.521,1.331-2.2,2.203Z" fill="#fff"/></g><path d="M18.068,96.445c-3.811,14.053-1.22,23.548,2.157,27.664,7.392,9.006,14.483,6.79,21.725,15.382,4.611,5.471,3.412,12.885,1.936,17.54,1.35,.094,2.698,.117,4.038,.061,1.487-.055,2.955-.202,4.396-.435,2.266-4.069,5.363-11.442,2.801-18.077-3.783-9.801-25.185-14.168-31.108-23.716-4.345-7.004-3.903-14.223-2.45-19.944-.68,.104-1.334,.306-1.963,.601-.532,.244-1.038,.552-1.531,.924Z" fill="#b177ea"/><g opacity=".6"><path d="M20.148,95.208c-1.441,8.281-1.359,18.734,3.087,24.347,11.022,13.917,37.958,12.147,25.239,37.224,1.487-.055,2.955-.202,4.396-.435,2.266-4.069,5.363-11.442,2.801-18.077-3.783-9.801-25.185-14.168-31.108-23.716-4.345-7.004-3.903-14.223-2.45-19.944-.68,.104-1.334,.306-1.963,.601Z" fill="#fff"/></g><path d="M21.561,94.919c-1.453,5.721-1.895,12.94,2.45,19.944,5.924,9.548,27.325,13.915,31.108,23.716,2.563,6.635-.535,14.009-2.801,18.077,3.14-.512,6.142-1.435,8.851-2.73,.994-.473,1.95-.996,2.854-1.567,2.081-6.047,5.447-18.356-3.141-26.189-11.228-10.244-36.616-5.125-36.866-31.17-.479-.136-1.019-.194-1.643-.166-.211,.011-.433,.028-.663,.06-.049,.004-.1,.016-.15,.024Z" fill="#fe6dcb"/><g opacity=".6"><path d="M23.474,94.209c-.017,4.414,.477,8.787,2.36,12.735,2.446,5.136,7.009,8.996,11.948,11.823,4.94,2.823,10.324,4.76,15.505,7.115,1.4,.637,2.8,1.309,4.046,2.207,4.059,2.919,6.168,7.983,6.536,12.968,.258,3.496-.248,6.99-1.028,10.391-.116,.502-.348,1.154-.571,1.853,.994-.473,1.95-.996,2.854-1.567,2.081-6.047,5.447-18.356-3.141-26.189-11.228-10.244-36.616-5.125-36.866-31.17-.479-.136-1.019-.194-1.643-.166Z" fill="#fff"/></g><path d="M62.001,124.946c-4.047-3.693-9.751-5.502-15.266-7.252-10.751-3.41-20.906-6.632-21.06-22.711-.007-.734-.497-1.376-1.203-1.577l-.048-.013c-.854-.235-1.805-.282-2.904-.143-.078,.009-.162,.022-.242,.037-1.476,.228-2.891,.845-4.206,1.832h0c-4.059,3.052-6.937,9.65-7.7,17.65-.003,.037-.006,.073-.007,.109-1.041,11.121,2.009,26.733,13.694,37.292,3.644,3.292,7.995,5.69,12.932,7.128,.199,.059,.399,.116,.6,.171,2.31,.636,4.723,1.044,7.181,1.214,2.949,.21,5.915,.078,8.813-.39,4.539-.741,8.8-2.308,12.324-4.533,.318-.201,.559-.505,.682-.861,4.29-12.462,3.083-21.866-3.589-27.953Zm-6.82,28.916c.222-.521,.438-1.065,.644-1.63,.02-.054,.04-.108,.059-.163,.098-.275,.194-.554,.287-.837,.017-.052,.033-.105,.05-.157,.089-.277,.175-.558,.256-.843l.021-.071c.084-.297,.163-.599,.238-.903,.016-.063,.031-.127,.047-.19,.072-.302,.14-.607,.202-.916,.01-.049,.019-.099,.028-.148,.057-.292,.108-.587,.154-.884,.006-.041,.014-.082,.02-.124,.047-.316,.086-.635,.12-.955,.007-.067,.014-.133,.02-.2,.031-.323,.056-.648,.071-.974,.002-.038,.002-.077,.004-.116,.013-.309,.018-.619,.016-.93,0-.051,0-.103,0-.154-.005-.327-.02-.654-.043-.982-.005-.067-.01-.133-.016-.2-.027-.335-.062-.67-.11-1.005-.003-.022-.007-.044-.011-.065-.047-.321-.106-.643-.174-.964-.013-.06-.024-.119-.037-.179-.073-.327-.157-.653-.252-.978-.019-.064-.039-.128-.059-.192-.103-.336-.215-.672-.343-1.006-2.165-5.609-9.054-9.284-16.347-13.174-6.021-3.212-12.248-6.534-14.873-10.765-.207-.334-.404-.671-.591-1.01-.066-.121-.126-.243-.19-.364-.116-.22-.234-.439-.342-.662-.071-.147-.135-.296-.203-.444-.092-.2-.185-.399-.27-.601-.067-.158-.126-.318-.188-.477-.077-.195-.155-.389-.226-.586-.059-.165-.112-.333-.167-.499-.064-.193-.129-.386-.188-.581-.051-.171-.096-.344-.143-.517-.053-.194-.106-.387-.153-.583-.042-.176-.079-.353-.117-.53-.042-.196-.084-.392-.121-.59-.033-.179-.061-.36-.09-.54-.032-.199-.063-.399-.089-.6-.024-.182-.043-.366-.062-.549-.021-.203-.042-.406-.058-.61-.014-.185-.025-.372-.035-.558-.011-.207-.02-.415-.026-.623-.005-.187-.007-.376-.008-.565,0-.212,0-.424,.005-.638,.004-.19,.011-.381,.019-.572,.01-.217,.022-.435,.037-.654,.013-.192,.028-.384,.046-.577,.02-.223,.044-.447,.07-.673,.022-.193,.045-.386,.072-.581,.031-.23,.066-.461,.103-.693,.031-.194,.062-.387,.097-.583,.034-.192,.074-.387,.112-.581,1.067,16.673,12.843,20.422,23.287,23.735,5.413,1.717,10.525,3.339,14.035,6.541,5.51,5.026,6.477,13.055,2.878,23.868-2.285,1.369-4.904,2.44-7.708,3.158,.061-.136,.122-.274,.182-.414,.02-.048,.041-.096,.061-.143Zm-1.795-2.767l-.021,.06c-.108,.301-.22,.595-.334,.883-.012,.031-.024,.063-.037,.094-.111,.278-.224,.549-.339,.814-.017,.039-.033,.078-.05,.116-.112,.257-.226,.508-.34,.752-.019,.04-.038,.081-.056,.121-.112,.238-.225,.469-.337,.693l-.061,.121c-.058,.116-.116,.224-.173,.335-1.948,.291-3.928,.416-5.912,.372,.055-.218,.108-.437,.159-.659l.006-.024c.07-.306,.134-.618,.195-.932,.008-.043,.017-.086,.025-.13,.057-.302,.109-.607,.157-.915,.009-.055,.017-.11,.025-.165,.046-.307,.086-.616,.121-.927,.006-.054,.012-.108,.017-.162,.034-.319,.063-.639,.084-.962,.003-.038,.004-.076,.006-.115,.021-.338,.035-.677,.041-1.018v-.012c.005-.34,0-.682-.011-1.024-.001-.043-.002-.085-.004-.128-.013-.326-.036-.653-.066-.981-.005-.056-.01-.112-.016-.169-.032-.323-.073-.646-.123-.969-.009-.055-.018-.11-.027-.165-.054-.328-.116-.656-.19-.983-.009-.04-.019-.079-.029-.118-.08-.342-.169-.683-.272-1.022l-.002-.007c-.103-.338-.221-.673-.349-1.007-.016-.041-.03-.083-.046-.124-.125-.317-.263-.632-.411-.944-.025-.053-.051-.107-.077-.16-.151-.307-.314-.612-.489-.913-.03-.052-.062-.104-.093-.155-.183-.305-.376-.607-.586-.905-.026-.037-.055-.074-.081-.111-.224-.313-.46-.622-.716-.925-3.758-4.458-7.492-6.163-11.103-7.813-3.627-1.656-7.053-3.221-10.613-7.555-.098-.119-.194-.243-.29-.372-.039-.053-.078-.11-.116-.165-.056-.079-.113-.157-.169-.239-.043-.064-.085-.132-.128-.199-.051-.078-.102-.155-.151-.236-.044-.072-.088-.15-.131-.224-.047-.08-.094-.158-.14-.241-.043-.078-.085-.16-.128-.24-.045-.085-.092-.169-.136-.257-.042-.082-.082-.169-.123-.254-.044-.09-.088-.179-.131-.271-.041-.089-.081-.183-.121-.274-.041-.094-.083-.185-.123-.281-.04-.096-.079-.196-.118-.295-.038-.096-.078-.191-.115-.29-.039-.102-.075-.207-.113-.311-.036-.101-.074-.201-.109-.304-.036-.105-.07-.214-.105-.321-.035-.108-.07-.214-.104-.323-.034-.111-.066-.226-.099-.339-.032-.111-.065-.22-.096-.333-.032-.117-.062-.238-.092-.357-.029-.115-.06-.228-.088-.345-.029-.121-.056-.246-.084-.37-.027-.12-.055-.239-.08-.361-.026-.125-.05-.254-.075-.382-.024-.126-.05-.25-.073-.378-.023-.13-.044-.263-.066-.396-.021-.13-.044-.258-.063-.39-.02-.136-.039-.275-.057-.413-.018-.134-.037-.266-.054-.402-.017-.14-.032-.283-.047-.425-.015-.139-.031-.276-.044-.417-.014-.144-.025-.292-.037-.439-.012-.143-.024-.286-.034-.431-.01-.149-.018-.301-.026-.452-.008-.148-.017-.295-.023-.445-.007-.154-.011-.312-.015-.469-.004-.151-.01-.301-.012-.455-.003-.16-.003-.323-.004-.485,0-.155-.002-.309,0-.466,.001-.165,.005-.333,.009-.501,.003-.158,.006-.316,.011-.476,.006-.17,.014-.343,.022-.515,.007-.163,.014-.325,.024-.489,.01-.174,.023-.351,.035-.528,.012-.167,.023-.333,.036-.502,.015-.179,.032-.361,.049-.543,.016-.17,.031-.34,.05-.512,.02-.186,.042-.374,.064-.562,.02-.172,.04-.344,.062-.517,.025-.192,.052-.387,.08-.581,.025-.175,.049-.349,.076-.526,.03-.197,.063-.397,.096-.597,.029-.178,.058-.355,.09-.534,.035-.202,.074-.406,.112-.611,.034-.182,.068-.364,.105-.548,.041-.207,.085-.416,.129-.625,.039-.184,.077-.368,.119-.554,.047-.213,.097-.428,.147-.643,.044-.188,.088-.375,.134-.565,.044-.181,.091-.364,.138-.547,.182-.134,.366-.258,.551-.37-.028,.164-.052,.326-.078,.49-.04,.257-.077,.512-.111,.767-.026,.199-.051,.398-.074,.597-.029,.256-.053,.511-.076,.766-.017,.193-.034,.386-.047,.577-.018,.262-.03,.522-.041,.781-.008,.18-.017,.361-.021,.54-.006,.282-.005,.561-.003,.841,.001,.154-.002,.308,.002,.461,.009,.388,.028,.773,.054,1.155,.003,.042,.003,.085,.006,.126,.031,.423,.073,.843,.123,1.259,.017,.136,.04,.271,.058,.406,.039,.28,.079,.56,.127,.838,.028,.161,.062,.32,.093,.48,.048,.249,.098,.499,.154,.746,.038,.167,.08,.333,.122,.5,.059,.237,.12,.473,.187,.708,.047,.168,.097,.335,.148,.501,.071,.231,.145,.461,.222,.689,.056,.165,.113,.329,.173,.493,.083,.229,.172,.456,.262,.683,.063,.158,.126,.317,.193,.474,.099,.233,.205,.464,.311,.694,.068,.147,.133,.294,.204,.44,.123,.252,.254,.501,.386,.749,.064,.12,.124,.242,.19,.362,.202,.366,.413,.73,.636,1.089,3.006,4.845,9.556,8.339,15.891,11.718,6.539,3.488,13.3,7.095,15.106,11.773,.136,.353,.253,.709,.355,1.067,.006,.022,.014,.043,.02,.065,.096,.344,.175,.689,.241,1.036,.007,.036,.015,.072,.022,.108,.062,.338,.109,.676,.146,1.015,.005,.045,.011,.09,.015,.135,.033,.333,.053,.667,.063,1.001,.002,.05,.003,.099,.004,.149,.007,.331,.003,.661-.01,.99-.002,.051-.004,.102-.007,.153-.016,.329-.041,.657-.075,.983-.005,.049-.011,.098-.016,.147-.037,.328-.081,.654-.134,.978-.007,.044-.015,.087-.022,.13-.056,.328-.118,.654-.189,.976-.008,.036-.016,.071-.024,.106-.074,.33-.153,.657-.24,.979l-.018,.063c-.182,.671-.39,1.324-.614,1.952Zm-10.701-7.933c.062,.138,.116,.279,.173,.419,.077,.19,.154,.381,.222,.573,.051,.146,.095,.293,.141,.44,.059,.19,.117,.38,.167,.571,.04,.151,.074,.303,.109,.455,.043,.19,.084,.381,.119,.572,.028,.154,.053,.308,.077,.462,.029,.191,.054,.383,.076,.574,.017,.155,.033,.311,.046,.466,.016,.192,.028,.384,.037,.577,.008,.155,.015,.31,.018,.464,.004,.193,.004,.387,.002,.58-.001,.153-.002,.306-.007,.459-.006,.195-.018,.39-.03,.584-.009,.149-.017,.298-.029,.446-.017,.198-.039,.395-.061,.592-.016,.142-.029,.285-.048,.426-.027,.208-.06,.414-.092,.619-.02,.126-.037,.254-.059,.379-.043,.247-.091,.49-.14,.732-.016,.081-.03,.165-.048,.246-.068,.318-.14,.631-.217,.94-.03,.121-.063,.238-.094,.357-.016,.063-.033,.125-.05,.187-1.715-.171-3.396-.469-5.026-.887,.01-.118,.019-.237,.027-.358,.005-.083,.008-.168,.011-.252,.006-.142,.011-.285,.014-.431,.002-.091,.001-.184,.001-.277,0-.143-.002-.288-.006-.434-.003-.096-.006-.193-.011-.291-.007-.148-.017-.298-.028-.449-.007-.097-.014-.194-.023-.292-.015-.16-.034-.322-.055-.484-.012-.092-.021-.183-.035-.276-.028-.191-.061-.385-.097-.58-.012-.066-.021-.131-.034-.197-.052-.261-.111-.525-.178-.792-.015-.058-.033-.117-.049-.175-.055-.208-.114-.417-.18-.627-.03-.096-.065-.193-.098-.29-.059-.175-.119-.349-.185-.525-.041-.108-.085-.216-.129-.325-.067-.167-.137-.335-.212-.503-.05-.113-.102-.225-.156-.339-.079-.167-.162-.333-.248-.501-.059-.114-.118-.227-.18-.341-.094-.171-.194-.342-.296-.514-.065-.109-.128-.218-.196-.327-.118-.188-.245-.376-.373-.564-.063-.092-.122-.184-.187-.277-.199-.28-.408-.56-.633-.84-1.604-2-4.115-3.384-6.774-4.849-1.643-.905-3.385-1.866-5.082-3.055-.021-.015-.042-.028-.063-.043-.162-.114-.324-.233-.485-.352-.052-.038-.105-.075-.157-.114-.118-.088-.235-.181-.352-.271-.095-.073-.191-.145-.285-.22-.086-.068-.171-.141-.256-.211-.124-.102-.249-.201-.372-.306-.074-.063-.147-.13-.221-.195-.133-.116-.266-.231-.397-.351-.07-.064-.138-.132-.208-.197-.133-.125-.267-.249-.399-.379-.07-.069-.139-.143-.209-.214-.129-.13-.258-.26-.384-.395-.069-.074-.136-.152-.205-.228-.125-.138-.251-.274-.374-.417-.063-.073-.124-.152-.187-.226-.126-.15-.252-.299-.375-.455-.062-.078-.121-.162-.182-.242-.121-.158-.243-.315-.361-.479-.056-.078-.11-.162-.166-.241-.12-.172-.241-.343-.357-.521-.054-.082-.105-.17-.158-.254-.115-.182-.231-.363-.343-.551-.054-.092-.105-.189-.158-.282-.107-.188-.215-.375-.319-.57-.051-.095-.098-.196-.148-.293-.103-.2-.206-.399-.304-.606-.048-.1-.092-.207-.138-.309-.097-.212-.194-.422-.286-.641-.045-.107-.087-.222-.131-.331-.089-.222-.18-.441-.265-.671-.044-.12-.085-.247-.128-.369-.08-.227-.161-.451-.237-.686-.043-.135-.082-.277-.124-.415-.07-.231-.142-.46-.209-.698-.04-.145-.076-.298-.114-.446-.062-.24-.126-.476-.184-.724-.039-.165-.072-.339-.108-.507-.052-.24-.106-.477-.154-.725-.035-.179-.064-.367-.096-.549-.044-.247-.09-.49-.129-.744-.031-.198-.055-.406-.083-.608-.035-.249-.072-.494-.102-.751-.026-.216-.045-.443-.068-.665-.026-.253-.055-.501-.077-.761-.006-.071-.009-.147-.015-.218,.027-.919,.08-1.816,.163-2.682,.003-.036,.006-.072,.007-.108,.385-3.962,1.347-7.559,2.705-10.377-.049,.325-.095,.648-.138,.968-.004,.028-.008,.057-.012,.085-.081,.617-.145,1.219-.2,1.814-.009,.102-.02,.206-.029,.308-.049,.568-.086,1.125-.113,1.673-.005,.109-.01,.217-.014,.325-.023,.549-.037,1.09-.039,1.618,0,.072,.001,.142,.001,.214,.001,.521,.011,1.032,.032,1.532,.002,.043,.002,.087,.004,.13,.023,.513,.058,1.011,.1,1.501,.008,.088,.015,.176,.023,.263,.045,.473,.098,.936,.159,1.387,.011,.083,.024,.166,.036,.248,.066,.458,.139,.907,.221,1.341,.008,.042,.017,.082,.025,.124,.083,.425,.173,.838,.27,1.241,.011,.046,.021,.093,.033,.139,.101,.407,.21,.799,.324,1.182,.021,.07,.042,.14,.063,.209,.115,.373,.236,.734,.362,1.084,.022,.061,.045,.12,.067,.18,.133,.358,.271,.706,.416,1.04l.023,.05c.144,.328,.293,.642,.447,.946,.021,.041,.041,.083,.061,.123,.153,.297,.311,.58,.473,.854,.03,.051,.06,.102,.091,.152,.162,.267,.326,.522,.495,.765,.027,.039,.055,.076,.082,.115,.178,.25,.357,.491,.541,.715,3.954,4.814,7.826,6.583,11.572,8.294,3.495,1.597,6.797,3.104,10.166,7.101,.248,.295,.477,.596,.689,.903,.071,.103,.131,.209,.198,.313,.134,.207,.268,.414,.387,.625,.071,.126,.132,.256,.198,.384,.1,.194,.201,.387,.289,.584Zm-27.797-11.703c.143,.199,.288,.392,.434,.584,.072,.094,.143,.192,.216,.284,.207,.263,.418,.518,.631,.766,.013,.015,.026,.032,.039,.048,.227,.262,.457,.514,.69,.76,.08,.085,.161,.165,.242,.248,.155,.16,.311,.318,.469,.471,.096,.093,.192,.183,.289,.274,.146,.137,.292,.273,.439,.405,.101,.091,.203,.18,.305,.269,.146,.127,.293,.252,.441,.375,.101,.084,.202,.168,.303,.25,.154,.124,.309,.245,.464,.365,.095,.074,.19,.148,.285,.22,.179,.135,.358,.265,.538,.395,.071,.051,.142,.105,.213,.155,.248,.176,.497,.346,.745,.512,.076,.051,.153,.1,.229,.15,.177,.116,.354,.232,.53,.344,.1,.063,.199,.124,.298,.186,.153,.096,.306,.191,.459,.283,.105,.064,.21,.127,.315,.189,.148,.088,.295,.176,.443,.262,.104,.061,.207,.121,.31,.18,.15,.087,.299,.172,.449,.257,.098,.055,.195,.111,.292,.166,.163,.092,.325,.182,.487,.272,.078,.044,.157,.088,.235,.131,.232,.128,.461,.255,.688,.38,2.525,1.391,4.704,2.592,5.975,4.177,.183,.228,.353,.457,.516,.685,.051,.071,.098,.143,.147,.214,.109,.159,.215,.318,.315,.476,.051,.081,.1,.162,.149,.243,.092,.153,.18,.306,.264,.458,.043,.078,.086,.155,.127,.233,.089,.17,.173,.339,.252,.508,.027,.057,.056,.113,.082,.17,.103,.226,.198,.452,.285,.676,.014,.036,.025,.071,.039,.107,.071,.187,.137,.374,.197,.56,.023,.072,.044,.143,.066,.215,.046,.15,.089,.299,.129,.448,.021,.077,.04,.154,.059,.231,.036,.146,.069,.291,.099,.436,.015,.071,.03,.142,.044,.212,.033,.172,.061,.342,.086,.511,.006,.039,.013,.078,.019,.117,.029,.207,.052,.412,.07,.615,.005,.054,.008,.107,.012,.16,.011,.148,.021,.294,.028,.439,.003,.07,.005,.139,.007,.209,.004,.128,.006,.255,.005,.381,0,.069,0,.138-.001,.206-.002,.096-.005,.19-.009,.284-3.801-1.323-7.175-3.301-10.048-5.897-5.2-4.699-8.541-10.5-10.501-16.404,.036,.051,.073,.1,.11,.151Z" fill="#390075"/></g><path d="M127.635,206.629c36.999-.465,52.354-17.75,57.473-35.336,4.487-15.363,1.155-30.96-2.367-35.755,0,0-26.586,6.389-68.472-5.094-3.383-.924-6.607-1.615-9.678-2.093-34.933-5.412-49.827,16.805-51.122,30.185-1.407,14.551,4.834,48.967,74.166,48.093Z" fill="#fff"/><g opacity=".2"><path d="M54.768,161.406c4.08,15.917,20.264,35.766,73.13,35.098,21.421-.271,35.584-6.18,44.708-14.52,4.174-3.815,1.948-10.735-3.662-11.442-2.166-.273-4.349-.618-6.545-1.037-29.224-5.577-51.784-22.45-57.809-41.153,3.072,.478,6.295,1.169,9.678,2.093,41.886,11.483,68.472,5.094,68.472,5.094,2.006,2.731,3.948,8.969,4.421,16.669,.325-2.848,.424-5.628,.347-8.262,4.386,19.768-.455,61.775-58.416,62.508-64.863,.816-74.505-29.251-74.326-45.049Z" fill="#390075"/></g><path d="M62.007,188.645c-10.709-11.646-10.691-25.048-10.187-30.27,.703-7.269,5.195-17.615,15.694-24.851,8.341-5.748,23.298-11.226,47.194-4.675,40.92,11.218,67.385,5.139,67.648,5.077h0c.648-.154,1.327,.094,1.721,.631,4.588,6.249,8.426,27.374-.597,45.474-6.305,12.648-21.107,27.817-55.823,28.255-.878,.011-1.748,.016-2.612,.016-29.838,0-51.039-6.609-63.038-19.657Zm51.826-56.601c-22.667-6.214-36.676-1.141-44.438,4.208-9.574,6.598-13.674,16.213-14.276,22.442-.462,4.779-.478,17.046,9.327,27.708,11.682,12.704,32.917,18.961,63.17,18.571,26.156-.33,44.448-9.466,52.899-26.419,7.917-15.881,5.239-34.646,1.461-41.16-5.605,1.098-30.68,4.922-68.143-5.349Zm68.905,3.493h0Z" fill="#390075"/><g><path d="M145.826,194.49c.353,.192,.701,.393,1.048,.6h.005c17.945,10.558,32.755,36.611,45.38,28.39,3.153-2.051,4.384-4.92,4.303-8.216v-.005c-.344-14.225-25.035-36.493-25.035-36.493l-25.702,15.723Z" fill="#fff"/><g opacity=".2"><path d="M146.88,195.091c17.945,10.558,32.755,36.611,45.38,28.39,3.153-2.051,4.384-4.92,4.303-8.216-3.653,9.104-18.602-1.473-29.099-11.887-10.331-10.25-20.268-8.354-20.584-8.288Z" fill="#451661"/></g><path d="M171.159,179.179c1.125,2.196,2.626,3.967,4.184,5.682,1.538,1.733,3.169,3.373,4.761,5.051,1.597,1.674,3.085,3.444,4.528,5.241,1.441,1.799,2.819,3.64,4.107,5.531,1.282,1.893,2.478,3.835,3.495,5.84,1.022,1.999,1.862,4.074,2.332,6.159,.464,2.076,.507,4.181-.205,5.928-.357,.871-.89,1.654-1.578,2.334-.163,.176-.35,.335-.542,.49-.181,.164-.385,.309-.593,.452l-.307,.216-.324,.179-.643,.365c-1.759,.818-3.71,.982-5.689,.395-1.975-.543-3.919-1.602-5.754-2.872-3.684-2.554-7.056-5.765-10.423-8.977-3.364-3.228-6.716-6.535-10.277-9.67l-1.344-1.168-1.371-1.146c-.929-.748-1.81-1.559-2.76-2.298-.935-.752-1.957-1.407-3.047-1.945-1.094-.53-2.287-.912-3.617-.958-.341-.012-.627,.256-.639,.597-.004,.123,.028,.239,.087,.337l.02,.034c.342,.576,.737,1.032,1.137,1.468,.402,.433,.812,.848,1.248,1.215,.44,.359,.87,.739,1.322,1.081,.224,.174,.456,.337,.686,.504,.225,.175,.457,.34,.69,.504,.939,.643,1.878,1.305,2.769,2.027l1.325,1.103,1.305,1.134c3.467,3.051,6.783,6.32,10.172,9.573,3.401,3.239,6.826,6.527,10.843,9.318,2.009,1.381,4.218,2.631,6.763,3.338,.621,.205,1.302,.278,1.96,.395,.335,.039,.681,.041,1.022,.059l.512,.019c.171-.003,.344-.025,.517-.038,.345-.031,.69-.061,1.033-.101l1.013-.237c.167-.044,.34-.075,.502-.132l.481-.186c.319-.128,.645-.247,.955-.389l.886-.496,.441-.252,.412-.287c.275-.19,.546-.386,.802-.612,.263-.214,.52-.436,.758-.686,.977-.962,1.791-2.148,2.317-3.446,.533-1.298,.755-2.68,.785-4.011,.027-1.336-.141-2.632-.416-3.874-.562-2.484-1.51-4.778-2.613-6.943-1.102-2.17-2.367-4.22-3.709-6.201-1.347-1.978-2.776-3.885-4.261-5.74-1.485-1.855-3.035-3.648-4.566-5.456-1.533-1.806-3.112-3.574-4.856-5.178-.867-.806-1.75-1.596-2.726-2.287-.975-.693-1.992-1.334-3.171-1.802-.302-.12-.645,.028-.765,.33-.065,.163-.051,.338,.022,.484l.003,.006Z" fill="#390075"/></g><g><path d="M29.498,205.274c6.424,4.67,15.515-1.789,19.794-4.486,4.278-2.698,12.309,4.593,24.609-4.55,4.759-3.539,7.42-8.233,8.873-12.821,2.642-8.36,1.272-16.367,1.272-16.367l-20.877-13.989c-25.597,6.464-36.46,27.59-37.102,41.191-.248,5.164,.98,9.242,3.432,11.022Z" fill="#fff"/><g opacity=".2"><path d="M29.498,205.274c6.424,4.67,15.515-1.789,19.794-4.486,4.278-2.698,12.309,4.593,24.609-4.55,4.759-3.539,7.42-8.233,8.873-12.821,0-.005,0-.011,0-.011,0,0,2.906-7.755,.836-14.674,0,0-9.789,26.746-33.68,18.619,0,0-13.894,15.946-23.863,6.901-.248,5.164,.98,9.242,3.432,11.022Z" fill="#390075"/></g><path d="M83.063,180.064c-1.423,2.578-2.516,5.038-3.86,7.36-1.364,2.296-2.934,4.448-4.9,6.254-.478,.466-1.008,.869-1.532,1.291-.547,.406-1.103,.801-1.675,1.162-1.143,.724-2.333,1.354-3.562,1.856-2.461,1.008-5.068,1.466-7.734,1.338-1.336-.047-2.683-.235-4.097-.449-.709-.105-1.431-.222-2.206-.305-.774-.08-1.599-.14-2.521-.046-.229,.023-.471,.07-.705,.108-.243,.062-.485,.118-.728,.202-.242,.099-.489,.173-.72,.308l-.349,.191c-.064,.035-.111,.063-.144,.086l-.116,.074-1.822,1.162c-1.199,.76-2.397,1.477-3.616,2.124-2.424,1.279-4.99,2.304-7.461,2.454-1.226,.062-2.403-.096-3.45-.55-.521-.205-1.037-.535-1.462-.853-.39-.306-.743-.709-1.048-1.18-.618-.941-1.019-2.14-1.277-3.382-.245-1.253-.357-2.568-.344-3.899,.017-2.664,.453-5.372,1.163-8.01,1.429-5.286,3.949-10.319,7.25-14.763,3.309-4.445,7.425-8.303,12.102-11.323,1.174-.748,2.371-1.462,3.604-2.112,1.237-.643,2.52-1.195,3.819-1.698,1.295-.514,2.572-1.064,3.856-1.636,1.272-.614,2.543-1.249,3.773-2.222l.013-.011c.266-.211,.312-.593,.101-.854-.099-.122-.237-.196-.382-.218-1.56-.235-3.073-.105-4.53,.222-1.456,.334-2.875,.818-4.235,1.438-2.697,1.287-5.339,2.682-7.854,4.293-5.018,3.24-9.442,7.386-12.994,12.158-3.545,4.776-6.25,10.163-7.803,15.902-.771,2.869-1.256,5.831-1.278,8.857-.014,1.511,.109,3.041,.409,4.572,.322,1.526,.807,3.075,1.741,4.518,.466,.717,1.049,1.405,1.779,1.98,.711,.537,1.415,.969,2.221,1.301,1.585,.686,3.332,.904,4.977,.815,1.65-.102,3.215-.481,4.687-.991,1.472-.514,2.862-1.156,4.195-1.86,1.331-.705,2.609-1.474,3.847-2.258l1.826-1.165,.112-.071c.042-.028,.073-.046,.089-.052l.126-.068c.077-.057,.185-.072,.273-.118,.098-.034,.21-.055,.314-.088,.122-.015,.235-.042,.364-.054,1.042-.108,2.434,.12,3.849,.333,1.425,.216,2.929,.43,4.47,.485,3.084,.154,6.296-.402,9.173-1.591,1.444-.588,2.811-1.319,4.107-2.132,.32-.208,.651-.404,.962-.622l.936-.652c.615-.459,1.244-.919,1.824-1.431,1.177-1.005,2.286-2.105,3.24-3.324,.955-1.218,1.781-2.529,2.452-3.903,1.362-2.733,2.125-5.74,1.855-8.743-.029-.32-.315-.554-.64-.521-.202,.02-.372,.139-.464,.303l-.004,.008Z" fill="#390075"/></g><g><path d="M104.61,95.015c-9.58,23.662,10.114,48.328,41.571,61.064,31.457,12.737,62.765,8.721,72.345-14.941,9.58-23.662-6.194-58.01-37.651-70.746-31.457-12.737-66.685,.961-76.265,24.623Z" fill="#fff"/><g opacity=".2"><path d="M145.67,155.774c31.455,12.734,62.764,8.719,72.344-14.944,.063-.148,.12-.295,.178-.448-12.686,16.893-40.356,18.715-68.144,7.467-31.409-12.72-51.092-37.327-41.619-60.956-1.762,2.454-3.221,5.064-4.333,7.814-9.58,23.664,10.115,48.329,41.575,61.068Z" fill="#390075"/></g><path d="M145.56,157.615c-15.971-6.467-29.076-16.058-36.901-27.008-8.455-11.832-10.386-24.354-5.584-36.214,4.865-12.016,16.137-21.823,30.926-26.906,15.386-5.288,32.253-4.802,47.496,1.369,15.242,6.171,27.697,17.558,35.07,32.061,7.087,13.94,8.361,28.826,3.496,40.843-4.802,11.86-14.901,19.511-29.206,22.127-7.899,1.445-16.809,1.235-26.106-.543-6.286-1.202-12.748-3.122-19.191-5.73Zm-10.482-86.994c-13.882,4.771-24.427,13.889-28.932,25.016-8.693,21.471,8.026,45.695,40.658,58.907,6.455,2.614,12.76,4.484,18.793,5.637,24.466,4.678,44.421-2.44,51.395-19.664,8.821-21.785-5.017-55.746-36.737-68.589-3.987-1.614-8.087-2.819-12.246-3.614-10.968-2.097-22.321-1.339-32.93,2.307Z" fill="#390075"/><path d="M169.821,85.974c.846,.561,1.857,1.077,3.057,1.516,6.091,2.229,9.622-.138,10.822-2.348-2.118,.643-7.749,2.038-13.879,.832Z" fill="#fe6dcb"/><path d="M167.623,84.026c.431,.53,.963,1.045,1.611,1.535,.186,.142,.381,.282,.586,.41,6.131,1.207,11.763-.188,13.88-.831,.062-.099,.107-.205,.157-.307,.729-1.608,1.489-3.976,2.174-6.713,0,0-7.467,3.306-16.666,1.296-1.047-.23-2.116-.524-3.197-.905-.364,1.456-.132,3.567,1.455,5.515Z" fill="#33aef1"/><g opacity=".6"><path d="M167.623,84.026c.545-1.6,1.133-3.137,1.742-4.61-1.047-.23-2.116-.524-3.197-.905-.364,1.456-.132,3.567,1.455,5.515Z" fill="#fff"/></g><path d="M166.167,78.511c1.082,.382,2.151,.675,3.197,.905,9.199,2.01,16.666-1.296,16.666-1.296,.695-2.765,1.31-5.915,1.75-9.04,0,0-5.034,3.575-15.112,3.421-1.254-.018-2.586-.094-3.993-.244-1.143,2.368-2.017,4.51-2.473,6.115-.013,.044-.026,.093-.035,.138Z" fill="#fdd800"/><g opacity=".6"><path d="M166.167,78.511c1.082,.382,2.151,.675,3.197,.905,1.033-2.483,2.146-4.784,3.304-6.915-1.254-.018-2.586-.094-3.993-.244-1.143,2.368-2.017,4.51-2.473,6.115-.013,.044-.026,.093-.035,.138Z" fill="#fff"/></g><path d="M168.676,72.258c1.407,.15,2.739,.226,3.993,.244,10.078,.155,15.112-3.421,15.112-3.421,.475-3.378,.734-6.733,.64-9.563,0,0-4.231,3.32-10.177,4.288-1.557,.256-3.229,.35-4.977,.177-1.735,2.766-3.332,5.661-4.591,8.275Z" fill="#b177ea"/><g opacity=".6"><path d="M168.676,72.258c1.407,.15,2.739,.226,3.993,.244,1.797-3.312,3.705-6.203,5.575-8.696-1.557,.256-3.229,.35-4.977,.177-1.735,2.766-3.332,5.661-4.591,8.275Z" fill="#fff"/></g><path d="M173.312,63.745c1.748,.172,3.419,.079,4.977-.177,5.946-.968,10.177-4.288,10.177-4.288-.071-2.327-.376-4.295-.999-5.628-.401-.865-.938-1.466-1.627-1.717-3.051-1.116-8.222,4.939-12.528,11.811Z" fill="#fe6dcb"/><g opacity=".6"><path d="M172.827,63.899c1.748,.172,3.419,.079,4.977-.177,3.49-4.659,6.858-7.922,9.179-9.916-.401-.865-.938-1.466-1.627-1.717-3.051-1.116-8.222,4.939-12.528,11.811Z" fill="#fff"/></g><path d="M189.42,69.309c.52-3.69,.747-7.096,.658-9.845-.153-5.093-1.367-7.988-3.712-8.846-4.494-1.639-10.365,5.883-14.505,12.485-1.744,2.786-3.362,5.702-4.678,8.434-1.204,2.494-2.093,4.701-2.573,6.381-.027,.092-.051,.184-.069,.275v.004c-.027,.112-.051,.226-.071,.343-.008,.046-.017,.1-.025,.154-.017,.11-.029,.201-.039,.292-.008,.072-.014,.136-.02,.201-.008,.099-.013,.196-.017,.294-.004,.081-.006,.132-.007,.183-.003,.155,0,.312,.008,.472,0,.029,.005,.075,.008,.121,.009,.13,.02,.252,.033,.375l.018,.137,.007,.054c.016,.114,.035,.23,.056,.346l.035,.18c.029,.137,.064,.285,.103,.434,.007,.031,.019,.073,.031,.115,.039,.143,.097,.326,.162,.51,.005,.014,.026,.07,.031,.084,.058,.159,.119,.309,.185,.46l.048,.108,.011,.025c.067,.148,.14,.296,.218,.444l.05,.097c.205,.376,.438,.742,.697,1.092,.007,.01,.042,.055,.05,.066l.059,.078c.053,.071,.106,.141,.164,.212,.041,.049,.074,.087,.107,.125l.158,.182c.112,.126,.226,.248,.345,.37,.058,.06,.108,.111,.159,.162,.114,.112,.235,.223,.358,.333l.04,.036c.048,.045,.097,.088,.148,.133,.146,.124,.294,.244,.446,.362,.048,.04,.091,.075,.138,.111,.241,.184,.473,.346,.702,.49,.958,.636,2.103,1.205,3.369,1.67,.91,.333,1.785,.574,2.621,.734,5.055,.967,8.693-1.049,10.215-3.822,.067-.116,.126-.235,.183-.353l.022-.047c.468-1.031,.931-2.297,1.393-3.804,.24-.781,.479-1.625,.71-2.506l.043-.166c.048-.184,.096-.369,.144-.558,.728-2.898,1.345-6.084,1.782-9.214Zm-7.06,14.817l-.008,.002c-.109,.029-.226,.058-.343,.087-.067,.017-.13,.033-.2,.05-.15,.036-.309,.072-.47,.109-.045,.01-.086,.02-.132,.03-.209,.046-.428,.091-.655,.136-.065,.013-.134,.025-.2,.037-.165,.031-.332,.063-.506,.093-.094,.016-.192,.031-.288,.047-.153,.025-.307,.05-.466,.073-.109,.016-.222,.031-.333,.046-.154,.021-.309,.042-.467,.061-.119,.014-.241,.027-.363,.04-.157,.017-.316,.033-.477,.048-.128,.012-.258,.022-.389,.033-.162,.013-.326,.024-.492,.034-.134,.008-.269,.016-.405,.022-.169,.008-.341,.014-.513,.019-.138,.004-.275,.008-.415,.01-.178,.003-.359,.002-.541,0-.137,0-.274,0-.413-.004-.195-.004-.392-.013-.59-.021-.129-.006-.257-.009-.388-.017-.235-.014-.473-.034-.712-.055-.096-.008-.191-.014-.287-.023-.335-.033-.673-.073-1.013-.122-.055-.008-.11-.019-.164-.027-.132-.08-.266-.158-.391-.241-.177-.112-.33-.219-.501-.349l-.092-.076c-.119-.093-.229-.18-.332-.268l-.132-.119c-.09-.081-.175-.158-.254-.236l-.088-.089c-.103-.106-.181-.189-.256-.273l-.161-.185c-.046-.054-.074-.092-.102-.13l-.052-.068-.036-.047c-.171-.231-.321-.465-.45-.703l-.032-.063c-.049-.093-.094-.184-.135-.275l-.009-.02-.024-.053c-.043-.1-.08-.192-.114-.284l-.02-.053c-.039-.11-.074-.217-.103-.323l-.018-.07c-.017-.065-.038-.152-.056-.239l-.015-.08c-.014-.077-.024-.137-.032-.195,.254,.069,.506,.13,.758,.191,.095,.023,.19,.049,.284,.07,.366,.085,.73,.163,1.09,.232,.031,.006,.061,.01,.092,.016,.064,.012,.128,.022,.192,.034,.331,.06,.659,.113,.984,.161,.081,.012,.163,.025,.244,.036,.37,.051,.737,.095,1.099,.131,.058,.006,.115,.01,.173,.015,.321,.03,.639,.055,.953,.074,.073,.005,.146,.01,.219,.014,.353,.019,.701,.033,1.044,.04,.056,.001,.112,.001,.168,.002,.301,.004,.598,.004,.891,0,.069-.001,.138-.001,.207-.003,.329-.007,.653-.018,.971-.035,.056-.003,.111-.007,.166-.01,.276-.016,.547-.035,.813-.057,.066-.006,.132-.01,.197-.016,.301-.027,.596-.057,.884-.091,.056-.007,.111-.014,.167-.021,.245-.03,.484-.063,.719-.097,.063-.009,.127-.018,.189-.028,.268-.041,.529-.084,.782-.129,.057-.01,.112-.021,.168-.031,.21-.039,.415-.079,.615-.12,.059-.012,.119-.024,.178-.036,.231-.049,.455-.098,.671-.149,.056-.013,.11-.027,.165-.04,.174-.042,.342-.084,.505-.126,.054-.014,.109-.028,.162-.042,.081-.021,.158-.043,.236-.064-.046,.154-.091,.315-.137,.464-.418,1.362-.827,2.487-1.215,3.346Zm2.77-30.424c.034,.007,.067,.015,.097,.027,.49,.18,1.335,1.514,1.517,5.32l-.022,.014c-.101,.065-.212,.135-.33,.208-.032,.02-.067,.041-.1,.061-.097,.059-.199,.121-.305,.184-.037,.022-.072,.043-.11,.065-.136,.08-.28,.161-.43,.245-.041,.023-.084,.046-.126,.069-.122,.067-.248,.135-.378,.204-.051,.027-.101,.053-.153,.08-.169,.087-.343,.176-.525,.265-.044,.021-.09,.043-.135,.065-.149,.072-.302,.144-.459,.216-.062,.028-.125,.057-.188,.085-.199,.089-.402,.177-.613,.265-.04,.016-.081,.032-.121,.049-.181,.074-.365,.146-.554,.218-.071,.027-.141,.053-.213,.08-.222,.082-.447,.162-.679,.24l-.076,.025c-.225,.074-.455,.145-.689,.214-.075,.022-.151,.044-.227,.065-.222,.063-.447,.123-.676,.18-.039,.01-.076,.02-.115,.03-.26,.063-.526,.12-.794,.174-.077,.016-.156,.03-.234,.045-.229,.043-.461,.083-.696,.119-.055,.008-.109,.018-.165,.026-.28,.04-.564,.073-.851,.101-.076,.007-.152,.013-.229,.02-.156,.013-.314,.021-.472,.03,4.668-6.939,7.924-9.205,9.052-8.989Zm-.595,23.546l-.047,.016-.076,.025c-.305,.102-.672,.216-1.092,.334l-.126,.035c-.209,.058-.429,.116-.663,.175-.038,.009-.078,.019-.116,.028-.223,.055-.456,.109-.699,.162-.034,.008-.067,.015-.102,.023-.261,.056-.536,.111-.819,.164-.06,.011-.121,.022-.181,.033-.293,.053-.594,.103-.908,.15l-.07,.01c-.3,.044-.611,.083-.929,.119-.058,.007-.116,.014-.174,.02-.333,.036-.675,.067-1.026,.092-.061,.004-.123,.008-.184,.012-.358,.024-.723,.043-1.097,.053h-.026c-.379,.011-.768,.012-1.162,.007-.07,0-.14-.002-.21-.003-.393-.008-.792-.024-1.199-.05-.045-.003-.092-.007-.137-.01-.389-.027-.784-.063-1.183-.108-.05-.006-.099-.01-.15-.016-.417-.049-.84-.111-1.267-.182-.079-.013-.158-.027-.236-.041-.436-.077-.875-.163-1.319-.265l-.044-.011c-.378-.088-.76-.192-1.143-.299,.402-1.151,.973-2.524,1.669-4.013,.38,.03,.754,.055,1.122,.075,.076,.004,.148,.006,.223,.009,.366,.018,.727,.032,1.082,.041,.147,.004,.291,.005,.436,.007,.284,.004,.565,.006,.842,.005,.145,0,.29-.001,.433-.004,.297-.005,.588-.013,.876-.023,.104-.004,.211-.006,.315-.011,.381-.017,.754-.039,1.119-.066,.099-.007,.193-.017,.291-.025,.271-.022,.538-.046,.799-.073,.126-.013,.25-.027,.374-.041,.234-.027,.464-.055,.69-.085,.116-.015,.233-.031,.347-.047,.266-.038,.526-.079,.781-.121,.061-.01,.125-.019,.185-.03,.31-.054,.61-.11,.904-.17,.092-.019,.181-.038,.271-.057,.204-.043,.405-.087,.601-.132,.102-.024,.202-.047,.301-.071,.187-.045,.37-.092,.549-.139,.085-.022,.172-.044,.256-.067,.252-.068,.498-.138,.733-.209l.056-.018c.222-.067,.437-.136,.645-.204,.076-.025,.148-.05,.221-.075,.149-.051,.294-.101,.435-.152,.074-.027,.147-.053,.22-.08,.143-.053,.28-.106,.414-.158,.056-.022,.113-.044,.167-.065,.065-.026,.126-.051,.189-.077-.332,1.918-.723,3.81-1.161,5.601Zm-9.315-11.839c.22-.002,.439-.006,.657-.015,.101-.004,.203-.008,.303-.013,.248-.013,.494-.031,.738-.053,.057-.005,.115-.008,.172-.014,.297-.029,.589-.064,.879-.105,.084-.012,.167-.026,.251-.038,.21-.032,.418-.066,.624-.103,.097-.017,.193-.035,.288-.054,.206-.04,.408-.082,.609-.127,.077-.017,.154-.033,.23-.051,.27-.063,.535-.129,.796-.199,.057-.015,.111-.032,.167-.047,.208-.057,.413-.117,.615-.178,.086-.026,.171-.053,.256-.08,.176-.056,.349-.113,.521-.171,.078-.027,.157-.053,.234-.08,.225-.079,.446-.16,.662-.242l.044-.016c.229-.088,.452-.178,.67-.269,.072-.03,.141-.06,.212-.09,.15-.064,.297-.128,.441-.193,.073-.033,.145-.065,.216-.097,.153-.07,.302-.141,.449-.211,.049-.024,.1-.047,.148-.071,.187-.091,.367-.182,.542-.272,.06-.031,.117-.062,.176-.093,.116-.061,.23-.122,.341-.182,.069-.037,.136-.074,.202-.111,.029-.016,.059-.032,.088-.048-.067,1.898-.256,4.017-.561,6.268l-.013,.007c-.116,.06-.243,.125-.383,.193l-.033,.016c-.134,.065-.28,.133-.435,.202l-.075,.034c-.166,.074-.345,.15-.535,.228l-.087,.035c-.186,.075-.383,.152-.591,.229l-.05,.019c-.218,.08-.451,.161-.693,.242-.044,.015-.09,.03-.135,.044-.496,.162-1.041,.322-1.633,.474-.056,.014-.112,.029-.169,.043-.296,.074-.602,.146-.921,.214-.041,.009-.084,.017-.125,.026-.295,.062-.601,.121-.916,.177-.058,.01-.114,.021-.172,.031-.342,.059-.695,.114-1.059,.164-.073,.01-.147,.019-.221,.029-.349,.046-.707,.088-1.077,.124-.036,.004-.071,.008-.107,.011-.392,.037-.797,.067-1.211,.092-.094,.006-.189,.011-.284,.016-.421,.022-.85,.04-1.294,.048-.039,0-.08,0-.119,0-.413,.006-.838,.004-1.27-.003-.105-.002-.21-.003-.317-.006-.378-.009-.767-.028-1.159-.048,.974-1.884,2.074-3.816,3.237-5.703,.193,.007,.385,.013,.575,.014,.101,0,.201,0,.301-.001Z" fill="#390075"/><path d="M153.697,73.885s3.187-21.735-5.072-24.64c-8.259-2.905-24.597,23.352-26.565,30.355,0,0,12.338,5.298,31.637-5.715Z" fill="#fff"/><path d="M154.243,73.965c1.045-1.338,1.403-2.782,1.605-4.238,.217-1.456,.215-2.931,.161-4.405-.059-1.473-.083-2.951-.199-4.436-.115-1.485-.302-2.978-.621-4.476-.323-1.496-.769-3.004-1.511-4.475-.734-1.453-1.887-2.922-3.551-3.834l-.645-.288c-.109-.046-.214-.094-.326-.137l-.369-.11c-.246-.078-.497-.105-.747-.153-.246-.018-.5-.053-.74-.045-.978,0-1.874,.212-2.678,.504-1.605,.601-2.922,1.481-4.138,2.416-2.418,1.89-4.435,4.062-6.337,6.302-1.89,2.249-3.631,4.594-5.274,7-1.642,2.407-3.185,4.875-4.622,7.418-.36,.635-.709,1.278-1.055,1.924-.342,.649-.744,1.268-1.1,1.919-.359,.649-.628,1.351-.785,2.104-.141,.753-.167,1.591,.217,2.495,.152,.359,.567,.526,.926,.374,.03-.013,.058-.027,.085-.043l.052-.032c.784-.473,1.269-.977,1.686-1.544,.4-.568,.733-1.168,.999-1.808,.272-.638,.522-1.295,.851-1.913,.324-.621,.664-1.235,1.009-1.848,1.384-2.45,2.884-4.848,4.473-7.178,1.59-2.329,3.273-4.593,5.073-6.734,1.801-2.129,3.721-4.173,5.829-5.815,1.048-.813,2.161-1.523,3.249-1.925,.541-.197,1.065-.302,1.523-.302,.118-.009,.221,.017,.332,.017,.1,.028,.211,.027,.305,.065l.147,.041,.166,.076c.112,.051,.225,.099,.34,.145,.858,.481,1.606,1.327,2.157,2.421,.552,1.091,.94,2.351,1.219,3.655,.279,1.307,.451,2.665,.557,4.037,.104,1.373,.157,2.764,.079,4.157-.074,1.394-.196,2.784-.176,4.188-.006,1.404,.086,2.816,.74,4.318l.01,.023c.14,.322,.514,.469,.836,.329,.099-.043,.184-.112,.247-.191Z" fill="#390075"/><g><path d="M147.157,69.599s2.324-10.483-1.294-11.532c-3.618-1.049-12.073,12.122-13.247,15.538,0,0,5.366,2.023,14.541-4.006Z" fill="#fe6dcb"/><path d="M146.324,56.476c-1.503-.437-4.104-.217-9.323,6.687-2.62,3.466-5.235,7.816-5.953,9.904-.291,.847,.144,1.773,.982,2.089,.052,.02,.355,.129,.89,.231,2.032,.389,7.413,.679,15.146-4.403,.361-.237,.614-.605,.707-1.026,.624-2.815,2.291-12.107-2.45-13.482Zm-11.273,15.8c.984-1.849,2.605-4.446,4.362-6.807,3.586-4.818,5.597-5.83,6.019-5.804,.881,.258,1.15,4.346,.245,8.917-4.96,3.129-8.598,3.703-10.626,3.694Z" fill="#390075"/></g><path d="M197.746,89.995s11.587-18.663,19.771-15.554c8.185,3.108,3.728,33.711,.714,40.331,0,0-12.845-3.912-20.486-24.777Z" fill="#fff"/><path d="M198.215,90.286c1.47-.726,2.45-1.746,3.352-2.822,.921-1.06,1.725-2.201,2.568-3.314,.839-1.115,1.777-2.144,2.742-3.126,.967-.98,1.974-1.906,3.03-2.725,1.054-.816,2.163-1.528,3.289-2.006,1.127-.481,2.244-.645,3.21-.458,.117,.039,.235,.075,.353,.108l.177,.049,.139,.063c.096,.032,.18,.104,.275,.147,.086,.072,.181,.118,.265,.201,.35,.295,.683,.714,.969,1.213,.572,1.009,.964,2.269,1.241,3.567,.551,2.615,.699,5.415,.702,8.204-.006,2.797-.181,5.612-.469,8.417-.289,2.805-.69,5.605-1.213,8.37-.131,.691-.268,1.38-.421,2.063-.148,.685-.38,1.348-.584,2.011-.209,.661-.343,1.335-.403,2.027-.047,.702-.002,1.4,.292,2.267l.018,.054c.125,.369,.526,.567,.895,.442,.031-.01,.064-.024,.092-.038,.877-.443,1.397-1.1,1.776-1.767,.365-.677,.612-1.386,.757-2.114,.148-.727,.24-1.46,.398-2.176,.153-.717,.3-1.433,.435-2.151,.543-2.87,.956-5.751,1.254-8.649,.296-2.898,.479-5.813,.486-8.751-.007-2.938-.148-5.9-.776-8.903-.326-1.499-.764-3.02-1.603-4.516-.427-.742-.974-1.482-1.721-2.113-.178-.162-.395-.298-.595-.443-.221-.125-.431-.266-.669-.365l-.353-.154c-.114-.04-.225-.071-.338-.106l-.678-.196c-1.86-.377-3.688,.002-5.187,.639-1.516,.645-2.83,1.51-4.042,2.444-1.21,.939-2.316,1.959-3.362,3.019-1.047,1.061-2.018,2.174-3.014,3.262-.992,1.091-1.945,2.217-2.718,3.47-.785,1.242-1.443,2.577-1.508,4.273-.013,.35,.26,.645,.61,.659,.108,.004,.212-.019,.303-.064l.025-.013Z" fill="#390075"/><g><path d="M205.099,91.082s5.425-9.56,9.212-7.996c3.786,1.564,1.634,17.198,.217,20.586,0,0-5.945-1.961-9.429-12.59Z" fill="#fe6dcb"/><path d="M217.171,84.027c-.513-1.242-1.263-2.073-2.228-2.472-4.895-2.016-10.258,6.901-11.284,8.71-.23,.406-.279,.89-.134,1.334,3.702,11.295,10.209,13.557,10.484,13.648,.069,.023,.139,.041,.21,.054,.759,.145,1.532-.258,1.838-.989,1.345-3.22,3.151-15.352,1.114-20.284Zm-3.633,17.188c-1.72-1.251-4.559-4.074-6.626-9.949,2.152-3.566,5.238-6.956,6.629-6.69,.048,.009,.094,.023,.138,.041,.304,.133,1.369,1.884,1.036,8.026-.169,3.114-.673,6.429-1.176,8.571Z" fill="#390075"/></g><path d="M206.004,127.715c2.356-.187,4.654-.252,6.945-.201,2.287,.048,4.56,.178,6.814,.475,2.251,.295,4.502,.645,6.726,1.186,1.126,.223,2.228,.541,3.352,.827,.574,.113,1.114,.318,1.679,.472,.562,.161,1.128,.319,1.711,.455-.481-.343-.977-.663-1.478-.98-.503-.313-1.006-.636-1.539-.893-1.065-.514-2.129-1.065-3.259-1.441-2.225-.858-4.575-1.376-6.942-1.681-2.37-.309-4.777-.301-7.144-.04-2.36,.282-4.717,.796-6.865,1.822Z" fill="#390075"/><path d="M204.544,133.494c2.322,.44,4.555,.983,6.753,1.635,2.194,.649,4.352,1.373,6.449,2.253,2.094,.877,4.173,1.808,6.176,2.916,1.028,.512,2.007,1.109,3.016,1.681,.524,.26,.99,.601,1.495,.897,.499,.303,1.004,.605,1.53,.889-.373-.457-.768-.897-1.168-1.335-.403-.434-.803-.878-1.249-1.267-.892-.776-1.773-1.589-2.764-2.249-1.92-1.414-4.051-2.532-6.254-3.45-2.204-.923-4.529-1.548-6.881-1.921-2.351-.35-4.76-.475-7.103-.051Z" fill="#390075"/><path d="M201.262,140.397c2.167,.942,4.225,1.966,6.225,3.088,1.996,1.118,3.941,2.301,5.791,3.623,1.848,1.319,3.67,2.686,5.379,4.209,.889,.726,1.712,1.525,2.57,2.306,.454,.37,.833,.805,1.26,1.206,.42,.406,.845,.812,1.296,1.206-.263-.528-.551-1.044-.844-1.56-.297-.513-.589-1.034-.938-1.512-.698-.954-1.378-1.941-2.198-2.804-1.56-1.804-3.391-3.365-5.337-4.748-1.946-1.387-4.075-2.511-6.286-3.394-2.215-.861-4.537-1.515-6.916-1.62Z" fill="#390075"/><path d="M133.717,108.325c-1.17-2.074-2.804-3.848-4.575-5.434-1.789-1.572-3.754-2.961-5.872-4.069-2.113-1.109-4.334-2.035-6.649-2.61-1.141-.341-2.328-.5-3.496-.691-.584-.095-1.181-.12-1.772-.152-.593-.028-1.183-.051-1.773-.047,.554,.223,1.109,.419,1.661,.61,.551,.199,1.11,.34,1.645,.578,1.085,.411,2.169,.783,3.22,1.248,2.131,.834,4.175,1.84,6.188,2.891,2.016,1.051,3.951,2.25,5.852,3.524,1.905,1.275,3.749,2.647,5.571,4.153Z" fill="#390075"/><path d="M131.593,113.895c-1.675-1.692-3.719-2.974-5.844-4.037-2.139-1.046-4.402-1.868-6.736-2.378-2.331-.513-4.717-.821-7.101-.766-1.19-.028-2.378,.131-3.554,.254-.588,.062-1.171,.195-1.75,.32-.579,.129-1.155,.262-1.723,.422,.594,.069,1.18,.112,1.763,.15,.583,.047,1.16,.036,1.739,.124,1.155,.111,2.299,.184,3.435,.355,2.276,.243,4.513,.675,6.731,1.159,2.222,.483,4.404,1.13,6.573,1.858,2.174,.728,4.314,1.566,6.468,2.539Z" fill="#390075"/><path d="M130.317,121.431c-2.007-1.28-4.284-2.078-6.592-2.645-2.318-.547-4.706-.849-7.096-.83-2.387,.014-4.782,.242-7.095,.823-1.167,.235-2.29,.653-3.41,1.033-.56,.19-1.098,.449-1.636,.699-.536,.254-1.068,.511-1.587,.792,.595-.064,1.176-.152,1.753-.243,.579-.083,1.14-.221,1.723-.264,1.151-.147,2.283-.329,3.428-.413,2.273-.266,4.55-.339,6.82-.358,2.273-.02,4.545,.128,6.821,.359,2.281,.229,4.554,.573,6.869,1.046Z" fill="#390075"/><g><g opacity=".2"><path d="M156.285,128.069c1.508,4.167,3.951,6.138,6.524,6.917,5.085,1.544,10.687-1.554,10.687-1.554,2.271,4.549,4.854,6.86,7.322,7.894,4.091,1.714,7.878-.072,9.449-1.026-10.595-1.915-13.503-8.88-13.503-8.88l-4.51-1.634c-6.894,5.166-15.702-1.514-15.97-1.716Z" fill="#390075"/></g><path d="M162.809,134.986c-.097,2.492,.128,5.45,.822,8.018,.766,2.866,2.106,5.26,4.216,6.024,2.125,.77,4.711-.216,7.149-1.943,2.204-1.562,4.294-3.73,5.822-5.76-2.467-1.034-5.051-3.345-7.322-7.894,0,0-5.602,3.099-10.687,1.554Z" fill="#390075"/><g><path d="M163.632,143.004c.766,2.866,2.106,5.26,4.216,6.024,2.125,.77,4.711-.216,7.149-1.943-.024-2.509-1.676-4.899-4.301-5.849-2.632-.953-5.449-.165-7.064,1.768Z" fill="#fb64c0"/><path d="M167.781,149.211c-1.949-.706-3.449-2.835-4.337-6.157l-.026-.097,.064-.077c1.712-2.048,4.637-2.78,7.279-1.826,2.623,.95,4.404,3.374,4.429,6.03v.102l-.082,.059c-2.349,1.663-4.497,2.414-6.287,2.209-.362-.041-.71-.122-1.041-.242Zm2.849-7.792c-2.456-.891-5.169-.233-6.785,1.633,.604,2.211,1.796,4.971,4.068,5.794,2.298,.833,4.997-.536,6.888-1.859-.068-2.455-1.733-4.685-4.171-5.568Z" fill="#390075"/></g><g><path d="M180.988,127.991c-.529-1.707-7.803-4.627-9.63-3.488-1.827,1.139,.377,6.379,2.816,7.263,2.439,.883,7.402-1.881,6.814-3.774Z" fill="#390075"/><path d="M173.62,133.295c-2.384-.863-4.268-4.131-4.532-6.642-.228-2.167,.785-3.143,1.409-3.532,1.637-1.021,4.502-.297,6.617,.49,1.782,.663,4.856,2.05,5.428,3.896h0c.21,.678,.325,2.04-1.26,3.552-1.584,1.512-4.382,2.727-6.651,2.468-.352-.04-.693-.116-1.013-.232Zm-1.301-7.422c-.037,.291,.02,.964,.415,1.888,.575,1.345,1.456,2.279,1.995,2.474,.488,.175,1.63,.04,2.866-.566,.917-.449,1.491-.964,1.72-1.267-1.164-1.125-5.64-2.757-6.995-2.529Zm-.156,.039h0Z" fill="#390075"/><g><path d="M172.117,124.731c-.212,.586,1.406,1.709,3.614,2.509,2.208,.8,4.171,.974,4.383,.388,.212-.586-1.406-1.709-3.614-2.509s-4.17-.974-4.383-.388Z" fill="#fff"/><path d="M175.66,127.438c-2.085-.756-4.04-1.952-3.741-2.778h0c.142-.393,.701-.548,1.659-.464,.845,.074,1.909,.332,2.993,.725,1.084,.393,2.066,.876,2.763,1.359,.791,.549,1.12,1.026,.977,1.419-.16,.443-.888,.553-1.85,.443-.831-.095-1.836-.355-2.803-.704Zm-2.119-2.823c-.888-.078-1.19,.088-1.226,.188-.109,.301,.994,1.335,3.489,2.239,2.496,.903,4.004,.815,4.113,.514,.036-.099-.09-.421-.822-.929-.668-.464-1.615-.929-2.666-1.31-.978-.354-1.934-.595-2.715-.684-.058-.007-.116-.012-.172-.017Z" fill="#390075"/></g></g><path d="M183.139,143.468c3.502,.401,6.47-1.029,7.824-1.837,.029-.015,.057-.031,.085-.048,.555-.335,.881-.588,.917-.616,.652-.51,.767-1.453,.257-2.104-.509-.651-1.448-.766-2.1-.26h0s-.2,.154-.553,.371c-.026,.014-.052,.029-.078,.044-1.265,.768-4.584,2.395-8.093,.925-2.496-1.046-4.703-3.461-6.56-7.181-.182-.365-.506-.641-.897-.762-.389-.122-.812-.078-1.17,.12-.048,.027-5.124,2.766-9.526,1.432-2.521-.763-4.388-2.779-5.55-5.993-.007-.018-.014-.036-.021-.053l-.014-.032c-.095-.27-.187-.55-.276-.838-.244-.791-1.081-1.235-1.874-.991-.791,.244-1.235,1.083-.991,1.874,.111,.361,.227,.71,.347,1.047,.013,.036,.027,.07,.042,.104,1.506,4.1,4.018,6.707,7.467,7.751,4.078,1.239,8.336-.127,10.467-1.025,2.061,3.66,4.545,6.117,7.397,7.312,.991,.415,1.964,.653,2.9,.76Z" fill="#390075"/><path d="M167.336,150.438c-2.368-.858-4.15-3.294-5.152-7.042-.668-2.47-.986-5.557-.873-8.467,.018-.464,.25-.894,.629-1.163,.379-.27,.86-.348,1.305-.213,4.402,1.334,9.478-1.405,9.526-1.432,.358-.198,.782-.242,1.17-.12,.39,.121,.714,.397,.897,.762,1.857,3.72,4.064,6.135,6.56,7.181,.427,.179,.747,.544,.868,.991,.121,.446,.029,.924-.249,1.293-1.764,2.344-4.006,4.561-6.153,6.082-2.619,1.855-5.075,2.682-7.194,2.439-.461-.053-.906-.156-1.333-.311Zm5.506-15.042c-1.781,.751-5.049,1.828-8.457,1.437-.03-.003-.06-.007-.09-.011,.051,2.052,.324,4.093,.784,5.794,.728,2.724,1.892,4.5,3.278,5.002,1.406,.509,3.456-.115,5.773-1.756,1.482-1.051,3.023-2.485,4.381-4.062-2.138-1.36-4.036-3.505-5.669-6.405Z" fill="#390075"/></g><g><g><ellipse cx="197.531" cy="120.841" rx="9.49" ry="6.689" transform="translate(26.273 276.699) rotate(-73.761)" fill="#390075"/><path d="M194.824,130.136c-3.642-1.061-5.39-6.094-3.898-11.219h0c.72-2.471,2.077-4.599,3.822-5.991,1.764-1.407,3.714-1.897,5.491-1.38,3.642,1.061,5.39,6.093,3.898,11.218-1.393,4.782-5.124,7.981-8.576,7.526-.247-.033-.494-.084-.737-.155Zm.161-16.911c-1.684,1.343-2.995,3.403-3.693,5.799h0c-1.434,4.923,.199,9.744,3.639,10.746,3.449,1,7.407-2.189,8.84-7.112,1.434-4.923-.199-9.744-3.639-10.745-.227-.066-.457-.115-.69-.145-1.463-.193-3.021,.311-4.457,1.457Z" fill="#390075"/></g><g><ellipse cx="201.643" cy="120.656" rx="3.187" ry="2.021" transform="translate(29.412 280.512) rotate(-73.761)" fill="#fff"/><path d="M200.698,123.899c-1.171-.341-1.699-2.073-1.179-3.861,.248-.852,.694-1.593,1.255-2.088,.586-.516,1.231-.706,1.812-.536,.583,.17,1.024,.676,1.241,1.426,.208,.719,.186,1.584-.062,2.435-.489,1.678-1.731,2.817-2.85,2.67-.073-.01-.146-.025-.218-.046Zm.329-5.663c-.508,.448-.914,1.125-1.141,1.908h0c-.462,1.586-.05,3.106,.919,3.388,.972,.29,2.133-.779,2.595-2.365,.228-.783,.25-1.572,.062-2.223-.179-.62-.528-1.034-.982-1.166-.055-.016-.11-.028-.167-.035-.411-.054-.861,.117-1.287,.492Z" fill="#390075"/></g></g><g><g><ellipse cx="157.49" cy="108.419" rx="9.49" ry="6.689" transform="translate(2.615 220.543) rotate(-70.447)" fill="#390075"/><path d="M154.25,117.542c-3.574-1.27-5.029-6.395-3.243-11.425h0c.862-2.425,2.34-4.471,4.162-5.76,1.842-1.303,3.817-1.679,5.561-1.06,3.574,1.27,5.029,6.394,3.243,11.425-1.667,4.694-5.576,7.671-8.996,7.017-.245-.047-.488-.112-.727-.197Zm1.139-16.874c-1.758,1.244-3.187,3.224-4.022,5.576h0c-1.716,4.832-.365,9.739,3.011,10.938,3.385,1.197,7.521-1.757,9.236-6.589,1.716-4.832,.365-9.739-3.012-10.938-.223-.079-.45-.141-.68-.185-1.449-.277-3.034,.136-4.534,1.197Z" fill="#390075"/></g><g><ellipse cx="161.258" cy="108.522" rx="3.187" ry="2.021" transform="translate(5.025 224.161) rotate(-70.447)" fill="#fff"/><path d="M160.127,111.705c-1.149-.408-1.577-2.168-.954-3.923,.297-.836,.785-1.55,1.374-2.012,.615-.481,1.27-.634,1.84-.431,.573,.203,.983,.734,1.156,1.495,.166,.73,.094,1.592-.202,2.428-.585,1.647-1.891,2.713-2.999,2.501-.072-.014-.145-.033-.215-.058Zm.656-5.634c-.533,.417-.977,1.071-1.25,1.839h0c-.553,1.557-.229,3.098,.722,3.436,.953,.346,2.175-.655,2.728-2.211,.273-.769,.341-1.555,.19-2.216-.143-.629-.468-1.062-.913-1.22-.054-.019-.109-.034-.164-.045-.407-.078-.867,.067-1.313,.416Z" fill="#390075"/></g></g></g></svg>