<?xml version="1.0" encoding="UTF-8"?><svg id="a" xmlns="http://www.w3.org/2000/svg" viewBox="0 0 256 256"><g><path d="M160.026,181.879c7.81,.882,16.1,4.153,23.882,7.237,13.037,5.175,24.63,9.839,30.087,1.916,7.608-11.041-12.208-21.481-26.079-27.158-6.814-2.794-12.192-4.433-12.192-4.433l-15.698,22.437Z" fill="#fff"/><g opacity=".2"><path d="M160.026,181.879l15.698-22.437s5.379,1.64,12.192,4.433c1.433,5.476,2.881,13.437,1.393,19.606,12.547,4.406,26.137,6.44,26.064-2.123,1.328,3.018,1.281,6.139-.855,9.235-5.469,7.934-17.098,3.239-30.163-1.944l-.448,.467c-7.782-3.084-16.072-6.355-23.882-7.237Z" fill="#390075"/></g><path d="M208.746,196.544c2.623-.618,4.869-2.04,6.614-4.571,2.042-2.963,2.51-6.093,1.391-9.301-4.806-13.774-39.086-24.369-40.543-24.813-.876-.268-1.801,.227-2.067,1.101-.267,.875,.226,1.801,1.101,2.068,9.479,2.893,34.851,12.615,38.381,22.737,.763,2.185,.438,4.256-.991,6.33-4.675,6.785-15.426,2.52-27.874-2.42-8.081-3.207-16.438-6.523-24.546-7.439-.909-.101-1.729,.551-1.832,1.46-.103,.909,.551,1.729,1.46,1.832,7.668,.867,15.816,4.1,23.696,7.227,9.463,3.755,18.55,7.361,25.21,5.792Z" fill="#390075"/></g><g><path d="M6.761,119.107c.376,2.052,.916,4.157,1.632,6.265,3.267,9.667,10.113,19.465,20.841,24.757,3.391,1.672,6.994,2.639,10.621,2.991,1.014,.105,2.031,.16,3.044,.164-.304-2.944-1.602-7.215-6.153-10.452-6.752-4.801-22.731-.044-29.986-23.726Z" fill="#33aef1"/><g opacity=".6"><path d="M7.652,118.653c.376,2.052,.916,4.157,1.632,6.265,3.942,6.669,9.942,15.36,15.356,17.251,8.554,2.983,11.973,2.403,16.106,10.498,1.014,.105,2.031,.16,3.044,.164-.304-2.944-1.602-7.215-6.153-10.452-6.752-4.801-22.731-.044-29.986-23.726Z" fill="#fff"/></g><path d="M6.748,119.074c.008,.008,.009,.021,.013,.033,7.255,23.682,23.234,18.925,29.986,23.726,4.55,3.237,5.849,7.508,6.153,10.452,1.503,.017,3-.07,4.476-.258,1.02-.121,2.036-.288,3.035-.501,.149-4.881-.722-12.341-6.652-16.345-9.313-6.287-15.529-2.22-25.1-8.865-4.373-3.037-9.459-11.463-9.63-26.023-.596,.783-1.1,1.696-1.514,2.72-1.551,3.834-1.835,9.227-.767,15.061Z" fill="#fdd800"/><g opacity=".6"><path d="M7.515,104.013c.253,7.507,1.544,20.287,7.244,24.423,8.251,5.986,12.655,6.026,20.152,7.678,6.688,1.474,11.606,7.286,12.466,16.914,1.02-.121,2.036-.288,3.035-.501,.149-4.881-.722-12.341-6.652-16.345-9.313-6.287-15.529-2.22-25.1-8.865-4.373-3.037-9.459-11.463-9.63-26.023-.596,.783-1.1,1.696-1.514,2.72Z" fill="#fff"/></g><path d="M9.029,101.292c.171,14.56,5.257,22.986,9.63,26.023,9.571,6.645,15.787,2.577,25.1,8.865,5.929,4.004,6.801,11.464,6.652,16.345,1.325-.278,2.628-.624,3.901-1.044,1.415-.459,2.788-1.002,4.11-1.619,1.069-4.533,2.035-12.472-2.242-18.155-6.316-8.396-28.096-6.752-36.402-14.32-6.092-5.551-7.639-12.617-7.803-18.517-.626,.285-1.2,.658-1.724,1.115-.445,.38-.847,.815-1.22,1.307Z" fill="#b177ea"/><g opacity=".6"><path d="M10.693,99.534c.875,8.36,3.808,18.393,9.618,22.579,14.404,10.378,39.832,1.32,34.444,28.918,1.415-.459,2.788-1.002,4.11-1.619,1.069-4.533,2.035-12.472-2.242-18.155-6.316-8.396-28.096-6.752-36.402-14.32-6.092-5.551-7.639-12.617-7.803-18.517-.626,.285-1.2,.658-1.724,1.115Z" fill="#fff"/></g><path d="M11.973,98.871c.164,5.9,1.711,12.965,7.803,18.517,8.306,7.568,30.086,5.924,36.402,14.32,4.277,5.683,3.311,13.622,2.242,18.155,2.881-1.35,5.517-3.058,7.77-5.043,.827-.727,1.604-1.49,2.317-2.287,.351-6.386,.228-19.146-10.173-24.336-13.598-6.789-36.624,5.069-43.977-19.918-.498,0-1.033,.092-1.626,.289-.2,.069-.409,.146-.622,.239-.046,.017-.092,.043-.138,.064Z" fill="#fe6dcb"/><g opacity=".6"><path d="M13.62,97.666c1.189,4.251,2.858,8.323,5.747,11.606,3.755,4.273,9.199,6.74,14.722,8.111,5.523,1.366,11.231,1.76,16.859,2.611,1.521,.231,3.051,.495,4.495,1.019,4.701,1.699,8.113,5.996,9.829,10.69,1.202,3.293,1.67,6.792,1.849,10.277,.025,.515-.02,1.206-.043,1.938,.827-.727,1.604-1.49,2.317-2.287,.351-6.386,.228-19.146-10.173-24.336-13.598-6.789-36.624,5.069-43.977-19.918-.498,0-1.033,.092-1.626,.289Z" fill="#fff"/></g><path d="M59.075,116.714c-4.902-2.448-10.883-2.631-16.666-2.808-11.274-.345-21.922-.671-26.461-16.097-.207-.704-.854-1.188-1.588-1.189h-.05c-.886,.007-1.813,.222-2.832,.656-.073,.03-.15,.065-.223,.101-1.357,.623-2.55,1.602-3.546,2.911h0c-3.071,4.044-4.039,11.178-2.588,19.083,.007,.036,.015,.072,.023,.107,2.035,10.983,9.233,25.168,23.356,32.135,4.405,2.172,9.245,3.291,14.387,3.326,.207,.002,.416,.003,.624,0,2.395-.019,4.829-.285,7.24-.793,2.894-.603,5.712-1.54,8.371-2.782,4.165-1.952,7.835-4.623,10.618-7.726,.251-.28,.4-.639,.421-1.015,.724-13.16-3.005-21.877-11.085-25.91Zm1.335,29.68c.071-.562,.13-1.144,.174-1.744,.004-.058,.009-.115,.013-.173,.02-.291,.036-.586,.047-.884,.002-.055,.003-.11,.005-.164,.01-.291,.016-.585,.016-.881v-.074c0-.309-.006-.62-.017-.934-.002-.065-.004-.13-.007-.196-.013-.311-.031-.623-.056-.936-.004-.05-.009-.1-.013-.15-.025-.297-.056-.594-.093-.893-.005-.042-.009-.083-.015-.124-.041-.317-.09-.634-.145-.951-.011-.066-.023-.132-.035-.198-.059-.319-.123-.638-.197-.956-.009-.037-.019-.075-.028-.112-.072-.301-.152-.6-.239-.899-.014-.049-.028-.099-.042-.148-.094-.313-.198-.624-.31-.933-.023-.063-.046-.125-.07-.188-.118-.315-.243-.627-.38-.937-.009-.02-.019-.04-.028-.06-.133-.296-.278-.589-.43-.88-.028-.054-.056-.108-.085-.162-.159-.294-.329-.585-.509-.872-.036-.057-.073-.113-.109-.169-.191-.295-.39-.588-.605-.874-3.615-4.805-11.245-6.459-19.323-8.21-6.67-1.446-13.567-2.941-17.248-6.294-.29-.265-.571-.535-.844-.81-.097-.098-.187-.2-.282-.299-.172-.18-.345-.359-.509-.543-.109-.122-.211-.248-.316-.372-.143-.167-.287-.333-.424-.504-.107-.134-.208-.271-.311-.407-.127-.166-.255-.332-.377-.502-.102-.143-.199-.289-.297-.435-.114-.168-.23-.336-.339-.508-.096-.151-.187-.305-.279-.458-.104-.172-.208-.343-.307-.519-.089-.157-.172-.318-.257-.478-.094-.177-.188-.354-.277-.534-.081-.163-.157-.329-.234-.495-.085-.183-.169-.366-.249-.553-.073-.169-.141-.34-.21-.511-.076-.189-.151-.379-.222-.571-.064-.174-.126-.351-.186-.528-.067-.196-.133-.393-.195-.593-.056-.179-.109-.36-.162-.541-.059-.204-.115-.408-.169-.615-.048-.184-.094-.369-.138-.556-.05-.211-.097-.424-.142-.639-.04-.188-.078-.377-.114-.568-.041-.22-.08-.442-.116-.666-.031-.192-.062-.384-.09-.578-.033-.23-.062-.462-.09-.695-.023-.195-.046-.39-.066-.587-.02-.194-.035-.392-.051-.589,5.58,15.748,17.932,16.139,28.884,16.474,5.676,.174,11.037,.338,15.288,2.46,6.673,3.331,9.796,10.79,9.286,22.175-1.825,1.941-4.052,3.686-6.553,5.143,.021-.148,.042-.297,.062-.448,.007-.051,.013-.103,.02-.155Zm-2.482-2.172l-.004,.063c-.022,.319-.049,.632-.08,.941-.003,.033-.006,.067-.01,.1-.031,.297-.066,.589-.104,.875-.005,.042-.011,.084-.016,.125-.038,.278-.079,.55-.122,.816-.007,.044-.014,.088-.021,.131-.043,.26-.088,.513-.135,.758l-.025,.133c-.025,.127-.05,.247-.075,.37-1.794,.812-3.665,1.473-5.586,1.973-.007-.224-.015-.45-.027-.677v-.025c-.018-.314-.041-.631-.068-.95-.004-.044-.007-.088-.011-.132-.027-.306-.061-.614-.099-.923-.007-.055-.014-.11-.021-.165-.04-.307-.085-.616-.137-.925-.009-.054-.018-.107-.028-.161-.055-.316-.114-.632-.182-.949-.008-.037-.017-.075-.025-.112-.072-.331-.151-.661-.239-.99l-.003-.012c-.088-.329-.186-.656-.291-.982-.013-.041-.025-.081-.038-.122-.102-.31-.213-.619-.331-.925-.02-.053-.04-.105-.061-.158-.119-.302-.247-.602-.383-.898-.023-.051-.047-.101-.071-.152-.142-.301-.291-.599-.451-.893-.019-.036-.04-.071-.06-.106-.17-.307-.349-.611-.541-.909l-.004-.006c-.191-.297-.397-.587-.611-.873-.026-.035-.052-.071-.079-.106-.207-.271-.425-.536-.654-.796-.039-.044-.078-.089-.118-.133-.229-.254-.469-.503-.72-.745-.043-.042-.088-.083-.132-.124-.259-.244-.528-.481-.81-.711-.035-.029-.073-.056-.109-.085-.301-.239-.612-.473-.941-.694-4.832-3.262-8.89-3.883-12.814-4.484-3.942-.603-7.665-1.173-12.273-4.37-.126-.088-.253-.181-.381-.279-.052-.04-.105-.085-.157-.126-.076-.061-.152-.12-.228-.184-.059-.05-.118-.104-.177-.156-.07-.062-.14-.121-.21-.186-.062-.058-.125-.12-.188-.18-.067-.064-.134-.126-.201-.193-.063-.063-.126-.13-.188-.196-.067-.07-.134-.137-.201-.21-.063-.068-.125-.14-.188-.211-.067-.075-.134-.148-.2-.225-.064-.074-.127-.154-.191-.231-.065-.079-.131-.156-.196-.237-.065-.081-.129-.167-.194-.251-.063-.082-.127-.163-.19-.248-.065-.087-.129-.179-.193-.269-.063-.087-.126-.173-.188-.263-.063-.091-.126-.187-.188-.28-.063-.094-.126-.186-.188-.283-.063-.097-.125-.199-.188-.3-.061-.098-.122-.194-.183-.294-.063-.104-.124-.212-.186-.318-.06-.102-.12-.203-.179-.308-.061-.109-.121-.221-.182-.333-.059-.108-.118-.215-.176-.325-.059-.113-.118-.231-.177-.347-.058-.114-.116-.227-.173-.344-.058-.119-.115-.241-.172-.362-.056-.119-.112-.237-.168-.358-.057-.125-.112-.254-.168-.382-.054-.124-.109-.246-.162-.372-.055-.13-.108-.264-.162-.396-.052-.129-.105-.257-.157-.389-.053-.135-.104-.274-.156-.412-.05-.135-.101-.268-.151-.406-.051-.141-.1-.285-.149-.428-.048-.14-.097-.279-.144-.422-.049-.147-.095-.297-.143-.447-.046-.144-.092-.287-.136-.434-.046-.153-.091-.31-.136-.466-.043-.149-.086-.297-.128-.448-.044-.159-.086-.322-.128-.484-.04-.153-.08-.306-.119-.461-.041-.165-.08-.334-.12-.502-.037-.158-.075-.316-.111-.477-.038-.17-.074-.344-.111-.518-.034-.164-.069-.327-.102-.493-.035-.177-.068-.356-.101-.536-.031-.168-.063-.336-.092-.506-.032-.184-.062-.371-.092-.558-.028-.171-.055-.341-.081-.515-.029-.191-.055-.386-.082-.581-.024-.175-.048-.349-.071-.527-.025-.198-.048-.399-.071-.6-.02-.179-.041-.357-.06-.539-.021-.204-.04-.411-.059-.618-.017-.185-.034-.369-.049-.556-.017-.21-.032-.423-.047-.636-.013-.188-.026-.376-.037-.566-.013-.218-.024-.438-.034-.659-.009-.192-.018-.385-.026-.58-.007-.186-.012-.375-.017-.564,.139-.179,.282-.348,.429-.507,.018,.165,.039,.328,.059,.492,.031,.258,.066,.514,.103,.768,.029,.199,.059,.397,.092,.594,.042,.255,.088,.507,.136,.758,.036,.19,.072,.38,.112,.568,.054,.257,.114,.51,.174,.763,.042,.175,.082,.352,.127,.525,.071,.273,.149,.541,.227,.81,.043,.147,.083,.297,.128,.443,.115,.371,.238,.736,.367,1.097,.014,.039,.026,.08,.041,.12,.145,.399,.3,.791,.463,1.178,.053,.127,.112,.249,.167,.375,.114,.259,.229,.518,.351,.771,.071,.147,.147,.291,.22,.437,.115,.227,.23,.453,.352,.675,.082,.151,.168,.299,.254,.447,.122,.212,.245,.422,.373,.63,.091,.149,.185,.295,.28,.442,.131,.203,.265,.404,.402,.602,.099,.143,.199,.286,.301,.427,.143,.198,.29,.392,.439,.585,.104,.135,.208,.271,.315,.404,.159,.197,.323,.39,.489,.583,.105,.123,.209,.247,.317,.367,.187,.209,.381,.412,.576,.615,.094,.098,.185,.199,.282,.296,.295,.297,.597,.589,.909,.874,4.215,3.84,11.47,5.412,18.487,6.933,7.243,1.57,14.732,3.194,17.747,7.201,.227,.302,.437,.613,.632,.929,.012,.019,.025,.038,.037,.057,.186,.304,.356,.615,.515,.931,.017,.033,.034,.065,.05,.098,.152,.308,.29,.621,.418,.937,.017,.042,.035,.083,.051,.125,.123,.312,.233,.627,.334,.945,.015,.047,.03,.094,.045,.142,.097,.316,.184,.635,.261,.955,.012,.05,.024,.099,.035,.149,.074,.321,.14,.643,.196,.966,.008,.048,.016,.097,.024,.146,.054,.326,.1,.652,.138,.978,.005,.044,.009,.088,.014,.131,.036,.331,.065,.661,.085,.991,.002,.036,.004,.073,.006,.109,.019,.337,.032,.673,.037,1.007,0,.022,0,.044,0,.066,.008,.696-.013,1.38-.057,2.046Zm-12.46-4.709c.098,.116,.188,.237,.28,.356,.126,.162,.253,.324,.37,.491,.089,.126,.172,.256,.256,.385,.108,.166,.216,.334,.316,.504,.079,.134,.154,.271,.229,.408,.093,.171,.184,.343,.27,.518,.069,.14,.135,.282,.2,.424,.08,.176,.157,.353,.23,.532,.059,.145,.117,.29,.172,.436,.068,.18,.132,.362,.193,.544,.05,.147,.099,.294,.144,.442,.057,.185,.109,.371,.16,.557,.04,.148,.082,.295,.118,.443,.047,.19,.089,.38,.13,.57,.032,.146,.065,.291,.094,.437,.038,.195,.071,.391,.103,.586,.024,.141,.05,.282,.07,.423,.031,.208,.055,.414,.08,.621,.015,.127,.034,.254,.047,.381,.026,.249,.046,.496,.065,.743,.006,.083,.016,.167,.021,.249,.022,.324,.037,.646,.048,.963,.004,.125,.004,.246,.007,.369,.001,.065,.002,.129,.003,.193-1.696,.304-3.395,.476-5.077,.519-.023-.117-.046-.233-.072-.352-.018-.081-.038-.164-.058-.246-.033-.138-.067-.277-.104-.418-.023-.088-.049-.177-.074-.266-.039-.138-.08-.276-.124-.416-.029-.092-.059-.184-.09-.277-.047-.141-.097-.282-.15-.425-.034-.092-.067-.183-.102-.275-.058-.15-.121-.3-.185-.451-.036-.085-.071-.17-.109-.256-.079-.177-.164-.354-.252-.531-.03-.06-.056-.12-.087-.18-.121-.237-.25-.475-.388-.713-.03-.052-.064-.103-.095-.155-.11-.185-.223-.37-.344-.554-.055-.084-.115-.168-.173-.252-.104-.152-.209-.304-.321-.455-.069-.093-.141-.185-.213-.277-.11-.142-.223-.284-.341-.426-.079-.095-.16-.189-.242-.283-.121-.139-.247-.277-.375-.414-.087-.093-.175-.186-.266-.279-.137-.139-.28-.277-.425-.414-.092-.087-.182-.175-.278-.261-.165-.149-.338-.295-.513-.441-.086-.072-.167-.144-.256-.215-.268-.215-.546-.427-.838-.635-2.089-1.486-4.883-2.131-7.841-2.815-1.828-.422-3.765-.871-5.723-1.552-.024-.008-.048-.016-.072-.024-.187-.066-.375-.136-.563-.206-.061-.023-.121-.043-.182-.067-.138-.053-.275-.11-.413-.165-.111-.045-.223-.087-.334-.134-.101-.042-.203-.089-.304-.133-.147-.064-.294-.126-.441-.193-.089-.04-.177-.085-.265-.127-.159-.075-.319-.149-.478-.229-.085-.042-.169-.089-.254-.133-.163-.084-.325-.167-.487-.256-.087-.048-.173-.1-.259-.149-.159-.09-.319-.179-.478-.275-.087-.052-.173-.109-.259-.163-.158-.098-.316-.195-.474-.299-.081-.053-.161-.112-.241-.167-.162-.11-.324-.219-.485-.335-.081-.058-.161-.123-.241-.183-.16-.119-.32-.237-.478-.363-.076-.06-.15-.125-.225-.187-.162-.133-.325-.264-.486-.404-.074-.065-.148-.135-.222-.201-.161-.144-.321-.286-.48-.437-.077-.073-.153-.153-.229-.228-.155-.152-.309-.301-.462-.461-.075-.078-.148-.162-.222-.242-.153-.165-.307-.327-.458-.5-.073-.083-.145-.174-.217-.259-.151-.177-.302-.353-.451-.538-.073-.091-.144-.189-.216-.283-.147-.189-.294-.375-.438-.573-.075-.103-.149-.214-.224-.32-.139-.196-.279-.39-.415-.595-.079-.118-.155-.244-.233-.365-.131-.203-.263-.403-.391-.615-.078-.129-.154-.266-.231-.398-.125-.214-.252-.424-.375-.646-.082-.148-.162-.306-.243-.458-.116-.217-.233-.43-.346-.655-.082-.163-.161-.336-.242-.502-.109-.226-.22-.447-.327-.681-.084-.182-.164-.375-.246-.562-.101-.23-.204-.456-.303-.694-.084-.201-.164-.414-.247-.621-.094-.236-.19-.467-.281-.711-.025-.067-.049-.139-.074-.206-.225-.891-.419-1.769-.575-2.624-.007-.036-.014-.071-.023-.106-.711-3.917-.769-7.639-.231-10.721,.041,.326,.085,.649,.132,.968,.004,.028,.007,.057,.012,.085,.091,.615,.194,1.212,.303,1.8,.019,.101,.037,.203,.056,.304,.108,.56,.224,1.106,.348,1.64,.025,.106,.05,.211,.075,.316,.128,.535,.262,1.059,.404,1.567,.019,.069,.04,.137,.06,.205,.143,.501,.293,.99,.449,1.465,.013,.041,.026,.083,.04,.124,.162,.487,.332,.957,.507,1.417,.031,.082,.062,.165,.094,.246,.172,.443,.35,.873,.532,1.291,.034,.077,.068,.153,.102,.229,.189,.422,.381,.834,.579,1.23,.019,.038,.039,.075,.058,.113,.196,.386,.395,.759,.599,1.12,.023,.041,.046,.084,.069,.125,.208,.364,.42,.711,.635,1.049,.039,.062,.078,.123,.117,.184,.212,.327,.427,.642,.645,.944,.038,.052,.076,.103,.114,.155,.226,.308,.454,.606,.684,.887l.036,.042c.228,.276,.457,.538,.688,.788,.031,.034,.062,.069,.093,.102,.228,.244,.458,.473,.688,.692,.043,.041,.086,.082,.129,.122,.228,.212,.457,.413,.685,.601,.037,.03,.073,.058,.11,.088,.239,.192,.478,.375,.716,.54,5.118,3.552,9.327,4.196,13.397,4.819,3.798,.581,7.386,1.13,11.719,4.055,.319,.216,.621,.444,.91,.681,.096,.079,.183,.165,.276,.247,.185,.162,.371,.325,.543,.496,.103,.102,.197,.21,.295,.315,.149,.159,.299,.317,.437,.483Zm-29.936-3.668c.192,.153,.384,.299,.577,.443,.095,.071,.19,.145,.285,.214,.271,.196,.543,.384,.816,.565,.017,.011,.034,.024,.051,.035,.29,.19,.58,.37,.872,.543,.1,.06,.2,.114,.3,.172,.193,.111,.386,.221,.58,.325,.117,.063,.235,.124,.353,.185,.178,.092,.355,.183,.533,.269,.122,.06,.244,.118,.366,.175,.176,.082,.351,.162,.527,.24,.12,.053,.24,.106,.36,.157,.182,.078,.364,.152,.546,.225,.112,.045,.223,.091,.334,.134,.209,.081,.417,.157,.625,.233,.082,.03,.165,.062,.247,.091,.287,.101,.572,.198,.857,.29,.088,.028,.174,.054,.261,.082,.202,.064,.403,.127,.604,.186,.113,.034,.225,.065,.338,.098,.174,.05,.347,.1,.519,.147,.119,.033,.237,.064,.355,.096,.167,.045,.332,.088,.497,.131,.116,.03,.232,.06,.347,.089,.168,.042,.335,.084,.502,.124,.109,.027,.218,.054,.326,.08,.182,.044,.363,.086,.542,.129,.087,.021,.175,.042,.262,.062,.258,.06,.513,.119,.765,.177,2.808,.649,5.233,1.209,6.889,2.387,.238,.17,.465,.343,.684,.518,.068,.055,.133,.111,.199,.166,.148,.123,.294,.247,.433,.372,.071,.064,.14,.128,.209,.193,.13,.122,.257,.245,.379,.369,.062,.063,.125,.126,.186,.189,.132,.139,.259,.279,.382,.42,.041,.047,.085,.094,.125,.141,.161,.19,.314,.38,.459,.572,.023,.031,.044,.062,.066,.092,.119,.161,.234,.323,.343,.485,.042,.063,.082,.126,.122,.189,.085,.132,.168,.264,.246,.396,.041,.069,.081,.138,.12,.206,.075,.131,.146,.262,.214,.392,.034,.064,.068,.128,.1,.192,.078,.156,.152,.313,.223,.468,.016,.036,.034,.072,.05,.107,.084,.192,.163,.383,.235,.572,.019,.051,.036,.101,.055,.151,.051,.139,.101,.277,.146,.414,.022,.067,.043,.133,.063,.199,.038,.122,.075,.244,.109,.365,.019,.066,.037,.133,.055,.198,.025,.093,.047,.184,.069,.276-4.018-.234-7.803-1.216-11.277-2.929-6.286-3.1-11.083-7.769-14.581-12.913,.049,.04,.098,.076,.147,.115Z" fill="#390075"/></g><path d="M126.37,206.876c36.999-.465,52.354-17.75,57.473-35.336,4.487-15.363,1.155-30.96-2.367-35.755,0,0-26.586,6.389-68.472-5.094-3.383-.924-6.607-1.615-9.678-2.093-34.933-5.412-49.827,16.805-51.122,30.185-1.407,14.551,4.834,48.967,74.166,48.093Z" fill="#fff"/><g opacity=".2"><path d="M53.503,161.652c4.08,15.917,20.264,35.766,73.13,35.098,21.421-.271,35.584-6.18,44.708-14.52,4.174-3.815,1.948-10.735-3.662-11.442-2.166-.273-4.349-.618-6.545-1.037-29.224-5.577-51.784-22.45-57.809-41.153,3.072,.478,6.295,1.169,9.678,2.093,41.886,11.483,68.472,5.094,68.472,5.094,2.006,2.731,3.948,8.969,4.421,16.669,.325-2.848,.424-5.628,.347-8.262,4.386,19.768-.455,61.775-58.416,62.508-64.863,.816-74.505-29.251-74.326-45.049Z" fill="#390075"/></g><path d="M60.742,188.892c-10.709-11.646-10.691-25.048-10.187-30.27,.703-7.269,5.195-17.615,15.694-24.851,8.341-5.748,23.298-11.226,47.194-4.675,40.92,11.218,67.385,5.139,67.648,5.077h0c.648-.154,1.327,.094,1.721,.631,4.588,6.249,8.426,27.374-.597,45.474-6.305,12.648-21.107,27.817-55.823,28.255-.878,.011-1.748,.016-2.612,.016-29.838,0-51.039-6.609-63.038-19.657Zm51.826-56.601c-22.667-6.214-36.676-1.141-44.438,4.208-9.574,6.598-13.674,16.213-14.276,22.442-.462,4.779-.478,17.046,9.327,27.708,11.682,12.704,32.917,18.961,63.17,18.571,26.156-.33,44.448-9.466,52.899-26.419,7.917-15.881,5.239-34.646,1.461-41.16-5.605,1.098-30.68,4.922-68.143-5.349Zm68.905,3.493h0Z" fill="#390075"/><g><path d="M150.063,189.975c.38,.131,.756,.272,1.133,.419h.005c19.438,7.458,38.337,30.717,49.435,20.529,2.773-2.543,3.514-5.575,2.892-8.812v-.005c-2.683-13.974-30.703-31.872-30.703-31.872l-22.762,19.741Z" fill="#fff"/><g opacity=".2"><path d="M151.2,190.393c19.438,7.459,38.337,30.717,49.435,20.53,2.773-2.543,3.514-5.575,2.892-8.812-2.104,9.581-18.591,1.61-30.659-6.933-11.878-8.409-21.367-4.902-21.668-4.785Z" fill="#451661"/></g><path d="M172.528,170.7c1.471,1.981,3.243,3.48,5.062,4.916,1.803,1.456,3.681,2.805,5.528,4.198,1.851,1.388,3.61,2.889,5.329,4.424,1.717,1.537,3.38,3.126,4.962,4.779,1.576,1.656,3.075,3.375,4.409,5.185,1.337,1.803,2.508,3.711,3.314,5.69,.8,1.971,1.189,4.04,.773,5.881-.208,.918-.605,1.778-1.172,2.562-.132,.201-.29,.388-.454,.573-.152,.192-.329,.369-.51,.543l-.267,.264-.29,.23-.574,.466c-1.601,1.097-3.498,1.579-5.546,1.326-2.037-.211-4.129-.935-6.148-1.886-4.054-1.913-7.909-4.524-11.759-7.138-3.85-2.63-7.7-5.34-11.729-7.846l-1.518-.931-1.541-.904c-1.04-.585-2.042-1.24-3.101-1.812-1.046-.588-2.162-1.065-3.325-1.417-1.166-.343-2.406-.524-3.725-.349-.338,.045-.576,.355-.532,.694,.016,.122,.067,.231,.141,.318l.026,.03c.432,.511,.896,.896,1.363,1.261,.468,.361,.94,.703,1.431,.993,.493,.282,.98,.586,1.482,.848,.25,.135,.505,.257,.759,.384,.251,.135,.507,.26,.763,.383,1.032,.48,2.067,.978,3.065,1.543l1.489,.87,1.474,.904c3.922,2.438,7.731,5.117,11.61,7.768,3.888,2.634,7.808,5.313,12.229,7.406,2.209,1.032,4.593,1.901,7.22,2.179,.646,.1,1.33,.06,1.998,.067,.337-.016,.679-.072,1.018-.11l.509-.065c.169-.031,.335-.082,.503-.123,.335-.088,.67-.173,1.002-.269l.96-.401c.158-.071,.323-.13,.474-.213l.444-.263c.293-.179,.595-.35,.878-.541l.793-.635,.393-.321,.359-.351c.24-.232,.475-.47,.69-.735,.224-.254,.441-.515,.635-.802,.806-1.11,1.413-2.414,1.718-3.78,.312-1.368,.304-2.768,.113-4.086-.193-1.322-.573-2.573-1.049-3.753-.963-2.358-2.276-4.464-3.72-6.418-1.445-1.959-3.029-3.772-4.679-5.506-1.654-1.729-3.378-3.375-5.148-4.96-1.77-1.585-3.594-3.099-5.402-4.63-1.81-1.529-3.658-3.013-5.642-4.308-.988-.652-1.989-1.286-3.065-1.807-1.075-.524-2.184-.988-3.425-1.255-.318-.069-.631,.134-.7,.452-.037,.172,.005,.342,.102,.474l.004,.006Z" fill="#390075"/></g><g><path d="M22.037,197.12c5.899,5.318,15.617-.152,20.155-2.386,4.538-2.234,11.76,5.858,24.95-1.944,5.104-3.02,8.243-7.409,10.168-11.82,3.505-8.037,2.982-16.143,2.982-16.143l-19.295-16.101c-26.134,3.744-39.152,23.614-41.217,37.073-.788,5.11,.006,9.294,2.258,11.321Z" fill="#fff"/><g opacity=".2"><path d="M22.037,197.12c5.899,5.318,15.617-.152,20.155-2.386,4.538-2.234,11.76,5.858,24.95-1.944,5.104-3.02,8.243-7.409,10.168-11.82v-.011s3.705-7.407,2.371-14.505c0,0-12.54,25.572-35.447,14.984,0,0-15.49,14.401-24.456,4.361-.788,5.11,.006,9.294,2.258,11.321Z" fill="#390075"/></g><path d="M77.951,177.666c-1.685,2.414-3.03,4.746-4.611,6.914-1.598,2.14-3.385,4.116-5.529,5.705-.524,.413-1.093,.759-1.659,1.123-.587,.347-1.18,.681-1.787,.98-1.213,.6-2.462,1.102-3.737,1.472-2.553,.744-5.194,.926-7.831,.52-1.324-.187-2.643-.515-4.027-.876-.694-.179-1.4-.371-2.162-.535-.761-.161-1.576-.307-2.502-.31-.23-.001-.476,.02-.712,.034-.248,.036-.495,.067-.745,.124-.251,.073-.505,.121-.749,.231l-.367,.154c-.068,.028-.117,.051-.152,.07l-.124,.061-1.934,.965c-1.272,.63-2.538,1.218-3.818,1.733-2.545,1.018-5.204,1.768-7.677,1.658-1.226-.067-2.38-.348-3.373-.909-.497-.259-.976-.641-1.365-1.001-.355-.345-.664-.783-.919-1.284-.516-1.001-.789-2.235-.916-3.497-.112-1.272-.086-2.592,.067-3.914,.297-2.648,1.014-5.295,1.997-7.844,1.975-5.107,5.009-9.848,8.759-13.921,3.757-4.073,8.255-7.479,13.223-9.992,1.246-.621,2.511-1.205,3.805-1.722,1.298-.51,2.631-.924,3.976-1.288,1.341-.375,2.67-.788,4.007-1.222,1.329-.477,2.66-.975,3.985-1.815l.014-.009c.287-.182,.372-.557,.19-.838-.085-.132-.215-.22-.357-.257-1.526-.397-3.045-.427-4.528-.254-1.483,.179-2.945,.512-4.362,.986-2.817,.997-5.591,2.107-8.261,3.446-5.33,2.696-10.165,6.355-14.197,10.728-4.026,4.378-7.281,9.452-9.428,14.996-1.068,2.773-1.861,5.668-2.199,8.674-.173,1.501-.211,3.036-.073,4.589,.16,1.551,.48,3.142,1.258,4.676,.388,.762,.896,1.508,1.562,2.155,.65,.608,1.306,1.112,2.073,1.527,1.504,.848,3.219,1.249,4.864,1.332,1.651,.071,3.247-.141,4.765-.494,1.518-.357,2.968-.85,4.367-1.409,1.397-.562,2.749-1.192,4.062-1.842l1.938-.967,.119-.059c.044-.023,.077-.038,.094-.042l.133-.054c.082-.048,.192-.052,.284-.089,.101-.024,.214-.033,.322-.055,.123-.002,.238-.017,.367-.016,1.048,.002,2.408,.375,3.792,.734,1.394,.364,2.868,.735,4.395,.951,3.051,.477,6.304,.26,9.29-.62,1.498-.433,2.934-1.017,4.308-1.689,.34-.173,.69-.334,1.022-.518l1-.551c.66-.392,1.333-.783,1.964-1.232,1.276-.876,2.494-1.853,3.571-2.966,1.077-1.111,2.037-2.328,2.848-3.624,1.641-2.575,2.715-5.486,2.762-8.5,.005-.322-.255-.584-.582-.586-.203-.001-.384,.099-.493,.252l-.005,.008Z" fill="#390075"/></g><g><path d="M102.413,107.466c-4.966,25.04,19.012,45.568,52.301,52.169,33.29,6.601,63.286-3.223,68.251-28.263,4.966-25.04-16.98-55.814-50.269-62.415-33.29-6.601-65.317,13.469-70.283,38.509Z" fill="#fff"/><g opacity=".2"><path d="M154.154,159.432c33.287,6.599,63.285-3.225,68.249-28.267,.034-.157,.062-.313,.09-.474-9.287,18.975-36.122,25.962-65.529,20.133-33.239-6.594-57.194-27.066-52.328-52.054-1.27,2.741-2.212,5.579-2.788,8.489-4.965,25.042,19.012,45.569,52.305,52.172Z" fill="#390075"/></g><path d="M154.392,161.261c-16.901-3.352-31.575-10.311-41.317-19.596-10.527-10.033-14.776-21.97-12.287-34.521,2.522-12.716,11.751-24.465,25.322-32.236,14.119-8.084,30.777-10.774,46.908-7.576,16.13,3.198,30.501,12.043,40.467,24.903,9.579,12.361,13.626,26.743,11.105,39.459-2.489,12.55-10.971,21.963-24.53,27.219-7.487,2.903-16.278,4.37-25.743,4.37-6.4,0-13.108-.672-19.925-2.023Zm-26.636-83.477c-12.738,7.294-21.383,18.23-23.718,30.005-4.506,22.722,16.466,43.374,50.998,50.222,6.831,1.355,13.375,2.007,19.517,2.007,24.909,0,43.172-10.741,46.787-28.968,4.572-23.054-15.398-53.812-48.967-60.468-4.219-.837-8.473-1.25-12.707-1.25-11.166,0-22.176,2.877-31.911,8.451Z" fill="#390075"/><path d="M164.765,86.338c.936,.392,2.026,.709,3.287,.915,6.401,1.045,9.425-1.943,10.189-4.339-1.959,1.03-7.228,3.457-13.476,3.424Z" fill="#fe6dcb"/><path d="M162.24,84.837c.523,.439,1.143,.845,1.871,1.205,.209,.105,.427,.205,.653,.293,6.249,.033,11.518-2.394,13.477-3.424,.042-.109,.067-.222,.096-.331,.414-1.716,.716-4.185,.875-7.002,0,0-6.713,4.65-16.126,4.403-1.071-.029-2.176-.117-3.311-.289-.084,1.498,.54,3.528,2.465,5.144Z" fill="#33aef1"/><g opacity=".6"><path d="M162.24,84.837c.234-1.674,.523-3.294,.845-4.855-1.071-.029-2.176-.117-3.311-.289-.084,1.498,.54,3.528,2.465,5.144Z" fill="#fff"/></g><path d="M159.774,79.694c1.134,.172,2.239,.259,3.311,.289,9.413,.247,16.126-4.403,16.126-4.403,.163-2.846,.176-6.056,.021-9.208,0,0-4.273,4.457-14.201,6.198-1.235,.218-2.557,.393-3.968,.511-.678,2.54-1.134,4.809-1.281,6.47-.004,.046-.008,.096-.008,.142Z" fill="#fdd800"/><g opacity=".6"><path d="M159.774,79.694c1.134,.172,2.239,.259,3.311,.289,.548-2.633,1.21-5.102,1.946-7.412-1.235,.218-2.557,.393-3.968,.511-.678,2.54-1.134,4.809-1.281,6.47-.004,.046-.008,.096-.008,.142Z" fill="#fff"/></g><path d="M161.064,73.081c1.41-.117,2.733-.293,3.968-.511,9.928-1.741,14.201-6.198,14.201-6.198-.167-3.407-.544-6.751-1.168-9.513,0,0-3.532,4.056-9.191,6.123-1.482,.544-3.105,.95-4.855,1.109-1.184,3.043-2.21,6.186-2.955,8.99Z" fill="#b177ea"/><g opacity=".6"><path d="M161.064,73.081c1.41-.117,2.733-.293,3.968-.511,1.143-3.591,2.474-6.789,3.842-9.589-1.482,.544-3.105,.95-4.855,1.109-1.184,3.043-2.21,6.186-2.955,8.99Z" fill="#fff"/></g><path d="M164.018,63.849c1.749-.159,3.373-.565,4.855-1.109,5.659-2.068,9.191-6.123,9.191-6.123-.506-2.273-1.176-4.148-2.038-5.34-.557-.774-1.197-1.264-1.921-1.381-3.206-.523-7.148,6.395-10.087,13.954Z" fill="#fe6dcb"/><g opacity=".6"><path d="M163.571,64.091c1.749-.159,3.373-.565,4.855-1.109,2.553-5.232,5.248-9.07,7.153-11.463-.557-.774-1.197-1.264-1.921-1.381-3.206-.523-7.148,6.395-10.087,13.954Z" fill="#fff"/></g><path d="M180.885,66.288c-.183-3.722-.599-7.11-1.203-9.793-1.107-4.974-2.843-7.589-5.307-7.992-4.721-.766-9.076,7.726-11.902,14.987-1.19,3.064-2.231,6.232-3.011,9.163-.714,2.676-1.173,5.01-1.329,6.75-.009,.096-.016,.191-.016,.283v.004c-.005,.115-.007,.232-.005,.35,0,.047,.002,.101,.005,.155,.005,.112,.009,.202,.017,.294,.006,.072,.012,.136,.019,.201,.011,.099,.024,.195,.038,.292,.012,.08,.019,.131,.028,.181,.027,.153,.058,.306,.096,.462,.006,.028,.019,.073,.031,.117,.033,.126,.066,.244,.103,.362l.043,.132,.017,.052c.038,.109,.078,.219,.12,.329l.068,.17c.054,.129,.116,.268,.183,.407,.013,.029,.032,.068,.052,.107,.065,.133,.156,.302,.255,.47,.007,.013,.038,.064,.046,.076,.087,.145,.175,.281,.268,.418l.068,.097,.015,.022c.094,.133,.193,.264,.298,.395l.067,.085c.272,.331,.57,.647,.889,.941,.009,.009,.052,.047,.061,.055l.073,.065c.066,.06,.131,.119,.201,.177,.049,.04,.089,.071,.129,.102l.189,.149c.133,.103,.268,.202,.408,.299,.068,.048,.127,.089,.187,.129,.133,.088,.272,.175,.414,.26l.046,.028c.056,.035,.112,.069,.17,.103,.166,.095,.335,.184,.506,.272,.055,.031,.104,.057,.156,.083,.271,.135,.53,.251,.781,.35,1.061,.445,2.292,.789,3.623,1.007,.956,.156,1.861,.229,2.712,.229,5.147,0,8.341-2.663,9.315-5.673,.044-.126,.08-.255,.113-.381l.013-.05c.266-1.101,.483-2.431,.654-3.998,.089-.812,.165-1.686,.226-2.594l.011-.171c.013-.19,.025-.38,.036-.575,.171-2.983,.178-6.228,.019-9.385Zm-4.152,15.879l-.008,.004c-.102,.048-.211,.099-.321,.15-.063,.029-.122,.057-.187,.087-.14,.064-.29,.129-.441,.195-.042,.018-.081,.036-.124,.054-.197,.084-.403,.17-.617,.256-.061,.025-.127,.049-.19,.074-.157,.062-.314,.124-.48,.186-.089,.033-.183,.067-.274,.1-.146,.053-.292,.107-.444,.16-.104,.036-.212,.072-.318,.107-.147,.049-.295,.099-.448,.147-.115,.036-.232,.072-.349,.108-.151,.046-.304,.092-.46,.137-.124,.036-.249,.07-.376,.105-.157,.043-.316,.085-.477,.126-.13,.033-.261,.066-.393,.098-.165,.04-.332,.077-.5,.115-.134,.03-.269,.06-.406,.088-.175,.036-.353,.069-.531,.102-.135,.025-.269,.051-.407,.074-.192,.033-.388,.061-.583,.09-.128,.019-.254,.039-.384,.056-.233,.031-.471,.056-.709,.08-.096,.01-.19,.022-.286,.031-.335,.03-.674,.054-1.018,.071-.055,.003-.111,.002-.167,.005-.145-.053-.291-.105-.429-.163-.195-.077-.365-.153-.557-.249l-.105-.057c-.135-.069-.259-.134-.376-.201l-.152-.092c-.104-.063-.201-.122-.294-.184l-.103-.071c-.121-.085-.214-.152-.303-.221l-.193-.151c-.056-.045-.09-.077-.125-.108l-.064-.057-.044-.04c-.211-.194-.403-.397-.574-.606l-.043-.056c-.066-.082-.127-.163-.184-.244l-.013-.018-.033-.048c-.061-.09-.115-.174-.165-.257l-.03-.048c-.059-.1-.113-.199-.161-.298l-.031-.065c-.029-.061-.066-.142-.1-.224l-.03-.076c-.028-.073-.049-.13-.068-.185,.262,.02,.521,.033,.78,.046,.097,.005,.196,.012,.293,.016,.375,.014,.747,.023,1.114,.023,.031,0,.062-.001,.093-.001,.066,0,.13-.002,.195-.003,.336-.003,.668-.013,.997-.027,.082-.004,.165-.007,.247-.011,.373-.02,.742-.045,1.104-.078,.058-.005,.115-.012,.172-.017,.321-.031,.638-.066,.95-.106,.073-.009,.146-.018,.218-.028,.35-.047,.695-.1,1.033-.157,.056-.009,.11-.02,.165-.03,.297-.052,.588-.108,.875-.167,.068-.014,.136-.027,.203-.042,.322-.069,.638-.141,.947-.217,.054-.013,.107-.027,.161-.041,.268-.067,.53-.137,.788-.209,.063-.018,.127-.035,.19-.053,.29-.083,.574-.168,.851-.256,.054-.017,.106-.035,.16-.052,.235-.076,.464-.152,.688-.23,.06-.021,.121-.042,.181-.063,.255-.09,.503-.182,.744-.274,.054-.021,.106-.041,.159-.062,.199-.078,.393-.155,.582-.233,.056-.023,.113-.046,.168-.069,.218-.091,.428-.182,.631-.272,.053-.024,.103-.047,.155-.07,.163-.074,.32-.146,.473-.218,.051-.024,.102-.048,.151-.071,.075-.036,.148-.072,.22-.107-.016,.16-.03,.327-.047,.482-.155,1.416-.345,2.598-.565,3.515Zm-2.993-30.403c.035,0,.068,.003,.1,.008,.515,.084,1.595,1.237,2.49,4.941l-.019,.018c-.087,.083-.183,.173-.285,.266-.028,.026-.058,.053-.087,.079-.084,.076-.173,.156-.265,.238-.032,.028-.063,.056-.096,.085-.119,.104-.244,.211-.376,.322-.036,.03-.074,.061-.11,.091-.107,.089-.218,.179-.333,.271-.045,.036-.089,.071-.135,.108-.149,.118-.304,.237-.466,.358-.039,.029-.081,.059-.12,.089-.133,.099-.27,.198-.411,.298-.056,.04-.112,.079-.169,.119-.179,.125-.362,.25-.552,.375-.036,.024-.074,.047-.11,.071-.163,.106-.331,.212-.503,.318-.064,.04-.129,.079-.194,.118-.203,.122-.409,.243-.622,.363l-.07,.039c-.207,.115-.42,.228-.637,.34-.07,.036-.14,.072-.211,.107-.206,.103-.416,.205-.63,.304-.036,.017-.071,.034-.108,.051-.244,.111-.494,.217-.747,.32-.073,.03-.147,.059-.221,.088-.217,.086-.438,.168-.662,.247-.053,.019-.104,.038-.157,.057-.267,.092-.54,.178-.817,.259-.073,.021-.147,.041-.221,.062-.151,.042-.305,.08-.458,.119,3.282-7.692,6.054-10.529,7.202-10.529Zm3.838,23.238l-.043,.025-.07,.039c-.281,.157-.619,.338-1.01,.533l-.117,.058c-.194,.096-.4,.195-.618,.296-.035,.016-.073,.033-.109,.05-.208,.096-.427,.193-.656,.291-.032,.014-.063,.028-.096,.042-.246,.104-.506,.21-.774,.314-.057,.022-.114,.044-.172,.066-.278,.107-.564,.213-.864,.318l-.067,.023c-.287,.099-.585,.197-.89,.292-.056,.017-.111,.035-.167,.052-.32,.098-.651,.192-.99,.283-.059,.016-.119,.031-.179,.046-.347,.091-.702,.178-1.067,.259l-.025,.006c-.37,.081-.752,.155-1.141,.224-.069,.012-.137,.024-.207,.036-.388,.066-.783,.126-1.187,.176-.045,.006-.091,.01-.137,.016-.387,.047-.781,.086-1.182,.117-.05,.004-.099,.009-.15,.012-.419,.03-.846,.049-1.278,.059-.08,.002-.16,.003-.24,.004-.443,.006-.89,.005-1.346-.012l-.045-.002c-.387-.015-.783-.046-1.179-.079,.179-1.206,.482-2.662,.885-4.255,.378-.042,.751-.087,1.116-.137,.075-.01,.147-.022,.221-.033,.363-.051,.721-.105,1.071-.163,.145-.024,.287-.05,.43-.075,.28-.049,.556-.1,.828-.154,.142-.028,.284-.056,.424-.085,.291-.06,.575-.123,.856-.187,.102-.023,.206-.046,.307-.07,.371-.088,.733-.18,1.086-.275,.096-.026,.187-.053,.281-.079,.262-.072,.519-.146,.771-.222,.121-.036,.24-.073,.36-.111,.225-.07,.445-.141,.662-.213,.111-.037,.223-.074,.332-.111,.254-.087,.502-.176,.744-.266,.058-.021,.119-.042,.176-.064,.294-.111,.579-.223,.856-.336,.087-.036,.17-.071,.255-.107,.192-.081,.382-.161,.565-.243,.095-.042,.189-.084,.283-.127,.175-.08,.346-.159,.514-.239,.08-.038,.161-.076,.239-.114,.234-.114,.463-.229,.681-.343l.052-.028c.206-.108,.403-.215,.595-.322,.07-.039,.136-.077,.203-.115,.137-.078,.27-.155,.399-.231,.068-.04,.135-.08,.201-.12,.13-.079,.255-.156,.377-.233,.051-.032,.103-.064,.152-.096,.059-.038,.114-.074,.171-.111,.035,1.947,.005,3.878-.088,5.72Zm-11.373-9.879c.216-.043,.43-.089,.642-.138,.099-.023,.198-.046,.296-.07,.241-.06,.479-.124,.715-.191,.055-.016,.112-.03,.166-.046,.286-.084,.567-.174,.844-.268,.081-.027,.159-.056,.239-.085,.2-.071,.399-.143,.594-.218,.092-.035,.183-.071,.273-.107,.194-.078,.386-.157,.575-.239,.072-.031,.145-.061,.217-.093,.253-.112,.501-.227,.745-.345,.053-.026,.103-.052,.156-.078,.193-.095,.384-.192,.57-.291,.08-.042,.158-.084,.236-.127,.162-.088,.322-.176,.479-.266,.072-.041,.144-.081,.215-.123,.206-.12,.408-.241,.605-.363l.04-.024c.209-.13,.41-.26,.608-.39,.065-.043,.128-.085,.191-.128,.135-.091,.268-.182,.397-.272,.065-.046,.13-.091,.194-.136,.137-.098,.271-.195,.401-.291,.044-.032,.089-.065,.132-.097,.166-.125,.327-.248,.481-.369,.053-.042,.104-.083,.156-.124,.103-.082,.203-.163,.301-.243,.061-.05,.119-.098,.178-.147,.025-.021,.052-.043,.077-.064,.291,1.877,.503,3.993,.626,6.262l-.012,.009c-.103,.081-.215,.168-.34,.261l-.029,.021c-.119,.089-.25,.183-.389,.281l-.067,.047c-.15,.104-.311,.213-.483,.325l-.079,.051c-.169,.109-.347,.221-.537,.336l-.045,.028c-.199,.12-.413,.243-.635,.368-.041,.023-.083,.046-.124,.069-.457,.253-.962,.512-1.515,.773-.052,.025-.105,.049-.158,.074-.277,.128-.564,.256-.864,.383-.039,.016-.079,.033-.118,.049-.278,.116-.567,.232-.866,.346-.055,.021-.108,.042-.163,.063-.325,.122-.662,.242-1.01,.36-.069,.023-.141,.047-.211,.07-.335,.111-.678,.219-1.034,.324-.035,.01-.068,.021-.103,.031-.378,.11-.771,.216-1.172,.318-.091,.023-.184,.046-.276,.069-.409,.101-.828,.199-1.262,.29-.038,.008-.078,.015-.116,.023-.404,.084-.822,.162-1.248,.236-.104,.018-.207,.036-.312,.054-.373,.062-.759,.117-1.148,.17,.603-2.033,1.32-4.138,2.108-6.21,.19-.029,.38-.06,.568-.094,.099-.018,.197-.038,.295-.058Z" fill="#390075"/><path d="M146.657,77.493s-.952-21.946-9.609-23.249c-8.658-1.302-19.773,27.556-20.391,34.804,0,0,13.114,2.887,30.001-11.555Z" fill="#fff"/><path d="M147.209,77.469c.775-1.51,.856-2.996,.78-4.464-.061-1.471-.34-2.919-.669-4.357-.334-1.436-.636-2.882-1.028-4.32-.392-1.437-.856-2.868-1.451-4.28-.598-1.408-1.32-2.806-2.325-4.111-.994-1.29-2.402-2.516-4.208-3.099l-.687-.162c-.116-.025-.228-.052-.346-.073l-.383-.039c-.256-.031-.508-.01-.762-.01-.245,.028-.501,.042-.735,.095-.96,.183-1.8,.56-2.536,.998-1.464,.892-2.592,2.004-3.611,3.15-2.02,2.31-3.594,4.822-5.04,7.38-1.434,2.564-2.704,5.194-3.866,7.866-1.16,2.673-2.213,5.386-3.147,8.154-.234,.692-.457,1.388-.675,2.088-.214,.701-.493,1.385-.72,2.092-.23,.705-.363,1.444-.376,2.214,.003,.766,.134,1.594,.682,2.41,.217,.324,.656,.41,.979,.193,.027-.018,.052-.037,.075-.058l.045-.041c.681-.612,1.063-1.198,1.366-1.833,.286-.633,.5-1.285,.642-1.964,.147-.678,.27-1.37,.477-2.039,.202-.671,.42-1.338,.644-2.005,.899-2.666,1.922-5.303,3.045-7.89,1.125-2.586,2.352-5.126,3.717-7.567,1.369-2.429,2.871-4.797,4.633-6.807,.877-.996,1.836-1.902,2.83-2.501,.494-.295,.989-.497,1.439-.583,.114-.031,.22-.025,.33-.045,.104,.009,.212-.013,.312,.007l.152,.013,.178,.044c.12,.029,.24,.055,.361,.079,.933,.311,1.827,1.002,2.574,1.973,.747,.968,1.365,2.133,1.883,3.361,.519,1.231,.944,2.532,1.306,3.86,.36,1.329,.674,2.685,.858,4.069,.189,1.383,.331,2.771,.614,4.147,.258,1.38,.613,2.749,1.538,4.103l.014,.021c.198,.289,.593,.364,.883,.166,.089-.061,.16-.144,.207-.234Z" fill="#390075"/><g><path d="M139.428,74.512s.313-10.733-3.437-11.084c-3.75-.351-9.581,14.174-10.093,17.75,0,0,5.65,.98,13.53-6.666Z" fill="#fe6dcb"/><path d="M136.145,61.778c-1.559-.147-4.072,.557-7.901,8.319-1.923,3.897-3.673,8.661-3.987,10.845-.127,.887,.474,1.714,1.357,1.867,.055,.01,.373,.06,.917,.06,2.069,0,7.409-.726,14.049-7.169,.31-.301,.489-.709,.502-1.141,.084-2.882-.023-12.322-4.938-12.782Zm-8.105,17.636c.62-2.001,1.724-4.856,3.006-7.505,2.617-5.406,4.402-6.777,4.821-6.831,.913,.088,1.945,4.053,1.916,8.712-4.284,4.005-7.749,5.252-9.743,5.624Z" fill="#390075"/></g><path d="M192.948,85.042s7.875-20.507,16.498-18.991c8.623,1.516,9.994,32.41,8.277,39.479,0,0-13.352-1.429-24.775-20.488Z" fill="#fff"/><path d="M193.464,85.24c1.308-.989,2.079-2.175,2.762-3.401,.706-1.214,1.281-2.486,1.9-3.737,.614-1.253,1.343-2.439,2.106-3.585,.765-1.144,1.581-2.243,2.465-3.245,.882-.999,1.838-1.907,2.854-2.588,1.017-.684,2.083-1.055,3.067-1.053,.122,.016,.244,.029,.367,.04l.183,.015,.148,.036c.101,.014,.197,.068,.298,.093,.098,.054,.2,.082,.298,.148,.399,.224,.805,.573,1.179,1.01,.752,.884,1.374,2.048,1.888,3.27,1.032,2.465,1.704,5.188,2.231,7.926,.519,2.748,.876,5.546,1.121,8.356,.243,2.81,.375,5.635,.38,8.449,0,.703-.004,1.406-.026,2.106-.017,.7-.12,1.395-.196,2.085-.081,.689-.086,1.375-.015,2.066,.085,.699,.261,1.376,.713,2.172l.028,.05c.192,.339,.623,.458,.962,.266,.028-.016,.058-.036,.083-.055,.778-.6,1.166-1.343,1.412-2.069,.231-.734,.341-1.477,.346-2.219,.009-.742-.038-1.479-.018-2.212,.016-.733,.026-1.464,.023-2.194-.006-2.92-.142-5.828-.393-8.731-.253-2.902-.621-5.799-1.167-8.686-.559-2.885-1.253-5.767-2.434-8.599-.602-1.411-1.318-2.823-2.423-4.134-.558-.649-1.235-1.273-2.087-1.752-.206-.125-.444-.219-.667-.324-.241-.081-.473-.18-.726-.233l-.375-.085c-.119-.018-.234-.028-.352-.041l-.703-.065c-1.897-.021-3.622,.695-4.975,1.602-1.368,.918-2.496,2.015-3.511,3.16-1.012,1.149-1.907,2.359-2.735,3.597-.829,1.238-1.574,2.514-2.348,3.77-.769,1.258-1.494,2.543-2.018,3.918-.538,1.367-.933,2.802-.678,4.48,.053,.347,.377,.585,.723,.532,.107-.016,.204-.059,.286-.12l.022-.017Z" fill="#390075"/><g><path d="M200.375,84.728s3.533-10.408,7.546-9.584c4.013,.825,4.835,16.585,4.08,20.179,0,0-6.208-.809-11.626-10.595Z" fill="#fe6dcb"/><path d="M210.907,75.532c-.737-1.123-1.63-1.799-2.653-2.01-5.187-1.061-8.779,8.705-9.448,10.674-.15,.442-.107,.926,.119,1.335,5.757,10.398,12.573,11.398,12.861,11.436,.072,.009,.145,.014,.216,.014,.773,0,1.456-.541,1.62-1.316,.717-3.415,.211-15.67-2.715-20.132Zm-.34,17.564c-1.924-.906-5.243-3.145-8.377-8.527,1.444-3.907,3.838-7.816,5.254-7.816,.049,0,.097,.005,.144,.014,.323,.073,1.698,1.594,2.525,7.689,.419,3.09,.547,6.441,.455,8.64Z" fill="#390075"/></g><path d="M208.144,120.54c2.279-.626,4.523-1.121,6.784-1.502,2.256-.382,4.512-.682,6.782-.814,2.266-.133,4.543-.212,6.829-.098,1.148,.008,2.29,.113,3.448,.183,.585,.003,1.154,.104,1.737,.148,.582,.053,1.168,.102,1.766,.125-.536-.246-1.084-.467-1.636-.685-.553-.213-1.107-.436-1.679-.588-1.143-.305-2.291-.647-3.471-.804-2.347-.425-4.752-.492-7.134-.347-2.386,.141-4.748,.602-7.024,1.302-2.265,.72-4.484,1.668-6.401,3.079Z" fill="#390075"/><path d="M207.796,126.49c2.363-.004,4.659,.11,6.94,.338,2.277,.225,4.533,.531,6.757,1.002,2.221,.469,4.438,.992,6.614,1.704,1.106,.31,2.18,.712,3.278,1.085,.564,.157,1.086,.404,1.637,.6,.547,.204,1.1,.406,1.67,.586-.453-.379-.923-.736-1.398-1.092-.477-.351-.954-.712-1.465-1.01-1.022-.595-2.04-1.227-3.137-1.69-2.152-1.028-4.455-1.726-6.791-2.214-2.339-.492-4.739-.67-7.119-.594-2.375,.098-4.765,.428-6.986,1.284Z" fill="#390075"/><path d="M205.868,133.887c2.306,.519,4.519,1.137,6.694,1.864,2.17,.723,4.303,1.52,6.368,2.471,2.063,.948,4.109,1.949,6.073,3.124,1.01,.547,1.968,1.176,2.957,1.783,.515,.278,.97,.634,1.464,.947,.489,.32,.983,.639,1.499,.941-.358-.47-.737-.922-1.122-1.374-.388-.448-.773-.905-1.205-1.308-.865-.806-1.718-1.648-2.686-2.341-1.871-1.479-3.963-2.669-6.133-3.661-2.172-.997-4.474-1.701-6.812-2.153-2.338-.43-4.741-.636-7.097-.292Z" fill="#390075"/><path d="M133.501,115.073c-1.538-1.817-3.477-3.253-5.514-4.478-2.052-1.208-4.244-2.204-6.532-2.894-2.284-.693-4.639-1.185-7.021-1.315-1.184-.121-2.381-.054-3.563-.022-.591,.016-1.182,.104-1.769,.183-.587,.084-1.171,.172-1.75,.287,.587,.115,1.168,.203,1.746,.287,.578,.092,1.154,.126,1.725,.258,1.143,.2,2.278,.362,3.397,.621,2.25,.419,4.447,1.023,6.621,1.677,2.178,.654,4.304,1.468,6.409,2.362,2.111,.894,4.18,1.896,6.252,3.033Z" fill="#390075"/><path d="M132.462,120.942c-1.963-1.348-4.211-2.222-6.499-2.867-2.298-.625-4.674-1.008-7.063-1.071-2.386-.067-4.787,.079-7.119,.581-1.174,.196-2.311,.575-3.443,.917-.566,.171-1.113,.412-1.659,.643-.545,.235-1.085,.474-1.613,.738,.596-.043,1.18-.112,1.76-.183,.582-.064,1.147-.183,1.732-.205,1.155-.108,2.293-.251,3.44-.296,2.281-.188,4.559-.185,6.829-.126,2.273,.057,4.538,.282,6.805,.591,2.272,.307,4.531,.728,6.83,1.279Z" fill="#390075"/><path d="M132.624,128.584c-2.212-.88-4.598-1.236-6.972-1.36-2.379-.102-4.781,.05-7.125,.517-2.341,.462-4.652,1.136-6.815,2.141-1.102,.45-2.127,1.072-3.155,1.656-.514,.292-.995,.648-1.475,.994-.479,.35-.953,.702-1.41,1.076,.572-.174,1.127-.37,1.676-.568,.553-.191,1.078-.432,1.643-.583,1.103-.361,2.181-.752,3.29-1.049,2.183-.688,4.405-1.188,6.632-1.632,2.229-.447,4.489-.728,6.767-.928,2.284-.203,4.58-.292,6.943-.263Z" fill="#390075"/><g><g opacity=".2"><path d="M159.377,130.226c2.264,3.81,5.034,5.287,7.707,5.569,5.285,.562,10.205-3.534,10.205-3.534,3.085,4.042,6.057,5.826,8.674,6.378,4.34,.915,7.724-1.55,9.088-2.783-10.766,.109-14.93-6.186-14.93-6.186l-4.736-.757c-5.801,6.369-15.707,1.462-16.008,1.314Z" fill="#390075"/></g><path d="M167.084,135.795c.373,2.465,1.149,5.329,2.314,7.721,1.291,2.671,3.056,4.771,5.272,5.125,2.232,.357,4.587-1.097,6.657-3.251,1.871-1.948,3.517-4.47,4.636-6.751-2.618-.552-5.589-2.336-8.674-6.378,0,0-4.92,4.096-10.205,3.534Z" fill="#390075"/><g><path d="M169.398,143.516c1.291,2.671,3.056,4.771,5.272,5.125,2.232,.357,4.587-1.097,6.657-3.251-.495-2.46-2.567-4.497-5.323-4.937-2.765-.442-5.383,.861-6.607,3.063Z" fill="#fb64c0"/><path d="M174.639,148.833c-2.047-.328-3.92-2.137-5.416-5.233l-.044-.091,.049-.088c1.297-2.333,4.032-3.602,6.807-3.16,2.755,.441,4.959,2.486,5.483,5.091l.02,.1-.071,.073c-1.995,2.075-3.964,3.215-5.76,3.35-.363,.027-.72,.013-1.068-.042Zm1.335-8.188c-2.579-.414-5.12,.742-6.357,2.878,1.009,2.058,2.698,4.545,5.083,4.926,2.414,.387,4.808-1.465,6.416-3.12-.528-2.399-2.582-4.276-5.142-4.685Z" fill="#390075"/></g><g><path d="M183.626,125.509c-.841-1.577-8.533-3.079-10.114-1.617-1.581,1.462,1.569,6.195,4.13,6.604,2.561,.41,6.917-3.238,5.984-4.987Z" fill="#390075"/><path d="M177.385,132.103c-2.503-.4-4.968-3.256-5.699-5.672-.631-2.086,.181-3.234,.72-3.733,1.416-1.31,4.366-1.137,6.591-.762,1.874,.317,5.154,1.102,6.064,2.807h0c.333,.626,.703,1.942-.57,3.725-1.272,1.783-3.792,3.502-6.069,3.673-.354,.027-.702,.016-1.038-.038Zm-2.672-7.045c.018,.293,.201,.943,.762,1.777,.817,1.213,1.859,1.965,2.424,2.055,.512,.08,1.609-.267,2.709-1.094,.816-.613,1.284-1.227,1.451-1.568-1.354-.887-6.058-1.648-7.346-1.17Zm-.146,.068h0Z" fill="#390075"/><g><path d="M174.3,123.974c-.098,.615,1.702,1.414,4.021,1.785,2.319,.371,4.279,.173,4.377-.442,.098-.615-1.702-1.414-4.021-1.785s-4.279-.173-4.377,.442Z" fill="#fff"/><path d="M178.288,125.967c-2.19-.35-4.334-1.159-4.196-2.026h0c.066-.412,.585-.67,1.543-.767,.844-.086,1.937-.033,3.076,.15,1.139,.182,2.193,.472,2.969,.816,.88,.39,1.292,.798,1.226,1.21-.074,.466-.768,.71-1.734,.782-.834,.063-1.87-.003-2.885-.166Zm-2.611-2.374c-.886,.09-1.152,.31-1.169,.415-.05,.316,1.227,1.125,3.847,1.544,2.622,.418,4.086,.048,4.136-.268,.017-.104-.167-.397-.982-.758-.743-.33-1.761-.609-2.865-.786-1.027-.164-2.011-.221-2.795-.162-.059,.004-.116,.01-.172,.015Z" fill="#390075"/></g></g><path d="M188.645,140.307c3.515-.264,6.161-2.226,7.34-3.274,.025-.02,.05-.041,.074-.063,.482-.434,.755-.743,.785-.777,.545-.624,.481-1.571-.143-2.115-.622-.544-1.566-.481-2.112,.139h0s-.168,.189-.473,.468c-.023,.018-.046,.038-.068,.058-1.098,.992-4.053,3.213-7.775,2.428-2.648-.558-5.269-2.516-7.792-5.821-.248-.324-.617-.534-1.024-.58-.405-.047-.812,.075-1.127,.337-.042,.035-4.513,3.679-9.088,3.196-2.619-.276-4.831-1.906-6.577-4.844-.01-.016-.02-.032-.03-.048l-.019-.029c-.144-.247-.287-.505-.428-.771-.388-.731-1.293-1.01-2.027-.621-.731,.388-1.009,1.296-.621,2.027,.177,.334,.356,.655,.537,.963,.019,.033,.039,.064,.061,.095,2.249,3.744,5.206,5.833,8.79,6.211,4.238,.451,8.164-1.69,10.088-2.973,2.711,3.208,5.613,5.155,8.639,5.793,1.051,.222,2.052,.272,2.991,.202Z" fill="#390075"/><path d="M174.433,150.121c-2.487-.398-4.695-2.456-6.383-5.949-1.12-2.301-2.013-5.273-2.448-8.153-.069-.459,.078-.925,.399-1.26,.321-.336,.78-.503,1.242-.454,4.575,.483,9.045-3.161,9.088-3.196,.315-.262,.723-.384,1.127-.337,.406,.046,.776,.255,1.024,.58,2.522,3.305,5.144,5.263,7.792,5.821,.453,.096,.836,.395,1.038,.81,.203,.416,.202,.902-.002,1.317-1.292,2.633-3.078,5.232-4.901,7.13-2.224,2.314-4.481,3.588-6.607,3.747-.463,.035-.92,.017-1.368-.055Zm2.582-15.808c-1.609,1.072-4.616,2.744-8.036,3-.03,.002-.06,.004-.09,.006,.436,2.006,1.087,3.959,1.858,5.544,1.227,2.539,2.704,4.065,4.159,4.297,1.476,.236,3.373-.762,5.34-2.809,1.258-1.31,2.502-3.008,3.54-4.813-2.355-.934-4.622-2.684-6.771-5.226Z" fill="#390075"/></g><g><g><ellipse cx="198.531" cy="115.38" rx="9.49" ry="6.689" transform="translate(64.938 302.141) rotate(-84.587)" fill="#390075"/><path d="M197.618,125.017c-3.776-.358-6.439-4.973-5.936-10.287h0c.243-2.562,1.177-4.907,2.629-6.602,1.468-1.714,3.291-2.561,5.134-2.387,3.776,.358,6.439,4.972,5.936,10.286-.47,4.959-3.534,8.801-7.01,9.003-.249,.014-.5,.01-.753-.013Zm-3.018-16.641c-1.401,1.636-2.303,3.905-2.538,6.39h0c-.483,5.105,2.025,9.533,5.592,9.871,3.575,.334,6.864-3.541,7.347-8.645,.483-5.105-2.025-9.533-5.592-9.871-.235-.023-.47-.027-.705-.013-1.473,.085-2.908,.873-4.104,2.268Z" fill="#390075"/></g><g><ellipse cx="202.534" cy="114.426" rx="3.187" ry="2.021" transform="translate(69.513 305.262) rotate(-84.587)" fill="#fff"/><path d="M202.216,117.788c-1.214-.115-2.058-1.717-1.883-3.571,.084-.883,.382-1.695,.841-2.287,.479-.617,1.077-.925,1.679-.867,.605,.057,1.133,.472,1.487,1.167,.34,.667,.48,1.521,.397,2.404-.165,1.74-1.171,3.092-2.298,3.158-.074,.004-.148,.003-.223-.004Zm-.741-5.624c-.415,.535-.686,1.277-.763,2.089h0c-.156,1.644,.534,3.06,1.539,3.155,1.009,.103,1.949-1.166,2.105-2.81,.077-.812-.05-1.591-.357-2.195-.293-.575-.713-.916-1.183-.96-.057-.005-.114-.007-.17-.003-.414,.024-.824,.276-1.172,.725Z" fill="#390075"/></g></g><g><g><ellipse cx="156.869" cy="110.7" rx="9.49" ry="6.689" transform="translate(23.651 248.958) rotate(-81.273)" fill="#390075"/><path d="M155.4,120.269c-3.749-.576-6.141-5.337-5.331-10.613h0c.391-2.544,1.458-4.831,3.006-6.439,1.565-1.626,3.434-2.367,5.263-2.086,3.749,.576,6.141,5.336,5.331,10.612-.756,4.923-4.036,8.582-7.518,8.582-.249,0-.5-.019-.751-.057Zm-2.051-16.787c-1.494,1.552-2.525,3.765-2.903,6.233h0c-.778,5.068,1.471,9.634,5.012,10.178,3.55,.54,7.057-3.138,7.834-8.206,.778-5.068-1.471-9.634-5.012-10.178-.234-.036-.468-.054-.703-.054-1.475,0-2.954,.704-4.228,2.027Z" fill="#390075"/></g><g><ellipse cx="160.589" cy="110.093" rx="3.187" ry="2.021" transform="translate(27.406 252.12) rotate(-81.273)" fill="#fff"/><path d="M160.076,113.432c-1.205-.185-1.956-1.833-1.673-3.674,.135-.877,.479-1.67,.972-2.234,.513-.588,1.128-.861,1.727-.769,.601,.092,1.104,.536,1.417,1.251,.301,.686,.392,1.546,.257,2.423-.265,1.727-1.348,3.02-2.476,3.02-.074,0-.148-.005-.222-.017Zm-.414-5.657c-.446,.51-.759,1.235-.882,2.041h0c-.251,1.633,.357,3.086,1.354,3.239,1.001,.161,2.013-1.052,2.264-2.684,.124-.806,.042-1.592-.229-2.212-.259-.591-.659-.956-1.126-1.027-.056-.009-.113-.013-.17-.013-.414,0-.839,.228-1.212,.656Z" fill="#390075"/></g></g></g></svg>