<?xml version="1.0" encoding="UTF-8"?><svg id="a" xmlns="http://www.w3.org/2000/svg" viewBox="0 0 256 256"><g><path d="M159.94,181.023c7.776,1.144,15.952,4.69,23.626,8.033,12.856,5.609,24.286,10.659,30.006,2.923,7.974-10.78-11.481-21.878-25.155-28.016-6.716-3.02-12.037-4.839-12.037-4.839l-16.441,21.899Z" fill="#fff"/><g opacity=".2"><path d="M159.94,181.023l16.441-21.899s5.321,1.819,12.037,4.839c1.249,5.521,2.43,13.526,.736,19.642,12.392,4.824,25.907,7.312,26.12-1.248,1.226,3.061,1.075,6.178-1.164,9.201-5.731,7.747-17.197,2.665-30.081-2.953l-.463,.451c-7.675-3.343-15.85-6.89-23.626-8.033Z" fill="#390075"/></g><path d="M208.142,197.313c2.642-.53,4.935-1.876,6.763-4.347,2.14-2.893,2.713-6.006,1.701-9.25-4.342-13.927-38.248-25.665-39.689-26.157-.866-.297-1.807,.166-2.103,1.031-.296,.866,.165,1.808,1.031,2.104,9.376,3.208,34.409,13.776,37.598,24.01,.689,2.21,.295,4.268-1.202,6.293-4.9,6.625-15.502,2.002-27.777-3.352-7.969-3.476-16.21-7.07-24.283-8.257-.905-.132-1.747,.493-1.88,1.398-.133,.905,.493,1.747,1.398,1.88,7.635,1.123,15.67,4.627,23.44,8.017,9.332,4.07,18.293,7.978,25.002,6.633Z" fill="#390075"/></g><g><path d="M6.591,119.828c.425,2.043,1.014,4.134,1.779,6.225,3.493,9.588,10.568,19.222,21.417,24.26,3.429,1.592,7.054,2.474,10.689,2.741,1.016,.081,2.034,.112,3.047,.092-.373-2.936-1.772-7.176-6.397-10.304-6.863-4.641-22.726,.491-30.536-23.014Z" fill="#33aef1"/><g opacity=".6"><path d="M7.471,119.353c.425,2.043,1.014,4.134,1.779,6.225,4.097,6.575,10.301,15.122,15.758,16.885,8.622,2.781,12.026,2.12,16.348,10.116,1.016,.081,2.034,.112,3.047,.092-.373-2.936-1.772-7.176-6.397-10.304-6.863-4.641-22.726,.491-30.536-23.014Z" fill="#fff"/></g><path d="M6.578,119.795c.009,.008,.009,.021,.014,.033,7.81,23.504,23.673,18.373,30.536,23.014,4.625,3.129,6.024,7.368,6.397,10.304,1.503-.018,2.998-.141,4.469-.363,1.017-.145,2.029-.336,3.022-.573,.034-4.884-1.013-12.321-7.034-16.184-9.458-6.066-15.577-1.854-25.301-8.272-4.443-2.933-9.726-11.238-10.239-25.789-.578,.797-1.06,1.721-1.45,2.755-1.461,3.869-1.617,9.267-.412,15.075Z" fill="#fdd800"/><g opacity=".6"><path d="M6.99,104.72c.429,7.499,2.02,20.245,7.816,24.245,8.39,5.79,12.793,5.727,20.327,7.202,6.72,1.316,11.774,7.011,12.86,16.616,1.017-.145,2.029-.336,3.022-.573,.034-4.884-1.013-12.321-7.034-16.184-9.458-6.066-15.577-1.854-25.301-8.272-4.443-2.933-9.726-11.238-10.239-25.789-.578,.797-1.06,1.721-1.45,2.755Z" fill="#fff"/></g><path d="M8.44,101.965c.513,14.552,5.796,22.856,10.239,25.789,9.725,6.418,15.843,2.205,25.301,8.272,6.022,3.863,7.069,11.301,7.034,16.184,1.318-.31,2.612-.685,3.875-1.136,1.404-.492,2.764-1.067,4.07-1.715,.962-4.557,1.741-12.517-2.669-18.097-6.512-8.245-28.247-6.089-36.729-13.459-6.221-5.406-7.934-12.433-8.237-18.328-.619,.3-1.184,.686-1.697,1.155-.436,.391-.828,.834-1.189,1.336Z" fill="#b177ea"/><g opacity=".6"><path d="M10.062,100.168c1.071,8.337,4.24,18.298,10.146,22.346,14.644,10.036,39.852,.382,35.115,28.099,1.404-.492,2.764-1.067,4.07-1.715,.962-4.557,1.741-12.517-2.669-18.097-6.512-8.245-28.247-6.089-36.729-13.459-6.221-5.406-7.934-12.433-8.237-18.328-.619,.3-1.184,.686-1.697,1.155Z" fill="#fff"/></g><path d="M11.326,99.475c.303,5.895,2.016,12.921,8.237,18.328,8.482,7.37,30.217,5.215,36.729,13.459,4.409,5.581,3.63,13.54,2.669,18.097,2.849-1.417,5.444-3.187,7.649-5.224,.81-.746,1.568-1.528,2.263-2.341,.2-6.392-.223-19.146-10.743-24.09-13.754-6.467-36.494,5.929-44.433-18.878-.498,.012-1.031,.116-1.619,.327-.199,.073-.405,.155-.616,.254-.046,.018-.091,.045-.136,.067Z" fill="#fe6dcb"/><g opacity=".6"><path d="M12.944,98.231c1.289,4.222,3.053,8.253,6.019,11.468,3.855,4.183,9.355,6.522,14.909,7.762,5.554,1.236,11.269,1.495,16.916,2.213,1.526,.195,3.062,.423,4.518,.913,4.74,1.588,8.252,5.803,10.078,10.456,1.28,3.263,1.829,6.751,2.09,10.231,.037,.514,.009,1.206,.003,1.939,.81-.746,1.568-1.528,2.263-2.341,.2-6.392-.223-19.146-10.743-24.09-13.754-6.467-36.494,5.929-44.433-18.878-.498,.012-1.031,.116-1.619,.327Z" fill="#fff"/></g><path d="M58.835,116.205c-4.958-2.332-10.942-2.374-16.728-2.415-11.279-.08-21.932-.155-26.833-15.47-.224-.699-.881-1.168-1.616-1.151l-.05,.002c-.885,.028-1.807,.265-2.816,.722-.072,.031-.148,.068-.22,.106-1.342,.654-2.512,1.662-3.476,2.994h0c-2.975,4.115-3.775,11.27-2.138,19.138,.007,.036,.016,.071,.026,.106,2.293,10.932,9.822,24.944,24.106,31.577,4.454,2.068,9.32,3.072,14.461,2.986,.207-.002,.416-.007,.624-.014,2.394-.076,4.821-.399,7.219-.963,2.879-.671,5.674-1.674,8.303-2.978,4.117-2.05,7.724-4.806,10.433-7.974,.245-.286,.385-.648,.397-1.024,.414-13.173-3.519-21.8-11.692-25.642Zm2.033,29.64c.058-.563,.103-1.147,.133-1.747,.003-.058,.006-.115,.008-.173,.013-.291,.022-.586,.026-.884,0-.055,0-.11,.001-.165,.003-.291,.002-.585-.004-.881v-.074c-.008-.309-.022-.62-.041-.933-.004-.065-.008-.13-.012-.196-.02-.31-.046-.622-.078-.935-.005-.05-.011-.1-.017-.15-.032-.296-.07-.593-.114-.89-.006-.041-.011-.083-.018-.124-.048-.316-.105-.632-.168-.948-.013-.066-.026-.131-.04-.197-.066-.318-.138-.635-.22-.951-.01-.037-.021-.074-.031-.112-.079-.299-.166-.596-.26-.893-.016-.049-.03-.098-.046-.147-.101-.31-.213-.619-.332-.925-.024-.062-.049-.124-.074-.186-.125-.312-.257-.622-.402-.928-.009-.02-.02-.039-.03-.059-.14-.293-.292-.583-.451-.869-.03-.053-.058-.107-.088-.16-.166-.291-.343-.577-.53-.86-.037-.056-.075-.111-.113-.166-.198-.291-.404-.579-.625-.859-3.727-4.718-11.393-6.192-19.511-7.753-6.702-1.289-13.632-2.621-17.391-5.887-.297-.258-.584-.521-.863-.79-.099-.095-.192-.195-.289-.292-.176-.176-.353-.351-.522-.531-.112-.119-.217-.243-.325-.364-.147-.164-.295-.326-.436-.494-.11-.131-.214-.266-.321-.4-.131-.163-.263-.326-.389-.493-.106-.14-.205-.285-.307-.427-.118-.166-.238-.331-.351-.5-.1-.148-.194-.3-.29-.451-.108-.169-.216-.338-.319-.511-.092-.155-.18-.314-.268-.472-.098-.175-.196-.349-.29-.528-.085-.161-.165-.325-.246-.489-.089-.181-.178-.362-.262-.547-.077-.167-.149-.337-.222-.506-.08-.187-.16-.375-.235-.566-.068-.173-.134-.348-.199-.523-.072-.194-.142-.39-.209-.588-.06-.178-.118-.357-.174-.537-.063-.202-.125-.406-.183-.611-.052-.183-.102-.367-.151-.553-.055-.21-.107-.422-.157-.635-.044-.187-.087-.375-.127-.565-.047-.219-.09-.44-.132-.663-.036-.191-.071-.382-.103-.576-.038-.229-.073-.46-.106-.693-.028-.194-.055-.388-.08-.585-.024-.194-.044-.391-.065-.588,5.949,15.613,18.307,15.713,29.263,15.79,5.678,.04,11.042,.078,15.341,2.1,6.749,3.173,10.047,10.557,9.805,21.951-1.778,1.984-3.964,3.781-6.43,5.295,.018-.148,.035-.298,.051-.449,.006-.051,.011-.103,.016-.155Zm-2.533-2.113l-.002,.063c-.014,.319-.034,.633-.058,.942-.003,.033-.005,.067-.007,.101-.024,.298-.052,.59-.083,.877-.005,.042-.009,.084-.013,.125-.031,.279-.066,.552-.103,.819-.006,.044-.012,.088-.018,.132-.037,.261-.076,.515-.117,.761l-.022,.134c-.022,.128-.044,.248-.067,.371-1.775,.854-3.63,1.559-5.538,2.104-.012-.224-.026-.449-.043-.676l-.002-.025c-.024-.313-.055-.63-.089-.948-.005-.044-.009-.087-.014-.131-.035-.305-.075-.612-.121-.921-.008-.055-.016-.11-.025-.165-.047-.306-.1-.614-.158-.922-.01-.053-.021-.107-.031-.16-.062-.315-.129-.629-.204-.944-.009-.037-.019-.074-.028-.111-.08-.329-.166-.657-.262-.985l-.003-.012c-.096-.327-.202-.652-.314-.975-.014-.04-.027-.081-.041-.121-.109-.308-.227-.614-.352-.917-.021-.052-.043-.104-.065-.156-.126-.299-.261-.596-.404-.889-.024-.05-.05-.1-.075-.15-.149-.298-.305-.592-.472-.882-.02-.035-.042-.07-.062-.105-.178-.303-.363-.602-.562-.896l-.004-.006c-.198-.292-.41-.578-.631-.859-.027-.035-.053-.07-.081-.105-.213-.266-.438-.526-.672-.78-.04-.044-.08-.087-.121-.13-.235-.249-.48-.492-.737-.728-.044-.041-.089-.081-.134-.121-.265-.237-.539-.469-.827-.691-.036-.028-.074-.055-.111-.082-.307-.232-.623-.458-.957-.672-4.908-3.147-8.979-3.673-12.916-4.181-3.955-.51-7.69-.992-12.372-4.08-.128-.085-.258-.175-.388-.27-.053-.039-.107-.082-.16-.123-.077-.059-.154-.116-.232-.179-.06-.048-.12-.101-.181-.152-.071-.06-.143-.118-.214-.181-.064-.056-.128-.117-.192-.176-.068-.063-.137-.123-.205-.188-.064-.061-.129-.127-.193-.191-.069-.068-.137-.134-.206-.205-.064-.066-.129-.137-.193-.206-.068-.073-.137-.144-.205-.221-.066-.073-.131-.151-.197-.226-.067-.077-.134-.152-.201-.232-.067-.08-.133-.164-.2-.247-.065-.081-.131-.16-.196-.243-.067-.086-.133-.176-.2-.264-.065-.086-.13-.17-.194-.258-.065-.09-.13-.184-.195-.276-.065-.092-.13-.183-.195-.278-.065-.096-.13-.196-.195-.295-.063-.096-.127-.191-.19-.289-.065-.102-.129-.209-.194-.314-.062-.101-.124-.2-.186-.304-.064-.107-.126-.218-.189-.328-.061-.107-.123-.212-.183-.321-.062-.112-.123-.228-.185-.343-.06-.113-.121-.224-.181-.34-.061-.117-.12-.238-.18-.358-.059-.118-.118-.234-.176-.354-.06-.124-.118-.251-.177-.378-.057-.122-.114-.243-.17-.368-.058-.129-.114-.261-.171-.392-.055-.128-.111-.255-.166-.386-.056-.134-.11-.272-.165-.408-.054-.133-.108-.266-.16-.402-.054-.139-.106-.282-.159-.424-.052-.139-.103-.277-.154-.418-.052-.146-.102-.295-.153-.443-.049-.143-.098-.285-.146-.431-.05-.152-.098-.308-.147-.463-.046-.148-.093-.295-.138-.445-.048-.158-.093-.32-.14-.481-.044-.152-.088-.304-.13-.458-.045-.164-.088-.332-.132-.499-.041-.158-.082-.314-.122-.475-.042-.17-.082-.342-.123-.515-.038-.163-.077-.325-.114-.49-.039-.176-.076-.355-.114-.533-.035-.167-.07-.334-.104-.504-.036-.183-.071-.37-.105-.556-.032-.17-.063-.34-.093-.513-.033-.191-.064-.385-.096-.579-.028-.174-.056-.348-.083-.525-.03-.197-.057-.398-.085-.598-.025-.178-.049-.356-.072-.537-.026-.204-.05-.41-.074-.617-.021-.184-.043-.368-.062-.555-.022-.21-.042-.422-.062-.635-.017-.187-.035-.375-.051-.565-.018-.217-.034-.437-.05-.658-.014-.192-.027-.384-.039-.579-.011-.186-.021-.375-.03-.563,.134-.182,.274-.354,.417-.517,.022,.165,.047,.327,.071,.491,.037,.257,.078,.512,.121,.766,.034,.198,.069,.396,.106,.592,.048,.254,.1,.504,.154,.754,.041,.189,.081,.379,.125,.565,.06,.255,.126,.507,.192,.758,.046,.174,.09,.35,.139,.522,.077,.271,.161,.538,.246,.804,.046,.146,.09,.295,.138,.44,.124,.368,.255,.73,.393,1.088,.015,.039,.028,.08,.043,.119,.154,.395,.318,.783,.49,1.166,.056,.125,.118,.247,.176,.371,.12,.256,.241,.512,.369,.763,.074,.146,.153,.288,.23,.431,.12,.224,.241,.447,.367,.667,.086,.149,.175,.295,.264,.441,.127,.209,.255,.417,.388,.621,.095,.146,.192,.291,.29,.435,.136,.2,.274,.397,.416,.593,.102,.141,.205,.281,.311,.42,.147,.194,.299,.385,.453,.575,.107,.133,.214,.266,.324,.396,.163,.193,.333,.383,.502,.571,.108,.12,.214,.242,.325,.36,.192,.204,.39,.403,.59,.602,.097,.096,.19,.195,.288,.289,.302,.29,.611,.575,.93,.852,4.304,3.739,11.594,5.141,18.645,6.497,7.278,1.399,14.803,2.846,17.911,6.781,.234,.297,.451,.603,.654,.914,.012,.019,.026,.037,.038,.056,.193,.3,.371,.607,.537,.918,.017,.032,.036,.064,.053,.097,.159,.304,.304,.614,.44,.927,.018,.041,.037,.083,.054,.124,.13,.309,.248,.622,.356,.937,.016,.047,.032,.094,.048,.141,.104,.314,.199,.63,.283,.949,.013,.049,.026,.099,.039,.148,.082,.319,.155,.639,.219,.961,.01,.048,.019,.097,.028,.145,.062,.324,.116,.649,.161,.974,.006,.044,.011,.087,.017,.131,.044,.33,.08,.66,.108,.988,.003,.036,.005,.072,.008,.109,.027,.337,.048,.672,.06,1.006l.002,.066c.024,.695,.019,1.38-.009,2.047Zm-12.568-4.415c.1,.114,.193,.232,.289,.349,.13,.159,.26,.318,.381,.482,.092,.124,.178,.252,.265,.379,.112,.164,.224,.328,.328,.496,.082,.133,.16,.267,.238,.402,.097,.169,.192,.339,.283,.511,.072,.139,.142,.278,.21,.419,.084,.174,.165,.349,.242,.526,.063,.143,.124,.287,.182,.432,.072,.179,.14,.359,.206,.54,.053,.146,.106,.291,.155,.438,.061,.183,.118,.368,.173,.553,.044,.147,.089,.293,.129,.44,.051,.188,.098,.378,.144,.567,.035,.145,.072,.29,.104,.435,.043,.194,.08,.389,.117,.583,.027,.14,.056,.281,.08,.421,.036,.207,.065,.413,.095,.619,.018,.126,.04,.254,.056,.38,.032,.248,.058,.495,.082,.741,.008,.083,.02,.166,.027,.249,.029,.324,.053,.645,.071,.962,.007,.124,.01,.246,.015,.369,.003,.065,.005,.129,.008,.193-1.689,.344-3.382,.556-5.064,.639-.026-.116-.052-.232-.08-.35-.02-.081-.042-.163-.064-.244-.036-.138-.073-.276-.114-.416-.026-.088-.053-.176-.08-.265-.042-.137-.087-.274-.134-.413-.031-.091-.063-.182-.096-.274-.05-.14-.104-.28-.16-.421-.036-.091-.071-.181-.109-.272-.062-.148-.128-.297-.196-.446-.038-.084-.075-.169-.115-.253-.083-.175-.173-.35-.264-.525-.031-.059-.059-.118-.091-.178-.127-.234-.261-.469-.404-.703-.031-.051-.067-.102-.099-.153-.114-.182-.232-.364-.357-.546-.057-.083-.119-.165-.179-.248-.108-.15-.217-.299-.332-.447-.071-.091-.145-.182-.219-.272-.114-.14-.23-.279-.351-.418-.081-.093-.164-.185-.249-.277-.124-.136-.253-.271-.385-.405-.09-.091-.18-.182-.273-.272-.14-.136-.286-.27-.435-.404-.094-.085-.186-.17-.284-.254-.168-.145-.345-.287-.523-.429-.087-.07-.171-.14-.261-.209-.273-.209-.556-.414-.853-.615-2.123-1.437-4.932-2.016-7.905-2.63-1.837-.379-3.785-.782-5.758-1.417-.024-.008-.049-.015-.073-.023-.189-.061-.378-.127-.567-.193-.061-.021-.122-.041-.184-.062-.139-.049-.278-.103-.416-.155-.112-.042-.225-.082-.337-.126-.102-.04-.205-.084-.307-.126-.149-.06-.297-.119-.446-.183-.089-.038-.179-.081-.268-.121-.161-.072-.322-.142-.483-.218-.086-.04-.171-.085-.257-.127-.164-.08-.329-.159-.493-.244-.088-.046-.175-.096-.263-.143-.161-.087-.323-.172-.484-.263-.088-.05-.175-.105-.263-.157-.16-.095-.321-.188-.481-.288-.082-.051-.163-.108-.245-.161-.164-.106-.329-.211-.493-.324-.082-.057-.164-.119-.246-.177-.162-.115-.325-.229-.487-.351-.077-.058-.153-.122-.23-.182-.166-.129-.331-.256-.495-.392-.076-.063-.151-.132-.226-.196-.164-.14-.328-.278-.49-.426-.079-.071-.156-.149-.235-.223-.158-.148-.316-.294-.473-.45-.076-.076-.152-.159-.228-.237-.157-.161-.315-.32-.47-.489-.075-.082-.149-.17-.223-.254-.155-.174-.31-.345-.463-.528-.075-.089-.148-.186-.223-.277-.151-.185-.302-.368-.451-.563-.078-.101-.154-.211-.231-.315-.144-.193-.288-.384-.429-.585-.081-.116-.161-.24-.241-.359-.136-.2-.272-.397-.406-.605-.081-.127-.16-.263-.241-.392-.13-.211-.262-.418-.39-.637-.086-.146-.169-.302-.253-.452-.121-.214-.243-.424-.361-.647-.086-.161-.169-.332-.254-.497-.115-.223-.231-.442-.343-.673-.088-.18-.173-.371-.259-.556-.107-.228-.215-.451-.319-.687-.089-.199-.174-.41-.261-.615-.1-.234-.2-.463-.298-.704-.027-.066-.052-.137-.079-.204-.246-.886-.46-1.759-.637-2.61-.007-.035-.016-.07-.025-.105-.803-3.899-.948-7.619-.483-10.713,.049,.325,.1,.647,.154,.965,.005,.028,.009,.057,.014,.084,.105,.613,.222,1.207,.345,1.792,.021,.101,.042,.202,.063,.302,.121,.557,.25,1.1,.387,1.631,.027,.105,.055,.21,.082,.314,.14,.532,.287,1.052,.441,1.557,.021,.069,.043,.136,.065,.204,.155,.497,.316,.983,.483,1.454,.014,.04,.028,.082,.042,.123,.173,.483,.354,.949,.54,1.404,.033,.081,.066,.164,.099,.244,.182,.439,.37,.865,.562,1.278,.036,.076,.071,.151,.107,.227,.198,.418,.401,.825,.608,1.216,.02,.038,.041,.074,.061,.111,.205,.381,.413,.75,.625,1.106,.024,.041,.048,.083,.072,.123,.216,.359,.436,.701,.659,1.034,.041,.061,.081,.121,.122,.181,.22,.322,.442,.632,.667,.929,.039,.052,.078,.101,.117,.152,.233,.302,.468,.595,.704,.87l.037,.041c.234,.271,.47,.527,.706,.771,.032,.033,.063,.067,.095,.099,.234,.239,.469,.463,.704,.676,.044,.04,.088,.08,.132,.119,.233,.207,.466,.403,.699,.585,.037,.029,.075,.057,.112,.085,.244,.187,.487,.363,.728,.523,5.2,3.43,9.423,3.975,13.507,4.502,3.811,.492,7.411,.956,11.811,3.778,.324,.208,.632,.429,.925,.659,.098,.077,.187,.161,.282,.24,.189,.158,.378,.316,.555,.483,.105,.1,.202,.205,.302,.308,.153,.155,.306,.31,.449,.472Zm-30.014-2.963c.195,.148,.391,.29,.587,.429,.097,.069,.193,.141,.29,.208,.276,.19,.552,.372,.83,.545,.017,.011,.034,.023,.052,.034,.294,.183,.589,.356,.884,.522,.101,.057,.203,.11,.304,.165,.196,.106,.391,.212,.587,.312,.119,.061,.238,.118,.357,.176,.18,.088,.359,.174,.539,.257,.124,.057,.247,.112,.37,.167,.178,.078,.355,.154,.532,.228,.121,.05,.242,.101,.363,.149,.184,.073,.367,.143,.551,.212,.113,.042,.225,.086,.338,.126,.211,.076,.421,.148,.63,.218,.083,.028,.167,.058,.249,.085,.289,.094,.577,.184,.863,.269,.088,.026,.175,.05,.263,.075,.203,.059,.406,.117,.608,.172,.114,.031,.227,.06,.34,.09,.175,.046,.349,.091,.522,.135,.12,.03,.238,.059,.357,.088,.168,.041,.334,.081,.5,.119,.117,.027,.233,.054,.349,.08,.169,.038,.337,.076,.504,.112,.11,.024,.219,.048,.328,.072,.183,.04,.364,.078,.545,.116,.088,.018,.176,.037,.263,.056,.259,.054,.516,.107,.769,.159,2.823,.582,5.26,1.086,6.943,2.224,.242,.164,.473,.332,.696,.502,.07,.053,.135,.107,.203,.161,.151,.119,.299,.24,.442,.362,.073,.062,.143,.125,.214,.188,.133,.119,.262,.239,.388,.36,.064,.062,.128,.123,.19,.185,.136,.136,.265,.273,.392,.411,.042,.046,.087,.092,.128,.138,.165,.186,.323,.373,.472,.561,.024,.03,.045,.06,.069,.091,.123,.158,.241,.317,.354,.476,.044,.062,.085,.124,.127,.186,.088,.13,.174,.26,.255,.39,.043,.068,.084,.136,.125,.203,.078,.129,.152,.258,.223,.387,.035,.063,.071,.126,.105,.19,.082,.155,.16,.309,.233,.463,.017,.035,.036,.071,.052,.106,.089,.19,.171,.379,.249,.566,.021,.05,.039,.1,.059,.15,.055,.138,.107,.275,.156,.411,.024,.066,.046,.132,.068,.197,.041,.121,.081,.242,.118,.362,.02,.066,.04,.132,.06,.197,.027,.092,.051,.183,.075,.274-4.022-.14-7.83-1.032-11.342-2.663-6.357-2.952-11.263-7.506-14.881-12.566,.05,.038,.1,.074,.15,.112Z" fill="#390075"/></g><path d="M126.37,206.876c36.999-.465,52.354-17.75,57.473-35.336,4.487-15.363,1.155-30.96-2.367-35.755,0,0-26.586,6.389-68.472-5.094-3.383-.924-6.607-1.615-9.678-2.093-34.933-5.412-49.827,16.805-51.122,30.185-1.407,14.551,4.834,48.967,74.166,48.093Z" fill="#fff"/><g opacity=".2"><path d="M53.503,161.652c4.08,15.917,20.264,35.766,73.13,35.098,21.421-.271,35.584-6.18,44.708-14.52,4.174-3.815,1.948-10.735-3.662-11.442-2.166-.273-4.349-.618-6.545-1.037-29.224-5.577-51.784-22.45-57.809-41.153,3.072,.478,6.295,1.169,9.678,2.093,41.886,11.483,68.472,5.094,68.472,5.094,2.006,2.731,3.948,8.969,4.421,16.669,.325-2.848,.424-5.628,.347-8.262,4.386,19.768-.455,61.775-58.416,62.508-64.863,.816-74.505-29.251-74.326-45.049Z" fill="#390075"/></g><path d="M60.742,188.892c-10.709-11.646-10.691-25.048-10.187-30.27,.703-7.269,5.195-17.615,15.694-24.851,8.341-5.748,23.298-11.226,47.194-4.675,40.92,11.218,67.385,5.139,67.648,5.077h0c.648-.154,1.327,.094,1.721,.631,4.588,6.249,8.426,27.374-.597,45.474-6.305,12.648-21.107,27.817-55.823,28.255-.878,.011-1.748,.016-2.612,.016-29.838,0-51.039-6.609-63.038-19.657Zm51.826-56.601c-22.667-6.214-36.676-1.141-44.438,4.208-9.574,6.598-13.674,16.213-14.276,22.442-.462,4.779-.478,17.046,9.327,27.708,11.682,12.704,32.917,18.961,63.17,18.571,26.156-.33,44.448-9.466,52.899-26.419,7.917-15.881,5.239-34.646,1.461-41.16-5.605,1.098-30.68,4.922-68.143-5.349Zm68.905,3.493h0Z" fill="#390075"/><g><path d="M150.048,190.272c.381,.127,.759,.265,1.137,.408h.005c19.515,7.255,38.655,30.316,49.647,20.013,2.746-2.571,3.456-5.611,2.8-8.842v-.005c-2.828-13.946-31.033-31.551-31.033-31.551l-22.555,19.977Z" fill="#fff"/><g opacity=".2"><path d="M151.191,190.678c19.515,7.256,38.655,30.316,49.647,20.014,2.746-2.571,3.456-5.611,2.8-8.842-2.004,9.602-18.573,1.804-30.73-6.613-11.965-8.285-21.417-4.679-21.716-4.559Z" fill="#451661"/></g><path d="M172.312,170.764c1.492,1.965,3.279,3.446,5.113,4.863,1.818,1.437,3.71,2.767,5.571,4.141,1.865,1.369,3.64,2.851,5.374,4.368,1.733,1.519,3.412,3.091,5.011,4.727,1.593,1.639,3.11,3.343,4.463,5.138,1.356,1.789,2.546,3.685,3.373,5.656,.82,1.963,1.231,4.028,.835,5.872-.199,.92-.586,1.784-1.145,2.574-.13,.202-.286,.391-.448,.578-.15,.193-.325,.372-.504,.548l-.264,.267-.288,.233-.569,.472c-1.589,1.114-3.481,1.616-5.532,1.384-2.04-.189-4.139-.892-6.168-1.821-4.074-1.871-7.956-4.441-11.832-7.015-3.877-2.59-7.755-5.259-11.81-7.723l-1.528-.915-1.55-.888c-1.046-.574-2.055-1.218-3.12-1.779-1.052-.577-2.173-1.043-3.34-1.382-1.169-.33-2.411-.498-3.728-.31-.338,.048-.573,.361-.524,.699,.017,.122,.069,.23,.144,.317l.026,.03c.437,.507,.906,.887,1.376,1.247,.472,.356,.948,.693,1.441,.978,.496,.277,.986,.575,1.491,.833,.251,.132,.508,.252,.763,.376,.252,.133,.509,.255,.767,.375,1.037,.469,2.077,.957,3.081,1.511l1.498,.854,1.484,.888c3.947,2.397,7.784,5.036,11.69,7.646,3.915,2.594,7.862,5.232,12.305,7.278,2.219,1.008,4.613,1.853,7.243,2.103,.647,.094,1.33,.046,1.999,.046,.337-.02,.678-.079,1.016-.12l.508-.071c.168-.033,.335-.085,.502-.128,.334-.091,.669-.18,.999-.28l.956-.411c.157-.073,.322-.133,.471-.218l.441-.268c.291-.182,.592-.356,.872-.55l.786-.643,.39-.325,.355-.355c.237-.235,.47-.475,.683-.743,.221-.257,.435-.52,.626-.808,.794-1.118,1.388-2.428,1.679-3.798,.298-1.371,.275-2.771,.071-4.087-.207-1.32-.6-2.567-1.088-3.742-.988-2.348-2.323-4.44-3.787-6.379-1.465-1.943-3.069-3.741-4.737-5.457-1.672-1.712-3.413-3.34-5.2-4.906-1.787-1.567-3.626-3.061-5.45-4.573-1.825-1.51-3.69-2.975-5.687-4.249-.995-.642-2.002-1.265-3.084-1.775-1.081-.512-2.195-.965-3.438-1.22-.319-.065-.63,.14-.695,.459-.035,.172,.009,.342,.106,.473l.004,.006Z" fill="#390075"/></g><g><path d="M22.819,198.012c6.074,5.117,15.603-.676,20.063-3.061,4.46-2.385,11.95,5.46,24.871-2.78,5-3.19,7.99-7.682,9.766-12.155,3.233-8.15,2.438-16.234,2.438-16.234l-19.825-15.444c-25.994,4.62-38.337,24.915-39.95,38.435-.616,5.134,.318,9.289,2.636,11.239Z" fill="#fff"/><g opacity=".2"><path d="M22.819,198.012c6.074,5.117,15.603-.676,20.063-3.061,4.46-2.385,11.95,5.46,24.871-2.78,5-3.19,7.99-7.682,9.766-12.155v-.011s3.454-7.527,1.883-14.577c0,0-11.675,25.979-34.924,16.166,0,0-14.998,14.913-24.295,5.179-.616,5.134,.318,9.289,2.636,11.239Z" fill="#390075"/></g><path d="M78.047,176.691c-1.603,2.47-2.869,4.845-4.376,7.065-1.525,2.193-3.244,4.227-5.334,5.888-.51,.43-1.067,.795-1.62,1.178-.575,.366-1.157,.72-1.753,1.039-1.192,.641-2.424,1.184-3.686,1.597-2.527,.829-5.16,1.1-7.81,.783-1.329-.142-2.659-.426-4.054-.741-.699-.156-1.411-.323-2.179-.462-.766-.135-1.585-.253-2.511-.226-.23,.007-.475,.036-.711,.058-.247,.044-.492,.084-.74,.149-.248,.082-.5,.137-.741,.256l-.361,.166c-.067,.031-.115,.055-.149,.075l-.121,.065-1.9,1.029c-1.25,.672-2.496,1.303-3.758,1.86-2.51,1.103-5.141,1.941-7.617,1.915-1.227-.026-2.39-.268-3.402-.795-.505-.242-.997-.608-1.397-.955-.367-.333-.69-.761-.961-1.252-.549-.983-.864-2.207-1.032-3.464-.155-1.268-.173-2.587-.064-3.914,.208-2.656,.835-5.326,1.733-7.907,1.803-5.17,4.676-10.01,8.286-14.207,3.618-4.197,7.999-7.752,12.88-10.43,1.224-.662,2.469-1.289,3.745-1.849,1.28-.553,2.599-1.012,3.931-1.421,1.328-.42,2.642-.877,3.963-1.356,1.313-.522,2.626-1.064,3.922-1.947l.014-.01c.281-.191,.353-.569,.162-.844-.09-.129-.222-.212-.366-.245-1.539-.346-3.057-.324-4.534-.102-1.476,.229-2.927,.611-4.327,1.132-2.782,1.091-5.517,2.294-8.141,3.721-5.236,2.873-9.946,6.693-13.829,11.199-3.877,4.51-6.96,9.691-8.919,15.304-.974,2.807-1.67,5.727-1.907,8.743-.122,1.506-.109,3.041,.081,4.589,.212,1.545,.585,3.124,1.414,4.631,.413,.749,.946,1.477,1.633,2.102,.67,.586,1.342,1.068,2.123,1.457,1.532,.797,3.259,1.14,4.906,1.168,1.653,.016,3.241-.25,4.746-.653,1.505-.407,2.937-.949,4.317-1.555,1.378-.609,2.708-1.284,3.998-1.977l1.904-1.031,.117-.063c.044-.025,.076-.041,.093-.045l.131-.058c.081-.051,.19-.059,.281-.098,.1-.027,.213-.04,.32-.065,.123-.006,.237-.025,.367-.028,1.047-.033,2.419,.294,3.815,.607,1.406,.317,2.891,.638,4.424,.803,3.065,.374,6.309,.049,9.264-.932,1.482-.483,2.898-1.115,4.249-1.833,.334-.184,.678-.357,1.004-.552l.981-.584c.647-.414,1.306-.828,1.922-1.297,1.246-.918,2.431-1.936,3.469-3.085,1.039-1.147,1.957-2.395,2.725-3.718,1.554-2.628,2.529-5.574,2.475-8.588-.006-.322-.275-.575-.601-.566-.203,.006-.381,.112-.484,.269l-.005,.008Z" fill="#390075"/></g><g><path d="M102.398,106.609c-5.293,24.973,18.412,45.813,51.613,52.85,33.2,7.037,63.322-2.393,68.616-27.366,5.293-24.973-16.246-56.032-49.446-63.069-33.2-7.037-65.488,12.612-70.782,37.584Z" fill="#fff"/><g opacity=".2"><path d="M153.453,159.248c33.197,7.035,63.321-2.395,68.614-27.369,.036-.156,.066-.312,.097-.473-9.535,18.852-36.46,25.486-65.787,19.272-33.15-7.029-56.834-27.813-51.641-52.735-1.306,2.724-2.285,5.549-2.899,8.452-5.293,24.975,18.413,45.814,51.616,52.854Z" fill="#390075"/></g><path d="M153.667,161.08c-16.856-3.573-31.437-10.724-41.056-20.136-10.394-10.17-14.486-22.162-11.833-34.679,2.688-12.682,12.071-24.309,25.742-31.901,14.224-7.898,30.916-10.37,47.004-6.961,16.087,3.41,30.341,12.442,40.137,25.432,9.416,12.485,13.275,26.919,10.586,39.601-2.653,12.517-11.258,21.817-24.885,26.895-7.524,2.804-16.334,4.156-25.798,4.032-6.399-.084-13.098-.843-19.897-2.284Zm-25.539-83.819c-12.833,7.126-21.62,17.948-24.109,29.692-4.803,22.661,15.895,43.586,50.335,50.886,6.813,1.444,13.348,2.183,19.489,2.263,24.907,.326,43.31-10.174,47.163-28.352,4.874-22.992-14.691-54.009-48.169-61.105-4.208-.892-8.456-1.361-12.689-1.416-11.165-.146-22.212,2.586-32.019,8.032Z" fill="#390075"/><path d="M165.022,86.3c.931,.405,2.017,.735,3.275,.958,6.387,1.129,9.449-1.819,10.245-4.205-1.973,1.004-7.273,3.362-13.52,3.247Z" fill="#fe6dcb"/><path d="M162.516,84.766c.517,.446,1.131,.86,1.855,1.23,.208,.107,.424,.211,.649,.302,6.248,.115,11.548-2.243,13.52-3.247,.043-.108,.07-.221,.101-.329,.437-1.71,.77-4.176,.966-6.99,0,0-6.774,4.561-16.182,4.191-1.071-.043-2.175-.146-3.307-.332-.103,1.497,.494,3.535,2.397,5.176Z" fill="#33aef1"/><g opacity=".6"><path d="M162.516,84.766c.256-1.671,.566-3.287,.909-4.843-1.071-.043-2.175-.146-3.307-.332-.103,1.497,.494,3.535,2.397,5.176Z" fill="#fff"/></g><path d="M160.118,79.591c1.132,.186,2.236,.289,3.307,.332,9.409,.37,16.182-4.191,16.182-4.191,.201-2.844,.255-6.053,.142-9.207,0,0-4.331,4.401-14.281,6.012-1.237,.201-2.562,.36-3.974,.459-.711,2.531-1.197,4.794-1.365,6.453-.005,.046-.01,.096-.01,.142Z" fill="#fdd800"/><g opacity=".6"><path d="M160.118,79.591c1.132,.186,2.236,.289,3.307,.332,.583-2.625,1.276-5.086,2.043-7.386-1.237,.201-2.562,.36-3.974,.459-.711,2.531-1.197,4.794-1.365,6.453-.005,.046-.01,.096-.01,.142Z" fill="#fff"/></g><path d="M161.494,72.995c1.412-.099,2.737-.257,3.974-.459,9.95-1.611,14.281-6.012,14.281-6.012-.123-3.409-.456-6.757-1.043-9.528,0,0-3.585,4.009-9.27,6.002-1.489,.525-3.118,.909-4.869,1.045-1.224,3.027-2.291,6.156-3.072,8.95Z" fill="#b177ea"/><g opacity=".6"><path d="M161.494,72.995c1.412-.099,2.737-.257,3.974-.459,1.19-3.576,2.562-6.756,3.968-9.537-1.489,.525-3.118,.909-4.869,1.045-1.224,3.027-2.291,6.156-3.072,8.95Z" fill="#fff"/></g><path d="M164.57,63.803c1.751-.136,3.38-.521,4.869-1.045,5.685-1.993,9.27-6.002,9.27-6.002-.477-2.279-1.122-4.163-1.968-5.367-.546-.782-1.18-1.28-1.903-1.406-3.199-.565-7.232,6.301-10.269,13.82Z" fill="#fe6dcb"/><g opacity=".6"><path d="M164.119,64.039c1.751-.136,3.38-.521,4.869-1.045,2.621-5.198,5.367-9,7.302-11.369-.546-.782-1.18-1.28-1.903-1.406-3.199-.565-7.232,6.301-10.269,13.82Z" fill="#fff"/></g><path d="M181.403,66.463c-.134-3.724-.505-7.117-1.074-9.808-1.041-4.988-2.743-7.625-5.202-8.061-4.711-.827-9.176,7.606-12.097,14.83-1.23,3.048-2.313,6.202-3.131,9.122-.749,2.666-1.239,4.994-1.417,6.732-.011,.096-.018,.19-.02,.283v.004c-.007,.115-.01,.232-.01,.35,0,.047,0,.101,.002,.155,.003,.112,.007,.203,.013,.294,.005,.072,.01,.136,.016,.201,.01,.099,.021,.195,.035,.293,.011,.081,.017,.131,.026,.182,.025,.153,.054,.307,.09,.464,.006,.028,.018,.073,.029,.117,.031,.127,.063,.244,.098,.364l.042,.132,.016,.052c.036,.109,.075,.22,.116,.331l.066,.171c.052,.13,.113,.269,.178,.41,.013,.029,.031,.069,.051,.108,.063,.134,.152,.304,.249,.473,.007,.013,.038,.065,.045,.077,.085,.146,.171,.283,.262,.421l.066,.098,.015,.022c.092,.134,.19,.267,.293,.399l.066,.086c.267,.335,.561,.654,.877,.953,.009,.009,.051,.047,.061,.056l.072,.066c.065,.06,.129,.121,.198,.18,.049,.041,.088,.073,.127,.104l.187,.151c.132,.104,.266,.205,.404,.304,.067,.049,.125,.091,.185,.132,.132,.09,.27,.178,.411,.266l.045,.029c.056,.036,.111,.07,.169,.105,.165,.097,.332,.188,.503,.278,.054,.031,.103,.058,.155,.085,.269,.139,.527,.258,.777,.36,1.055,.459,2.281,.819,3.609,1.055,.954,.168,1.858,.253,2.709,.264,5.147,.067,8.376-2.554,9.388-5.55,.045-.125,.083-.254,.118-.379l.014-.05c.281-1.097,.514-2.425,.706-3.989,.1-.811,.187-1.683,.26-2.591l.014-.171c.015-.19,.03-.38,.044-.575,.21-2.98,.26-6.226,.143-9.384Zm-4.359,15.823l-.008,.004c-.102,.047-.213,.096-.323,.146-.063,.028-.123,.055-.188,.084-.141,.062-.291,.125-.444,.189-.043,.018-.081,.035-.125,.053-.198,.082-.405,.165-.621,.248-.061,.024-.128,.048-.191,.072-.157,.06-.316,.12-.482,.18-.089,.032-.184,.064-.275,.096-.147,.051-.294,.103-.446,.154-.104,.035-.213,.069-.32,.103-.148,.048-.297,.095-.449,.141-.115,.035-.233,.069-.351,.103-.152,.044-.305,.088-.462,.131-.124,.034-.25,.067-.377,.1-.157,.041-.317,.081-.479,.12-.13,.031-.262,.062-.395,.093-.165,.037-.333,.073-.502,.108-.135,.028-.27,.056-.407,.082-.175,.034-.354,.065-.532,.095-.135,.023-.27,.047-.407,.069-.192,.03-.389,.056-.585,.082-.128,.017-.255,.036-.385,.051-.234,.028-.472,.049-.71,.071-.096,.009-.19,.02-.287,.027-.336,.026-.675,.045-1.018,.057-.055,.002-.111,0-.167,.002-.144-.055-.29-.109-.427-.169-.194-.079-.363-.158-.554-.256l-.104-.058c-.134-.071-.257-.137-.374-.206l-.151-.094c-.103-.064-.199-.125-.291-.188l-.102-.073c-.12-.086-.212-.155-.3-.224l-.191-.154c-.055-.045-.089-.078-.123-.11l-.063-.058-.044-.04c-.209-.197-.398-.402-.566-.613l-.042-.056c-.065-.083-.125-.165-.181-.247l-.013-.018-.033-.048c-.06-.091-.112-.175-.162-.259l-.029-.049c-.057-.101-.11-.2-.157-.3l-.03-.065c-.028-.061-.064-.143-.097-.225l-.029-.076c-.027-.073-.047-.13-.066-.186,.262,.023,.521,.04,.779,.056,.097,.006,.196,.015,.292,.02,.375,.019,.747,.032,1.114,.037,.031,0,.062,0,.093,0,.066,0,.13,0,.195,0,.336,.001,.668-.004,.997-.014,.082-.003,.165-.004,.247-.008,.373-.015,.742-.035,1.105-.063,.058-.004,.115-.01,.173-.015,.321-.027,.638-.058,.951-.094,.073-.008,.146-.016,.218-.025,.351-.043,.696-.09,1.035-.144,.056-.009,.11-.019,.166-.028,.297-.048,.59-.1,.878-.156,.068-.013,.136-.026,.203-.039,.323-.064,.64-.132,.95-.204,.055-.013,.108-.026,.162-.039,.269-.064,.532-.13,.791-.199,.064-.017,.128-.033,.191-.05,.291-.079,.576-.161,.854-.245,.054-.016,.107-.033,.161-.05,.236-.073,.466-.146,.691-.221,.061-.02,.122-.04,.182-.06,.256-.087,.506-.175,.748-.264,.054-.02,.106-.04,.16-.06,.2-.075,.395-.15,.585-.225,.056-.022,.113-.045,.169-.067,.219-.088,.43-.176,.634-.264,.053-.023,.104-.045,.156-.068,.164-.071,.322-.142,.476-.212,.051-.023,.102-.046,.152-.069,.076-.035,.148-.07,.222-.104-.018,.159-.035,.326-.054,.481-.174,1.414-.379,2.593-.611,3.507Zm-2.594-30.439c.035,0,.068,.004,.1,.009,.514,.091,1.579,1.258,2.425,4.973l-.019,.018c-.088,.082-.185,.17-.288,.263-.028,.025-.058,.052-.088,.078-.085,.075-.175,.154-.268,.234-.032,.028-.064,.055-.097,.084-.12,.102-.247,.208-.38,.317-.036,.029-.075,.06-.112,.09-.108,.087-.221,.176-.337,.267-.045,.035-.09,.07-.137,.106-.151,.116-.307,.233-.47,.352-.04,.029-.081,.058-.122,.087-.134,.097-.273,.194-.415,.293-.056,.039-.113,.078-.17,.117-.18,.122-.365,.245-.557,.368-.036,.023-.074,.046-.111,.069-.165,.104-.334,.208-.507,.311-.065,.039-.13,.077-.196,.116-.204,.119-.412,.238-.627,.355l-.071,.038c-.208,.112-.423,.223-.641,.331-.07,.035-.141,.07-.212,.104-.208,.101-.419,.2-.634,.296-.036,.016-.072,.033-.108,.049-.245,.108-.497,.211-.751,.311-.073,.029-.148,.057-.222,.085-.218,.083-.44,.162-.665,.239-.053,.018-.105,.037-.158,.054-.269,.088-.543,.171-.82,.248-.073,.02-.148,.04-.222,.059-.151,.04-.306,.076-.46,.113,3.383-7.648,6.192-10.449,7.34-10.434Zm3.533,23.287l-.043,.024-.07,.038c-.283,.153-.624,.33-1.016,.52l-.118,.057c-.195,.093-.402,.19-.622,.288-.036,.016-.073,.032-.11,.048-.21,.093-.43,.187-.659,.282-.033,.013-.063,.027-.096,.04-.247,.101-.508,.203-.778,.304-.057,.021-.115,.043-.173,.064-.279,.103-.567,.206-.868,.306l-.068,.022c-.288,.096-.587,.189-.894,.28-.056,.017-.111,.034-.168,.05-.322,.094-.653,.184-.994,.27-.059,.015-.12,.029-.179,.044-.348,.086-.704,.169-1.071,.245l-.025,.006c-.371,.077-.754,.145-1.143,.209-.069,.011-.138,.023-.207,.033-.389,.061-.784,.115-1.189,.161-.045,.005-.092,.009-.137,.014-.388,.042-.783,.075-1.184,.101-.05,.003-.1,.008-.15,.01-.419,.024-.846,.038-1.279,.042-.08,0-.16,0-.24,0-.443,0-.89-.007-1.345-.03l-.045-.003c-.387-.02-.782-.056-1.178-.095,.195-1.203,.517-2.656,.941-4.243,.379-.037,.752-.078,1.118-.122,.075-.009,.147-.02,.221-.03,.364-.046,.722-.096,1.073-.149,.145-.022,.288-.046,.431-.069,.281-.046,.558-.093,.83-.143,.143-.026,.285-.052,.425-.079,.291-.056,.577-.115,.858-.176,.102-.022,.207-.043,.308-.066,.372-.083,.735-.17,1.09-.26,.096-.024,.187-.05,.282-.075,.263-.069,.521-.139,.774-.211,.122-.035,.241-.07,.361-.106,.226-.067,.447-.135,.664-.204,.112-.036,.224-.071,.333-.107,.255-.084,.504-.17,.748-.256,.058-.021,.119-.041,.177-.062,.296-.107,.581-.216,.86-.325,.087-.034,.171-.069,.257-.104,.193-.078,.384-.156,.569-.235,.096-.041,.19-.082,.284-.123,.176-.077,.348-.155,.517-.233,.08-.037,.162-.074,.24-.111,.236-.111,.466-.223,.685-.334l.052-.027c.207-.105,.406-.21,.599-.314,.07-.038,.137-.075,.205-.113,.138-.076,.272-.151,.402-.226,.068-.039,.136-.078,.202-.117,.131-.077,.257-.153,.38-.228,.051-.031,.104-.063,.153-.094,.059-.037,.115-.073,.172-.109,.009,1.947-.046,3.878-.163,5.718Zm-11.242-10.027c.217-.04,.432-.083,.644-.13,.099-.022,.198-.043,.296-.066,.242-.057,.481-.117,.717-.181,.055-.015,.112-.028,.167-.044,.287-.08,.569-.167,.847-.257,.081-.026,.16-.054,.24-.081,.201-.068,.4-.138,.597-.21,.092-.034,.183-.068,.274-.103,.195-.075,.388-.152,.578-.231,.073-.03,.146-.059,.218-.09,.254-.109,.504-.22,.749-.335,.053-.025,.104-.051,.157-.076,.195-.093,.386-.187,.574-.283,.08-.041,.159-.082,.238-.124,.164-.086,.324-.172,.483-.26,.072-.04,.145-.079,.216-.12,.208-.117,.412-.235,.61-.355l.04-.024c.21-.127,.414-.255,.613-.382,.065-.042,.129-.084,.193-.126,.136-.089,.27-.178,.401-.267,.066-.045,.131-.089,.195-.134,.139-.096,.273-.191,.405-.286,.044-.032,.09-.064,.133-.095,.168-.122,.33-.244,.486-.363,.054-.041,.105-.081,.157-.122,.104-.08,.205-.16,.304-.239,.061-.049,.121-.097,.18-.145,.026-.021,.053-.042,.078-.063,.266,1.881,.451,3.999,.544,6.27l-.012,.009c-.104,.08-.217,.165-.343,.257l-.029,.021c-.12,.087-.252,.179-.393,.275l-.068,.046c-.151,.102-.313,.209-.487,.319l-.079,.05c-.17,.107-.35,.217-.542,.329l-.046,.027c-.201,.117-.416,.238-.64,.36-.041,.022-.083,.045-.125,.067-.46,.247-.969,.5-1.525,.753-.053,.024-.105,.048-.159,.072-.278,.124-.567,.249-.869,.372-.039,.016-.08,.031-.119,.047-.28,.113-.57,.225-.87,.335-.055,.02-.108,.041-.164,.061-.326,.118-.665,.233-1.014,.347-.07,.023-.141,.045-.212,.067-.336,.106-.681,.21-1.038,.311-.035,.01-.068,.02-.103,.03-.379,.105-.773,.206-1.176,.303-.092,.022-.184,.044-.277,.066-.411,.096-.83,.188-1.266,.274-.038,.008-.078,.014-.117,.022-.405,.078-.824,.151-1.251,.219-.104,.017-.208,.034-.313,.05-.374,.057-.76,.107-1.15,.155,.63-2.025,1.374-4.12,2.189-6.181,.191-.027,.381-.055,.569-.086,.099-.017,.197-.036,.296-.054Z" fill="#390075"/><path d="M147.031,77.218s-.664-21.957-9.304-23.373c-8.64-1.416-20.133,27.294-20.846,34.534,0,0,13.075,3.058,30.15-11.161Z" fill="#fff"/><path d="M147.583,77.201c.795-1.5,.895-2.985,.839-4.453-.041-1.471-.301-2.924-.612-4.365-.316-1.44-.598-2.891-.972-4.333-.373-1.442-.818-2.879-1.394-4.298-.58-1.416-1.283-2.823-2.271-4.141-.977-1.302-2.369-2.547-4.167-3.154l-.685-.171c-.115-.026-.227-.055-.345-.078l-.382-.044c-.256-.034-.508-.017-.762-.02-.245,.025-.501,.035-.737,.085-.963,.171-1.808,.537-2.549,.964-1.475,.873-2.618,1.97-3.652,3.103-2.05,2.283-3.657,4.775-5.137,7.313-1.468,2.545-2.772,5.158-3.969,7.814-1.195,2.657-2.284,5.357-3.253,8.112-.243,.689-.475,1.382-.702,2.079-.223,.698-.511,1.379-.747,2.082-.239,.702-.382,1.44-.405,2.209-.007,.766,.114,1.596,.65,2.419,.213,.327,.65,.419,.977,.206,.027-.018,.052-.037,.076-.057l.046-.04c.689-.603,1.079-1.184,1.39-1.815,.295-.629,.517-1.278,.668-1.955,.156-.676,.288-1.366,.503-2.033,.21-.668,.438-1.333,.67-1.996,.934-2.654,1.991-5.278,3.148-7.849,1.158-2.571,2.419-5.095,3.816-7.517,1.401-2.411,2.934-4.759,4.722-6.745,.89-.984,1.861-1.878,2.862-2.464,.498-.289,.996-.484,1.447-.564,.115-.029,.22-.022,.33-.041,.104,.01,.212-.01,.312,.011l.152,.015,.177,.046c.119,.031,.239,.059,.36,.084,.929,.323,1.813,1.026,2.547,2.007,.734,.978,1.337,2.151,1.839,3.385,.503,1.238,.91,2.545,1.255,3.877,.342,1.333,.638,2.694,.805,4.079,.171,1.385,.294,2.775,.559,4.154,.24,1.383,.577,2.757,1.484,4.122l.014,.021c.194,.292,.588,.371,.881,.177,.09-.06,.162-.142,.21-.232Z" fill="#390075"/><g><path d="M139.842,74.143s.454-10.728-3.292-11.128c-3.745-.4-9.766,14.047-10.325,17.616,0,0,5.637,1.054,13.616-6.488Z" fill="#fe6dcb"/><path d="M136.726,61.367c-1.557-.167-4.078,.504-8.009,8.215-1.974,3.871-3.787,8.612-4.128,10.792-.139,.885,.452,1.72,1.332,1.885,.055,.01,.372,.065,.916,.072,2.069,.027,7.418-.629,14.142-6.984,.313-.296,.499-.703,.517-1.134,.122-2.881,.138-12.321-4.77-12.845Zm-8.335,17.528c.646-1.992,1.787-4.833,3.104-7.465,2.688-5.371,4.491-6.719,4.91-6.767,.912,.1,1.892,4.078,1.802,8.737-4.337,3.949-7.817,5.15-9.816,5.496Z" fill="#390075"/></g><path d="M193.219,85.374s8.143-20.402,16.746-18.773c8.602,1.629,9.568,32.539,7.758,39.585,0,0-13.332-1.604-24.504-20.811Z" fill="#fff"/><path d="M193.732,85.578c1.32-.972,2.107-2.147,2.806-3.365,.721-1.205,1.314-2.469,1.948-3.712,.631-1.245,1.375-2.422,2.153-3.557,.78-1.134,1.61-2.222,2.507-3.213,.895-.988,1.863-1.883,2.887-2.551,1.026-.67,2.097-1.028,3.081-1.013,.122,.018,.244,.033,.367,.045l.183,.017,.148,.038c.101,.015,.196,.071,.296,.097,.097,.056,.198,.085,.296,.152,.396,.229,.797,.583,1.166,1.025,.74,.893,1.347,2.066,1.845,3.295,.999,2.478,1.636,5.209,2.126,7.954,.483,2.754,.803,5.557,1.011,8.37,.206,2.812,.301,5.639,.27,8.453-.009,.703-.023,1.406-.054,2.105-.026,.7-.138,1.394-.223,2.082-.09,.688-.104,1.374-.042,2.066,.076,.7,.243,1.379,.685,2.181l.028,.05c.188,.342,.617,.466,.959,.278,.028-.016,.058-.035,.083-.054,.786-.59,1.183-1.328,1.439-2.05,.241-.731,.36-1.472,.375-2.214,.019-.742-.019-1.48,.011-2.212,.025-.733,.045-1.464,.052-2.194,.033-2.92-.065-5.829-.278-8.735-.215-2.906-.545-5.807-1.053-8.701-.521-2.892-1.177-5.783-2.321-8.63-.583-1.418-1.281-2.84-2.368-4.166-.55-.656-1.218-1.289-2.064-1.779-.204-.128-.441-.225-.663-.332-.24-.084-.471-.187-.723-.242l-.374-.09c-.119-.019-.234-.031-.351-.045l-.702-.074c-1.897-.046-3.631,.647-4.995,1.536-1.38,.9-2.522,1.982-3.552,3.113-1.027,1.136-1.937,2.334-2.782,3.561-.845,1.227-1.607,2.493-2.397,3.739-.785,1.248-1.527,2.523-2.07,3.892-.556,1.36-.97,2.79-.737,4.471,.048,.347,.369,.59,.716,.542,.108-.015,.205-.056,.287-.116l.022-.017Z" fill="#390075"/><g><path d="M200.649,85.157s3.669-10.361,7.671-9.484c4.001,.877,4.617,16.647,3.815,20.231,0,0-6.196-.89-11.486-10.747Z" fill="#fe6dcb"/><path d="M211.301,76.1c-.722-1.133-1.606-1.821-2.626-2.045-5.172-1.129-8.893,8.589-9.587,10.549-.156,.44-.119,.925,.102,1.336,5.62,10.473,12.423,11.562,12.71,11.603,.072,.01,.144,.016,.216,.017,.773,.01,1.463-.522,1.637-1.295,.761-3.405,.417-15.666-2.451-20.166Zm-.571,17.558c-1.912-.931-5.202-3.214-8.265-8.636,1.495-3.888,3.94-7.765,5.356-7.746,.049,0,.097,.006,.144,.016,.322,.077,1.677,1.616,2.424,7.721,.378,3.095,.462,6.447,.341,8.645Z" fill="#390075"/></g><path d="M207.948,121.068c2.287-.597,4.538-1.062,6.803-1.413,2.26-.353,4.521-.623,6.792-.725,2.268-.103,4.545-.152,6.83-.009,1.148,.023,2.289,.143,3.445,.228,.585,.011,1.152,.119,1.735,.171,.581,.06,1.166,.117,1.764,.149-.533-.253-1.078-.482-1.627-.706-.55-.22-1.102-.45-1.671-.61-1.139-.32-2.283-.677-3.461-.849-2.341-.456-4.745-.554-7.129-.441-2.387,.11-4.756,.54-7.041,1.21-2.275,.69-4.505,1.609-6.441,2.995Z" fill="#390075"/><path d="M207.522,127.013c2.363,.027,4.657,.171,6.935,.429,2.273,.255,4.525,.59,6.743,1.09,2.215,.498,4.425,1.051,6.591,1.791,1.102,.324,2.17,.741,3.264,1.128,.562,.165,1.08,.418,1.629,.622,.545,.211,1.094,.42,1.662,.608-.448-.385-.913-.748-1.383-1.11-.473-.357-.944-.724-1.451-1.029-1.014-.608-2.024-1.254-3.115-1.731-2.138-1.056-4.432-1.785-6.761-2.303-2.332-.523-4.73-.732-7.111-.687-2.376,.067-4.77,.365-7.002,1.193Z" fill="#390075"/><path d="M205.498,134.383c2.299,.549,4.504,1.196,6.669,1.951,2.161,.751,4.283,1.576,6.335,2.554,2.05,.975,4.083,2.003,6.032,3.203,1.003,.56,1.953,1.202,2.934,1.821,.511,.285,.961,.647,1.451,.967,.485,.326,.974,.652,1.487,.96-.351-.474-.725-.932-1.104-1.388-.382-.453-.761-.915-1.188-1.324-.855-.817-1.697-1.67-2.655-2.376-1.852-1.503-3.928-2.72-6.085-3.741-2.159-1.025-4.451-1.76-6.783-2.242-2.332-.46-4.732-.698-7.093-.385Z" fill="#390075"/><path d="M133.384,114.622c-1.514-1.837-3.434-3.298-5.455-4.55-2.036-1.235-4.214-2.259-6.493-2.979-2.275-.723-4.623-1.245-7.003-1.407-1.183-.136-2.38-.085-3.563-.069-.591,.008-1.184,.089-1.772,.16-.588,.076-1.173,.156-1.754,.264,.585,.123,1.165,.219,1.742,.31,.577,.099,1.152,.141,1.721,.281,1.14,.215,2.273,.392,3.388,.665,2.244,.449,4.433,1.081,6.598,1.764,2.169,.682,4.284,1.524,6.378,2.446,2.099,.922,4.155,1.95,6.211,3.115Z" fill="#390075"/><path d="M132.267,120.477c-1.945-1.373-4.181-2.277-6.461-2.952-2.289-.655-4.661-1.069-7.049-1.163-2.385-.098-4.788,.016-7.126,.488-1.177,.18-2.319,.545-3.455,.872-.569,.164-1.119,.397-1.667,.621-.548,.228-1.091,.46-1.622,.717,.597-.036,1.182-.096,1.762-.16,.583-.056,1.149-.168,1.734-.182,1.156-.093,2.296-.221,3.444-.251,2.283-.159,4.561-.125,6.83-.036,2.272,.087,4.534,.342,6.797,.68,2.268,.336,4.521,.787,6.812,1.368Z" fill="#390075"/><path d="M132.329,128.121c-2.2-.909-4.582-1.297-6.953-1.451-2.378-.133-4.782-.012-7.131,.424-2.347,.432-4.666,1.075-6.842,2.051-1.108,.436-2.141,1.044-3.177,1.614-.518,.285-1.003,.635-1.488,.974-.484,.344-.962,.69-1.424,1.058,.574-.167,1.131-.355,1.684-.546,.556-.183,1.083-.417,1.651-.561,1.107-.346,2.19-.723,3.303-1.006,2.192-.659,4.421-1.13,6.653-1.545,2.235-.418,4.498-.669,6.779-.84,2.286-.173,4.584-.232,6.946-.171Z" fill="#390075"/><g><g opacity=".2"><path d="M159.058,130.114c2.213,3.839,4.964,5.353,7.633,5.669,5.277,.631,10.251-3.4,10.251-3.4,3.032,4.082,5.98,5.905,8.59,6.491,4.328,.972,7.743-1.449,9.124-2.664-10.767-.032-14.848-6.381-14.848-6.381l-4.726-.819c-5.884,6.292-15.725,1.256-16.024,1.104Z" fill="#390075"/></g><path d="M166.691,135.783c.341,2.47,1.079,5.344,2.212,7.751,1.256,2.687,2.994,4.811,5.205,5.194,2.227,.386,4.601-1.037,6.699-3.163,1.896-1.924,3.575-4.424,4.724-6.69-2.61-.586-5.558-2.409-8.59-6.491,0,0-4.974,4.031-10.251,3.4Z" fill="#390075"/><g><path d="M168.904,143.534c1.256,2.687,2.994,4.811,5.205,5.194,2.227,.386,4.601-1.037,6.699-3.163-.463-2.466-2.507-4.53-5.258-5.007-2.759-.478-5.394,.791-6.646,2.976Z" fill="#fb64c0"/><path d="M174.075,148.919c-2.043-.354-3.891-2.188-5.347-5.303l-.043-.091,.05-.087c1.327-2.316,4.079-3.548,6.848-3.071,2.749,.477,4.926,2.551,5.416,5.162l.019,.1-.072,.072c-2.022,2.048-4.005,3.163-5.804,3.274-.364,.022-.72,.004-1.067-.056Zm1.442-8.17c-2.574-.447-5.13,.675-6.394,2.795,.982,2.071,2.638,4.58,5.018,4.993,2.408,.418,4.827-1.402,6.456-3.035-.496-2.406-2.525-4.309-5.081-4.752Z" fill="#390075"/></g><g><path d="M183.367,125.715c-.82-1.588-8.492-3.191-10.092-1.75-1.6,1.441,1.488,6.215,4.043,6.658,2.556,.443,6.958-3.147,6.049-4.908Z" fill="#390075"/><path d="M177.04,132.227c-2.498-.433-4.925-3.321-5.624-5.747-.604-2.094,.223-3.232,.769-3.724,1.433-1.292,4.38-1.08,6.601-.675,1.87,.341,5.14,1.169,6.026,2.887h0c.325,.63,.677,1.951-.619,3.717-1.295,1.766-3.837,3.452-6.116,3.593-.354,.022-.702,.007-1.038-.052Zm-2.579-7.08c.015,.293,.188,.946,.739,1.787,.801,1.224,1.833,1.989,2.396,2.087,.511,.087,1.612-.246,2.723-1.058,.824-.602,1.3-1.21,1.472-1.548-1.343-.904-6.036-1.727-7.33-1.267Zm-.147,.066h0Z" fill="#390075"/><g><path d="M174.062,124.058c-.106,.614,1.683,1.436,3.998,1.838,2.314,.401,4.277,.229,4.383-.385,.106-.614-1.683-1.436-3.998-1.838s-4.276-.229-4.383,.385Z" fill="#fff"/><path d="M178.024,126.103c-2.185-.379-4.319-1.216-4.169-2.081h0c.071-.411,.594-.662,1.552-.747,.845-.074,1.937-.007,3.074,.191,1.136,.197,2.187,.501,2.958,.855,.875,.402,1.282,.814,1.21,1.226-.08,.465-.777,.7-1.744,.759-.834,.052-1.87-.028-2.883-.203Zm-2.58-2.408c-.888,.078-1.156,.295-1.175,.4-.054,.315,1.212,1.141,3.827,1.594,2.616,.453,4.085,.102,4.139-.214,.018-.104-.162-.399-.972-.771-.739-.34-1.753-.632-2.854-.823-1.025-.178-2.008-.247-2.793-.199-.059,.004-.116,.008-.173,.013Z" fill="#390075"/></g></g><path d="M188.191,140.578c3.518-.218,6.19-2.145,7.382-3.178,.025-.02,.05-.04,.075-.062,.487-.427,.765-.733,.795-.767,.553-.616,.501-1.564-.115-2.117-.615-.552-1.56-.501-2.113,.111h0s-.17,.187-.479,.462c-.023,.018-.047,.037-.069,.057-1.111,.977-4.094,3.16-7.806,2.326-2.64-.593-5.236-2.585-7.715-5.922-.243-.328-.61-.542-1.016-.593-.404-.052-.813,.065-1.131,.323-.043,.035-4.561,3.62-9.129,3.077-2.615-.31-4.806-1.969-6.513-4.93-.01-.017-.02-.033-.03-.049l-.019-.03c-.141-.249-.28-.509-.418-.777-.378-.736-1.28-1.027-2.019-.648-.736,.378-1.026,1.282-.648,2.019,.173,.336,.348,.659,.525,.97,.019,.033,.038,.065,.059,.095,2.2,3.773,5.129,5.901,8.708,6.326,4.232,.506,8.185-1.583,10.126-2.84,2.669,3.243,5.545,5.228,8.562,5.905,1.048,.235,2.048,.299,2.988,.241Z" fill="#390075"/><path d="M173.852,150.204c-2.481-.431-4.662-2.518-6.304-6.032-1.09-2.315-1.943-5.299-2.341-8.184-.063-.46,.09-.924,.415-1.255,.326-.332,.786-.493,1.247-.438,4.568,.543,9.086-3.042,9.129-3.077,.318-.258,.727-.375,1.131-.323,.406,.051,.773,.266,1.016,.593,2.479,3.337,5.074,5.33,7.715,5.922,.451,.102,.831,.405,1.028,.824,.197,.418,.19,.905-.019,1.317-1.327,2.616-3.147,5.191-4.994,7.065-2.254,2.284-4.528,3.529-6.656,3.66-.463,.029-.92,.005-1.367-.073Zm2.789-15.773c-1.622,1.051-4.652,2.683-8.075,2.895-.03,.002-.06,.004-.09,.005,.41,2.012,1.035,3.973,1.786,5.568,1.193,2.554,2.651,4.1,4.102,4.352,1.473,.255,3.382-.718,5.376-2.739,1.275-1.294,2.542-2.975,3.602-4.766-2.343-.965-4.587-2.745-6.702-5.315Z" fill="#390075"/></g><g><g><ellipse cx="198.404" cy="115.782" rx="9.49" ry="6.689" transform="translate(61.987 300.606) rotate(-83.836)" fill="#390075"/><path d="M197.364,125.407c-3.771-.408-6.373-5.057-5.801-10.364h0c.277-2.559,1.241-4.891,2.715-6.567,1.491-1.694,3.325-2.518,5.165-2.319,3.771,.408,6.373,5.056,5.8,10.363-.535,4.952-3.649,8.754-7.127,8.91-.249,.011-.501,.004-.753-.023Zm-2.8-16.679c-1.423,1.617-2.354,3.874-2.622,6.356h0c-.55,5.098,1.9,9.559,5.462,9.944,3.571,.381,6.909-3.451,7.46-8.548,.55-5.098-1.9-9.559-5.462-9.943-.235-.026-.47-.033-.704-.022-1.474,.066-2.92,.835-4.134,2.214Z" fill="#390075"/></g><g><ellipse cx="202.419" cy="114.88" rx="3.187" ry="2.021" transform="translate(66.467 303.793) rotate(-83.836)" fill="#fff"/><path d="M202.056,118.238c-1.212-.131-2.036-1.744-1.836-3.595,.095-.882,.404-1.69,.871-2.275,.487-.61,1.089-.91,1.691-.845,.604,.065,1.126,.487,1.471,1.187,.331,.671,.461,1.527,.365,2.409-.188,1.737-1.211,3.077-2.339,3.127-.074,.003-.148,.001-.223-.007Zm-.667-5.633c-.422,.53-.703,1.268-.79,2.079h0c-.178,1.642,.494,3.067,1.498,3.175,1.008,.116,1.964-1.14,2.142-2.782,.088-.811-.029-1.592-.328-2.2-.285-.579-.701-.925-1.17-.976-.057-.006-.113-.008-.17-.005-.414,.019-.828,.265-1.181,.709Z" fill="#390075"/></g></g><g><g><ellipse cx="156.807" cy="110.556" rx="9.49" ry="6.689" transform="translate(21.939 247.018) rotate(-80.522)" fill="#390075"/><path d="M155.213,120.105c-3.741-.625-6.07-5.417-5.192-10.682h0c.424-2.539,1.521-4.811,3.09-6.399,1.586-1.605,3.465-2.321,5.29-2.017,3.741,.625,6.07,5.416,5.192,10.681-.821,4.913-4.148,8.529-7.63,8.483-.249-.003-.5-.025-.75-.067Zm-1.831-16.813c-1.514,1.532-2.574,3.732-2.985,6.194h0c-.844,5.058,1.344,9.653,4.878,10.243,3.543,.587,7.097-3.046,7.941-8.103,.844-5.058-1.344-9.653-4.878-10.242-.233-.039-.467-.06-.702-.063-1.475-.019-2.963,.665-4.255,1.972Z" fill="#390075"/></g><g><ellipse cx="160.534" cy="109.998" rx="3.187" ry="2.021" transform="translate(25.603 250.228) rotate(-80.522)" fill="#fff"/><path d="M159.978,113.33c-1.203-.201-1.932-1.859-1.625-3.696,.146-.875,.501-1.664,1.001-2.221,.521-.581,1.14-.846,1.737-.746,.599,.1,1.096,.551,1.4,1.27,.291,.689,.371,1.551,.225,2.426-.288,1.724-1.387,3.002-2.516,2.987-.074,0-.148-.007-.222-.02Zm-.34-5.662c-.452,.504-.775,1.225-.909,2.029h0c-.272,1.629,.316,3.09,1.312,3.257,.999,.174,2.027-1.025,2.299-2.654,.134-.804,.063-1.591-.2-2.215-.251-.594-.646-.964-1.112-1.042-.056-.009-.113-.015-.17-.015-.414-.005-.842,.217-1.22,.64Z" fill="#390075"/></g></g></g></svg>