<?xml version="1.0" encoding="UTF-8"?><svg id="a" xmlns="http://www.w3.org/2000/svg" viewBox="0 0 1920 1080"><rect width="1920" height="1080" fill="#46abf2"/><g opacity=".6"><path d="M598.334,325.57c1.219,7.67-.053,15.07-5.358,21.085-8.143,9.233-26.128,9.081-35.823,2.969-2.049-1.292-13.02-8.518-17.748-18.044-10.686,15.077-26.657,27.479-45.041,29.356-19.991,2.041-34.932-9.497-42.948-26.531-4.869,9.762-15.395,16.617-28.663,17.144-10.343,.411-23.886-3.114-29.766-11.575-3.846,15.734-13.72,29.393-30.163,33.687-15.526,4.054-33.219-2.139-42.828-14.99-11.029,21.729-33.227,38.709-57.594,38.923-24.367,.214-48.61-19.547-49.206-43.907-22.859,7.179-53.841-.056-64.522-13.795-16.281,17.592-50.551,10.925-59.049-11.488-8.046,.779-16.398,1.523-24.017-1.177-7.62-2.699-14.289-9.889-13.638-17.946,.603-7.461,7.017-18.728,14.994-25.407,13.681-11.454,31.059-15.178,45.756-5.061-2.134-21.109,11.674-42.792,31.705-49.787s44.334,1.379,55.805,19.227c7.912-13.53,25.525-20.524,40.563-16.108-6.988-11.086-6.251-26.509,1.763-36.878,8.014-10.369,22.753-14.97,35.243-11.002-16.458-12.543-18.404-40.012-3.879-54.75s42.02-13.191,54.8,3.083c23.783-27.477,67.726-37.499,98.406-18.022,30.396,19.296,39.655,65.209,19.114,94.777,12.43-6.399,28.502-4.934,39.571,3.607,10.375,8.005,15.264,21.311,14.536,34.174,5.382-1.294,12.486-1.677,18.456-.07,5.469,1.472,9.513,6.382,11.297,11.757,1.784,5.375,1.636,11.19,1.116,16.83,11.246-1.982,19.224,1.172,22.934,5.068,5.793,6.083,6.985,12.804,7.619,19.165,8.8-2.746,20.302,1.707,24.576,4.683,6.167,4.295,10.675,12.755,11.988,21.005Z" fill="#e6f5ff"/><path d="M539,316.771c-5.248,8.855-24.323,19.977-42.176,12.554-16.455-6.842-23.455-26.134-14.785-47.568,1.811-2.862,3.364-5.863,4.52-9.017-7.288,8.775-16.006,15.447-25.519,20.403-9.526,4.927-19.85,8.024-30.344,9.36-10.5,1.294-21.221,.769-31.542-1.975-10.337-2.735-20.135-7.701-29.351-14.435,6.447,9.408,16.079,16.89,27.07,21.237,10.983,4.407,23.192,5.812,34.96,4.329,2.343-.286,4.664-.716,6.967-1.223,2.732,7.742-2.491,17.08-15.814,20.744-14.989,4.122-38.218,.186-47.494-10.575-3.01,9.233-10.389,24.118-35.621,25.602-18.284,1.076-39.585-7.885-36.424-28.866,14.058-3.529,26.308-13.127,32.296-25.565-6.405,4.956-12.753,9.164-19.545,12.224-6.746,3.086-13.827,5.09-20.977,5.765-7.137,.66-14.354-.018-21.021-2.549-6.69-2.479-12.717-7.01-17.468-13.585,7.815,32.91-19.756,45.395-36.444,42.277-15.181-2.837-27.482-12.423-26.975-26.012,.226-.093,.457-.171,.682-.267,9.32-3.889,17.752-10.017,23.566-17.976-8.412,5.093-17.01,8.816-25.913,11.167-8.908,2.279-18.02,3.279-27.085,2.93-9.061-.344-18.052-2.037-26.583-5.23-8.499-3.277-16.467-8.115-23.335-15.165,3.638,9.209,11.374,16.77,20.27,21.652,4.56,2.561,9.457,4.468,14.511,5.784,8.384,2.001,1.458,15.111-17.713,15.235-12.811,.083-27.829-7.05-30.987-19.764-9.255,13.801-41.521,20.053-48.787,2.25,.08,7.55,6.441,14.152,13.669,16.713,7.62,2.699,15.971,1.955,24.017,1.176,8.498,22.413,42.768,29.08,59.049,11.488,10.681,13.739,41.663,20.974,64.522,13.795,.596,24.361,24.839,44.122,49.206,43.907,24.367-.214,46.565-17.194,57.594-38.923,9.609,12.851,27.302,19.044,42.829,14.99,16.443-4.293,26.316-17.953,30.162-33.687,5.88,8.461,19.423,11.986,29.765,11.575,13.269-.527,23.794-7.381,28.663-17.144,8.016,17.034,22.957,28.572,42.948,26.531,18.384-1.877,34.355-14.279,45.041-29.356,4.728,9.526,15.699,16.753,17.748,18.044,9.695,6.112,27.68,6.265,35.823-2.969,4.147-4.703,5.805-10.256,5.759-16.118-7.739,23.709-49.519,10.301-59.735-13.766Z" fill="#b5d8ff"/><path d="M388.75,176.979c8.62,1.395,17.114,4.035,25.629,7.772-6.397-6.801-14.888-11.699-24.019-14.531-9.134-2.905-19.033-3.687-28.645-2.258-9.61,1.44-18.852,5.063-26.745,10.501-7.91,5.367-14.612,12.516-18.763,20.876,7.052-6.058,14.411-11.06,22.256-14.899,7.863-3.77,16.11-6.429,24.56-7.672,8.448-1.255,17.109-1.111,25.727,.213Z" fill="#fff"/><path d="M586.346,304.565c-4.274-2.976-15.776-7.429-24.576-4.683-.634-6.361-1.826-13.082-7.619-19.165-3.71-3.896-11.688-7.05-22.934-5.068,.52-5.64,.668-11.454-1.116-16.83-1.784-5.375-5.828-10.285-11.297-11.757-5.971-1.608-13.074-1.224-18.456,.07,.728-12.863-4.161-26.169-14.536-34.174-11.068-8.541-27.14-10.005-39.571-3.607,20.541-29.569,11.282-75.481-19.114-94.778-30.68-19.477-74.623-9.455-98.406,18.022-12.78-16.274-40.275-17.821-54.8-3.083s-12.579,42.207,3.879,54.75c-12.49-3.968-27.229,.633-35.243,11.002-8.014,10.369-8.751,25.792-1.763,36.878-15.038-4.416-32.651,2.578-40.563,16.108-11.471-17.849-35.774-26.222-55.805-19.227-20.031,6.995-33.839,28.677-31.705,49.787-14.697-10.118-32.075-6.393-45.756,5.06-3.516,2.944-6.688,6.789-9.233,10.797,14.92-13.643,34.602-19.291,55.614-14.507,6.493-20.779,24.124-32.026,42.486-34.19,18.362-2.164,37.583,4.991,50.06,18.635,2.628-8.193,10.896-16.396,21.18-19.139,7.441-1.984,18.774-.403,25.095,3.874-2.683,3.301-4.935,6.904-6.543,10.782,7.41-5.46,14.719-9.816,22.414-13.082,7.659-3.285,15.595-5.52,23.693-6.819,8.099-1.283,16.35-1.655,24.656-.974,8.332,.675,16.622,2.396,25.293,5.474-5.845-7.188-14.475-12.019-23.545-14.645-6.476-1.857-13.264-2.616-20.022-2.37-13.548-2.675-27.872-1.522-40.682,3.661,.027-20.242,19.213-38.392,39.426-37.297-9.255-12.17-7.084-31.482,4.641-41.294,11.725-9.812,31.118-8.544,41.466,2.711,11.477-17.456,33.783-27.074,54.355-23.437,20.572,3.637,38.229,20.32,43.025,40.653,3.576,15.161-1.261,30.687-10.904,42.766-4.203,.323-8.392,.875-12.516,1.781-9.791,2.156-19.32,5.936-27.74,11.529-8.352,5.581-15.717,13.121-19.629,22.239,7.782-6.018,15.74-10.532,24.105-14.082,8.339-3.556,16.99-6.157,25.815-8.093,8.83-1.915,17.831-3.182,26.966-3.729,9.165-.542,18.341-.416,28.095,.858,9.054,2.403,22.104,17.844,16.969,32.667,6.087-6.229,14.386-8.477,21.414-3.335,7.029,5.143,14.454,21.145,2.827,37.471,9.526-2.502,20.793-10.757,30-7.26,8.125,3.086,11.464,11.527,12.794,18.639,16.172-4.285,29.799,2.654,37.938,14.515-2.148-5.768-5.7-11.018-10.134-14.105Z" fill="#fff"/></g><g opacity=".6"><path d="M1230.943,604.258c-6.865,.189-9.93,8.053-10.28,11.01-1.36,11.469,9.895,20.47,20.477,22.137,12.198,1.921,27.796-4.313,35.553-13.782,4.209,6.565,14.652,10.329,21.268,10.384,9.248,.077,17.792-3.345,25.85-7.237,7.553,22.671,29.254,39.929,53.043,42.183,23.79,2.254,52.786-13.145,60.022-31.47,5.08,8.695,19.044,18.648,32.5,19.73,28.919,2.327,53.42-8.688,75.814-25.648,4.894,7.312,15.171,16.372,23.112,20.6,18.699,9.956,32.634,8.979,46.729,6.564,20.025-3.431,37.736-15.534,51.564-30.42,10.013,10.5,28.494,15.011,38.492,15.746,14.504,1.067,32.717-5.004,38.501-11.724,3.287,4.465,10.434,8.922,15.342,10.524,23.798,7.771,45.654,2.267,60.605-10.231,12.247,1.813,30.65-6.339,35.821-14.672,7.897-12.727,6.502-29.929-3.221-41.312,7.783-17.531,5.972-38.33-2.782-55.397-13.686-26.681-41.208-37.366-59.957-34.38-5.858-15.938-39.532-31.479-61.325-22.044,2.559-15.189-5.027-30.888-16.744-40.887-11.716-10-26.99-14.964-42.228-17.216-9.7-1.433-21.679,.987-30.818,4.613-3.627,1.439-6.857,3.732-9.831,6.258-12.177,10.342-18.518,23.575-21.852,38.885-1.586,7.28-4.056,20.12,3.071,34.898-23.206-12.604-51.686-15.09-76.724-6.697s-46.266,27.543-57.187,51.586c-5.482-8.671-17.462-12.395-24.646-12.719-10.88-.491-22.904,1.2-32.414,6.808-9.853,5.81-16.463,16.775-17.001,28.201-8.396-16.065-26.975-26.216-45.667-24.325-11.221,1.135-27.734,11.658-35.145,26.264-4.687-2.272-19.22-1.695-27.816,.335-8.848,2.09-23.823,8.898-29.546,19.828-1.807-1.923-5.794-4.37-9.454-5.102-6.678-1.335-14.091,1.389-18.912,7.176-4.037,4.845-6.708,15.53-4.214,21.533Z" fill="#e6f5ff"/><path d="M1276.664,623.623c4.21,6.565,14.652,10.329,21.269,10.384,9.247,.077,17.792-3.345,25.85-7.237,7.553,22.671,29.253,39.929,53.043,42.183,23.79,2.254,52.786-13.145,60.022-31.47,5.08,8.695,19.045,18.648,32.5,19.73,28.919,2.327,53.42-8.688,75.813-25.648,4.894,7.312,15.171,16.372,23.112,20.6,18.699,9.956,32.634,8.979,46.729,6.564,20.025-3.431,37.736-15.534,51.564-30.42,10.013,10.5,28.494,15.011,38.492,15.746,14.503,1.067,32.716-5.004,38.501-11.724,3.287,4.465,10.433,8.922,15.342,10.524,23.798,7.771,45.654,2.267,60.605-10.231,12.247,1.813,30.651-6.339,35.821-14.672,2.527-4.073,3.999-8.619,4.655-13.271-15.285,25.927-71.184,14.232-89.145-11.911,.16,.09,.32,.181,.479,.272,2.47,1.025,4.941,2.124,7.491,2.932,2.594,.639,5.15,1.545,7.791,1.94,10.561,1.757,21.402,.952,31.395-2.104,10-3.055,19.204-8.003,27.274-14.221-9.655,3.396-19.066,6.526-28.679,8.322-2.426,.298-4.83,.623-7.215,1.018-2.405,.216-4.816,.255-7.21,.399-2.395,.105-4.776-.126-7.159-.161-2.387-.049-4.705-.636-7.059-.902-9.339-1.52-18.279-5.21-25.842-10.987-7.575-5.772-13.758-13.512-18.119-22.757h0c.853,13.185,8.516,48.515-38.845,47.3-15.012-.385-35.764-8.405-42.542-18.482,5.474-1.366,10.829-3.191,15.949-5.544,12.28-5.685,23.279-14.308,30.479-25.351-11.31,6.753-22.579,11.8-34.326,14.965-11.695,3.22-23.697,4.712-35.74,4.774-12.037,.031-24.138-1.348-35.881-4.411-11.748-3.122-23.117-7.645-33.281-15.975,1.551,2.78,2.928,6.059,5.229,8.464,1.048,1.316,2.185,2.569,3.315,3.858,1.214,1.161,2.499,2.242,3.77,3.378,2.268,1.934,4.919,3.348,7.208,5.244,47.211,39.089-37.404,50.29-65.824,35.071-20.643,12.143-69.12,13.751-72.393-14.83,6.305-1.239,12.378-3.707,17.647-7.391,6.949-4.789,12.38-12.048,13.949-20.04-9.186,13.336-23.665,19.389-38.262,20.478-14.645,1.047-29.753-2.978-41.227-14.337,.825,2.021,1.91,3.937,3.18,5.746,8.85,16.439,10.71,25.615,.22,41.059-16.351,24.073-64.544,23.045-82.241-8.176-9.228,12.087-39.34,12.087-50.51-2.186-7.307,21.232-39.989,30.567-52.993,10.127,1.82,9.013,11.261,15.726,20.246,17.142,12.198,1.921,27.796-4.313,35.553-13.782Z" fill="#b5d8ff"/><path d="M1849.352,521.244c-13.685-26.681-41.207-37.366-59.956-34.38-5.858-15.938-39.532-31.479-61.325-22.044,2.559-15.19-5.027-30.888-16.743-40.888-11.716-10-26.99-14.964-42.228-17.215-9.7-1.433-21.679,.987-30.818,4.613-3.627,1.439-6.857,3.732-9.831,6.258-12.177,10.342-18.518,23.575-21.853,38.885-1.562,7.172-3.964,19.748,2.783,34.251-.209,.059-.417,.121-.625,.181-23.038-12.182-51.096-14.516-75.811-6.231-25.038,8.393-46.266,27.542-57.186,51.586-5.482-8.671-17.462-12.395-24.646-12.719-10.88-.492-22.903,1.199-32.414,6.807-9.853,5.81-16.463,16.775-17,28.201-8.397-16.065-26.975-26.216-45.668-24.325-11.221,1.135-27.734,11.658-35.145,26.265-4.688-2.273-19.22-1.696-27.816,.335-8.848,2.09-23.823,8.898-29.546,19.828-1.807-1.923-5.794-4.37-9.454-5.102-6.678-1.335-14.091,1.389-18.911,7.176-4.037,4.845-6.708,15.53-4.214,21.533-5.092,.14-8.085,4.5-9.438,7.951,3.378-4.351,9.17-6.386,15.47-5.796-.823-6.266,3.4-13.397,13.599-17.525,7.273-2.944,16.078-2.651,19.277,2.799,11.726-18.49,41.098-22.234,57.088-7.279,3.286-11.993,15.104-19.764,24.979-19.926,11.341-.186,19.265,3.724,23.754,11.771,4.901-8.372,15.91-12.095,24.975-10.8,5.18-14.732,29.141-25.093,43.711-16.027,8.742-15.865,43.387-11.009,56.465,2.097,9.538-39.665,52.923-66.574,94.835-55.741-7.566,3.513-14.708,7.955-20.598,13.852,9.061-2.435,17.621-4.769,26.274-6.515,8.616-1.803,17.217-3.15,25.868-4.055,8.652-.892,17.343-1.36,26.145-1.383,8.824-.08,17.682,.419,27.055,.908-7.888-5.151-16.942-8.23-26.187-10.033-5.724-1.075-11.557-1.55-17.395-1.572,8.979-14.012,23.568-25.38,46.461-25.38,21.238,0,30.197,14.031,32.247,20.635,4.209-5.666,15.713-10.604,25.117-9.496,21.227,2.501,31.64,15.243,29.878,28.099-1.841,.507-3.661,1.086-5.439,1.764-7.485,2.893-14.399,7.24-19.628,13.215,7.706-1.823,14.832-3.437,21.953-4.382,7.094-.98,14.097-1.365,21.087-1.15,6.989,.222,13.957,1.023,20.978,2.431,7.049,1.378,14.057,3.416,21.629,5.734,11.305,7.213,24.519,26.289,23.757,50.515,4.379-15.712,2-33.089-5.509-47.727Z" fill="#fff"/></g><g opacity=".6"><path d="M515.944,655.117c4.388,6.142,10.26,11.264,17.03,14.568,17.005,8.299,38.162,5.815,54.199-4.228,1.594-.998,3.497-2.26,5.366-3.286,1.995,1.34,3.703,2.411,5.443,3.566,22.218,14.757,53.99,12.425,73.976-5.148,14.277,11.461,36.737,15.62,48.055-2.692,2.151,3.522,5.343,6.33,8.775,8.324,12.253,7.12,27.267,1.766,34.884-5.577,12.109-11.674,18.159-30.264,8.659-45.461-5.632-9.009-16.017-14.848-26.642-14.978,4.171-10.868,1.529-24.033-6.512-32.451s-28.105-18.099-44.587-12.452c-18.021-21.232-52.262-36.66-80.118-29.714-27.342,6.818-47.92,33.783-47.627,61.892-7.441-4.047-22.783-2.06-30.291,.92-13.509,5.362-25.287,19.225-28.299,34.64-2.184,11.178,1.057,22.792,7.691,32.077Z" fill="#e6f5ff"/><path d="M568.591,648.752c-14.724,14.419-48.862,13.795-60.554-12.799,1.037,6.84,3.821,13.444,7.907,19.163,4.388,6.142,10.26,11.264,17.03,14.568,17.005,8.299,38.162,5.815,54.199-4.228,1.594-.998,3.497-2.259,5.366-3.286,1.995,1.34,3.703,2.41,5.443,3.566,22.218,14.757,53.99,12.424,73.976-5.148,14.277,11.461,36.737,15.62,48.055-2.692,2.151,3.522,5.343,6.33,8.775,8.324,12.253,7.12,27.267,1.766,34.884-5.577,3.851-3.714,7.081-8.13,9.401-12.911-12.129,14.479-38.486,6.018-46.965-9.935,3.782-.73,7.441-2.034,10.756-3.921,4.475-2.501,8.371-5.952,11.155-10.107-4.224,2.671-8.421,4.948-12.801,6.611-4.379,1.628-8.888,2.728-13.465,3.041-4.57,.409-9.192,.015-13.745-.982-4.56-1.026-9.012-2.736-13.51-4.908,3.247,3.805,7.583,6.738,12.379,8.588,4.793,1.901,10.071,2.6,15.254,2.237l.022-.003c-2.034,9.027-22.045,10.901-27.143,7.503-25.428,8.675-42.43,1.487-50.433-12.436,18.008-3.731,34.488-14.182,44.403-28.888-8.748,5.532-17.442,10.248-26.513,13.692-9.081,3.378-18.416,5.563-27.889,6.297-9.47,.765-19.027,.035-28.469-2.033-9.444-2.124-18.666-5.666-27.981-10.166,9.135,10.666,22.285,17.964,36.477,21.026,21.79,5.221-20.929,31.796-46.014,15.404Z" fill="#b5d8ff"/><path d="M772.329,615.183c-5.632-9.009-16.017-14.848-26.641-14.978,4.171-10.868,1.529-24.033-6.512-32.451-8.041-8.418-28.105-18.099-44.587-12.452-18.021-21.232-52.262-36.66-80.118-29.714-27.342,6.818-47.92,33.783-47.627,61.892-7.441-4.047-22.783-2.06-30.291,.92-12.199,4.842-22.92,16.633-27.115,30.224,7.277-12.876,19.528-14.847,32.322-11.75,4.669-13.814,20.87-18.782,34.035-12.513-.993-12.915,6.407-23.832,14.686-31.592,13.462-12.617,36.556-18.517,56.619-16.646,20.064,1.87,42.777,10.155,51.056,32.508,.662-5.712,.202-12.277-.452-15.575,10.817-4.074,24.133-.03,30.857,9.371,6.724,9.402,7.015,28.391-4.741,38.16,10.597-6.055,25.579-7.258,35.102-2.318,9.075,4.707,15.214,12.372,18.047,22.082-.186-5.178-1.624-10.344-4.64-15.168Z" fill="#fff"/></g><g opacity=".6"><path d="M1119.764,241.291c-20.812,10.737-32.548,36.575-26.939,59.312-10.207,3.625-20.628,7.366-29.073,14.149-8.445,6.783-14.693,17.298-13.479,28.062-8.12-.057-16.531-.056-23.939,3.268-7.409,3.323-13.543,10.952-12.435,18.996-13.682-5.518-31.121,1.573-37.07,15.074-4.395,.199-6.825,6.127-4.729,9.995,2.097,3.868,7.071,5.42,11.428,4.81,4.357-.61,8.257-2.935,12.023-5.211,3.731,9.411,13.117,16.312,23.213,17.067,2.53,.189,6.032-.079,8.537-.288,1.461,1.879,3.709,4.842,5.928,6.846,6.685,6.037,16.69,8.136,25.238,5.295,7.218-2.4,15.353-10.785,19.036-17.322,5.685,7.772,14.609,12.682,23.878,15.29,9.954,2.801,22.66,4.505,32.905,3.668,10.513-.859,24.633-4.697,30.02-11.528,7.13,12.158,26.518,14.444,36.28,4.277,3.785,12.121,18.307,18.343,30.862,16.432,12.554-1.911,23.263-10.019,32.403-18.835,13.433,11.114,28.918,20.672,46.189,23.059s36.533-3.764,45.968-18.424c13.396,4.125,29.136-7.303,29.362-21.318,5.802,6.491,16.057,7.833,24.056,4.396s13.784-10.894,16.78-19.068c1.43-3.902,2.295-8.218,1.111-12.202-3.238-10.896-17.953-12.161-29.285-11.263,4.671-6.745,.853-17.186-6.653-20.499-7.506-3.313-16.88-.096-21.977,6.333-14.612-23.622-50.153-30.931-72.901-14.992,2.591-8.703-.005-18.744-6.489-25.102-6.484-6.357-16.575-8.754-25.225-5.992-.9-15.242-6.79-25.742-8.576-29.037-5.856-10.804-16.092-18.414-27.845-21.234-9.144-2.194-19.437-2.715-28.642-.503-5.995,1.441-14.954,4.428-19.396,6.265-17.964-11.649-38.32-21.251-60.562-9.777Z" fill="#e6f5ff"/><path d="M983.528,394.956c4.357-.611,8.257-2.935,12.023-5.211,3.731,9.411,13.117,16.312,23.213,17.067,2.53,.189,6.032-.079,8.537-.288,1.461,1.879,3.709,4.842,5.929,6.846,6.685,6.038,16.689,8.137,25.238,5.295,7.218-2.399,15.353-10.784,19.036-17.321,5.685,7.771,14.609,12.681,23.878,15.29,9.954,2.801,22.66,4.505,32.905,3.668,10.513-.859,24.633-4.697,30.02-11.528,7.13,12.158,26.518,14.444,36.28,4.277,3.785,12.121,18.307,18.343,30.862,16.432,12.554-1.911,23.263-10.019,32.403-18.834,13.433,11.114,28.919,20.672,46.189,23.059,17.27,2.386,36.533-3.764,45.968-18.424,13.396,4.125,29.136-7.303,29.362-21.318,5.802,6.491,16.057,7.833,24.056,4.396,6.363-2.734,11.297-8.027,14.568-14.187-10.689,9.001-30.057,8.967-38.331-1.998,3.571-2.211,6.621-5.235,8.441-8.882-3.581,2.619-7.243,4.61-11.074,5.977-3.831,1.322-7.789,2.088-11.725,2.014-3.938,.015-7.883-.815-11.693-2.199-3.809-1.429-7.439-3.484-10.971-6.165,1.931,4.02,5.308,7.369,9.286,9.676,3.977,2.354,8.629,3.61,13.337,3.695,3.042-.001,6.049-.545,8.894-1.51-3.708,5.995-9.22,9.459-18.576,11.479-12.387,2.674-22.786-.813-30.843-10.595-14.129,8.393-31.803,1.282-40.128-11.587,3.885-2.717,7.215-6.161,9.544-10.158-4.663,3.903-9.704,6.922-15.06,8.99-5.355,2.023-10.99,3.167-16.606,3.079-5.618,.001-11.234-1.234-16.557-3.345-5.323-2.155-10.314-5.26-14.907-9.243,2.993,5.322,7.731,9.721,13.222,12.754,5.49,3.08,11.813,4.742,18.201,4.84,5.919,.011,11.777-1.381,17.016-3.954-9.442,16.625-35.653,25.524-48.104,11.927-39.943,11.044-74.29-16.017-74.865-45.849,.484-.079,.986-.151,1.46-.233,10.408-1.933,20.917-4.985,30.247-10.557,9.363-5.444,17.191-13.377,22.123-22.604-7.775,7.028-16.103,12.701-25.226,16.475-4.562,1.873-9.235,3.449-14.036,4.678-4.816,1.178-9.698,2.147-14.634,2.978-5.082,.785-9.655,1.415-14.44,1.318-4.766-.032-9.566-.657-14.307-1.769-9.529-2.168-18.753-6.204-27.866-11.43,6.389,8.376,15.453,14.86,25.687,18.667,1.201,.434,2.422,.829,3.653,1.194,5.125,2.468,7.225,4.052,7.412,9.755,.219,6.663-7.83,22.957-31.572,23.719-19.531,.627-35.947-6.567-53.358-17.184,4.087,6.499,9.911,11.344,16.583,14.575,33.23,14.929-27.438,35.804-53.044,7.977-1.114,8.066-16.005,7.091-19.901-1.537-2.366,6.819-15.773,9.811-18.788,4.036-.626,7.028-6.237,8.275-8.976,4.175-.575-.861-1.67-5.567,3.317-7.203-4.395,.199-6.826,6.127-4.729,9.995s7.071,5.42,11.428,4.81Z" fill="#b5d8ff"/><path d="M981.386,373.173c13.822-9.566,29.05-6.701,35.894-3.214,4.46-13.19,21.593-22.209,35.461-20.981,.396-11.372,10.881-23.136,26.747-25.123-17.535-5.528,8.211-18.192,22.6-10.405-1.307-11.824,6.834-22.574,15.088-26.766,8.579-3.103,16.638-4.845,24.807-5.86,8.135-1.023,16.278-1.211,24.381-.856,8.104,.388,16.177,1.329,24.166,3.055,8.019,1.754,15.839,4.155,23.953,8.347-4.193-8.243-12.127-14.3-20.499-18.268-1.554-.728-3.159-1.325-4.761-1.928,38.859-12.137,74.124,18.432,61.373,53.458-4.395,1.914-8.407,4.632-11.482,8.167,5.518-2.23,10.903-3.755,16.353-4.529,5.444-.767,10.901-.757,16.283-.128,5.378,.658,10.697,1.915,15.838,3.893,5.146,1.989,10.08,4.633,14.986,8-1.765-3.262-4.253-6.109-7.102-8.581,34.382-12.335,56.208,5.779,60.682,16.096-1.101,2.756-4.593,6.541-7.098,10.716,7.794-8.489,19.901-10.994,30.617-8.907,8.235,1.604,17.396,9.324,17.674,15.865,7.205-5.533,25.564-6.519,30.387,3.967-.09-.708-.214-1.411-.42-2.103-3.238-10.896-17.953-12.161-29.285-11.263,4.671-6.745,.853-17.186-6.653-20.499-7.506-3.313-16.88-.096-21.977,6.333-14.612-23.623-50.153-30.931-72.901-14.991,2.591-8.704-.004-18.745-6.489-25.102-6.484-6.357-16.574-8.754-25.225-5.992-.9-15.242-6.79-25.741-8.576-29.037-5.856-10.804-16.092-18.414-27.845-21.234-9.144-2.194-19.437-2.715-28.642-.503-5.995,1.441-14.954,4.428-19.396,6.266-17.964-11.649-38.32-21.251-60.562-9.777-20.812,10.737-32.548,36.575-26.939,59.312-10.207,3.625-20.628,7.366-29.073,14.149-8.445,6.783-14.693,17.298-13.479,28.062-8.12-.057-16.531-.056-23.94,3.268-7.409,3.323-13.543,10.952-12.435,18.996-11.072-4.466-24.6-.669-32.513,8.095Z" fill="#fff"/></g></svg>