<?xml version="1.0" encoding="UTF-8"?><svg id="a" xmlns="http://www.w3.org/2000/svg" viewBox="0 0 256 256"><path d="M171.752,183.025c7.696-1.597,16.592-1.073,24.948-.569,14.001,.853,26.47,1.67,29.185-7.56,3.787-12.863-18.297-16.605-33.246-17.673-7.345-.53-12.967-.411-12.967-.411l-7.92,26.213Z" fill="#fff"/><g opacity=".2"><path d="M171.752,183.025l7.92-26.213s5.622-.119,12.967,.411c3.069,4.756,6.927,11.869,7.437,18.194,13.295,.274,26.842-2.03,24.103-10.143,2.203,2.453,3.131,5.433,2.067,9.042-2.722,9.244-15.235,8.409-29.265,7.557l-.28,.583c-8.356-.504-17.252-1.027-24.948,.569Z" fill="#390075"/></g><path d="M222.617,181.77c2.3-1.405,3.991-3.456,4.859-6.406,1.016-3.452,.485-6.572-1.579-9.271-8.861-11.589-44.735-10.969-46.258-10.936-.916,.018-1.64,.777-1.621,1.69,.019,.915,.776,1.641,1.691,1.622,9.908-.207,37.047,1.121,43.557,9.637,1.406,1.839,1.743,3.907,1.032,6.323-2.327,7.905-13.871,7.204-27.239,6.391-8.679-.528-17.652-1.073-25.642,.584-.896,.187-1.471,1.063-1.285,1.959,.186,.896,1.063,1.471,1.959,1.285,7.556-1.567,16.306-1.036,24.768-.521,10.162,.617,19.921,1.211,25.759-2.357Z" fill="#390075"/><g><path d="M10.339,128.31c.889,1.887,1.95,3.784,3.182,5.638,5.633,8.509,14.76,16.227,26.485,18.595,3.706,.748,7.437,.761,11.033,.172,1.007-.158,2.004-.366,2.985-.621-1.048-2.768-3.396-6.565-8.624-8.528-7.756-2.912-21.985,5.778-35.061-15.256Z" fill="#33aef1"/><g opacity=".6"><path d="M11.084,127.642c.889,1.887,1.95,3.784,3.182,5.638,5.518,5.438,13.544,12.303,19.262,12.744,9.032,.693,12.189-.743,18.257,6.024,1.007-.158,2.004-.366,2.985-.621-1.048-2.768-3.396-6.565-8.624-8.528-7.756-2.912-21.985,5.778-35.061-15.256Z" fill="#fff"/></g><path d="M10.318,128.281c.01,.006,.014,.018,.021,.029,13.077,21.035,27.305,12.344,35.061,15.256,5.227,1.964,7.576,5.76,8.624,8.528,1.457-.368,2.882-.836,4.261-1.395,.955-.378,1.894-.8,2.805-1.262-1.106-4.757-3.858-11.745-10.615-14.097-10.612-3.693-15.58,1.831-26.533-2.142-5.005-1.816-12.079-8.659-15.972-22.69-.376,.91-.629,1.921-.767,3.017-.518,4.103,.589,9.389,3.115,14.755Z" fill="#fdd800"/><g opacity=".6"><path d="M7.203,113.525c2.166,7.192,6.687,19.215,13.256,21.753,9.509,3.674,13.776,2.585,21.446,2.262,6.842-.287,13.085,4.071,16.381,13.158,.955-.378,1.894-.8,2.805-1.262-1.106-4.757-3.858-11.745-10.615-14.097-10.612-3.693-15.58,1.831-26.533-2.142-5.005-1.816-12.079-8.659-15.972-22.69-.376,.91-.629,1.921-.767,3.017Z" fill="#fff"/></g><path d="M7.97,110.508c3.893,14.031,10.967,20.874,15.972,22.69,10.953,3.973,15.921-1.551,26.533,2.142,6.757,2.352,9.51,9.34,10.615,14.097,1.209-.608,2.38-1.276,3.503-2.008,1.25-.806,2.438-1.682,3.558-2.618-.128-4.656-1.227-12.577-6.816-16.976-8.255-6.498-28.889,.667-38.855-4.521-7.311-3.806-10.615-10.24-12.285-15.901-.532,.436-.992,.944-1.381,1.519-.333,.481-.61,1.004-.845,1.576Z" fill="#b177ea"/><g opacity=".6"><path d="M9.128,108.383c2.986,7.857,8.391,16.805,15.079,19.363,16.581,6.344,38.842-8.923,40.701,19.134,1.25-.806,2.438-1.682,3.558-2.618-.128-4.656-1.227-12.577-6.816-16.976-8.255-6.498-28.889,.667-38.855-4.521-7.311-3.806-10.615-10.24-12.285-15.901-.532,.436-.992,.944-1.381,1.519Z" fill="#fff"/></g><path d="M10.196,107.413c1.67,5.661,4.974,12.095,12.285,15.901,9.967,5.189,30.6-1.977,38.855,4.521,5.59,4.398,6.689,12.32,6.816,16.976,2.44-2.043,4.55-4.368,6.219-6.864,.613-.914,1.169-1.851,1.654-2.804-1.296-6.262-4.683-18.566-16.065-20.92-14.883-3.08-34.105,14.278-47.611-7.993-.482,.127-.975,.353-1.498,.696-.176,.118-.358,.245-.54,.391-.04,.028-.078,.065-.117,.097Z" fill="#fe6dcb"/><g opacity=".6"><path d="M11.479,105.827c2.238,3.805,4.894,7.313,8.528,9.748,4.724,3.169,10.618,4.16,16.308,4.07,5.689-.094,11.307-1.174,16.965-1.793,1.529-.167,3.076-.303,4.606-.166,4.98,.439,9.378,3.718,12.239,7.817,2.006,2.875,3.353,6.138,4.418,9.461,.156,.491,.29,1.17,.455,1.885,.613-.914,1.169-1.851,1.654-2.804-1.296-6.262-4.683-18.566-16.065-20.92-14.883-3.08-34.105,14.278-47.611-7.993-.482,.127-.975,.353-1.498,.696Z" fill="#fff"/></g><path d="M60.297,112.6c-5.365-1.111-11.193,.244-16.83,1.554-10.986,2.553-21.363,4.965-29.701-8.784-.381-.628-1.129-.93-1.84-.743l-.048,.013c-.854,.234-1.696,.679-2.57,1.359-.063,.047-.128,.101-.19,.155-1.152,.949-2.055,2.202-2.682,3.722h0c-1.934,4.696-1.042,11.839,2.384,19.109,.016,.033,.032,.066,.05,.097,4.78,10.095,15.37,21.965,30.806,25.083,4.814,.972,9.779,.814,14.759-.469,.201-.051,.403-.104,.603-.159,2.311-.632,4.595-1.512,6.795-2.621,2.643-1.324,5.127-2.951,7.38-4.833,3.526-2.953,6.39-6.476,8.285-10.187,.171-.335,.223-.72,.147-1.089-2.67-12.907-8.507-20.378-17.35-22.208Zm8.89,28.348c-.075-.561-.167-1.14-.278-1.73-.011-.057-.021-.113-.032-.17-.056-.286-.116-.575-.181-.866-.012-.053-.025-.107-.037-.16-.065-.284-.135-.569-.21-.856l-.018-.072c-.079-.298-.165-.598-.256-.898-.019-.063-.038-.125-.057-.187-.092-.297-.189-.594-.294-.891-.017-.047-.035-.095-.051-.142-.1-.28-.206-.56-.318-.839-.016-.039-.03-.078-.046-.117-.121-.296-.25-.59-.384-.882-.028-.061-.056-.122-.085-.182-.138-.294-.283-.585-.436-.874-.018-.034-.037-.067-.056-.101-.147-.272-.3-.541-.461-.807-.027-.044-.052-.088-.079-.132-.171-.278-.351-.552-.538-.822-.038-.055-.077-.109-.115-.164-.194-.274-.395-.544-.608-.808-.014-.017-.029-.034-.043-.051-.205-.252-.42-.498-.641-.74-.041-.045-.081-.09-.123-.135-.229-.244-.468-.481-.716-.713-.049-.046-.099-.09-.149-.135-.26-.237-.527-.468-.809-.69-4.725-3.719-12.523-3.364-20.781-2.988-6.817,.31-13.868,.631-18.284-1.668-.348-.182-.689-.371-1.024-.567-.119-.07-.232-.145-.349-.217-.212-.13-.425-.259-.632-.395-.136-.09-.267-.186-.401-.278-.181-.125-.363-.249-.539-.379-.138-.102-.27-.209-.405-.314-.165-.128-.332-.255-.493-.388-.135-.112-.266-.229-.399-.344-.154-.134-.308-.266-.458-.404-.131-.121-.258-.247-.387-.371-.144-.14-.289-.279-.429-.423-.126-.129-.248-.263-.371-.396-.136-.147-.272-.294-.405-.445-.12-.137-.236-.278-.353-.419-.129-.155-.257-.311-.383-.47-.113-.144-.224-.292-.334-.441-.122-.163-.243-.328-.361-.496-.107-.152-.211-.307-.315-.462-.115-.172-.229-.346-.341-.523-.1-.159-.198-.32-.295-.482-.109-.182-.216-.365-.321-.552-.093-.166-.185-.333-.276-.502-.102-.191-.203-.385-.301-.581-.086-.172-.172-.345-.255-.52-.096-.202-.19-.407-.283-.614-.079-.177-.158-.355-.235-.536-.091-.214-.178-.431-.265-.649-.072-.182-.145-.365-.214-.55-.069-.183-.134-.37-.2-.557,9.426,13.794,21.467,11.009,32.139,8.529,5.531-1.285,10.755-2.5,15.408-1.536,7.303,1.511,12.232,7.922,14.655,19.058-1.267,2.344-2.973,4.601-5.017,6.649-.017-.148-.035-.298-.055-.449-.007-.051-.014-.103-.021-.155Zm-2.956-1.464l.013,.062c.061,.314,.114,.624,.164,.93,.005,.033,.011,.067,.016,.1,.046,.295,.087,.586,.124,.873,.005,.042,.011,.084,.016,.125,.035,.279,.065,.552,.091,.82,.004,.044,.009,.089,.013,.133,.025,.262,.046,.518,.064,.768l.01,.135c.009,.129,.015,.251,.022,.377-1.527,1.244-3.166,2.362-4.894,3.337-.064-.215-.13-.431-.2-.648l-.007-.023c-.096-.299-.2-.6-.308-.901-.015-.042-.029-.083-.044-.124-.105-.289-.216-.578-.332-.867-.021-.052-.041-.103-.062-.155-.117-.287-.24-.574-.369-.859-.022-.05-.045-.099-.068-.149-.134-.291-.272-.582-.419-.87-.017-.034-.035-.068-.053-.102-.155-.301-.315-.6-.485-.896l-.006-.011c-.169-.295-.348-.587-.533-.875-.023-.036-.045-.072-.068-.108-.178-.274-.364-.544-.557-.81-.033-.046-.066-.091-.1-.137-.193-.261-.393-.518-.601-.77-.036-.043-.072-.086-.108-.128-.214-.255-.435-.505-.665-.748-.028-.029-.057-.058-.085-.087-.243-.253-.494-.501-.755-.74l-.005-.005c-.261-.238-.534-.466-.814-.688-.035-.027-.068-.056-.103-.083-.269-.209-.548-.409-.836-.602-.049-.033-.098-.066-.148-.099-.286-.187-.582-.366-.886-.536-.053-.029-.106-.058-.159-.086-.313-.169-.633-.33-.965-.479-.042-.019-.085-.036-.127-.054-.352-.154-.713-.3-1.087-.43-5.506-1.916-9.588-1.477-13.535-1.053-3.965,.427-7.709,.829-12.983-1.082-.145-.052-.291-.11-.44-.172-.061-.025-.123-.055-.184-.082-.089-.039-.177-.077-.267-.12-.07-.033-.141-.071-.211-.106-.083-.042-.166-.081-.251-.126-.075-.04-.152-.084-.228-.126-.081-.045-.162-.088-.243-.135-.077-.045-.155-.094-.232-.141-.083-.05-.165-.098-.248-.151-.078-.05-.157-.104-.236-.156-.084-.055-.167-.109-.251-.167-.081-.056-.163-.116-.244-.174-.083-.059-.166-.117-.25-.179-.084-.062-.168-.129-.252-.193-.082-.063-.164-.125-.247-.191-.085-.068-.17-.14-.256-.21-.083-.068-.166-.135-.249-.206-.084-.072-.169-.148-.254-.223-.085-.075-.17-.148-.255-.225-.086-.078-.172-.161-.258-.241-.084-.079-.168-.156-.252-.237-.087-.084-.174-.173-.262-.26-.084-.084-.168-.166-.252-.252-.087-.089-.174-.183-.261-.275-.084-.089-.169-.177-.253-.269-.087-.094-.173-.193-.259-.29-.085-.096-.17-.19-.255-.288-.086-.1-.173-.204-.259-.306-.085-.101-.169-.2-.254-.303-.087-.106-.174-.217-.26-.326-.084-.106-.168-.21-.252-.318-.086-.112-.172-.227-.258-.342-.084-.112-.168-.222-.251-.336-.086-.117-.171-.238-.256-.359-.083-.117-.167-.234-.249-.354-.085-.123-.169-.25-.254-.376-.083-.123-.165-.245-.247-.371-.084-.129-.168-.263-.252-.395-.081-.128-.162-.254-.242-.385-.084-.136-.167-.276-.251-.416-.08-.133-.159-.265-.238-.4-.083-.143-.166-.289-.248-.435-.078-.138-.156-.275-.233-.415-.082-.149-.163-.302-.244-.454-.077-.144-.153-.287-.229-.433-.08-.155-.16-.314-.24-.472-.075-.149-.15-.298-.225-.45-.079-.162-.157-.327-.235-.492-.073-.154-.146-.309-.219-.466-.078-.17-.155-.343-.232-.516-.07-.158-.141-.316-.21-.477-.077-.178-.152-.359-.228-.54-.068-.163-.136-.325-.203-.491-.075-.185-.149-.373-.222-.562-.066-.168-.131-.335-.196-.505-.073-.192-.144-.387-.216-.582-.064-.174-.127-.348-.19-.525-.07-.199-.139-.401-.208-.603-.061-.178-.121-.356-.181-.537-.068-.207-.135-.417-.202-.628-.058-.184-.116-.367-.173-.554-.054-.178-.108-.36-.161-.541,.088-.208,.183-.408,.285-.6,.059,.155,.122,.307,.183,.461,.096,.241,.195,.48,.296,.717,.079,.185,.159,.369,.241,.551,.106,.235,.215,.467,.326,.697,.084,.174,.167,.349,.254,.521,.118,.234,.241,.464,.364,.693,.085,.159,.169,.319,.257,.475,.138,.246,.282,.485,.427,.725,.079,.132,.156,.266,.237,.396,.206,.329,.418,.65,.636,.966,.024,.035,.046,.071,.07,.105,.242,.348,.492,.688,.749,1.02,.084,.109,.172,.212,.257,.319,.176,.221,.354,.442,.536,.656,.106,.124,.216,.244,.325,.366,.169,.19,.339,.379,.513,.563,.118,.125,.239,.246,.36,.368,.172,.174,.345,.346,.522,.514,.126,.12,.255,.238,.384,.355,.179,.163,.36,.322,.543,.479,.132,.113,.265,.225,.4,.336,.189,.154,.381,.305,.574,.454,.135,.104,.27,.208,.408,.309,.204,.15,.413,.295,.622,.438,.133,.092,.265,.185,.4,.274,.234,.154,.474,.301,.714,.447,.116,.071,.23,.145,.348,.214,.361,.212,.728,.417,1.103,.612,5.058,2.632,12.474,2.295,19.646,1.968,7.403-.337,15.059-.685,18.999,2.416,.297,.234,.579,.481,.849,.736,.016,.016,.034,.03,.05,.046,.258,.247,.502,.504,.736,.768,.024,.027,.05,.054,.074,.082,.226,.259,.439,.526,.644,.799,.027,.036,.055,.072,.082,.108,.198,.27,.386,.547,.565,.828,.027,.042,.053,.084,.08,.126,.175,.281,.34,.566,.497,.856,.024,.045,.048,.09,.072,.135,.154,.291,.3,.586,.437,.883,.021,.045,.041,.09,.061,.134,.136,.301,.264,.604,.384,.91,.016,.041,.031,.082,.047,.123,.119,.311,.232,.623,.336,.936,.011,.035,.022,.069,.033,.104,.105,.321,.203,.643,.293,.964l.017,.064c.186,.67,.34,1.338,.469,1.992Zm-13.251-1.362c.124,.087,.242,.181,.362,.272,.164,.124,.327,.249,.483,.38,.118,.099,.232,.203,.346,.306,.147,.133,.294,.267,.435,.406,.111,.11,.218,.222,.325,.336,.134,.142,.266,.285,.394,.431,.103,.118,.203,.238,.302,.359,.122,.15,.242,.301,.358,.455,.094,.125,.187,.25,.278,.377,.112,.157,.22,.316,.326,.477,.085,.129,.171,.259,.253,.39,.102,.164,.201,.33,.297,.497,.077,.132,.154,.264,.228,.398,.094,.171,.183,.344,.272,.518,.068,.133,.138,.265,.202,.399,.087,.179,.168,.359,.25,.54,.059,.13,.12,.26,.176,.391,.083,.193,.16,.386,.237,.58,.047,.119,.098,.237,.143,.356,.089,.234,.172,.468,.253,.701,.027,.078,.058,.157,.084,.235,.104,.308,.202,.615,.293,.919,.036,.119,.067,.237,.101,.355,.018,.062,.035,.124,.052,.186-1.562,.728-3.159,1.33-4.775,1.802-.052-.107-.104-.213-.16-.321-.038-.074-.079-.148-.119-.223-.067-.125-.136-.251-.208-.377-.045-.079-.093-.159-.14-.239-.073-.123-.148-.246-.226-.37-.051-.082-.104-.163-.157-.244-.082-.124-.167-.248-.253-.372-.056-.08-.111-.16-.169-.239-.094-.13-.194-.259-.294-.389-.057-.073-.112-.146-.171-.219-.121-.15-.249-.3-.379-.449-.044-.05-.085-.101-.13-.152-.178-.198-.363-.395-.557-.59-.042-.042-.089-.084-.132-.126-.154-.151-.31-.3-.474-.448-.075-.067-.155-.133-.232-.2-.139-.12-.28-.24-.427-.358-.09-.072-.184-.143-.277-.214-.143-.109-.289-.218-.439-.324-.101-.071-.203-.142-.307-.212-.153-.103-.309-.204-.469-.304-.108-.068-.217-.135-.329-.201-.168-.099-.341-.196-.517-.291-.111-.061-.221-.122-.336-.181-.197-.102-.402-.199-.609-.295-.101-.047-.199-.096-.302-.142-.314-.139-.637-.273-.973-.399-2.4-.902-5.266-.81-8.3-.713-1.875,.06-3.863,.122-5.93-.034-.025-.002-.051-.003-.076-.005-.198-.016-.397-.035-.597-.055-.065-.006-.128-.011-.193-.018-.146-.016-.294-.036-.441-.054-.119-.015-.238-.027-.357-.044-.109-.015-.219-.034-.328-.051-.159-.024-.317-.046-.476-.074-.096-.016-.193-.037-.289-.055-.173-.032-.347-.063-.521-.099-.093-.019-.186-.043-.279-.064-.179-.04-.357-.078-.537-.122-.096-.024-.193-.052-.289-.078-.177-.047-.354-.092-.532-.143-.097-.028-.195-.062-.292-.091-.178-.055-.356-.108-.534-.168-.092-.031-.184-.067-.276-.099-.185-.065-.369-.129-.555-.2-.093-.036-.187-.077-.28-.115-.185-.074-.37-.147-.555-.228-.088-.039-.177-.083-.266-.123-.191-.087-.382-.172-.573-.266-.088-.043-.177-.093-.266-.138-.192-.098-.384-.194-.576-.299-.093-.051-.187-.109-.28-.162-.188-.107-.376-.212-.565-.327-.092-.056-.184-.119-.277-.177-.19-.12-.381-.238-.571-.366-.092-.062-.184-.131-.276-.195-.191-.133-.382-.264-.574-.405-.094-.069-.188-.146-.281-.218-.19-.145-.38-.288-.57-.442-.099-.08-.199-.169-.298-.252-.185-.154-.369-.306-.554-.469-.106-.094-.212-.196-.318-.293-.179-.163-.357-.323-.536-.494-.109-.104-.217-.218-.326-.325-.176-.174-.352-.345-.528-.528-.117-.122-.235-.255-.352-.381-.167-.18-.335-.356-.502-.544-.121-.136-.242-.283-.363-.424-.164-.19-.327-.376-.491-.574-.127-.155-.255-.321-.382-.481-.157-.197-.314-.389-.471-.593-.133-.173-.265-.358-.397-.537-.151-.204-.303-.403-.454-.615-.041-.058-.083-.121-.124-.18-.446-.804-.858-1.603-1.228-2.389-.016-.033-.032-.065-.049-.096-1.69-3.604-2.699-7.188-2.969-10.305,.124,.305,.249,.606,.375,.902,.011,.026,.022,.053,.033,.079,.245,.571,.498,1.122,.754,1.662,.044,.093,.088,.187,.132,.279,.248,.514,.5,1.011,.756,1.496,.051,.096,.102,.191,.153,.286,.261,.484,.524,.956,.792,1.412,.037,.062,.074,.122,.11,.183,.267,.447,.536,.882,.809,1.301,.023,.036,.046,.074,.07,.109,.281,.429,.566,.84,.852,1.24,.051,.072,.102,.144,.154,.214,.28,.384,.561,.755,.845,1.112,.052,.066,.105,.13,.157,.195,.29,.36,.582,.709,.875,1.041,.028,.032,.057,.062,.085,.094,.288,.323,.577,.633,.866,.929,.033,.034,.066,.069,.099,.103,.294,.298,.588,.58,.882,.851,.054,.049,.107,.099,.161,.148,.289,.262,.577,.511,.865,.747,.05,.041,.1,.08,.15,.12,.297,.24,.593,.469,.888,.682l.045,.032c.291,.209,.58,.403,.867,.585,.039,.025,.077,.051,.115,.075,.283,.177,.564,.34,.842,.493,.052,.029,.104,.057,.156,.085,.275,.147,.547,.283,.816,.406,.043,.02,.086,.038,.129,.057,.28,.125,.558,.24,.83,.339,5.857,2.123,10.09,1.668,14.184,1.227,3.821-.411,7.429-.799,12.366,.919,.364,.127,.714,.27,1.054,.425,.113,.052,.219,.113,.33,.168,.221,.11,.442,.219,.652,.34,.126,.072,.244,.153,.366,.229,.185,.115,.37,.23,.546,.354Zm-29.877,4.12c.224,.099,.448,.19,.671,.28,.11,.044,.221,.092,.331,.134,.312,.12,.624,.232,.934,.337,.019,.007,.039,.014,.058,.021,.329,.109,.656,.209,.982,.302,.112,.032,.223,.059,.335,.089,.215,.058,.43,.115,.644,.166,.13,.031,.259,.059,.388,.088,.195,.044,.39,.086,.584,.124,.133,.026,.266,.051,.399,.076,.191,.035,.381,.067,.571,.097,.13,.021,.259,.041,.388,.06,.196,.028,.391,.053,.585,.077,.119,.015,.239,.031,.358,.044,.223,.025,.443,.045,.664,.065,.087,.008,.175,.017,.262,.024,.303,.024,.604,.044,.902,.061,.092,.005,.182,.008,.274,.012,.211,.01,.422,.019,.631,.025,.118,.004,.234,.006,.352,.008,.181,.004,.361,.008,.539,.009,.123,.001,.245,.002,.367,.002,.172,0,.344,0,.514,0,.12,0,.239-.002,.358-.003,.173-.002,.345-.005,.517-.008,.112-.002,.224-.004,.336-.007,.188-.004,.373-.009,.557-.014,.09-.003,.18-.005,.269-.007,.265-.008,.527-.016,.785-.024,2.881-.092,5.368-.171,7.271,.543,.274,.103,.537,.212,.794,.326,.08,.035,.157,.073,.235,.109,.175,.081,.347,.163,.514,.249,.085,.044,.169,.088,.252,.133,.157,.085,.311,.171,.461,.259,.076,.045,.153,.09,.228,.136,.164,.101,.322,.204,.477,.308,.052,.035,.106,.069,.157,.104,.204,.142,.401,.287,.59,.436,.03,.024,.058,.048,.088,.072,.157,.125,.309,.252,.455,.381,.057,.05,.111,.101,.167,.151,.116,.106,.23,.212,.339,.319,.057,.056,.114,.112,.169,.169,.106,.107,.208,.216,.307,.325,.049,.053,.099,.106,.146,.16,.116,.131,.227,.263,.335,.396,.025,.03,.051,.06,.076,.091,.131,.164,.255,.328,.374,.493,.032,.044,.061,.088,.092,.132,.085,.121,.168,.242,.248,.363,.038,.059,.075,.117,.112,.176,.068,.108,.135,.217,.199,.325,.035,.059,.07,.119,.104,.178,.048,.083,.092,.166,.137,.249-3.944,.802-7.854,.823-11.651,.056-6.87-1.387-12.703-4.672-17.402-8.749,.057,.026,.114,.049,.172,.074Z" fill="#390075"/></g><path d="M128.194,206.208c36.999-.465,52.354-17.75,57.473-35.336,4.487-15.363,1.155-30.96-2.367-35.755,0,0-26.586,6.389-68.472-5.094-3.383-.924-6.607-1.615-9.678-2.093-34.933-5.412-49.827,16.805-51.122,30.185-1.407,14.551,4.834,48.967,74.166,48.093Z" fill="#fff"/><g opacity=".2"><path d="M55.327,160.985c4.08,15.917,20.264,35.766,73.13,35.098,21.421-.271,35.584-6.18,44.708-14.52,4.174-3.815,1.948-10.735-3.662-11.442-2.166-.273-4.349-.618-6.545-1.037-29.224-5.577-51.784-22.45-57.809-41.153,3.072,.478,6.295,1.169,9.678,2.093,41.886,11.483,68.472,5.094,68.472,5.094,2.006,2.731,3.948,8.969,4.421,16.669,.325-2.848,.424-5.628,.347-8.262,4.386,19.768-.455,61.775-58.416,62.508-64.863,.816-74.505-29.251-74.326-45.049Z" fill="#390075"/></g><path d="M62.566,188.224c-10.709-11.646-10.691-25.048-10.187-30.27,.703-7.269,5.195-17.615,15.694-24.851,8.341-5.748,23.298-11.226,47.194-4.675,40.92,11.218,67.385,5.139,67.648,5.077h0c.648-.154,1.327,.094,1.721,.631,4.588,6.249,8.426,27.374-.597,45.474-6.305,12.648-21.107,27.817-55.823,28.255-.878,.011-1.748,.016-2.612,.016-29.838,0-51.039-6.609-63.038-19.657Zm51.826-56.601c-22.667-6.214-36.676-1.141-44.438,4.208-9.574,6.598-13.674,16.213-14.276,22.442-.462,4.779-.478,17.046,9.327,27.708,11.682,12.704,32.917,18.961,63.17,18.571,26.156-.33,44.448-9.466,52.899-26.419,7.917-15.881,5.239-34.646,1.461-41.16-5.605,1.098-30.68,4.922-68.143-5.349Zm68.905,3.493h0Z" fill="#390075"/><path d="M151.655,193.692c.4,.034,.8,.08,1.201,.13l.005-.002c20.671,2.484,44.679,20.422,52.953,7.832,2.067-3.143,2.046-6.264,.651-9.252l-.002-.005c-6.014-12.896-37.558-23.406-37.558-23.406l-17.25,24.703Z" fill="#fff"/><g opacity=".2"><path d="M152.861,193.821c20.671,2.484,44.679,20.422,52.953,7.832,2.067-3.143,2.046-6.264,.651-9.252,.3,9.805-17.634,6.103-31.424,.767-13.572-5.253-21.917,.466-22.18,.653Z" fill="#451661"/></g><path d="M168.732,169.514c1.91,1.561,3.995,2.582,6.11,3.53,2.104,.972,4.255,1.821,6.386,2.721,2.134,.894,4.206,1.919,6.248,2.988,2.04,1.071,4.041,2.206,5.979,3.422,1.933,1.221,3.807,2.522,5.542,3.95,1.737,1.422,3.338,2.986,4.604,4.708,1.257,1.716,2.14,3.627,2.187,5.514,.022,.941-.152,1.872-.51,2.77-.079,.227-.187,.447-.3,.667-.1,.223-.229,.438-.362,.651l-.195,.321-.225,.294-.443,.592c-1.284,1.455-3.006,2.386-5.054,2.641-2.027,.293-4.233,.102-6.423-.326-4.399-.864-8.775-2.455-13.146-4.05-4.375-1.61-8.771-3.297-13.29-4.743l-1.7-.532-1.715-.5c-1.151-.313-2.283-.703-3.45-.999-1.158-.314-2.357-.505-3.571-.562-1.214-.047-2.461,.08-3.697,.571-.317,.126-.472,.485-.346,.803,.046,.114,.121,.208,.214,.274l.032,.023c.544,.39,1.088,.65,1.63,.89,.542,.236,1.084,.452,1.63,.613,.547,.153,1.093,.329,1.645,.46,.275,.07,.552,.126,.83,.187,.276,.07,.555,.128,.834,.185,1.118,.213,2.244,.444,3.349,.747l1.656,.48,1.651,.516c4.399,1.406,8.747,3.074,13.155,4.696,4.414,1.605,8.869,3.245,13.668,4.194,2.394,.461,4.919,.721,7.534,.349,.651-.06,1.304-.267,1.954-.423,.323-.098,.641-.236,.96-.355l.477-.187c.156-.071,.305-.161,.458-.242,.303-.167,.608-.332,.906-.506l.833-.623c.136-.108,.282-.205,.407-.322l.366-.364c.241-.245,.492-.484,.719-.739l.613-.809,.303-.407,.262-.428c.176-.284,.346-.572,.49-.882,.155-.301,.301-.607,.42-.932,.51-1.273,.781-2.686,.743-4.085-.032-1.403-.382-2.758-.888-3.99-.511-1.235-1.184-2.355-1.934-3.383-1.51-2.051-3.298-3.773-5.175-5.315-1.879-1.546-3.859-2.918-5.883-4.196-2.027-1.272-4.1-2.448-6.204-3.552-2.104-1.105-4.242-2.127-6.369-3.17-2.128-1.04-4.284-2.028-6.524-2.799-1.117-.391-2.243-.761-3.414-1.004-1.171-.245-2.36-.424-3.628-.381-.325,.011-.58,.284-.569,.609,.006,.176,.089,.331,.214,.434l.005,.004Z" fill="#390075"/><path d="M17.931,181.916c4.048,6.707,14.629,4.225,19.482,3.37,4.853-.855,9.375,8.861,23.839,5.132,5.598-1.444,9.736-4.739,12.746-8.395,5.482-6.662,7.221-14.516,7.221-14.516l-13.598-20.709c-25.44-3.751-43.06,11.501-48.688,23.72-2.14,4.639-2.549,8.84-1.003,11.397Z" fill="#fff"/><g opacity=".2"><path d="M17.931,181.916c4.048,6.707,14.629,4.225,19.482,3.37,4.853-.855,9.375,8.861,23.839,5.132,5.598-1.444,9.736-4.739,12.746-8.395l.004-.01s5.495-6.007,6.201-13.13c0,0-18.741,20.808-37.228,4.331,0,0-18.426,9.36-24.042-2.696-2.14,4.639-2.549,8.84-1.003,11.397Z" fill="#390075"/></g><path d="M75.505,179.061c-2.238,1.824-4.135,3.665-6.207,5.285-2.08,1.588-4.293,2.967-6.732,3.878-.603,.246-1.23,.415-1.858,.604-.643,.166-1.29,.317-1.939,.431-1.298,.232-2.603,.359-3.896,.354-2.589-.007-5.106-.572-7.458-1.697-1.185-.548-2.328-1.229-3.52-1.96-.599-.364-1.205-.744-1.872-1.113-.667-.366-1.388-.732-2.252-.995-.215-.065-.45-.114-.675-.167-.242-.035-.481-.075-.73-.09-.254,0-.505-.027-.763,.01l-.385,.043c-.071,.008-.123,.016-.161,.024l-.132,.024-2.072,.376c-1.361,.243-2.706,.448-4.043,.58-2.657,.256-5.346,.225-7.627-.571-1.127-.407-2.127-.997-2.901-1.808-.393-.385-.735-.883-.999-1.334-.237-.428-.405-.931-.505-1.478-.207-1.096-.123-2.346,.106-3.582,.245-1.241,.632-2.489,1.138-3.703,1.005-2.435,2.402-4.752,4.021-6.9,3.248-4.304,7.386-7.963,12.007-10.787,4.629-2.822,9.766-4.802,15.097-5.802,1.334-.242,2.676-.443,4.028-.573,1.352-.122,2.712-.142,4.068-.112,1.356,.019,2.71-.002,4.079-.041,1.373-.082,2.753-.183,4.221-.611l.016-.005c.318-.093,.501-.426,.408-.744-.043-.149-.141-.269-.263-.344-1.316-.805-2.727-1.258-4.16-1.508-1.434-.244-2.892-.337-4.346-.283-2.905,.159-5.801,.44-8.664,.965-5.719,1.072-11.241,3.199-16.209,6.23-4.964,3.036-9.399,6.95-12.928,11.622-1.759,2.338-3.296,4.869-4.438,7.633-.574,1.379-1.031,2.827-1.329,4.344-.277,1.52-.415,3.122-.11,4.798,.153,.833,.423,1.684,.866,2.487,.44,.76,.914,1.423,1.516,2.032,1.172,1.227,2.664,2.088,4.177,2.628,1.523,.53,3.072,.775,4.586,.864,1.516,.086,3.005,.022,4.466-.118,1.46-.143,2.895-.364,4.3-.615l2.076-.377,.127-.023c.048-.01,.083-.014,.099-.014l.139-.014c.09-.023,.193,.004,.289-.005,.101,.006,.209,.029,.316,.038,.116,.033,.227,.051,.347,.088,.978,.295,2.146,1.03,3.341,1.759,1.202,.736,2.477,1.501,3.844,2.134,2.718,1.307,5.816,2.011,8.848,2.009,1.518,.007,3.02-.147,4.488-.401,.366-.069,.736-.125,1.097-.206l1.085-.244c.724-.188,1.461-.372,2.173-.622,1.432-.476,2.839-1.064,4.151-1.822,1.312-.755,2.542-1.644,3.656-2.649,2.24-1.989,4.043-4.457,4.916-7.31,.093-.304-.078-.627-.382-.72-.19-.058-.386-.013-.53,.102l-.007,.006Z" fill="#390075"/><g><path d="M104.869,114.409c-2.013,25.448,24.194,43.041,58.026,45.717,33.832,2.676,62.478-10.578,64.491-36.026,2.013-25.448-23.37-53.454-57.202-56.13-33.832-2.676-63.302,20.991-65.315,46.44Z" fill="#fff"/><g opacity=".2"><path d="M162.314,159.989c33.829,2.674,62.477-10.58,64.489-36.03,.015-.16,.026-.318,.034-.481-7.012,19.929-32.85,29.996-62.735,27.635-33.781-2.674-59.959-20.214-58.039-45.599-.942,2.87-1.547,5.799-1.78,8.756-2.012,25.45,24.195,43.042,58.03,45.719Z" fill="#390075"/></g><path d="M162.764,161.778c-17.177-1.359-32.561-6.56-43.32-14.646-11.625-8.737-17.236-20.098-16.227-32.853,1.022-12.924,8.819-25.668,21.391-34.968,13.08-9.675,29.312-14.289,45.705-12.993,16.393,1.296,31.697,8.405,43.094,20.016,10.954,11.16,16.651,24.972,15.629,37.896-1.009,12.755-8.336,23.092-21.19,29.893-7.098,3.755-15.658,6.238-25.058,7.341-6.356,.746-13.097,.861-20.025,.313Zm-36.185-79.803c-11.801,8.729-19.112,20.599-20.059,32.565-1.826,23.092,21.409,41.159,56.505,43.935,6.943,.549,13.518,.434,19.618-.281,24.739-2.905,41.626-15.7,43.091-34.224,1.853-23.429-21.566-51.65-55.681-54.348-4.288-.339-8.561-.254-12.766,.24-11.09,1.302-21.689,5.443-30.708,12.113Z" fill="#390075"/><path d="M164.333,86.156c.976,.281,2.095,.468,3.371,.525,6.48,.292,9.134-3.028,9.613-5.497-1.826,1.251-6.776,4.276-12.985,4.972Z" fill="#fe6dcb"/><path d="M161.65,84.96c.571,.375,1.233,.706,1.999,.979,.22,.08,.448,.154,.683,.215,6.21-.695,11.16-3.72,12.986-4.971,.029-.113,.041-.228,.057-.34,.211-1.753,.223-4.24,.053-7.056,0,0-6.125,5.401-15.503,6.253-1.068,.096-2.175,.137-3.322,.099,.092,1.498,.948,3.441,3.048,4.821Z" fill="#33aef1"/><g opacity=".6"><path d="M161.65,84.96c.038-1.69,.136-3.332,.274-4.92-1.068,.096-2.175,.137-3.322,.099,.092,1.498,.948,3.441,3.048,4.821Z" fill="#fff"/></g><path d="M158.602,80.139c1.146,.038,2.254-.003,3.322-.099,9.377-.852,15.503-6.253,15.503-6.253-.17-2.846-.531-6.035-1.053-9.147,0,0-3.724,4.925-13.381,7.812-1.201,.36-2.494,.689-3.881,.97-.377,2.602-.566,4.908-.518,6.576,.001,.046,.003,.097,.008,.142Z" fill="#fdd800"/><g opacity=".6"><path d="M158.602,80.139c1.146,.038,2.254-.003,3.322-.099,.238-2.679,.607-5.208,1.069-7.588-1.201,.36-2.494,.689-3.881,.97-.377,2.602-.566,4.908-.518,6.576,.001,.046,.003,.097,.008,.142Z" fill="#fff"/></g><path d="M159.111,73.421c1.387-.281,2.68-.61,3.881-.97,9.657-2.886,13.381-7.812,13.381-7.812-.563-3.364-1.327-6.641-2.269-9.312,0,0-3.036,4.44-8.414,7.153-1.408,.713-2.974,1.306-4.693,1.667-.822,3.16-1.474,6.401-1.887,9.273Z" fill="#b177ea"/><g opacity=".6"><path d="M159.111,73.421c1.387-.281,2.68-.61,3.881-.97,.716-3.7,1.665-7.031,2.698-9.971-1.408,.713-2.974,1.306-4.693,1.667-.822,3.16-1.474,6.401-1.887,9.273Z" fill="#fff"/></g><path d="M160.97,63.908c1.719-.362,3.284-.954,4.693-1.667,5.379-2.713,8.414-7.153,8.414-7.153-.768-2.198-1.652-3.982-2.647-5.066-.643-.704-1.336-1.116-2.069-1.148-3.245-.146-6.354,7.185-8.391,15.034Z" fill="#fe6dcb"/><g opacity=".6"><path d="M160.554,64.2c1.719-.362,3.284-.954,4.693-1.667,1.926-5.494,4.155-9.619,5.768-12.219-.643-.704-1.336-1.116-2.069-1.148-3.245-.146-6.354,7.185-8.391,15.034Z" fill="#fff"/></g><path d="M178.005,64.364c-.615-3.676-1.423-6.991-2.336-9.586-1.679-4.811-3.708-7.205-6.202-7.319-4.778-.21-8.113,8.731-10.074,16.273-.825,3.182-1.489,6.45-1.922,9.451-.397,2.741-.581,5.113-.533,6.859,.002,.096,.007,.191,.017,.283v.004c.009,.115,.021,.231,.036,.348,.006,.046,.014,.1,.023,.154,.017,.11,.033,.2,.051,.29,.014,.071,.028,.134,.042,.198,.022,.097,.046,.191,.072,.286,.021,.079,.034,.127,.049,.177,.044,.149,.094,.297,.149,.448,.01,.027,.027,.07,.044,.113,.047,.121,.094,.234,.145,.348l.058,.126,.023,.05c.05,.104,.103,.209,.158,.313l.087,.161c.068,.122,.147,.253,.229,.383,.016,.027,.04,.064,.065,.1,.08,.124,.19,.282,.308,.437,.009,.012,.046,.059,.055,.07,.104,.134,.206,.259,.315,.383l.079,.089,.018,.02c.109,.121,.223,.24,.342,.358l.077,.077c.308,.297,.641,.576,.993,.831,.01,.007,.057,.04,.067,.048l.08,.056c.072,.052,.144,.103,.22,.153,.054,.034,.096,.061,.14,.086l.205,.126c.144,.086,.29,.169,.44,.249,.073,.04,.136,.074,.201,.107,.142,.072,.291,.142,.442,.21l.049,.023c.06,.028,.119,.055,.181,.082,.176,.075,.354,.144,.534,.211,.058,.024,.11,.044,.164,.064,.285,.103,.556,.188,.817,.256,1.105,.318,2.368,.516,3.716,.578,.968,.043,1.875,.01,2.72-.089,5.112-.6,7.974-3.618,8.59-6.72,.029-.13,.049-.262,.068-.392l.007-.051c.136-1.124,.196-2.471,.183-4.047-.006-.817-.032-1.693-.078-2.603l-.009-.171c-.01-.19-.019-.381-.031-.576-.178-2.983-.549-6.207-1.075-9.323Zm-2.272,16.255l-.007,.005c-.095,.06-.198,.123-.301,.186-.059,.036-.114,.071-.176,.108-.132,.079-.273,.162-.416,.245-.04,.023-.076,.045-.117,.069-.186,.107-.38,.216-.583,.327-.058,.032-.121,.064-.18,.096-.148,.08-.298,.16-.455,.241-.084,.044-.174,.087-.261,.131-.139,.07-.278,.14-.423,.21-.099,.048-.202,.096-.304,.144-.141,.066-.282,.133-.427,.198-.109,.05-.222,.099-.334,.148-.145,.064-.291,.127-.441,.189-.119,.05-.239,.099-.361,.148-.151,.061-.304,.121-.459,.181-.125,.048-.251,.096-.379,.143-.159,.059-.321,.116-.484,.172-.13,.045-.26,.09-.393,.134-.169,.056-.342,.11-.515,.163-.131,.041-.262,.082-.395,.121-.187,.055-.378,.106-.569,.157-.125,.034-.248,.069-.375,.101-.228,.058-.461,.11-.695,.162-.094,.021-.186,.044-.281,.064-.329,.069-.664,.133-1.002,.189-.054,.009-.11,.015-.165,.024-.15-.036-.301-.071-.446-.112-.203-.054-.381-.11-.582-.182l-.111-.044c-.142-.053-.273-.103-.397-.156l-.162-.074c-.111-.05-.214-.098-.313-.149l-.111-.059c-.13-.07-.23-.126-.326-.184l-.209-.128c-.06-.038-.098-.066-.137-.093l-.07-.05-.049-.034c-.233-.168-.447-.347-.641-.535l-.049-.05c-.075-.074-.145-.147-.212-.221l-.015-.016-.039-.044c-.072-.082-.134-.159-.194-.236l-.035-.045c-.07-.093-.135-.184-.195-.277l-.039-.061c-.036-.057-.082-.134-.125-.211l-.039-.072c-.037-.069-.064-.123-.089-.176,.263-.011,.522-.028,.78-.046,.097-.007,.196-.011,.292-.018,.375-.029,.745-.065,1.109-.107,.031-.004,.061-.009,.093-.012,.065-.008,.129-.017,.193-.026,.333-.043,.662-.09,.987-.143,.081-.013,.163-.026,.244-.04,.368-.063,.731-.131,1.088-.206,.057-.012,.113-.025,.169-.037,.315-.068,.626-.14,.931-.216,.071-.018,.143-.035,.213-.053,.342-.088,.678-.18,1.008-.277,.054-.016,.107-.033,.161-.049,.289-.086,.572-.176,.85-.268,.066-.022,.132-.043,.196-.065,.312-.106,.617-.214,.915-.326,.053-.02,.103-.04,.155-.06,.258-.098,.511-.198,.758-.299,.061-.025,.122-.05,.183-.075,.279-.116,.551-.234,.815-.353,.052-.023,.102-.047,.153-.07,.224-.102,.443-.206,.657-.309,.057-.028,.115-.055,.172-.083,.243-.12,.479-.239,.707-.359,.051-.027,.1-.054,.151-.08,.189-.1,.372-.2,.551-.299,.053-.029,.107-.059,.159-.088,.206-.116,.404-.231,.595-.344,.05-.03,.097-.058,.146-.088,.153-.092,.301-.183,.444-.272,.047-.03,.095-.059,.142-.089,.071-.045,.138-.088,.206-.132,.003,.16,.008,.328,.009,.484,.011,1.425-.04,2.62-.151,3.557Zm-6.517-29.846c.035-.004,.068-.005,.101-.004,.522,.024,1.729,1.042,3.049,4.617l-.017,.02c-.077,.093-.162,.193-.252,.298-.025,.029-.051,.059-.077,.088-.074,.086-.153,.175-.236,.267-.029,.032-.056,.063-.085,.095-.106,.117-.218,.238-.336,.363-.032,.034-.066,.069-.099,.104-.096,.1-.196,.203-.3,.308-.04,.041-.08,.081-.122,.123-.135,.134-.274,.271-.421,.41-.035,.034-.073,.068-.109,.102-.121,.113-.245,.228-.373,.344-.051,.046-.102,.092-.154,.138-.163,.145-.33,.29-.505,.437-.033,.028-.068,.055-.101,.083-.15,.125-.304,.25-.463,.375-.059,.047-.119,.093-.179,.14-.187,.145-.378,.29-.575,.433l-.065,.047c-.192,.138-.391,.276-.593,.412-.065,.044-.131,.087-.197,.131-.193,.127-.389,.252-.591,.375-.034,.021-.067,.042-.101,.063-.229,.138-.465,.273-.705,.405-.069,.038-.139,.076-.209,.113-.206,.11-.415,.218-.628,.323-.05,.025-.099,.05-.149,.074-.255,.123-.516,.24-.781,.353-.07,.03-.141,.058-.212,.087-.145,.06-.293,.115-.441,.171,2.363-8.022,4.786-11.163,5.926-11.297Zm6.521,22.633l-.04,.03-.065,.047c-.26,.189-.576,.408-.94,.647l-.109,.071c-.182,.118-.375,.24-.58,.366-.033,.02-.069,.041-.102,.062-.196,.119-.402,.241-.617,.365-.031,.018-.059,.035-.09,.052-.232,.132-.478,.267-.732,.403-.054,.029-.108,.057-.163,.086-.264,.138-.535,.278-.821,.416l-.064,.03c-.273,.132-.558,.263-.85,.394-.054,.024-.106,.048-.16,.072-.307,.134-.624,.267-.95,.397-.057,.023-.115,.045-.172,.067-.334,.13-.676,.258-1.03,.381l-.024,.009c-.358,.124-.729,.242-1.107,.356-.067,.02-.134,.04-.201,.06-.377,.111-.763,.216-1.158,.314-.044,.011-.09,.021-.134,.031-.379,.092-.766,.176-1.161,.254-.049,.01-.098,.02-.147,.03-.412,.078-.834,.147-1.263,.207-.079,.011-.158,.021-.238,.032-.439,.058-.884,.108-1.338,.145l-.045,.003c-.387,.03-.783,.046-1.18,.059,.037-1.218,.168-2.7,.383-4.33,.371-.086,.736-.174,1.092-.266,.073-.019,.143-.039,.216-.058,.355-.093,.703-.189,1.044-.287,.141-.041,.279-.083,.418-.124,.272-.082,.541-.164,.804-.249,.138-.044,.276-.089,.412-.134,.282-.094,.557-.189,.828-.286,.098-.035,.2-.069,.297-.105,.358-.131,.707-.264,1.047-.4,.092-.037,.179-.074,.27-.111,.251-.102,.499-.206,.74-.31,.116-.05,.23-.101,.344-.152,.215-.096,.426-.192,.632-.289,.106-.05,.213-.099,.316-.149,.242-.116,.478-.233,.708-.351,.055-.028,.113-.056,.167-.084,.279-.144,.549-.289,.811-.434,.082-.045,.161-.091,.241-.136,.182-.102,.36-.205,.533-.307,.09-.053,.178-.106,.266-.159,.165-.1,.325-.199,.482-.298,.075-.047,.151-.094,.224-.141,.219-.141,.433-.281,.636-.42l.048-.034c.192-.131,.375-.261,.553-.389,.065-.047,.126-.092,.188-.138,.127-.093,.25-.185,.369-.276,.063-.048,.125-.095,.185-.142,.12-.093,.235-.185,.348-.276,.046-.038,.095-.076,.14-.113,.054-.044,.105-.087,.157-.13,.261,1.929,.457,3.851,.579,5.691Zm-12.447-8.486c.21-.068,.417-.138,.622-.212,.095-.034,.191-.068,.285-.104,.233-.087,.462-.179,.688-.273,.053-.022,.107-.043,.16-.065,.274-.117,.543-.239,.807-.364,.077-.037,.152-.075,.228-.112,.191-.093,.379-.188,.564-.286,.087-.046,.173-.092,.259-.138,.184-.1,.365-.201,.543-.304,.068-.039,.137-.078,.204-.117,.238-.141,.472-.284,.699-.429,.049-.032,.097-.064,.145-.096,.181-.117,.359-.236,.533-.355,.074-.051,.147-.102,.22-.153,.151-.106,.299-.213,.445-.32,.067-.049,.134-.098,.199-.147,.191-.143,.378-.287,.559-.431l.037-.029c.192-.153,.377-.306,.558-.459,.059-.05,.117-.1,.175-.15,.124-.106,.245-.212,.363-.317,.059-.053,.118-.105,.177-.158,.125-.113,.246-.225,.364-.336,.04-.037,.081-.075,.12-.112,.151-.143,.295-.284,.435-.423,.048-.048,.093-.094,.14-.142,.092-.093,.183-.185,.27-.276,.054-.056,.107-.112,.159-.167,.023-.024,.047-.049,.069-.073,.507,1.831,.965,3.907,1.352,6.146l-.01,.011c-.092,.093-.194,.192-.307,.299l-.026,.025c-.108,.102-.227,.211-.354,.324l-.061,.055c-.136,.121-.284,.247-.442,.379l-.072,.06c-.155,.128-.319,.26-.495,.397l-.042,.033c-.184,.142-.382,.29-.588,.439-.038,.028-.077,.055-.115,.083-.424,.304-.896,.621-1.415,.944-.049,.031-.098,.061-.148,.092-.26,.159-.53,.32-.813,.481-.036,.021-.075,.042-.112,.062-.263,.148-.537,.297-.82,.445-.052,.027-.102,.054-.155,.081-.308,.159-.629,.318-.961,.475-.066,.031-.134,.063-.202,.094-.319,.149-.648,.297-.989,.443-.033,.014-.065,.029-.098,.043-.362,.154-.74,.304-1.127,.453-.088,.034-.177,.067-.266,.101-.395,.148-.799,.294-1.219,.435-.037,.012-.076,.024-.113,.036-.392,.13-.798,.256-1.212,.38-.101,.03-.201,.06-.304,.09-.363,.105-.74,.205-1.12,.303,.362-2.089,.829-4.263,1.37-6.413,.186-.051,.371-.103,.553-.159,.096-.03,.191-.061,.287-.092Z" fill="#390075"/><path d="M145.317,79.482s-3.504-21.686-12.254-21.97c-8.75-.284-16.426,29.673-16.195,36.944,0,0,13.361,1.338,28.449-14.974Z" fill="#fff"/><path d="M145.862,79.394c.593-1.59,.501-3.076,.255-4.524-.232-1.454-.678-2.86-1.172-4.249-.5-1.387-.967-2.789-1.525-4.171-.557-1.382-1.185-2.749-1.94-4.081-.758-1.329-1.638-2.633-2.788-3.812-1.138-1.165-2.679-2.219-4.541-2.588l-.701-.08c-.118-.011-.232-.025-.353-.032l-.385,.006c-.258,0-.506,.049-.758,.079-.24,.057-.492,.1-.719,.18-.932,.294-1.723,.766-2.402,1.287-1.35,1.057-2.341,2.292-3.219,3.55-1.737,2.53-3.007,5.208-4.146,7.917-1.126,2.714-2.08,5.474-2.922,8.263-.841,2.79-1.57,5.608-2.175,8.465-.152,.714-.292,1.432-.427,2.153-.131,.721-.328,1.433-.471,2.161-.146,.727-.192,1.477-.116,2.242,.092,.761,.319,1.568,.958,2.314,.253,.296,.699,.331,.995,.078,.024-.021,.047-.043,.068-.067l.04-.046c.605-.687,.916-1.314,1.143-1.98,.211-.662,.347-1.334,.409-2.025,.067-.69,.109-1.392,.236-2.081,.122-.69,.261-1.378,.406-2.066,.582-2.753,1.29-5.491,2.105-8.191,.815-2.699,1.738-5.365,2.81-7.948,1.077-2.572,2.293-5.099,3.808-7.3,.755-1.091,1.602-2.103,2.519-2.814,.456-.351,.925-.609,1.361-.747,.11-.044,.215-.05,.322-.083,.104-.003,.209-.037,.31-.03l.153-.005,.182,.023c.122,.015,.245,.027,.368,.036,.963,.2,1.931,.782,2.786,1.66,.855,.875,1.604,1.959,2.262,3.118,.659,1.162,1.232,2.405,1.747,3.682,.512,1.278,.982,2.589,1.327,3.941,.349,1.351,.651,2.714,1.093,4.047,.417,1.34,.929,2.659,2.006,3.895l.017,.019c.23,.264,.631,.292,.896,.062,.082-.071,.142-.162,.178-.257Z" fill="#390075"/><g><path d="M137.79,77.364s-.94-10.697-4.706-10.608c-3.766,.089-7.863,15.194-7.955,18.806,0,0,5.726,.314,12.661-8.198Z" fill="#fe6dcb"/><path d="M133.045,65.1c-1.565,.036-3.979,1.028-6.877,9.184-1.455,4.094-2.639,9.03-2.695,11.236-.023,.896,.671,1.647,1.565,1.696,.056,.003,.378,.016,.918-.048,2.055-.241,7.274-1.584,13.118-8.758,.272-.335,.403-.762,.366-1.191-.252-2.872-1.46-12.235-6.395-12.119Zm-5.994,18.461c.382-2.059,1.146-5.024,2.111-7.805,1.969-5.674,3.582-7.244,3.992-7.347,.917-.019,2.405,3.799,2.919,8.43-3.788,4.477-7.084,6.12-9.021,6.722Z" fill="#390075"/></g><path d="M192.173,81.584s5.431-21.285,14.172-20.785c8.741,.5,13.704,31.024,12.823,38.245,0,0-13.427,.137-26.994-17.461Z" fill="#fff"/><path d="M192.708,81.72c1.183-1.135,1.811-2.402,2.347-3.7,.559-1.288,.983-2.618,1.451-3.933,.464-1.316,1.05-2.579,1.674-3.806,.627-1.225,1.309-2.412,2.07-3.511,.76-1.095,1.603-2.109,2.533-2.903,.93-.798,1.946-1.291,2.924-1.404,.124,.002,.246,0,.369-.003l.183-.006,.152,.019c.102,.002,.203,.045,.306,.057,.103,.043,.208,.058,.313,.112,.423,.176,.866,.475,1.289,.866,.849,.79,1.603,1.874,2.257,3.028,1.312,2.328,2.297,4.954,3.139,7.612,.836,2.669,1.517,5.406,2.087,8.168,.569,2.762,1.029,5.553,1.363,8.347,.083,.698,.16,1.397,.22,2.094,.065,.697,.044,1.4,.048,2.093,0,.694,.075,1.376,.226,2.054,.166,.684,.42,1.336,.961,2.074l.034,.046c.23,.314,.672,.382,.987,.152,.026-.019,.053-.042,.076-.064,.703-.686,1.001-1.47,1.162-2.219,.144-.756,.166-1.506,.085-2.244-.077-.738-.211-1.465-.276-2.195-.07-.73-.145-1.457-.232-2.182-.346-2.9-.82-5.772-1.408-8.626-.59-2.853-1.293-5.688-2.171-8.491-.891-2.8-1.917-5.582-3.42-8.257-.762-1.331-1.638-2.65-2.888-3.824-.63-.579-1.375-1.12-2.277-1.496-.219-.1-.466-.166-.7-.244-.249-.052-.491-.124-.748-.146l-.383-.041c-.12-.004-.236,0-.354,0l-.705,.017c-1.887,.201-3.516,1.112-4.754,2.171-1.251,1.072-2.244,2.292-3.118,3.547-.871,1.259-1.619,2.565-2.297,3.891-.679,1.327-1.27,2.68-1.892,4.018-.617,1.339-1.187,2.7-1.548,4.127-.375,1.421-.6,2.892-.151,4.529,.093,.338,.442,.537,.78,.445,.105-.029,.196-.082,.27-.152l.02-.019Z" fill="#390075"/><g><path d="M199.512,80.407s2.296-10.749,6.377-10.398c4.081,.351,6.735,15.908,6.404,19.566,0,0-6.26-.08-12.782-9.168Z" fill="#fe6dcb"/><path d="M208.9,70.045c-.863-1.03-1.828-1.597-2.869-1.687-5.275-.449-7.705,9.669-8.139,11.703-.097,.456,.002,.932,.274,1.312,6.93,9.656,13.816,9.855,14.106,9.858,.073,0,.145-.003,.216-.011,.767-.09,1.383-.707,1.455-1.496,.314-3.475-1.617-15.588-5.044-19.678Zm1.709,17.484c-2.017-.675-5.574-2.513-9.314-7.493,.979-4.049,2.901-8.21,4.307-8.375,.049-.006,.097-.006,.144-.002,.329,.035,1.872,1.385,3.404,7.342,.776,3.02,1.294,6.333,1.459,8.528Z" fill="#390075"/></g><path d="M211.403,115.068c2.19-.888,4.362-1.641,6.563-2.283,2.196-.643,4.402-1.203,6.641-1.599,2.235-.396,4.487-.74,6.771-.894,1.141-.126,2.288-.155,3.446-.22,.582-.065,1.158-.032,1.743-.055,.584-.016,1.172-.035,1.768-.081-.561-.182-1.131-.338-1.705-.489-.574-.147-1.151-.304-1.736-.388-1.17-.169-2.351-.375-3.541-.393-2.38-.149-4.777,.065-7.126,.487-2.353,.419-4.646,1.151-6.825,2.112-2.166,.979-4.259,2.179-5.998,3.804Z" fill="#390075"/><path d="M211.751,121.019c2.347-.28,4.64-.434,6.932-.474,2.287-.042,4.564-.001,6.828,.207,2.261,.206,4.524,.468,6.767,.922,1.134,.179,2.248,.453,3.383,.695,.578,.091,1.125,.275,1.696,.406,.568,.139,1.14,.275,1.727,.387-.494-.324-1.002-.624-1.516-.921-.515-.293-1.03-.596-1.573-.832-1.084-.472-2.169-.981-3.313-1.312-2.257-.77-4.626-1.195-7.003-1.407-2.38-.216-4.785-.113-7.14,.24-2.347,.374-4.682,.98-6.789,2.09Z" fill="#390075"/><path d="M210.698,128.59c2.351,.246,4.621,.602,6.865,1.071,2.24,.465,4.451,1.008,6.613,1.711,2.159,.701,4.308,1.457,6.396,2.395,1.067,.425,2.092,.939,3.145,1.426,.544,.216,1.037,.517,1.564,.77,.523,.261,1.051,.52,1.599,.76-.41-.425-.84-.83-1.275-1.233-.438-.4-.873-.809-1.35-1.159-.953-.7-1.899-1.436-2.941-2.012-2.031-1.25-4.247-2.188-6.518-2.921-2.273-.737-4.642-1.168-7.016-1.345-2.372-.154-4.783-.079-7.083,.537Z" fill="#390075"/><path d="M136.632,118.34c-1.74-1.625-3.833-2.826-5.998-3.805-2.179-.961-4.472-1.694-6.825-2.113-2.349-.422-4.746-.636-7.126-.487-1.19,.018-2.371,.224-3.541,.393-.585,.085-1.162,.241-1.736,.388-.573,.152-1.143,.307-1.705,.489,.596,.046,1.184,.066,1.768,.081,.585,.024,1.161-.01,1.743,.056,1.158,.065,2.305,.094,3.446,.22,2.284,.154,4.536,.498,6.771,.894,2.239,.395,4.445,.956,6.641,1.599,2.201,.642,4.372,1.395,6.563,2.283Z" fill="#390075"/><path d="M136.284,124.29c-2.106-1.11-4.441-1.716-6.789-2.09-2.355-.353-4.76-.456-7.14-.24-2.377,.212-4.745,.637-7.003,1.407-1.144,.331-2.228,.84-3.313,1.312-.543,.236-1.058,.539-1.573,.832-.513,.297-1.022,.598-1.516,.921,.587-.113,1.159-.248,1.727-.387,.57-.131,1.117-.315,1.696-.406,1.135-.242,2.248-.516,3.382-.695,2.244-.453,4.507-.715,6.767-.921,2.264-.208,4.54-.249,6.828-.207,2.292,.04,4.585,.194,6.932,.474Z" fill="#390075"/><path d="M137.335,131.861c-2.3-.617-4.711-.692-7.083-.538-2.375,.176-4.743,.607-7.016,1.344-2.271,.732-4.487,1.67-6.519,2.92-1.042,.576-1.987,1.312-2.941,2.012-.477,.35-.912,.759-1.35,1.159-.435,.403-.865,.809-1.275,1.233,.548-.24,1.076-.499,1.599-.76,.527-.254,1.02-.554,1.564-.77,1.053-.487,2.078-1.001,3.145-1.426,2.088-.938,4.237-1.693,6.396-2.394,2.162-.704,4.373-1.246,6.613-1.711,2.244-.468,4.515-.824,6.866-1.07Z" fill="#390075"/><g><g opacity=".2"><path d="M164.097,130.374c2.692,3.52,5.616,4.664,8.304,4.632,5.314-.058,9.724-4.7,9.724-4.7,3.536,3.654,6.694,5.08,9.359,5.323,4.417,.403,7.49-2.44,8.702-3.823-10.68,1.363-15.549-4.403-15.549-4.403l-4.792-.2c-5.019,7.002-15.429,3.283-15.746,3.171Z" fill="#390075"/></g><path d="M172.401,135.006c.658,2.405,1.763,5.159,3.198,7.399,1.593,2.502,3.592,4.382,5.834,4.476,2.258,.094,4.428-1.624,6.233-4.005,1.631-2.153,2.972-4.85,3.818-7.246-2.664-.243-5.823-1.669-9.359-5.323,0,0-4.409,4.641-9.724,4.7Z" fill="#390075"/><g><path d="M175.599,142.405c1.593,2.502,3.592,4.382,5.834,4.476,2.258,.094,4.428-1.624,6.233-4.005-.778-2.385-3.073-4.167-5.862-4.283-2.797-.117-5.246,1.483-6.204,3.812Z" fill="#fb64c0"/><path d="M181.424,147.074c-2.071-.087-4.142-1.666-5.989-4.566l-.054-.085,.038-.093c1.016-2.468,3.585-4.047,6.392-3.932,2.788,.117,5.215,1.891,6.039,4.417l.032,.097-.062,.081c-1.74,2.293-3.562,3.655-5.33,3.999-.358,.069-.714,.097-1.065,.082Zm.371-8.288c-2.61-.11-4.999,1.334-5.978,3.6,1.242,1.927,3.209,4.199,5.623,4.3,2.442,.103,4.604-2.016,6.009-3.846-.804-2.321-3.063-3.946-5.653-4.054Z" fill="#390075"/></g><g><path d="M187.631,122.862c-1.019-1.468-8.834-2.064-10.234-.427-1.4,1.636,2.28,5.97,4.872,6.078,2.592,.108,6.492-4.022,5.362-5.651Z" fill="#390075"/><path d="M182.201,130.139c-2.533-.106-5.313-2.655-6.321-4.969-.87-1.998-.198-3.233,.28-3.792,1.253-1.466,4.203-1.638,6.458-1.525,1.899,.096,5.248,.494,6.35,2.081h0c.404,.583,.924,1.847-.132,3.766-1.055,1.919-3.358,3.92-5.599,4.355-.348,.068-.695,.098-1.036,.083Zm-3.475-6.686c.052,.289,.309,.914,.964,1.676,.953,1.11,2.075,1.735,2.647,1.758,.518,.02,1.567-.453,2.563-1.402,.739-.704,1.132-1.368,1.259-1.726-1.449-.723-6.209-.931-7.432-.306Zm-.137,.085h0Z" fill="#390075"/><g><path d="M178.19,122.425c-.026,.622,1.855,1.206,4.202,1.304,2.347,.098,4.27-.327,4.296-.949,.026-.622-1.855-1.206-4.202-1.304s-4.27,.327-4.296,.949Z" fill="#fff"/><path d="M182.383,123.939c-2.216-.093-4.44-.646-4.404-1.523h0c.018-.417,.503-.734,1.443-.942,.828-.183,1.92-.258,3.073-.209,1.152,.048,2.233,.213,3.044,.465,.919,.285,1.377,.641,1.359,1.059-.02,.471-.68,.794-1.631,.979-.821,.159-1.858,.215-2.885,.172Zm-2.87-2.054c-.87,.192-1.108,.443-1.113,.548-.013,.32,1.35,.974,4.001,1.085,2.653,.11,4.064-.428,4.077-.748,.004-.105-.212-.374-1.064-.639-.777-.241-1.82-.399-2.937-.446-1.04-.044-2.023,.015-2.795,.165-.058,.011-.114,.023-.169,.035Z" fill="#390075"/></g></g><path d="M194.341,136.974c3.46-.672,5.86-2.929,6.908-4.108,.023-.023,.045-.046,.066-.071,.428-.487,.663-.826,.689-.863,.468-.683,.294-1.616-.388-2.084-.681-.468-1.612-.295-2.081,.384h0s-.145,.207-.416,.52c-.021,.021-.041,.043-.061,.066-.975,1.113-3.65,3.663-7.439,3.318-2.695-.246-5.527-1.885-8.417-4.873-.284-.293-.675-.459-1.084-.457-.407,0-.798,.17-1.08,.467-.038,.04-4.053,4.18-8.653,4.234-2.633,.031-5.021-1.329-7.097-4.044-.012-.015-.024-.03-.036-.045l-.023-.027c-.172-.229-.344-.468-.515-.716-.47-.681-1.402-.852-2.085-.38-.681,.471-.851,1.404-.38,2.085,.215,.311,.43,.609,.646,.894,.023,.03,.046,.059,.071,.087,2.67,3.456,5.85,5.186,9.454,5.144,4.262-.047,7.911-2.63,9.672-4.129,3.067,2.87,6.175,4.465,9.256,4.746,1.07,.098,2.07,.031,2.994-.148Z" fill="#390075"/><path d="M181.369,148.378c-2.516-.105-4.949-1.892-7.033-5.165-1.381-2.155-2.613-5.002-3.382-7.812-.122-.448-.03-.928,.249-1.298,.28-.371,.716-.591,1.18-.596,4.6-.053,8.615-4.194,8.653-4.234,.282-.297,.673-.466,1.08-.467,.409-.002,.8,.163,1.084,.457,2.89,2.988,5.722,4.627,8.417,4.873,.461,.042,.876,.294,1.126,.684,.25,.389,.306,.872,.152,1.308-.977,2.766-2.447,5.555-4.036,7.652-1.939,2.557-4.033,4.086-6.125,4.492-.456,.088-.911,.124-1.365,.105Zm.722-16.001c-1.473,1.252-4.265,3.263-7.632,3.917-.029,.006-.059,.011-.089,.017,.667,1.942,1.541,3.806,2.492,5.289,1.514,2.378,3.159,3.722,4.632,3.783,1.494,.062,3.261-1.15,4.976-3.412,1.097-1.448,2.135-3.279,2.955-5.192-2.448-.654-4.904-2.127-7.334-4.401Z" fill="#390075"/></g><g><g><ellipse cx="201.254" cy="111.064" rx="6.689" ry="9.49" transform="translate(-2.433 4.527) rotate(-1.281)" fill="#390075"/><path d="M201.47,120.743c-3.792,.084-6.975-4.189-7.095-9.525h0c-.057-2.573,.597-5.011,1.841-6.863,1.259-1.873,2.97-2.927,4.821-2.969,3.792-.085,6.975,4.188,7.094,9.524,.111,4.98-2.483,9.153-5.912,9.758-.246,.043-.496,.069-.75,.074Zm-4.937-16.175c-1.201,1.788-1.832,4.147-1.776,6.642h0c.115,5.126,3.123,9.232,6.705,9.152,3.59-.085,6.404-4.317,6.289-9.443-.115-5.126-3.123-9.232-6.705-9.152-.236,.005-.47,.028-.701,.069-1.453,.256-2.787,1.206-3.812,2.731Z" fill="#390075"/></g><g><ellipse cx="205.119" cy="109.65" rx="2.021" ry="3.187" transform="translate(-2.4 4.613) rotate(-1.281)" fill="#fff"/><path d="M205.194,113.027c-1.219,.027-2.245-1.466-2.286-3.327-.02-.887,.182-1.728,.569-2.369,.403-.668,.962-1.044,1.567-1.057,.607-.014,1.18,.336,1.613,.986,.415,.623,.654,1.454,.674,2.341,.039,1.747-.802,3.208-1.914,3.404-.073,.013-.147,.02-.222,.022Zm-1.391-5.499c-.35,.58-.533,1.348-.514,2.163h0c.037,1.651,.887,2.977,1.897,2.955,1.014-.016,1.8-1.385,1.763-3.036-.018-.815-.235-1.575-.61-2.139-.358-.537-.815-.827-1.287-.816-.057,.001-.114,.007-.17,.017-.408,.072-.786,.37-1.079,.856Z" fill="#390075"/></g></g><g><g><ellipse cx="159.331" cy="111.273" rx="9.49" ry="6.689" transform="translate(42.477 266.557) rotate(-87.968)" fill="#390075"/><path d="M158.987,120.948c-3.791-.135-6.721-4.585-6.532-9.919h0c.092-2.572,.885-4.968,2.235-6.746,1.365-1.797,3.135-2.751,4.984-2.685,3.791,.135,6.721,4.584,6.532,9.918-.177,4.978-3.008,8.994-6.466,9.4-.248,.029-.499,.04-.753,.031Zm-3.994-16.434c-1.302,1.715-2.069,4.034-2.157,6.528h0c-.182,5.125,2.584,9.397,6.165,9.524,3.589,.122,6.643-3.94,6.824-9.064,.182-5.125-2.584-9.397-6.165-9.524-.236-.009-.471,.001-.704,.028-1.465,.172-2.852,1.043-3.963,2.506Z" fill="#390075"/></g><g><ellipse cx="162.954" cy="110.236" rx="3.187" ry="2.021" transform="translate(47.008 269.179) rotate(-87.968)" fill="#fff"/><path d="M162.834,113.612c-1.219-.044-2.156-1.593-2.09-3.454,.032-.886,.282-1.715,.705-2.332,.441-.644,1.02-.987,1.625-.965,.607,.022,1.159,.404,1.553,1.078,.378,.646,.569,1.49,.538,2.376-.062,1.746-.986,3.156-2.108,3.288-.073,.009-.148,.012-.223,.009Zm-1.071-5.57c-.383,.559-.61,1.315-.638,2.13h0c-.059,1.651,.714,3.023,1.723,3.059,1.013,.043,1.877-1.279,1.936-2.929,.029-.815-.143-1.586-.485-2.17-.326-.557-.766-.872-1.238-.889-.057-.002-.114,0-.17,.007-.412,.048-.806,.324-1.127,.792Z" fill="#390075"/></g></g></g></svg>