<?xml version="1.0" encoding="UTF-8"?><svg id="a" xmlns="http://www.w3.org/2000/svg" viewBox="0 0 256 256"><g><path d="M158.347,178.553c7.372,3.769,14.341,10.146,20.878,16.147,10.948,10.062,20.66,19.072,28.944,13.008,11.547-8.45-4.15-26.365-15.736-37.244-5.689-5.349-10.388-8.996-10.388-8.996l-23.699,17.084Z" fill="#fff"/><g opacity=".2"><path d="M158.347,178.553l23.699-17.084s4.698,3.646,10.388,8.996c-.596,6.104-2.089,14.745-5.819,20.481,10.747,9.098,23.392,16.164,26.461,7.416,.202,3.562-.989,6.723-4.23,9.092-8.299,6.072-18.036-2.984-29.008-13.064l-.612,.311c-6.537-6.001-13.506-12.379-20.878-16.147Z" fill="#390075"/></g><path d="M200.975,211.394c2.812,.334,5.546-.288,8.194-2.226,3.099-2.268,4.708-5.284,4.782-8.963,.316-15.795-29.575-39.184-30.848-40.171-.765-.595-1.858-.431-2.441,.361-.584,.794-.438,1.917,.326,2.511,8.279,6.429,29.714,25.656,29.48,37.262-.05,2.506-1.129,4.496-3.298,6.083-7.096,5.193-16.124-3.102-26.578-12.708-6.787-6.236-13.805-12.685-21.458-16.597-.859-.437-1.906-.074-2.341,.814-.435,.888-.091,1.964,.767,2.402,7.238,3.7,14.081,9.988,20.698,16.069,7.947,7.302,15.579,14.314,22.717,15.163Z" fill="#390075"/></g><g><path d="M11.021,112.963c-.198,2.077-.254,4.249-.141,6.473,.503,10.192,4.413,21.487,13.288,29.507,2.806,2.535,6.007,4.449,9.401,5.778,.947,.378,1.91,.708,2.884,.989,.512-2.915,.429-7.379-3.065-11.735-5.184-6.462-21.855-6.25-22.367-31.012Z" fill="#33aef1"/><g opacity=".6"><path d="M12.002,112.769c-.198,2.077-.254,4.249-.141,6.473,1.971,7.492,5.37,17.492,10.062,20.789,7.414,5.205,10.862,5.581,12.627,14.497,.947,.378,1.91,.708,2.884,.989,.512-2.915,.429-7.379-3.065-11.735-5.184-6.462-21.855-6.25-22.367-31.012Z" fill="#fff"/></g><path d="M11.018,112.927c.006,.01,.002,.022,.003,.036,.512,24.763,17.183,24.55,22.367,31.012,3.494,4.356,3.576,8.82,3.065,11.735,1.441,.427,2.905,.752,4.377,.975,1.015,.162,2.037,.279,3.056,.346,1.477-4.655,2.675-12.069-1.936-17.54-7.242-8.591-14.333-6.376-21.725-15.382-3.377-4.116-5.969-13.611-2.157-27.664-.788,.591-1.521,1.331-2.2,2.203-2.539,3.264-4.285,8.375-4.85,14.279Z" fill="#fdd800"/><g opacity=".6"><path d="M15.868,98.648c-1.807,7.29-4.055,19.937,.299,25.472,6.303,8.012,10.528,9.253,17.289,12.889,6.031,3.244,9.175,10.178,7.373,19.675,1.015,.162,2.037,.279,3.056,.346,1.477-4.655,2.675-12.069-1.936-17.54-7.242-8.591-14.333-6.376-21.725-15.382-3.377-4.116-5.969-13.611-2.157-27.664-.788,.591-1.521,1.331-2.2,2.203Z" fill="#fff"/></g><path d="M18.068,96.445c-3.811,14.053-1.22,23.548,2.157,27.664,7.392,9.006,14.483,6.79,21.725,15.382,4.611,5.471,3.412,12.885,1.936,17.54,1.35,.094,2.698,.117,4.038,.061,1.487-.055,2.955-.202,4.396-.435,2.266-4.069,5.363-11.442,2.801-18.077-3.783-9.801-25.185-14.168-31.108-23.716-4.345-7.004-3.903-14.223-2.45-19.944-.68,.104-1.334,.306-1.963,.601-.532,.244-1.038,.552-1.531,.924Z" fill="#b177ea"/><g opacity=".6"><path d="M20.148,95.208c-1.441,8.281-1.359,18.734,3.087,24.347,11.022,13.917,37.958,12.147,25.239,37.224,1.487-.055,2.955-.202,4.396-.435,2.266-4.069,5.363-11.442,2.801-18.077-3.783-9.801-25.185-14.168-31.108-23.716-4.345-7.004-3.903-14.223-2.45-19.944-.68,.104-1.334,.306-1.963,.601Z" fill="#fff"/></g><path d="M21.561,94.919c-1.453,5.721-1.895,12.94,2.45,19.944,5.924,9.548,27.325,13.915,31.108,23.716,2.563,6.635-.535,14.009-2.801,18.077,3.14-.512,6.142-1.435,8.851-2.73,.994-.473,1.95-.996,2.854-1.567,2.081-6.047,5.447-18.356-3.141-26.189-11.228-10.244-36.616-5.125-36.866-31.17-.479-.136-1.019-.194-1.643-.166-.211,.011-.433,.028-.663,.06-.049,.004-.1,.016-.15,.024Z" fill="#fe6dcb"/><g opacity=".6"><path d="M23.474,94.209c-.017,4.414,.477,8.787,2.36,12.735,2.446,5.136,7.009,8.996,11.948,11.823,4.94,2.823,10.324,4.76,15.505,7.115,1.4,.637,2.8,1.309,4.046,2.207,4.059,2.919,6.168,7.983,6.536,12.968,.258,3.496-.248,6.99-1.028,10.391-.116,.502-.348,1.154-.571,1.853,.994-.473,1.95-.996,2.854-1.567,2.081-6.047,5.447-18.356-3.141-26.189-11.228-10.244-36.616-5.125-36.866-31.17-.479-.136-1.019-.194-1.643-.166Z" fill="#fff"/></g><path d="M62.001,124.946c-4.047-3.693-9.751-5.502-15.266-7.252-10.751-3.41-20.906-6.632-21.06-22.711-.007-.734-.497-1.376-1.203-1.577l-.048-.013c-.854-.235-1.805-.282-2.904-.143-.078,.009-.162,.022-.242,.037-1.476,.228-2.891,.845-4.206,1.832h0c-4.059,3.052-6.937,9.65-7.7,17.65-.003,.037-.006,.073-.007,.109-1.041,11.121,2.009,26.733,13.694,37.292,3.644,3.292,7.995,5.69,12.932,7.128,.199,.059,.399,.116,.6,.171,2.31,.636,4.723,1.044,7.181,1.214,2.949,.21,5.915,.078,8.813-.39,4.539-.741,8.8-2.308,12.324-4.533,.318-.201,.559-.505,.682-.861,4.29-12.462,3.083-21.866-3.589-27.953Zm-6.82,28.916c.222-.521,.438-1.065,.644-1.63,.02-.054,.04-.108,.059-.163,.098-.275,.194-.554,.287-.837,.017-.052,.033-.105,.05-.157,.089-.277,.175-.558,.256-.843l.021-.071c.084-.297,.163-.599,.238-.903,.016-.063,.031-.127,.047-.19,.072-.302,.14-.607,.202-.916,.01-.049,.019-.099,.028-.148,.057-.292,.108-.587,.154-.884,.006-.041,.014-.082,.02-.124,.047-.316,.086-.635,.12-.955,.007-.067,.014-.133,.02-.2,.031-.323,.056-.648,.071-.974,.002-.038,.002-.077,.004-.116,.013-.309,.018-.619,.016-.93,0-.051,0-.103,0-.154-.005-.327-.02-.654-.043-.982-.005-.067-.01-.133-.016-.2-.027-.335-.062-.67-.11-1.005-.003-.022-.007-.044-.011-.065-.047-.321-.106-.643-.174-.964-.013-.06-.024-.119-.037-.179-.073-.327-.157-.653-.252-.978-.019-.064-.039-.128-.059-.192-.103-.336-.215-.672-.343-1.006-2.165-5.609-9.054-9.284-16.347-13.174-6.021-3.212-12.248-6.534-14.873-10.765-.207-.334-.404-.671-.591-1.01-.066-.121-.126-.243-.19-.364-.116-.22-.234-.439-.342-.662-.071-.147-.135-.296-.203-.444-.092-.2-.185-.399-.27-.601-.067-.158-.126-.318-.188-.477-.077-.195-.155-.389-.226-.586-.059-.165-.112-.333-.167-.499-.064-.193-.129-.386-.188-.581-.051-.171-.096-.344-.143-.517-.053-.194-.106-.387-.153-.583-.042-.176-.079-.353-.117-.53-.042-.196-.084-.392-.121-.59-.033-.179-.061-.36-.09-.54-.032-.199-.063-.399-.089-.6-.024-.182-.043-.366-.062-.549-.021-.203-.042-.406-.058-.61-.014-.185-.025-.372-.035-.558-.011-.207-.02-.415-.026-.623-.005-.187-.007-.376-.008-.565,0-.212,0-.424,.005-.638,.004-.19,.011-.381,.019-.572,.01-.217,.022-.435,.037-.654,.013-.192,.028-.384,.046-.577,.02-.223,.044-.447,.07-.673,.022-.193,.045-.386,.072-.581,.031-.23,.066-.461,.103-.693,.031-.194,.062-.387,.097-.583,.034-.192,.074-.387,.112-.581,1.067,16.673,12.843,20.422,23.287,23.735,5.413,1.717,10.525,3.339,14.035,6.541,5.51,5.026,6.477,13.055,2.878,23.868-2.285,1.369-4.904,2.44-7.708,3.158,.061-.136,.122-.274,.182-.414,.02-.048,.041-.096,.061-.143Zm-1.795-2.767l-.021,.06c-.108,.301-.22,.595-.334,.883-.012,.031-.024,.063-.037,.094-.111,.278-.224,.549-.339,.814-.017,.039-.033,.078-.05,.116-.112,.257-.226,.508-.34,.752-.019,.04-.038,.081-.056,.121-.112,.238-.225,.469-.337,.693l-.061,.121c-.058,.116-.116,.224-.173,.335-1.948,.291-3.928,.416-5.912,.372,.055-.218,.108-.437,.159-.659l.006-.024c.07-.306,.134-.618,.195-.932,.008-.043,.017-.086,.025-.13,.057-.302,.109-.607,.157-.915,.009-.055,.017-.11,.025-.165,.046-.307,.086-.616,.121-.927,.006-.054,.012-.108,.017-.162,.034-.319,.063-.639,.084-.962,.003-.038,.004-.076,.006-.115,.021-.338,.035-.677,.041-1.018v-.012c.005-.34,0-.682-.011-1.024-.001-.043-.002-.085-.004-.128-.013-.326-.036-.653-.066-.981-.005-.056-.01-.112-.016-.169-.032-.323-.073-.646-.123-.969-.009-.055-.018-.11-.027-.165-.054-.328-.116-.656-.19-.983-.009-.04-.019-.079-.029-.118-.08-.342-.169-.683-.272-1.022l-.002-.007c-.103-.338-.221-.673-.349-1.007-.016-.041-.03-.083-.046-.124-.125-.317-.263-.632-.411-.944-.025-.053-.051-.107-.077-.16-.151-.307-.314-.612-.489-.913-.03-.052-.062-.104-.093-.155-.183-.305-.376-.607-.586-.905-.026-.037-.055-.074-.081-.111-.224-.313-.46-.622-.716-.925-3.758-4.458-7.492-6.163-11.103-7.813-3.627-1.656-7.053-3.221-10.613-7.555-.098-.119-.194-.243-.29-.372-.039-.053-.078-.11-.116-.165-.056-.079-.113-.157-.169-.239-.043-.064-.085-.132-.128-.199-.051-.078-.102-.155-.151-.236-.044-.072-.088-.15-.131-.224-.047-.08-.094-.158-.14-.241-.043-.078-.085-.16-.128-.24-.045-.085-.092-.169-.136-.257-.042-.082-.082-.169-.123-.254-.044-.09-.088-.179-.131-.271-.041-.089-.081-.183-.121-.274-.041-.094-.083-.185-.123-.281-.04-.096-.079-.196-.118-.295-.038-.096-.078-.191-.115-.29-.039-.102-.075-.207-.113-.311-.036-.101-.074-.201-.109-.304-.036-.105-.07-.214-.105-.321-.035-.108-.07-.214-.104-.323-.034-.111-.066-.226-.099-.339-.032-.111-.065-.22-.096-.333-.032-.117-.062-.238-.092-.357-.029-.115-.06-.228-.088-.345-.029-.121-.056-.246-.084-.37-.027-.12-.055-.239-.08-.361-.026-.125-.05-.254-.075-.382-.024-.126-.05-.25-.073-.378-.023-.13-.044-.263-.066-.396-.021-.13-.044-.258-.063-.39-.02-.136-.039-.275-.057-.413-.018-.134-.037-.266-.054-.402-.017-.14-.032-.283-.047-.425-.015-.139-.031-.276-.044-.417-.014-.144-.025-.292-.037-.439-.012-.143-.024-.286-.034-.431-.01-.149-.018-.301-.026-.452-.008-.148-.017-.295-.023-.445-.007-.154-.011-.312-.015-.469-.004-.151-.01-.301-.012-.455-.003-.16-.003-.323-.004-.485,0-.155-.002-.309,0-.466,.001-.165,.005-.333,.009-.501,.003-.158,.006-.316,.011-.476,.006-.17,.014-.343,.022-.515,.007-.163,.014-.325,.024-.489,.01-.174,.023-.351,.035-.528,.012-.167,.023-.333,.036-.502,.015-.179,.032-.361,.049-.543,.016-.17,.031-.34,.05-.512,.02-.186,.042-.374,.064-.562,.02-.172,.04-.344,.062-.517,.025-.192,.052-.387,.08-.581,.025-.175,.049-.349,.076-.526,.03-.197,.063-.397,.096-.597,.029-.178,.058-.355,.09-.534,.035-.202,.074-.406,.112-.611,.034-.182,.068-.364,.105-.548,.041-.207,.085-.416,.129-.625,.039-.184,.077-.368,.119-.554,.047-.213,.097-.428,.147-.643,.044-.188,.088-.375,.134-.565,.044-.181,.091-.364,.138-.547,.182-.134,.366-.258,.551-.37-.028,.164-.052,.326-.078,.49-.04,.257-.077,.512-.111,.767-.026,.199-.051,.398-.074,.597-.029,.256-.053,.511-.076,.766-.017,.193-.034,.386-.047,.577-.018,.262-.03,.522-.041,.781-.008,.18-.017,.361-.021,.54-.006,.282-.005,.561-.003,.841,.001,.154-.002,.308,.002,.461,.009,.388,.028,.773,.054,1.155,.003,.042,.003,.085,.006,.126,.031,.423,.073,.843,.123,1.259,.017,.136,.04,.271,.058,.406,.039,.28,.079,.56,.127,.838,.028,.161,.062,.32,.093,.48,.048,.249,.098,.499,.154,.746,.038,.167,.08,.333,.122,.5,.059,.237,.12,.473,.187,.708,.047,.168,.097,.335,.148,.501,.071,.231,.145,.461,.222,.689,.056,.165,.113,.329,.173,.493,.083,.229,.172,.456,.262,.683,.063,.158,.126,.317,.193,.474,.099,.233,.205,.464,.311,.694,.068,.147,.133,.294,.204,.44,.123,.252,.254,.501,.386,.749,.064,.12,.124,.242,.19,.362,.202,.366,.413,.73,.636,1.089,3.006,4.845,9.556,8.339,15.891,11.718,6.539,3.488,13.3,7.095,15.106,11.773,.136,.353,.253,.709,.355,1.067,.006,.022,.014,.043,.02,.065,.096,.344,.175,.689,.241,1.036,.007,.036,.015,.072,.022,.108,.062,.338,.109,.676,.146,1.015,.005,.045,.011,.09,.015,.135,.033,.333,.053,.667,.063,1.001,.002,.05,.003,.099,.004,.149,.007,.331,.003,.661-.01,.99-.002,.051-.004,.102-.007,.153-.016,.329-.041,.657-.075,.983-.005,.049-.011,.098-.016,.147-.037,.328-.081,.654-.134,.978-.007,.044-.015,.087-.022,.13-.056,.328-.118,.654-.189,.976-.008,.036-.016,.071-.024,.106-.074,.33-.153,.657-.24,.979l-.018,.063c-.182,.671-.39,1.324-.614,1.952Zm-10.701-7.933c.062,.138,.116,.279,.173,.419,.077,.19,.154,.381,.222,.573,.051,.146,.095,.293,.141,.44,.059,.19,.117,.38,.167,.571,.04,.151,.074,.303,.109,.455,.043,.19,.084,.381,.119,.572,.028,.154,.053,.308,.077,.462,.029,.191,.054,.383,.076,.574,.017,.155,.033,.311,.046,.466,.016,.192,.028,.384,.037,.577,.008,.155,.015,.31,.018,.464,.004,.193,.004,.387,.002,.58-.001,.153-.002,.306-.007,.459-.006,.195-.018,.39-.03,.584-.009,.149-.017,.298-.029,.446-.017,.198-.039,.395-.061,.592-.016,.142-.029,.285-.048,.426-.027,.208-.06,.414-.092,.619-.02,.126-.037,.254-.059,.379-.043,.247-.091,.49-.14,.732-.016,.081-.03,.165-.048,.246-.068,.318-.14,.631-.217,.94-.03,.121-.063,.238-.094,.357-.016,.063-.033,.125-.05,.187-1.715-.171-3.396-.469-5.026-.887,.01-.118,.019-.237,.027-.358,.005-.083,.008-.168,.011-.252,.006-.142,.011-.285,.014-.431,.002-.091,.001-.184,.001-.277,0-.143-.002-.288-.006-.434-.003-.096-.006-.193-.011-.291-.007-.148-.017-.298-.028-.449-.007-.097-.014-.194-.023-.292-.015-.16-.034-.322-.055-.484-.012-.092-.021-.183-.035-.276-.028-.191-.061-.385-.097-.58-.012-.066-.021-.131-.034-.197-.052-.261-.111-.525-.178-.792-.015-.058-.033-.117-.049-.175-.055-.208-.114-.417-.18-.627-.03-.096-.065-.193-.098-.29-.059-.175-.119-.349-.185-.525-.041-.108-.085-.216-.129-.325-.067-.167-.137-.335-.212-.503-.05-.113-.102-.225-.156-.339-.079-.167-.162-.333-.248-.501-.059-.114-.118-.227-.18-.341-.094-.171-.194-.342-.296-.514-.065-.109-.128-.218-.196-.327-.118-.188-.245-.376-.373-.564-.063-.092-.122-.184-.187-.277-.199-.28-.408-.56-.633-.84-1.604-2-4.115-3.384-6.774-4.849-1.643-.905-3.385-1.866-5.082-3.055-.021-.015-.042-.028-.063-.043-.162-.114-.324-.233-.485-.352-.052-.038-.105-.075-.157-.114-.118-.088-.235-.181-.352-.271-.095-.073-.191-.145-.285-.22-.086-.068-.171-.141-.256-.211-.124-.102-.249-.201-.372-.306-.074-.063-.147-.13-.221-.195-.133-.116-.266-.231-.397-.351-.07-.064-.138-.132-.208-.197-.133-.125-.267-.249-.399-.379-.07-.069-.139-.143-.209-.214-.129-.13-.258-.26-.384-.395-.069-.074-.136-.152-.205-.228-.125-.138-.251-.274-.374-.417-.063-.073-.124-.152-.187-.226-.126-.15-.252-.299-.375-.455-.062-.078-.121-.162-.182-.242-.121-.158-.243-.315-.361-.479-.056-.078-.11-.162-.166-.241-.12-.172-.241-.343-.357-.521-.054-.082-.105-.17-.158-.254-.115-.182-.231-.363-.343-.551-.054-.092-.105-.189-.158-.282-.107-.188-.215-.375-.319-.57-.051-.095-.098-.196-.148-.293-.103-.2-.206-.399-.304-.606-.048-.1-.092-.207-.138-.309-.097-.212-.194-.422-.286-.641-.045-.107-.087-.222-.131-.331-.089-.222-.18-.441-.265-.671-.044-.12-.085-.247-.128-.369-.08-.227-.161-.451-.237-.686-.043-.135-.082-.277-.124-.415-.07-.231-.142-.46-.209-.698-.04-.145-.076-.298-.114-.446-.062-.24-.126-.476-.184-.724-.039-.165-.072-.339-.108-.507-.052-.24-.106-.477-.154-.725-.035-.179-.064-.367-.096-.549-.044-.247-.09-.49-.129-.744-.031-.198-.055-.406-.083-.608-.035-.249-.072-.494-.102-.751-.026-.216-.045-.443-.068-.665-.026-.253-.055-.501-.077-.761-.006-.071-.009-.147-.015-.218,.027-.919,.08-1.816,.163-2.682,.003-.036,.006-.072,.007-.108,.385-3.962,1.347-7.559,2.705-10.377-.049,.325-.095,.648-.138,.968-.004,.028-.008,.057-.012,.085-.081,.617-.145,1.219-.2,1.814-.009,.102-.02,.206-.029,.308-.049,.568-.086,1.125-.113,1.673-.005,.109-.01,.217-.014,.325-.023,.549-.037,1.09-.039,1.618,0,.072,.001,.142,.001,.214,.001,.521,.011,1.032,.032,1.532,.002,.043,.002,.087,.004,.13,.023,.513,.058,1.011,.1,1.501,.008,.088,.015,.176,.023,.263,.045,.473,.098,.936,.159,1.387,.011,.083,.024,.166,.036,.248,.066,.458,.139,.907,.221,1.341,.008,.042,.017,.082,.025,.124,.083,.425,.173,.838,.27,1.241,.011,.046,.021,.093,.033,.139,.101,.407,.21,.799,.324,1.182,.021,.07,.042,.14,.063,.209,.115,.373,.236,.734,.362,1.084,.022,.061,.045,.12,.067,.18,.133,.358,.271,.706,.416,1.04l.023,.05c.144,.328,.293,.642,.447,.946,.021,.041,.041,.083,.061,.123,.153,.297,.311,.58,.473,.854,.03,.051,.06,.102,.091,.152,.162,.267,.326,.522,.495,.765,.027,.039,.055,.076,.082,.115,.178,.25,.357,.491,.541,.715,3.954,4.814,7.826,6.583,11.572,8.294,3.495,1.597,6.797,3.104,10.166,7.101,.248,.295,.477,.596,.689,.903,.071,.103,.131,.209,.198,.313,.134,.207,.268,.414,.387,.625,.071,.126,.132,.256,.198,.384,.1,.194,.201,.387,.289,.584Zm-27.797-11.703c.143,.199,.288,.392,.434,.584,.072,.094,.143,.192,.216,.284,.207,.263,.418,.518,.631,.766,.013,.015,.026,.032,.039,.048,.227,.262,.457,.514,.69,.76,.08,.085,.161,.165,.242,.248,.155,.16,.311,.318,.469,.471,.096,.093,.192,.183,.289,.274,.146,.137,.292,.273,.439,.405,.101,.091,.203,.18,.305,.269,.146,.127,.293,.252,.441,.375,.101,.084,.202,.168,.303,.25,.154,.124,.309,.245,.464,.365,.095,.074,.19,.148,.285,.22,.179,.135,.358,.265,.538,.395,.071,.051,.142,.105,.213,.155,.248,.176,.497,.346,.745,.512,.076,.051,.153,.1,.229,.15,.177,.116,.354,.232,.53,.344,.1,.063,.199,.124,.298,.186,.153,.096,.306,.191,.459,.283,.105,.064,.21,.127,.315,.189,.148,.088,.295,.176,.443,.262,.104,.061,.207,.121,.31,.18,.15,.087,.299,.172,.449,.257,.098,.055,.195,.111,.292,.166,.163,.092,.325,.182,.487,.272,.078,.044,.157,.088,.235,.131,.232,.128,.461,.255,.688,.38,2.525,1.391,4.704,2.592,5.975,4.177,.183,.228,.353,.457,.516,.685,.051,.071,.098,.143,.147,.214,.109,.159,.215,.318,.315,.476,.051,.081,.1,.162,.149,.243,.092,.153,.18,.306,.264,.458,.043,.078,.086,.155,.127,.233,.089,.17,.173,.339,.252,.508,.027,.057,.056,.113,.082,.17,.103,.226,.198,.452,.285,.676,.014,.036,.025,.071,.039,.107,.071,.187,.137,.374,.197,.56,.023,.072,.044,.143,.066,.215,.046,.15,.089,.299,.129,.448,.021,.077,.04,.154,.059,.231,.036,.146,.069,.291,.099,.436,.015,.071,.03,.142,.044,.212,.033,.172,.061,.342,.086,.511,.006,.039,.013,.078,.019,.117,.029,.207,.052,.412,.07,.615,.005,.054,.008,.107,.012,.16,.011,.148,.021,.294,.028,.439,.003,.07,.005,.139,.007,.209,.004,.128,.006,.255,.005,.381,0,.069,0,.138-.001,.206-.002,.096-.005,.19-.009,.284-3.801-1.323-7.175-3.301-10.048-5.897-5.2-4.699-8.541-10.5-10.501-16.404,.036,.051,.073,.1,.11,.151Z" fill="#390075"/></g><path d="M127.635,206.629c36.999-.465,52.354-17.75,57.473-35.336,4.487-15.363,1.155-30.96-2.367-35.755,0,0-26.586,6.389-68.472-5.094-3.383-.924-6.607-1.615-9.678-2.093-34.933-5.412-49.827,16.805-51.122,30.185-1.407,14.551,4.834,48.967,74.166,48.093Z" fill="#fff"/><g opacity=".2"><path d="M54.768,161.406c4.08,15.917,20.264,35.766,73.13,35.098,21.421-.271,35.584-6.18,44.708-14.52,4.174-3.815,1.948-10.735-3.662-11.442-2.166-.273-4.349-.618-6.545-1.037-29.224-5.577-51.784-22.45-57.809-41.153,3.072,.478,6.295,1.169,9.678,2.093,41.886,11.483,68.472,5.094,68.472,5.094,2.006,2.731,3.948,8.969,4.421,16.669,.325-2.848,.424-5.628,.347-8.262,4.386,19.768-.455,61.775-58.416,62.508-64.863,.816-74.505-29.251-74.326-45.049Z" fill="#390075"/></g><path d="M62.007,188.645c-10.709-11.646-10.691-25.048-10.187-30.27,.703-7.269,5.195-17.615,15.694-24.851,8.341-5.748,23.298-11.226,47.194-4.675,40.92,11.218,67.385,5.139,67.648,5.077h0c.648-.154,1.327,.094,1.721,.631,4.588,6.249,8.426,27.374-.597,45.474-6.305,12.648-21.107,27.817-55.823,28.255-.878,.011-1.748,.016-2.612,.016-29.838,0-51.039-6.609-63.038-19.657Zm51.826-56.601c-22.667-6.214-36.676-1.141-44.438,4.208-9.574,6.598-13.674,16.213-14.276,22.442-.462,4.779-.478,17.046,9.327,27.708,11.682,12.704,32.917,18.961,63.17,18.571,26.156-.33,44.448-9.466,52.899-26.419,7.917-15.881,5.239-34.646,1.461-41.16-5.605,1.098-30.68,4.922-68.143-5.349Zm68.905,3.493h0Z" fill="#390075"/><g><path d="M148.811,191.944c.364,.171,.722,.352,1.081,.539h.005c18.525,9.503,34.817,34.656,46.945,25.72,3.03-2.23,4.092-5.165,3.821-8.451v-.005c-1.166-14.181-27.102-34.985-27.102-34.985l-24.75,17.183Z" fill="#fff"/><g opacity=".2"><path d="M149.897,192.482c18.525,9.503,34.817,34.656,46.945,25.72,3.03-2.23,4.092-5.165,3.821-8.451-3.121,9.3-18.656-.395-29.738-10.185-10.906-9.636-20.717-7.168-21.029-7.084Z" fill="#451661"/></g><path d="M173.216,175.194c1.25,2.127,2.851,3.808,4.505,5.431,1.636,1.641,3.358,3.184,5.045,4.768,1.691,1.579,3.279,3.26,4.823,4.97,1.542,1.712,3.025,3.471,4.42,5.284,1.389,1.815,2.695,3.686,3.827,5.628,1.136,1.937,2.095,3.959,2.684,6.013,.583,2.046,.748,4.145,.138,5.93-.306,.89-.792,1.703-1.44,2.421-.153,.186-.33,.355-.513,.521-.172,.174-.367,.331-.565,.485l-.294,.234-.313,.197-.621,.402c-1.709,.919-3.647,1.194-5.657,.723-2.003-.428-4.005-1.373-5.91-2.535-3.826-2.337-7.378-5.347-10.924-8.36-3.545-3.028-7.082-6.136-10.819-9.06l-1.41-1.088-1.435-1.064c-.971-.693-1.897-1.452-2.888-2.134-.977-.697-2.035-1.291-3.154-1.766-1.122-.466-2.336-.779-3.666-.747-.341,.008-.611,.291-.603,.633,.003,.123,.042,.237,.106,.332l.022,.033c.375,.555,.795,.987,1.22,1.4,.426,.409,.86,.8,1.316,1.141,.46,.333,.912,.688,1.383,1.002,.234,.161,.474,.31,.714,.463,.235,.161,.476,.313,.718,.463,.975,.588,1.95,1.195,2.882,1.863l1.387,1.024,1.369,1.057c3.637,2.845,7.137,5.918,10.708,8.969,3.583,3.037,7.192,6.121,11.363,8.676,2.085,1.263,4.363,2.383,6.945,2.941,.631,.169,1.316,.202,1.98,.281,.337,.02,.683,.001,1.024,0l.513-.01c.171-.013,.342-.045,.514-.068,.342-.051,.685-.1,1.025-.16l.998-.295c.164-.054,.335-.094,.494-.161l.47-.214c.311-.147,.629-.284,.931-.444l.856-.546,.426-.277,.394-.31c.263-.205,.523-.417,.765-.657,.25-.229,.493-.465,.717-.729,.92-1.017,1.664-2.248,2.114-3.574,.457-1.327,.599-2.719,.551-4.05-.05-1.335-.293-2.62-.64-3.844-.704-2.448-1.784-4.682-3.01-6.78-1.226-2.102-2.607-4.076-4.061-5.977-1.459-1.897-2.996-3.718-4.586-5.484-1.59-1.766-3.241-3.467-4.873-5.183-1.635-1.714-3.314-3.389-5.147-4.889-.912-.754-1.839-1.492-2.853-2.126-1.013-.636-2.066-1.217-3.27-1.616-.309-.102-.642,.065-.745,.374-.055,.167-.032,.341,.05,.482l.003,.006Z" fill="#390075"/></g><g><path d="M30.969,207.759c6.628,4.376,15.419-2.486,19.571-5.374,4.152-2.888,12.504,4.033,24.379-5.654,4.595-3.749,7.042-8.559,8.286-13.208,2.263-8.471,.533-16.407,.533-16.407l-21.486-13.033c-25.28,7.612-35.179,29.205-35.208,42.821-.015,5.17,1.396,9.189,3.926,10.856Z" fill="#fff"/><g opacity=".2"><path d="M30.969,207.759c6.628,4.376,15.419-2.486,19.571-5.374,4.152-2.888,12.504,4.033,24.379-5.654,4.595-3.749,7.042-8.559,8.286-13.208v-.011s2.553-7.878,.173-14.697c0,0-8.574,27.16-32.806,20.118,0,0-13.161,16.556-23.528,7.97-.015,5.17,1.396,9.189,3.926,10.856Z" fill="#390075"/></g><path d="M83.344,180.16c-1.305,2.639-2.286,5.146-3.525,7.526-1.26,2.355-2.731,4.576-4.613,6.468-.457,.487-.968,.914-1.472,1.359-.528,.431-1.065,.85-1.621,1.236-1.109,.775-2.27,1.458-3.475,2.014-2.413,1.117-4.997,1.693-7.665,1.686-1.337,.013-2.691-.114-4.113-.264-.713-.073-1.439-.157-2.218-.205-.777-.045-1.604-.067-2.52,.067-.228,.033-.467,.091-.699,.14-.24,.073-.479,.14-.718,.234-.237,.11-.481,.195-.706,.34l-.34,.207c-.063,.038-.108,.068-.14,.092l-.113,.079-1.768,1.243c-1.164,.813-2.327,1.584-3.516,2.285-2.364,1.387-4.881,2.526-7.343,2.788-1.222,.117-2.405,.012-3.471-.394-.53-.182-1.061-.488-1.499-.786-.403-.288-.774-.675-1.1-1.132-.66-.913-1.115-2.091-1.428-3.321-.301-1.241-.473-2.55-.519-3.88-.103-2.662,.21-5.387,.801-8.055,1.189-5.345,3.48-10.486,6.578-15.075,3.105-4.589,7.043-8.63,11.579-11.857,1.139-.8,2.302-1.567,3.505-2.272,1.207-.698,2.464-1.307,3.739-1.868,1.27-.571,2.522-1.178,3.779-1.808,1.243-.671,2.485-1.362,3.668-2.39l.013-.011c.257-.223,.285-.607,.063-.857-.104-.117-.246-.185-.392-.2-1.569-.164-3.074,.034-4.515,.426-1.439,.399-2.836,.947-4.166,1.628-2.636,1.407-5.213,2.92-7.653,4.643-4.867,3.462-9.1,7.804-12.432,12.731-3.326,4.931-5.786,10.435-7.079,16.238-.641,2.901-.992,5.882-.877,8.905,.054,1.51,.246,3.033,.615,4.548,.39,1.51,.945,3.035,1.943,4.435,.498,.696,1.111,1.357,1.867,1.898,.734,.504,1.457,.904,2.278,1.2,1.614,.614,3.37,.753,5.009,.59,1.643-.177,3.19-.625,4.638-1.201,1.448-.58,2.807-1.284,4.107-2.047,1.298-.765,2.54-1.59,3.741-2.429l1.772-1.246,.109-.076c.04-.03,.071-.049,.087-.056l.123-.073c.074-.06,.182-.08,.267-.13,.097-.038,.207-.065,.31-.102,.122-.02,.232-.052,.361-.071,1.036-.155,2.437,.01,3.86,.159,1.433,.151,2.946,.297,4.488,.283,3.088,.015,6.272-.686,9.092-2.003,1.416-.652,2.748-1.445,4.007-2.315,.311-.222,.632-.433,.933-.665l.906-.694c.594-.486,1.201-.974,1.758-1.512,1.13-1.057,2.189-2.205,3.087-3.467,.899-1.26,1.665-2.606,2.274-4.009,1.237-2.791,1.864-5.83,1.459-8.818-.043-.319-.34-.539-.663-.492-.201,.029-.365,.155-.45,.323l-.004,.008Z" fill="#390075"/></g><g><path d="M103.819,101.045c-7.306,24.46,14.628,47.158,47.146,56.87,32.518,9.712,63.307,2.761,70.613-21.699,7.306-24.46-11.639-57.167-44.157-66.879-32.518-9.712-66.297,7.247-73.602,31.708Z" fill="#fff"/><g opacity=".2"><path d="M150.427,157.66c32.516,9.709,63.307,2.76,70.612-21.702,.048-.153,.092-.305,.135-.463-11.035,18.015-38.41,22.439-67.136,13.862-32.469-9.7-54.385-32.34-47.184-56.758-1.523,2.609-2.729,5.345-3.577,8.188-7.305,24.462,14.629,47.159,47.15,56.874Z" fill="#390075"/></g><path d="M150.491,159.503c-16.51-4.931-30.461-13.244-39.284-23.406-9.533-10.981-12.637-23.266-8.976-35.526,3.71-12.422,14.007-23.248,28.25-29.703,14.819-6.716,31.657-7.823,47.414-3.118,15.756,4.706,29.229,14.867,37.938,28.61,8.37,13.209,11.043,27.909,7.333,40.331-3.662,12.26-12.994,20.83-26.988,24.784-7.727,2.183-16.618,2.815-26.04,1.922-6.371-.604-12.986-1.905-19.646-3.894Zm-18.642-85.618c-13.37,6.059-23.007,16.132-26.443,27.634-6.629,22.195,12.3,44.734,46.033,54.809,6.673,1.993,13.126,3.26,19.241,3.84,24.798,2.349,43.993-6.62,49.311-24.425,6.726-22.52-10.253-55.024-43.044-64.818-4.121-1.231-8.317-2.044-12.532-2.443-11.116-1.053-22.348,.772-32.566,5.403Z" fill="#390075"/><path d="M167.886,85.893c.895,.479,1.95,.897,3.186,1.221,6.274,1.645,9.566-1.045,10.553-3.358-2.048,.84-7.522,2.76-13.739,2.138Z" fill="#fe6dcb"/><path d="M165.513,84.161c.479,.487,1.058,.949,1.749,1.376,.198,.124,.406,.244,.622,.353,6.218,.623,11.692-1.297,13.739-2.137,.052-.104,.088-.215,.127-.32,.574-1.669,1.107-4.099,1.531-6.888,0,0-7.122,3.996-16.469,2.862-1.064-.13-2.156-.322-3.269-.6-.225,1.484,.205,3.563,1.969,5.353Z" fill="#33aef1"/><g opacity=".6"><path d="M165.513,84.161c.391-1.645,.832-3.23,1.3-4.754-1.064-.13-2.156-.322-3.269-.6-.225,1.484,.205,3.563,1.969,5.353Z" fill="#fff"/></g><path d="M163.545,78.808c1.113,.278,2.205,.47,3.269,.6,9.347,1.134,16.469-2.862,16.469-2.862,.431-2.818,.746-6.013,.889-9.165,0,0-4.675,4.034-14.722,4.831-1.25,.1-2.583,.15-3.998,.134-.915,2.465-1.583,4.68-1.885,6.321-.009,.045-.017,.095-.022,.141Z" fill="#fdd800"/><g opacity=".6"><path d="M163.545,78.808c1.113,.278,2.205,.47,3.269,.6,.794-2.569,1.685-4.965,2.637-7.196-1.25,.1-2.583,.15-3.998,.134-.915,2.465-1.583,4.68-1.885,6.321-.009,.045-.017,.095-.022,.141Z" fill="#fff"/></g><path d="M165.452,72.346c1.415,.016,2.748-.034,3.998-.134,10.048-.797,14.722-4.831,14.722-4.831,.155-3.407,.095-6.772-.265-9.581,0,0-3.899,3.704-9.728,5.229-1.526,.402-3.181,.653-4.938,.646-1.466,2.917-2.784,5.95-3.79,8.671Z" fill="#b177ea"/><g opacity=".6"><path d="M165.452,72.346c1.415,.016,2.748-.034,3.998-.134,1.476-3.467,3.103-6.525,4.73-9.183-1.526,.402-3.181,.653-4.938,.646-1.466,2.917-2.784,5.95-3.79,8.671Z" fill="#fff"/></g><path d="M169.264,63.434c1.757,.007,3.412-.244,4.938-.646,5.828-1.525,9.728-5.229,9.728-5.229-.29-2.31-.78-4.24-1.525-5.509-.481-.823-1.072-1.371-1.782-1.556-3.142-.823-7.72,5.692-11.358,12.94Z" fill="#fe6dcb"/><g opacity=".6"><path d="M168.796,63.633c1.757,.007,3.412-.244,4.938-.646,3.035-4.967,6.081-8.534,8.202-10.738-.481-.823-1.072-1.371-1.782-1.556-3.142-.823-7.72,5.692-11.358,12.94Z" fill="#fff"/></g><path d="M185.825,67.453c.169-3.723,.075-7.134-.274-9.863-.633-5.056-2.114-7.823-4.529-8.457-4.628-1.207-9.764,6.835-13.263,13.798-1.474,2.938-2.809,5.994-3.862,8.838-.963,2.596-1.64,4.877-1.959,6.595-.018,.094-.034,.188-.042,.281v.004c-.016,.114-.029,.23-.038,.348-.004,.046-.007,.101-.01,.155-.006,.112-.01,.202-.011,.294,0,.073-.001,.137,0,.202,.001,.1,.005,.196,.011,.295,.004,.081,.007,.132,.011,.183,.012,.155,.029,.31,.052,.469,.004,.028,.012,.074,.02,.119,.021,.129,.043,.249,.068,.371l.031,.135,.012,.053c.027,.112,.057,.226,.089,.339l.051,.176c.041,.134,.09,.278,.144,.423,.01,.03,.025,.071,.042,.112,.052,.138,.127,.315,.21,.492,.006,.013,.032,.068,.039,.08,.073,.153,.148,.296,.227,.441l.058,.103,.013,.023c.081,.141,.168,.281,.259,.422l.059,.091c.239,.355,.506,.698,.797,1.021,.008,.009,.047,.051,.056,.061l.066,.072c.06,.066,.119,.131,.183,.195,.045,.045,.081,.079,.119,.114l.174,.166c.123,.115,.248,.226,.378,.336,.063,.054,.118,.101,.174,.146,.124,.1,.255,.2,.388,.298l.043,.032c.052,.04,.105,.079,.16,.118,.157,.11,.316,.215,.478,.318,.052,.036,.098,.066,.147,.097,.257,.16,.504,.3,.745,.422,1.014,.543,2.207,1.002,3.512,1.345,.937,.245,1.831,.403,2.678,.483,5.124,.486,8.556-1.865,9.808-4.769,.056-.121,.103-.246,.149-.369l.018-.049c.369-1.071,.71-2.375,1.028-3.919,.166-.8,.324-1.662,.47-2.561l.027-.169c.031-.188,.061-.376,.09-.569,.452-2.953,.765-6.184,.905-9.341Zm-5.631,15.417l-.008,.003c-.106,.039-.22,.079-.334,.119-.065,.023-.127,.045-.194,.069-.146,.05-.3,.101-.458,.152-.044,.014-.084,.028-.128,.043-.204,.065-.417,.131-.639,.197-.063,.019-.131,.037-.196,.056-.162,.047-.325,.094-.495,.14-.092,.025-.188,.049-.282,.074-.15,.039-.301,.079-.457,.117-.107,.026-.218,.051-.327,.077-.151,.035-.303,.07-.459,.104-.117,.026-.238,.05-.358,.075-.155,.032-.312,.063-.471,.093-.126,.024-.255,.047-.384,.069-.16,.028-.323,.055-.487,.08-.133,.021-.266,.041-.401,.06-.168,.024-.338,.046-.509,.067-.137,.017-.273,.034-.412,.049-.177,.019-.358,.036-.538,.052-.137,.012-.273,.025-.412,.035-.194,.014-.392,.024-.589,.034-.129,.007-.257,.015-.388,.02-.235,.008-.474,.011-.713,.013-.096,0-.191,.004-.288,.004-.337-.001-.677-.01-1.02-.025-.055-.003-.111-.008-.166-.011-.139-.067-.28-.132-.412-.203-.187-.095-.349-.187-.531-.3l-.099-.067c-.128-.082-.245-.158-.356-.236l-.142-.106c-.098-.072-.189-.141-.275-.211l-.096-.081c-.113-.096-.198-.171-.281-.248l-.178-.169c-.051-.05-.082-.085-.114-.12l-.058-.063-.04-.044c-.192-.213-.364-.433-.514-.657l-.038-.059c-.058-.088-.111-.174-.16-.261l-.011-.019-.029-.051c-.053-.095-.098-.184-.14-.272l-.025-.051c-.049-.105-.094-.209-.133-.312l-.025-.068c-.023-.063-.052-.148-.078-.233l-.023-.078c-.021-.075-.037-.134-.051-.191,.259,.044,.516,.082,.772,.119,.096,.014,.194,.03,.29,.043,.372,.05,.742,.093,1.107,.128,.031,.003,.062,.005,.093,.007,.065,.006,.129,.01,.194,.016,.335,.028,.666,.051,.995,.067,.082,.004,.165,.009,.247,.012,.373,.016,.743,.025,1.107,.027,.058,0,.115,0,.173,0,.323,0,.641-.006,.956-.016,.073-.002,.147-.004,.22-.007,.353-.014,.701-.034,1.043-.059,.056-.004,.111-.01,.167-.014,.3-.024,.596-.052,.887-.084,.069-.008,.138-.014,.206-.022,.327-.038,.648-.08,.963-.126,.055-.008,.109-.017,.164-.026,.273-.042,.541-.086,.804-.134,.065-.012,.13-.023,.194-.035,.297-.055,.588-.113,.871-.174,.056-.012,.109-.024,.164-.037,.241-.053,.476-.108,.707-.165,.062-.015,.125-.03,.186-.045,.263-.066,.518-.133,.767-.203,.056-.015,.109-.031,.164-.047,.206-.058,.406-.117,.601-.177,.058-.018,.117-.035,.173-.053,.225-.07,.443-.141,.654-.211,.055-.018,.107-.037,.161-.055,.169-.058,.333-.115,.491-.173,.053-.019,.106-.038,.157-.057,.078-.029,.154-.057,.229-.086-.031,.157-.061,.322-.093,.475-.288,1.396-.589,2.554-.894,3.446Zm-.112-30.549c.035,.003,.068,.009,.099,.018,.505,.133,1.472,1.382,2.012,5.154l-.02,.016c-.095,.075-.198,.155-.308,.238-.03,.023-.062,.047-.094,.07-.091,.068-.187,.139-.287,.212-.035,.025-.068,.05-.104,.075-.128,.092-.263,.187-.405,.285-.038,.026-.079,.054-.119,.08-.115,.078-.234,.158-.358,.238-.048,.031-.095,.063-.145,.095-.16,.103-.325,.207-.497,.313-.042,.026-.086,.051-.128,.077-.142,.086-.288,.172-.437,.258-.059,.034-.119,.069-.179,.103-.19,.107-.384,.215-.585,.321-.038,.02-.078,.04-.116,.06-.173,.09-.35,.18-.531,.269-.068,.033-.136,.067-.204,.1-.213,.102-.43,.204-.654,.303l-.074,.032c-.217,.095-.44,.188-.666,.278-.073,.029-.146,.058-.22,.087-.215,.084-.434,.165-.656,.243-.038,.013-.074,.027-.112,.04-.253,.087-.512,.169-.774,.249-.076,.023-.152,.045-.228,.067-.224,.065-.452,.126-.682,.184-.054,.014-.107,.028-.162,.041-.275,.066-.555,.126-.838,.181-.075,.014-.15,.027-.226,.041-.154,.028-.311,.051-.467,.075,3.993-7.348,7.021-9.911,8.164-9.803Zm1.629,23.497l-.045,.021-.073,.032c-.294,.13-.648,.278-1.055,.436l-.122,.047c-.202,.077-.417,.156-.643,.236-.037,.013-.076,.026-.113,.039-.216,.075-.443,.152-.68,.228-.034,.011-.065,.022-.099,.032-.255,.081-.523,.161-.8,.24-.059,.017-.118,.033-.177,.05-.287,.08-.582,.159-.89,.235l-.069,.016c-.295,.072-.601,.141-.914,.207-.057,.012-.114,.024-.172,.036-.328,.067-.666,.13-1.012,.188-.06,.01-.121,.02-.182,.029-.354,.057-.715,.111-1.087,.157l-.025,.003c-.376,.046-.764,.084-1.157,.116-.07,.006-.139,.011-.209,.017-.392,.029-.791,.051-1.198,.064-.045,.001-.092,.001-.138,.003-.39,.01-.786,.012-1.188,.004-.05,0-.1,0-.15-.002-.42-.01-.847-.031-1.278-.062-.079-.006-.159-.012-.239-.019-.441-.035-.887-.079-1.338-.139l-.045-.007c-.384-.052-.775-.119-1.166-.19,.292-1.183,.731-2.605,1.283-4.153,.381-.006,.756-.016,1.124-.031,.076-.003,.148-.008,.223-.012,.367-.017,.727-.037,1.081-.062,.147-.01,.29-.022,.435-.034,.284-.023,.563-.047,.839-.075,.144-.014,.288-.029,.43-.044,.295-.032,.584-.068,.87-.106,.104-.014,.21-.026,.312-.04,.378-.053,.747-.11,1.107-.171,.098-.017,.191-.035,.287-.052,.267-.047,.531-.096,.789-.148,.124-.025,.246-.05,.368-.076,.23-.048,.456-.098,.679-.15,.114-.026,.229-.052,.341-.079,.261-.063,.516-.128,.766-.195,.06-.016,.122-.031,.181-.047,.303-.082,.597-.168,.884-.254,.09-.027,.176-.055,.264-.083,.199-.062,.395-.125,.586-.188,.099-.033,.196-.066,.293-.099,.182-.063,.36-.126,.534-.19,.083-.03,.167-.06,.248-.091,.244-.092,.482-.184,.71-.277l.054-.023c.215-.088,.422-.176,.622-.264,.073-.032,.142-.064,.213-.096,.143-.064,.283-.128,.419-.192,.071-.034,.142-.067,.211-.1,.137-.066,.269-.131,.398-.196,.053-.027,.109-.054,.16-.081,.062-.032,.121-.063,.181-.095-.149,1.941-.361,3.861-.628,5.686Zm-10.39-10.908c.219-.022,.437-.048,.652-.077,.101-.014,.201-.027,.301-.042,.246-.037,.489-.078,.73-.122,.056-.01,.114-.019,.17-.03,.293-.057,.581-.12,.865-.187,.083-.02,.164-.041,.246-.062,.206-.051,.41-.105,.612-.161,.095-.026,.188-.053,.282-.081,.201-.059,.399-.12,.595-.184,.075-.024,.15-.047,.224-.072,.262-.088,.521-.179,.774-.273,.055-.02,.108-.042,.162-.063,.201-.077,.4-.155,.595-.235,.083-.034,.165-.069,.247-.104,.17-.072,.337-.145,.502-.219,.075-.034,.151-.067,.225-.102,.217-.1,.429-.201,.637-.304l.042-.02c.22-.109,.433-.22,.642-.331,.069-.037,.135-.073,.203-.11,.143-.078,.284-.156,.421-.233,.069-.039,.138-.078,.206-.117,.146-.084,.288-.168,.427-.252,.047-.028,.095-.056,.141-.084,.177-.108,.349-.216,.514-.322,.057-.037,.111-.073,.167-.109,.11-.072,.218-.143,.322-.213,.065-.044,.128-.087,.191-.13,.027-.019,.056-.038,.083-.056,.112,1.896,.124,4.023,.032,6.293l-.012,.008c-.11,.071-.23,.147-.363,.228l-.031,.019c-.127,.077-.266,.158-.414,.243l-.071,.041c-.159,.089-.329,.182-.511,.278l-.083,.043c-.178,.093-.367,.187-.567,.284l-.048,.023c-.21,.101-.434,.203-.667,.306-.043,.019-.087,.038-.13,.057-.479,.208-1.006,.419-1.581,.626-.055,.02-.109,.039-.164,.059-.287,.101-.585,.202-.896,.3-.04,.013-.082,.025-.122,.037-.288,.09-.587,.177-.895,.263-.056,.016-.111,.032-.168,.047-.335,.091-.682,.179-1.039,.263-.071,.017-.145,.033-.217,.05-.344,.079-.696,.154-1.06,.225-.036,.007-.069,.015-.105,.021-.386,.074-.788,.142-1.197,.206-.093,.015-.187,.029-.282,.043-.417,.062-.843,.12-1.284,.17-.039,.004-.079,.008-.118,.012-.411,.045-.834,.084-1.265,.117-.105,.008-.21,.017-.316,.024-.377,.026-.766,.045-1.159,.061,.792-1.967,1.705-3.995,2.684-5.983,.192-.011,.384-.023,.574-.04,.101-.009,.2-.02,.3-.03Z" fill="#390075"/><path d="M150.693,75.379s1.123-21.938-7.373-24.052c-8.496-2.113-22.285,25.568-23.583,32.725,0,0,12.783,4.111,30.957-8.674Z" fill="#fff"/><path d="M151.245,75.407c.914-1.43,1.135-2.902,1.198-4.37,.078-1.47-.063-2.938-.255-4.4-.197-1.461-.361-2.93-.616-4.398-.255-1.468-.582-2.936-1.04-4.397-.463-1.458-1.049-2.918-1.927-4.312-.868-1.378-2.154-2.731-3.897-3.482l-.669-.226c-.113-.036-.222-.073-.338-.105l-.378-.075c-.252-.055-.505-.058-.758-.082-.247,.005-.502-.006-.741,.025-.973,.092-1.845,.388-2.619,.754-1.542,.75-2.769,1.75-3.892,2.795-2.229,2.109-4.033,4.462-5.714,6.872-1.67,2.417-3.182,4.916-4.59,7.466-1.407,2.551-2.711,5.154-3.902,7.821-.298,.667-.586,1.339-.869,2.015-.279,.678-.621,1.333-.914,2.014-.296,.68-.497,1.404-.583,2.168-.069,.763-.017,1.6,.451,2.464,.186,.343,.614,.47,.957,.285,.028-.015,.055-.032,.081-.051l.049-.037c.736-.545,1.172-1.092,1.533-1.696,.345-.603,.619-1.232,.824-1.895,.21-.661,.398-1.338,.667-1.985,.264-.649,.545-1.293,.83-1.935,1.147-2.569,2.413-5.098,3.776-7.567,1.363-2.468,2.825-4.881,4.415-7.182,1.592-2.289,3.311-4.505,5.254-6.339,.967-.908,2.007-1.72,3.053-2.223,.52-.247,1.032-.402,1.488-.445,.117-.02,.221-.004,.332-.014,.102,.018,.212,.007,.31,.036l.15,.027,.173,.06c.116,.04,.233,.078,.352,.113,.9,.398,1.724,1.17,2.376,2.207,.652,1.035,1.157,2.252,1.558,3.524,.401,1.275,.7,2.61,.936,3.966,.233,1.357,.417,2.737,.471,4.131,.058,1.394,.068,2.79,.22,4.186,.127,1.398,.351,2.795,1.144,4.229l.012,.022c.17,.307,.556,.418,.863,.248,.095-.053,.173-.128,.228-.214Z" fill="#390075"/><g><path d="M143.778,71.73s1.324-10.656-2.376-11.359c-3.7-.703-10.875,13.207-11.722,16.719,0,0,5.533,1.508,14.099-5.36Z" fill="#fe6dcb"/><path d="M141.711,58.743c-1.538-.293-4.106,.171-8.65,7.537-2.282,3.698-4.474,8.275-4.992,10.421-.21,.871,.31,1.751,1.175,1.987,.054,.015,.366,.095,.908,.146,2.06,.195,7.444-.024,14.663-5.812,.337-.27,.554-.66,.607-1.088,.356-2.861,1.139-12.269-3.711-13.191Zm-9.732,16.793c.805-1.933,2.174-4.672,3.701-7.188,3.116-5.135,5.022-6.332,5.444-6.346,.901,.173,1.554,4.218,1.086,8.854-4.643,3.583-8.21,4.498-10.23,4.68Z" fill="#390075"/></g><path d="M196.066,87.261s9.775-19.672,18.216-17.35c8.441,2.322,6.892,33.209,4.516,40.084,0,0-13.157-2.683-22.732-22.734Z" fill="#fff"/><path d="M196.56,87.507c1.395-.861,2.275-1.969,3.07-3.126,.817-1.142,1.51-2.354,2.244-3.541,.73-1.189,1.567-2.302,2.435-3.37,.87-1.067,1.786-2.084,2.76-2.998,.972-.912,2.01-1.725,3.085-2.308,1.077-.585,2.173-.854,3.153-.759,.12,.028,.241,.052,.362,.074l.181,.032,.144,.05c.099,.023,.189,.086,.287,.12,.092,.063,.191,.101,.283,.175,.376,.261,.747,.646,1.079,1.117,.665,.951,1.174,2.168,1.572,3.434,.795,2.551,1.207,5.325,1.473,8.101,.258,2.785,.349,5.604,.327,8.424-.023,2.82-.158,5.645-.418,8.447-.066,.7-.137,1.399-.225,2.094-.083,.696-.251,1.378-.392,2.057-.146,.678-.215,1.361-.21,2.056,.019,.704,.13,1.394,.505,2.23l.023,.052c.159,.356,.577,.515,.933,.355,.029-.013,.061-.03,.088-.047,.831-.524,1.287-1.227,1.601-1.926,.3-.709,.479-1.438,.554-2.176,.079-.738,.101-1.476,.191-2.204,.085-.728,.164-1.455,.23-2.182,.27-2.908,.409-5.815,.433-8.729,.022-2.913-.071-5.832-.342-8.758-.284-2.925-.703-5.86-1.612-8.79-.466-1.461-1.046-2.935-2.022-4.344-.495-.698-1.11-1.384-1.913-1.941-.193-.144-.421-.26-.634-.385-.232-.103-.454-.224-.701-.3l-.366-.12c-.117-.029-.23-.05-.346-.074l-.693-.131c-1.887-.2-3.672,.35-5.104,1.125-1.448,.785-2.675,1.77-3.793,2.814-1.116,1.049-2.121,2.168-3.062,3.323-.942,1.155-1.804,2.354-2.693,3.531-.884,1.18-1.727,2.391-2.379,3.71-.665,1.31-1.193,2.702-1.098,4.396,.02,.35,.32,.618,.67,.598,.108-.006,.209-.039,.296-.092l.024-.015Z" fill="#390075"/><g><path d="M203.489,87.65s4.499-10.029,8.416-8.829c3.917,1.199,3.249,16.967,2.158,20.474,0,0-6.104-1.391-10.575-11.645Z" fill="#fe6dcb"/><path d="M214.841,79.488c-.628-1.188-1.453-1.945-2.451-2.251-5.064-1.545-9.561,7.838-10.413,9.735-.191,.426-.194,.912-.007,1.34,4.75,10.895,11.442,12.533,11.725,12.598,.071,.016,.143,.028,.214,.034,.769,.073,1.501-.401,1.737-1.158,1.036-3.332,1.689-15.58-.804-20.299Zm-1.996,17.454c-1.83-1.083-4.923-3.626-7.535-9.279,1.806-3.753,4.558-7.419,5.968-7.285,.049,.005,.096,.014,.142,.028,.315,.103,1.54,1.747,1.788,7.893,.126,3.116-.063,6.464-.362,8.644Z" fill="#390075"/></g><path d="M207.845,124.035c2.328-.409,4.609-.69,6.896-.856,2.282-.168,4.557-.253,6.829-.17,2.269,.081,4.543,.218,6.808,.546,1.142,.116,2.27,.328,3.416,.507,.583,.058,1.139,.212,1.716,.311,.574,.107,1.153,.211,1.746,.291-.511-.296-1.035-.568-1.564-.836-.53-.264-1.061-.538-1.616-.744-1.109-.411-2.22-.86-3.38-1.127-2.296-.645-4.684-.938-7.07-1.019-2.388-.084-4.784,.151-7.116,.634-2.323,.503-4.621,1.237-6.663,2.462Z" fill="#390075"/><path d="M206.937,129.926c2.353,.219,4.628,.549,6.877,.991,2.245,.439,4.462,.956,6.632,1.635,2.167,.676,4.325,1.407,6.423,2.32,1.072,.413,2.103,.915,3.162,1.389,.546,.21,1.043,.505,1.573,.752,.526,.255,1.057,.508,1.607,.741-.415-.42-.849-.82-1.289-1.219-.442-.395-.882-.799-1.363-1.143-.961-.689-1.915-1.414-2.964-1.978-2.045-1.227-4.272-2.139-6.552-2.845-2.282-.71-4.655-1.114-7.031-1.263-2.374-.127-4.784-.024-7.076,.62Z" fill="#390075"/><path d="M204.321,137.107c2.247,.734,4.392,1.558,6.488,2.487,2.093,.925,4.141,1.919,6.107,3.06,1.964,1.138,3.907,2.328,5.752,3.683,.954,.639,1.849,1.357,2.776,2.054,.487,.325,.906,.723,1.368,1.081,.457,.365,.918,.729,1.404,1.078-.312-.501-.647-.988-.987-1.473-.344-.482-.684-.974-1.077-1.416-.785-.884-1.555-1.803-2.453-2.584-1.723-1.649-3.693-3.03-5.761-4.223-2.068-1.197-4.293-2.116-6.578-2.786-2.287-.648-4.66-1.081-7.038-.96Z" fill="#390075"/><path d="M134.051,111.55c-1.36-1.954-3.155-3.567-5.067-4.978-1.929-1.397-4.017-2.594-6.23-3.497-2.208-.905-4.507-1.617-6.865-1.971-1.168-.232-2.365-.279-3.545-.358-.59-.04-1.187-.008-1.779,.015-.593,.028-1.182,.061-1.769,.121,.573,.17,1.144,.312,1.711,.45,.567,.146,1.137,.234,1.692,.42,1.119,.307,2.234,.575,3.323,.938,2.2,.629,4.33,1.438,6.433,2.294,2.106,.856,4.146,1.867,6.158,2.956,2.017,1.09,3.982,2.281,5.938,3.609Z" fill="#390075"/><path d="M132.463,117.296c-1.827-1.527-3.983-2.61-6.199-3.468-2.229-.839-4.558-1.444-6.931-1.732-2.369-.291-4.773-.373-7.142-.093-1.188,.084-2.355,.354-3.514,.588-.58,.117-1.147,.305-1.712,.484-.564,.183-1.125,.37-1.675,.583,.598,.013,1.186,0,1.77-.017,.585-.008,1.159-.074,1.743-.041,1.16,.001,2.306-.033,3.453,.03,2.289,.028,4.556,.246,6.81,.519,2.257,.271,4.491,.709,6.719,1.23,2.233,.52,4.443,1.152,6.679,1.917Z" fill="#390075"/><path d="M131.903,124.918c-2.119-1.085-4.461-1.665-6.812-2.011-2.359-.326-4.765-.401-7.142-.157-2.375,.24-4.738,.692-6.986,1.488-1.14,.344-2.218,.866-3.297,1.351-.54,.242-1.051,.551-1.563,.85-.51,.303-1.015,.609-1.505,.939,.586-.119,1.157-.262,1.722-.407,.569-.138,1.114-.328,1.691-.425,1.132-.255,2.242-.542,3.374-.734,2.238-.479,4.498-.767,6.756-1,2.261-.235,4.537-.301,6.825-.286,2.293,.013,4.587,.141,6.937,.394Z" fill="#390075"/><g><g opacity=".2"><path d="M158.382,129.077c1.894,4.007,4.512,5.738,7.147,6.271,5.208,1.058,10.493-2.556,10.493-2.556,2.69,4.315,5.48,6.371,8.034,7.168,4.234,1.32,7.836-.815,9.31-1.913-10.729-.907-14.28-7.567-14.28-7.567l-4.644-1.201c-6.376,5.793-15.775-.026-16.061-.202Z" fill="#390075"/></g><path d="M165.529,135.348c.139,2.49,.641,5.414,1.575,7.905,1.033,2.78,2.593,5.038,4.765,5.6,2.188,.566,4.67-.659,6.934-2.608,2.046-1.763,3.923-4.119,5.252-6.284-2.554-.797-5.344-2.853-8.034-7.168,0,0-5.285,3.613-10.493,2.556Z" fill="#390075"/><g><path d="M167.104,143.253c1.033,2.78,2.593,5.038,4.765,5.6,2.188,.566,4.67-.659,6.934-2.608-.261-2.496-2.131-4.719-4.834-5.417-2.711-.701-5.44,.35-6.866,2.426Z" fill="#fb64c0"/><path d="M171.821,149.04c-2.007-.519-3.701-2.497-4.898-5.72l-.035-.094,.057-.083c1.511-2.2,4.354-3.205,7.075-2.504,2.701,.699,4.702,2.943,4.978,5.585l.011,.101-.077,.066c-2.182,1.877-4.249,2.827-6.051,2.792-.364-.007-.718-.055-1.059-.143Zm2.101-8.026c-2.529-.655-5.168,.256-6.6,2.266,.81,2.144,2.257,4.779,4.596,5.384,2.366,.613,4.925-1.005,6.682-2.501-.299-2.438-2.167-4.5-4.677-5.149Z" fill="#390075"/></g><g><path d="M182.967,126.669c-.688-1.649-8.205-3.871-9.917-2.564-1.712,1.306,.978,6.315,3.489,6.965,2.511,.649,7.191-2.571,6.428-4.4Z" fill="#390075"/><path d="M176.132,132.645c-2.454-.635-4.638-3.71-5.138-6.185-.431-2.136,.485-3.203,1.069-3.649,1.533-1.171,4.453-.72,6.634-.136,1.836,.492,5.028,1.583,5.772,3.367h0c.273,.655,.516,2-.919,3.655-1.434,1.655-4.105,3.129-6.388,3.084-.355-.007-.7-.05-1.03-.136Zm-1.996-7.266c-.009,.293,.111,.958,.591,1.841,.699,1.285,1.665,2.131,2.219,2.274,.502,.128,1.627-.114,2.8-.833,.87-.533,1.394-1.1,1.593-1.424-1.265-1.011-5.875-2.212-7.203-1.858Zm-.152,.054h0Z" fill="#390075"/><g><path d="M173.828,124.261c-.156,.603,1.561,1.569,3.835,2.157,2.274,.588,4.244,.576,4.4-.027,.156-.603-1.561-1.569-3.835-2.157s-4.244-.576-4.4,.027Z" fill="#fff"/><path d="M177.611,126.621c-2.147-.555-4.206-1.563-3.986-2.413h0c.105-.404,.646-.612,1.608-.618,.848-.006,1.932,.15,3.049,.44,1.117,.289,2.139,.677,2.879,1.093,.839,.472,1.211,.916,1.107,1.32-.118,.456-.831,.634-1.8,.615-.836-.016-1.861-.18-2.857-.437Zm-2.376-2.61c-.891,.006-1.176,.2-1.203,.303-.08,.31,1.115,1.235,3.684,1.9,2.571,.664,4.063,.433,4.143,.124,.026-.102-.129-.411-.906-.848-.709-.399-1.696-.772-2.778-1.052-1.007-.261-1.982-.41-2.767-.425-.059-.001-.117-.001-.173-.001Z" fill="#390075"/></g></g><path d="M186.568,141.874c3.524,.069,6.344-1.635,7.616-2.567,.027-.018,.054-.036,.08-.055,.521-.386,.822-.669,.854-.7,.601-.569,.627-1.519,.057-2.119-.568-.6-1.514-.626-2.115-.061h0s-.185,.172-.515,.422c-.025,.016-.049,.033-.073,.051-1.187,.884-4.338,2.816-7.969,1.684-2.584-.805-5.008-3.002-7.208-6.53-.216-.346-.564-.59-.964-.674-.398-.085-.816-.002-1.154,.23-.045,.031-4.84,3.237-9.349,2.325-2.581-.522-4.63-2.353-6.091-5.443-.008-.017-.017-.034-.026-.051l-.017-.031c-.12-.26-.238-.53-.353-.808-.317-.764-1.192-1.128-1.959-.809-.765,.317-1.127,1.195-.809,1.959,.145,.349,.293,.686,.444,1.009,.016,.034,.033,.068,.051,.1,1.886,3.939,4.632,6.298,8.165,7.012,4.177,.848,8.287-.913,10.323-2.008,2.397,3.449,5.101,5.661,8.054,6.582,1.026,.32,2.017,.464,2.958,.483Z" fill="#390075"/><path d="M171.494,150.304c-2.438-.631-4.442-2.888-5.793-6.525-.898-2.396-1.506-5.439-1.668-8.347-.026-.464,.165-.913,.516-1.217,.352-.304,.824-.427,1.279-.335,4.509,.913,9.303-2.293,9.349-2.325,.338-.231,.756-.314,1.154-.23,.4,.084,.748,.327,.964,.674,2.199,3.528,4.624,5.724,7.208,6.53,.442,.138,.795,.472,.957,.905,.163,.433,.116,.917-.126,1.311-1.535,2.5-3.558,4.918-5.551,6.636-2.432,2.093-4.8,3.149-6.931,3.107-.464-.009-.917-.07-1.357-.184Zm4.062-15.494c-1.702,.915-4.854,2.296-8.283,2.229-.03,0-.06-.001-.09-.002,.245,2.038,.709,4.044,1.327,5.694,.982,2.643,2.309,4.301,3.735,4.671,1.448,.374,3.43-.441,5.581-2.293,1.376-1.186,2.775-2.759,3.978-4.457-2.256-1.152-4.349-3.108-6.248-5.842Z" fill="#390075"/></g><g><g><ellipse cx="198.762" cy="117.99" rx="9.49" ry="6.689" transform="translate(45.538 291.053) rotate(-79.174)" fill="#390075"/><path d="M196.944,127.499c-3.726-.713-5.941-5.558-4.939-10.801h0c.484-2.528,1.634-4.774,3.24-6.325,1.623-1.567,3.518-2.239,5.336-1.892,3.726,.713,5.941,5.557,4.939,10.8-.936,4.892-4.348,8.429-7.828,8.301-.249-.009-.499-.037-.748-.084Zm-1.435-16.851c-1.549,1.496-2.661,3.67-3.13,6.122h0c-.963,5.037,1.117,9.682,4.636,10.355,3.528,.67,7.167-2.878,8.13-7.914,.963-5.037-1.117-9.682-4.636-10.354-.232-.045-.466-.071-.7-.079-1.474-.054-2.978,.595-4.3,1.871Z" fill="#390075"/></g><g><ellipse cx="202.837" cy="117.418" rx="3.187" ry="2.021" transform="translate(49.41 294.591) rotate(-79.174)" fill="#fff"/><path d="M202.203,120.736c-1.198-.229-1.887-1.904-1.538-3.733,.167-.871,.54-1.652,1.053-2.197,.535-.569,1.159-.819,1.754-.705,.597,.114,1.083,.576,1.37,1.302,.275,.696,.335,1.559,.168,2.43-.328,1.716-1.457,2.968-2.585,2.927-.074-.003-.148-.011-.222-.025Zm-.207-5.669c-.464,.494-.803,1.206-.956,2.008h0c-.31,1.622,.243,3.097,1.235,3.287,.995,.197,2.05-.977,2.361-2.599,.153-.801,.101-1.589-.148-2.219-.237-.6-.623-.979-1.087-1.068-.056-.011-.112-.017-.169-.019-.414-.015-.847,.197-1.235,.611Z" fill="#390075"/></g></g><g><g><ellipse cx="157.727" cy="109.401" rx="9.49" ry="6.689" transform="translate(13.11 235.625) rotate(-75.86)" fill="#390075"/><path d="M155.362,118.789c-3.678-.927-5.61-5.892-4.307-11.068h0c.629-2.496,1.907-4.672,3.6-6.127,1.711-1.471,3.642-2.032,5.436-1.58,3.678,.927,5.61,5.891,4.307,11.068-1.217,4.83-4.828,8.163-8.294,7.835-.248-.024-.496-.066-.742-.128Zm-.458-16.906c-1.633,1.404-2.869,3.51-3.478,5.931h0c-1.252,4.972,.555,9.73,4.03,10.605,3.483,.872,7.321-2.459,8.574-7.431,1.252-4.972-.555-9.73-4.03-10.605-.229-.058-.461-.098-.694-.12-1.469-.139-3.007,.422-4.401,1.619Z" fill="#390075"/></g><g><ellipse cx="161.488" cy="109.148" rx="3.187" ry="2.021" transform="translate(16.197 239.08) rotate(-75.86)" fill="#fff"/><path d="M160.663,112.424c-1.182-.298-1.774-2.01-1.319-3.815,.217-.86,.635-1.618,1.178-2.133,.567-.537,1.205-.751,1.791-.602,.589,.148,1.048,.638,1.292,1.379,.235,.711,.244,1.576,.027,2.436-.427,1.694-1.626,2.879-2.75,2.772-.073-.007-.147-.019-.22-.038Zm.121-5.671c-.492,.466-.872,1.158-1.071,1.949h0c-.404,1.602,.064,3.106,1.043,3.352,.982,.255,2.103-.857,2.507-2.458,.199-.791,.192-1.58-.019-2.224-.202-.613-.566-1.014-1.024-1.129-.055-.014-.111-.024-.168-.029-.413-.039-.857,.148-1.268,.538Z" fill="#390075"/></g></g></g></svg>