<?xml version="1.0" encoding="UTF-8"?><svg id="a" xmlns="http://www.w3.org/2000/svg" viewBox="0 0 256 256"><path d="M115.239,186.159s-1.233,.946-3.136,2.587c-36.953-8.269-29.365,16.198-54.989,25.715-5.595,2.077-10.209,2.898-14.011,2.898-.549,0-1.082-.019-1.596-.049-.514-.034-1.01-.083-1.494-.148-.155-.019-.306-.042-.458-.064-.113-.015-.227-.034-.34-.053h-.004c-.219-.038-.435-.079-.651-.125-.102-.019-.204-.042-.303-.064-.148-.03-.287-.064-.427-.098-.182-.045-.363-.091-.541-.14-.151-.042-.299-.083-.443-.129-.098-.03-.197-.061-.291-.091-.189-.061-.371-.125-.552-.189-.166-.061-.329-.121-.492-.185-.189-.072-.374-.151-.556-.231-.159-.068-.314-.14-.469-.212-.034-.015-.068-.034-.102-.049-.159-.079-.318-.159-.473-.238-.166-.087-.333-.178-.492-.269-.159-.091-.314-.182-.465-.276l-.019-.011c-.121-.076-.242-.151-.359-.227-.511-.333-.983-.685-1.422-1.048-.098-.083-.193-.163-.287-.246-.246-.212-.484-.431-.704-.651-.113-.11-.223-.219-.329-.333-.106-.11-.208-.219-.31-.333-.098-.11-.197-.223-.291-.333-.193-.219-.371-.443-.541-.662l-.004-.008c-.17-.219-.329-.443-.48-.658-.151-.219-.291-.435-.424-.647l-.008-.008c-.076-.121-.148-.238-.216-.356,.008-.034,.008-.053,.008-.053,0,0,2.546,1.778,6.48,2.625,2.731,.586,6.132,.726,9.812-.499,9.914-3.295,15.789-23.407,29.357-29.263,22.133-9.555,42.022,4.119,42.022,4.119Z" fill="#fe6dcb"/><path d="M43.035,218.889c-9.718,0-14.534-5.083-16.777-8.893-.181-.306-.248-.666-.189-1.017,.078-.518,.42-.972,.9-1.179,.481-.206,1.037-.164,1.467,.135,.064,.044,6.84,4.627,14.947,1.93,4.219-1.402,7.92-6.604,11.839-12.112,4.619-6.491,9.854-13.849,17.394-17.103,22.642-9.775,42.638,3.686,43.478,4.263,.399,.274,.642,.724,.655,1.207,.013,.484-.207,.945-.592,1.24-.012,.009-1.226,.943-3.067,2.53-.362,.313-.849,.435-1.319,.331-21.677-4.852-27.159,1.757-34.096,10.124-4.543,5.48-9.693,11.691-20.037,15.533-5.801,2.153-10.617,3.01-14.605,3.01Zm-9.668-5.681c4.255,2.792,11.395,4.224,23.22-.167,9.585-3.56,14.249-9.186,18.761-14.627,7.219-8.707,13.466-16.24,36.344-11.309,.331-.281,.636-.537,.912-.766-5.253-2.934-21.418-10.41-38.787-2.911-6.764,2.919-11.524,9.61-16.128,16.08-4.214,5.922-8.193,11.515-13.349,13.229-4.157,1.383-7.966,1.172-10.972,.472Z" fill="#390075"/><path d="M112.104,188.746c-1.819,1.566-4.244,3.771-6.79,6.4-13.024,.999-15.899,11.322-23.169,20.203-4.032,4.925-9.415,9.408-18.626,11.613-4.963,1.188-9.366,1.475-13.258,1.131-.2-.015-.401-.038-.598-.057l-.59-.068c-.62-.079-1.226-.17-1.819-.28-.155-.026-.31-.057-.461-.087-.185-.034-.367-.072-.549-.113-.185-.038-.363-.079-.545-.121-.178-.042-.356-.087-.533-.132-.972-.246-1.899-.53-2.792-.851-.155-.053-.306-.11-.461-.17-.155-.057-.31-.117-.461-.178-.163-.064-.322-.129-.477-.193-.148-.061-.291-.121-.431-.185-.253-.11-.503-.223-.749-.337-.148-.072-.295-.14-.443-.212-.291-.144-.583-.291-.862-.443-.14-.072-.28-.147-.42-.227-1.403-.772-2.682-1.623-3.843-2.512l-.318-.25c-.34-.265-.67-.537-.987-.81-.185-.159-.371-.321-.548-.48-.144-.129-.284-.253-.42-.382-.087-.083-.17-.163-.253-.242-1.029-.972-1.937-1.959-2.731-2.916-.061-.076-.121-.148-.182-.223-.287-.348-.56-.696-.813-1.033-.113-.151-.223-.303-.333-.45-.015-.019-.026-.045-.026-.072-.352-2.606-.212-4.562-.11-5.417,.015-.14,.193-.178,.272-.068l.008,.008c.132,.212,.272,.427,.424,.647,.151,.216,.31,.439,.48,.658l.004,.008c.17,.219,.352,.439,.541,.662,.095,.11,.193,.223,.291,.333,.102,.113,.204,.223,.31,.333,.106,.113,.216,.223,.329,.333,.223,.219,.458,.439,.704,.651,.095,.083,.189,.163,.287,.246,.439,.363,.912,.715,1.422,1.048,.117,.076,.238,.151,.359,.227l.019,.011c.151,.095,.306,.185,.465,.276,.159,.091,.325,.182,.492,.269,.155,.079,.314,.159,.473,.238,.034,.015,.068,.034,.102,.049,.155,.072,.31,.144,.469,.212,.182,.079,.367,.159,.556,.231,.163,.064,.325,.125,.492,.185,.182,.064,.363,.129,.552,.189,.095,.03,.193,.061,.291,.091,.144,.045,.291,.087,.443,.129,.178,.049,.359,.095,.541,.14,.14,.034,.284,.068,.427,.098,.098,.023,.2,.045,.303,.064,.216,.045,.431,.087,.651,.125h.004c.113,.019,.227,.038,.34,.053,.151,.023,.303,.045,.458,.064,.484,.064,.98,.113,1.494,.148,.514,.03,1.048,.049,1.596,.049,3.802,0,8.416-.821,14.011-2.898,25.624-9.517,18.036-33.984,54.989-25.715Z" fill="#b177ea"/><path d="M53.363,229.745c-14.476,0-22.889-8.147-26.945-13.711-.157-.213-.265-.475-.304-.749-.368-2.746-.229-4.817-.114-5.807,.081-.7,.598-1.275,1.287-1.43,.688-.155,1.406,.145,1.781,.746,2.736,4.385,9.951,10.77,27.52,4.248,9.585-3.56,14.249-9.186,18.761-14.627,7.296-8.801,13.598-16.401,37.086-11.146,.558,.125,.998,.554,1.137,1.109s-.047,1.141-.481,1.514c-1.601,1.379-4.063,3.593-6.692,6.308-.257,.266-.603,.428-.972,.456-9.08,.695-12.858,6.336-17.232,12.867-4.894,7.306-10.44,15.587-24.325,18.911-3.81,.912-7.308,1.31-10.508,1.31Zm-24.295-15.215c4.625,6.2,15.05,15.523,34.098,10.962,12.734-3.049,17.706-10.473,22.515-17.652,4.528-6.76,8.81-13.152,18.939-14.149,1.516-1.548,2.966-2.926,4.222-4.073-19.263-3.625-24.552,2.753-31.165,10.73-4.543,5.48-9.693,11.691-20.037,15.533-15.816,5.871-24.296,2.052-28.671-2.358,.024,.322,.057,.658,.098,1.008Zm-.211-.286l.01,.014-.01-.014Zm-2.358-3.848l.002,.002-.002-.002Z" fill="#390075"/><path d="M105.314,195.146c-.34,.352-.681,.707-1.025,1.074-4.963,5.292-10.119,12.052-11.904,18.728-7.849,29.354-45.146,28.45-56.824,16.186-5.239-5.504-7.191-11.212-7.857-15.426-.023-.155,.174-.242,.269-.117,.253,.337,.526,.685,.813,1.033,.061,.076,.121,.148,.182,.223,.794,.957,1.702,1.944,2.731,2.916,.083,.083,.166,.163,.253,.242,.136,.129,.276,.253,.42,.382,.178,.159,.363,.322,.548,.48,.318,.272,.647,.545,.987,.81l.318,.25c1.161,.889,2.44,1.74,3.843,2.512,.136,.079,.276,.155,.42,.227,.28,.151,.571,.299,.862,.443,.148,.072,.295,.14,.443,.212,.246,.113,.496,.227,.749,.337,.14,.064,.284,.125,.431,.185,.155,.064,.314,.129,.477,.193,.151,.061,.306,.121,.461,.178,.155,.06,.306,.117,.461,.17,.893,.322,1.819,.605,2.792,.851,.174,.045,.356,.091,.533,.132,.182,.042,.363,.083,.545,.121,.182,.042,.363,.079,.549,.113,.151,.03,.306,.061,.461,.087,.594,.11,1.199,.2,1.819,.28l.59,.068c.197,.019,.397,.042,.598,.057,3.892,.344,8.295,.057,13.258-1.131,9.211-2.205,14.594-6.688,18.626-11.613,7.27-8.882,10.145-19.205,23.169-20.203Z" fill="#fef26b"/><path d="M58.675,240.688c-9.683,0-19.068-3.11-24.209-8.511-5.643-5.926-7.605-12.098-8.257-16.234-.119-.757,.29-1.494,.996-1.793,.704-.298,1.518-.079,1.978,.533,4.519,5.99,14.944,15.364,33.982,10.806,12.734-3.049,17.706-10.473,22.515-17.652,4.613-6.887,8.97-13.392,19.516-14.199,.632-.048,1.219,.297,1.485,.866,.267,.569,.155,1.244-.283,1.696-6.719,6.935-11.059,13.553-12.551,19.14-3.29,12.304-12.027,20.846-24.601,24.054-3.433,.875-7.023,1.294-10.571,1.294Zm-27.987-19.801c1.134,2.861,2.979,6.064,5.969,9.203,6.33,6.648,20.019,9.387,31.841,6.371,11.466-2.925,19.43-10.703,22.425-21.903,1.397-5.228,4.823-10.969,10.204-17.108-6.116,1.896-9.321,6.681-12.932,12.073-4.894,7.306-10.44,15.587-24.325,18.911-16.441,3.935-27.029-1.744-33.182-7.546Zm-3.923-4.383l.004,.005-.004-.005Z" fill="#390075"/><g><path d="M182.738,156.303c5.511,9.06,10.803,12.857,10.028,20.733-2.818,28.718-46.584,34.146-60.542,31.154-40.819-8.749-36.999-52.515-36.999-52.515-28.82-9.964-34.842-28.783-28.291-35.429,4.309-4.373,11.496-2.039,18.834,1.729,8.443,4.331,17.086,10.558,21.8,10.656,6.544,.14,17.726,.212,17.726,.212l18.123-2.928s10.592-3.586,16.761-5.776c4.906-1.744,12.01-12.086,19.428-19.019,5.141-4.808,10.433-7.982,15.244-5.523,8.307,4.244,8.515,24.001-15.706,42.529,0,0-1.071,6.51,3.594,14.178Z" fill="#fff"/><path d="M140.752,209.145c-3.511,0-6.477-.273-8.578-.723-21.194-4.543-30.177-18.655-33.981-29.693-3.824-11.097-3.316-21.396-3.218-22.89-24.503-8.525-29.364-21.812-30.271-25.689-.959-4.098-.207-7.768,2.061-10.069,4.713-4.784,12.688-1.613,19.11,1.684,2.674,1.371,5.355,2.925,7.946,4.427,5.445,3.156,10.588,6.136,13.751,6.202,6.467,.139,17.61,.211,17.722,.212l18.084-2.924c.068-.027,10.622-3.601,16.72-5.766,2.981-1.059,6.924-5.506,11.098-10.214,2.662-3.002,5.415-6.107,8.247-8.754,4.004-3.744,9.969-8.395,15.514-5.56,2.876,1.47,4.744,4.715,5.123,8.905,.36,3.97-.072,18.138-20.716,33.963-.102,.809-.691,6.912,3.574,13.926h0c1.56,2.565,3.121,4.731,4.498,6.643,3.557,4.939,6.127,8.508,5.564,14.236-.809,8.246-5.009,15.195-12.483,20.655-11.849,8.656-28.574,11.431-39.766,11.431ZM73.045,118.115c-2.259,0-4.316,.646-5.942,2.297-2.153,2.184-2.859,5.693-1.938,9.63,1.845,7.884,10.731,18.7,30.137,25.409l.175,.06-.016,.183c-.01,.109-.902,11.043,3.186,22.894,3.766,10.917,12.656,24.874,33.627,29.369,9.274,1.989,33.232,.136,47.966-10.627,7.36-5.377,11.496-12.213,12.291-20.319,.547-5.55-1.98-9.058-5.476-13.914-1.382-1.919-2.948-4.093-4.518-6.673-4.655-7.654-3.636-14.273-3.625-14.339l.015-.092,.074-.057c16.309-12.476,21.34-25.538,20.61-33.603-.365-4.025-2.139-7.133-4.868-8.527-4.018-2.055-8.778-.311-14.975,5.485-2.816,2.632-5.561,5.729-8.216,8.723-4.399,4.962-8.198,9.247-11.295,10.347-6.1,2.166-16.658,5.742-16.764,5.778l-18.161,2.937h-.015c-.477,0-11.382-.072-17.754-.209-3.284-.069-8.24-2.94-13.977-6.266-2.587-1.499-5.262-3.049-7.926-4.415-4.007-2.058-8.627-4.071-12.615-4.071Z" fill="#390075"/></g><path d="M140.675,210.41c-3.588,0-6.62-.279-8.767-.739-21.776-4.668-31.009-19.177-34.921-30.527-3.459-10.039-3.467-19.226-3.339-22.422-24.334-8.754-29.253-22.295-30.186-26.284-1.06-4.533-.187-8.635,2.395-11.254,6.699-6.794,18.335-.05,28.602,5.9,5.3,3.072,10.307,5.973,13.141,6.034,6.088,.13,16.328,.201,17.58,.209l17.872-2.885c1.187-.402,10.884-3.692,16.621-5.731,2.671-.949,6.509-5.278,10.573-9.862,7.873-8.879,16.795-18.943,25.293-14.601,3.275,1.673,5.395,5.292,5.814,9.929,.372,4.105-.045,18.662-20.767,34.748-.107,1.651-.089,6.78,3.444,12.589,1.534,2.523,3.079,4.669,4.443,6.562,3.58,4.972,6.409,8.899,5.799,15.108h0c-.847,8.623-5.222,15.877-13.003,21.561-12.093,8.833-29.166,11.665-40.595,11.665ZM73.072,119.381c-1.991,0-3.719,.568-5.061,1.929-1.837,1.864-2.422,4.94-1.603,8.44,1.767,7.553,10.395,17.954,29.31,24.494l1.116,.386-.103,1.176c-.009,.106-.874,10.846,3.15,22.449,5.334,15.381,16.322,24.956,32.661,28.458,9.071,1.945,32.514,.129,46.943-10.41,7.055-5.154,11.017-11.685,11.776-19.413,.498-5.072-1.786-8.244-5.243-13.045-1.396-1.938-2.978-4.134-4.573-6.757-4.898-8.053-3.839-14.92-3.791-15.208l.097-.592,.476-.364c15.896-12.16,20.813-24.748,20.113-32.473-.324-3.58-1.847-6.316-4.177-7.507-6.409-3.275-14.508,5.857-21.652,13.914-4.518,5.095-8.42,9.496-11.825,10.706-6.109,2.171-16.677,5.75-16.783,5.786l-.244,.06-18.246,2.945h-.127c-.112-.001-11.269-.072-17.752-.211-3.613-.077-8.701-3.026-14.593-6.441-6.844-3.967-14.359-8.322-19.869-8.322Zm119.695,57.656h0Z" fill="#390075"/><g opacity=".3"><path d="M179.606,105.119c-.015,1.888-.14,3.809-.397,5.753-.083,.647-.182,1.29-.295,1.94-.072,.401-.151,.806-.235,1.207-.42,2.077-.999,4.176-1.751,6.287-6.692,18.743-33.329,23.956-43.21,24.448-9.858,.813-36.946-.859-46.043-18.562-.723-1.4-1.354-2.811-1.906-4.218,8.443,4.331,17.086,10.558,21.8,10.656,6.544,.14,17.726,.212,17.726,.212l18.123-2.928s10.592-3.586,16.761-5.776c4.906-1.744,12.01-12.086,19.428-19.019Z" fill="#6b184e"/><path d="M129.299,145.159c-5.348,0-12.232-.656-18.95-2.514-11.204-3.1-18.904-8.599-22.884-16.344-.698-1.352-1.343-2.778-1.917-4.239l-.229-.582,.557,.285c2.674,1.372,5.355,2.925,7.946,4.427,5.445,3.156,10.588,6.136,13.751,6.202,6.467,.139,17.61,.211,17.722,.212l18.084-2.924c.068-.027,10.622-3.601,16.72-5.766,2.981-1.06,6.924-5.507,11.098-10.215,2.662-3.002,5.415-6.107,8.247-8.754l.402-.376-.004,.55c-.015,1.95-.15,3.896-.399,5.783-.083,.64-.18,1.279-.297,1.95-.072,.404-.152,.811-.236,1.214-.428,2.119-1.02,4.246-1.76,6.318-2.928,8.2-9.838,14.662-20.539,19.206-8.377,3.557-17.313,5.121-22.882,5.398-1.3,.108-2.794,.169-4.431,.169Zm-43.075-22.682c.507,1.24,1.064,2.451,1.661,3.607,8.984,17.482,36.118,19.233,45.813,18.435,9.728-.484,36.402-5.791,43.006-24.292,.732-2.052,1.318-4.156,1.742-6.254,.084-.401,.163-.803,.234-1.202,.116-.664,.212-1.295,.293-1.929,.223-1.689,.354-3.424,.387-5.168-2.674,2.547-5.283,5.489-7.81,8.34-4.399,4.962-8.198,9.247-11.295,10.347-6.1,2.166-16.658,5.742-16.764,5.778l-18.161,2.937c-.166,.016-11.298-.071-17.769-.209-3.284-.069-8.24-2.94-13.977-6.266-2.404-1.393-4.885-2.831-7.362-4.123Z" fill="#390075"/></g><g opacity=".3"><path d="M85.049,114.716c.7,2.062,1.569,4.129,2.625,6.182,9.098,17.703,36.187,19.372,46.045,18.561,9.88-.491,36.517-5.704,43.208-24.448,.755-2.112,1.333-4.211,1.753-6.287-.351-.172-.707-.342-1.069-.51-.11,.289-.226,.579-.345,.868-6.966,16.896-34.147,21.791-44.217,22.312-10.051,.807-37.637-.476-46.768-16.311-.163-.285-.322-.568-.476-.854-.257,.161-.508,.324-.756,.487Z" fill="#390075"/></g><path d="M213.339,182.666c-5.482,2.416-9.663-1.263-13.688-3.335-1.167-.601-2.511-.647-3.827-.414-3.222,.573-6.292,2.83-6.292,2.83l-13.242-23.192c6.625-5.507,17.303-9.681,27.86-5.578,2.67,1.036,5.334,2.603,7.923,4.81,14.017,11.962,7.657,22.063,1.266,24.879Z" fill="#fff"/><path d="M175.967,158.167c1.065-1.886,2.691-3.263,4.464-4.342,1.76-1.119,3.714-1.91,5.707-2.524,1.998-.602,4.043-1.073,6.128-1.316,2.086-.23,4.205-.224,6.299,.032,4.193,.517,8.224,2.13,11.675,4.48,1.737,1.174,3.316,2.521,4.796,3.955,1.481,1.445,2.862,3.028,4.034,4.801,.297,.439,.559,.909,.833,1.367,.24,.483,.515,.944,.719,1.45,.459,.981,.793,2.036,1.04,3.114,.491,2.16,.421,4.507-.265,6.662-.682,2.16-1.955,4.09-3.569,5.611-1.621,1.518-3.567,2.692-5.839,3.242-1.129,.254-2.326,.354-3.475,.198-1.149-.142-2.242-.46-3.256-.864-2.023-.822-3.753-1.95-5.424-2.881-.211-.123-.415-.225-.623-.338-.097-.048-.221-.127-.296-.151l-.235-.09-.231-.099c-.084-.023-.173-.035-.258-.054-.173-.033-.338-.093-.532-.085-.739-.075-1.56,.1-2.374,.367l-2.539,.843c-.884,.277-1.823,.532-2.915,.611l-.049,.004c-.312,.022-.583-.212-.606-.524-.007-.104,.015-.205,.057-.292,.529-1.07,1.311-1.815,2.2-2.43,.895-.597,1.903-1.049,2.996-1.326,1.091-.273,2.273-.385,3.512-.269,.305,.009,.622,.086,.934,.154,.156,.036,.313,.066,.468,.111l.459,.18,.455,.189c.156,.065,.242,.124,.367,.187,.228,.124,.467,.245,.685,.372,1.789,1.006,3.412,2.045,5.078,2.716,.829,.33,1.658,.563,2.48,.666,.823,.115,1.635,.035,2.437-.14,1.597-.378,3.18-1.295,4.446-2.494,1.273-1.199,2.251-2.697,2.763-4.328,.513-1.631,.579-3.388,.192-5.1-.198-.854-.46-1.705-.845-2.523-.164-.417-.404-.81-.603-1.217-.237-.392-.458-.792-.717-1.175-1.018-1.54-2.258-2.969-3.618-4.295-1.37-1.328-2.825-2.566-4.379-3.615-3.109-2.113-6.656-3.524-10.354-3.983-3.692-.446-7.516-.041-11.061,1.248-1.765,.663-3.467,1.466-5.164,2.302-1.698,.851-3.353,1.736-5.353,2.374l-.011,.003c-.284,.091-.588-.066-.678-.35-.047-.148-.026-.303,.044-.429Z" fill="#390075"/><g opacity=".3"><path d="M191.665,182.509c-7.459,23.937-46.421,28.472-59.441,25.681-40.819-8.749-36.999-52.515-36.999-52.515-28.82-9.964-34.842-28.783-28.291-35.429,.068-.068,.136-.136,.208-.201-.583,9.044,10.005,24.758,33.655,32.932,0,0-7.221,41.432,33.598,50.181,12.052,2.584,46.323-1.108,57.27-20.65Z" fill="#390075"/></g><path d="M163.931,212.692c-5.985,.296-8.568-4.639-11.585-8.012-.712-.796-1.664-1.293-2.704-1.589-3.356-.95-7.61,.219-7.61,.219l-4.062-26.395c8.189-2.783,19.71-2.845,28.112,4.857,2.084,1.909,3.972,4.297,5.574,7.237,8.808,16.188-.748,23.343-7.725,23.682Z" fill="#fff"/><path d="M137.808,176.438c1.669-1.38,3.681-2.083,5.723-2.455,2.044-.415,4.151-.454,6.232-.314,2.082,.154,4.159,.446,6.193,.965,2.03,.532,4.007,1.297,5.87,2.285,3.73,1.984,6.916,4.933,9.297,8.363,1.201,1.718,2.194,3.541,3.061,5.41,.865,1.879,1.588,3.851,2.048,5.927,.12,.517,.197,1.049,.288,1.574,.052,.537,.143,1.065,.152,1.611,.077,1.08,.012,2.185-.144,3.279-.315,2.193-1.221,4.359-2.632,6.126-1.41,1.773-3.289,3.119-5.341,3.961-2.057,.837-4.295,1.236-6.612,.936-1.145-.167-2.299-.503-3.316-1.059-1.022-.543-1.929-1.232-2.731-1.973-1.594-1.492-2.806-3.164-4.033-4.632-.153-.19-.307-.358-.46-.539-.074-.08-.161-.197-.223-.247l-.187-.168-.181-.175c-.07-.051-.149-.094-.221-.143-.15-.093-.282-.207-.466-.27-.663-.334-1.492-.465-2.348-.507l-2.673-.122c-.925-.058-1.893-.156-2.94-.473l-.047-.014c-.299-.091-.468-.407-.378-.706,.03-.099,.087-.186,.158-.252,.877-.809,1.874-1.225,2.924-1.481,1.05-.237,2.153-.298,3.273-.166,1.117,.135,2.26,.454,3.376,1.006,.282,.118,.549,.303,.817,.478,.133,.09,.268,.174,.397,.271l.364,.332,.358,.339c.123,.117,.181,.203,.275,.305,.168,.198,.348,.396,.507,.593,1.31,1.58,2.454,3.131,3.77,4.354,.656,.605,1.346,1.119,2.077,1.51,.727,.402,1.514,.618,2.326,.742,1.626,.219,3.433-.071,5.044-.737,1.618-.664,3.067-1.712,4.13-3.052,1.063-1.34,1.754-2.957,2.005-4.693,.121-.868,.181-1.757,.114-2.658-.004-.449-.087-.902-.127-1.353-.081-.451-.144-.904-.249-1.354-.399-1.803-1.045-3.581-1.84-5.306-.804-1.73-1.719-3.407-2.794-4.944-2.146-3.086-4.953-5.673-8.242-7.426-3.287-1.738-7.003-2.73-10.774-2.795-1.885-.013-3.762,.128-5.646,.3-1.89,.186-3.753,.42-5.848,.3h-.011c-.298-.018-.525-.273-.508-.57,.009-.155,.084-.293,.195-.385Z" fill="#390075"/><g opacity=".3"><path d="M218.813,177.879c-1.373,2.228-3.423,3.885-5.474,4.789-5.481,2.413-9.665-1.263-13.69-3.336-1.165-.601-2.512-.647-3.824-.416-3.223,.575-6.294,2.829-6.294,2.829h0c-1.702-2.984-.218-6.827,3.079-7.788,.496-.145,1.002-.266,1.51-.357,1.751-.31,3.537-.25,5.088,.549,5.353,2.758,10.913,7.649,18.202,4.437,.469-.208,.938-.443,1.403-.707Z" fill="#390075"/></g><g opacity=".3"><path d="M172.604,208.413c-2.292,2.765-5.716,4.138-8.674,4.278-5.984,.295-8.568-4.638-11.583-8.012-.715-.794-1.664-1.294-2.705-1.589-3.359-.949-7.611,.219-7.611,.219l-.01-.064c-.622-4.043,3.106-7.478,7.052-6.398l.085,.024c1.362,.39,2.602,1.036,3.533,2.077,3.942,4.407,7.316,10.853,15.131,10.467,1.54-.076,3.177-.405,4.781-1.002Z" fill="#390075"/></g><g opacity=".3"><path d="M104.289,196.221c-4.963,5.292-10.119,12.052-11.904,18.728-7.849,29.354-45.146,28.45-56.824,16.186-5.239-5.504-7.191-11.212-7.857-15.426-.023-.155,.174-.242,.269-.117-.113-.151-.223-.303-.333-.45-.015-.019-.026-.045-.026-.072-.352-2.606-.212-4.562-.11-5.417,.015-.14,.193-.178,.272-.068-.076-.121-.148-.238-.216-.356,.008-.034,.008-.053,.008-.053,0,0,2.546,1.778,6.48,2.625,1.445,1.725,3.166,3.541,5.163,5.243h.004c6.317,5.371,15.411,9.608,27.213,6.393,6.937-1.888,11.859-4.827,15.717-8.087,9.116-7.713,12.29-17.253,22.144-19.129Z" fill="#390075"/></g><g opacity=".6"><path d="M66.402,195.621c.273-2.849,2.481-5.985,5.896-8.724,4.664-3.741,13.989-4.801,14.585-1.492s-8.584,2.958-12.006,8.897c-2.454,4.259-9.108,7.931-8.475,1.319Z" fill="#fff"/></g><g><path d="M73.083,106.782c4.209,25.178,33.895,35.903,67.368,30.307,33.473-5.595,58.058-25.391,53.85-50.569-4.209-25.178-35.617-46.205-69.09-40.61-33.473,5.595-56.336,35.693-52.128,60.872Z" fill="#fff"/><g opacity=".2"><path d="M139.856,137.097c33.47-5.597,58.057-25.392,53.847-50.572-.024-.158-.052-.314-.083-.475-1.978,21.033-24.61,37.057-54.178,42.002-33.423,5.584-63.069-5.096-67.352-30.19-.219,3.013-.097,6.001,.393,8.926,4.21,25.18,33.896,35.903,67.373,30.309Z" fill="#390075"/></g><path d="M140.725,138.723c-16.995,2.841-33.181,1.519-45.577-3.722-13.394-5.663-21.589-15.326-23.699-27.947-2.137-12.786,2.342-27.04,12.289-39.107,10.349-12.554,24.98-20.96,41.2-23.672,16.219-2.711,32.789,.481,46.659,8.987,13.33,8.175,22.202,20.198,24.339,32.984,2.109,12.62-2.497,24.423-13.322,34.134-5.977,5.362-13.682,9.843-22.535,13.189-5.986,2.263-12.498,4.006-19.354,5.152Zm-54.43-68.668c-9.337,11.326-13.556,24.613-11.577,36.453,3.819,22.847,30.738,34.751,65.461,28.947,6.869-1.148,13.221-2.851,18.966-5.023,23.3-8.808,36.586-25.311,33.523-43.639-3.875-23.181-33.43-44.892-67.183-39.249-4.242,.709-8.368,1.827-12.328,3.324-10.445,3.948-19.726,10.532-26.862,19.188Z" fill="#390075"/><path d="M123.938,64.972c1.014,.036,2.146-.054,3.398-.307,6.357-1.285,8.129-5.15,7.997-7.661-1.469,1.656-5.539,5.789-11.395,7.968Z" fill="#fe6dcb"/><path d="M121.045,64.462c.645,.226,1.368,.387,2.176,.466,.233,.024,.472,.041,.714,.043,5.857-2.178,9.928-6.312,11.396-7.967,0-.117-.016-.231-.027-.343-.219-1.752-.81-4.168-1.657-6.859,0,0-4.636,6.723-13.528,9.82-1.013,.351-2.077,.66-3.199,.9,.451,1.431,1.752,3.109,4.125,3.94Z" fill="#33aef1"/><g opacity=".6"><path d="M121.045,64.462c-.373-1.649-.675-3.266-.926-4.84-1.013,.351-2.077,.66-3.199,.9,.451,1.431,1.752,3.109,4.125,3.94Z" fill="#fff"/></g><path d="M116.92,60.522c1.122-.241,2.186-.549,3.199-.9,8.892-3.097,13.528-9.82,13.528-9.82-.854-2.72-1.977-5.727-3.236-8.62,0,0-2.421,5.68-11.092,10.819-1.078,.64-2.253,1.272-3.531,1.88,.264,2.616,.639,4.899,1.09,6.505,.012,.045,.026,.093,.042,.136Z" fill="#fdd800"/><g opacity=".6"><path d="M116.92,60.522c1.122-.241,2.186-.549,3.199-.9-.418-2.656-.672-5.2-.8-7.621-1.078,.64-2.253,1.272-3.531,1.88,.264,2.616,.639,4.899,1.09,6.505,.012,.045,.026,.093,.042,.136Z" fill="#fff"/></g><path d="M115.788,53.88c1.278-.608,2.453-1.24,3.531-1.88,8.671-5.139,11.092-10.819,11.092-10.819-1.361-3.128-2.896-6.122-4.456-8.486,0,0-1.87,5.043-6.432,8.977-1.194,1.033-2.569,1.987-4.149,2.754-.032,3.265,.12,6.568,.415,9.454Z" fill="#b177ea"/><g opacity=".6"><path d="M115.788,53.88c1.278-.608,2.453-1.24,3.531-1.88-.201-3.763-.086-7.225,.204-10.328-1.194,1.033-2.569,1.987-4.149,2.754-.032,3.265,.12,6.568,.415,9.454Z" fill="#fff"/></g><path d="M115.288,44.2c1.58-.767,2.956-1.721,4.149-2.754,4.562-3.935,6.432-8.977,6.432-8.977-1.277-1.947-2.567-3.464-3.795-4.275-.794-.527-1.567-.759-2.285-.613-3.184,.644-4.426,8.51-4.501,16.619Z" fill="#fe6dcb"/><g opacity=".6"><path d="M114.955,44.584c1.58-.767,2.956-1.721,4.149-2.754,.538-5.796,1.703-10.339,2.638-13.252-.794-.527-1.567-.759-2.285-.613-3.184,.644-4.426,8.51-4.501,16.619Z" fill="#fff"/></g><path d="M131.927,40.518c-1.487-3.417-3.074-6.439-4.588-8.736-2.794-4.261-5.342-6.093-7.79-5.599-4.687,.953-5.758,10.435-5.834,18.228-.03,3.287,.117,6.618,.423,9.635,.278,2.755,.674,5.101,1.144,6.784,.025,.093,.053,.184,.085,.271v.004c.038,.11,.077,.219,.121,.329,.017,.043,.038,.094,.059,.144,.044,.103,.08,.186,.12,.269,.031,.066,.059,.123,.088,.182,.045,.089,.091,.174,.139,.26,.039,.071,.064,.115,.09,.16,.079,.133,.163,.266,.253,.398,.016,.024,.043,.062,.07,.099,.075,.106,.148,.204,.225,.303l.087,.108,.034,.043c.074,.089,.15,.178,.229,.265l.123,.135c.096,.102,.203,.21,.315,.316,.023,.022,.054,.052,.087,.082,.108,.101,.253,.227,.405,.349,.011,.009,.059,.046,.07,.055,.133,.105,.263,.201,.398,.296l.098,.067,.022,.015c.135,.091,.274,.179,.418,.265l.093,.056c.371,.214,.762,.403,1.165,.566,.011,.005,.065,.025,.077,.03l.091,.035c.082,.033,.165,.065,.25,.095,.06,.02,.108,.035,.157,.05l.23,.072c.161,.049,.322,.094,.487,.135,.08,.021,.15,.039,.221,.055,.155,.035,.317,.067,.48,.097l.053,.01c.065,.013,.129,.025,.196,.036,.189,.03,.378,.054,.569,.075,.062,.009,.117,.017,.175,.022,.301,.031,.585,.048,.855,.051,1.149,.041,2.423-.072,3.745-.339,.95-.192,1.822-.444,2.618-.745,4.815-1.82,6.861-5.441,6.708-8.6-.004-.133-.016-.267-.029-.396l-.005-.052c-.14-1.124-.408-2.445-.802-3.971-.204-.792-.441-1.635-.706-2.507l-.05-.164c-.055-.182-.111-.365-.17-.551-.894-2.851-2.036-5.889-3.3-8.786Zm1.731,16.321l-.006,.006c-.078,.081-.163,.167-.247,.254-.048,.049-.094,.096-.144,.147-.109,.109-.225,.223-.344,.338-.033,.032-.063,.062-.097,.095-.154,.148-.317,.302-.487,.458-.048,.045-.102,.091-.151,.136-.125,.113-.25,.227-.383,.344-.071,.063-.147,.127-.221,.19-.118,.102-.236,.203-.359,.306-.084,.071-.173,.142-.26,.213-.12,.098-.241,.197-.367,.296-.094,.075-.192,.15-.288,.225-.125,.097-.252,.194-.382,.291-.103,.077-.208,.154-.314,.231-.132,.096-.266,.191-.402,.286-.11,.077-.221,.154-.333,.231-.14,.095-.283,.19-.428,.284-.115,.075-.23,.151-.348,.225-.151,.095-.305,.189-.46,.283-.118,.071-.234,.143-.354,.213-.168,.098-.341,.194-.514,.29-.113,.063-.224,.127-.339,.188-.208,.111-.421,.219-.635,.326-.086,.043-.17,.088-.257,.13-.303,.147-.612,.289-.927,.426-.051,.022-.103,.042-.154,.063-.154,.001-.31,.004-.46-.001-.21-.003-.396-.014-.609-.036l-.118-.016c-.15-.017-.29-.034-.423-.055l-.175-.033c-.119-.022-.231-.043-.34-.069l-.122-.03c-.143-.036-.254-.066-.361-.099l-.234-.073c-.068-.022-.111-.04-.155-.057l-.08-.031-.055-.022c-.267-.107-.517-.229-.751-.364l-.06-.037c-.091-.054-.176-.108-.259-.164l-.019-.012-.048-.033c-.089-.062-.169-.122-.246-.182l-.045-.035c-.09-.073-.176-.146-.256-.222l-.052-.05c-.048-.046-.112-.11-.173-.174l-.055-.06c-.052-.058-.092-.104-.129-.149,.252-.074,.499-.153,.746-.233,.093-.03,.187-.058,.279-.089,.356-.119,.707-.243,1.05-.373,.029-.011,.058-.023,.087-.034,.061-.023,.121-.048,.181-.072,.313-.122,.621-.248,.923-.378,.076-.032,.152-.064,.227-.097,.342-.15,.678-.304,1.006-.463,.052-.025,.103-.052,.155-.077,.289-.142,.573-.288,.851-.435,.065-.034,.13-.068,.194-.103,.311-.168,.615-.339,.911-.512,.049-.029,.096-.058,.144-.086,.259-.154,.512-.309,.76-.466,.058-.037,.117-.074,.175-.111,.277-.178,.547-.357,.809-.538,.046-.032,.091-.064,.136-.095,.227-.158,.448-.316,.663-.474,.053-.039,.107-.078,.159-.117,.242-.18,.478-.36,.705-.54,.045-.035,.087-.07,.131-.105,.193-.154,.38-.307,.562-.459,.049-.041,.099-.082,.147-.123,.207-.175,.407-.348,.599-.519,.043-.038,.084-.076,.127-.114,.159-.143,.313-.284,.462-.424,.044-.041,.089-.083,.132-.124,.171-.162,.336-.322,.494-.478,.041-.041,.08-.08,.12-.12,.126-.126,.248-.25,.365-.371,.039-.04,.078-.081,.116-.12,.058-.06,.113-.119,.168-.178,.041,.155,.087,.316,.126,.467,.356,1.38,.596,2.552,.714,3.488Zm-13.549-27.38c.033-.012,.065-.022,.097-.028,.512-.103,1.93,.593,4.076,3.741l-.011,.024c-.052,.109-.11,.226-.172,.35-.017,.034-.035,.07-.053,.104-.051,.101-.106,.207-.164,.316-.02,.038-.039,.075-.06,.113-.074,.139-.154,.284-.238,.434-.023,.041-.047,.083-.071,.124-.069,.121-.141,.245-.216,.371-.029,.049-.058,.098-.088,.149-.098,.163-.201,.329-.309,.5-.026,.041-.054,.084-.081,.126-.089,.139-.183,.281-.279,.424-.038,.057-.076,.114-.116,.171-.123,.18-.25,.362-.384,.546-.025,.035-.052,.07-.078,.105-.115,.157-.235,.316-.358,.475-.046,.06-.093,.119-.14,.179-.146,.186-.296,.372-.453,.56l-.052,.061c-.153,.181-.312,.362-.475,.543-.053,.058-.106,.116-.16,.175-.156,.17-.317,.339-.482,.507-.028,.028-.055,.057-.083,.086-.189,.19-.385,.378-.586,.564-.058,.054-.117,.107-.176,.16-.173,.157-.35,.312-.531,.465-.043,.036-.084,.073-.127,.108-.218,.181-.443,.358-.673,.531-.061,.046-.123,.091-.185,.136-.126,.093-.257,.182-.387,.273,.35-8.356,1.941-11.99,3.014-12.396Zm11.807,20.38l-.031,.038-.052,.061c-.207,.246-.46,.535-.756,.856l-.089,.096c-.148,.158-.305,.324-.474,.496-.027,.028-.057,.057-.084,.085-.161,.163-.331,.331-.511,.504-.025,.024-.049,.048-.075,.073-.193,.185-.399,.375-.613,.568-.045,.041-.091,.082-.137,.123-.222,.198-.452,.399-.695,.603l-.055,.045c-.233,.194-.477,.391-.729,.588-.046,.036-.091,.072-.138,.108-.265,.205-.541,.41-.826,.615-.05,.036-.1,.071-.151,.107-.293,.207-.594,.415-.907,.619l-.021,.014c-.318,.207-.649,.411-.988,.613-.06,.036-.12,.071-.181,.107-.339,.199-.688,.394-1.048,.585-.04,.021-.082,.042-.122,.063-.346,.181-.701,.356-1.065,.527-.046,.021-.09,.043-.136,.065-.381,.176-.774,.345-1.175,.507-.074,.03-.149,.059-.223,.089-.412,.162-.831,.319-1.263,.464l-.043,.014c-.368,.123-.748,.234-1.131,.343-.259-1.191-.491-2.66-.676-4.294,.339-.173,.672-.347,.996-.523,.067-.036,.129-.073,.195-.109,.322-.176,.637-.353,.944-.531,.127-.074,.251-.148,.376-.222,.245-.145,.485-.29,.72-.436,.123-.076,.246-.153,.367-.229,.251-.159,.494-.318,.734-.478,.087-.058,.177-.116,.263-.174,.316-.214,.622-.428,.919-.641,.08-.058,.156-.115,.235-.173,.219-.16,.434-.32,.643-.48,.101-.077,.199-.154,.297-.231,.185-.145,.366-.289,.544-.433,.091-.074,.182-.148,.271-.221,.207-.172,.407-.342,.602-.512,.047-.041,.096-.082,.142-.122,.236-.208,.462-.413,.681-.617,.069-.064,.134-.127,.201-.191,.151-.143,.3-.286,.443-.427,.074-.073,.147-.146,.219-.218,.136-.137,.267-.271,.396-.405,.061-.064,.124-.128,.183-.191,.179-.19,.352-.378,.516-.561l.039-.044c.154-.174,.301-.344,.443-.511,.051-.061,.1-.12,.149-.18,.1-.121,.198-.24,.291-.357,.049-.062,.098-.123,.145-.183,.094-.12,.184-.236,.271-.351,.036-.048,.074-.096,.109-.143,.042-.056,.081-.11,.121-.165,.721,1.809,1.376,3.626,1.94,5.382Zm-14.131-5.22c.187-.117,.371-.235,.552-.356,.084-.056,.169-.113,.252-.17,.205-.141,.405-.285,.601-.431,.046-.034,.094-.067,.139-.102,.238-.18,.469-.363,.694-.549,.066-.054,.129-.109,.194-.164,.162-.137,.322-.275,.478-.414,.073-.065,.146-.131,.218-.197,.154-.141,.305-.284,.453-.427,.056-.055,.114-.109,.17-.163,.197-.194,.389-.39,.575-.586,.04-.043,.078-.085,.118-.128,.147-.158,.291-.315,.431-.473,.06-.067,.118-.135,.176-.202,.121-.14,.239-.279,.354-.418,.053-.064,.106-.127,.158-.191,.15-.185,.297-.37,.438-.553l.029-.037c.149-.195,.292-.388,.43-.58,.046-.063,.089-.125,.134-.188,.094-.133,.186-.265,.275-.395,.045-.066,.089-.131,.133-.196,.094-.14,.184-.278,.272-.414,.029-.046,.06-.092,.089-.137,.111-.175,.218-.347,.32-.516,.035-.058,.068-.114,.102-.171,.067-.113,.133-.224,.195-.333,.039-.068,.077-.134,.114-.201,.016-.029,.034-.059,.05-.087,.936,1.653,1.882,3.557,2.8,5.636l-.008,.013c-.067,.112-.142,.233-.226,.365l-.02,.03c-.08,.125-.169,.259-.265,.4l-.046,.068c-.103,.15-.215,.309-.337,.475l-.056,.075c-.119,.162-.247,.33-.384,.505l-.032,.042c-.144,.183-.3,.373-.464,.569-.03,.036-.061,.072-.092,.109-.338,.398-.719,.819-1.144,1.259-.04,.042-.08,.083-.122,.125-.213,.218-.437,.439-.673,.664-.03,.029-.063,.058-.093,.087-.219,.207-.449,.418-.688,.63-.044,.039-.086,.077-.13,.116-.26,.229-.533,.461-.817,.694-.057,.047-.115,.093-.173,.14-.274,.222-.557,.445-.853,.669-.029,.022-.056,.044-.085,.066-.314,.237-.645,.474-.984,.712-.077,.054-.155,.108-.234,.162-.347,.239-.704,.479-1.078,.718-.033,.021-.068,.042-.101,.063-.349,.221-.712,.442-1.084,.662-.091,.054-.181,.107-.273,.161-.327,.19-.668,.378-1.013,.565-.155-2.115-.228-4.337-.224-6.554,.168-.095,.335-.19,.498-.289,.086-.052,.171-.106,.256-.159Z" fill="#390075"/><path d="M103.872,63.101s-8.65-20.192-17.209-18.35c-8.559,1.843-8.753,32.767-6.768,39.766,0,0,13.288-1.936,23.977-21.416Z" fill="#fff"/><path d="M104.379,62.883c.191-1.686-.259-3.105-.848-4.451-.577-1.354-1.35-2.611-2.166-3.839-.821-1.225-1.614-2.472-2.489-3.678-.875-1.206-1.815-2.38-2.87-3.49-1.058-1.106-2.227-2.158-3.628-3.024-1.386-.855-3.137-1.504-5.032-1.411l-.7,.092c-.117,.018-.231,.032-.35,.054l-.372,.099c-.251,.062-.479,.17-.716,.26-.219,.113-.454,.216-.654,.349-.833,.511-1.486,1.161-2.019,1.83-1.054,1.352-1.716,2.791-2.264,4.223-1.073,2.875-1.657,5.782-2.105,8.686-.435,2.906-.693,5.815-.835,8.724-.141,2.91-.166,5.821-.06,8.74,.026,.73,.063,1.46,.107,2.192,.048,.731,.029,1.47,.066,2.211,.034,.741,.171,1.479,.431,2.204,.274,.716,.689,1.444,1.49,2.013,.318,.226,.758,.152,.984-.166,.019-.026,.035-.053,.05-.081l.028-.054c.421-.813,.571-1.496,.63-2.198,.044-.693,.014-1.379-.094-2.064-.102-.686-.232-1.377-.275-2.076-.049-.699-.08-1.4-.106-2.103-.102-2.812-.078-5.64,.059-8.457,.138-2.816,.388-5.627,.802-8.392,.422-2.756,.99-5.503,1.927-8.005,.468-1.241,1.045-2.428,1.763-3.34,.358-.451,.75-.815,1.14-1.054,.096-.069,.197-.101,.292-.159,.1-.029,.194-.087,.294-.104l.147-.042,.182-.022c.122-.015,.244-.033,.366-.054,.983-.039,2.063,.291,3.105,.936,1.041,.642,2.031,1.513,2.95,2.478,.921,.968,1.778,2.035,2.586,3.149,.806,1.116,1.58,2.274,2.241,3.502,.666,1.227,1.289,2.475,2.04,3.662,.729,1.2,1.545,2.355,2.889,3.294l.021,.014c.288,.201,.683,.13,.884-.157,.062-.089,.098-.191,.11-.292Z" fill="#390075"/><g><path d="M96.056,62.868s-3.502-10.151-7.134-9.153c-3.632,.998-3.951,16.646-3.165,20.172,0,0,5.632-1.081,10.299-11.019Z" fill="#fe6dcb"/><path d="M88.483,52.118c-1.51,.414-3.612,1.961-4.449,10.575-.421,4.325-.374,9.4,.105,11.554,.195,.875,1.049,1.436,1.93,1.267,.055-.011,.37-.076,.879-.269,1.935-.731,6.674-3.298,10.607-11.674,.183-.391,.207-.837,.066-1.244-.94-2.726-4.379-11.518-9.139-10.21Zm-1.346,19.362c-.128-2.09-.105-5.152,.158-8.083,.537-5.982,1.722-7.896,2.095-8.095,.885-.241,3.253,3.103,4.873,7.472-2.592,5.261-5.391,7.653-7.125,8.706Z" fill="#390075"/></g><path d="M149.842,53.795s.116-21.967,8.718-23.598c8.602-1.631,20.808,26.783,21.701,34.003,0,0-12.995,3.384-30.419-10.405Z" fill="#fff"/><path d="M150.394,53.798c.873-1.387,1.175-2.769,1.381-4.158,.231-1.385,.319-2.778,.456-4.167,.132-1.389,.394-2.757,.703-4.098,.311-1.341,.686-2.657,1.158-3.907,.472-1.247,1.045-2.434,1.754-3.43,.709-.999,1.576-1.724,2.497-2.07,.12-.028,.239-.059,.358-.093l.176-.051,.152-.019c.099-.023,.208-.006,.311-.018,.111,.016,.216,.006,.331,.033,.453,.069,.955,.251,1.46,.528,1.015,.561,2.009,1.43,2.923,2.391,1.837,1.941,3.428,4.25,4.889,6.625,1.457,2.387,2.781,4.878,4.003,7.42,1.221,2.542,2.343,5.138,3.343,7.768,.249,.658,.493,1.316,.72,1.979,.232,.661,.381,1.348,.554,2.019,.168,.673,.406,1.317,.716,1.938,.327,.623,.731,1.194,1.435,1.78l.044,.037c.3,.249,.745,.208,.994-.091,.021-.025,.041-.054,.058-.081,.516-.836,.615-1.669,.59-2.434-.043-.768-.203-1.502-.46-2.198-.254-.697-.559-1.37-.799-2.063-.244-.691-.494-1.379-.754-2.061-1.038-2.73-2.193-5.402-3.454-8.028-1.263-2.625-2.632-5.205-4.162-7.713-1.543-2.501-3.211-4.952-5.317-7.183-1.062-1.107-2.231-2.175-3.728-3.01-.752-.409-1.605-.754-2.572-.901-.237-.044-.493-.048-.739-.067-.254,.01-.506-.001-.761,.039l-.381,.053c-.118,.026-.229,.057-.344,.086l-.68,.188c-1.782,.651-3.142,1.931-4.087,3.257-.955,1.343-1.622,2.767-2.167,4.197-.54,1.433-.949,2.881-1.287,4.332-.338,1.452-.584,2.908-.863,4.356-.274,1.449-.498,2.907-.503,4.379-.02,1.469,.118,2.951,.95,4.431,.172,.306,.559,.414,.865,.242,.095-.053,.171-.127,.225-.213l.015-.024Z" fill="#390075"/><g><path d="M156.678,50.876s-.375-10.985,3.67-11.633c4.045-.647,10.386,13.804,10.951,17.433,0,0-6.093,1.438-14.621-5.8Z" fill="#fe6dcb"/><path d="M163.278,38.55c-1.087-.79-2.16-1.107-3.192-.942-5.227,.842-5.135,11.247-5.063,13.325,.016,.466,.228,.904,.584,1.206,9.062,7.691,15.791,6.216,16.073,6.15,.071-.017,.14-.038,.207-.063,.723-.273,1.171-1.021,1.05-1.804-.537-3.448-5.343-14.733-9.658-17.872Zm5.892,16.55c-2.12-.167-6.017-1.088-10.851-5.015-.03-4.165,.827-8.668,2.151-9.169,.046-.017,.093-.03,.14-.037,.328-.046,2.152,.89,5.08,6.3,1.484,2.742,2.789,5.831,3.48,7.921Z" fill="#390075"/></g><path d="M177.613,79.212c2.111-1.063,4.214-1.99,6.356-2.808,2.136-.819,4.29-1.557,6.489-2.133,2.196-.577,4.413-1.102,6.676-1.44,1.127-.219,2.268-.34,3.417-.499,.575-.112,1.152-.126,1.732-.197,.581-.063,1.165-.13,1.756-.224-.574-.136-1.155-.245-1.739-.349-.584-.1-1.171-.209-1.762-.246-1.18-.074-2.374-.183-3.562-.105-2.385,.045-4.756,.453-7.063,1.064-2.311,.608-4.537,1.525-6.631,2.659-2.079,1.152-4.068,2.518-5.67,4.279Z" fill="#390075"/><path d="M178.442,85.114c2.316-.469,4.589-.809,6.871-1.035,2.276-.227,4.548-.372,6.822-.348,2.27,.022,4.547,.1,6.82,.369,1.145,.086,2.277,.269,3.428,.418,.584,.043,1.144,.182,1.723,.267,.577,.092,1.158,.181,1.753,.246-.518-.282-1.05-.54-1.585-.795-.537-.25-1.075-.51-1.635-.702-1.119-.382-2.241-.802-3.408-1.039-2.312-.585-4.707-.816-7.094-.834-2.39-.022-4.778,.276-7.097,.819-2.309,.563-4.587,1.357-6.597,2.634Z" fill="#390075"/><path d="M178.008,92.745c2.363,.055,4.655,.225,6.93,.51,2.27,.282,4.518,.643,6.73,1.169,2.209,.524,4.413,1.102,6.569,1.868,1.098,.337,2.161,.766,3.25,1.166,.56,.171,1.076,.431,1.622,.641,.542,.218,1.089,.433,1.655,.627-.443-.39-.904-.759-1.37-1.126-.469-.363-.936-.735-1.439-1.046-1.007-.62-2.009-1.278-3.094-1.767-2.126-1.081-4.411-1.836-6.734-2.382-2.326-.55-4.721-.788-7.102-.771-2.377,.039-4.774,.309-7.016,1.111Z" fill="#390075"/><path d="M84.309,102.331c-2.278-.692-4.686-.847-7.061-.771-2.379,.098-4.76,.451-7.057,1.112-2.294,.657-4.54,1.521-6.611,2.704-1.06,.541-2.03,1.246-3.006,1.914-.488,.334-.937,.729-1.387,1.114-.448,.389-.891,.78-1.314,1.191,.555-.221,1.092-.463,1.623-.706,.535-.236,1.038-.52,1.589-.718,1.068-.452,2.11-.931,3.19-1.321,2.118-.868,4.29-1.553,6.472-2.182,2.184-.632,4.412-1.101,6.666-1.492,2.258-.394,4.54-.675,6.897-.843Z" fill="#390075"/><path d="M86.619,107.826c-2.38-.068-4.743,.417-7.015,1.116-2.27,.721-4.474,1.689-6.515,2.932-2.04,1.238-3.979,2.663-5.666,4.35-.88,.801-1.63,1.737-2.395,2.638-.383,.451-.712,.95-1.045,1.44-.33,.493-.654,.987-.954,1.495,.477-.36,.931-.734,1.379-1.109,.454-.369,.864-.775,1.344-1.111,.912-.717,1.79-1.454,2.73-2.115,1.814-1.396,3.73-2.628,5.669-3.81,1.94-1.185,3.966-2.224,6.038-3.195,2.075-.975,4.202-1.847,6.431-2.63Z" fill="#390075"/><path d="M90.9,114.158c-2.336,.46-4.534,1.455-6.595,2.639-2.054,1.205-3.99,2.636-5.706,4.299-1.716,1.658-3.292,3.477-4.564,5.495-.682,.976-1.206,2.054-1.753,3.102-.274,.524-.484,1.084-.701,1.635-.213,.554-.42,1.107-.6,1.669,.386-.457,.746-.922,1.1-1.386,.361-.46,.671-.947,1.064-1.381,.731-.901,1.425-1.814,2.195-2.666,1.461-1.762,3.057-3.387,4.686-4.969,1.63-1.585,3.376-3.046,5.182-4.451,1.808-1.409,3.689-2.73,5.691-3.987Z" fill="#390075"/><path d="M89.906,114.584c1.041,1.912,2.25,3.801,3.64,5.644,11.984,15.892,38.96,12.918,48.535,10.438,9.651-2.168,35.009-11.847,38.407-31.457,.384-2.209,.595-4.377,.656-6.493-12.316-3.605-29.756-3.593-48.219,.871-18.284,4.42-33.685,12.268-43.02,20.998Z" fill="#ffebf6"/><path d="M133.909,97.457c.589,.419,.877,1.025,.644,1.353s-.9,.254-1.489-.165-.877-1.025-.644-1.353c.233-.328,.9-.254,1.489,.165Z" fill="#390075"/><path d="M138.074,96.153c-.245,.68-.136,1.342,.242,1.478,.379,.136,.884-.305,1.129-.985,.245-.68,.136-1.342-.242-1.478-.379-.136-.884,.305-1.129,.985Z" fill="#390075"/><path d="M132.199,105.791c.485,1.726,1.394,3.187,2.531,4.238,1.604,1.486,3.658,2.154,5.602,1.608,1.944-.546,3.35-2.186,3.946-4.289,.423-1.489,.44-3.209-.045-4.936-1.168-4.161-13.202-.782-12.034,3.379Z" fill="#390075"/><path d="M134.73,110.028c1.604,1.486,3.658,2.154,5.602,1.608,1.944-.546,3.35-2.186,3.946-4.289-1.604-1.486-3.658-2.154-5.602-1.608-1.944,.546-3.35,2.186-3.946,4.289Z" fill="#ff4f90"/><path d="M139.979,112.687c-1.709,.296-3.489-.154-5.074-1.293-1.709-1.229-2.994-3.128-3.617-5.347-.232-.824-.231-2.091,1.088-3.443,2.163-2.215,7.043-3.586,10.045-2.821,1.83,.467,2.491,1.548,2.722,2.373,.623,2.218,.514,4.509-.305,6.448-.851,2.013-2.361,3.414-4.251,3.945-.201,.057-.404,.103-.608,.138Zm-1.154-11.078c-1.963,.34-4.018,1.212-5.096,2.316-.553,.566-.762,1.108-.621,1.61h0c.508,1.808,1.538,3.343,2.9,4.323,1.298,.933,2.74,1.241,4.067,.87,1.325-.372,2.397-1.388,3.019-2.86,.654-1.546,.734-3.393,.227-5.201-.141-.502-.602-.856-1.369-1.052-.871-.222-1.984-.205-3.127-.007Z" fill="#390075"/><g><ellipse cx="99.77" cy="105.204" rx="8.823" ry="5.823" transform="translate(-30.5 41.552) rotate(-20.478)" fill="#fdc1e5"/><ellipse cx="161.121" cy="86.51" rx="8.538" ry="5.635" transform="translate(-13.874 33.401) rotate(-11.35)" fill="#fdc1e5"/><g><path d="M108.177,75.577l1.507,2.011c.319,.426,.232,1.029-.193,1.348-.426,.319-1.029,.232-1.348-.193-.078-.104-.133-.224-.163-.343l-.613-2.438c-.062-.245,.087-.494,.332-.555,.184-.046,.37,.026,.478,.169Z" fill="#390075"/><path d="M104.234,77.431l2.123,1.566c.424,.313,.514,.91,.202,1.334-.313,.424-.91,.514-1.334,.202-.073-.054-.14-.121-.193-.19l-1.598-2.099c-.193-.253-.144-.614,.109-.807,.208-.159,.49-.153,.691-.005Z" fill="#390075"/><path d="M101.434,81.608l2.448,.755c.505,.156,.788,.691,.632,1.196-.156,.505-.691,.788-1.196,.632-.1-.031-.195-.079-.276-.137l-2.082-1.494c-.242-.173-.297-.51-.124-.752,.139-.193,.381-.267,.597-.201Z" fill="#390075"/><ellipse cx="110.374" cy="87.183" rx="9.491" ry="7.906" transform="translate(13.95 189.582) rotate(-85.026)" fill="#390075"/><ellipse cx="111.535" cy="84.052" rx="2.846" ry="2.319" transform="translate(25.12 193.766) rotate(-88.776)" fill="#fff"/><ellipse cx="109.152" cy="91.72" rx="1.716" ry="1.398" transform="translate(15.123 198.888) rotate(-88.776)" fill="#fff"/></g><path d="M152.86,69.78c-.893,.622-1.788,1.294-2.587,2.002-.806,.709-1.541,1.465-2.194,2.261-.338,.39-.621,.815-.921,1.224-.255,.438-.553,.848-.764,1.306-.496,.878-.802,1.84-1.098,2.809l-2.44-1.422c.263-.224,.446-.354,.669-.504,.213-.147,.43-.276,.646-.407,.434-.256,.887-.472,1.344-.67,.917-.391,1.884-.659,2.866-.792,.982-.117,1.974-.158,2.938,.004,.966,.11,1.89,.426,2.751,.799,.258,.112,.377,.412,.265,.67-.082,.19-.267,.305-.462,.307h-.062c-.442,.005-.865-.038-1.289-.024-.425,.022-.84,.018-1.251,.077-.821,.085-1.619,.246-2.38,.502-.766,.233-1.498,.555-2.189,.939-.347,.19-.678,.403-1.002,.62-.158,.113-.318,.223-.464,.342-.141,.109-.31,.255-.384,.322l-.022,.02c-.604,.545-1.535,.497-2.081-.106-.337-.373-.445-.881-.338-1.336,.3-1.231,.676-2.471,1.322-3.58,.277-.579,.676-1.082,1.032-1.608,.411-.484,.804-.983,1.275-1.403,.907-.871,1.926-1.603,3.018-2.165,1.104-.553,2.233-.973,3.482-1.147,.28-.039,.539,.157,.578,.437,.027,.197-.061,.384-.214,.491l-.045,.031Z" fill="#390075"/></g></g></svg>