<?xml version="1.0" encoding="UTF-8"?><svg id="a" xmlns="http://www.w3.org/2000/svg" viewBox="0 0 256 256"><g><path d="M172.243,182.794c7.531-2.248,16.44-2.487,24.808-2.699,14.022-.347,26.515-.598,28.432-10.026,2.674-13.14-19.648-14.981-34.634-14.768-7.363,.099-12.954,.698-12.954,.698l-5.652,26.794Z" fill="#fff"/><g opacity=".2"><path d="M172.243,182.794l5.652-26.794s5.591-.599,12.954-.698c3.464,4.477,7.916,11.234,8.964,17.493,13.27-.863,26.57-4.316,23.148-12.165,2.404,2.256,3.584,5.146,2.831,8.832-1.923,9.443-14.461,9.679-28.513,10.03l-.229,.605c-8.368,.212-17.277,.451-24.808,2.699Z" fill="#390075"/></g><path d="M222.815,177.197c2.171-1.597,3.681-3.785,4.294-6.797,.718-3.527-.078-6.59-2.365-9.103-9.819-10.79-45.509-7.107-47.023-6.944-.911,.096-1.568,.914-1.471,1.823,.098,.91,.914,1.569,1.823,1.471,9.854-1.053,37.007-2.048,44.221,5.88,1.558,1.712,2.071,3.744,1.568,6.212-1.643,8.075-13.205,8.363-26.593,8.695-8.692,.216-17.68,.439-25.498,2.773-.876,.263-1.375,1.184-1.113,2.061,.262,.877,1.184,1.375,2.061,1.113,7.394-2.207,16.158-2.425,24.633-2.635,10.178-.253,19.951-.496,25.463-4.549Z" fill="#390075"/></g><g><path d="M13.562,125.985c.798,1.928,1.767,3.873,2.909,5.784,5.22,8.768,13.967,16.914,25.566,19.841,3.666,.924,7.392,1.115,11.012,.699,1.013-.11,2.02-.27,3.011-.478-.914-2.815-3.079-6.719-8.206-8.931-7.608-3.28-22.236,4.72-34.292-16.916Z" fill="#33aef1"/><g opacity=".6"><path d="M14.338,125.354c.798,1.928,1.767,3.873,2.909,5.784,5.252,5.695,12.94,12.936,18.63,13.65,8.989,1.124,12.211-.159,17.948,6.89,1.013-.11,2.02-.27,3.011-.478-.914-2.815-3.079-6.719-8.206-8.931-7.608-3.28-22.236,4.72-34.292-16.916Z" fill="#fff"/></g><path d="M13.542,125.955c.01,.006,.013,.019,.02,.03,12.056,21.636,26.684,13.636,34.292,16.916,5.128,2.211,7.292,6.116,8.206,8.931,1.473-.298,2.919-.697,4.323-1.19,.972-.332,1.93-.709,2.862-1.126-.877-4.804-3.292-11.916-9.929-14.589-10.423-4.196-15.649,1.084-26.4-3.409-4.912-2.053-11.651-9.227-14.869-23.428-.419,.891-.72,1.888-.911,2.977-.714,4.074,.139,9.406,2.406,14.887Z" fill="#fdd800"/><g opacity=".6"><path d="M11.136,111.068c1.82,7.287,5.76,19.513,12.2,22.363,9.322,4.124,13.637,3.241,21.313,3.285,6.848,.04,12.875,4.692,15.733,13.927,.972-.332,1.93-.709,2.862-1.126-.877-4.804-3.292-11.916-9.929-14.589-10.423-4.196-15.649,1.084-26.4-3.409-4.912-2.053-11.651-9.227-14.869-23.428-.419,.891-.72,1.888-.911,2.977Z" fill="#fff"/></g><path d="M12.047,108.091c3.218,14.201,9.956,21.374,14.869,23.428,10.751,4.492,15.977-.788,26.4,3.409,6.637,2.673,9.052,9.784,9.929,14.589,1.237-.55,2.439-1.16,3.595-1.838,1.288-.746,2.516-1.564,3.679-2.444,.095-4.656-.624-12.622-5.997-17.282-7.935-6.886-28.888-.715-38.595-6.374-7.12-4.152-10.113-10.736-11.51-16.471-.552,.41-1.036,.895-1.452,1.451-.355,.465-.658,.974-.919,1.534Z" fill="#b177ea"/><g opacity=".6"><path d="M13.305,106.023c2.607,7.991,7.578,17.187,14.135,20.062,16.259,7.13,39.224-7.056,39.739,21.058,1.288-.746,2.516-1.564,3.679-2.444,.095-4.656-.624-12.622-5.997-17.282-7.935-6.886-28.888-.715-38.595-6.374-7.12-4.152-10.113-10.736-11.51-16.471-.552,.41-1.036,.895-1.452,1.451Z" fill="#fff"/></g><path d="M14.418,105.106c1.397,5.735,4.39,12.319,11.51,16.471,9.707,5.659,30.66-.511,38.595,6.374,5.373,4.661,6.092,12.626,5.997,17.282,2.535-1.924,4.754-4.146,6.54-6.559,.656-.884,1.256-1.793,1.787-2.722-.995-6.317-3.789-18.769-15.046-21.665-14.719-3.789-34.749,12.63-47.174-10.261-.487,.104-.991,.306-1.529,.623-.182,.109-.369,.228-.558,.364-.041,.026-.081,.061-.121,.091Z" fill="#fe6dcb"/><g opacity=".6"><path d="M15.775,103.582c2.054,3.908,4.539,7.539,8.052,10.144,4.567,3.391,10.407,4.663,16.095,4.846,5.687,.179,11.351-.632,17.032-.98,1.536-.093,3.087-.156,4.609,.054,4.953,.677,9.189,4.162,11.851,8.394,1.866,2.968,3.056,6.291,3.961,9.662,.132,.498,.233,1.183,.364,1.904,.656-.884,1.256-1.793,1.787-2.722-.995-6.317-3.789-18.769-15.046-21.665-14.719-3.789-34.749,12.63-47.174-10.261-.487,.104-.991,.306-1.529,.623Z" fill="#fff"/></g><path d="M64.213,112.683c-5.306-1.366-11.192-.292-16.885,.747-11.096,2.025-21.576,3.937-29.247-10.195-.35-.645-1.084-.983-1.802-.83l-.049,.011c-.865,.193-1.726,.597-2.632,1.235-.065,.044-.133,.095-.197,.146-1.196,.893-2.158,2.101-2.857,3.589h0c-2.156,4.598-1.607,11.776,1.468,19.201,.014,.034,.029,.067,.045,.1,4.291,10.312,14.302,22.675,29.571,26.528,4.762,1.201,9.729,1.281,14.764,.237,.203-.041,.407-.085,.61-.13,2.338-.521,4.662-1.291,6.913-2.293,2.703-1.196,5.262-2.702,7.602-4.474,3.663-2.781,6.693-6.162,8.763-9.78,.187-.327,.257-.708,.199-1.08-2.05-13.019-7.523-20.762-16.268-23.012Zm7.524,28.741c-.048-.564-.112-1.146-.195-1.742-.008-.057-.016-.114-.024-.171-.042-.289-.088-.58-.139-.874-.009-.054-.02-.108-.029-.162-.052-.287-.107-.575-.169-.865l-.015-.073c-.065-.302-.137-.605-.213-.909-.016-.063-.032-.127-.048-.19-.078-.301-.161-.602-.251-.904-.014-.048-.03-.096-.045-.144-.087-.285-.179-.57-.278-.853-.014-.04-.026-.079-.04-.119-.106-.301-.221-.601-.341-.9-.025-.062-.05-.124-.076-.186-.124-.3-.254-.598-.393-.894-.016-.035-.034-.069-.051-.104-.133-.279-.274-.555-.422-.828-.024-.045-.048-.091-.073-.136-.157-.286-.324-.568-.498-.847-.035-.057-.071-.113-.107-.169-.181-.283-.369-.563-.568-.836-.013-.018-.027-.035-.04-.053-.192-.262-.395-.518-.605-.77-.039-.047-.077-.094-.117-.14-.217-.255-.444-.503-.681-.746-.047-.048-.095-.095-.142-.142-.249-.249-.504-.493-.775-.728-4.541-3.941-12.348-3.959-20.614-3.979-6.824-.016-13.882-.033-18.184-2.541-.339-.198-.671-.403-.995-.616-.115-.075-.225-.156-.338-.233-.206-.14-.412-.279-.612-.424-.132-.096-.258-.198-.387-.297-.175-.134-.351-.266-.52-.404-.133-.108-.26-.222-.39-.333-.159-.136-.319-.271-.474-.411-.13-.118-.255-.241-.382-.363-.147-.141-.295-.28-.438-.425-.125-.127-.246-.259-.369-.389-.137-.146-.275-.292-.408-.443-.12-.135-.235-.275-.352-.413-.129-.153-.258-.307-.383-.464-.113-.143-.223-.289-.332-.435-.121-.161-.242-.323-.36-.488-.106-.15-.21-.303-.313-.456-.114-.169-.227-.339-.337-.512-.099-.157-.196-.317-.293-.477-.107-.178-.212-.357-.315-.539-.092-.163-.182-.329-.272-.495-.1-.187-.198-.375-.294-.566-.085-.17-.169-.341-.251-.515-.093-.196-.184-.394-.273-.595-.078-.176-.155-.352-.23-.531-.087-.207-.171-.416-.253-.627-.071-.181-.141-.362-.209-.547-.08-.218-.157-.439-.234-.661-.064-.185-.127-.371-.188-.56-.06-.186-.116-.376-.173-.566,8.756,14.229,20.915,12.023,31.694,10.056,5.586-1.019,10.863-1.982,15.464-.798,7.223,1.859,11.839,8.498,13.727,19.737-1.377,2.28-3.189,4.453-5.33,6.402-.01-.149-.021-.299-.033-.451-.004-.052-.009-.103-.013-.155Zm-2.882-1.603l.01,.063c.046,.316,.085,.628,.119,.937,.004,.033,.008,.067,.012,.1,.032,.297,.059,.59,.082,.877,.003,.042,.007,.084,.01,.126,.021,.28,.038,.555,.052,.823,.002,.044,.005,.089,.007,.133,.012,.263,.021,.52,.027,.77l.003,.136c.003,.13,.003,.252,.004,.377-1.584,1.17-3.275,2.208-5.048,3.099-.054-.218-.109-.436-.169-.656l-.006-.024c-.082-.303-.171-.609-.264-.915-.013-.042-.025-.084-.038-.126-.091-.293-.188-.588-.29-.882-.018-.053-.036-.105-.055-.157-.103-.292-.212-.584-.327-.876-.02-.051-.04-.101-.061-.152-.12-.297-.244-.594-.377-.889-.016-.035-.032-.069-.048-.104-.14-.308-.286-.615-.441-.918l-.005-.011c-.155-.303-.32-.603-.49-.899-.021-.037-.042-.074-.063-.111-.165-.282-.338-.561-.517-.836-.031-.047-.062-.095-.093-.142-.18-.27-.368-.537-.563-.798-.033-.045-.067-.089-.101-.133-.202-.265-.41-.525-.628-.779-.026-.031-.054-.061-.081-.091-.231-.265-.469-.524-.719-.775l-.005-.005c-.249-.25-.511-.491-.78-.726-.033-.029-.065-.059-.099-.088-.259-.222-.528-.435-.806-.641-.048-.035-.095-.071-.143-.106-.277-.201-.564-.394-.86-.578-.051-.032-.103-.063-.155-.094-.304-.184-.617-.36-.941-.525-.041-.021-.083-.04-.124-.06-.344-.171-.698-.334-1.066-.482-5.408-2.177-9.507-1.934-13.47-1.699-3.981,.236-7.74,.459-12.916-1.702-.142-.059-.286-.124-.431-.193-.059-.028-.12-.061-.18-.091-.087-.043-.173-.085-.261-.132-.068-.036-.137-.077-.206-.116-.081-.046-.162-.089-.244-.138-.073-.043-.148-.091-.221-.137-.079-.049-.157-.095-.237-.147-.075-.048-.15-.101-.225-.152-.08-.054-.16-.106-.241-.163-.076-.053-.152-.111-.228-.167-.081-.059-.162-.116-.243-.178-.078-.059-.157-.123-.235-.185-.08-.063-.16-.125-.241-.191-.08-.066-.162-.136-.242-.205-.079-.067-.158-.133-.238-.202-.082-.072-.164-.148-.245-.222-.08-.072-.159-.143-.239-.218-.081-.076-.162-.156-.243-.235-.081-.079-.162-.156-.244-.237-.082-.082-.164-.169-.246-.254-.08-.083-.16-.164-.24-.249-.083-.088-.166-.181-.249-.272-.08-.088-.159-.174-.239-.264-.083-.093-.165-.191-.247-.287-.08-.093-.16-.185-.24-.281-.082-.098-.164-.201-.245-.302-.08-.1-.161-.198-.241-.3-.081-.104-.163-.212-.244-.318-.08-.105-.16-.208-.239-.315-.082-.11-.163-.225-.244-.338-.079-.11-.158-.218-.236-.33-.081-.116-.161-.235-.241-.354-.078-.115-.157-.23-.235-.348-.08-.121-.159-.246-.239-.37-.078-.121-.155-.241-.232-.365-.079-.127-.157-.258-.235-.387-.077-.127-.153-.253-.229-.382-.078-.133-.155-.27-.233-.407-.075-.131-.15-.262-.224-.396-.077-.14-.154-.284-.231-.427-.073-.136-.146-.272-.219-.411-.076-.147-.151-.297-.227-.447-.071-.141-.143-.282-.213-.426-.075-.153-.149-.309-.222-.465-.07-.147-.14-.294-.208-.443-.073-.159-.145-.321-.217-.483-.068-.153-.136-.305-.203-.461-.071-.165-.141-.334-.211-.503-.066-.158-.132-.315-.196-.476-.07-.173-.138-.35-.207-.527-.063-.161-.126-.322-.187-.486-.068-.181-.135-.366-.202-.551-.06-.166-.12-.331-.179-.5-.066-.188-.131-.38-.195-.572-.057-.171-.115-.341-.171-.514-.063-.195-.125-.394-.187-.592-.055-.177-.11-.354-.164-.533-.061-.202-.12-.407-.179-.612-.052-.181-.104-.362-.155-.545-.058-.21-.115-.423-.171-.637-.049-.186-.098-.372-.146-.561-.046-.181-.09-.365-.135-.548,.098-.204,.203-.399,.314-.585,.052,.158,.107,.313,.161,.469,.085,.246,.172,.489,.261,.73,.07,.189,.141,.376,.214,.562,.094,.24,.192,.477,.292,.712,.075,.178,.15,.357,.229,.532,.107,.24,.218,.475,.33,.709,.078,.163,.154,.327,.234,.487,.126,.252,.259,.498,.391,.744,.073,.135,.143,.273,.218,.406,.19,.338,.387,.67,.589,.996,.022,.036,.042,.073,.065,.109,.225,.359,.459,.71,.699,1.055,.079,.113,.162,.22,.242,.331,.166,.229,.332,.458,.504,.681,.1,.129,.204,.254,.307,.381,.16,.198,.32,.395,.485,.587,.112,.13,.227,.257,.342,.384,.163,.182,.328,.362,.497,.538,.121,.126,.243,.25,.366,.373,.171,.171,.344,.339,.519,.505,.127,.119,.254,.238,.383,.354,.181,.163,.366,.323,.552,.48,.13,.11,.26,.221,.393,.329,.197,.159,.398,.314,.6,.468,.129,.098,.256,.197,.387,.293,.226,.165,.459,.323,.692,.481,.113,.076,.223,.156,.337,.231,.35,.229,.707,.451,1.072,.664,4.926,2.871,12.35,2.889,19.529,2.906,7.411,.018,15.074,.036,18.861,3.322,.286,.248,.555,.508,.813,.776,.016,.016,.032,.032,.048,.048,.246,.259,.477,.527,.699,.802,.023,.029,.047,.057,.07,.085,.213,.269,.414,.546,.605,.828,.025,.037,.051,.074,.076,.112,.185,.279,.36,.565,.525,.854,.025,.043,.049,.086,.074,.129,.161,.289,.313,.582,.455,.879,.022,.046,.044,.092,.066,.138,.14,.298,.271,.599,.394,.903,.018,.046,.036,.091,.054,.137,.121,.307,.235,.616,.34,.927,.014,.042,.027,.084,.041,.126,.104,.316,.202,.633,.291,.951,.01,.035,.019,.07,.028,.105,.089,.326,.172,.652,.247,.977l.014,.064c.154,.678,.276,1.352,.373,2.012Zm-13.17-1.994c.12,.093,.233,.192,.349,.289,.157,.132,.315,.264,.465,.402,.113,.105,.222,.214,.331,.323,.141,.14,.281,.281,.415,.427,.106,.115,.207,.233,.309,.351,.127,.148,.252,.297,.373,.45,.097,.123,.191,.247,.284,.373,.115,.155,.227,.312,.336,.472,.088,.129,.175,.259,.259,.39,.104,.162,.205,.326,.303,.492,.079,.133,.158,.267,.234,.402,.094,.169,.184,.34,.273,.511,.07,.136,.142,.271,.209,.409,.086,.175,.166,.353,.247,.53,.062,.136,.125,.271,.183,.408,.078,.183,.151,.367,.224,.551,.053,.133,.108,.265,.157,.399,.074,.197,.141,.393,.209,.59,.042,.121,.086,.242,.126,.362,.078,.238,.149,.475,.219,.712,.024,.08,.05,.16,.073,.239,.089,.313,.172,.624,.249,.932,.03,.121,.056,.239,.084,.359,.015,.063,.029,.126,.043,.188-1.595,.653-3.219,1.177-4.856,1.572-.047-.109-.094-.218-.144-.329-.035-.076-.072-.152-.108-.228-.061-.129-.123-.257-.19-.387-.041-.081-.085-.163-.128-.245-.067-.127-.136-.253-.209-.381-.047-.084-.096-.168-.146-.252-.076-.128-.154-.256-.235-.384-.052-.082-.104-.165-.158-.247-.088-.134-.181-.268-.275-.402-.053-.076-.105-.152-.16-.227-.114-.156-.235-.311-.358-.467-.042-.053-.08-.105-.123-.158-.168-.207-.344-.412-.528-.616-.04-.044-.084-.088-.125-.132-.146-.158-.296-.315-.453-.47-.072-.071-.148-.14-.222-.211-.134-.127-.268-.253-.409-.378-.087-.076-.177-.151-.266-.227-.138-.116-.278-.231-.423-.345-.097-.076-.196-.151-.296-.226-.148-.11-.299-.219-.454-.326-.105-.073-.21-.145-.319-.217-.163-.107-.332-.212-.502-.315-.108-.066-.215-.133-.326-.197-.192-.111-.392-.218-.594-.324-.099-.052-.194-.106-.295-.157-.307-.154-.623-.303-.952-.445-2.354-1.016-5.221-1.061-8.256-1.11-1.875-.03-3.864-.063-5.921-.318-.025-.003-.051-.005-.076-.009-.197-.025-.395-.054-.593-.084-.064-.009-.128-.017-.192-.027-.145-.023-.292-.05-.438-.075-.118-.02-.236-.038-.355-.061-.108-.02-.217-.045-.325-.066-.157-.032-.314-.061-.472-.096-.095-.021-.191-.046-.286-.069-.172-.04-.343-.079-.516-.124-.092-.024-.184-.052-.276-.077-.177-.048-.353-.095-.53-.148-.095-.028-.19-.062-.285-.091-.175-.055-.349-.108-.525-.169-.096-.033-.192-.071-.288-.105-.175-.063-.35-.124-.526-.193-.09-.035-.181-.076-.271-.112-.181-.074-.363-.146-.544-.226-.091-.04-.183-.086-.274-.128-.181-.083-.362-.165-.544-.254-.086-.043-.173-.091-.26-.136-.187-.096-.373-.19-.56-.293-.086-.048-.173-.101-.259-.15-.187-.107-.374-.212-.561-.327-.091-.056-.182-.118-.272-.175-.183-.116-.366-.23-.549-.354-.089-.06-.179-.128-.268-.19-.184-.129-.369-.256-.553-.393-.089-.066-.178-.14-.267-.208-.185-.142-.369-.282-.553-.432-.09-.074-.181-.155-.271-.231-.183-.154-.366-.306-.548-.469-.095-.085-.191-.178-.286-.266-.177-.163-.354-.323-.531-.495-.101-.099-.203-.206-.304-.308-.171-.171-.341-.339-.511-.519-.103-.109-.206-.228-.31-.341-.167-.182-.335-.362-.502-.553-.111-.128-.222-.266-.333-.397-.159-.188-.317-.372-.476-.568-.114-.142-.228-.294-.342-.44-.154-.198-.309-.391-.463-.597-.12-.161-.239-.333-.359-.498-.147-.204-.295-.403-.442-.615-.124-.179-.247-.371-.371-.556-.141-.211-.283-.417-.424-.636-.039-.06-.077-.125-.115-.186-.407-.825-.78-1.642-1.112-2.445-.014-.033-.029-.066-.045-.098-1.516-3.681-2.352-7.309-2.473-10.435,.109,.31,.219,.617,.332,.919,.01,.026,.019,.054,.029,.08,.218,.582,.444,1.145,.674,1.696,.04,.095,.079,.191,.119,.285,.223,.525,.451,1.034,.684,1.531,.046,.099,.093,.196,.139,.293,.237,.496,.478,.98,.724,1.448,.034,.064,.068,.125,.102,.188,.245,.46,.494,.907,.746,1.339,.022,.037,.043,.076,.065,.113,.26,.442,.525,.866,.792,1.279,.048,.074,.095,.148,.143,.221,.261,.397,.525,.781,.791,1.151,.049,.068,.098,.135,.148,.203,.273,.373,.547,.736,.824,1.081,.027,.033,.054,.065,.081,.098,.272,.337,.546,.66,.82,.97,.031,.035,.063,.073,.094,.108,.279,.312,.56,.608,.84,.893,.051,.052,.102,.104,.153,.155,.276,.275,.552,.538,.828,.788,.048,.043,.096,.085,.144,.128,.285,.254,.57,.497,.854,.724l.044,.034c.28,.222,.56,.43,.838,.626,.037,.026,.075,.054,.112,.08,.274,.191,.547,.367,.817,.533,.051,.031,.101,.062,.152,.092,.268,.16,.533,.309,.796,.444,.042,.022,.084,.042,.126,.063,.274,.138,.546,.266,.813,.378,5.749,2.4,9.999,2.148,14.109,1.904,3.836-.227,7.459-.442,12.308,1.51,.357,.144,.7,.304,1.032,.475,.111,.057,.213,.123,.321,.183,.215,.12,.431,.24,.635,.371,.122,.078,.236,.164,.354,.246,.179,.124,.359,.248,.529,.38Zm-30.04,2.686c.219,.109,.438,.212,.657,.312,.108,.05,.216,.102,.324,.15,.306,.135,.612,.262,.917,.381,.019,.007,.038,.016,.057,.024,.323,.125,.645,.24,.966,.348,.11,.037,.22,.07,.33,.105,.212,.068,.424,.135,.635,.197,.128,.037,.256,.072,.383,.107,.193,.053,.385,.104,.577,.152,.132,.033,.263,.064,.395,.095,.189,.044,.377,.085,.565,.124,.128,.027,.257,.054,.385,.079,.194,.038,.388,.072,.581,.105,.118,.02,.237,.042,.355,.061,.221,.035,.441,.066,.66,.097,.087,.012,.174,.026,.261,.037,.301,.039,.601,.073,.898,.104,.092,.009,.182,.016,.273,.025,.211,.02,.421,.039,.629,.056,.118,.009,.234,.017,.351,.025,.18,.013,.36,.025,.538,.035,.123,.007,.245,.013,.367,.02,.172,.009,.343,.017,.514,.024,.12,.005,.239,.01,.358,.014,.173,.006,.345,.012,.516,.016,.112,.003,.224,.007,.336,.009,.187,.005,.373,.009,.557,.012,.09,.002,.18,.004,.269,.006,.265,.005,.527,.009,.785,.013,2.882,.046,5.37,.086,7.236,.89,.269,.116,.526,.238,.777,.363,.078,.039,.153,.08,.23,.12,.171,.089,.339,.18,.501,.273,.083,.048,.164,.096,.245,.145,.153,.092,.302,.186,.448,.281,.074,.049,.149,.097,.221,.146,.159,.108,.312,.219,.461,.331,.05,.037,.103,.074,.152,.112,.197,.152,.387,.306,.569,.463,.029,.025,.056,.051,.084,.076,.15,.132,.296,.266,.437,.402,.054,.053,.106,.106,.159,.159,.111,.111,.219,.223,.324,.335,.054,.059,.108,.118,.161,.177,.1,.112,.197,.225,.291,.339,.046,.056,.093,.111,.138,.167,.11,.137,.214,.274,.316,.411,.023,.032,.048,.063,.071,.094,.123,.17,.239,.34,.35,.51,.03,.045,.057,.091,.085,.136,.079,.125,.157,.25,.23,.375,.036,.061,.07,.121,.104,.181,.063,.112,.124,.223,.183,.334,.032,.061,.064,.122,.095,.183,.044,.086,.084,.17,.125,.255-3.978,.613-7.885,.446-11.64-.501-6.796-1.714-12.465-5.274-16.963-9.571,.056,.028,.112,.054,.168,.082Z" fill="#390075"/></g><path d="M129.997,206.709c36.999-.465,52.354-17.75,57.473-35.336,4.487-15.363,1.155-30.96-2.367-35.755,0,0-26.586,6.389-68.472-5.094-3.383-.924-6.607-1.615-9.678-2.093-34.933-5.412-49.827,16.805-51.122,30.185-1.407,14.551,4.834,48.967,74.166,48.093Z" fill="#fff"/><g opacity=".2"><path d="M57.13,161.486c4.08,15.917,20.264,35.766,73.13,35.098,21.421-.271,35.584-6.18,44.708-14.52,4.174-3.815,1.948-10.735-3.662-11.442-2.166-.273-4.349-.618-6.545-1.037-29.224-5.577-51.784-22.45-57.809-41.153,3.072,.478,6.295,1.169,9.678,2.093,41.886,11.483,68.472,5.094,68.472,5.094,2.006,2.731,3.948,8.969,4.421,16.669,.325-2.848,.424-5.628,.347-8.262,4.386,19.768-.455,61.775-58.416,62.508-64.863,.816-74.505-29.251-74.326-45.049Z" fill="#390075"/></g><path d="M64.369,188.725c-10.709-11.646-10.691-25.048-10.187-30.27,.703-7.269,5.195-17.615,15.694-24.851,8.341-5.748,23.298-11.226,47.194-4.675,40.92,11.218,67.385,5.139,67.648,5.077h0c.648-.154,1.327,.094,1.721,.631,4.588,6.249,8.426,27.374-.597,45.474-6.305,12.648-21.107,27.817-55.823,28.255-.878,.011-1.748,.016-2.612,.016-29.838,0-51.039-6.609-63.038-19.657Zm51.826-56.601c-22.667-6.214-36.676-1.141-44.438,4.208-9.574,6.598-13.674,16.213-14.276,22.442-.462,4.779-.478,17.046,9.327,27.708,11.682,12.704,32.917,18.961,63.17,18.571,26.156-.33,44.448-9.466,52.899-26.419,7.917-15.881,5.239-34.646,1.461-41.16-5.605,1.098-30.68,4.922-68.143-5.349Zm68.905,3.493h0Z" fill="#390075"/><g><path d="M158.549,193.514c.402-.002,.803,.007,1.208,.022l.005-.002c20.811,.62,46.331,16.331,53.442,3.05,1.777-3.316,1.475-6.422-.181-9.273l-.002-.005c-7.147-12.304-39.506-19.943-39.506-19.943l-14.964,26.151Z" fill="#fff"/><g opacity=".2"><path d="M158.549,193.514c20.811,.62,47.543,16.35,54.654,3.069,1.777-3.316,1.475-6.422-.181-9.273,1.178,9.738-39.872-6.99-49.934-1.728,0,0-4.293,7.722-4.539,7.932Z" fill="#451661"/></g><path d="M173.388,167.901c2.043,1.383,4.211,2.214,6.402,2.968,2.183,.779,4.401,1.432,6.604,2.137,2.205,.699,4.362,1.534,6.491,2.415,2.128,.883,4.223,1.834,6.262,2.872,2.035,1.042,4.018,2.17,5.874,3.437,1.858,1.261,3.593,2.675,5.008,4.276,1.406,1.597,2.457,3.421,2.673,5.295,.106,.935,.016,1.878-.26,2.805-.058,.233-.146,.462-.239,.691-.08,.231-.189,.457-.302,.681l-.165,.337-.198,.313-.388,.63c-1.148,1.564-2.78,2.646-4.797,3.083-1.993,.474-4.206,.481-6.426,.251-4.459-.466-8.959-1.658-13.457-2.854-4.502-1.211-9.032-2.497-13.662-3.531l-1.741-.377-1.753-.345c-1.175-.209-2.337-.496-3.525-.686-1.182-.209-2.393-.291-3.607-.239-1.214,.062-2.444,.3-3.631,.901-.305,.154-.427,.526-.273,.83,.056,.11,.139,.196,.238,.254l.034,.02c.577,.34,1.142,.55,1.703,.74,.561,.186,1.12,.353,1.678,.464,.559,.103,1.119,.229,1.679,.311,.28,.045,.562,.076,.843,.111,.281,.045,.564,.078,.847,.11,1.133,.112,2.274,.241,3.403,.444l1.692,.329,1.69,.366c4.507,1.006,8.988,2.276,13.524,3.497,4.54,1.202,9.124,2.436,13.989,2.951,2.425,.244,4.964,.277,7.535-.328,.643-.119,1.275-.383,1.908-.597,.313-.127,.617-.292,.924-.44l.459-.23c.149-.085,.29-.188,.435-.282,.287-.193,.575-.385,.857-.585l.774-.696c.125-.119,.262-.229,.377-.357l.332-.395c.218-.266,.446-.527,.649-.801l.538-.861,.265-.433,.223-.45c.15-.298,.293-.601,.409-.922,.127-.314,.246-.632,.334-.966,.394-1.313,.537-2.745,.373-4.135-.157-1.394-.627-2.713-1.242-3.894-.619-1.184-1.391-2.239-2.229-3.196-1.688-1.907-3.623-3.462-5.631-4.829-2.01-1.372-4.106-2.56-6.235-3.651-2.133-1.085-4.303-2.07-6.497-2.981-2.194-.911-4.416-1.738-6.628-2.586-2.213-.845-4.448-1.636-6.749-2.202-1.148-.289-2.302-.557-3.49-.693-1.188-.139-2.388-.211-3.647-.054-.323,.04-.552,.335-.512,.657,.022,.174,.118,.321,.252,.413l.006,.004Z" fill="#390075"/></g><g><path d="M16.018,171.965c3.037,7.222,13.865,6.295,18.79,6.15,4.925-.145,7.996,10.122,22.848,8.523,5.747-.62,10.318-3.283,13.826-6.465,6.387-5.8,9.243-13.32,9.243-13.32l-10.463-22.456c-24.631-7.388-44.27,5.158-51.605,16.436-2.788,4.281-3.799,8.378-2.639,11.132Z" fill="#fff"/><g opacity=".2"><path d="M16.018,171.965c3.037,7.222,13.865,6.295,18.79,6.15,4.925-.145,7.996,10.122,22.848,8.523,5.747-.62,10.318-3.283,13.826-6.465l.005-.009s6.305-5.15,8.033-12.096c0,0-21.551,17.882-37.463-1.094,0,0-19.586,6.599-23.4-6.141-2.788,4.281-3.799,8.378-2.639,11.132Z" fill="#390075"/></g><path d="M73.399,177.459c-2.478,1.482-4.621,3.029-6.906,4.333-2.288,1.271-4.676,2.316-7.222,2.865-.633,.156-1.277,.233-1.926,.329-.66,.071-1.322,.127-1.981,.147-1.318,.042-2.627-.021-3.906-.213-2.561-.381-4.97-1.304-7.134-2.757-1.093-.714-2.126-1.553-3.2-2.448-.54-.447-1.085-.91-1.692-1.372-.607-.458-1.267-.925-2.084-1.31-.203-.096-.429-.178-.643-.263-.234-.07-.465-.144-.709-.195-.252-.037-.495-.099-.756-.1l-.387-.013c-.071-.002-.124-.002-.163,0l-.134,.004-2.104,.073c-1.382,.044-2.742,.052-4.084-.011-2.666-.131-5.323-.55-7.464-1.667-1.056-.565-1.961-1.294-2.609-2.208-.333-.438-.6-.98-.796-1.464-.173-.458-.266-.98-.286-1.535-.046-1.115,.217-2.339,.622-3.529,.421-1.193,.985-2.371,1.661-3.499,1.346-2.264,3.063-4.355,4.976-6.247,3.836-3.789,8.459-6.812,13.44-8.939,4.988-2.124,10.357-3.341,15.777-3.559,1.355-.046,2.712-.052,4.068,.015,1.356,.075,2.704,.251,4.041,.477,1.339,.214,2.682,.389,4.042,.548,1.37,.117,2.751,.217,4.265,.006l.016-.002c.328-.046,.557-.349,.511-.677-.021-.154-.1-.287-.211-.379-1.186-.986-2.516-1.638-3.898-2.094-1.384-.449-2.813-.751-4.259-.908-2.898-.262-5.804-.403-8.712-.297-5.814,.234-11.585,1.541-16.939,3.822-5.35,2.287-10.305,5.519-14.471,9.632-2.079,2.059-3.965,4.341-5.495,6.911-.767,1.282-1.429,2.649-1.943,4.106-.494,1.464-.862,3.029-.802,4.732,.031,.847,.175,1.728,.498,2.586,.326,.816,.699,1.54,1.207,2.23,.982,1.384,2.334,2.451,3.754,3.204,1.43,.744,2.928,1.21,4.414,1.517,1.488,.304,2.971,.456,4.436,.528,1.465,.069,2.918,.058,4.344,.013l2.109-.073,.129-.004c.049-.003,.084-.002,.1,0l.139,.006c.092-.01,.191,.032,.287,.037,.099,.02,.203,.059,.307,.083,.11,.049,.217,.083,.331,.137,.925,.433,1.975,1.329,3.051,2.224,1.083,.902,2.234,1.843,3.495,2.667,2.501,1.686,5.465,2.831,8.464,3.267,1.501,.226,3.009,.291,4.499,.252,.372-.016,.746-.017,1.116-.046l1.109-.085c.744-.081,1.499-.157,2.24-.301,1.486-.264,2.963-.643,4.37-1.203,1.407-.558,2.753-1.259,4.001-2.093,2.504-1.645,4.645-3.826,5.92-6.523,.136-.288,.013-.631-.274-.767-.179-.085-.38-.069-.539,.024l-.008,.005Z" fill="#390075"/></g><g><path d="M108.346,122.733c1.069,25.505,29.205,39.811,63.113,38.389,33.908-1.422,60.748-18.032,59.678-43.538-1.069-25.505-29.643-50.247-63.551-48.825-33.908,1.422-60.31,28.469-59.241,53.974Z" fill="#fff"/><g opacity=".2"><path d="M170.867,161.056c33.905-1.424,60.746-18.034,59.676-43.541-.004-.16-.013-.319-.024-.482-4.558,20.628-28.994,33.737-58.947,34.995-33.857,1.417-61.958-12.839-63.112-38.271-.589,2.963-.836,5.943-.711,8.907,1.071,25.507,29.207,39.812,63.118,38.391Z" fill="#390075"/></g><path d="M171.529,162.777c-17.215,.722-33.115-2.588-44.769-9.317-12.593-7.272-19.533-17.873-20.069-30.657-.543-12.952,5.661-26.544,17.02-37.291,11.819-11.181,27.376-17.718,43.806-18.407,16.429-.689,32.479,4.523,45.193,14.676,12.22,9.758,19.54,22.783,20.083,35.736,.536,12.784-5.492,23.928-17.432,32.229-6.593,4.584-14.792,8.079-23.99,10.308-6.22,1.507-12.897,2.433-19.841,2.725Zm-45.541-74.859c-10.663,10.088-16.49,22.752-15.987,34.746,.97,23.144,26.215,38.278,61.389,36.803,6.958-.292,13.472-1.198,19.441-2.644,24.209-5.865,39.43-20.603,38.651-39.169-.984-23.482-27.635-48.674-61.827-47.24-4.297,.18-8.529,.78-12.644,1.777-10.852,2.629-20.875,8.017-29.024,15.727Z" fill="#390075"/><path d="M163.971,87.518c1.002,.161,2.136,.212,3.41,.115,6.468-.491,8.702-4.107,8.881-6.616-1.662,1.462-6.211,5.061-12.291,6.501Z" fill="#fe6dcb"/><path d="M161.163,86.654c.612,.304,1.31,.553,2.102,.731,.228,.052,.463,.099,.704,.131,6.081-1.439,10.63-5.038,12.292-6.5,.015-.116,.013-.231,.016-.344-.001-1.765-.29-4.236-.798-7.011,0,0-5.43,6.1-14.636,8.076-1.048,.224-2.143,.398-3.286,.499,.271,1.476,1.355,3.302,3.607,4.419Z" fill="#33aef1"/><g opacity=".6"><path d="M161.163,86.654c-.166-1.682-.267-3.324-.321-4.918-1.048,.224-2.143,.398-3.286,.499,.271,1.476,1.355,3.302,3.607,4.419Z" fill="#fff"/></g><path d="M157.556,82.236c1.143-.1,2.237-.275,3.286-.499,9.206-1.976,14.636-8.076,14.636-8.076-.511-2.804-1.255-5.927-2.147-8.954,0,0-3.104,5.338-12.342,9.368-1.149,.502-2.393,.984-3.736,1.43-.061,2.629,.03,4.941,.279,6.59,.007,.046,.015,.096,.025,.14Z" fill="#fdd800"/><g opacity=".6"><path d="M157.556,82.236c1.143-.1,2.237-.275,3.286-.499-.087-2.688-.026-5.243,.146-7.662-1.149,.502-2.393,.984-3.736,1.43-.061,2.629,.03,4.941,.279,6.59,.007,.046,.015,.096,.025,.14Z" fill="#fff"/></g><path d="M157.252,75.505c1.343-.446,2.587-.928,3.736-1.43,9.239-4.029,12.342-9.368,12.342-9.368-.965-3.272-2.118-6.433-3.375-8.971,0,0-2.478,4.773-7.491,8.115-1.312,.878-2.794,1.655-4.457,2.221-.435,3.236-.691,6.532-.755,9.433Z" fill="#b177ea"/><g opacity=".6"><path d="M157.252,75.505c1.343-.446,2.587-.928,3.736-1.43,.265-3.759,.806-7.18,1.477-10.224-1.312,.878-2.794,1.655-4.457,2.221-.435,3.236-.691,6.532-.755,9.433Z" fill="#fff"/></g><path d="M157.951,65.837c1.663-.566,3.145-1.343,4.457-2.221,5.013-3.342,7.491-8.115,7.491-8.115-1.027-2.09-2.12-3.754-3.238-4.71-.723-.621-1.461-.947-2.192-.89-3.239,.246-5.442,7.898-6.518,15.936Z" fill="#fe6dcb"/><g opacity=".6"><path d="M157.573,66.177c1.663-.566,3.145-1.343,4.457-2.221,1.25-5.686,2.966-10.05,4.253-12.825-.723-.621-1.461-.947-2.192-.89-3.239,.246-5.442,7.898-6.518,15.936Z" fill="#fff"/></g><path d="M174.917,64.237c-1.054-3.575-2.256-6.769-3.475-9.235-2.247-4.573-4.55-6.706-7.039-6.518-4.769,.368-7.002,9.645-8.039,17.368-.435,3.258-.701,6.582-.769,9.614-.064,2.769,.039,5.145,.298,6.873,.013,.095,.03,.189,.051,.279v.004c.023,.113,.049,.227,.079,.342,.011,.045,.026,.098,.041,.15,.031,.107,.057,.195,.086,.282,.023,.069,.043,.129,.065,.191,.034,.094,.069,.184,.106,.275,.03,.075,.049,.122,.07,.17,.062,.142,.129,.284,.202,.427,.013,.026,.035,.066,.057,.107,.062,.115,.122,.221,.185,.328l.073,.118,.029,.046c.062,.097,.127,.195,.194,.291l.106,.149c.083,.113,.176,.233,.274,.353,.02,.025,.047,.059,.076,.092,.095,.114,.223,.257,.359,.397,.01,.011,.052,.053,.063,.063,.119,.12,.236,.232,.359,.343l.089,.078,.02,.018c.123,.107,.25,.211,.383,.314l.086,.067c.342,.258,.706,.494,1.086,.705,.011,.006,.061,.033,.073,.039l.086,.046c.078,.043,.155,.085,.237,.125,.057,.027,.103,.049,.149,.069l.219,.1c.154,.068,.308,.133,.467,.194,.077,.031,.144,.057,.212,.082,.15,.054,.306,.106,.464,.155l.051,.017c.063,.021,.125,.04,.19,.06,.184,.053,.369,.1,.556,.145,.06,.017,.114,.031,.171,.044,.295,.067,.574,.119,.842,.156,1.136,.183,2.413,.227,3.758,.126,.966-.074,1.863-.216,2.689-.416,5.002-1.212,7.48-4.552,7.717-7.706,.013-.133,.017-.266,.021-.397v-.052c0-1.133-.102-2.476-.305-4.04-.104-.811-.236-1.677-.391-2.575l-.029-.169c-.032-.188-.065-.376-.1-.568-.536-2.939-1.293-6.095-2.191-9.126Zm-.296,16.41l-.007,.006c-.087,.071-.182,.146-.277,.221-.054,.043-.105,.084-.161,.128-.121,.095-.251,.194-.383,.293-.037,.028-.07,.054-.108,.082-.171,.128-.352,.26-.54,.395-.054,.038-.112,.078-.167,.117-.138,.097-.276,.194-.422,.294-.079,.053-.162,.108-.243,.162-.129,.086-.259,.173-.394,.26-.092,.06-.189,.12-.284,.179-.131,.083-.264,.166-.4,.249-.103,.062-.209,.125-.314,.187-.136,.081-.274,.161-.415,.241-.112,.064-.226,.127-.34,.191-.142,.079-.287,.157-.434,.235-.119,.063-.238,.125-.359,.188-.151,.077-.305,.153-.459,.229-.124,.061-.247,.121-.374,.181-.161,.076-.326,.15-.492,.224-.125,.056-.25,.113-.378,.168-.179,.077-.363,.151-.546,.225-.12,.048-.238,.098-.36,.145-.22,.085-.445,.165-.67,.245-.091,.032-.179,.067-.271,.098-.319,.108-.643,.212-.972,.308-.053,.016-.108,.028-.161,.044-.153-.018-.308-.034-.456-.058-.208-.029-.391-.063-.6-.111l-.115-.031c-.147-.036-.283-.069-.413-.107l-.169-.054c-.116-.037-.224-.072-.329-.11l-.117-.045c-.138-.054-.243-.097-.346-.143l-.223-.102c-.065-.03-.105-.053-.147-.076l-.076-.041-.052-.028c-.251-.139-.485-.291-.7-.453l-.055-.044c-.083-.064-.162-.129-.237-.194l-.017-.014-.044-.039c-.081-.073-.152-.142-.221-.211l-.04-.04c-.081-.084-.157-.167-.227-.251l-.046-.056c-.042-.052-.098-.123-.15-.194l-.047-.067c-.045-.064-.078-.115-.11-.164,.26-.043,.514-.091,.769-.139,.096-.018,.193-.034,.288-.054,.368-.074,.732-.154,1.088-.24,.031-.007,.06-.016,.09-.023,.064-.016,.126-.033,.189-.049,.326-.082,.646-.17,.962-.261,.079-.023,.159-.045,.237-.069,.358-.107,.71-.218,1.055-.335,.055-.019,.109-.038,.164-.057,.305-.105,.604-.215,.898-.327,.068-.026,.137-.052,.205-.078,.329-.128,.652-.26,.967-.396,.052-.022,.102-.045,.154-.068,.276-.121,.546-.244,.811-.369,.062-.029,.125-.059,.187-.088,.297-.142,.587-.287,.869-.434,.05-.026,.098-.052,.147-.078,.244-.129,.483-.258,.717-.389,.057-.032,.116-.064,.172-.096,.263-.149,.518-.299,.767-.449,.049-.029,.095-.059,.143-.088,.21-.129,.415-.257,.615-.386,.054-.035,.108-.069,.161-.103,.227-.148,.447-.295,.659-.441,.048-.033,.093-.065,.14-.098,.175-.122,.346-.243,.511-.363,.049-.036,.099-.071,.147-.107,.19-.14,.373-.278,.549-.413,.046-.035,.089-.07,.134-.105,.141-.11,.277-.218,.408-.324,.043-.035,.088-.07,.13-.105,.065-.053,.127-.104,.189-.156,.022,.159,.048,.325,.067,.479,.183,1.413,.276,2.606,.279,3.549Zm-10.067-28.843c.034-.008,.067-.013,.099-.016,.521-.039,1.842,.826,3.583,4.216l-.014,.022c-.065,.101-.137,.211-.214,.326-.021,.031-.044,.065-.066,.097-.063,.094-.131,.192-.202,.294-.024,.035-.048,.069-.073,.105-.091,.129-.188,.263-.29,.401-.028,.038-.057,.077-.086,.115-.083,.111-.17,.226-.26,.342-.035,.045-.07,.09-.106,.137-.117,.149-.24,.302-.368,.458-.031,.038-.064,.077-.096,.115-.106,.127-.216,.256-.329,.386-.045,.052-.09,.103-.136,.156-.144,.163-.293,.328-.448,.495-.029,.031-.061,.063-.09,.095-.134,.142-.272,.284-.414,.428-.053,.054-.107,.107-.161,.161-.168,.166-.34,.333-.519,.499l-.059,.054c-.174,.161-.355,.321-.539,.48-.059,.051-.119,.103-.18,.154-.176,.149-.356,.297-.541,.444-.031,.025-.061,.05-.093,.075-.211,.165-.429,.327-.651,.487-.064,.046-.129,.092-.194,.138-.191,.134-.386,.267-.585,.396-.047,.03-.092,.062-.139,.092-.238,.152-.483,.3-.733,.444-.066,.038-.133,.075-.2,.112-.137,.077-.277,.149-.417,.223,1.379-8.249,3.405-11.659,4.521-11.929Zm9.201,21.681l-.036,.034-.059,.054c-.236,.219-.522,.474-.856,.756l-.1,.084c-.166,.139-.343,.284-.531,.433-.03,.024-.063,.049-.094,.074-.18,.142-.37,.288-.569,.437-.028,.021-.055,.042-.083,.063-.215,.159-.442,.323-.678,.488-.05,.035-.101,.07-.151,.105-.245,.169-.498,.34-.765,.512l-.06,.038c-.255,.164-.522,.329-.796,.493-.05,.03-.1,.06-.15,.09-.288,.17-.587,.34-.896,.508-.054,.029-.108,.058-.163,.087-.316,.17-.64,.338-.976,.503l-.023,.012c-.341,.166-.695,.328-1.056,.486-.064,.028-.128,.056-.192,.084-.361,.155-.731,.306-1.112,.451-.043,.016-.086,.031-.129,.047-.365,.137-.739,.267-1.122,.392-.048,.016-.095,.032-.143,.047-.4,.128-.811,.246-1.228,.358-.077,.021-.155,.04-.232,.06-.429,.11-.864,.214-1.311,.305l-.044,.008c-.38,.077-.771,.14-1.164,.2-.11-1.214-.159-2.701-.141-4.344,.358-.13,.709-.262,1.052-.396,.071-.028,.137-.056,.207-.084,.341-.135,.675-.272,1.002-.411,.135-.058,.267-.116,.4-.174,.261-.114,.517-.228,.768-.344,.132-.061,.263-.121,.392-.182,.268-.127,.53-.255,.788-.384,.094-.047,.19-.093,.282-.14,.34-.173,.67-.347,.991-.523,.087-.047,.169-.095,.255-.143,.237-.132,.47-.264,.697-.397,.109-.064,.216-.128,.324-.192,.202-.121,.399-.242,.593-.363,.099-.062,.199-.124,.296-.186,.226-.145,.446-.289,.661-.434,.051-.035,.105-.069,.156-.104,.26-.177,.51-.353,.752-.528,.076-.055,.148-.11,.223-.164,.168-.124,.333-.247,.492-.369,.083-.064,.164-.127,.245-.19,.152-.119,.299-.236,.443-.353,.069-.056,.138-.112,.205-.167,.201-.166,.396-.331,.581-.493l.044-.039c.175-.153,.341-.304,.502-.453,.058-.054,.114-.107,.17-.16,.114-.108,.226-.214,.333-.318,.056-.055,.112-.11,.167-.164,.108-.107,.211-.212,.312-.315,.042-.043,.085-.086,.125-.129,.048-.05,.093-.099,.14-.148,.492,1.884,.918,3.768,1.261,5.58Zm-13.379-6.924c.2-.093,.397-.188,.592-.285,.091-.046,.181-.091,.271-.137,.22-.115,.437-.233,.65-.354,.05-.028,.101-.055,.151-.084,.258-.149,.51-.303,.757-.459,.072-.046,.142-.092,.212-.139,.178-.116,.354-.233,.526-.352,.081-.056,.161-.112,.24-.168,.171-.121,.338-.244,.502-.367,.063-.047,.127-.094,.189-.141,.219-.168,.434-.339,.642-.51,.045-.037,.088-.075,.133-.112,.165-.138,.328-.277,.486-.417,.068-.06,.134-.119,.2-.179,.137-.124,.271-.247,.403-.371,.06-.057,.121-.113,.18-.17,.172-.165,.34-.33,.503-.495l.033-.033c.172-.175,.337-.349,.499-.523,.053-.057,.104-.113,.156-.17,.11-.12,.217-.24,.322-.358,.053-.06,.105-.119,.156-.178,.11-.127,.217-.253,.321-.378,.035-.042,.071-.084,.105-.125,.132-.16,.259-.318,.381-.472,.042-.053,.081-.105,.122-.157,.08-.104,.159-.206,.235-.307,.047-.063,.093-.124,.138-.185,.02-.026,.041-.054,.06-.08,.724,1.756,1.429,3.762,2.083,5.939l-.009,.012c-.081,.103-.169,.214-.269,.334l-.023,.028c-.095,.114-.2,.236-.312,.364l-.054,.062c-.121,.136-.252,.28-.393,.429l-.065,.068c-.138,.146-.286,.297-.443,.453l-.037,.038c-.165,.164-.344,.334-.531,.507-.034,.032-.07,.064-.105,.096-.385,.353-.815,.724-1.291,1.108-.045,.036-.09,.073-.136,.109-.239,.19-.488,.382-.749,.576-.034,.025-.069,.05-.103,.075-.243,.179-.497,.359-.76,.54-.048,.033-.095,.066-.144,.099-.287,.195-.586,.391-.897,.588-.062,.039-.126,.078-.189,.118-.299,.186-.608,.373-.929,.559-.031,.018-.061,.036-.093,.055-.341,.196-.698,.391-1.064,.585-.083,.044-.168,.088-.252,.132-.374,.195-.758,.388-1.158,.579-.035,.017-.072,.033-.108,.05-.373,.177-.761,.351-1.157,.523-.097,.042-.193,.084-.291,.126-.348,.148-.71,.292-1.075,.436,.107-2.118,.309-4.332,.587-6.531,.178-.073,.356-.147,.53-.225,.092-.041,.182-.084,.273-.126Z" fill="#390075"/><path d="M144.289,83.185s-6.092-21.105-14.813-20.333c-8.721,.772-12.73,31.437-11.624,38.627,0,0,13.425-.282,26.437-18.294Z" fill="#fff"/><path d="M144.82,83.032c.397-1.65,.126-3.114-.293-4.522-.405-1.415-1.017-2.757-1.676-4.077-.663-1.317-1.296-2.652-2.017-3.957-.72-1.304-1.507-2.586-2.417-3.818-.913-1.228-1.943-2.416-3.227-3.448-1.27-1.019-2.927-1.88-4.819-2.021l-.706,.005c-.118,.003-.234,.003-.354,.011l-.381,.053c-.256,.03-.496,.11-.743,.17-.231,.085-.477,.158-.692,.265-.89,.404-1.618,.968-2.23,1.567-1.213,1.212-2.047,2.558-2.768,3.912-1.419,2.721-2.357,5.533-3.161,8.359-.79,2.83-1.405,5.685-1.905,8.555-.499,2.871-.883,5.756-1.138,8.665-.065,.727-.117,1.457-.164,2.188-.043,.732-.153,1.462-.207,2.202-.058,.74-.012,1.489,.156,2.24,.183,.744,.506,1.518,1.23,2.182,.287,.264,.734,.244,.997-.043,.022-.024,.042-.049,.06-.074l.034-.051c.518-.755,.751-1.414,.896-2.103,.129-.682,.184-1.367,.161-2.06-.017-.693-.06-1.395-.017-2.094,.038-.699,.093-1.4,.154-2.1,.246-2.803,.619-5.607,1.102-8.385,.484-2.778,1.079-5.536,1.832-8.229,.759-2.683,1.661-5.338,2.9-7.706,.618-1.174,1.337-2.281,2.161-3.097,.411-.403,.844-.716,1.261-.905,.104-.057,.208-.076,.31-.122,.103-.016,.203-.062,.305-.067l.151-.023h.183c.123,0,.246-.002,.37-.007,.98,.082,2.011,.544,2.966,1.312,.954,.765,1.829,1.752,2.622,2.823,.794,1.074,1.513,2.239,2.178,3.444,.662,1.207,1.287,2.451,1.792,3.752,.509,1.299,.974,2.616,1.573,3.886,.576,1.28,1.243,2.528,2.461,3.625l.019,.017c.261,.235,.662,.214,.897-.047,.073-.081,.121-.178,.146-.276Z" fill="#390075"/><g><path d="M136.562,81.99s-2.223-10.505-5.95-9.963c-3.727,.542-5.975,16.032-5.63,19.627,0,0,5.722-.378,11.58-9.664Z" fill="#fe6dcb"/><path d="M130.374,70.387c-1.549,.224-3.826,1.5-5.72,9.946-.951,4.24-1.531,9.282-1.321,11.479,.085,.892,.864,1.554,1.759,1.495,.056-.004,.377-.03,.906-.158,2.011-.487,7.03-2.45,11.966-10.275,.23-.365,.309-.805,.219-1.227-.597-2.821-2.924-11.97-7.809-11.26Zm-3.725,19.048c.131-2.09,.532-5.126,1.154-8.002,1.271-5.87,2.683-7.623,3.077-7.774,.908-.13,2.845,3.481,3.913,8.016-3.221,4.901-6.295,6.929-8.145,7.76Z" fill="#390075"/></g><path d="M191.057,79.623s2.826-21.784,11.563-22.342c8.737-.557,17.344,29.146,17.339,36.421,0,0-13.313,1.754-28.902-14.079Z" fill="#fff"/><path d="M191.604,79.694c1.038-1.269,1.508-2.603,1.884-3.956,.4-1.346,.66-2.718,.966-4.079,.302-1.362,.731-2.687,1.203-3.98,.474-1.292,1.009-2.552,1.631-3.734,.622-1.179,1.337-2.286,2.164-3.187,.827-.904,1.776-1.516,2.733-1.746,.123-.013,.245-.029,.366-.048l.181-.028h.153c.101-.01,.207,.02,.311,.02,.108,.03,.213,.033,.325,.073,.441,.124,.917,.367,1.384,.704,.938,.682,1.817,1.667,2.605,2.734,1.583,2.153,2.877,4.641,4.034,7.178,1.152,2.548,2.157,5.184,3.056,7.857,.898,2.673,1.691,5.388,2.359,8.121,.166,.683,.327,1.367,.47,2.053,.149,.685,.212,1.385,.3,2.072,.083,.689,.24,1.357,.472,2.012,.247,.659,.578,1.275,1.204,1.943l.039,.042c.267,.284,.713,.299,.998,.032,.023-.022,.048-.049,.067-.073,.615-.766,.817-1.58,.886-2.343,.052-.768-.017-1.515-.186-2.238-.166-.723-.386-1.429-.538-2.146-.157-.716-.32-1.429-.494-2.138-.693-2.837-1.51-5.631-2.437-8.393-.93-2.761-1.969-5.49-3.179-8.168-1.222-2.672-2.576-5.31-4.39-7.784-.917-1.229-1.946-2.433-3.328-3.447-.695-.499-1.5-.946-2.441-1.211-.229-.073-.483-.108-.725-.158-.253-.022-.502-.064-.76-.055l-.385,.006c-.12,.011-.234,.028-.352,.043l-.698,.102c-1.849,.427-3.357,1.528-4.458,2.728-1.113,1.215-1.951,2.546-2.668,3.897-.713,1.355-1.298,2.741-1.811,4.14-.514,1.399-.938,2.814-1.394,4.216-.451,1.404-.853,2.823-1.039,4.283-.201,1.455-.247,2.943,.396,4.514,.133,.325,.504,.48,.828,.347,.1-.041,.185-.105,.249-.183l.018-.022Z" fill="#390075"/><g><path d="M198.201,77.57s.983-10.948,5.077-11.091c4.094-.143,8.604,14.98,8.716,18.651,0,0-6.224,.675-13.794-7.56Z" fill="#fe6dcb"/><path d="M206.271,66.152c-.981-.918-2.007-1.365-3.051-1.329-5.291,.19-6.483,10.527-6.669,12.598-.042,.465,.114,.925,.43,1.269,8.043,8.751,14.904,8.117,15.192,8.086,.072-.008,.144-.02,.213-.037,.751-.182,1.288-.869,1.264-1.661-.107-3.488-3.484-15.28-7.379-18.927Zm3.805,17.151c-2.083-.427-5.836-1.822-10.149-6.315,.484-4.137,1.89-8.5,3.266-8.833,.048-.012,.096-.018,.143-.02,.331-.005,2.026,1.149,4.264,6.878,1.135,2.905,2.048,6.131,2.476,8.29Z" fill="#390075"/></g><path d="M214.183,110.545c2.067-1.145,4.132-2.155,6.24-3.057,2.102-.903,4.225-1.725,6.4-2.388,2.171-.663,4.366-1.275,6.614-1.703,1.118-.263,2.253-.43,3.394-.634,.57-.135,1.146-.171,1.723-.265,.578-.086,1.159-.176,1.745-.294-.579-.113-1.164-.199-1.751-.28-.587-.077-1.179-.163-1.77-.176-1.182-.027-2.379-.089-3.563,.036-2.381,.139-4.734,.641-7.016,1.342-2.285,.699-4.473,1.703-6.52,2.919-2.032,1.233-3.965,2.677-5.496,4.5Z" fill="#390075"/><path d="M215.246,116.411c2.296-.56,4.554-.99,6.825-1.306,2.266-.317,4.53-.551,6.803-.617,2.269-.068,4.547-.08,6.829,.099,1.148,.041,2.286,.179,3.442,.282,.585,.02,1.15,.137,1.732,.198,.58,.069,1.165,.135,1.761,.176-.529-.262-1.07-.498-1.616-.732-.546-.229-1.094-.467-1.661-.636-1.133-.338-2.271-.713-3.447-.903-2.334-.493-4.736-.629-7.121-.553-2.389,.072-4.764,.464-7.059,1.099-2.285,.654-4.53,1.538-6.487,2.893Z" fill="#390075"/><path d="M215.114,124.053c2.363-.039,4.66,.041,6.944,.235,2.28,.192,4.54,.464,6.771,.902,2.228,.436,4.453,.927,6.638,1.606,1.11,.293,2.19,.68,3.294,1.036,.566,.149,1.092,.388,1.646,.576,.551,.196,1.106,.39,1.678,.561-.458-.372-.934-.723-1.414-1.071-.482-.344-.964-.698-1.48-.988-1.031-.58-2.058-1.197-3.162-1.643-2.167-.996-4.48-1.66-6.823-2.114-2.346-.457-4.749-.6-7.127-.489-2.373,.133-4.758,.498-6.966,1.387Z" fill="#390075"/><path d="M140.351,122.806c-1.923-1.404-4.145-2.343-6.413-3.054-2.279-.691-4.643-1.143-7.029-1.274-2.383-.135-4.788-.059-7.133,.375-1.179,.162-2.327,.508-3.468,.817-.571,.155-1.125,.38-1.677,.595-.551,.22-1.098,.443-1.633,.691,.597-.026,1.183-.078,1.765-.132,.583-.047,1.151-.149,1.737-.155,1.158-.075,2.299-.184,3.447-.197,2.285-.122,4.562-.053,6.829,.071,2.27,.123,4.528,.413,6.785,.787,2.262,.372,4.509,.858,6.79,1.476Z" fill="#390075"/><path d="M140.723,128.755c-2.225-.848-4.616-1.168-6.991-1.257-2.38-.067-4.78,.121-7.117,.622-2.334,.497-4.634,1.204-6.782,2.241-1.095,.467-2.111,1.103-3.13,1.702-.51,.3-.985,.662-1.461,1.015-.474,.357-.943,.716-1.394,1.097,.569-.183,1.121-.386,1.667-.593,.55-.199,1.071-.447,1.635-.607,1.097-.377,2.169-.784,3.274-1.098,2.173-.72,4.388-1.253,6.607-1.73,2.222-.48,4.477-.794,6.753-1.028,2.28-.237,4.575-.36,6.939-.365Z" fill="#390075"/><path d="M142.68,136.143c-2.357-.335-4.76-.119-7.096,.32-2.336,.461-4.635,1.175-6.803,2.18-2.167,1.001-4.253,2.199-6.119,3.685-.965,.697-1.815,1.542-2.677,2.352-.431,.405-.814,.864-1.2,1.313-.383,.453-.761,.907-1.117,1.378,.515-.304,1.008-.625,1.495-.947,.493-.315,.946-.673,1.46-.953,.987-.61,1.943-1.244,2.95-1.794,1.96-1.183,4.002-2.192,6.061-3.148,2.061-.959,4.191-1.764,6.359-2.496,2.172-.735,4.383-1.362,6.686-1.89Z" fill="#390075"/><g><g opacity=".2"><path d="M169.067,131.441c3.097,3.17,6.137,3.953,8.802,3.598,5.268-.699,9.086-5.838,9.086-5.838,3.95,3.202,7.258,4.236,9.932,4.156,4.434-.133,7.142-3.325,8.178-4.845-10.438,2.641-15.967-2.497-15.967-2.497l-4.782,.379c-4.138,7.556-14.921,5.119-15.249,5.046Z" fill="#390075"/></g><path d="M177.869,135.039c.943,2.308,2.372,4.909,4.066,6.959,1.883,2.292,4.094,3.917,6.331,3.74,2.253-.179,4.2-2.146,5.705-4.727,1.36-2.334,2.365-5.173,2.916-7.653-2.674,.08-5.982-.955-9.932-4.156,0,0-3.818,5.139-9.086,5.838Z" fill="#390075"/><g><path d="M181.935,141.998c1.883,2.292,4.094,3.917,6.331,3.74,2.253-.179,4.2-2.146,5.705-4.727-1.06-2.274-3.553-3.766-6.336-3.545-2.791,.221-5.029,2.104-5.7,4.532Z" fill="#fb64c0"/><path d="M188.281,145.931c-2.067,.164-4.313-1.154-6.496-3.811l-.064-.078,.027-.097c.711-2.573,3.071-4.45,5.871-4.674,2.782-.22,5.405,1.249,6.527,3.657l.043,.092-.051,.088c-1.45,2.486-3.095,4.058-4.81,4.612-.347,.112-.697,.182-1.048,.21Zm-.631-8.272c-2.604,.205-4.802,1.927-5.501,4.294,1.465,1.763,3.692,3.782,6.1,3.591,2.437-.192,4.328-2.556,5.501-4.543-1.078-2.207-3.516-3.548-6.101-3.343Z" fill="#390075"/></g><g><path d="M191.524,121.148c-1.188-1.335-9.018-.984-10.211,.809-1.192,1.793,2.983,5.651,5.569,5.446,2.586-.205,5.96-4.775,4.642-6.256Z" fill="#390075"/><path d="M187.011,129.026c-2.527,.2-5.595-1.995-6.874-4.171-1.104-1.879-.586-3.186-.179-3.798,1.067-1.607,3.975-2.133,6.227-2.292,1.896-.134,5.269-.143,6.554,1.301h0c.471,.53,1.14,1.722,.323,3.755-.817,2.032-2.861,4.296-5.033,4.998-.338,.109-.679,.181-1.018,.207Zm-4.256-6.218c.087,.28,.417,.87,1.159,1.547,1.08,.987,2.269,1.472,2.839,1.427,.517-.043,1.501-.638,2.375-1.701,.649-.788,.959-1.494,1.041-1.865-1.525-.543-6.276-.176-7.415,.592Zm-.126,.1h0Z" fill="#390075"/><g><path d="M182.099,121.851c.049,.621,1.987,.974,4.329,.788,2.341-.186,4.2-.839,4.15-1.46-.049-.621-1.987-.974-4.329-.788s-4.2,.839-4.15,1.46Z" fill="#fff"/><path d="M186.444,122.849c-2.211,.175-4.485-.106-4.555-.981h0c-.033-.416,.411-.789,1.319-1.109,.8-.282,1.875-.488,3.025-.578,1.15-.091,2.243-.058,3.078,.094,.947,.172,1.444,.471,1.477,.887,.037,.47-.579,.871-1.501,1.168-.795,.257-1.818,.437-2.843,.518Zm-3.097-1.693c-.84,.296-1.047,.573-1.039,.679,.026,.319,1.457,.804,4.103,.595,2.646-.211,3.983-.915,3.957-1.234-.008-.105-.256-.346-1.133-.506-.8-.146-1.855-.177-2.969-.089-1.037,.082-2.007,.259-2.755,.5-.056,.018-.111,.037-.164,.055Z" fill="#390075"/></g></g><path d="M199.886,134.348c3.354-1.084,5.464-3.614,6.363-4.91,.02-.025,.039-.052,.057-.078,.366-.535,.559-.9,.58-.94,.382-.734,.097-1.64-.637-2.022-.733-.382-1.636-.098-2.02,.632h0s-.119,.223-.35,.567c-.018,.023-.036,.048-.053,.073-.834,1.222-3.182,4.077-6.985,4.19-2.705,.081-5.714-1.205-8.943-3.823-.317-.257-.726-.374-1.131-.323-.404,.05-.772,.265-1.016,.593-.033,.044-3.52,4.638-8.08,5.246-2.611,.348-5.144-.714-7.532-3.159-.013-.014-.027-.027-.041-.04l-.026-.024c-.198-.207-.398-.423-.598-.649-.549-.619-1.495-.677-2.116-.126-.619,.549-.676,1.497-.126,2.116,.251,.283,.501,.552,.749,.809,.026,.027,.053,.053,.081,.078,3.067,3.109,6.433,4.443,10.005,3.967,4.225-.56,7.536-3.565,9.104-5.264,3.39,2.479,6.668,3.688,9.76,3.596,1.074-.032,2.058-.219,2.954-.508Z" fill="#390075"/><path d="M188.384,147.232c-2.511,.199-5.141-1.282-7.604-4.279-1.63-1.973-3.197-4.651-4.299-7.347-.176-.43-.142-.917,.091-1.319,.233-.402,.639-.673,1.1-.734,4.56-.607,8.047-5.202,8.08-5.246,.244-.329,.612-.543,1.016-.593,.406-.051,.814,.065,1.131,.323,3.23,2.618,6.238,3.904,8.943,3.823,.462-.014,.905,.187,1.2,.543,.295,.356,.409,.829,.308,1.28-.636,2.864-1.76,5.81-3.084,8.083-1.617,2.772-3.511,4.542-5.539,5.198-.442,.143-.89,.233-1.343,.269Zm-1.212-15.972c-1.311,1.42-3.841,3.753-7.104,4.808-.028,.009-.057,.018-.086,.027,.896,1.847,1.989,3.592,3.111,4.95,1.79,2.178,3.585,3.314,5.054,3.198,1.49-.118,3.098-1.535,4.529-3.987,.914-1.57,1.724-3.513,2.307-5.511-2.509-.354-5.125-1.521-7.811-3.485Z" fill="#390075"/></g><g><g><ellipse cx="203.625" cy="107.794" rx="6.689" ry="9.49" transform="translate(-13.299 30.162) rotate(-8.204)" fill="#390075"/><path d="M205.007,117.375c-3.755,.541-7.429-3.317-8.191-8.6h0c-.367-2.548-.012-5.046,1.001-7.035,1.024-2.011,2.596-3.264,4.428-3.528,3.754-.541,7.429,3.316,8.191,8.6,.711,4.93-1.362,9.386-4.693,10.4-.239,.073-.484,.128-.735,.164Zm-6.851-15.462c-.977,1.919-1.319,4.337-.963,6.808h0c.732,5.075,4.213,8.788,7.759,8.277,3.553-.517,5.837-5.057,5.105-10.132-.732-5.075-4.213-8.788-7.759-8.277-.234,.033-.464,.085-.688,.153-1.411,.43-2.621,1.533-3.455,3.171Z" fill="#390075"/></g><g><ellipse cx="207.291" cy="105.924" rx="2.021" ry="3.187" transform="translate(-12.994 30.666) rotate(-8.204)" fill="#fff"/><path d="M207.773,109.267c-1.207,.174-2.405-1.184-2.671-3.027-.126-.878-.028-1.737,.279-2.42,.32-.712,.829-1.152,1.428-1.238,.601-.087,1.212,.192,1.72,.784,.487,.568,.825,1.365,.951,2.243,.249,1.73-.41,3.281-1.49,3.61-.07,.021-.143,.038-.218,.049Zm-2.044-5.291c-.278,.618-.366,1.402-.249,2.21h0c.236,1.635,1.24,2.848,2.239,2.704,1.005-.138,1.62-1.592,1.384-3.227-.116-.807-.423-1.535-.863-2.049-.42-.49-.909-.722-1.376-.655-.057,.008-.112,.02-.166,.037-.396,.121-.736,.463-.968,.98Z" fill="#390075"/></g></g><g><g><ellipse cx="162.033" cy="113.054" rx="6.689" ry="9.49" transform="translate(-9.049 14.226) rotate(-4.891)" fill="#390075"/><path d="M162.858,122.7c-3.78,.323-7.225-3.741-7.68-9.059h0c-.219-2.565,.28-5.038,1.406-6.966,1.138-1.949,2.78-3.109,4.624-3.266,3.779-.323,7.224,3.74,7.68,9.059,.424,4.963-1.902,9.291-5.286,10.111-.242,.059-.491,.1-.743,.121Zm-5.946-15.833c-1.086,1.86-1.567,4.254-1.354,6.741h0c.437,5.109,3.698,9.017,7.268,8.712,3.577-.311,6.119-4.712,5.682-9.82-.437-5.109-3.698-9.017-7.268-8.711-.236,.02-.468,.058-.696,.113-1.434,.347-2.705,1.379-3.632,2.966Z" fill="#390075"/></g><g><ellipse cx="165.505" cy="111.589" rx="2.021" ry="3.187" transform="translate(-8.911 14.517) rotate(-4.891)" fill="#fff"/><path d="M165.793,114.954c-1.215,.104-2.332-1.321-2.491-3.177-.076-.884,.073-1.736,.418-2.4,.36-.692,.894-1.102,1.497-1.154,.605-.052,1.199,.262,1.671,.883,.453,.595,.745,1.41,.82,2.294,.149,1.741-.599,3.252-1.696,3.518-.072,.017-.145,.03-.22,.036Zm-1.735-5.401c-.313,.601-.447,1.379-.377,2.191h0c.141,1.646,1.073,2.915,2.079,2.829,1.011-.079,1.709-1.496,1.568-3.141-.069-.813-.333-1.557-.743-2.096-.391-.513-.865-.774-1.336-.733-.057,.005-.113,.014-.168,.027-.403,.098-.761,.419-1.023,.923Z" fill="#390075"/></g></g></g></svg>