<?xml version="1.0" encoding="UTF-8"?><svg id="a" xmlns="http://www.w3.org/2000/svg" viewBox="0 0 256 256"><path d="M171.752,183.025c7.696-1.597,16.592-1.073,24.948-.569,14.001,.853,26.47,1.67,29.185-7.56,3.787-12.863-18.297-16.605-33.246-17.673-7.345-.53-12.967-.411-12.967-.411l-7.92,26.213Z" fill="#fff"/><g opacity=".2"><path d="M171.752,183.025l7.92-26.213s5.622-.119,12.967,.411c3.069,4.756,6.927,11.869,7.437,18.194,13.295,.274,26.842-2.03,24.103-10.143,2.203,2.453,3.131,5.433,2.067,9.042-2.722,9.244-15.235,8.409-29.265,7.557l-.28,.583c-8.356-.504-17.252-1.027-24.948,.569Z" fill="#390075"/></g><path d="M222.617,181.77c2.3-1.405,3.991-3.456,4.859-6.406,1.016-3.452,.485-6.572-1.579-9.271-8.861-11.589-44.735-10.969-46.258-10.936-.916,.018-1.64,.777-1.621,1.69,.019,.915,.776,1.641,1.691,1.622,9.908-.207,37.047,1.121,43.557,9.637,1.406,1.839,1.743,3.907,1.032,6.323-2.327,7.905-13.871,7.204-27.239,6.391-8.679-.528-17.652-1.073-25.642,.584-.896,.187-1.471,1.063-1.285,1.959,.186,.896,1.063,1.471,1.959,1.285,7.556-1.567,16.306-1.036,24.768-.521,10.162,.617,19.921,1.211,25.759-2.357Z" fill="#390075"/><g><path d="M10.408,127.203c.822,1.918,1.815,3.851,2.98,5.748,5.328,8.703,14.175,16.74,25.809,19.523,3.677,.879,7.405,1.024,11.02,.563,1.012-.122,2.016-.295,3.005-.515-.949-2.804-3.161-6.681-8.316-8.829-7.648-3.185-22.176,4.995-34.498-16.49Z" fill="#33aef1"/><g opacity=".6"><path d="M11.176,126.563c.822,1.918,1.815,3.851,2.98,5.748,5.322,5.63,13.099,12.775,18.798,13.419,9.002,1.013,12.208-.31,18.032,6.667,1.012-.122,2.016-.295,3.005-.515-.949-2.804-3.161-6.681-8.316-8.829-7.648-3.185-22.176,4.995-34.498-16.49Z" fill="#fff"/></g><path d="M10.388,127.174c.01,.006,.013,.018,.02,.03,12.322,21.485,26.85,13.305,34.498,16.49,5.154,2.148,7.367,6.025,8.316,8.829,1.469-.316,2.91-.733,4.308-1.243,.968-.344,1.921-.732,2.848-1.161-.936-4.793-3.439-11.874-10.109-14.465-10.474-4.067-15.635,1.277-26.44-3.082-4.937-1.992-11.764-9.082-15.157-23.242-.408,.896-.697,1.897-.874,2.988-.663,4.082,.256,9.404,2.59,14.857Z" fill="#fdd800"/><g opacity=".6"><path d="M7.798,112.317c1.91,7.264,6.001,19.44,12.476,22.21,9.373,4.009,13.676,3.072,21.352,3.021,6.848-.045,12.932,4.533,15.904,13.731,.968-.344,1.921-.732,2.848-1.161-.936-4.793-3.439-11.874-10.109-14.465-10.474-4.067-15.635,1.277-26.44-3.082-4.937-1.992-11.764-9.082-15.157-23.242-.408,.896-.697,1.897-.874,2.988Z" fill="#fff"/></g><path d="M8.671,109.329c3.393,14.16,10.22,21.25,15.157,23.242,10.806,4.359,15.966-.985,26.44,3.082,6.669,2.59,9.172,9.672,10.109,14.465,1.23-.565,2.424-1.191,3.572-1.883,1.278-.761,2.497-1.595,3.649-2.49,.038-4.657-.78-12.613-6.21-17.207-8.02-6.787-28.894-.358-38.671-5.896-7.171-4.063-10.245-10.61-11.713-16.327-.547,.417-1.024,.908-1.434,1.469-.349,.469-.646,.982-.9,1.545Z" fill="#b177ea"/><g opacity=".6"><path d="M9.904,107.246c2.706,7.958,7.79,17.092,14.382,19.886,16.346,6.928,39.134-7.54,39.996,20.565,1.278-.761,2.497-1.595,3.649-2.49,.037-4.657-.78-12.613-6.21-17.207-8.02-6.787-28.894-.358-38.671-5.896-7.171-4.063-10.245-10.61-11.713-16.327-.547,.417-1.024,.908-1.434,1.469Z" fill="#fff"/></g><path d="M11.005,106.315c1.468,5.717,4.542,12.264,11.713,16.327,9.776,5.539,30.651-.891,38.671,5.896,5.43,4.594,6.247,12.55,6.21,17.207,2.511-1.955,4.702-4.204,6.459-6.639,.646-.892,1.233-1.809,1.753-2.744-1.073-6.305-4.021-18.72-15.313-21.477-14.765-3.606-34.59,13.059-47.297-9.677-.486,.11-.987,.319-1.521,.642-.18,.111-.367,.233-.553,.371-.041,.027-.08,.062-.12,.093Z" fill="#fe6dcb"/><g opacity=".6"><path d="M12.344,104.775c2.102,3.882,4.632,7.482,8.177,10.044,4.609,3.334,10.464,4.534,16.154,4.646,5.689,.108,11.342-.773,17.018-1.19,1.534-.112,3.085-.194,4.609-.003,4.961,.615,9.24,4.048,11.954,8.246,1.902,2.944,3.134,6.253,4.08,9.612,.138,.496,.248,1.18,.388,1.9,.646-.892,1.233-1.809,1.753-2.744-1.073-6.305-4.021-18.72-15.313-21.477-14.765-3.606-34.59,13.059-47.297-9.677-.486,.11-.987,.319-1.521,.642Z" fill="#fff"/></g><path d="M60.891,113.276c-5.323-1.3-11.195-.153-16.874,.956-11.07,2.162-21.526,4.204-29.371-9.832-.358-.641-1.096-.969-1.812-.807l-.048,.011c-.862,.203-1.719,.618-2.617,1.267-.064,.045-.132,.097-.195,.148-1.185,.908-2.131,2.127-2.813,3.625h0c-2.099,4.624-1.461,11.795,1.705,19.182,.014,.034,.03,.067,.047,.099,4.419,10.259,14.581,22.496,29.897,26.16,4.776,1.142,9.744,1.16,14.766,.055,.203-.044,.406-.09,.609-.137,2.332-.55,4.645-1.348,6.884-2.378,2.688-1.23,5.228-2.767,7.546-4.568,3.628-2.827,6.616-6.245,8.641-9.887,.183-.329,.248-.711,.185-1.083-2.211-12.993-7.779-20.667-16.552-22.809Zm7.879,28.646c-.055-.563-.127-1.145-.217-1.739-.009-.057-.017-.114-.026-.171-.045-.288-.095-.579-.15-.872-.01-.054-.021-.108-.031-.162-.055-.286-.114-.574-.179-.863l-.016-.073c-.068-.301-.144-.604-.224-.907-.017-.063-.033-.126-.05-.189-.082-.3-.168-.6-.262-.901-.015-.048-.031-.096-.046-.144-.09-.284-.186-.567-.288-.85-.014-.039-.027-.079-.042-.118-.11-.3-.229-.598-.353-.895-.026-.062-.052-.124-.078-.185-.128-.298-.262-.595-.405-.889-.017-.035-.035-.069-.052-.103-.137-.277-.281-.551-.432-.823-.025-.045-.049-.09-.074-.135-.161-.284-.331-.564-.509-.841-.036-.056-.073-.112-.11-.168-.185-.281-.376-.558-.579-.829-.013-.018-.027-.035-.041-.052-.196-.259-.402-.513-.615-.762-.04-.046-.078-.093-.118-.139-.22-.252-.451-.498-.69-.738-.047-.047-.096-.094-.144-.141-.252-.246-.511-.487-.784-.718-4.59-3.884-12.396-3.806-20.662-3.723-6.824,.068-13.881,.138-18.214-2.315-.342-.194-.676-.395-1.003-.603-.116-.074-.227-.153-.341-.229-.207-.137-.416-.274-.617-.417-.133-.095-.26-.195-.391-.292-.176-.131-.354-.261-.525-.397-.134-.107-.263-.219-.394-.328-.161-.134-.323-.267-.479-.406-.131-.117-.258-.238-.386-.358-.149-.139-.299-.277-.444-.42-.127-.126-.25-.256-.373-.385-.139-.145-.279-.289-.414-.438-.121-.134-.239-.272-.357-.409-.131-.152-.262-.303-.389-.459-.115-.141-.226-.286-.338-.431-.123-.16-.246-.32-.366-.484-.108-.148-.213-.3-.318-.452-.116-.168-.231-.336-.343-.508-.101-.156-.2-.314-.299-.473-.109-.176-.217-.354-.322-.535-.094-.162-.186-.326-.278-.492-.102-.185-.203-.373-.301-.563-.087-.169-.173-.339-.258-.512-.096-.195-.189-.392-.281-.591-.08-.175-.159-.35-.237-.528-.089-.205-.176-.414-.261-.624-.073-.18-.145-.361-.216-.544-.083-.217-.163-.437-.242-.658-.066-.185-.132-.37-.195-.558-.062-.185-.121-.375-.18-.563,8.931,14.12,21.063,11.764,31.816,9.663,5.573-1.088,10.837-2.117,15.453-.989,7.245,1.769,11.943,8.351,13.97,19.566-1.349,2.297-3.134,4.493-5.25,6.467-.012-.149-.025-.299-.039-.45-.005-.052-.01-.103-.015-.155Zm-2.902-1.568l.01,.062c.049,.316,.092,.627,.131,.935,.004,.033,.009,.067,.013,.1,.036,.297,.066,.589,.093,.876,.004,.042,.008,.084,.012,.126,.025,.28,.045,.554,.062,.823,.003,.044,.006,.089,.008,.133,.016,.263,.028,.52,.037,.769l.005,.136c.004,.13,.006,.252,.009,.377-1.57,1.189-3.248,2.248-5.01,3.162-.056-.217-.115-.435-.177-.654l-.006-.024c-.086-.302-.179-.607-.276-.912-.013-.042-.026-.084-.04-.126-.095-.292-.195-.585-.301-.879-.019-.052-.038-.104-.057-.157-.107-.291-.22-.582-.338-.872-.021-.05-.042-.101-.063-.151-.123-.296-.252-.591-.388-.885-.016-.035-.033-.069-.049-.104-.144-.306-.294-.611-.453-.913l-.006-.011c-.159-.301-.327-.599-.501-.893-.022-.037-.042-.074-.064-.11-.168-.28-.345-.556-.528-.829-.031-.047-.063-.094-.095-.14-.183-.268-.374-.532-.573-.791-.034-.044-.069-.088-.103-.132-.205-.262-.417-.52-.638-.771-.027-.03-.055-.06-.082-.09-.234-.262-.476-.518-.729-.766l-.005-.005c-.252-.247-.517-.485-.789-.716-.034-.029-.066-.058-.1-.086-.262-.219-.534-.428-.814-.631-.048-.035-.096-.07-.144-.104-.28-.197-.568-.387-.867-.567-.051-.031-.104-.061-.156-.092-.306-.18-.621-.352-.948-.513-.041-.02-.083-.039-.125-.059-.347-.167-.702-.325-1.071-.469-5.435-2.11-9.53-1.816-13.49-1.532-3.977,.286-7.734,.555-12.936-1.542-.143-.058-.287-.12-.433-.188-.06-.028-.121-.059-.181-.089-.087-.042-.174-.083-.263-.129-.068-.035-.138-.075-.207-.113-.082-.045-.163-.087-.246-.135-.074-.042-.149-.089-.223-.134-.079-.048-.158-.093-.238-.144-.075-.047-.151-.099-.227-.149-.081-.053-.161-.104-.243-.16-.076-.052-.153-.109-.23-.164-.082-.058-.163-.114-.245-.175-.079-.058-.158-.121-.238-.182-.081-.062-.162-.123-.243-.188-.081-.065-.163-.134-.245-.202-.08-.066-.16-.131-.24-.199-.082-.071-.165-.146-.248-.219-.08-.071-.161-.141-.241-.215-.082-.075-.164-.154-.246-.232-.082-.078-.164-.154-.246-.234-.083-.081-.166-.167-.249-.25-.081-.082-.162-.162-.243-.246-.084-.087-.168-.179-.252-.269-.081-.087-.162-.172-.242-.261-.084-.092-.167-.189-.251-.284-.081-.092-.162-.183-.244-.278-.083-.097-.166-.199-.249-.299-.082-.099-.163-.196-.245-.297-.083-.103-.165-.21-.248-.315-.081-.104-.162-.206-.243-.312-.083-.109-.166-.223-.249-.335-.08-.109-.16-.216-.24-.327-.082-.115-.164-.233-.246-.351-.08-.114-.16-.228-.239-.345-.081-.12-.162-.244-.243-.368-.079-.12-.158-.239-.237-.362-.08-.126-.16-.256-.24-.384-.078-.126-.156-.251-.234-.379-.08-.132-.159-.269-.238-.404-.076-.13-.153-.26-.229-.393-.079-.139-.157-.282-.236-.424-.075-.136-.15-.27-.224-.409-.078-.146-.155-.295-.232-.444-.073-.14-.146-.28-.218-.423-.077-.152-.152-.308-.228-.463-.072-.146-.143-.292-.214-.441-.075-.158-.149-.319-.223-.48-.07-.152-.14-.303-.209-.458-.073-.164-.145-.332-.217-.5-.068-.157-.135-.314-.202-.473-.072-.172-.143-.348-.214-.524-.065-.161-.13-.321-.193-.484-.07-.18-.14-.364-.209-.548-.062-.165-.124-.33-.186-.498-.068-.188-.135-.379-.202-.569-.06-.17-.119-.339-.178-.512-.066-.194-.13-.392-.195-.59-.057-.176-.115-.352-.171-.531-.063-.201-.125-.405-.187-.61-.054-.18-.109-.36-.162-.543-.061-.209-.12-.422-.179-.635-.052-.186-.103-.371-.153-.56-.048-.18-.095-.363-.142-.546,.095-.205,.198-.402,.306-.589,.054,.157,.111,.311,.167,.467,.088,.245,.178,.487,.27,.727,.072,.188,.146,.374,.221,.559,.097,.239,.198,.474,.301,.708,.078,.177,.155,.355,.235,.529,.11,.238,.224,.472,.339,.705,.08,.162,.158,.325,.24,.484,.13,.251,.265,.495,.401,.739,.075,.134,.146,.271,.223,.404,.194,.336,.395,.665,.601,.988,.023,.035,.043,.073,.066,.108,.23,.357,.468,.705,.712,1.046,.08,.112,.164,.218,.246,.328,.169,.227,.338,.454,.513,.674,.102,.128,.207,.251,.311,.377,.162,.196,.325,.391,.493,.58,.114,.129,.23,.254,.346,.38,.166,.18,.333,.358,.503,.532,.122,.125,.246,.247,.371,.369,.173,.169,.348,.335,.526,.498,.128,.118,.257,.235,.388,.35,.183,.161,.37,.318,.558,.474,.132,.109,.263,.218,.397,.324,.199,.157,.402,.309,.606,.46,.13,.096,.258,.194,.39,.288,.228,.162,.463,.318,.698,.473,.114,.075,.225,.153,.34,.226,.353,.224,.713,.442,1.08,.651,4.961,2.81,12.384,2.736,19.564,2.664,7.411-.074,15.073-.151,18.901,3.089,.289,.244,.562,.501,.823,.766,.016,.016,.033,.032,.048,.048,.249,.256,.484,.521,.709,.793,.023,.028,.048,.056,.071,.084,.216,.266,.42,.541,.615,.821,.026,.037,.052,.074,.078,.111,.189,.277,.366,.56,.535,.848,.025,.043,.05,.085,.075,.128,.165,.287,.32,.578,.466,.873,.023,.046,.045,.091,.067,.137,.144,.296,.279,.596,.405,.898,.019,.045,.037,.091,.056,.137,.125,.306,.242,.613,.351,.923,.015,.042,.028,.083,.043,.125,.108,.315,.21,.631,.303,.947,.01,.035,.02,.07,.03,.105,.094,.325,.18,.65,.259,.974l.015,.064c.162,.677,.293,1.349,.398,2.008Zm-13.194-1.831c.121,.092,.236,.189,.352,.285,.159,.13,.318,.26,.47,.397,.115,.103,.224,.211,.335,.318,.143,.138,.284,.277,.42,.421,.107,.114,.21,.23,.313,.347,.129,.146,.256,.294,.378,.445,.098,.121,.194,.245,.289,.369,.117,.154,.231,.31,.342,.468,.09,.128,.178,.257,.264,.387,.106,.161,.209,.324,.309,.488,.081,.132,.161,.265,.239,.399,.096,.168,.189,.337,.28,.508,.072,.135,.145,.27,.214,.406,.088,.174,.171,.351,.253,.527,.063,.135,.128,.27,.188,.406,.08,.182,.155,.365,.23,.548,.054,.132,.111,.264,.162,.397,.076,.196,.146,.392,.216,.588,.043,.12,.089,.241,.13,.361,.081,.237,.155,.474,.228,.71,.025,.079,.052,.159,.076,.238,.093,.311,.18,.621,.26,.929,.032,.121,.059,.239,.088,.358,.016,.063,.031,.125,.046,.188-1.587,.672-3.205,1.217-4.836,1.631-.048-.109-.097-.217-.148-.327-.035-.075-.074-.151-.111-.227-.063-.128-.127-.256-.194-.385-.042-.081-.087-.162-.131-.243-.069-.126-.14-.252-.213-.378-.049-.083-.098-.166-.149-.25-.077-.127-.158-.254-.24-.381-.053-.082-.106-.163-.161-.245-.09-.133-.185-.266-.28-.399-.054-.075-.107-.15-.163-.225-.116-.155-.239-.308-.363-.462-.042-.052-.081-.104-.124-.156-.171-.205-.349-.408-.536-.609-.041-.044-.085-.087-.127-.13-.148-.156-.3-.311-.458-.464-.073-.07-.15-.138-.225-.208-.135-.125-.272-.25-.414-.372-.087-.075-.179-.149-.269-.223-.139-.114-.281-.228-.427-.34-.098-.075-.198-.149-.299-.222-.149-.108-.302-.215-.458-.32-.106-.071-.212-.143-.321-.213-.164-.105-.334-.208-.506-.309-.109-.065-.217-.13-.329-.193-.193-.108-.395-.213-.598-.316-.1-.051-.195-.103-.297-.153-.309-.15-.627-.296-.958-.434-2.366-.986-5.234-.996-8.269-1.007-1.876-.007-3.865-.015-5.925-.245-.025-.003-.051-.005-.076-.008-.197-.023-.396-.049-.594-.076-.064-.009-.128-.016-.192-.025-.146-.021-.293-.046-.439-.069-.119-.019-.237-.036-.355-.056-.108-.019-.217-.042-.326-.062-.158-.03-.315-.057-.473-.09-.095-.02-.191-.044-.287-.065-.172-.038-.344-.075-.517-.117-.092-.023-.185-.05-.277-.073-.177-.046-.354-.091-.532-.141-.095-.027-.191-.059-.286-.088-.175-.053-.351-.104-.527-.162-.096-.032-.193-.069-.289-.102-.176-.061-.352-.12-.528-.186-.091-.034-.182-.073-.272-.109-.182-.072-.364-.142-.547-.22-.092-.039-.184-.084-.276-.125-.182-.081-.364-.16-.547-.248-.087-.042-.174-.089-.261-.132-.188-.093-.375-.185-.564-.286-.087-.047-.174-.099-.261-.147-.188-.104-.377-.207-.565-.32-.091-.054-.183-.115-.274-.172-.184-.114-.369-.225-.553-.347-.09-.059-.18-.125-.27-.187-.186-.126-.372-.251-.558-.386-.09-.065-.179-.137-.269-.204-.186-.139-.373-.277-.559-.425-.091-.073-.182-.153-.274-.228-.185-.151-.369-.301-.554-.462-.096-.084-.193-.176-.289-.263-.179-.161-.358-.319-.537-.488-.103-.097-.205-.204-.308-.304-.173-.169-.345-.335-.518-.513-.105-.108-.209-.225-.314-.337-.17-.18-.339-.357-.509-.547-.113-.126-.225-.263-.338-.393-.161-.186-.322-.368-.483-.562-.116-.14-.232-.291-.347-.436-.157-.196-.314-.387-.47-.591-.122-.159-.243-.33-.365-.494-.15-.202-.3-.399-.45-.61-.126-.178-.252-.368-.378-.551-.144-.21-.288-.413-.432-.631-.039-.06-.078-.124-.118-.184-.417-.819-.8-1.632-1.143-2.431-.014-.033-.029-.066-.046-.098-1.562-3.662-2.443-7.279-2.601-10.404,.113,.309,.227,.614,.343,.915,.01,.026,.02,.054,.03,.08,.225,.58,.458,1.139,.694,1.688,.041,.094,.081,.19,.122,.284,.229,.522,.464,1.029,.703,1.522,.047,.098,.095,.195,.143,.292,.243,.493,.49,.974,.742,1.439,.034,.063,.069,.124,.104,.187,.251,.457,.505,.901,.762,1.329,.022,.037,.044,.075,.066,.112,.266,.439,.536,.859,.808,1.269,.049,.073,.097,.147,.146,.22,.266,.394,.534,.774,.805,1.141,.05,.068,.1,.134,.15,.201,.277,.37,.556,.729,.837,1.071,.027,.033,.055,.064,.082,.097,.276,.333,.554,.653,.832,.959,.032,.035,.064,.072,.095,.107,.283,.309,.567,.601,.851,.882,.052,.051,.103,.103,.155,.153,.279,.272,.559,.531,.838,.778,.048,.043,.097,.084,.145,.126,.288,.25,.576,.49,.863,.713l.044,.033c.283,.219,.565,.423,.845,.616,.038,.026,.075,.053,.113,.079,.277,.187,.551,.36,.824,.523,.051,.03,.102,.061,.153,.09,.27,.156,.537,.302,.801,.434,.042,.021,.084,.041,.127,.061,.276,.134,.549,.26,.818,.368,5.778,2.329,10.025,2.025,14.132,1.73,3.833-.275,7.453-.535,12.326,1.357,.359,.139,.704,.295,1.038,.462,.112,.056,.215,.121,.324,.179,.217,.117,.434,.235,.639,.363,.123,.077,.238,.161,.357,.242,.18,.122,.362,.243,.534,.374Zm-30.005,3.058c.221,.107,.441,.206,.661,.304,.109,.048,.217,.1,.326,.146,.308,.131,.615,.254,.921,.37,.019,.007,.038,.016,.057,.023,.325,.121,.648,.232,.97,.336,.111,.036,.221,.067,.331,.101,.213,.065,.426,.13,.638,.189,.129,.036,.257,.068,.385,.102,.194,.05,.387,.099,.579,.145,.132,.031,.264,.061,.396,.09,.19,.041,.378,.081,.567,.117,.129,.025,.258,.051,.386,.074,.195,.035,.389,.067,.582,.098,.119,.019,.238,.039,.356,.056,.222,.033,.442,.061,.661,.088,.087,.011,.175,.024,.261,.034,.302,.035,.602,.066,.9,.092,.092,.008,.182,.014,.273,.022,.211,.017,.421,.034,.63,.048,.118,.008,.234,.014,.351,.021,.18,.01,.36,.02,.539,.028,.123,.006,.245,.01,.367,.015,.172,.007,.344,.013,.514,.017,.12,.003,.239,.007,.358,.01,.173,.004,.345,.007,.517,.01,.112,.002,.224,.004,.336,.005,.188,.002,.373,.004,.557,.005,.09,0,.18,.002,.269,.002,.265,.002,.527,.003,.785,.003,2.882,.01,5.371,.019,7.247,.801,.27,.112,.529,.231,.782,.354,.079,.038,.154,.078,.231,.117,.172,.087,.341,.176,.505,.267,.084,.047,.165,.094,.247,.142,.154,.09,.305,.182,.452,.276,.075,.048,.15,.095,.223,.144,.16,.106,.314,.215,.465,.325,.051,.037,.104,.073,.153,.11,.199,.149,.391,.301,.575,.456,.029,.025,.056,.05,.085,.075,.152,.131,.3,.263,.442,.397,.055,.052,.108,.105,.161,.157,.112,.11,.222,.22,.328,.331,.055,.058,.109,.116,.163,.175,.102,.111,.2,.223,.296,.335,.047,.055,.095,.11,.14,.165,.111,.135,.218,.271,.321,.407,.024,.031,.049,.062,.072,.094,.125,.168,.243,.337,.356,.506,.03,.045,.058,.09,.087,.135,.081,.124,.16,.248,.235,.372,.036,.06,.071,.12,.106,.18,.065,.111,.127,.221,.187,.331,.033,.061,.066,.121,.097,.181,.045,.085,.086,.169,.128,.254-3.97,.662-7.879,.544-11.645-.357-6.817-1.63-12.529-5.119-17.08-9.361,.056,.028,.113,.053,.169,.08Z" fill="#390075"/></g><path d="M128.194,206.208c36.999-.465,52.354-17.75,57.473-35.336,4.487-15.363,1.155-30.96-2.367-35.755,0,0-26.586,6.389-68.472-5.094-3.383-.924-6.607-1.615-9.678-2.093-34.933-5.412-49.827,16.805-51.122,30.185-1.407,14.551,4.834,48.967,74.166,48.093Z" fill="#fff"/><g opacity=".2"><path d="M55.327,160.985c4.08,15.917,20.264,35.766,73.13,35.098,21.421-.271,35.584-6.18,44.708-14.52,4.174-3.815,1.948-10.735-3.662-11.442-2.166-.273-4.349-.618-6.545-1.037-29.224-5.577-51.784-22.45-57.809-41.153,3.072,.478,6.295,1.169,9.678,2.093,41.886,11.483,68.472,5.094,68.472,5.094,2.006,2.731,3.948,8.969,4.421,16.669,.325-2.848,.424-5.628,.347-8.262,4.386,19.768-.455,61.775-58.416,62.508-64.863,.816-74.505-29.251-74.326-45.049Z" fill="#390075"/></g><path d="M62.566,188.224c-10.709-11.646-10.691-25.048-10.187-30.27,.703-7.269,5.195-17.615,15.694-24.851,8.341-5.748,23.298-11.226,47.194-4.675,40.92,11.218,67.385,5.139,67.648,5.077h0c.648-.154,1.327,.094,1.721,.631,4.588,6.249,8.426,27.374-.597,45.474-6.305,12.648-21.107,27.817-55.823,28.255-.878,.011-1.748,.016-2.612,.016-29.838,0-51.039-6.609-63.038-19.657Zm51.826-56.601c-22.667-6.214-36.676-1.141-44.438,4.208-9.574,6.598-13.674,16.213-14.276,22.442-.462,4.779-.478,17.046,9.327,27.708,11.682,12.704,32.917,18.961,63.17,18.571,26.156-.33,44.448-9.466,52.899-26.419,7.917-15.881,5.239-34.646,1.461-41.16-5.605,1.098-30.68,4.922-68.143-5.349Zm68.905,3.493h0Z" fill="#390075"/><path d="M151.655,193.692c.4,.034,.8,.08,1.201,.13l.005-.002c20.671,2.484,44.679,20.422,52.953,7.832,2.067-3.143,2.046-6.264,.651-9.252l-.002-.005c-6.014-12.896-37.558-23.406-37.558-23.406l-17.25,24.703Z" fill="#fff"/><g opacity=".2"><path d="M152.861,193.821c20.671,2.484,44.679,20.422,52.953,7.832,2.067-3.143,2.046-6.264,.651-9.252,.3,9.805-17.634,6.103-31.424,.767-13.572-5.253-21.917,.466-22.18,.653Z" fill="#451661"/></g><path d="M168.732,169.514c1.91,1.561,3.995,2.582,6.11,3.53,2.104,.972,4.255,1.821,6.386,2.721,2.134,.894,4.206,1.919,6.248,2.988,2.04,1.071,4.041,2.206,5.979,3.422,1.933,1.221,3.807,2.522,5.542,3.95,1.737,1.422,3.338,2.986,4.604,4.708,1.257,1.716,2.14,3.627,2.187,5.514,.022,.941-.152,1.872-.51,2.77-.079,.227-.187,.447-.3,.667-.1,.223-.229,.438-.362,.651l-.195,.321-.225,.294-.443,.592c-1.284,1.455-3.006,2.386-5.054,2.641-2.027,.293-4.233,.102-6.423-.326-4.399-.864-8.775-2.455-13.146-4.05-4.375-1.61-8.771-3.297-13.29-4.743l-1.7-.532-1.715-.5c-1.151-.313-2.283-.703-3.45-.999-1.158-.314-2.357-.505-3.571-.562-1.214-.047-2.461,.08-3.697,.571-.317,.126-.472,.485-.346,.803,.046,.114,.121,.208,.214,.274l.032,.023c.544,.39,1.088,.65,1.63,.89,.542,.236,1.084,.452,1.63,.613,.547,.153,1.093,.329,1.645,.46,.275,.07,.552,.126,.83,.187,.276,.07,.555,.128,.834,.185,1.118,.213,2.244,.444,3.349,.747l1.656,.48,1.651,.516c4.399,1.406,8.747,3.074,13.155,4.696,4.414,1.605,8.869,3.245,13.668,4.194,2.394,.461,4.919,.721,7.534,.349,.651-.06,1.304-.267,1.954-.423,.323-.098,.641-.236,.96-.355l.477-.187c.156-.071,.305-.161,.458-.242,.303-.167,.608-.332,.906-.506l.833-.623c.136-.108,.282-.205,.407-.322l.366-.364c.241-.245,.492-.484,.719-.739l.613-.809,.303-.407,.262-.428c.176-.284,.346-.572,.49-.882,.155-.301,.301-.607,.42-.932,.51-1.273,.781-2.686,.743-4.085-.032-1.403-.382-2.758-.888-3.99-.511-1.235-1.184-2.355-1.934-3.383-1.51-2.051-3.298-3.773-5.175-5.315-1.879-1.546-3.859-2.918-5.883-4.196-2.027-1.272-4.1-2.448-6.204-3.552-2.104-1.105-4.242-2.127-6.369-3.17-2.128-1.04-4.284-2.028-6.524-2.799-1.117-.391-2.243-.761-3.414-1.004-1.171-.245-2.36-.424-3.628-.381-.325,.011-.58,.284-.569,.609,.006,.176,.089,.331,.214,.434l.005,.004Z" fill="#390075"/><path d="M17.931,181.916c4.048,6.707,14.629,4.225,19.482,3.37,4.853-.855,9.375,8.861,23.839,5.132,5.598-1.444,9.736-4.739,12.746-8.395,5.482-6.662,7.221-14.516,7.221-14.516l-13.598-20.709c-25.44-3.751-43.06,11.501-48.688,23.72-2.14,4.639-2.549,8.84-1.003,11.397Z" fill="#fff"/><g opacity=".2"><path d="M17.931,181.916c4.048,6.707,14.629,4.225,19.482,3.37,4.853-.855,9.375,8.861,23.839,5.132,5.598-1.444,9.736-4.739,12.746-8.395l.004-.01s5.495-6.007,6.201-13.13c0,0-18.741,20.808-37.228,4.331,0,0-18.426,9.36-24.042-2.696-2.14,4.639-2.549,8.84-1.003,11.397Z" fill="#390075"/></g><path d="M75.505,179.061c-2.238,1.824-4.135,3.665-6.207,5.285-2.08,1.588-4.293,2.967-6.732,3.878-.603,.246-1.23,.415-1.858,.604-.643,.166-1.29,.317-1.939,.431-1.298,.232-2.603,.359-3.896,.354-2.589-.007-5.106-.572-7.458-1.697-1.185-.548-2.328-1.229-3.52-1.96-.599-.364-1.205-.744-1.872-1.113-.667-.366-1.388-.732-2.252-.995-.215-.065-.45-.114-.675-.167-.242-.035-.481-.075-.73-.09-.254,0-.505-.027-.763,.01l-.385,.043c-.071,.008-.123,.016-.161,.024l-.132,.024-2.072,.376c-1.361,.243-2.706,.448-4.043,.58-2.657,.256-5.346,.225-7.627-.571-1.127-.407-2.127-.997-2.901-1.808-.393-.385-.735-.883-.999-1.334-.237-.428-.405-.931-.505-1.478-.207-1.096-.123-2.346,.106-3.582,.245-1.241,.632-2.489,1.138-3.703,1.005-2.435,2.402-4.752,4.021-6.9,3.248-4.304,7.386-7.963,12.007-10.787,4.629-2.822,9.766-4.802,15.097-5.802,1.334-.242,2.676-.443,4.028-.573,1.352-.122,2.712-.142,4.068-.112,1.356,.019,2.71-.002,4.079-.041,1.373-.082,2.753-.183,4.221-.611l.016-.005c.318-.093,.501-.426,.408-.744-.043-.149-.141-.269-.263-.344-1.316-.805-2.727-1.258-4.16-1.508-1.434-.244-2.892-.337-4.346-.283-2.905,.159-5.801,.44-8.664,.965-5.719,1.072-11.241,3.199-16.209,6.23-4.964,3.036-9.399,6.95-12.928,11.622-1.759,2.338-3.296,4.869-4.438,7.633-.574,1.379-1.031,2.827-1.329,4.344-.277,1.52-.415,3.122-.11,4.798,.153,.833,.423,1.684,.866,2.487,.44,.76,.914,1.423,1.516,2.032,1.172,1.227,2.664,2.088,4.177,2.628,1.523,.53,3.072,.775,4.586,.864,1.516,.086,3.005,.022,4.466-.118,1.46-.143,2.895-.364,4.3-.615l2.076-.377,.127-.023c.048-.01,.083-.014,.099-.014l.139-.014c.09-.023,.193,.004,.289-.005,.101,.006,.209,.029,.316,.038,.116,.033,.227,.051,.347,.088,.978,.295,2.146,1.03,3.341,1.759,1.202,.736,2.477,1.501,3.844,2.134,2.718,1.307,5.816,2.011,8.848,2.009,1.518,.007,3.02-.147,4.488-.401,.366-.069,.736-.125,1.097-.206l1.085-.244c.724-.188,1.461-.372,2.173-.622,1.432-.476,2.839-1.064,4.151-1.822,1.312-.755,2.542-1.644,3.656-2.649,2.24-1.989,4.043-4.457,4.916-7.31,.093-.304-.078-.627-.382-.72-.19-.058-.386-.013-.53,.102l-.007,.006Z" fill="#390075"/><g><path d="M104.569,112.054c-2.914,25.361,22.652,43.872,56.368,47.746,33.716,3.874,62.814-8.356,65.728-33.717,2.914-25.361-21.46-54.249-55.176-58.123-33.716-3.874-64.007,18.733-66.921,44.094Z" fill="#fff"/><g opacity=".2"><path d="M160.362,159.643c33.713,3.872,62.813-8.357,65.726-33.72,.021-.159,.037-.317,.052-.48-7.714,19.667-33.893,28.812-63.676,25.392-33.665-3.871-59.204-22.328-56.385-47.629-1.043,2.835-1.751,5.74-2.089,8.687-2.913,25.363,22.653,43.873,56.372,47.749Z" fill="#390075"/></g><path d="M160.748,161.446c-17.118-1.967-32.308-7.711-42.773-16.173-11.307-9.144-16.512-20.696-15.052-33.408,1.48-12.879,9.724-25.34,22.618-34.187,13.415-9.205,29.8-13.24,46.137-11.364,16.336,1.877,31.379,9.524,42.358,21.532,10.552,11.541,15.755,25.547,14.275,38.426-1.461,12.711-9.15,22.782-22.237,29.123-7.226,3.501-15.869,5.678-25.303,6.448-6.379,.52-13.119,.396-20.024-.397Zm-33.332-81.036c-12.103,8.305-19.831,19.908-21.201,31.834-2.644,23.013,19.936,41.892,54.911,45.911,6.919,.795,13.494,.914,19.616,.414,24.827-2.025,42.157-14.214,44.278-32.674,2.683-23.349-19.721-52.382-53.719-56.289-4.273-.491-8.547-.557-12.766-.213-11.129,.908-21.869,4.67-31.118,11.017Z" fill="#390075"/><path d="M164.998,85.928c.965,.315,2.077,.542,3.351,.645,6.465,.522,9.236-2.702,9.802-5.153-1.869,1.186-6.923,4.033-13.153,4.508Z" fill="#fe6dcb"/><path d="M162.359,84.638c.557,.395,1.208,.75,1.963,1.049,.217,.087,.442,.17,.675,.239,6.231-.474,11.285-3.322,13.154-4.508,.033-.112,.049-.227,.069-.337,.274-1.744,.373-4.23,.303-7.05,0,0-6.313,5.18-15.715,5.699-1.07,.058-2.179,.06-3.323-.019,.038,1.5,.825,3.473,2.875,4.926Z" fill="#33aef1"/><g opacity=".6"><path d="M162.359,84.638c.098-1.688,.254-3.325,.448-4.908-1.07,.058-2.179,.06-3.323-.019,.038,1.5,.825,3.473,2.875,4.926Z" fill="#fff"/></g><path d="M159.484,79.712c1.144,.079,2.253,.077,3.323,.019,9.402-.519,15.715-5.699,15.715-5.699-.069-2.85-.317-6.05-.727-9.179,0,0-3.897,4.79-13.65,7.332-1.213,.317-2.517,.6-3.913,.831-.469,2.587-.74,4.885-.751,6.553,0,.046,0,.097,.003,.143Z" fill="#fdd800"/><g opacity=".6"><path d="M159.484,79.712c1.144,.079,2.253,.077,3.323,.019,.333-2.668,.791-5.183,1.337-7.546-1.213,.317-2.517,.6-3.913,.831-.469,2.587-.74,4.885-.751,6.553,0,.046,0,.097,.003,.143Z" fill="#fff"/></g><path d="M160.231,73.016c1.396-.231,2.7-.514,3.913-.831,9.753-2.542,13.65-7.332,13.65-7.332-.444-3.382-1.091-6.684-1.937-9.387,0,0-3.191,4.329-8.663,6.85-1.432,.663-3.018,1.199-4.749,1.5-.933,3.129-1.7,6.345-2.214,9.2Z" fill="#b177ea"/><g opacity=".6"><path d="M160.231,73.016c1.396-.231,2.7-.514,3.913-.831,.847-3.672,1.914-6.967,3.05-9.869-1.432,.663-3.018,1.199-4.749,1.5-.933,3.129-1.7,6.345-2.214,9.2Z" fill="#fff"/></g><path d="M162.426,63.575c1.731-.301,3.316-.837,4.749-1.5,5.472-2.521,8.663-6.85,8.663-6.85-.689-2.224-1.509-4.038-2.466-5.157-.618-.726-1.296-1.162-2.027-1.22-3.238-.261-6.605,6.955-8.919,14.727Z" fill="#fe6dcb"/><g opacity=".6"><path d="M162,63.852c1.731-.301,3.316-.837,4.749-1.5,2.119-5.422,4.494-9.466,6.197-12.007-.618-.726-1.296-1.163-2.027-1.22-3.238-.261-6.605,6.955-8.919,14.727Z" fill="#fff"/></g><path d="M179.434,64.635c-.484-3.695-1.175-7.037-1.995-9.663-1.507-4.867-3.45-7.332-5.939-7.534-4.768-.379-8.418,8.438-10.644,15.905-.937,3.151-1.717,6.393-2.256,9.377-.494,2.725-.762,5.089-.776,6.836-.002,.096,0,.191,.007,.284v.004c.005,.115,.012,.232,.024,.349,.004,.046,.01,.101,.017,.155,.014,.111,.026,.201,.041,.292,.012,.072,.023,.135,.035,.199,.019,.098,.04,.192,.062,.288,.018,.079,.03,.129,.043,.178,.039,.15,.083,.301,.134,.453,.009,.027,.024,.071,.04,.114,.043,.123,.086,.237,.132,.353l.054,.128,.021,.05c.046,.105,.095,.212,.147,.318l.081,.164c.064,.124,.138,.258,.215,.391,.015,.028,.038,.065,.061,.103,.076,.127,.18,.288,.293,.448,.008,.012,.044,.061,.052,.072,.099,.137,.197,.266,.301,.394l.075,.091,.017,.021c.104,.125,.214,.248,.329,.37l.074,.08c.298,.308,.62,.598,.963,.866,.01,.008,.056,.042,.066,.05l.078,.059c.07,.054,.14,.108,.214,.16,.052,.036,.094,.064,.137,.091l.201,.133c.141,.091,.284,.179,.431,.265,.071,.042,.133,.078,.197,.114,.14,.077,.286,.152,.434,.226l.048,.024c.059,.03,.117,.059,.178,.088,.173,.081,.349,.156,.527,.23,.057,.026,.108,.048,.162,.07,.281,.113,.549,.207,.807,.285,1.093,.357,2.349,.6,3.693,.709,.966,.078,1.874,.077,2.721,.008,5.13-.418,8.097-3.333,8.823-6.411,.033-.129,.059-.261,.082-.389l.009-.051c.176-1.119,.283-2.462,.327-4.038,.023-.817,.028-1.693,.015-2.604l-.003-.172c-.003-.191-.006-.381-.011-.576-.072-2.987-.329-6.222-.743-9.355Zm-2.847,16.164l-.007,.004c-.097,.057-.202,.116-.308,.175-.06,.034-.117,.067-.179,.101-.135,.075-.278,.152-.424,.23-.041,.022-.078,.042-.119,.064-.189,.1-.388,.202-.594,.306-.059,.029-.123,.06-.183,.089-.151,.074-.303,.149-.463,.224-.086,.041-.177,.081-.265,.122-.141,.065-.283,.13-.43,.195-.101,.044-.205,.089-.309,.133-.143,.061-.286,.122-.434,.183-.111,.046-.225,.091-.339,.136-.147,.058-.296,.116-.447,.174-.12,.046-.243,.09-.366,.135-.153,.056-.308,.11-.465,.164-.127,.044-.255,.087-.384,.129-.161,.053-.325,.104-.49,.155-.132,.041-.263,.081-.397,.12-.171,.05-.346,.098-.521,.145-.133,.036-.264,.073-.399,.107-.189,.048-.382,.092-.574,.137-.126,.029-.25,.06-.378,.087-.23,.049-.465,.094-.7,.137-.095,.018-.187,.038-.283,.054-.332,.058-.668,.109-1.008,.153-.055,.007-.111,.011-.166,.018-.148-.042-.299-.081-.441-.128-.201-.061-.376-.123-.576-.203l-.109-.048c-.14-.058-.269-.112-.392-.17l-.159-.08c-.109-.054-.21-.106-.308-.16l-.109-.063c-.128-.074-.225-.134-.32-.195l-.205-.135c-.059-.04-.096-.069-.133-.098l-.069-.052-.047-.036c-.227-.176-.434-.363-.621-.557l-.047-.052c-.072-.077-.14-.152-.204-.229l-.015-.017-.037-.045c-.069-.085-.128-.164-.186-.243l-.034-.046c-.067-.095-.129-.189-.185-.284l-.036-.062c-.034-.058-.077-.137-.118-.215l-.036-.073c-.034-.07-.06-.125-.083-.179,.263-.002,.522-.009,.781-.018,.097-.003,.196-.004,.293-.008,.375-.016,.747-.038,1.112-.068,.031-.003,.062-.006,.093-.009,.065-.006,.129-.013,.194-.019,.335-.031,.665-.067,.991-.108,.082-.01,.164-.02,.245-.031,.37-.05,.736-.105,1.094-.167,.057-.01,.113-.021,.17-.031,.318-.057,.63-.118,.938-.183,.072-.015,.144-.03,.215-.045,.345-.076,.684-.156,1.017-.241,.055-.014,.108-.029,.162-.043,.291-.076,.578-.156,.859-.238,.066-.019,.133-.038,.199-.058,.315-.095,.624-.192,.926-.293,.053-.018,.105-.036,.157-.054,.261-.089,.517-.18,.768-.272,.062-.023,.124-.045,.185-.068,.283-.106,.559-.214,.827-.324,.053-.021,.103-.043,.155-.065,.228-.094,.45-.19,.667-.286,.058-.026,.117-.051,.175-.077,.247-.111,.487-.222,.719-.334,.052-.025,.102-.05,.154-.075,.192-.093,.379-.187,.561-.28,.054-.028,.109-.055,.162-.082,.21-.109,.412-.216,.607-.323,.051-.028,.099-.055,.149-.082,.156-.087,.308-.172,.454-.256,.048-.028,.098-.056,.145-.083,.072-.042,.141-.083,.211-.125-.003,.16-.004,.328-.008,.484-.039,1.424-.133,2.617-.277,3.549Zm-5.454-30.059c.035-.003,.068-.003,.101,0,.52,.042,1.691,1.103,2.883,4.722l-.017,.02c-.08,.09-.168,.187-.262,.289-.026,.028-.053,.057-.08,.086-.077,.083-.159,.169-.245,.259-.03,.031-.058,.061-.089,.092-.11,.113-.226,.23-.349,.351-.033,.033-.069,.067-.103,.1-.099,.097-.203,.196-.31,.297-.042,.039-.083,.078-.126,.118-.139,.129-.284,.261-.435,.395-.037,.032-.076,.066-.113,.098-.124,.109-.253,.219-.385,.33-.052,.044-.105,.088-.159,.133-.168,.139-.34,.278-.52,.419-.034,.026-.07,.053-.104,.079-.154,.119-.313,.239-.476,.358-.061,.045-.122,.089-.184,.134-.192,.138-.388,.276-.59,.412l-.067,.044c-.197,.132-.4,.262-.607,.39-.067,.042-.134,.083-.202,.124-.197,.12-.398,.238-.604,.354-.035,.02-.068,.04-.103,.059-.234,.13-.475,.256-.719,.38-.07,.036-.142,.071-.213,.106-.209,.103-.423,.203-.639,.3-.051,.023-.101,.047-.152,.069-.259,.113-.524,.221-.793,.325-.071,.027-.143,.053-.215,.08-.147,.054-.297,.104-.447,.155,2.646-7.933,5.179-10.986,6.323-11.08Zm5.714,22.85l-.041,.028-.067,.045c-.267,.179-.59,.387-.963,.613l-.112,.068c-.186,.111-.383,.227-.592,.345-.034,.019-.07,.039-.104,.058-.2,.112-.41,.227-.63,.343-.031,.016-.061,.033-.092,.049-.237,.124-.487,.25-.746,.376-.055,.027-.11,.053-.166,.08-.268,.129-.545,.258-.835,.387l-.065,.028c-.278,.122-.567,.243-.863,.363-.054,.022-.108,.044-.163,.066-.311,.123-.633,.245-.964,.363-.057,.021-.116,.04-.174,.061-.339,.118-.685,.234-1.043,.344l-.024,.008c-.363,.111-.737,.216-1.119,.316-.068,.018-.135,.035-.203,.053-.381,.097-.77,.189-1.168,.272-.045,.009-.09,.018-.135,.027-.382,.078-.772,.149-1.169,.212-.05,.008-.098,.017-.148,.025-.415,.064-.839,.117-1.269,.162-.079,.008-.159,.016-.239,.023-.441,.042-.887,.077-1.342,.097h-.045c-.387,.018-.784,.019-1.181,.018,.081-1.216,.264-2.692,.537-4.313,.374-.073,.741-.148,1.101-.227,.074-.016,.144-.034,.218-.051,.358-.08,.71-.164,1.054-.25,.143-.036,.282-.073,.422-.109,.275-.072,.546-.145,.813-.22,.14-.039,.279-.079,.416-.119,.285-.084,.563-.169,.838-.256,.1-.032,.202-.062,.3-.094,.363-.118,.716-.239,1.06-.362,.093-.033,.182-.068,.274-.101,.255-.093,.506-.188,.751-.284,.118-.046,.234-.093,.349-.139,.218-.088,.432-.177,.642-.266,.108-.046,.216-.092,.322-.138,.246-.108,.486-.216,.72-.325,.056-.026,.115-.052,.17-.078,.284-.134,.558-.269,.825-.405,.084-.043,.164-.085,.246-.128,.185-.096,.367-.192,.544-.288,.092-.05,.182-.099,.271-.149,.168-.094,.332-.187,.492-.28,.076-.044,.154-.089,.229-.133,.224-.133,.443-.266,.651-.397l.05-.032c.196-.124,.385-.247,.567-.369,.066-.044,.129-.088,.193-.131,.13-.088,.256-.176,.379-.263,.064-.046,.128-.091,.19-.136,.123-.089,.242-.176,.357-.263,.048-.036,.097-.072,.144-.108,.055-.042,.108-.083,.161-.125,.193,1.937,.32,3.865,.377,5.708Zm-12.138-8.922c.212-.06,.422-.123,.629-.19,.097-.031,.193-.062,.289-.094,.236-.079,.468-.162,.697-.248,.054-.02,.109-.039,.162-.059,.278-.107,.551-.219,.819-.336,.078-.034,.154-.069,.231-.104,.194-.087,.386-.175,.574-.266,.088-.043,.176-.085,.263-.129,.187-.093,.372-.188,.553-.285,.069-.037,.14-.073,.208-.11,.243-.132,.481-.267,.714-.404,.05-.03,.099-.06,.149-.09,.185-.111,.367-.223,.545-.336,.076-.048,.15-.097,.225-.145,.155-.101,.307-.202,.456-.304,.068-.047,.137-.093,.204-.14,.196-.136,.388-.273,.574-.41l.038-.027c.197-.146,.388-.292,.574-.439,.061-.048,.12-.096,.18-.143,.127-.102,.252-.203,.374-.304,.061-.051,.122-.101,.182-.152,.129-.109,.254-.216,.376-.323,.041-.036,.083-.072,.124-.107,.156-.138,.305-.274,.45-.407,.05-.046,.097-.091,.145-.136,.096-.09,.189-.179,.28-.266,.056-.054,.111-.108,.165-.161,.023-.023,.049-.047,.072-.07,.442,1.847,.826,3.939,1.133,6.19l-.011,.01c-.096,.089-.2,.185-.318,.288l-.027,.024c-.112,.098-.234,.202-.365,.311l-.063,.053c-.141,.116-.292,.237-.455,.363l-.074,.057c-.159,.122-.328,.249-.508,.379l-.043,.031c-.189,.136-.392,.276-.603,.418-.039,.026-.079,.053-.118,.079-.435,.289-.917,.589-1.447,.893-.05,.029-.1,.058-.151,.087-.265,.15-.541,.301-.83,.452-.037,.019-.076,.039-.114,.058-.268,.139-.547,.277-.835,.415-.053,.025-.104,.051-.158,.076-.314,.148-.64,.295-.977,.441-.067,.029-.137,.058-.205,.087-.324,.138-.658,.274-1.004,.407-.034,.013-.066,.026-.1,.039-.367,.141-.751,.278-1.143,.413-.089,.031-.179,.061-.27,.091-.4,.134-.809,.266-1.234,.392-.037,.011-.077,.021-.114,.032-.396,.116-.806,.228-1.225,.336-.102,.026-.204,.053-.307,.079-.367,.092-.747,.178-1.13,.263,.436-2.075,.98-4.231,1.596-6.36,.187-.045,.374-.09,.558-.14,.097-.026,.193-.054,.29-.082Z" fill="#390075"/><path d="M146.23,78.584s-2.732-21.796-11.467-22.391c-8.735-.595-17.468,29.072-17.495,36.346,0,0,13.305,1.811,28.962-13.955Z" fill="#fff"/><path d="M146.778,78.515c.649-1.568,.61-3.056,.415-4.512-.18-1.461-.576-2.882-1.021-4.288-.45-1.404-.868-2.821-1.376-4.222-.508-1.401-1.086-2.789-1.794-4.147-.711-1.355-1.543-2.689-2.651-3.909-1.096-1.204-2.599-2.312-4.446-2.747l-.698-.105c-.117-.015-.231-.033-.351-.045l-.385-.007c-.258-.01-.507,.031-.76,.052-.242,.048-.496,.082-.725,.154-.942,.261-1.749,.705-2.446,1.201-1.387,1.008-2.42,2.208-3.343,3.433-1.825,2.467-3.19,5.098-4.424,7.765-1.221,2.672-2.273,5.397-3.214,8.154-.939,2.758-1.768,5.549-2.473,8.383-.177,.708-.343,1.421-.503,2.136-.156,.716-.379,1.421-.548,2.143-.172,.722-.244,1.469-.195,2.237,.065,.763,.264,1.578,.875,2.347,.243,.305,.687,.356,.992,.113,.025-.02,.049-.042,.07-.064l.042-.045c.629-.665,.962-1.28,1.213-1.938,.234-.654,.394-1.321,.48-2.01,.091-.687,.158-1.387,.309-2.071,.146-.685,.31-1.368,.479-2.051,.679-2.73,1.484-5.442,2.394-8.111,.911-2.669,1.927-5.3,3.09-7.844,1.167-2.532,2.472-5.015,4.065-7.161,.793-1.064,1.676-2.045,2.617-2.723,.469-.334,.946-.576,1.387-.698,.111-.04,.217-.042,.325-.072,.104,0,.21-.03,.311-.019h.153l.181,.03c.122,.019,.243,.036,.366,.049,.956,.234,1.902,.85,2.725,1.758,.823,.905,1.534,2.015,2.15,3.197,.617,1.185,1.146,2.447,1.615,3.741,.467,1.295,.89,2.622,1.186,3.985,.301,1.363,.555,2.735,.949,4.083,.37,1.354,.834,2.69,1.867,3.964l.016,.019c.221,.272,.621,.314,.893,.093,.084-.068,.148-.157,.187-.25Z" fill="#390075"/><g><path d="M138.784,76.201s-.56-10.723-4.327-10.768c-3.766-.045-8.397,14.906-8.617,18.512,0,0,5.711,.517,12.944-7.744Z" fill="#fe6dcb"/><path d="M134.477,63.776c-1.565-.02-4.013,.886-7.199,8.934-1.6,4.04-2.957,8.93-3.092,11.134-.054,.894,.612,1.67,1.504,1.751,.056,.005,.377,.029,.919-.015,2.062-.168,7.325-1.325,13.42-8.287,.284-.325,.43-.747,.408-1.178-.15-2.879-1.025-12.279-5.961-12.338Zm-6.645,18.236c.455-2.044,1.323-4.98,2.386-7.725,2.169-5.6,3.837-7.112,4.25-7.201,.917,.013,2.268,3.882,2.618,8.528-3.945,4.34-7.297,5.865-9.254,6.397Z" fill="#390075"/></g><path d="M192.982,82.346s6.182-21.079,14.9-20.269c8.718,.81,12.595,31.491,11.458,38.676,0,0-13.424-.34-26.358-18.407Z" fill="#fff"/><path d="M193.512,82.502c1.223-1.092,1.895-2.337,2.476-3.614,.605-1.268,1.075-2.582,1.59-3.879,.51-1.299,1.14-2.541,1.808-3.744,.67-1.202,1.394-2.364,2.193-3.435,.798-1.068,1.677-2.05,2.634-2.812,.958-.764,1.991-1.221,2.971-1.299,.123,.006,.246,.009,.369,.01h.183l.151,.024c.102,.005,.201,.052,.304,.068,.102,.046,.206,.066,.309,.123,.416,.191,.849,.506,1.258,.911,.821,.82,1.535,1.929,2.148,3.106,1.229,2.373,2.12,5.032,2.867,7.718,.741,2.697,1.324,5.457,1.796,8.237,.471,2.78,.832,5.586,1.066,8.39,.058,.701,.11,1.401,.145,2.101,.04,.699-.006,1.401-.026,2.094-.025,.693,.026,1.378,.153,2.061,.142,.689,.372,1.35,.887,2.107l.032,.047c.219,.322,.658,.406,.981,.187,.027-.018,.055-.041,.078-.062,.727-.661,1.053-1.433,1.24-2.177,.171-.75,.22-1.5,.165-2.239-.051-.74-.158-1.471-.198-2.203-.044-.732-.093-1.461-.155-2.189-.243-2.91-.615-5.797-1.101-8.67-.488-2.872-1.09-5.73-1.869-8.563-.791-2.83-1.718-5.646-3.125-8.373-.715-1.357-1.543-2.707-2.751-3.924-.609-.601-1.335-1.168-2.223-1.576-.215-.108-.46-.182-.691-.268-.247-.061-.486-.141-.742-.173l-.381-.054c-.12-.008-.236-.009-.354-.012l-.706-.008c-1.893,.134-3.554,.987-4.828,2.001-1.288,1.026-2.324,2.211-3.242,3.435-.915,1.228-1.709,2.506-2.434,3.807-.726,1.302-1.365,2.634-2.033,3.948-.664,1.316-1.282,2.656-1.693,4.069-.425,1.406-.702,2.869-.312,4.52,.081,.341,.423,.553,.764,.472,.106-.025,.199-.075,.275-.142l.021-.019Z" fill="#390075"/><g><path d="M200.359,81.43s2.676-10.661,6.742-10.165c4.066,.496,6.167,16.137,5.707,19.781,0,0-6.253-.302-12.449-9.615Z" fill="#fe6dcb"/><path d="M210.108,71.408c-.826-1.06-1.77-1.661-2.807-1.788-5.256-.636-8.043,9.39-8.549,11.407-.114,.453-.031,.932,.227,1.321,6.583,9.896,13.458,10.338,13.748,10.353,.073,.004,.145,.002,.216-.004,.77-.063,1.408-.658,1.507-1.444,.437-3.462-1.063-15.636-4.343-19.845Zm1.088,17.534c-1.991-.746-5.482-2.709-9.042-7.818,1.122-4.011,3.19-8.102,4.602-8.217,.049-.004,.097-.003,.144,.003,.328,.047,1.822,1.451,3.141,7.458,.669,3.046,1.068,6.375,1.155,8.574Z" fill="#390075"/></g><path d="M211.013,116.492c2.22-.81,4.417-1.485,6.639-2.049,2.217-.564,4.442-1.047,6.694-1.362,2.248-.317,4.511-.58,6.798-.653,1.145-.086,2.292-.074,3.452-.098,.584-.044,1.159,.009,1.744,.006,.584,.005,1.172,.006,1.77-.018-.555-.202-1.119-.378-1.686-.55-.568-.167-1.139-.344-1.721-.45-1.164-.211-2.336-.458-3.525-.519-2.374-.233-4.776-.104-7.139,.234-2.366,.335-4.684,.986-6.895,1.869-2.199,.902-4.333,2.027-6.13,3.589Z" fill="#390075"/><path d="M211.149,122.451c2.355-.196,4.652-.269,6.945-.228,2.287,.039,4.561,.161,6.816,.449,2.252,.287,4.504,.628,6.73,1.161,1.127,.219,2.231,.533,3.356,.815,.575,.111,1.115,.314,1.68,.465,.562,.159,1.129,.315,1.712,.448-.482-.341-.98-.659-1.482-.974-.504-.311-1.008-.632-1.542-.887-1.067-.51-2.133-1.057-3.264-1.429-2.228-.85-4.58-1.359-6.949-1.655-2.371-.3-4.778-.283-7.144-.014-2.359,.29-4.714,.814-6.859,1.848Z" fill="#390075"/><path d="M209.829,129.979c2.34,.329,4.597,.766,6.823,1.313,2.222,.544,4.412,1.165,6.548,1.945,2.133,.777,4.254,1.609,6.307,2.62,1.051,.463,2.058,1.013,3.093,1.536,.536,.235,1.018,.553,1.536,.825,.513,.279,1.032,.557,1.571,.816-.395-.439-.81-.859-1.23-1.278-.423-.415-.844-.839-1.308-1.206-.928-.733-1.847-1.503-2.867-2.115-1.985-1.322-4.167-2.338-6.411-3.15-2.246-.817-4.597-1.332-6.964-1.593-2.365-.238-4.777-.249-7.097,.286Z" fill="#390075"/><path d="M136.173,117.109c-1.681-1.686-3.73-2.96-5.86-4.015-2.143-1.038-4.409-1.851-6.745-2.353-2.333-.505-4.72-.804-7.104-.74-1.19-.024-2.377,.14-3.553,.267-.588,.064-1.17,.2-1.749,.326-.578,.131-1.153,.266-1.721,.429,.594,.067,1.181,.108,1.764,.144,.584,.045,1.161,.032,1.74,.117,1.155,.106,2.3,.176,3.436,.343,2.277,.235,4.515,.658,6.735,1.134,2.223,.475,4.409,1.113,6.58,1.834,2.177,.72,4.32,1.55,6.477,2.515Z" fill="#390075"/><path d="M135.614,123.043c-2.066-1.184-4.378-1.873-6.71-2.33-2.341-.436-4.741-.625-7.127-.493-2.383,.128-4.765,.468-7.048,1.158-1.155,.29-2.257,.761-3.357,1.194-.551,.217-1.076,.501-1.601,.776-.524,.279-1.043,.561-1.547,.867,.591-.092,1.167-.207,1.739-.326,.575-.111,1.128-.275,1.709-.345,1.142-.202,2.265-.436,3.405-.575,2.258-.373,4.529-.555,6.796-.681,2.27-.128,4.546-.087,6.831,.036,2.289,.121,4.576,.357,6.911,.72Z" fill="#390075"/><path d="M136.397,130.647c-2.276-.698-4.683-.859-7.059-.789-2.38,.092-4.761,.439-7.06,1.094-2.296,.651-4.544,1.51-6.618,2.687-1.062,.538-2.033,1.241-3.01,1.906-.489,.333-.939,.726-1.39,1.11-.449,.388-.893,.778-1.318,1.187,.556-.22,1.093-.46,1.625-.702,.536-.235,1.039-.518,1.59-.714,1.07-.449,2.113-.926,3.194-1.313,2.12-.863,4.294-1.542,6.477-2.166,2.185-.627,4.415-1.09,6.67-1.475,2.26-.388,4.541-.663,6.899-.826Z" fill="#390075"/><g><g opacity=".2"><path d="M163.194,130.11c2.566,3.614,5.447,4.861,8.134,4.924,5.313,.13,9.884-4.352,9.884-4.352,3.404,3.777,6.51,5.314,9.164,5.652,4.4,.559,7.572-2.173,8.832-3.512-10.722,.983-15.383-4.952-15.383-4.952l-4.782-.37c-5.264,6.819-15.536,2.734-15.849,2.61Z" fill="#390075"/></g><path d="M171.328,135.033c.572,2.427,1.579,5.218,2.934,7.507,1.504,2.557,3.434,4.507,5.671,4.68,2.254,.174,4.482-1.466,6.371-3.781,1.706-2.094,3.142-4.741,4.072-7.106-2.654-.337-5.76-1.874-9.164-5.652,0,0-4.571,4.482-9.884,4.352Z" fill="#390075"/><g><path d="M174.262,142.541c1.504,2.557,3.434,4.507,5.671,4.68,2.254,.174,4.482-1.466,6.371-3.781-.693-2.412-2.924-4.273-5.707-4.488-2.791-.216-5.295,1.296-6.336,3.59Z" fill="#fb64c0"/><path d="M179.918,147.414c-2.067-.16-4.081-1.811-5.823-4.775l-.051-.087,.041-.092c1.103-2.431,3.726-3.917,6.527-3.703,2.782,.215,5.145,2.075,5.878,4.628l.028,.098-.064,.079c-1.82,2.23-3.689,3.527-5.469,3.807-.36,.057-.717,.072-1.068,.045Zm.665-8.27c-2.604-.203-5.043,1.156-6.102,3.385,1.173,1.969,3.058,4.311,5.467,4.497,2.437,.189,4.673-1.851,6.141-3.631-.721-2.348-2.921-4.052-5.506-4.252Z" fill="#390075"/></g><g><path d="M186.979,123.437c-.966-1.503-8.755-2.376-10.212-.79-1.457,1.586,2.067,6.047,4.653,6.247,2.586,.2,6.631-3.789,5.559-5.457Z" fill="#390075"/><path d="M181.295,130.517c-2.528-.196-5.216-2.842-6.141-5.191-.798-2.028-.083-3.238,.415-3.779,1.305-1.421,4.259-1.488,6.508-1.295,1.894,.163,5.227,.679,6.272,2.305h0c.383,.597,.858,1.878-.266,3.759-1.123,1.88-3.495,3.799-5.75,4.154-.35,.055-.698,.073-1.038,.046Zm-3.236-6.805c.042,.29,.277,.924,.904,1.709,.913,1.143,2.012,1.807,2.583,1.851,.517,.038,1.582-.397,2.611-1.31,.763-.677,1.18-1.327,1.319-1.68-1.422-.774-6.172-1.15-7.417-.569Zm-.14,.08h0Z" fill="#390075"/><g><path d="M177.56,122.665c-.048,.621,1.811,1.271,4.153,1.452,2.342,.181,4.279-.175,4.327-.796,.048-.621-1.811-1.271-4.153-1.452s-4.279,.175-4.327,.796Z" fill="#fff"/><path d="M181.697,124.328c-2.211-.171-4.414-.803-4.347-1.678h0c.032-.416,.529-.716,1.475-.89,.834-.154,1.928-.19,3.079-.1,1.15,.089,2.224,.292,3.026,.572,.909,.318,1.353,.69,1.321,1.106-.036,.47-.708,.77-1.664,.92-.826,.13-1.864,.149-2.889,.069Zm-2.796-2.154c-.876,.161-1.123,.403-1.132,.509-.024,.319,1.314,1.021,3.96,1.226,2.647,.204,4.077-.284,4.101-.603,.008-.105-.199-.382-1.04-.676-.768-.268-1.805-.464-2.919-.55-1.037-.08-2.023-.057-2.799,.065-.058,.009-.115,.019-.171,.029Z" fill="#390075"/></g></g><path d="M193.185,137.778c3.482-.549,5.96-2.719,7.049-3.86,.024-.022,.046-.045,.069-.068,.445-.471,.692-.802,.719-.838,.492-.666,.351-1.605-.314-2.096-.664-.491-1.6-.352-2.093,.31h0s-.152,.202-.434,.505c-.021,.02-.043,.042-.063,.063-1.014,1.078-3.778,3.532-7.552,3.052-2.685-.341-5.456-2.08-8.239-5.168-.273-.303-.659-.482-1.067-.495-.407-.014-.803,.141-1.096,.428-.039,.039-4.199,4.034-8.798,3.924-2.633-.062-4.97-1.507-6.949-4.293-.011-.016-.023-.031-.034-.046l-.022-.028c-.164-.235-.327-.48-.489-.734-.446-.697-1.371-.902-2.071-.454-.697,.446-.901,1.373-.454,2.071,.204,.318,.408,.624,.614,.916,.022,.031,.044,.061,.068,.089,2.546,3.549,5.663,5.391,9.265,5.476,4.261,.105,7.999-2.348,9.813-3.783,2.963,2.977,6.013,4.681,9.081,5.071,1.066,.135,2.067,.104,2.997-.042Z" fill="#390075"/><path d="M179.817,148.715c-2.511-.195-4.879-2.067-6.845-5.411-1.304-2.202-2.434-5.092-3.102-7.927-.106-.452,.002-.928,.295-1.289,.293-.361,.736-.565,1.201-.554,4.599,.11,8.759-3.885,8.798-3.924,.292-.287,.689-.442,1.096-.428,.409,.012,.794,.191,1.067,.495,2.783,3.089,5.554,4.827,8.239,5.168,.459,.059,.865,.325,1.101,.723,.236,.398,.275,.883,.105,1.313-1.074,2.73-2.643,5.465-4.305,7.505-2.029,2.487-4.175,3.94-6.281,4.272-.458,.072-.915,.092-1.368,.056Zm1.289-15.966c-1.516,1.199-4.378,3.11-7.766,3.643-.029,.005-.059,.009-.089,.014,.598,1.964,1.405,3.858,2.303,5.374,1.429,2.43,3.025,3.831,4.494,3.945,1.491,.115,3.3-1.034,5.094-3.234,1.147-1.408,2.25-3.202,3.137-5.084-2.423-.74-4.825-2.3-7.173-4.659Z" fill="#390075"/></g><g><g><ellipse cx="201.012" cy="112.13" rx="9.49" ry="6.689" transform="translate(86.256 311.654) rotate(-89.249)" fill="#390075"/><path d="M200.885,121.81c-3.793-.05-6.822-4.433-6.752-9.77h0c.034-2.574,.774-4.986,2.084-6.794,1.324-1.827,3.072-2.82,4.923-2.796,3.793,.05,6.822,4.432,6.752,9.77-.066,4.981-2.807,9.059-6.255,9.542-.247,.035-.498,.051-.752,.048Zm-4.36-16.34c-1.264,1.744-1.978,4.079-2.011,6.575h0c-.067,5.127,2.793,9.337,6.376,9.384,3.591,.042,6.553-4.087,6.62-9.214,.067-5.127-2.793-9.337-6.376-9.384-.236-.003-.471,.012-.703,.044-1.461,.205-2.828,1.107-3.906,2.594Z" fill="#390075"/></g><g><ellipse cx="204.925" cy="110.853" rx="3.187" ry="2.021" transform="translate(91.394 314.307) rotate(-89.249)" fill="#fff"/><path d="M204.88,114.231c-1.219-.016-2.191-1.544-2.167-3.406,.012-.887,.243-1.721,.652-2.347,.427-.653,.998-1.009,1.603-1.001,.608,.008,1.167,.378,1.577,1.043,.393,.637,.602,1.477,.591,2.363-.023,1.747-.916,3.177-2.033,3.334-.073,.01-.148,.015-.222,.014Zm-1.195-5.545c-.37,.567-.58,1.328-.59,2.144h0c-.022,1.652,.781,3.007,1.791,3.02,1.014,.02,1.848-1.321,1.87-2.972,.011-.816-.179-1.582-.534-2.159-.338-.549-.785-.855-1.257-.861-.057,0-.114,.003-.17,.011-.41,.057-.799,.342-1.109,.817Z" fill="#390075"/></g></g><g><g><ellipse cx="159.108" cy="110.851" rx="9.49" ry="6.689" transform="translate(37.257 261.701) rotate(-85.935)" fill="#390075"/><path d="M158.422,120.508c-3.784-.27-6.554-4.82-6.176-10.144h0c.183-2.568,1.061-4.933,2.473-6.662,1.428-1.748,3.23-2.638,5.076-2.507,3.784,.269,6.554,4.819,6.176,10.144-.353,4.969-3.325,8.882-6.796,9.165-.249,.02-.5,.022-.753,.004Zm-3.409-16.565c-1.362,1.668-2.21,3.958-2.387,6.448h0c-.363,5.115,2.249,9.483,5.823,9.737,3.582,.25,6.778-3.702,7.142-8.816,.363-5.115-2.249-9.483-5.823-9.736-.236-.017-.471-.016-.705,.004-1.471,.12-2.887,.941-4.05,2.364Z" fill="#390075"/></g><g><ellipse cx="162.766" cy="109.944" rx="3.187" ry="2.021" transform="translate(41.561 264.508) rotate(-85.935)" fill="#fff"/><path d="M162.527,113.313c-1.216-.087-2.098-1.668-1.966-3.526,.063-.885,.342-1.704,.787-2.306,.464-.628,1.055-.95,1.658-.906,.606,.043,1.143,.445,1.514,1.132,.355,.659,.516,1.509,.453,2.394-.124,1.743-1.098,3.119-2.223,3.211-.073,.006-.148,.007-.223,.001Zm-.873-5.605c-.403,.545-.656,1.293-.713,2.106h0c-.117,1.648,.606,3.047,1.613,3.118,1.011,.079,1.921-1.212,2.038-2.859,.058-.814-.087-1.59-.408-2.186-.306-.568-.734-.899-1.205-.932-.057-.004-.114-.004-.17,0-.413,.034-.817,.296-1.154,.752Z" fill="#390075"/></g></g></g></svg>