<?xml version="1.0" encoding="UTF-8"?><svg id="a" xmlns="http://www.w3.org/2000/svg" viewBox="0 0 256 256"><path d="M167.485,169.376c7.399,2.651,14.718,7.737,21.584,12.524,11.502,8.028,21.715,15.228,28.845,8.769,9.939-9.001-6.953-23.709-19.152-32.417-5.991-4.283-10.85-7.113-10.85-7.113l-20.428,18.237Z" fill="#fff"/><g opacity=".2"><path d="M167.485,169.376l20.428-18.237s4.859,2.83,10.85,7.113c.138,5.659-.279,13.74-3.143,19.403,11.201,7.167,23.962,12.265,25.856,3.914,.6,3.242-.162,6.269-2.952,8.792-7.143,6.468-17.385-.77-28.912-8.813l-.543,.352c-6.867-4.787-14.185-9.873-21.584-12.524Z" fill="#390075"/></g><path d="M211.54,194.83c2.695,0,5.208-.868,7.487-2.932,2.668-2.416,3.841-5.355,3.488-8.734-1.517-14.509-32.451-32.688-33.768-33.454-.791-.462-1.805-.193-2.265,.597-.46,.791-.193,1.805,.597,2.265,8.562,4.99,31.026,20.276,32.14,30.937,.241,2.302-.55,4.243-2.417,5.933-6.107,5.532-15.593-1.087-26.575-8.751-7.13-4.976-14.503-10.121-22.184-12.873-.862-.307-1.809,.14-2.118,1.001-.309,.861,.14,1.809,1.001,2.118,7.265,2.603,14.453,7.619,21.405,12.471,8.349,5.826,16.366,11.421,23.208,11.422Z" fill="#390075"/><path d="M18.064,110.628c.36,2.055,.883,4.164,1.582,6.278,3.189,9.693,9.957,19.545,20.642,24.923,3.378,1.699,6.973,2.695,10.597,3.076,1.013,.113,2.03,.176,3.043,.188-.28-2.946-1.544-7.228-6.069-10.501-6.713-4.855-22.73-.226-29.795-23.965Z" fill="#33aef1"/><g opacity=".6"><path d="M18.958,110.181c.36,2.055,.883,4.164,1.582,6.278,3.888,6.701,9.819,15.44,15.218,17.373,8.53,3.051,11.953,2.499,16.021,10.626,1.013,.113,2.03,.176,3.043,.188-.28-2.946-1.544-7.228-6.069-10.501-6.713-4.855-22.73-.226-29.795-23.965Z" fill="#fff"/></g><path d="M18.051,110.595c.008,.008,.008,.021,.013,.033,7.065,23.739,23.082,19.11,29.795,23.965,4.524,3.273,5.788,7.554,6.069,10.501,1.503,.029,3.001-.046,4.478-.222,1.021-.113,2.038-.272,3.039-.477,.188-4.88-.624-12.347-6.521-16.398-9.262-6.362-15.511-2.344-25.028-9.065-4.349-3.072-9.367-11.539-9.421-26.099-.603,.778-1.113,1.687-1.536,2.708-1.582,3.821-1.908,9.212-.887,15.054Z" fill="#fdd800"/><g opacity=".6"><path d="M18.938,95.54c.192,7.508,1.381,20.299,7.048,24.48,8.203,6.052,12.606,6.127,20.089,7.839,6.676,1.528,11.547,7.379,12.33,17.013,1.021-.113,2.038-.272,3.039-.477,.188-4.88-.624-12.347-6.521-16.398-9.262-6.362-15.511-2.344-25.028-9.065-4.349-3.072-9.367-11.539-9.421-26.099-.603,.778-1.113,1.687-1.536,2.708Z" fill="#fff"/></g><path d="M20.474,92.833c.054,14.561,5.073,23.027,9.421,26.099,9.517,6.722,15.766,2.704,25.028,9.065,5.897,4.051,6.709,11.518,6.521,16.398,1.327-.268,2.633-.603,3.909-1.013,1.419-.448,2.796-.979,4.123-1.586,1.105-4.524,2.134-12.455-2.097-18.173-6.249-8.446-28.041-6.977-36.286-14.611-6.048-5.6-7.538-12.677-7.655-18.579-.628,.28-1.205,.649-1.733,1.101-.448,.377-.854,.808-1.23,1.297Z" fill="#b177ea"/><g opacity=".6"><path d="M22.152,91.088c.808,8.366,3.661,18.423,9.437,22.655,14.32,10.493,39.82,1.639,34.212,29.192,1.419-.448,2.796-.979,4.123-1.586,1.105-4.524,2.134-12.455-2.097-18.173-6.249-8.446-28.041-6.977-36.286-14.611-6.048-5.6-7.538-12.677-7.655-18.579-.628,.28-1.205,.649-1.733,1.101Z" fill="#fff"/></g><path d="M23.438,90.434c.117,5.901,1.607,12.979,7.655,18.579,8.245,7.634,30.038,6.165,36.286,14.611,4.231,5.717,3.202,13.648,2.097,18.173,2.892-1.327,5.541-3.013,7.81-4.98,.833-.72,1.616-1.477,2.335-2.268,.402-6.383,.381-19.144-9.978-24.417-13.544-6.897-36.663,4.775-43.816-20.269-.498-.004-1.034,.084-1.628,.276-.201,.067-.41,.142-.624,.234-.046,.017-.092,.042-.138,.063Z" fill="#fe6dcb"/><g opacity=".6"><path d="M25.094,89.243c1.155,4.261,2.792,8.345,5.654,11.652,3.721,4.302,9.145,6.814,14.657,8.228,5.512,1.41,11.217,1.85,16.837,2.746,1.519,.243,3.047,.519,4.487,1.055,4.688,1.737,8.065,6.06,9.743,10.769,1.176,3.302,1.616,6.805,1.766,10.292,.021,.515-.029,1.205-.059,1.938,.833-.72,1.616-1.477,2.335-2.268,.402-6.383,.381-19.144-9.978-24.417-13.544-6.897-36.663,4.775-43.816-20.269-.498-.004-1.034,.084-1.628,.276Z" fill="#fff"/></g><path d="M70.396,108.654c-4.882-2.487-10.861-2.718-16.643-2.941-11.271-.435-21.916-.846-26.332-16.308-.202-.706-.844-1.195-1.578-1.202h-.05c-.886,0-1.815,.207-2.837,.633-.073,.029-.15,.064-.224,.099-1.362,.612-2.563,1.582-3.569,2.883h0c-3.104,4.02-4.128,11.145-2.741,19.061,.006,.036,.014,.072,.023,.107,1.947,10.999,9.031,25.241,23.098,32.321,4.387,2.207,9.218,3.365,14.36,3.441,.207,.004,.416,.006,.624,.006,2.395,0,4.831-.247,7.246-.735,2.899-.58,5.724-1.494,8.393-2.715,4.18-1.919,7.872-4.56,10.679-7.641,.254-.278,.405-.635,.429-1.011,.829-13.154-2.83-21.901-10.878-25.998Zm1.097,29.689c.076-.561,.139-1.143,.188-1.742,.005-.058,.009-.115,.014-.173,.022-.291,.04-.585,.054-.883,.003-.055,.004-.11,.007-.164,.012-.291,.02-.585,.023-.881v-.074c.004-.309,0-.62-.009-.934-.002-.065-.003-.13-.006-.196-.01-.311-.026-.623-.048-.937-.004-.05-.008-.1-.012-.151-.023-.297-.051-.595-.086-.893-.005-.042-.009-.083-.014-.125-.038-.317-.085-.635-.138-.952-.011-.066-.022-.132-.034-.198-.056-.32-.118-.639-.19-.958-.008-.038-.018-.075-.027-.112-.07-.301-.147-.601-.232-.9-.014-.049-.027-.099-.041-.149-.092-.314-.193-.625-.302-.935-.022-.063-.045-.126-.068-.188-.115-.315-.238-.629-.373-.94-.009-.02-.019-.04-.028-.06-.131-.297-.273-.591-.423-.883-.028-.054-.055-.109-.083-.162-.157-.296-.324-.588-.502-.876-.035-.057-.072-.113-.108-.17-.189-.297-.385-.591-.598-.879-3.576-4.833-11.192-6.548-19.257-8.364-6.658-1.499-13.543-3.05-17.197-6.432-.288-.267-.567-.54-.838-.817-.096-.099-.186-.201-.28-.301-.17-.181-.342-.362-.505-.547-.108-.123-.209-.249-.313-.374-.141-.168-.284-.335-.42-.507-.106-.134-.206-.273-.308-.41-.126-.167-.253-.334-.373-.505-.101-.144-.196-.291-.294-.437-.113-.169-.227-.338-.335-.51-.095-.151-.184-.306-.275-.46-.102-.173-.205-.345-.302-.521-.087-.158-.17-.319-.253-.48-.092-.178-.185-.355-.273-.536-.079-.164-.154-.331-.23-.497-.083-.184-.166-.368-.245-.555-.071-.169-.139-.341-.206-.513-.074-.19-.148-.38-.217-.573-.063-.175-.123-.352-.182-.529-.066-.197-.13-.394-.191-.594-.055-.179-.107-.361-.157-.543-.057-.204-.112-.409-.164-.617-.046-.184-.091-.37-.133-.557-.048-.212-.094-.425-.137-.64-.038-.188-.075-.378-.109-.569-.04-.22-.076-.443-.111-.667-.03-.192-.059-.384-.085-.579-.031-.23-.058-.462-.084-.696-.022-.195-.043-.39-.061-.587-.018-.195-.032-.392-.046-.59,5.454,15.792,17.802,16.282,28.751,16.705,5.674,.219,11.034,.426,15.268,2.583,6.646,3.384,9.709,10.868,9.108,22.249-1.84,1.927-4.081,3.654-6.594,5.09,.023-.148,.044-.296,.065-.447,.007-.051,.014-.103,.021-.155Zm-2.465-2.191l-.004,.063c-.024,.318-.054,.632-.087,.94-.004,.033-.007,.067-.011,.1-.033,.297-.071,.588-.111,.874-.006,.042-.011,.084-.017,.125-.04,.278-.083,.55-.128,.815-.007,.044-.015,.088-.022,.131-.045,.26-.092,.512-.141,.757l-.027,.133c-.026,.127-.052,.246-.078,.369-1.801,.797-3.677,1.443-5.601,1.928-.005-.224-.012-.45-.022-.677v-.025c-.015-.314-.036-.631-.06-.951-.003-.044-.006-.088-.01-.132-.025-.306-.056-.615-.092-.924-.006-.055-.013-.11-.019-.166-.037-.308-.08-.617-.129-.926-.008-.054-.018-.107-.026-.161-.052-.316-.109-.633-.175-.95-.008-.037-.016-.075-.024-.112-.07-.331-.146-.662-.231-.992l-.003-.012c-.085-.329-.181-.658-.283-.984-.013-.041-.024-.081-.037-.122-.099-.311-.208-.621-.323-.928-.02-.053-.04-.106-.06-.158-.117-.303-.242-.604-.376-.902-.023-.051-.047-.101-.07-.152-.139-.302-.286-.602-.444-.897-.019-.036-.04-.071-.059-.107-.168-.308-.344-.614-.533-.913l-.004-.006c-.189-.298-.392-.59-.604-.878-.026-.036-.051-.072-.078-.107-.204-.273-.421-.539-.647-.801-.039-.045-.077-.09-.117-.134-.227-.256-.465-.507-.714-.751-.043-.042-.087-.084-.131-.125-.257-.246-.524-.486-.805-.717-.035-.029-.072-.057-.108-.086-.299-.242-.609-.477-.935-.702-4.806-3.301-8.859-3.954-12.778-4.586-3.937-.634-7.655-1.234-12.237-4.468-.126-.089-.252-.183-.379-.282-.052-.04-.104-.086-.156-.128-.075-.061-.151-.121-.226-.186-.058-.05-.117-.105-.176-.158-.07-.062-.139-.122-.209-.187-.062-.058-.124-.121-.186-.182-.066-.065-.133-.127-.199-.195-.062-.063-.125-.131-.187-.197-.066-.07-.133-.138-.199-.211-.062-.068-.124-.141-.186-.212-.066-.075-.132-.149-.198-.227-.063-.075-.126-.155-.189-.232-.065-.079-.129-.157-.194-.239-.064-.082-.128-.168-.192-.253-.063-.083-.126-.164-.188-.249-.064-.088-.128-.18-.191-.27-.062-.088-.124-.174-.186-.264-.062-.092-.124-.188-.186-.282-.062-.094-.125-.187-.186-.284-.062-.098-.124-.2-.185-.301-.06-.098-.121-.195-.18-.295-.062-.104-.123-.213-.184-.32-.059-.103-.118-.204-.176-.309-.06-.109-.119-.222-.179-.334-.058-.109-.116-.216-.173-.327-.059-.114-.116-.232-.174-.348-.057-.115-.114-.228-.17-.345-.057-.119-.113-.242-.169-.364-.055-.119-.111-.237-.165-.359-.056-.125-.11-.255-.165-.383-.053-.124-.107-.247-.159-.374-.054-.13-.106-.265-.159-.398-.051-.13-.103-.258-.153-.391-.052-.136-.102-.275-.152-.413-.049-.135-.099-.269-.147-.407-.049-.141-.097-.286-.145-.429-.047-.14-.095-.28-.141-.423-.047-.147-.093-.298-.139-.448-.044-.144-.089-.288-.132-.435-.045-.154-.089-.311-.132-.467-.042-.149-.084-.297-.124-.449-.043-.16-.083-.323-.124-.485-.039-.153-.078-.306-.115-.462-.04-.165-.078-.334-.116-.503-.036-.159-.072-.317-.107-.478-.037-.171-.071-.345-.107-.518-.033-.164-.066-.327-.098-.494-.034-.177-.065-.357-.097-.537-.03-.168-.06-.336-.088-.507-.03-.184-.059-.372-.088-.559-.026-.171-.053-.342-.077-.515-.027-.192-.052-.387-.077-.581-.023-.175-.045-.35-.066-.527-.023-.198-.045-.399-.066-.601-.019-.179-.038-.358-.055-.539-.02-.204-.037-.411-.054-.619-.015-.185-.031-.369-.045-.556-.015-.21-.029-.423-.042-.637-.012-.188-.023-.376-.033-.566-.011-.218-.02-.438-.029-.659-.008-.192-.015-.385-.021-.58-.005-.186-.009-.375-.013-.564,.14-.178,.285-.346,.433-.503,.016,.165,.036,.329,.055,.493,.029,.258,.061,.515,.096,.769,.027,.199,.056,.398,.087,.595,.04,.255,.084,.507,.13,.759,.035,.19,.069,.381,.107,.569,.052,.257,.11,.511,.168,.764,.041,.176,.079,.353,.123,.526,.069,.274,.144,.543,.22,.811,.042,.148,.08,.298,.124,.444,.112,.371,.232,.738,.358,1.1,.014,.04,.026,.081,.04,.12,.142,.4,.294,.793,.453,1.181,.052,.127,.11,.25,.164,.376,.112,.26,.224,.519,.344,.774,.07,.148,.144,.292,.217,.438,.113,.228,.227,.455,.346,.678,.081,.151,.166,.3,.25,.449,.12,.213,.242,.424,.368,.633,.09,.149,.183,.297,.276,.444,.129,.204,.262,.406,.397,.605,.098,.144,.196,.287,.297,.429,.141,.199,.287,.394,.434,.589,.103,.136,.206,.272,.312,.406,.157,.198,.32,.393,.484,.587,.104,.123,.207,.248,.314,.37,.185,.21,.377,.415,.571,.62,.094,.099,.184,.201,.279,.298,.292,.3,.592,.594,.902,.881,4.184,3.873,11.427,5.504,18.431,7.081,7.23,1.628,14.706,3.311,17.688,7.342,.225,.304,.432,.616,.625,.934,.012,.019,.025,.038,.036,.058,.184,.306,.351,.618,.508,.935,.016,.033,.034,.065,.05,.098,.149,.309,.285,.623,.41,.94,.017,.042,.034,.084,.05,.126,.12,.313,.228,.629,.327,.948,.015,.047,.03,.095,.044,.142,.094,.317,.179,.636,.253,.957,.012,.05,.023,.099,.034,.149,.072,.321,.135,.644,.188,.967,.008,.049,.016,.097,.023,.146,.052,.326,.095,.653,.13,.979,.005,.044,.009,.088,.013,.132,.033,.331,.059,.662,.077,.991,.002,.036,.003,.073,.005,.109,.017,.337,.027,.674,.029,1.007,0,.022,0,.044,0,.066,.002,.696-.024,1.38-.074,2.045Zm-12.422-4.809c.097,.117,.186,.238,.278,.358,.125,.163,.25,.326,.366,.494,.088,.127,.17,.257,.253,.387,.107,.167,.213,.335,.312,.507,.078,.135,.152,.272,.225,.409,.092,.172,.182,.345,.266,.52,.068,.141,.133,.283,.196,.425,.078,.177,.154,.354,.226,.534,.058,.145,.115,.291,.168,.437,.066,.181,.129,.363,.189,.546,.048,.147,.096,.295,.141,.443,.055,.185,.106,.372,.156,.558,.039,.148,.079,.296,.115,.444,.046,.19,.086,.38,.126,.571,.031,.146,.063,.292,.09,.438,.037,.196,.067,.391,.098,.587,.022,.141,.047,.282,.067,.423,.029,.208,.052,.415,.075,.622,.014,.127,.032,.255,.044,.381,.024,.249,.042,.496,.059,.743,.006,.083,.014,.167,.019,.249,.019,.325,.032,.646,.04,.964,.003,.125,.002,.246,.004,.369,0,.065,.001,.129,.001,.193-1.699,.291-3.398,.449-5.081,.479-.022-.117-.044-.233-.069-.352-.017-.081-.037-.164-.056-.246-.032-.139-.065-.278-.101-.419-.023-.089-.047-.178-.072-.267-.038-.138-.078-.277-.121-.417-.028-.092-.057-.184-.087-.277-.046-.141-.095-.283-.146-.426-.033-.092-.065-.183-.1-.276-.057-.15-.119-.301-.181-.452-.036-.086-.069-.171-.107-.257-.077-.177-.161-.355-.248-.533-.029-.06-.055-.12-.085-.181-.119-.238-.246-.477-.382-.716-.03-.052-.063-.104-.094-.156-.109-.186-.22-.371-.34-.557-.055-.085-.114-.169-.171-.254-.103-.153-.207-.305-.318-.458-.068-.093-.14-.186-.21-.279-.109-.143-.221-.286-.338-.429-.078-.095-.159-.19-.24-.285-.12-.14-.244-.278-.372-.417-.087-.094-.174-.188-.264-.281-.136-.14-.278-.279-.422-.417-.091-.088-.181-.176-.276-.263-.163-.15-.336-.298-.509-.445-.085-.072-.166-.146-.254-.217-.266-.217-.542-.432-.833-.642-2.077-1.503-4.866-2.17-7.818-2.878-1.824-.437-3.758-.901-5.711-1.597-.024-.009-.048-.016-.072-.025-.187-.067-.374-.139-.561-.211-.061-.023-.121-.044-.182-.068-.137-.054-.274-.112-.411-.168-.111-.046-.222-.089-.333-.136-.101-.043-.202-.091-.303-.135-.147-.065-.293-.128-.44-.196-.088-.041-.176-.087-.264-.129-.159-.077-.318-.152-.476-.233-.084-.043-.168-.091-.252-.135-.162-.085-.324-.169-.485-.26-.086-.048-.172-.101-.258-.151-.159-.092-.317-.182-.475-.279-.086-.053-.172-.111-.258-.165-.157-.1-.315-.198-.471-.303-.08-.054-.16-.113-.24-.169-.161-.111-.322-.222-.482-.339-.08-.059-.16-.124-.24-.185-.159-.12-.318-.239-.475-.366-.075-.061-.149-.127-.224-.189-.161-.134-.323-.267-.483-.408-.074-.065-.146-.136-.22-.203-.159-.145-.319-.288-.477-.441-.076-.074-.152-.154-.228-.23-.153-.153-.307-.304-.459-.465-.074-.078-.147-.163-.22-.244-.152-.166-.304-.33-.454-.504-.072-.084-.143-.175-.215-.261-.149-.178-.299-.355-.446-.542-.072-.092-.142-.191-.214-.284-.145-.19-.29-.378-.433-.577-.075-.104-.147-.216-.221-.322-.137-.197-.275-.392-.411-.599-.078-.118-.153-.245-.23-.367-.129-.204-.259-.405-.386-.618-.077-.129-.152-.267-.228-.4-.124-.215-.248-.426-.37-.649-.081-.149-.159-.308-.239-.46-.114-.218-.229-.432-.341-.658-.081-.163-.159-.337-.238-.504-.108-.227-.216-.449-.322-.683-.082-.183-.161-.377-.242-.564-.099-.231-.2-.458-.298-.697-.082-.202-.161-.416-.242-.623-.092-.237-.186-.469-.276-.713-.025-.067-.048-.139-.072-.206-.218-.893-.404-1.772-.554-2.629-.006-.036-.014-.071-.022-.106-.68-3.922-.708-7.645-.145-10.723,.039,.327,.08,.65,.124,.969,.004,.028,.007,.057,.011,.085,.086,.616,.184,1.214,.289,1.802,.018,.101,.035,.204,.054,.304,.103,.561,.216,1.108,.335,1.643,.024,.106,.048,.211,.072,.317,.124,.536,.253,1.061,.392,1.571,.019,.07,.039,.137,.058,.206,.139,.502,.285,.992,.437,1.469,.013,.041,.025,.083,.039,.124,.158,.488,.324,.959,.495,1.421,.031,.082,.061,.166,.092,.247,.168,.444,.343,.876,.522,1.295,.033,.077,.067,.153,.1,.23,.185,.424,.374,.837,.569,1.235,.019,.038,.038,.075,.057,.113,.192,.388,.389,.762,.59,1.125,.023,.041,.045,.084,.068,.126,.205,.365,.414,.715,.626,1.054,.039,.062,.077,.124,.116,.185,.21,.329,.422,.645,.637,.949,.037,.053,.075,.104,.112,.156,.223,.31,.449,.609,.677,.892l.035,.042c.225,.278,.453,.541,.682,.793,.031,.034,.061,.069,.092,.102,.226,.246,.454,.477,.682,.698,.043,.041,.085,.082,.128,.123,.227,.214,.453,.417,.68,.607,.036,.03,.073,.059,.109,.089,.238,.194,.475,.379,.711,.546,5.09,3.593,9.293,4.27,13.358,4.926,3.794,.612,7.377,1.189,11.686,4.149,.318,.218,.618,.449,.904,.688,.096,.08,.182,.167,.274,.249,.184,.164,.368,.328,.539,.5,.102,.103,.195,.212,.292,.317,.148,.16,.296,.32,.434,.486Zm-29.906-3.907c.19,.154,.382,.302,.574,.447,.095,.072,.189,.147,.284,.217,.27,.198,.54,.389,.812,.571,.017,.011,.034,.024,.051,.035,.288,.192,.577,.374,.867,.55,.1,.06,.199,.116,.299,.174,.192,.113,.384,.224,.577,.33,.117,.064,.234,.125,.351,.187,.177,.093,.354,.185,.531,.274,.122,.061,.243,.12,.365,.178,.175,.084,.35,.165,.525,.244,.12,.054,.239,.108,.359,.16,.182,.079,.363,.155,.544,.229,.111,.046,.222,.093,.333,.137,.208,.083,.416,.161,.623,.238,.082,.03,.165,.063,.247,.093,.286,.103,.571,.202,.854,.296,.087,.029,.174,.055,.261,.084,.201,.065,.402,.13,.602,.191,.113,.035,.225,.067,.337,.101,.173,.051,.346,.102,.518,.151,.118,.034,.236,.066,.354,.099,.166,.046,.332,.091,.496,.135,.116,.031,.231,.061,.346,.091,.168,.044,.334,.086,.501,.128,.109,.027,.217,.055,.325,.082,.182,.045,.362,.089,.541,.133,.087,.021,.175,.043,.262,.064,.257,.062,.512,.123,.764,.184,2.803,.671,5.223,1.251,6.87,2.442,.237,.171,.462,.346,.68,.524,.068,.055,.132,.112,.198,.167,.147,.124,.292,.249,.43,.376,.071,.065,.139,.129,.208,.195,.129,.123,.255,.247,.376,.372,.062,.064,.124,.127,.184,.191,.131,.14,.257,.281,.378,.423,.041,.047,.084,.095,.124,.142,.159,.191,.311,.383,.455,.576,.023,.031,.043,.062,.066,.093,.118,.162,.231,.324,.339,.487,.042,.063,.081,.127,.121,.19,.084,.132,.165,.265,.243,.398,.04,.069,.08,.138,.118,.207,.073,.131,.143,.263,.211,.394,.033,.064,.067,.129,.099,.193,.077,.157,.15,.314,.219,.47,.016,.036,.034,.072,.049,.108,.083,.192,.159,.384,.231,.574,.019,.051,.036,.101,.054,.152,.05,.139,.099,.278,.143,.416,.022,.067,.042,.133,.062,.199,.037,.123,.073,.245,.106,.366,.018,.067,.036,.133,.053,.199,.024,.093,.045,.185,.067,.276-4.016-.266-7.793-1.278-11.253-3.019-6.261-3.151-11.021-7.857-14.477-13.029,.049,.04,.097,.077,.146,.117Z" fill="#390075"/><path d="M131.065,203.37c36.999-.465,52.354-17.75,57.473-35.336,4.487-15.363,1.155-30.96-2.367-35.755,0,0-26.586,6.389-68.472-5.094-3.383-.924-6.607-1.615-9.678-2.093-34.933-5.412-49.827,16.805-51.122,30.185-1.407,14.551,4.834,48.967,74.166,48.093Z" fill="#fff"/><g opacity=".2"><path d="M58.198,158.146c4.08,15.917,20.264,35.766,73.13,35.098,21.421-.271,35.584-6.18,44.708-14.52,4.174-3.815,1.948-10.735-3.662-11.442-2.166-.273-4.349-.618-6.545-1.037-29.224-5.577-51.784-22.45-57.809-41.153,3.072,.478,6.295,1.169,9.678,2.093,41.886,11.483,68.472,5.094,68.472,5.094,2.006,2.731,3.948,8.969,4.421,16.669,.325-2.848,.424-5.628,.347-8.262,4.386,19.768-.455,61.775-58.416,62.508-64.863,.816-74.505-29.251-74.326-45.049Z" fill="#390075"/></g><path d="M65.437,185.386c-10.709-11.646-10.691-25.048-10.187-30.27,.703-7.269,5.195-17.615,15.694-24.851,8.341-5.748,23.298-11.226,47.194-4.675,40.92,11.218,67.385,5.139,67.648,5.077h0c.648-.154,1.327,.094,1.721,.631,4.588,6.249,8.426,27.374-.597,45.474-6.305,12.648-21.107,27.817-55.823,28.255-.878,.011-1.748,.016-2.612,.016-29.838,0-51.039-6.609-63.038-19.657Zm51.826-56.601c-22.667-6.214-36.676-1.141-44.438,4.208-9.574,6.598-13.674,16.213-14.276,22.442-.462,4.779-.478,17.046,9.327,27.708,11.682,12.704,32.917,18.961,63.17,18.571,26.156-.33,44.448-9.466,52.899-26.419,7.917-15.881,5.239-34.646,1.461-41.16-5.605,1.098-30.68,4.922-68.143-5.349Zm68.905,3.493h0Z" fill="#390075"/><path d="M150.5,185.621c.379,.133,.754,.278,1.13,.427h.005c19.387,7.59,38.127,30.977,49.294,20.866,2.79-2.524,3.552-5.551,2.952-8.792v-.005c-2.587-13.992-30.485-32.08-30.485-32.08l-22.896,19.585Z" fill="#fff"/><g opacity=".2"><path d="M151.635,186.047c19.387,7.591,38.127,30.978,49.294,20.866,2.79-2.524,3.552-5.551,2.952-8.792-2.169,9.566-18.601,1.484-30.611-7.141-11.82-8.49-21.333-5.048-21.635-4.932Z" fill="#451661"/></g><path d="M173.096,166.5c1.458,1.991,3.22,3.502,5.029,4.95,1.793,1.468,3.662,2.83,5.499,4.236,1.841,1.401,3.59,2.913,5.298,4.46,1.707,1.549,3.359,3.149,4.929,4.813,1.565,1.666,3.052,3.396,4.374,5.215,1.325,1.813,2.482,3.728,3.275,5.713,.786,1.977,1.161,4.048,.733,5.886-.215,.916-.617,1.774-1.189,2.554-.133,.2-.293,.386-.458,.57-.153,.191-.331,.366-.514,.54l-.269,.262-.291,.228-.577,.462c-1.608,1.086-3.509,1.555-5.555,1.288-2.036-.225-4.123-.963-6.135-1.927-4.041-1.94-7.878-4.578-11.71-7.218-3.832-2.656-7.663-5.392-11.676-7.925l-1.512-.941-1.534-.915c-1.036-.592-2.034-1.254-3.088-1.833-1.042-.595-2.155-1.08-3.316-1.44-1.164-.351-2.402-.54-3.722-.375-.339,.042-.579,.351-.536,.69,.015,.122,.065,.232,.139,.319l.025,.03c.429,.514,.89,.902,1.354,1.27,.465,.365,.936,.709,1.424,1.002,.491,.285,.976,.592,1.477,.858,.249,.137,.503,.261,.757,.389,.25,.137,.505,.264,.761,.389,1.029,.487,2.06,.992,3.055,1.564l1.483,.88,1.468,.914c3.905,2.465,7.696,5.17,11.556,7.847,3.87,2.661,7.771,5.366,12.178,7.489,2.202,1.047,4.58,1.932,7.205,2.228,.645,.105,1.329,.069,1.998,.081,.337-.014,.679-.068,1.018-.103l.509-.062c.169-.03,.336-.079,.504-.119,.335-.085,.672-.169,1.004-.263l.963-.394c.158-.07,.324-.127,.475-.21l.446-.26c.294-.177,.598-.346,.881-.535l.797-.63,.396-.318,.361-.348c.241-.231,.478-.467,.695-.731,.225-.253,.444-.512,.64-.797,.813-1.104,1.43-2.404,1.744-3.768,.321-1.366,.323-2.766,.141-4.085-.184-1.323-.555-2.577-1.023-3.76-.947-2.364-2.246-4.479-3.677-6.443-1.431-1.968-3.004-3.793-4.642-5.538-1.643-1.74-3.355-3.398-5.114-4.995-1.759-1.597-3.573-3.123-5.37-4.666-1.799-1.541-3.638-3.038-5.613-4.346-.984-.659-1.98-1.299-3.053-1.828-1.072-.531-2.178-1.003-3.416-1.279-.317-.071-.632,.129-.703,.447-.038,.172,.003,.342,.098,.474l.004,.006Z" fill="#390075"/><path d="M41.437,192.943c6.784,3.919,14.851-3.363,18.688-6.455,3.837-3.091,12.488,3.233,23.355-7.016,4.205-3.967,6.238-8.851,7.109-13.506,1.585-8.481-.685-16.199-.685-16.199l-21.906-11.57c-24.09,8.998-32.156,30.862-31.185,44.28,.365,5.096,2.036,8.972,4.624,10.465Z" fill="#fff"/><g opacity=".2"><path d="M41.437,192.943c6.784,3.919,14.851-3.363,18.688-6.455,3.837-3.091,12.488,3.233,23.355-7.016,4.205-3.967,6.238-8.851,7.109-13.506v-.01s1.911-7.914-.911-14.492c0,0-6.366,27.271-30.51,21.767,0,0-11.617,17.094-22.355,9.247,.365,5.096,2.036,8.972,4.624,10.465Z" fill="#390075"/></g><path d="M90.477,162.646c-1.079,2.678-1.851,5.206-2.884,7.625-1.055,2.395-2.327,4.671-4.023,6.647-.41,.507-.876,.958-1.336,1.426-.483,.456-.976,.9-1.489,1.314-1.025,.829-2.106,1.571-3.241,2.191-2.271,1.244-4.748,1.964-7.35,2.115-1.302,.092-2.632,.047-4.029-.017-.7-.03-1.415-.069-2.177-.071-.761,.002-1.569,.029-2.452,.216-.22,.046-.449,.117-.672,.179-.228,.086-.457,.167-.683,.274-.223,.123-.455,.22-.663,.377l-.316,.224c-.058,.041-.1,.074-.129,.099l-.104,.085-1.632,1.33c-1.075,.87-2.153,1.699-3.261,2.459-2.203,1.507-4.573,2.778-6.955,3.182-1.183,.188-2.344,.154-3.414-.183-.53-.148-1.07-.418-1.519-.686-.414-.26-.804-.62-1.156-1.05-.71-.86-1.24-1.995-1.637-3.188-.385-1.205-.648-2.484-.791-3.792-.296-2.617-.191-5.321,.19-7.984,.767-5.337,2.623-10.539,5.307-15.244,2.691-4.706,6.234-8.921,10.42-12.37,1.052-.856,2.13-1.68,3.25-2.446,1.125-.76,2.306-1.434,3.508-2.062,1.196-.638,2.372-1.311,3.552-2.005,1.163-.734,2.322-1.49,3.401-2.572l.012-.012c.234-.235,.233-.615-.002-.848-.11-.11-.253-.168-.397-.174-1.541-.069-2.995,.215-4.371,.688-1.374,.479-2.695,1.101-3.942,1.85-2.467,1.542-4.868,3.186-7.121,5.028-4.491,3.7-8.299,8.229-11.187,13.282-2.881,5.055-4.875,10.625-5.71,16.42-.412,2.897-.535,5.855-.202,8.827,.163,1.485,.462,2.974,.933,4.445,.491,1.464,1.144,2.935,2.22,4.255,.536,.656,1.183,1.271,1.959,1.759,.753,.453,1.487,.805,2.309,1.047,1.619,.509,3.341,.543,4.927,.284,1.589-.271,3.064-.805,4.434-1.458,1.369-.657,2.643-1.431,3.854-2.26,1.209-.83,2.36-1.717,3.469-2.615l1.636-1.333,.1-.081c.037-.032,.065-.053,.08-.06l.115-.079c.068-.064,.171-.09,.251-.144,.091-.044,.197-.076,.295-.119,.117-.027,.223-.065,.347-.091,.999-.214,2.377-.134,3.775-.072,1.408,.064,2.894,.119,4.396,.013,3.012-.168,6.065-1.047,8.718-2.512,1.333-.727,2.574-1.586,3.737-2.518,.287-.237,.584-.464,.861-.711l.832-.737c.544-.514,1.1-1.031,1.603-1.594,1.024-1.108,1.972-2.303,2.755-3.599,.784-1.295,1.432-2.667,1.923-4.085,1.002-2.824,1.389-5.855,.775-8.775-.065-.311-.371-.511-.682-.445-.194,.041-.345,.175-.415,.345l-.003,.008Z" fill="#390075"/><path d="M107.108,103.96c-4.966,25.04,19.012,45.568,52.301,52.169,33.29,6.601,63.286-3.223,68.251-28.263,4.966-25.04-16.98-55.814-50.269-62.415-33.29-6.601-65.317,13.469-70.283,38.509Z" fill="#fff"/><g opacity=".2"><path d="M158.849,155.926c33.287,6.599,63.285-3.225,68.249-28.267,.034-.157,.062-.313,.09-.474-9.287,18.975-36.122,25.962-65.529,20.133-33.239-6.594-57.194-27.066-52.328-52.054-1.27,2.741-2.212,5.579-2.788,8.489-4.965,25.042,19.012,45.569,52.305,52.172Z" fill="#390075"/></g><path d="M159.087,157.755c-16.901-3.352-31.575-10.311-41.317-19.596-10.527-10.033-14.776-21.97-12.287-34.521,2.522-12.716,11.751-24.465,25.322-32.236,14.119-8.084,30.777-10.774,46.908-7.576,16.13,3.198,30.501,12.043,40.467,24.903,9.579,12.361,13.626,26.743,11.105,39.459-2.489,12.55-10.971,21.963-24.53,27.219-7.487,2.903-16.278,4.37-25.743,4.37-6.4,0-13.108-.672-19.925-2.023Zm-26.636-83.477c-12.738,7.294-21.383,18.23-23.718,30.005-4.506,22.722,16.466,43.374,50.998,50.222,6.831,1.355,13.375,2.007,19.517,2.007,24.909,0,43.172-10.741,46.787-28.968,4.572-23.054-15.398-53.812-48.967-60.468-4.219-.837-8.473-1.25-12.707-1.25-11.166,0-22.176,2.877-31.911,8.451Z" fill="#390075"/><path d="M169.46,82.831c.936,.392,2.026,.709,3.287,.915,6.401,1.045,9.425-1.943,10.189-4.339-1.959,1.03-7.228,3.457-13.476,3.424Z" fill="#fe6dcb"/><path d="M166.935,81.331c.523,.439,1.143,.845,1.871,1.205,.209,.105,.427,.205,.653,.293,6.249,.033,11.518-2.394,13.477-3.424,.042-.109,.067-.222,.096-.331,.414-1.716,.716-4.185,.875-7.002,0,0-6.713,4.65-16.126,4.403-1.071-.029-2.176-.117-3.311-.289-.084,1.498,.54,3.528,2.465,5.144Z" fill="#33aef1"/><g opacity=".6"><path d="M166.935,81.331c.234-1.674,.523-3.294,.845-4.855-1.071-.029-2.176-.117-3.311-.289-.084,1.498,.54,3.528,2.465,5.144Z" fill="#fff"/></g><path d="M164.469,76.188c1.134,.172,2.239,.259,3.311,.289,9.413,.247,16.126-4.403,16.126-4.403,.163-2.846,.176-6.056,.021-9.208,0,0-4.273,4.457-14.201,6.198-1.235,.218-2.557,.393-3.968,.511-.678,2.54-1.134,4.809-1.281,6.47-.004,.046-.008,.096-.008,.142Z" fill="#fdd800"/><g opacity=".6"><path d="M164.469,76.188c1.134,.172,2.239,.259,3.311,.289,.548-2.633,1.21-5.102,1.946-7.412-1.235,.218-2.557,.393-3.968,.511-.678,2.54-1.134,4.809-1.281,6.47-.004,.046-.008,.096-.008,.142Z" fill="#fff"/></g><path d="M165.758,69.575c1.41-.117,2.733-.293,3.968-.511,9.928-1.741,14.201-6.198,14.201-6.198-.167-3.407-.544-6.751-1.168-9.513,0,0-3.532,4.056-9.191,6.123-1.482,.544-3.105,.95-4.855,1.109-1.184,3.043-2.21,6.186-2.955,8.99Z" fill="#b177ea"/><g opacity=".6"><path d="M165.758,69.575c1.41-.117,2.733-.293,3.968-.511,1.143-3.591,2.474-6.789,3.842-9.589-1.482,.544-3.105,.95-4.855,1.109-1.184,3.043-2.21,6.186-2.955,8.99Z" fill="#fff"/></g><path d="M168.713,60.343c1.749-.159,3.373-.565,4.855-1.109,5.659-2.068,9.191-6.123,9.191-6.123-.506-2.273-1.176-4.148-2.038-5.34-.557-.774-1.197-1.264-1.921-1.381-3.206-.523-7.148,6.395-10.087,13.954Z" fill="#fe6dcb"/><g opacity=".6"><path d="M168.266,60.585c1.749-.159,3.373-.565,4.855-1.109,2.553-5.232,5.248-9.07,7.153-11.463-.557-.774-1.197-1.264-1.921-1.381-3.206-.523-7.148,6.395-10.087,13.954Z" fill="#fff"/></g><path d="M185.58,62.782c-.183-3.722-.599-7.11-1.203-9.793-1.107-4.974-2.843-7.589-5.307-7.992-4.721-.766-9.076,7.726-11.902,14.987-1.19,3.064-2.231,6.232-3.011,9.163-.714,2.676-1.173,5.01-1.329,6.75-.009,.096-.016,.191-.016,.283v.004c-.005,.115-.007,.232-.005,.35,0,.047,.002,.101,.005,.155,.005,.112,.009,.202,.017,.294,.006,.072,.012,.136,.019,.201,.011,.099,.024,.195,.038,.292,.012,.08,.019,.131,.028,.181,.027,.153,.058,.306,.096,.462,.006,.028,.019,.073,.031,.117,.033,.126,.066,.244,.103,.362l.043,.132,.017,.052c.038,.109,.078,.219,.12,.329l.068,.17c.054,.129,.116,.268,.183,.407,.013,.029,.032,.068,.052,.107,.065,.133,.156,.302,.255,.47,.007,.013,.038,.064,.046,.076,.087,.145,.175,.281,.268,.418l.068,.097,.015,.022c.094,.133,.193,.264,.298,.395l.067,.085c.272,.331,.57,.647,.889,.941,.009,.009,.052,.047,.061,.055l.073,.065c.066,.06,.131,.119,.201,.177,.049,.04,.089,.071,.129,.102l.189,.149c.133,.103,.268,.202,.408,.299,.068,.048,.127,.089,.187,.129,.133,.088,.272,.175,.414,.26l.046,.028c.056,.035,.112,.069,.17,.103,.166,.095,.335,.184,.506,.272,.055,.031,.104,.057,.156,.083,.271,.135,.53,.251,.781,.35,1.061,.445,2.292,.789,3.623,1.007,.956,.156,1.861,.229,2.712,.229,5.147,0,8.341-2.663,9.315-5.673,.044-.126,.08-.255,.113-.381l.013-.05c.266-1.101,.483-2.431,.654-3.998,.089-.812,.165-1.686,.226-2.594l.011-.171c.013-.19,.025-.38,.036-.575,.171-2.983,.178-6.228,.019-9.385Zm-4.152,15.879l-.008,.004c-.102,.048-.211,.099-.321,.15-.063,.029-.122,.057-.187,.087-.14,.064-.29,.129-.441,.195-.042,.018-.081,.036-.124,.054-.197,.084-.403,.17-.617,.256-.061,.025-.127,.049-.19,.074-.157,.062-.314,.124-.48,.186-.089,.033-.183,.067-.274,.1-.146,.053-.292,.107-.444,.16-.104,.036-.212,.072-.318,.107-.147,.049-.295,.099-.448,.147-.115,.036-.232,.072-.349,.108-.151,.046-.304,.092-.46,.137-.124,.036-.249,.07-.376,.105-.157,.043-.316,.085-.477,.126-.13,.033-.261,.066-.393,.098-.165,.04-.332,.077-.5,.115-.134,.03-.269,.06-.406,.088-.175,.036-.353,.069-.531,.102-.135,.025-.269,.051-.407,.074-.192,.033-.388,.061-.583,.09-.128,.019-.254,.039-.384,.056-.233,.031-.471,.056-.709,.08-.096,.01-.19,.022-.286,.031-.335,.03-.674,.054-1.018,.071-.055,.003-.111,.002-.167,.005-.145-.053-.291-.105-.429-.163-.195-.077-.365-.153-.557-.249l-.105-.057c-.135-.069-.259-.134-.376-.201l-.152-.092c-.104-.063-.201-.122-.294-.184l-.103-.071c-.121-.085-.214-.152-.303-.221l-.193-.151c-.056-.045-.09-.077-.125-.108l-.064-.057-.044-.04c-.211-.194-.403-.397-.574-.606l-.043-.056c-.066-.082-.127-.163-.184-.244l-.013-.018-.033-.048c-.061-.09-.115-.174-.165-.257l-.03-.048c-.059-.1-.113-.199-.161-.298l-.031-.065c-.029-.061-.066-.142-.1-.224l-.03-.076c-.028-.073-.049-.13-.068-.185,.262,.02,.521,.033,.78,.046,.097,.005,.196,.012,.293,.016,.375,.014,.747,.023,1.114,.023,.031,0,.062-.001,.093-.001,.066,0,.13-.002,.195-.003,.336-.003,.668-.013,.997-.027,.082-.004,.165-.007,.247-.011,.373-.02,.742-.045,1.104-.078,.058-.005,.115-.012,.172-.017,.321-.031,.638-.066,.95-.106,.073-.009,.146-.018,.218-.028,.35-.047,.695-.1,1.033-.157,.056-.009,.11-.02,.165-.03,.297-.052,.588-.108,.875-.167,.068-.014,.136-.027,.203-.042,.322-.069,.638-.141,.947-.217,.054-.013,.107-.027,.161-.041,.268-.067,.53-.137,.788-.209,.063-.018,.127-.035,.19-.053,.29-.083,.574-.168,.851-.256,.054-.017,.106-.035,.16-.052,.235-.076,.464-.152,.688-.23,.06-.021,.121-.042,.181-.063,.255-.09,.503-.182,.744-.274,.054-.021,.106-.041,.159-.062,.199-.078,.393-.155,.582-.233,.056-.023,.113-.046,.168-.069,.218-.091,.428-.182,.631-.272,.053-.024,.103-.047,.155-.07,.163-.074,.32-.146,.473-.218,.051-.024,.102-.048,.151-.071,.075-.036,.148-.072,.22-.107-.016,.16-.03,.327-.047,.482-.155,1.416-.345,2.598-.565,3.515Zm-2.993-30.403c.035,0,.068,.003,.1,.008,.515,.084,1.595,1.237,2.49,4.941l-.019,.018c-.087,.083-.183,.173-.285,.266-.028,.026-.058,.053-.087,.079-.084,.076-.173,.156-.265,.238-.032,.028-.063,.056-.096,.085-.119,.104-.244,.211-.376,.322-.036,.03-.074,.061-.11,.091-.107,.089-.218,.179-.333,.271-.045,.036-.089,.071-.135,.108-.149,.118-.304,.237-.466,.358-.039,.029-.081,.059-.12,.089-.133,.099-.27,.198-.411,.298-.056,.04-.112,.079-.169,.119-.179,.125-.362,.25-.552,.375-.036,.024-.074,.047-.11,.071-.163,.106-.331,.212-.503,.318-.064,.04-.129,.079-.194,.118-.203,.122-.409,.243-.622,.363l-.07,.039c-.207,.115-.42,.228-.637,.34-.07,.036-.14,.072-.211,.107-.206,.103-.416,.205-.63,.304-.036,.017-.071,.034-.108,.051-.244,.111-.494,.217-.747,.32-.073,.03-.147,.059-.221,.088-.217,.086-.438,.168-.662,.247-.053,.019-.104,.038-.157,.057-.267,.092-.54,.178-.817,.259-.073,.021-.147,.041-.221,.062-.151,.042-.305,.08-.458,.119,3.282-7.692,6.054-10.529,7.202-10.529Zm3.838,23.238l-.043,.025-.07,.039c-.281,.157-.619,.338-1.01,.533l-.117,.058c-.194,.096-.4,.195-.618,.296-.035,.016-.073,.033-.109,.05-.208,.096-.427,.193-.656,.291-.032,.014-.063,.028-.096,.042-.246,.104-.506,.21-.774,.314-.057,.022-.114,.044-.172,.066-.278,.107-.564,.213-.864,.318l-.067,.023c-.287,.099-.585,.197-.89,.292-.056,.017-.111,.035-.167,.052-.32,.098-.651,.192-.99,.283-.059,.016-.119,.031-.179,.046-.347,.091-.702,.178-1.067,.259l-.025,.006c-.37,.081-.752,.155-1.141,.224-.069,.012-.137,.024-.207,.036-.388,.066-.783,.126-1.187,.176-.045,.006-.091,.01-.137,.016-.387,.047-.781,.086-1.182,.117-.05,.004-.099,.009-.15,.012-.419,.03-.846,.049-1.278,.059-.08,.002-.16,.003-.24,.004-.443,.006-.89,.005-1.346-.012l-.045-.002c-.387-.015-.783-.046-1.179-.079,.179-1.206,.482-2.662,.885-4.255,.378-.042,.751-.087,1.116-.137,.075-.01,.147-.022,.221-.033,.363-.051,.721-.105,1.071-.163,.145-.024,.287-.05,.43-.075,.28-.049,.556-.1,.828-.154,.142-.028,.284-.056,.424-.085,.291-.06,.575-.123,.856-.187,.102-.023,.206-.046,.307-.07,.371-.088,.733-.18,1.086-.275,.096-.026,.187-.053,.281-.079,.262-.072,.519-.146,.771-.222,.121-.036,.24-.073,.36-.111,.225-.07,.445-.141,.662-.213,.111-.037,.223-.074,.332-.111,.254-.087,.502-.176,.744-.266,.058-.021,.119-.042,.176-.064,.294-.111,.579-.223,.856-.336,.087-.036,.17-.071,.255-.107,.192-.081,.382-.161,.565-.243,.095-.042,.189-.084,.283-.127,.175-.08,.346-.159,.514-.239,.08-.038,.161-.076,.239-.114,.234-.114,.463-.229,.681-.343l.052-.028c.206-.108,.403-.215,.595-.322,.07-.039,.136-.077,.203-.115,.137-.078,.27-.155,.399-.231,.068-.04,.135-.08,.201-.12,.13-.079,.255-.156,.377-.233,.051-.032,.103-.064,.152-.096,.059-.038,.114-.074,.171-.111,.035,1.947,.005,3.878-.088,5.72Zm-11.373-9.879c.216-.043,.43-.089,.642-.138,.099-.023,.198-.046,.296-.07,.241-.06,.479-.124,.715-.191,.055-.016,.112-.03,.166-.046,.286-.084,.567-.174,.844-.268,.081-.027,.159-.056,.239-.085,.2-.071,.399-.143,.594-.218,.092-.035,.183-.071,.273-.107,.194-.078,.386-.157,.575-.239,.072-.031,.145-.061,.217-.093,.253-.112,.501-.227,.745-.345,.053-.026,.103-.052,.156-.078,.193-.095,.384-.192,.57-.291,.08-.042,.158-.084,.236-.127,.162-.088,.322-.176,.479-.266,.072-.041,.144-.081,.215-.123,.206-.12,.408-.241,.605-.363l.04-.024c.209-.13,.41-.26,.608-.39,.065-.043,.128-.085,.191-.128,.135-.091,.268-.182,.397-.272,.065-.046,.13-.091,.194-.136,.137-.098,.271-.195,.401-.291,.044-.032,.089-.065,.132-.097,.166-.125,.327-.248,.481-.369,.053-.042,.104-.083,.156-.124,.103-.082,.203-.163,.301-.243,.061-.05,.119-.098,.178-.147,.025-.021,.052-.043,.077-.064,.291,1.877,.503,3.993,.626,6.262l-.012,.009c-.103,.081-.215,.168-.34,.261l-.029,.021c-.119,.089-.25,.183-.389,.281l-.067,.047c-.15,.104-.311,.213-.483,.325l-.079,.051c-.169,.109-.347,.221-.537,.336l-.045,.028c-.199,.12-.413,.243-.635,.368-.041,.023-.083,.046-.124,.069-.457,.253-.962,.512-1.515,.773-.052,.025-.105,.049-.158,.074-.277,.128-.564,.256-.864,.383-.039,.016-.079,.033-.118,.049-.278,.116-.567,.232-.866,.346-.055,.021-.108,.042-.163,.063-.325,.122-.662,.242-1.01,.36-.069,.023-.141,.047-.211,.07-.335,.111-.678,.219-1.034,.324-.035,.01-.068,.021-.103,.031-.378,.11-.771,.216-1.172,.318-.091,.023-.184,.046-.276,.069-.409,.101-.828,.199-1.262,.29-.038,.008-.078,.015-.116,.023-.404,.084-.822,.162-1.248,.236-.104,.018-.207,.036-.312,.054-.373,.062-.759,.117-1.148,.17,.603-2.033,1.32-4.138,2.108-6.21,.19-.029,.38-.06,.568-.094,.099-.018,.197-.038,.295-.058Z" fill="#390075"/><path d="M151.352,73.987s-.952-21.946-9.609-23.249c-8.658-1.302-19.773,27.556-20.391,34.804,0,0,13.114,2.887,30.001-11.555Z" fill="#fff"/><path d="M151.903,73.963c.775-1.51,.856-2.996,.78-4.464-.061-1.471-.34-2.919-.669-4.357-.334-1.436-.636-2.882-1.028-4.32-.392-1.437-.856-2.868-1.451-4.28-.598-1.408-1.32-2.806-2.325-4.111-.994-1.29-2.402-2.516-4.208-3.099l-.687-.162c-.116-.025-.228-.052-.346-.073l-.383-.039c-.256-.031-.508-.01-.762-.01-.245,.028-.501,.042-.735,.095-.96,.183-1.8,.56-2.536,.998-1.464,.892-2.592,2.004-3.611,3.15-2.02,2.31-3.594,4.822-5.04,7.38-1.434,2.564-2.704,5.194-3.866,7.866-1.16,2.673-2.213,5.386-3.147,8.154-.234,.692-.457,1.388-.675,2.088-.214,.701-.493,1.385-.72,2.092-.23,.705-.363,1.444-.376,2.214,.003,.766,.134,1.594,.682,2.41,.217,.324,.656,.41,.979,.193,.027-.018,.052-.037,.075-.058l.045-.041c.681-.612,1.063-1.198,1.366-1.833,.286-.633,.5-1.285,.642-1.964,.147-.678,.27-1.37,.477-2.039,.202-.671,.42-1.338,.644-2.005,.899-2.666,1.922-5.303,3.045-7.89,1.125-2.586,2.352-5.126,3.717-7.567,1.369-2.429,2.871-4.797,4.633-6.807,.877-.996,1.836-1.902,2.83-2.501,.494-.295,.989-.497,1.439-.583,.114-.031,.22-.025,.33-.045,.104,.009,.212-.013,.312,.007l.152,.013,.178,.044c.12,.029,.24,.055,.361,.079,.933,.311,1.827,1.002,2.574,1.973,.747,.968,1.365,2.133,1.883,3.361,.519,1.231,.944,2.532,1.306,3.86,.36,1.329,.674,2.685,.858,4.069,.189,1.383,.331,2.771,.614,4.147,.258,1.38,.613,2.749,1.538,4.103l.014,.021c.198,.289,.593,.364,.883,.166,.089-.061,.16-.144,.207-.234Z" fill="#390075"/><g><path d="M144.123,71.006s.313-10.733-3.437-11.084c-3.75-.351-9.581,14.174-10.093,17.75,0,0,5.65,.98,13.53-6.666Z" fill="#fe6dcb"/><path d="M140.84,58.272c-1.559-.147-4.072,.557-7.901,8.319-1.923,3.897-3.673,8.661-3.987,10.845-.127,.887,.474,1.714,1.357,1.867,.055,.01,.373,.06,.917,.06,2.069,0,7.409-.726,14.049-7.169,.31-.301,.489-.709,.502-1.141,.084-2.882-.023-12.322-4.938-12.782Zm-8.105,17.636c.62-2.001,1.724-4.856,3.006-7.505,2.617-5.406,4.402-6.777,4.821-6.831,.913,.088,1.945,4.053,1.916,8.712-4.284,4.005-7.749,5.252-9.743,5.624Z" fill="#390075"/></g><path d="M197.643,81.536s7.875-20.507,16.498-18.991c8.623,1.516,9.994,32.41,8.277,39.479,0,0-13.352-1.429-24.775-20.488Z" fill="#fff"/><path d="M198.158,81.734c1.308-.989,2.079-2.175,2.762-3.401,.706-1.214,1.281-2.486,1.9-3.737,.614-1.253,1.343-2.439,2.106-3.585,.765-1.144,1.581-2.243,2.465-3.245,.882-.999,1.838-1.907,2.854-2.588,1.017-.684,2.083-1.055,3.067-1.053,.122,.016,.244,.029,.367,.04l.183,.015,.148,.036c.101,.014,.197,.068,.298,.093,.098,.054,.2,.082,.298,.148,.399,.224,.805,.573,1.179,1.01,.752,.884,1.374,2.048,1.888,3.27,1.032,2.465,1.704,5.188,2.231,7.926,.519,2.748,.876,5.546,1.121,8.356,.243,2.81,.375,5.635,.38,8.449,0,.703-.004,1.406-.026,2.106-.017,.7-.12,1.395-.196,2.085-.081,.689-.086,1.375-.015,2.066,.085,.699,.261,1.376,.713,2.172l.028,.05c.192,.339,.623,.458,.962,.266,.028-.016,.058-.036,.083-.055,.778-.6,1.166-1.343,1.412-2.069,.231-.734,.341-1.477,.346-2.219,.009-.742-.038-1.479-.018-2.212,.016-.733,.026-1.464,.023-2.194-.006-2.92-.142-5.828-.393-8.731-.253-2.902-.621-5.799-1.167-8.686-.559-2.885-1.253-5.767-2.434-8.599-.602-1.411-1.318-2.823-2.423-4.134-.558-.649-1.235-1.273-2.087-1.752-.206-.125-.444-.219-.667-.324-.241-.081-.473-.18-.726-.233l-.375-.085c-.119-.018-.234-.028-.352-.041l-.703-.065c-1.897-.021-3.622,.695-4.975,1.602-1.368,.918-2.496,2.015-3.511,3.16-1.012,1.149-1.907,2.359-2.735,3.597-.829,1.238-1.574,2.514-2.348,3.77-.769,1.258-1.494,2.543-2.018,3.918-.538,1.367-.933,2.802-.678,4.48,.053,.347,.377,.585,.723,.532,.107-.016,.204-.059,.286-.12l.022-.017Z" fill="#390075"/><g><path d="M205.069,81.222s3.533-10.408,7.546-9.584c4.013,.825,4.835,16.585,4.08,20.179,0,0-6.208-.809-11.626-10.595Z" fill="#fe6dcb"/><path d="M215.601,72.026c-.737-1.123-1.63-1.799-2.653-2.01-5.187-1.061-8.779,8.705-9.448,10.674-.15,.442-.107,.926,.119,1.335,5.757,10.398,12.573,11.398,12.861,11.436,.072,.009,.145,.014,.216,.014,.773,0,1.456-.541,1.62-1.316,.717-3.415,.211-15.67-2.715-20.132Zm-.34,17.564c-1.924-.906-5.243-3.145-8.377-8.527,1.444-3.907,3.838-7.816,5.254-7.816,.049,0,.097,.005,.144,.014,.323,.073,1.698,1.594,2.525,7.689,.419,3.09,.547,6.441,.455,8.64Z" fill="#390075"/></g><path d="M212.839,117.034c2.279-.626,4.523-1.121,6.784-1.502,2.256-.382,4.512-.682,6.782-.814,2.266-.133,4.543-.212,6.829-.098,1.148,.008,2.29,.113,3.448,.183,.585,.003,1.154,.104,1.737,.148,.582,.053,1.168,.102,1.766,.125-.536-.246-1.084-.467-1.636-.685-.553-.213-1.107-.436-1.679-.588-1.143-.305-2.291-.647-3.471-.804-2.347-.425-4.752-.492-7.134-.347-2.386,.141-4.748,.602-7.024,1.302-2.265,.72-4.484,1.668-6.401,3.079Z" fill="#390075"/><path d="M212.491,122.984c2.363-.004,4.659,.11,6.94,.338,2.277,.225,4.533,.531,6.757,1.002,2.221,.469,4.438,.992,6.614,1.704,1.106,.31,2.18,.712,3.278,1.085,.564,.157,1.086,.404,1.637,.6,.547,.204,1.1,.406,1.67,.586-.453-.379-.923-.736-1.398-1.092-.477-.351-.954-.712-1.465-1.01-1.022-.595-2.04-1.227-3.137-1.69-2.152-1.028-4.455-1.726-6.791-2.214-2.339-.492-4.739-.67-7.119-.594-2.375,.098-4.765,.428-6.986,1.284Z" fill="#390075"/><path d="M210.563,130.38c2.306,.519,4.519,1.137,6.694,1.864,2.17,.723,4.303,1.52,6.368,2.471,2.063,.948,4.109,1.949,6.073,3.124,1.01,.547,1.968,1.176,2.957,1.783,.515,.278,.97,.634,1.464,.947,.489,.32,.983,.639,1.499,.941-.358-.47-.737-.922-1.122-1.374-.388-.448-.773-.905-1.205-1.308-.865-.806-1.718-1.648-2.686-2.341-1.871-1.479-3.963-2.669-6.133-3.661-2.172-.997-4.474-1.701-6.812-2.153-2.338-.43-4.741-.636-7.097-.292Z" fill="#390075"/><path d="M121.67,98.549c-1.349-1.962-3.135-3.584-5.039-5.007-1.921-1.407-4.002-2.617-6.21-3.532-2.203-.917-4.498-1.642-6.854-2.01-1.166-.238-2.364-.292-3.543-.378-.59-.043-1.187-.015-1.779,.005-.593,.025-1.183,.054-1.77,.111,.572,.173,1.142,.319,1.709,.46,.566,.149,1.136,.241,1.69,.429,1.117,.313,2.23,.588,3.318,.957,2.197,.642,4.322,1.462,6.42,2.33,2.101,.868,4.135,1.891,6.141,2.991,2.011,1.101,3.969,2.304,5.917,3.642Z" fill="#390075"/><path d="M120.049,104.285c-1.818-1.537-3.968-2.632-6.18-3.502-2.224-.852-4.55-1.47-6.921-1.771-2.367-.305-4.771-.4-7.141-.133-1.188,.077-2.357,.341-3.518,.568-.581,.114-1.149,.299-1.715,.474-.565,.18-1.127,.364-1.678,.573,.598,.016,1.186,.007,1.77-.007,.585-.005,1.159-.067,1.743-.031,1.16,.008,2.306-.02,3.453,.049,2.289,.04,4.555,.272,6.807,.557,2.256,.284,4.487,.734,6.712,1.268,2.23,.532,4.436,1.177,6.668,1.955Z" fill="#390075"/><path d="M119.447,111.904c-2.113-1.097-4.452-1.69-6.801-2.05-2.357-.339-4.762-.428-7.141-.197-2.376,.226-4.742,.665-6.994,1.449-1.141,.338-2.223,.854-3.305,1.332-.541,.239-1.054,.545-1.567,.841-.512,.3-1.019,.604-1.51,.93,.587-.116,1.158-.255,1.725-.398,.569-.134,1.115-.322,1.693-.416,1.133-.249,2.245-.53,3.378-.715,2.241-.466,4.502-.742,6.762-.962,2.263-.222,4.539-.276,6.826-.248,2.292,.026,4.586,.167,6.935,.433Z" fill="#390075"/><g><g opacity=".2"><path d="M146.826,122.004c1.972,3.969,4.624,5.649,7.269,6.13,5.228,.955,10.441-2.761,10.441-2.761,2.774,4.261,5.604,6.263,8.173,7.009,4.259,1.237,7.818-.968,9.271-2.095-10.744-.697-14.425-7.286-14.425-7.286l-4.667-1.11c-6.261,5.917-15.772,.283-16.062,.112Z" fill="#390075"/></g><path d="M154.095,128.134c.187,2.486,.747,5.4,1.729,7.872,1.087,2.76,2.691,4.986,4.874,5.505,2.199,.523,4.656-.751,6.882-2.744,2.011-1.803,3.841-4.195,5.128-6.385-2.569-.746-5.398-2.748-8.173-7.009,0,0-5.213,3.716-10.441,2.761Z" fill="#390075"/><g><path d="M155.824,136.006c1.087,2.76,2.691,4.986,4.874,5.505,2.199,.523,4.656-.751,6.882-2.744-.309-2.49-2.223-4.676-4.939-5.322-2.724-.648-5.432,.456-6.817,2.56Z" fill="#fb64c0"/><path d="M160.653,141.7c-2.017-.48-3.749-2.424-5.009-5.623l-.037-.094,.055-.084c1.468-2.23,4.29-3.29,7.024-2.642,2.715,.646,4.759,2.851,5.086,5.487l.013,.101-.076,.068c-2.145,1.92-4.193,2.91-5.995,2.91-.364,0-.719-.041-1.061-.122Zm1.944-8.065c-2.541-.606-5.162,.357-6.555,2.395,.852,2.128,2.35,4.734,4.701,5.293,2.378,.566,4.904-1.101,6.632-2.631-.347-2.432-2.254-4.457-4.777-5.057Z" fill="#390075"/></g><g><path d="M171.36,119.115c-.72-1.635-8.279-3.709-9.965-2.37-1.686,1.34,1.101,6.295,3.625,6.895,2.524,.6,7.139-2.711,6.34-4.525Z" fill="#390075"/><path d="M164.643,125.223c-2.466-.587-4.71-3.619-5.258-6.083-.473-2.127,.422-3.212,.998-3.669,1.51-1.201,4.438-.807,6.63-.266,1.846,.456,5.058,1.484,5.837,3.253h0c.286,.649,.555,1.989-.847,3.672-1.402,1.682-4.043,3.208-6.326,3.208-.355,0-.701-.037-1.033-.116Zm-2.137-7.225c-.004,.293,.13,.956,.627,1.829,.724,1.271,1.706,2.098,2.263,2.231,.505,.118,1.624-.146,2.783-.888,.859-.55,1.372-1.127,1.564-1.455-1.284-.986-5.918-2.097-7.238-1.717Zm-.15,.057h0Z" fill="#390075"/><g><path d="M162.175,116.886c-.144,.606,1.591,1.538,3.876,2.081,2.285,.543,4.254,.493,4.398-.113,.144-.606-1.591-1.538-3.876-2.081s-4.254-.493-4.398,.113Z" fill="#fff"/><path d="M166.003,119.172c-2.157-.513-4.236-1.48-4.033-2.334h0c.097-.406,.634-.625,1.596-.649,.848-.022,1.934,.113,3.057,.38,1.122,.267,2.152,.635,2.9,1.036,.848,.455,1.229,.892,1.132,1.298-.109,.459-.819,.65-1.787,.65-.836,0-1.865-.143-2.865-.381Zm-2.426-2.563c-.891,.023-1.172,.223-1.197,.326-.074,.311,1.139,1.213,3.721,1.827,2.583,.613,4.071,.354,4.145,.042,.024-.103-.137-.408-.922-.83-.717-.385-1.71-.739-2.798-.998-1.012-.241-1.989-.371-2.775-.371-.059,0-.117,0-.173,.002Z" fill="#390075"/></g></g><path d="M175.257,134.247c3.525,0,6.311-1.759,7.564-2.716,.027-.018,.053-.037,.079-.057,.513-.396,.808-.685,.841-.716,.59-.581,.597-1.531,.016-2.12-.58-.589-1.526-.596-2.116-.019h0s-.182,.176-.507,.432c-.024,.017-.049,.034-.072,.053-1.169,.907-4.282,2.901-7.935,1.84-2.599-.755-5.066-2.903-7.334-6.388-.223-.342-.576-.579-.977-.655-.4-.077-.816,.014-1.149,.252-.045,.032-4.776,3.331-9.301,2.507-2.591-.471-4.675-2.262-6.196-5.322-.009-.017-.018-.034-.027-.051l-.017-.031c-.125-.258-.248-.525-.369-.801-.332-.758-1.214-1.104-1.975-.771-.758,.332-1.104,1.216-.771,1.975,.152,.346,.306,.68,.464,1,.017,.034,.034,.067,.053,.099,1.963,3.902,4.755,6.206,8.3,6.851,4.193,.766,8.267-1.075,10.282-2.21,2.464,3.402,5.211,5.56,8.182,6.423,1.032,.3,2.026,.425,2.967,.425Z" fill="#390075"/><path d="M160.351,142.97c-2.45-.583-4.498-2.801-5.92-6.41-.945-2.378-1.612-5.409-1.831-8.313-.035-.463,.147-.916,.492-1.227,.346-.311,.815-.443,1.272-.36,4.526,.824,9.257-2.475,9.301-2.507,.333-.238,.749-.329,1.149-.252,.402,.076,.755,.313,.977,.655,2.268,3.484,4.735,5.633,7.334,6.388,.444,.129,.804,.456,.975,.886,.171,.43,.134,.915-.1,1.313-1.486,2.529-3.461,4.987-5.42,6.743-2.391,2.141-4.737,3.242-6.869,3.242-.464,0-.918-.052-1.36-.157Zm3.758-15.57c-1.684,.949-4.809,2.391-8.238,2.391-.03,0-.06,0-.09,0,.285,2.033,.788,4.03,1.438,5.667,1.033,2.623,2.392,4.255,3.826,4.597,1.455,.346,3.42-.508,5.535-2.401,1.353-1.212,2.72-2.813,3.89-4.534-2.278-1.108-4.409-3.023-6.361-5.718Z" fill="#390075"/></g><path d="M140.856,96.697c1.099,.667,2.196,1.406,3.186,2.198,.997,.793,1.912,1.651,2.73,2.567,.422,.448,.78,.942,1.158,1.416l.503,.754c.08,.128,.175,.246,.249,.377l.219,.395c.63,1.029,1.036,2.168,1.425,3.314l2.515-1.584c-.092-.075-.152-.119-.217-.168-.066-.05-.13-.096-.193-.138-.127-.087-.254-.173-.381-.25-.252-.163-.51-.305-.766-.45-.515-.282-1.049-.518-1.59-.732-1.083-.423-2.219-.704-3.368-.828-1.148-.107-2.307-.123-3.428,.091-1.125,.155-2.196,.546-3.198,.999-.269,.122-.389,.438-.267,.707,.093,.205,.299,.323,.511,.314l.063-.003c.52-.024,1.018-.102,1.521-.112,.504,0,.996-.03,1.487,.016,.98,.051,1.938,.2,2.859,.462,.925,.237,1.816,.583,2.661,1.007,.423,.21,.831,.448,1.228,.692,.195,.127,.391,.252,.573,.388,.095,.065,.181,.134,.268,.201,.045,.034,.088,.066,.125,.097l.093,.077,.038,.031c.659,.545,1.635,.452,2.18-.207,.335-.405,.426-.938,.296-1.409-.403-1.422-.891-2.85-1.687-4.117-.346-.663-.83-1.235-1.265-1.835-.497-.549-.973-1.117-1.537-1.591-1.088-.985-2.301-1.809-3.593-2.436-1.304-.617-2.638-1.083-4.096-1.266-.295-.037-.564,.172-.601,.466-.027,.217,.079,.42,.254,.526l.045,.027Z" fill="#390075"/><g><g><ellipse cx="190.149" cy="112.591" rx="9.49" ry="6.689" transform="translate(50.013 283.456) rotate(-81.273)" fill="#390075"/><path d="M188.68,122.159c-3.749-.576-6.141-5.337-5.331-10.613h0c.391-2.544,1.458-4.831,3.006-6.439,1.565-1.626,3.434-2.367,5.263-2.086,3.749,.576,6.141,5.336,5.331,10.612-.756,4.923-4.036,8.582-7.518,8.582-.249,0-.5-.019-.751-.057Zm-2.051-16.787c-1.494,1.552-2.525,3.765-2.903,6.233h0c-.778,5.068,1.471,9.634,5.012,10.178,3.55,.54,7.057-3.138,7.834-8.206,.778-5.068-1.471-9.634-5.012-10.178-.234-.036-.468-.054-.703-.054-1.475,0-2.954,.704-4.228,2.027Z" fill="#390075"/></g><g><ellipse cx="188.794" cy="110.155" rx="3.187" ry="2.021" transform="translate(51.27 280.051) rotate(-81.273)" fill="#fff"/><path d="M188.281,113.494c-1.205-.185-1.956-1.833-1.673-3.674,.135-.877,.479-1.67,.972-2.234,.513-.588,1.128-.861,1.727-.769,.601,.092,1.104,.536,1.417,1.251,.301,.686,.392,1.546,.257,2.423-.265,1.727-1.348,3.02-2.476,3.02-.074,0-.148-.005-.222-.017Zm-.414-5.657c-.446,.51-.759,1.235-.882,2.041h0c-.251,1.633,.357,3.086,1.354,3.239,1.001,.161,2.013-1.052,2.264-2.684,.124-.806,.042-1.592-.229-2.212-.259-.591-.659-.956-1.126-1.027-.056-.009-.113-.013-.17-.013-.414,0-.839,.228-1.212,.656Z" fill="#390075"/></g></g></svg>