<?xml version="1.0" encoding="UTF-8"?><svg id="a" xmlns="http://www.w3.org/2000/svg" viewBox="0 0 256 256"><g><path d="M161.472,179.846c6.509,4.405,12.335,11.149,17.798,17.492,9.148,10.633,17.253,20.144,25.764,15.657,11.863-6.251-.847-24.693-10.502-36.157-4.74-5.636-8.744-9.584-8.744-9.584l-24.317,12.592Z" fill="#fff"/><g opacity=".2"><path d="M161.472,179.846l24.317-12.592s4.004,3.948,8.744,9.584c-1.271,5.516-3.682,13.24-7.863,18.014,9.071,9.724,20.165,17.831,24.074,10.213-.224,3.289-1.714,6.032-5.043,7.784-8.526,4.491-16.649-5.063-25.818-15.717l-.613,.206c-5.463-6.343-11.289-13.087-17.798-17.492Z" fill="#390075"/></g><path d="M197.826,215.443c2.611,.669,5.26,.452,7.98-.981,3.184-1.678,5.051-4.233,5.547-7.594,2.133-14.432-23.317-39.722-24.402-40.792-.651-.644-1.701-.635-2.342,.016-.642,.652-.636,1.7,.016,2.343,7.055,6.96,25.019,27.345,23.451,37.949-.338,2.29-1.586,3.973-3.814,5.147-7.29,3.842-14.834-4.925-23.569-15.077-5.671-6.591-11.535-13.405-18.292-17.979-.758-.512-1.787-.314-2.3,.444-.513,.758-.314,1.787,.444,2.3,6.391,4.325,12.108,10.97,17.638,17.396,6.641,7.717,13.017,15.128,19.645,16.827Z" fill="#390075"/></g><g><path d="M27.966,101.229c-.845,1.907-1.586,3.951-2.182,6.095-2.749,9.827-2.615,21.779,3.265,32.196,1.859,3.292,4.29,6.122,7.089,8.457,.778,.658,1.588,1.276,2.422,1.851,1.408-2.603,2.742-6.864,.807-12.101-2.872-7.771-18.754-12.846-11.402-36.498Z" fill="#33aef1"/><g opacity=".6"><path d="M28.958,101.356c-.845,1.907-1.586,3.951-2.182,6.095-.502,7.731-.443,18.292,2.965,22.904,5.385,7.284,8.537,8.732,7.389,17.748,.778,.658,1.588,1.276,2.422,1.851,1.408-2.603,2.742-6.864,.807-12.101-2.872-7.771-18.754-12.846-11.402-36.498Z" fill="#fff"/></g><path d="M27.974,101.194c.002,.012-.005,.022-.008,.035-7.352,23.652,8.529,28.727,11.402,36.498,1.935,5.238,.601,9.498-.807,12.101,1.232,.861,2.518,1.633,3.843,2.31,.911,.475,1.844,.909,2.789,1.296,2.874-3.948,6.358-10.602,3.716-17.251-4.15-10.442-11.578-10.584-15.74-21.467-1.901-4.973-1.354-14.8,6.709-26.924-.934,.311-1.864,.781-2.784,1.394-3.442,2.293-6.715,6.588-9.121,12.01Z" fill="#fdd800"/><g opacity=".6"><path d="M37.095,89.184c-4.021,6.344-10.157,17.629-7.779,24.258,3.443,9.595,7.058,12.109,12.321,17.699,4.694,4.986,5.482,12.559,.767,20.997,.911,.475,1.844,.909,2.789,1.296,2.874-3.948,6.358-10.602,3.716-17.251-4.15-10.442-11.578-10.584-15.74-21.467-1.901-4.973-1.354-14.8,6.709-26.924-.934,.311-1.864,.781-2.784,1.394Z" fill="#fff"/></g><path d="M39.878,87.79c-8.063,12.124-8.611,21.951-6.709,26.924,4.162,10.883,11.589,11.026,15.74,21.467,2.642,6.649-.842,13.303-3.716,17.251,1.251,.516,2.522,.965,3.811,1.336,1.428,.418,2.868,.743,4.307,.978,3.437-3.143,8.709-9.157,8.378-16.262-.487-10.495-19.406-21.411-22.002-32.343-1.905-8.019,.799-14.727,3.988-19.694-.678-.117-1.362-.132-2.052-.051-.582,.063-1.159,.195-1.745,.392Z" fill="#b177ea"/><g opacity=".6"><path d="M42.243,87.276c-3.988,7.399-7.219,17.341-4.778,24.072,6.051,16.69,32.161,23.537,12.159,43.299,1.428,.418,2.868,.744,4.307,.978,3.437-3.143,8.709-9.157,8.378-16.262-.487-10.495-19.406-21.411-22.002-32.343-1.905-8.019,.799-14.727,3.988-19.694-.678-.117-1.362-.132-2.052-.051Z" fill="#fff"/></g><path d="M43.675,87.449c-3.189,4.967-5.893,11.675-3.988,19.694,2.597,10.932,21.516,21.848,22.002,32.343,.331,7.105-4.941,13.119-8.378,16.262,3.141,.509,6.281,.583,9.26,.212,1.093-.134,2.165-.327,3.203-.584,3.888-5.078,10.977-15.688,5.31-25.837-7.408-13.271-33.111-16.451-25.105-41.236-.411-.281-.905-.506-1.506-.677-.204-.056-.42-.11-.648-.153-.048-.012-.1-.017-.15-.025Z" fill="#fe6dcb"/><g opacity=".6"><path d="M45.714,87.381c-1.413,4.182-2.329,8.486-1.792,12.827,.694,5.646,3.801,10.752,7.592,14.997,3.793,4.241,8.286,7.783,12.456,11.657,1.127,1.048,2.242,2.128,3.139,3.375,2.926,4.053,3.324,9.525,2.096,14.37-.862,3.398-2.448,6.552-4.264,9.532-.269,.439-.696,.985-1.128,1.577,1.093-.134,2.165-.327,3.203-.584,3.888-5.078,10.977-15.688,5.31-25.837-7.408-13.271-33.111-16.451-25.105-41.236-.411-.281-.905-.506-1.506-.677Z" fill="#fff"/></g><path d="M72.532,128.732c-2.67-4.784-7.508-8.306-12.186-11.711-9.119-6.638-17.732-12.908-12.789-28.209,.226-.698-.036-1.462-.642-1.877l-.041-.028c-.736-.493-1.623-.838-2.709-1.054-.077-.016-.16-.031-.241-.042-1.472-.25-3.009-.113-4.57,.407h-.001c-4.816,1.61-9.634,6.958-12.891,14.306-.015,.034-.028,.067-.041,.102-4.508,10.22-6.556,25.994,1.186,39.709,2.415,4.276,5.783,7.928,10.011,10.855,.17,.119,.342,.236,.515,.352,1.99,1.334,4.15,2.485,6.428,3.425,2.731,1.132,5.586,1.947,8.483,2.419,4.54,.734,9.078,.596,13.125-.399,.366-.09,.69-.302,.919-.601,8.014-10.463,9.845-19.766,5.443-27.651Zm-15.622,25.271c.375-.424,.752-.872,1.126-1.342,.036-.045,.072-.09,.108-.136,.18-.229,.359-.464,.537-.703,.033-.044,.065-.089,.097-.133,.172-.235,.342-.474,.51-.719l.042-.061c.174-.255,.344-.516,.512-.781,.035-.055,.07-.11,.104-.166,.164-.264,.325-.532,.482-.805,.025-.044,.049-.088,.074-.132,.146-.259,.289-.523,.426-.79,.019-.037,.039-.074,.058-.111,.145-.285,.283-.575,.416-.868,.028-.061,.055-.122,.082-.184,.131-.297,.258-.597,.376-.901,.014-.036,.027-.072,.04-.108,.11-.289,.213-.581,.309-.877,.016-.049,.033-.097,.048-.146,.099-.311,.188-.627,.27-.945,.017-.065,.032-.13,.048-.194,.08-.326,.153-.655,.214-.988,.004-.022,.007-.044,.011-.065,.057-.32,.102-.643,.14-.969,.007-.061,.015-.121,.021-.181,.035-.333,.058-.669,.071-1.007,.003-.067,.003-.134,.005-.201,.009-.352,.009-.705-.007-1.063-.279-6.006-5.65-11.672-11.336-17.671-4.695-4.953-9.55-10.075-10.701-14.919-.091-.382-.171-.764-.241-1.145-.025-.135-.042-.27-.065-.406-.041-.245-.083-.491-.115-.736-.021-.162-.034-.323-.052-.485-.024-.218-.049-.437-.066-.655-.013-.171-.019-.341-.028-.512-.011-.209-.024-.418-.029-.627-.004-.176-.001-.351,0-.526,0-.204,0-.407,.006-.611,.006-.179,.018-.357,.028-.536,.011-.2,.022-.401,.039-.601,.015-.18,.037-.36,.057-.54,.022-.199,.044-.398,.072-.597,.025-.18,.056-.361,.086-.541,.033-.199,.067-.398,.105-.597,.035-.18,.075-.361,.115-.541,.044-.199,.089-.398,.139-.597,.045-.18,.094-.361,.143-.541,.055-.2,.112-.4,.173-.6,.055-.179,.112-.359,.171-.538,.066-.201,.135-.402,.207-.604,.064-.179,.131-.358,.199-.537,.078-.203,.159-.405,.242-.608,.073-.178,.148-.355,.226-.533,.09-.205,.183-.411,.279-.616,.082-.176,.165-.352,.252-.528,.102-.208,.209-.417,.318-.625,.09-.174,.181-.348,.276-.522,.093-.172,.192-.344,.29-.516-4.265,16.154,5.719,23.437,14.577,29.886,4.591,3.342,8.927,6.499,11.243,10.647,3.635,6.512,2.012,14.434-4.825,23.552-2.601,.576-5.424,.762-8.311,.556,.101-.11,.202-.221,.303-.335,.034-.039,.069-.078,.103-.117Zm-.827-3.193l-.039,.05c-.197,.251-.397,.495-.596,.732-.022,.026-.043,.052-.065,.077-.193,.228-.386,.449-.579,.665-.028,.031-.056,.063-.084,.094-.188,.209-.375,.41-.56,.606-.031,.032-.061,.065-.092,.097-.182,.19-.362,.374-.539,.551l-.096,.096c-.092,.091-.181,.176-.271,.263-1.94-.34-3.858-.849-5.726-1.518,.121-.189,.241-.38,.359-.575l.013-.021c.163-.269,.323-.544,.48-.823,.022-.038,.044-.076,.065-.115,.15-.268,.296-.542,.439-.819,.025-.049,.051-.099,.076-.148,.14-.276,.277-.557,.409-.841,.023-.049,.045-.099,.068-.149,.133-.292,.262-.587,.384-.886,.014-.035,.028-.071,.042-.107,.126-.314,.248-.631,.361-.953l.004-.011c.113-.321,.216-.647,.313-.975,.012-.041,.025-.081,.037-.122,.091-.314,.173-.631,.248-.951,.013-.055,.026-.11,.038-.165,.072-.317,.135-.636,.19-.958,.009-.055,.018-.11,.027-.165,.053-.329,.097-.659,.131-.992,.004-.04,.007-.081,.01-.121,.032-.35,.056-.701,.065-1.055v-.007c.009-.353,.004-.709-.012-1.066-.002-.044-.003-.088-.005-.132-.018-.34-.049-.682-.091-1.026-.007-.059-.014-.117-.022-.176-.046-.339-.104-.68-.175-1.021-.012-.059-.026-.118-.039-.177-.077-.347-.165-.695-.269-1.044-.013-.044-.028-.088-.042-.131-.114-.367-.24-.735-.386-1.104-2.154-5.418-5.156-8.218-8.059-10.925-2.917-2.719-5.671-5.288-7.676-10.526-.055-.144-.107-.292-.158-.445-.02-.062-.039-.129-.058-.193-.028-.093-.058-.184-.085-.28-.021-.074-.039-.153-.058-.229-.023-.09-.047-.179-.069-.272-.019-.083-.036-.17-.054-.254-.019-.091-.039-.18-.057-.273-.016-.087-.03-.178-.045-.268-.016-.095-.033-.189-.048-.287-.014-.091-.024-.187-.037-.28-.013-.099-.027-.197-.038-.299-.011-.097-.019-.199-.028-.298-.009-.102-.02-.202-.028-.306-.008-.104-.013-.211-.019-.317-.006-.104-.013-.206-.017-.312-.004-.108-.006-.22-.008-.331-.003-.107-.006-.213-.007-.323,0-.111,.001-.225,.002-.338,0-.113,0-.225,.004-.34,.003-.116,.009-.235,.014-.353,.005-.115,.008-.229,.015-.346,.007-.121,.017-.245,.025-.368,.008-.118,.016-.235,.026-.355,.011-.124,.025-.251,.037-.377,.012-.122,.024-.244,.038-.368,.015-.127,.033-.257,.05-.386,.017-.127,.032-.253,.051-.382,.019-.131,.041-.264,.062-.396,.021-.13,.04-.259,.063-.39,.024-.135,.05-.273,.076-.41,.025-.133,.049-.264,.076-.399,.028-.138,.059-.279,.09-.419,.03-.136,.058-.272,.09-.41,.033-.141,.069-.285,.104-.428,.034-.14,.068-.279,.104-.42,.037-.145,.078-.291,.118-.438,.039-.143,.077-.285,.119-.43,.043-.149,.089-.299,.134-.449,.044-.145,.086-.289,.132-.435,.048-.153,.1-.307,.15-.462,.048-.147,.096-.294,.147-.442,.054-.156,.111-.314,.167-.472,.053-.149,.106-.298,.161-.448,.059-.16,.122-.321,.184-.482,.058-.152,.116-.304,.177-.457,.065-.162,.133-.326,.2-.49,.064-.155,.127-.309,.194-.465,.071-.166,.145-.333,.218-.5,.069-.156,.137-.313,.209-.47,.077-.17,.158-.342,.239-.513,.074-.157,.147-.313,.223-.471,.084-.174,.172-.35,.259-.526,.079-.158,.157-.316,.238-.475,.091-.178,.185-.357,.279-.536,.084-.159,.168-.318,.254-.479,.098-.181,.198-.362,.299-.544,.09-.162,.18-.324,.273-.487,.104-.183,.212-.368,.32-.552,.095-.162,.19-.325,.288-.488,.112-.187,.227-.375,.343-.563,.101-.164,.202-.328,.306-.493,.099-.158,.202-.317,.304-.475,.215-.07,.429-.129,.64-.177-.079,.147-.153,.293-.229,.44-.119,.231-.236,.462-.348,.693-.088,.181-.175,.362-.259,.542-.109,.234-.213,.468-.314,.703-.077,.177-.155,.355-.228,.533-.1,.243-.193,.485-.286,.728-.064,.169-.131,.337-.191,.506-.095,.265-.182,.531-.269,.797-.048,.146-.099,.292-.144,.438-.114,.371-.218,.742-.315,1.113-.011,.041-.024,.081-.034,.122-.105,.411-.198,.822-.281,1.234-.027,.135-.048,.269-.073,.404-.052,.278-.103,.556-.145,.835-.024,.162-.043,.323-.064,.485-.033,.252-.065,.504-.09,.756-.017,.171-.029,.342-.043,.513-.019,.244-.036,.487-.047,.731-.008,.174-.014,.348-.018,.523-.006,.241-.008,.483-.007,.724,0,.174,.003,.348,.008,.522,.007,.244,.019,.487,.033,.731,.01,.17,.019,.341,.033,.511,.02,.252,.047,.505,.075,.757,.018,.161,.033,.321,.055,.482,.037,.278,.082,.555,.129,.833,.023,.134,.041,.269,.066,.403,.076,.412,.161,.823,.259,1.234,1.318,5.547,6.426,10.935,11.365,16.145,5.098,5.379,10.37,10.94,10.603,15.949,.018,.378,.015,.752-.001,1.124,0,.023,0,.045-.002,.068-.018,.356-.052,.709-.099,1.059-.005,.036-.008,.073-.014,.109-.048,.34-.11,.676-.183,1.009-.01,.044-.018,.088-.028,.132-.074,.327-.161,.65-.257,.969-.014,.048-.028,.095-.043,.142-.098,.316-.206,.628-.323,.936-.018,.048-.036,.095-.055,.143-.119,.307-.247,.61-.382,.908-.02,.045-.041,.089-.062,.134-.139,.3-.284,.595-.437,.885-.021,.039-.042,.078-.062,.116-.157,.294-.319,.583-.488,.866-.019,.031-.038,.062-.057,.093-.174,.289-.353,.574-.537,.852l-.037,.055c-.385,.579-.789,1.133-1.2,1.658Zm-7.64-10.912c.015,.151,.022,.301,.031,.452,.013,.205,.026,.41,.029,.614,.002,.154-.002,.308-.005,.462-.004,.199-.01,.397-.023,.595-.01,.156-.025,.311-.041,.466-.019,.194-.041,.388-.068,.58-.022,.155-.047,.309-.074,.463-.033,.19-.07,.38-.11,.569-.033,.153-.067,.305-.104,.457-.046,.187-.095,.373-.147,.559-.042,.149-.084,.298-.13,.446-.057,.185-.119,.368-.182,.55-.05,.145-.099,.29-.152,.433-.068,.183-.141,.364-.214,.544-.056,.138-.11,.277-.169,.414-.079,.183-.162,.362-.245,.542-.06,.13-.118,.261-.18,.389-.092,.189-.188,.373-.284,.558-.059,.114-.115,.229-.176,.341-.119,.221-.241,.436-.365,.65-.041,.072-.081,.147-.123,.218-.165,.28-.333,.554-.503,.823-.067,.105-.135,.205-.202,.309-.035,.054-.071,.108-.106,.161-1.573-.705-3.073-1.52-4.487-2.432,.047-.109,.093-.218,.138-.331,.031-.077,.06-.157,.091-.236,.051-.133,.101-.267,.15-.404,.03-.086,.06-.174,.089-.262,.045-.136,.089-.273,.132-.413,.028-.092,.055-.185,.082-.279,.04-.143,.079-.288,.116-.435,.024-.095,.048-.189,.07-.285,.036-.156,.069-.316,.101-.477,.018-.091,.038-.18,.054-.273,.034-.19,.064-.385,.091-.581,.009-.066,.021-.131,.03-.197,.034-.264,.061-.533,.081-.807,.004-.06,.005-.122,.009-.182,.013-.215,.024-.431,.028-.652,.002-.101,0-.204,0-.306,0-.184-.002-.369-.009-.557-.004-.115-.012-.232-.019-.349-.011-.18-.024-.361-.042-.544-.012-.123-.026-.246-.041-.37-.022-.183-.048-.367-.077-.553-.02-.126-.04-.253-.063-.38-.035-.192-.075-.386-.118-.581-.027-.124-.052-.247-.083-.372-.052-.216-.113-.434-.175-.653-.031-.107-.057-.213-.09-.322-.1-.329-.21-.661-.334-.997-.888-2.405-2.833-4.512-4.891-6.744-1.272-1.379-2.62-2.841-3.854-4.507-.015-.021-.031-.04-.046-.061-.118-.16-.233-.324-.349-.487-.037-.053-.076-.104-.113-.158-.084-.121-.165-.246-.248-.369-.067-.1-.135-.197-.201-.299-.06-.092-.117-.188-.176-.281-.086-.136-.172-.27-.256-.408-.05-.083-.098-.17-.148-.254-.089-.152-.179-.303-.266-.459-.046-.083-.089-.169-.135-.253-.087-.161-.175-.321-.258-.486-.045-.088-.086-.18-.13-.269-.081-.164-.162-.328-.24-.496-.042-.092-.081-.188-.122-.281-.075-.17-.151-.339-.223-.514-.037-.09-.07-.183-.105-.274-.072-.182-.144-.363-.212-.55-.034-.094-.064-.192-.096-.287-.065-.188-.131-.376-.191-.569-.029-.092-.053-.188-.081-.281-.059-.201-.12-.401-.174-.608-.025-.095-.046-.195-.07-.291-.052-.209-.104-.417-.15-.632-.022-.104-.04-.213-.061-.318-.042-.212-.086-.423-.122-.641-.018-.106-.031-.217-.047-.325-.034-.222-.069-.443-.097-.672-.013-.11-.022-.225-.033-.336-.025-.231-.051-.461-.069-.699-.009-.116-.012-.238-.019-.355-.015-.238-.031-.476-.039-.72-.004-.128-.002-.261-.004-.391-.004-.24-.01-.479-.008-.726,.001-.142,.01-.289,.013-.433,.006-.242,.01-.481,.023-.728,.008-.15,.023-.307,.033-.459,.017-.247,.031-.492,.054-.745,.016-.169,.039-.344,.058-.515,.027-.244,.05-.486,.083-.736,.024-.181,.056-.368,.083-.551,.037-.248,.07-.493,.113-.747,.034-.198,.076-.403,.113-.603,.046-.248,.088-.492,.141-.744,.044-.214,.098-.435,.146-.652,.055-.248,.107-.493,.168-.746,.017-.069,.038-.142,.055-.212,.317-.863,.651-1.697,1.003-2.492,.015-.033,.028-.066,.041-.1,1.62-3.636,3.67-6.744,5.851-8.987-.15,.293-.296,.585-.437,.874-.012,.025-.026,.051-.038,.076-.272,.559-.523,1.111-.764,1.657-.041,.094-.084,.189-.125,.283-.226,.523-.438,1.04-.637,1.551-.04,.101-.078,.202-.116,.303-.196,.514-.38,1.022-.549,1.523-.023,.068-.044,.135-.066,.203-.164,.494-.316,.983-.455,1.463-.012,.041-.025,.083-.037,.124-.141,.493-.265,.978-.38,1.456-.021,.086-.042,.171-.062,.256-.108,.463-.203,.918-.288,1.366-.016,.083-.03,.164-.045,.247-.082,.455-.155,.904-.215,1.342-.006,.042-.01,.084-.015,.126-.056,.429-.101,.85-.136,1.263-.004,.047-.009,.095-.013,.142-.033,.417-.054,.824-.067,1.224-.002,.073-.005,.146-.007,.218-.009,.39-.009,.771,0,1.143,.002,.065,.005,.128,.007,.192,.013,.381,.033,.756,.065,1.118l.006,.055c.032,.357,.075,.702,.124,1.038,.007,.045,.012,.091,.019,.136,.051,.33,.111,.649,.178,.959,.012,.058,.025,.116,.038,.173,.069,.304,.144,.599,.227,.883,.013,.046,.028,.089,.041,.135,.089,.294,.184,.579,.287,.849,2.227,5.818,5.34,8.722,8.352,11.53,2.81,2.621,5.465,5.096,7.396,9.954,.142,.358,.263,.717,.368,1.075,.035,.12,.058,.24,.089,.359,.062,.239,.123,.477,.169,.716,.027,.142,.044,.284,.066,.426,.033,.215,.068,.431,.089,.645Zm-22.664-19.9c.072,.234,.149,.463,.227,.691,.039,.112,.075,.227,.115,.338,.113,.315,.232,.624,.356,.926,.008,.019,.015,.039,.022,.058,.132,.32,.271,.633,.414,.94,.049,.106,.101,.207,.151,.312,.097,.201,.195,.4,.296,.596,.061,.119,.125,.235,.187,.351,.095,.176,.19,.351,.288,.523,.067,.118,.135,.235,.204,.351,.099,.167,.199,.332,.3,.495,.069,.112,.138,.223,.209,.333,.107,.167,.215,.33,.324,.493,.067,.1,.133,.201,.201,.299,.127,.185,.256,.365,.385,.545,.051,.071,.102,.144,.153,.214,.18,.245,.361,.486,.545,.722,.056,.073,.113,.143,.17,.215,.131,.166,.262,.332,.394,.494,.074,.092,.149,.181,.224,.271,.115,.139,.23,.278,.346,.414,.08,.094,.159,.187,.239,.279,.112,.131,.225,.26,.337,.388,.079,.09,.158,.18,.237,.269,.115,.13,.23,.258,.344,.385,.075,.083,.15,.167,.225,.249,.126,.139,.251,.276,.376,.412,.061,.066,.121,.133,.182,.199,.179,.195,.357,.388,.532,.578,1.955,2.118,3.642,3.948,4.346,5.854,.101,.274,.191,.545,.273,.813,.026,.084,.047,.166,.071,.249,.053,.185,.104,.369,.148,.551,.023,.093,.044,.185,.064,.277,.039,.174,.074,.347,.105,.518,.016,.087,.033,.175,.047,.261,.031,.189,.056,.377,.079,.562,.007,.062,.017,.125,.024,.187,.026,.247,.045,.491,.057,.732,.002,.038,.001,.075,.003,.114,.008,.2,.012,.398,.01,.593,0,.076-.003,.15-.005,.225-.004,.157-.01,.312-.02,.465-.005,.08-.011,.159-.017,.238-.012,.15-.027,.298-.044,.445-.008,.072-.016,.144-.025,.215-.023,.173-.05,.344-.08,.512-.007,.039-.012,.078-.019,.117-.038,.206-.081,.408-.128,.605-.012,.053-.027,.104-.04,.156-.036,.144-.073,.286-.113,.425-.019,.068-.04,.134-.06,.2-.037,.123-.076,.244-.115,.363-.022,.065-.044,.131-.067,.195-.032,.091-.065,.178-.098,.267-3.187-2.458-5.761-5.402-7.665-8.774-3.446-6.104-4.778-12.663-4.769-18.884,.018,.06,.038,.118,.056,.178Z" fill="#390075"/></g><path d="M132.194,206.573c36.999-.465,52.354-17.75,57.473-35.336,4.487-15.363,1.155-30.96-2.367-35.755,0,0-26.586,6.389-68.472-5.094-3.383-.924-6.607-1.615-9.678-2.093-34.933-5.412-49.827,16.805-51.122,30.185-1.407,14.551,4.834,48.967,74.166,48.093Z" fill="#fff"/><g opacity=".2"><path d="M59.326,161.349c4.08,15.917,20.264,35.766,73.13,35.098,21.421-.271,35.584-6.18,44.708-14.52,4.174-3.815,1.948-10.735-3.662-11.442-2.166-.273-4.349-.618-6.545-1.037-29.224-5.577-51.784-22.45-57.809-41.153,3.072,.478,6.295,1.169,9.678,2.093,41.886,11.483,68.472,5.094,68.472,5.094,2.006,2.731,3.948,8.969,4.421,16.669,.325-2.848,.424-5.628,.347-8.262,4.386,19.768-.455,61.775-58.416,62.508-64.863,.816-74.505-29.251-74.326-45.049Z" fill="#390075"/></g><path d="M66.565,188.588c-10.709-11.646-10.691-25.048-10.187-30.27,.703-7.269,5.195-17.615,15.694-24.851,8.341-5.748,23.298-11.226,47.194-4.675,40.92,11.218,67.385,5.139,67.648,5.077h0c.648-.154,1.327,.094,1.721,.631,4.588,6.249,8.426,27.374-.597,45.474-6.305,12.648-21.107,27.817-55.823,28.255-.878,.011-1.748,.016-2.612,.016-29.838,0-51.039-6.609-63.038-19.657Zm51.826-56.601c-22.667-6.214-36.676-1.141-44.438,4.208-9.574,6.598-13.674,16.213-14.276,22.442-.462,4.779-.478,17.046,9.327,27.708,11.682,12.704,32.917,18.961,63.17,18.571,26.156-.33,44.448-9.466,52.899-26.419,7.917-15.881,5.239-34.646,1.461-41.16-5.605,1.098-30.68,4.922-68.143-5.349Zm68.905,3.493h0Z" fill="#390075"/><g><path d="M150.454,189.893c.305,.262,.602,.532,.898,.808h.005c15.312,14.109,24.29,42.701,38.365,37.33,3.515-1.34,5.323-3.884,5.94-7.123v-.005c2.667-13.977-16.767-40.954-16.767-40.954l-28.442,9.944Z" fill="#fff"/><g opacity=".2"><path d="M151.357,190.702c15.312,14.107,24.29,42.7,38.365,37.329,3.515-1.34,5.323-3.884,5.94-7.123-5.492,8.128-17.872-5.366-25.935-17.761-7.935-12.2-18.048-12.443-18.371-12.445Z" fill="#451661"/></g><path d="M178.448,180.273c.636,2.384,1.73,4.432,2.89,6.437,1.138,2.019,2.385,3.966,3.588,5.942,1.207,1.974,2.289,4.017,3.319,6.078,1.028,2.062,1.987,4.153,2.847,6.273,.854,2.121,1.612,4.272,2.184,6.446,.577,2.17,.96,4.375,.98,6.512,.015,2.127-.386,4.194-1.452,5.751-.533,.776-1.219,1.429-2.035,1.948-.197,.138-.413,.254-.634,.365-.212,.122-.442,.221-.675,.316l-.346,.147-.354,.107-.706,.221c-1.892,.429-3.834,.176-5.644-.815-1.816-.948-3.492-2.393-5.018-4.022-3.062-3.274-5.68-7.124-8.293-10.975-2.607-3.865-5.185-7.805-8.005-11.621l-1.068-1.426-1.098-1.409c-.75-.928-1.44-1.906-2.213-2.828-.756-.932-1.616-1.788-2.567-2.544-.957-.749-2.043-1.375-3.333-1.7-.331-.083-.667,.117-.75,.448-.03,.119-.023,.239,.013,.348l.013,.037c.213,.635,.502,1.164,.801,1.675,.301,.509,.615,1,.963,1.451,.354,.444,.695,.906,1.065,1.335,.182,.218,.374,.425,.564,.637,.183,.218,.375,.429,.568,.638,.782,.827,1.56,1.672,2.279,2.565l1.062,1.358,1.037,1.384c2.745,3.714,5.296,7.61,7.922,11.505,2.641,3.884,5.295,7.82,8.632,11.397,1.672,1.774,3.567,3.462,5.906,4.69,.563,.332,1.214,.546,1.832,.8,.32,.109,.657,.183,.986,.274l.497,.127c.168,.033,.342,.048,.513,.072,.343,.042,.687,.086,1.031,.12l1.041-.018c.173-.008,.348-.001,.519-.023l.51-.081c.339-.058,.682-.105,1.015-.179l.971-.298,.484-.153,.463-.194c.309-.127,.615-.262,.913-.429,.302-.154,.6-.316,.886-.511,1.158-.734,2.204-1.721,2.992-2.879,.795-1.156,1.304-2.46,1.614-3.755,.308-1.3,.417-2.603,.411-3.875-.025-2.547-.468-4.989-1.089-7.338-.62-2.353-1.423-4.624-2.316-6.844-.899-2.218-1.894-4.384-2.954-6.51-1.06-2.127-2.196-4.207-3.311-6.297-1.118-2.089-2.288-4.151-3.654-6.086-.678-.971-1.374-1.929-2.182-2.811-.806-.884-1.666-1.724-2.72-2.431-.27-.181-.636-.109-.817,.161-.098,.146-.122,.32-.08,.478l.002,.007Z" fill="#390075"/></g><g><path d="M43.059,216.352c7.415,2.846,14.522-5.748,17.955-9.462,3.433-3.714,13.079,1.246,22.59-10.771,3.68-4.651,5.034-9.874,5.247-14.682,.386-8.759-3.012-16.137-3.012-16.137l-23.789-8.102c-23.048,12.876-28.066,36.094-25.163,49.397,1.099,5.052,3.342,8.673,6.171,9.756Z" fill="#fff"/><g opacity=".2"><path d="M43.059,216.352c7.415,2.846,14.522-5.748,17.955-9.462,3.433-3.714,13.079,1.246,22.59-10.771,3.68-4.651,5.034-9.874,5.247-14.682l-.003-.01s.798-8.243-2.995-14.39c0,0-2.525,28.369-27.705,26.71,0,0-9.288,19.002-21.26,12.849,1.099,5.052,3.342,8.673,6.171,9.756Z" fill="#390075"/></g><path d="M88.263,178.123c-.706,2.858-1.125,5.518-1.821,8.109-.723,2.571-1.681,5.057-3.112,7.31-.341,.574-.748,1.1-1.145,1.644-.423,.534-.857,1.059-1.317,1.556-.916,.996-1.903,1.912-2.96,2.715-2.116,1.611-4.515,2.729-7.123,3.296-1.303,.301-2.652,.468-4.073,.627-.712,.082-1.439,.157-2.21,.277-.768,.123-1.581,.28-2.447,.609-.215,.082-.437,.19-.653,.287-.218,.123-.438,.24-.65,.383-.208,.159-.428,.294-.616,.484l-.287,.275c-.053,.051-.09,.09-.117,.12l-.093,.102-1.459,1.595c-.961,1.044-1.932,2.048-2.942,2.988-2.01,1.864-4.222,3.518-6.57,4.304-1.168,.377-2.346,.53-3.475,.363-.557-.063-1.141-.248-1.633-.445-.456-.195-.901-.493-1.318-.868-.841-.749-1.539-1.802-2.11-2.935-.562-1.147-1.011-2.388-1.342-3.677-.673-2.578-.955-5.306-.952-8.038,.01-5.475,1.141-10.99,3.178-16.137,2.044-5.15,5.02-9.944,8.755-14.072,.94-1.026,1.911-2.026,2.933-2.973,1.028-.942,2.124-1.807,3.249-2.63,1.117-.831,2.209-1.694,3.301-2.579,1.069-.923,2.133-1.865,3.068-3.124l.01-.014c.203-.273,.148-.654-.123-.851-.127-.092-.28-.128-.426-.111-1.567,.177-2.995,.695-4.318,1.389-1.32,.7-2.565,1.535-3.718,2.486-2.272,1.941-4.462,3.974-6.474,6.182-4.007,4.429-7.206,9.58-9.4,15.11-2.187,5.531-3.403,11.435-3.416,17.381-.001,2.971,.298,5.958,1.061,8.885,.378,1.463,.893,2.909,1.579,4.309,.706,1.39,1.576,2.761,2.852,3.913,.636,.572,1.377,1.086,2.231,1.451,.825,.334,1.618,.569,2.483,.681,1.708,.252,3.453,.01,5.018-.503,1.567-.526,2.98-1.297,4.27-2.171,1.289-.878,2.465-1.858,3.57-2.883,1.103-1.026,2.138-2.099,3.13-3.177l1.462-1.598,.09-.098c.033-.038,.058-.063,.073-.073l.105-.098c.059-.075,.16-.118,.233-.185,.086-.058,.188-.108,.281-.166,.114-.046,.216-.101,.337-.147,.979-.374,2.382-.515,3.803-.676,1.432-.161,2.941-.344,4.443-.69,3.019-.65,5.977-2.02,8.448-3.913,1.242-.942,2.373-2.003,3.415-3.123,.256-.284,.524-.559,.768-.85l.735-.873c.476-.603,.963-1.21,1.391-1.855,.876-1.276,1.663-2.625,2.268-4.05,.607-1.424,1.065-2.904,1.357-4.405,.607-2.992,.565-6.094-.473-8.925-.111-.302-.448-.453-.753-.338-.19,.072-.323,.23-.37,.413l-.002,.009Z" fill="#390075"/></g><g><path d="M112.934,92.63c-11.926,22.571,5.172,49.103,35.179,64.957,30.007,15.854,61.56,15.028,73.485-7.543,11.926-22.571-.292-58.339-30.299-74.193-30.007-15.854-66.44-5.792-78.365,16.779Z" fill="#fff"/><g opacity=".2"><path d="M147.634,157.232c30.005,15.851,61.56,15.026,73.485-7.547,.077-.14,.149-.282,.222-.428-14.33,15.523-42.042,14.536-68.55,.533-29.96-15.833-47.053-42.305-35.237-64.854-2.001,2.263-3.717,4.712-5.101,7.335-11.925,22.573,5.173,49.104,35.182,64.961Z" fill="#390075"/></g><path d="M147.339,159.052c-15.235-8.049-27.302-18.918-33.979-30.603-7.214-12.626-7.868-25.28-1.891-36.593,6.056-11.462,18.263-20.078,33.49-23.638,15.842-3.704,32.574-1.513,47.114,6.168,14.539,7.682,25.778,20.27,31.645,35.445,5.64,14.585,5.401,29.524-.655,40.987-5.977,11.313-16.799,17.903-31.295,19.058-8.005,.638-16.848-.473-25.917-3.182-6.132-1.832-12.367-4.395-18.512-7.642Zm-1.626-87.609c-14.293,3.342-25.707,11.346-31.315,21.96-10.821,20.481,3.361,46.272,34.488,62.719,6.158,3.254,12.241,5.752,18.126,7.51,23.867,7.129,44.44,2.067,53.121-14.363,10.98-20.78,.65-55.968-29.608-71.955-3.803-2.01-7.761-3.623-11.817-4.835-10.699-3.196-22.071-3.591-32.995-1.037Z" fill="#390075"/><path d="M178.725,90.233c.785,.644,1.739,1.259,2.888,1.817,5.834,2.834,9.586,.836,11.004-1.241-2.172,.426-7.915,1.243-13.892-.577Z" fill="#fe6dcb"/><path d="M176.735,88.073c.375,.571,.853,1.137,1.448,1.69,.171,.16,.35,.319,.542,.468,5.978,1.821,11.721,1.003,13.893,.577,.071-.092,.128-.193,.187-.289,.888-1.526,1.884-3.805,2.842-6.459,0,0-7.763,2.534-16.711-.397-1.018-.335-2.052-.735-3.089-1.224-.509,1.412-.493,3.535,.89,5.634Z" fill="#33aef1"/><g opacity=".6"><path d="M176.735,88.073c.704-1.537,1.444-3.006,2.2-4.41-1.018-.335-2.052-.735-3.089-1.224-.509,1.412-.493,3.535,.89,5.634Z" fill="#fff"/></g><path d="M175.845,82.439c1.038,.489,2.071,.89,3.089,1.224,8.948,2.931,16.711,.397,16.711,.397,.971-2.68,1.902-5.752,2.656-8.816,0,0-5.37,3.048-15.381,1.874-1.245-.145-2.563-.355-3.948-.647-1.377,2.24-2.463,4.283-3.079,5.833-.017,.043-.036,.09-.049,.134Z" fill="#fdd800"/><g opacity=".6"><path d="M175.845,82.439c1.038,.489,2.071,.89,3.089,1.224,1.279-2.365,2.619-4.542,3.986-6.545-1.245-.145-2.563-.355-3.948-.647-1.377,2.24-2.463,4.283-3.079,5.833-.017,.043-.036,.09-.049,.134Z" fill="#fff"/></g><path d="M178.973,76.472c1.385,.291,2.702,.502,3.948,.647,10.01,1.174,15.381-1.874,15.381-1.874,.815-3.312,1.411-6.624,1.604-9.449,0,0-4.545,2.875-10.559,3.236-1.575,.097-3.247,.021-4.969-.327-2.006,2.576-3.888,5.294-5.405,7.768Z" fill="#b177ea"/><g opacity=".6"><path d="M178.973,76.472c1.385,.291,2.702,.502,3.948,.647,2.123-3.114,4.313-5.796,6.426-8.087-1.575,.097-3.247,.021-4.969-.327-2.006,2.576-3.888,5.294-5.405,7.768Z" fill="#fff"/></g><path d="M184.447,68.472c1.722,.348,3.394,.424,4.969,.327,6.014-.361,10.559-3.236,10.559-3.236,.165-2.323,.06-4.311-.424-5.7-.312-.901-.785-1.554-1.445-1.873-2.922-1.419-8.68,4.081-13.659,10.483Z" fill="#fe6dcb"/><g opacity=".6"><path d="M183.949,68.576c1.722,.348,3.394,.424,4.969,.327,3.944-4.282,7.625-7.188,10.135-8.936-.312-.901-.785-1.554-1.445-1.873-2.922-1.419-8.68,4.081-13.659,10.483Z" fill="#fff"/></g><path d="M199.909,75.637c.891-3.619,1.461-6.984,1.651-9.728,.363-5.082-.552-8.085-2.797-9.176-4.305-2.085-10.907,4.804-15.694,10.953-2.017,2.595-3.922,5.333-5.508,7.917-1.45,2.359-2.558,4.465-3.205,6.088-.037,.089-.07,.178-.096,.267v.004c-.039,.109-.074,.22-.106,.334-.013,.045-.027,.098-.04,.15-.028,.108-.049,.197-.068,.287-.015,.071-.028,.134-.04,.198-.018,.098-.033,.193-.047,.291-.012,.08-.019,.131-.025,.182-.018,.154-.032,.31-.04,.47-.002,.029-.003,.075-.004,.121-.004,.13-.006,.252-.005,.377l.004,.138,.002,.055c.005,.115,.012,.232,.021,.35l.016,.182c.015,.139,.035,.29,.059,.443,.004,.031,.011,.075,.02,.118,.024,.146,.063,.334,.11,.523,.003,.014,.018,.072,.022,.086,.042,.164,.087,.319,.137,.477l.037,.113,.008,.026c.052,.154,.11,.309,.172,.464l.04,.101c.165,.395,.361,.783,.583,1.156,.006,.011,.036,.059,.043,.07l.051,.083c.046,.076,.092,.151,.142,.227,.036,.053,.064,.094,.094,.135l.139,.197c.098,.136,.2,.27,.305,.403,.051,.065,.096,.122,.142,.177,.102,.122,.211,.246,.323,.368l.036,.04c.044,.049,.088,.098,.134,.147,.132,.139,.268,.272,.407,.405,.044,.045,.083,.084,.126,.124,.221,.207,.436,.392,.649,.559,.889,.73,1.97,1.412,3.183,2.002,.872,.423,1.718,.752,2.533,.995,4.932,1.473,8.755-.164,10.549-2.769,.078-.108,.149-.221,.218-.333l.027-.044c.57-.979,1.158-2.191,1.771-3.644,.318-.753,.641-1.568,.96-2.421l.06-.161c.067-.179,.133-.357,.199-.541,1.018-2.809,1.953-5.917,2.705-8.987Zm-8.523,14.026h-.009c-.111,.019-.231,.036-.35,.053-.068,.01-.133,.02-.204,.029-.153,.021-.314,.041-.479,.06-.046,.005-.088,.011-.134,.017-.213,.024-.435,.048-.665,.069-.066,.006-.136,.011-.203,.017-.168,.014-.337,.029-.513,.041-.095,.007-.194,.011-.291,.017-.155,.009-.311,.019-.471,.026-.11,.005-.223,.008-.336,.012-.155,.005-.311,.01-.471,.013-.12,.002-.243,.003-.366,.004-.158,0-.318,.001-.48,0-.129-.001-.259-.004-.39-.007-.163-.004-.327-.009-.493-.016-.134-.005-.269-.011-.405-.019-.169-.009-.34-.021-.512-.033-.137-.01-.275-.02-.414-.032-.178-.016-.358-.035-.538-.054-.137-.015-.273-.028-.411-.045-.193-.024-.389-.052-.585-.081-.128-.019-.255-.035-.384-.056-.232-.038-.467-.082-.702-.126-.095-.018-.188-.033-.283-.052-.33-.067-.662-.141-.995-.223-.053-.013-.107-.03-.161-.043-.123-.093-.249-.184-.365-.28-.165-.129-.306-.251-.463-.398l-.084-.085c-.109-.105-.21-.202-.303-.3l-.119-.132c-.082-.09-.158-.175-.229-.261l-.078-.098c-.092-.116-.161-.207-.227-.298l-.142-.2c-.04-.059-.064-.099-.088-.14l-.045-.073-.031-.051c-.147-.247-.273-.496-.377-.744l-.025-.066c-.04-.098-.075-.193-.107-.287l-.007-.021-.018-.055c-.033-.104-.06-.199-.085-.294l-.015-.055c-.028-.113-.051-.223-.069-.332l-.011-.071c-.01-.066-.022-.155-.032-.243l-.007-.081c-.006-.078-.01-.138-.012-.197,.246,.094,.49,.181,.734,.267,.092,.032,.184,.068,.276,.099,.356,.121,.71,.236,1.061,.341,.03,.009,.06,.017,.09,.025,.063,.019,.125,.035,.188,.053,.323,.093,.644,.179,.963,.259,.08,.02,.16,.041,.239,.06,.363,.088,.724,.169,1.08,.242,.057,.012,.113,.022,.17,.033,.316,.062,.63,.119,.941,.17,.072,.012,.145,.024,.217,.036,.349,.055,.694,.104,1.035,.145,.056,.007,.111,.012,.167,.019,.299,.035,.595,.065,.887,.09,.069,.006,.138,.013,.206,.018,.328,.026,.652,.048,.97,.063,.056,.003,.111,.004,.166,.007,.276,.012,.547,.02,.815,.025,.066,.001,.132,.003,.197,.004,.302,.004,.598,.003,.888-.002,.057,0,.112-.003,.168-.004,.247-.005,.488-.013,.725-.024,.064-.003,.128-.005,.191-.008,.27-.014,.534-.03,.791-.049,.058-.004,.113-.009,.17-.014,.213-.017,.421-.036,.624-.057,.06-.006,.121-.012,.18-.018,.235-.025,.462-.052,.682-.08,.058-.007,.112-.015,.169-.023,.177-.024,.349-.048,.516-.074,.055-.008,.111-.017,.165-.025,.083-.013,.162-.026,.242-.04-.061,.148-.122,.304-.183,.448-.554,1.313-1.074,2.39-1.547,3.206Zm5.835-29.987c.033,.01,.065,.022,.094,.036,.469,.228,1.175,1.642,.971,5.447l-.023,.012c-.107,.055-.225,.113-.349,.174-.034,.017-.07,.034-.106,.051-.102,.049-.21,.1-.322,.152-.039,.018-.076,.036-.116,.054-.143,.065-.294,.132-.452,.201-.043,.018-.088,.037-.132,.056-.128,.054-.261,.109-.397,.164-.053,.021-.106,.043-.16,.065-.177,.07-.359,.14-.549,.21-.046,.017-.094,.034-.141,.051-.156,.056-.315,.112-.479,.168-.065,.022-.13,.044-.196,.066-.207,.068-.418,.136-.637,.201-.041,.012-.084,.024-.126,.036-.187,.055-.378,.109-.573,.161-.073,.02-.146,.039-.22,.058-.229,.059-.462,.116-.7,.17l-.079,.017c-.231,.051-.468,.098-.707,.143-.077,.014-.155,.028-.233,.042-.227,.04-.457,.077-.691,.111-.039,.006-.078,.012-.118,.018-.265,.036-.535,.067-.808,.093-.079,.008-.158,.014-.237,.021-.233,.02-.467,.036-.705,.048-.056,.003-.111,.007-.167,.009-.283,.012-.569,.016-.857,.015-.076,0-.153-.002-.229-.004-.157-.003-.315-.011-.473-.018,5.347-6.431,8.815-8.355,9.915-8.027Zm-2.974,23.365l-.048,.011-.078,.017c-.314,.07-.69,.146-1.12,.222l-.129,.022c-.214,.036-.439,.072-.677,.107-.039,.006-.079,.011-.119,.016-.227,.032-.464,.062-.711,.091-.035,.004-.068,.008-.104,.012-.266,.03-.545,.056-.831,.08-.061,.005-.122,.01-.184,.015-.297,.023-.602,.043-.918,.057l-.071,.003c-.303,.013-.616,.021-.936,.025-.059,0-.116,.002-.175,.002-.335,.002-.679-.002-1.03-.012-.061-.002-.123-.004-.184-.007-.359-.013-.723-.03-1.097-.058l-.026-.002c-.378-.028-.765-.067-1.157-.112-.069-.008-.139-.016-.208-.025-.39-.048-.786-.104-1.188-.171-.045-.007-.09-.016-.135-.024-.384-.066-.773-.142-1.166-.227-.049-.011-.098-.02-.147-.031-.41-.091-.824-.195-1.242-.31-.077-.021-.154-.043-.231-.065-.426-.121-.854-.25-1.286-.397l-.042-.015c-.367-.125-.737-.268-1.107-.413,.517-1.104,1.224-2.413,2.066-3.824,.375,.068,.745,.131,1.109,.188,.075,.012,.147,.021,.221,.032,.363,.055,.721,.105,1.073,.15,.146,.019,.289,.035,.433,.052,.283,.033,.562,.063,.837,.09,.144,.014,.288,.028,.431,.04,.296,.026,.586,.047,.874,.065,.104,.007,.211,.015,.314,.021,.381,.022,.754,.037,1.12,.048,.099,.003,.194,.003,.292,.005,.271,.006,.54,.009,.802,.008,.127,0,.251-.002,.376-.003,.235-.003,.467-.008,.695-.015,.117-.004,.235-.007,.35-.012,.268-.011,.531-.025,.789-.042,.062-.004,.126-.007,.187-.011,.314-.022,.618-.048,.916-.077,.094-.009,.183-.02,.275-.03,.207-.022,.412-.045,.611-.071,.104-.013,.205-.027,.307-.041,.191-.026,.377-.054,.561-.082,.087-.014,.176-.027,.261-.041,.257-.043,.509-.087,.751-.133l.058-.012c.228-.045,.448-.091,.662-.138,.078-.017,.152-.035,.228-.052,.153-.035,.303-.071,.448-.107,.077-.019,.152-.038,.226-.057,.147-.038,.289-.077,.428-.115,.058-.016,.117-.032,.173-.048,.067-.019,.131-.038,.196-.058-.524,1.875-1.105,3.717-1.722,5.455Zm-8.069-12.721c.22,.021,.438,.038,.655,.052,.101,.006,.202,.013,.303,.018,.248,.012,.495,.019,.739,.022,.057,0,.116,.003,.173,.004,.298,.001,.593-.004,.885-.015,.085-.003,.169-.009,.253-.013,.212-.01,.423-.023,.631-.039,.098-.008,.195-.016,.292-.024,.208-.019,.415-.04,.619-.064,.078-.009,.157-.017,.234-.027,.274-.035,.545-.074,.812-.117,.058-.009,.114-.02,.171-.03,.213-.036,.423-.074,.63-.115,.088-.017,.175-.036,.263-.054,.181-.038,.359-.077,.535-.118,.081-.019,.161-.037,.241-.056,.232-.056,.46-.114,.683-.174l.045-.012c.237-.065,.467-.132,.694-.2,.074-.022,.147-.045,.22-.068,.156-.048,.309-.097,.459-.147,.076-.025,.151-.05,.225-.075,.16-.054,.315-.109,.468-.164,.051-.018,.104-.037,.154-.055,.195-.072,.384-.144,.567-.216,.063-.025,.123-.05,.185-.074,.122-.049,.241-.098,.357-.146,.072-.03,.143-.06,.212-.09,.03-.013,.062-.026,.092-.039-.259,1.882-.661,3.97-1.193,6.179l-.014,.006c-.122,.048-.254,.1-.401,.153l-.034,.012c-.139,.051-.292,.104-.453,.157l-.078,.026c-.173,.057-.359,.115-.556,.173l-.09,.026c-.193,.056-.396,.113-.611,.168l-.051,.014c-.225,.058-.465,.115-.714,.171-.046,.01-.092,.02-.139,.031-.51,.111-1.069,.215-1.673,.307-.057,.009-.114,.017-.172,.026-.302,.044-.613,.084-.938,.12-.042,.005-.085,.008-.127,.013-.3,.032-.61,.06-.929,.084-.058,.004-.115,.009-.174,.014-.346,.024-.703,.043-1.071,.056-.073,.003-.148,.004-.222,.006-.352,.01-.713,.016-1.084,.015-.036,0-.071,0-.107,0-.393-.002-.8-.014-1.214-.031-.094-.004-.189-.008-.285-.013-.421-.02-.85-.046-1.292-.083-.039-.003-.079-.008-.118-.011-.411-.036-.834-.08-1.263-.131-.105-.012-.209-.024-.315-.038-.375-.048-.76-.105-1.148-.165,1.16-1.775,2.449-3.586,3.797-5.346,.191,.026,.381,.052,.571,.073,.1,.011,.2,.02,.3,.029Z" fill="#390075"/><path d="M163.906,76.575s5.37-21.3-2.552-25.027c-7.923-3.726-26.834,20.743-29.501,27.511,0,0,11.739,6.52,32.053-2.484Z" fill="#fff"/><path d="M164.442,76.71c1.175-1.225,1.678-2.626,2.025-4.053,.363-1.427,.51-2.895,.606-4.366,.091-1.472,.216-2.944,.251-4.434,.036-1.489,0-2.993-.165-4.516-.17-1.521-.461-3.066-1.051-4.605-.584-1.52-1.582-3.098-3.145-4.174l-.612-.352c-.104-.057-.203-.115-.311-.169l-.356-.147c-.237-.103-.484-.155-.727-.228-.243-.043-.492-.103-.732-.12-.973-.099-1.885,.021-2.715,.23-1.658,.436-3.057,1.178-4.361,1.985-2.596,1.635-4.824,3.592-6.942,5.629-2.108,2.046-4.077,4.203-5.956,6.43-1.877,2.229-3.662,4.528-5.349,6.912-.422,.596-.835,1.199-1.244,1.808-.406,.611-.869,1.186-1.289,1.798-.422,.61-.761,1.28-.994,2.013-.216,.735-.328,1.566-.037,2.504,.115,.372,.511,.581,.883,.465,.031-.01,.061-.021,.089-.034l.055-.026c.828-.391,1.362-.843,1.834-1.365,.455-.524,.847-1.088,1.177-1.698,.335-.607,.651-1.235,1.04-1.817,.385-.585,.786-1.162,1.191-1.737,1.625-2.297,3.359-4.531,5.176-6.688,1.818-2.156,3.721-4.238,5.728-6.186,2.007-1.936,4.124-3.775,6.388-5.196,1.125-.703,2.304-1.297,3.427-1.586,.558-.141,1.09-.193,1.546-.147,.118,.003,.218,.039,.329,.051,.097,.038,.207,.049,.297,.096l.142,.056,.158,.093c.106,.062,.214,.122,.323,.179,.805,.565,1.464,1.483,1.901,2.627,.438,1.142,.697,2.434,.843,3.759,.145,1.328,.179,2.697,.146,4.073-.036,1.376-.123,2.766-.342,4.144-.215,1.379-.477,2.75-.599,4.149-.148,1.396-.2,2.81,.3,4.371l.008,.024c.107,.334,.464,.518,.798,.411,.103-.033,.194-.092,.265-.165Z" fill="#390075"/><g><path d="M157.834,71.65s3.372-10.194-.121-11.604c-3.493-1.41-13.238,10.839-14.752,14.118,0,0,5.133,2.556,14.872-2.514Z" fill="#fe6dcb"/><path d="M158.333,58.509c-1.451-.587-4.061-.632-9.952,5.71-2.958,3.183-5.999,7.247-6.924,9.25-.376,.814-.036,1.778,.766,2.178,.05,.025,.341,.164,.862,.32,1.982,.592,7.307,1.425,15.514-2.848,.383-.199,.672-.54,.808-.949,.906-2.738,3.505-11.813-1.073-13.661Zm-12.814,14.578c1.166-1.739,3.042-4.16,5.029-6.331,4.055-4.43,6.158-5.233,6.575-5.165,.85,.345,.704,4.44-.658,8.896-5.252,2.611-8.928,2.814-10.945,2.6Z" fill="#390075"/></g><path d="M206.1,97.059s13.416-17.394,21.244-13.474c7.828,3.921,.298,33.915-3.371,40.197,0,0-12.384-5.192-17.873-26.723Z" fill="#fff"/><path d="M206.537,97.397c1.536-.573,2.614-1.489,3.62-2.468,1.024-.961,1.939-2.015,2.89-3.037,.947-1.025,1.985-1.953,3.044-2.832,1.061-.877,2.157-1.697,3.291-2.404,1.131-.705,2.307-1.301,3.475-1.663,1.17-.364,2.298-.415,3.24-.131,.113,.05,.226,.098,.34,.143l.171,.067,.132,.077c.093,.042,.169,.122,.259,.174,.078,.08,.168,.136,.244,.227,.318,.329,.607,.779,.841,1.305,.467,1.062,.73,2.355,.873,3.674,.283,2.657,.148,5.458-.132,8.233-.289,2.782-.748,5.565-1.318,8.327-.571,2.762-1.254,5.506-2.054,8.204-.201,.674-.406,1.346-.628,2.01-.216,.666-.514,1.303-.785,1.941-.275,.637-.476,1.293-.606,1.975-.118,.694-.143,1.393,.061,2.285l.013,.056c.087,.38,.466,.617,.846,.53,.031-.007,.066-.018,.095-.029,.917-.352,1.501-.953,1.945-1.578,.432-.637,.749-1.317,.967-2.027,.221-.708,.387-1.428,.616-2.125,.225-.698,.444-1.396,.651-2.096,.831-2.8,1.533-5.625,2.123-8.478,.588-2.853,1.065-5.735,1.369-8.657,.29-2.924,.45-5.884,.129-8.936-.173-1.524-.455-3.082-1.138-4.655-.349-.781-.819-1.573-1.499-2.276-.161-.179-.363-.337-.547-.501-.208-.146-.402-.308-.629-.431l-.335-.189c-.109-.051-.216-.094-.325-.14l-.655-.263c-1.812-.563-3.669-.371-5.225,.111-1.573,.488-2.968,1.216-4.268,2.023-1.299,.811-2.502,1.714-3.65,2.663-1.149,.949-2.228,1.958-3.328,2.94-1.097,.985-2.159,2.009-3.056,3.177-.907,1.156-1.696,2.418-1.932,4.099-.049,.347,.193,.668,.541,.717,.108,.015,.213,.002,.308-.033l.026-.01Z" fill="#390075"/><g><path d="M213.305,98.885s6.365-8.961,9.973-7.023c3.609,1.939-.115,17.275-1.867,20.502,0,0-5.716-2.552-8.107-13.48Z" fill="#fe6dcb"/><path d="M226.029,93.088c-.385-1.287-1.046-2.191-1.966-2.685-4.666-2.501-10.904,5.827-12.108,7.523-.27,.38-.367,.857-.268,1.313,2.54,11.611,8.785,14.52,9.049,14.639,.067,.03,.135,.055,.203,.075,.74,.221,1.55-.101,1.929-.798,1.664-3.067,4.688-14.954,3.161-20.067Zm-5.354,16.732c-1.584-1.419-4.124-4.515-5.586-10.568,2.502-3.33,5.915-6.39,7.272-5.985,.047,.014,.092,.033,.134,.055,.289,.163,1.171,2.013,.218,8.09-.483,3.081-1.32,6.328-2.038,8.408Z" fill="#390075"/></g><path d="M210.498,135.422c2.363,.052,4.655,.22,6.93,.502,2.271,.279,4.519,.638,6.731,1.162,2.21,.521,4.414,1.098,6.571,1.861,1.098,.336,2.162,.764,3.252,1.162,.56,.171,1.076,.43,1.622,.639,.543,.217,1.09,.432,1.656,.626-.443-.39-.905-.758-1.372-1.124-.469-.362-.936-.734-1.44-1.044-1.008-.619-2.01-1.275-3.096-1.764-2.127-1.079-4.412-1.832-6.737-2.375-2.326-.547-4.722-.783-7.103-.763-2.377,.041-4.773,.315-7.015,1.118Z" fill="#390075"/><path d="M208.461,141.023c2.266,.673,4.432,1.439,6.553,2.31,2.117,.868,4.191,1.806,6.187,2.894,1.994,1.085,3.969,2.221,5.849,3.526,.971,.613,1.885,1.306,2.831,1.978,.495,.312,.925,.698,1.396,1.044,.466,.352,.938,.704,1.432,1.04-.325-.493-.673-.97-1.027-1.446-.357-.473-.71-.955-1.115-1.387-.809-.863-1.603-1.76-2.522-2.517-1.768-1.601-3.774-2.929-5.873-4.065-2.1-1.141-4.349-1.999-6.651-2.607-2.303-.586-4.688-.954-7.061-.769Z" fill="#390075"/><path d="M204.497,147.559c2.061,1.157,4.005,2.383,5.88,3.702,1.873,1.314,3.688,2.688,5.395,4.19,1.705,1.499,3.379,3.044,4.925,4.732,.811,.813,1.549,1.691,2.323,2.555,.414,.414,.748,.885,1.131,1.327,.377,.447,.759,.893,1.167,1.331-.208-.552-.442-1.095-.682-1.637-.244-.54-.481-1.088-.78-1.599-.598-1.02-1.175-2.071-1.903-3.012-1.37-1.952-3.033-3.691-4.829-5.263-1.796-1.577-3.8-2.911-5.91-4.013-2.117-1.081-4.361-1.967-6.717-2.311Z" fill="#390075"/><path d="M140.544,108.817c-.954-2.181-2.4-4.112-4.001-5.869-1.62-1.745-3.435-3.326-5.43-4.642-1.99-1.317-4.106-2.463-6.351-3.269-1.1-.455-2.266-.733-3.408-1.041-.571-.154-1.163-.239-1.748-.331-.587-.088-1.171-.171-1.759-.226,.529,.278,1.061,.529,1.591,.775,.528,.253,1.07,.451,1.578,.741,1.038,.519,2.079,.999,3.077,1.567,2.036,1.046,3.968,2.253,5.863,3.502,1.899,1.25,3.703,2.638,5.465,4.098,1.767,1.461,3.462,3.013,5.122,4.695Z" fill="#390075"/><path d="M137.868,114.143c-1.495-1.853-3.399-3.335-5.406-4.608-2.023-1.257-4.19-2.304-6.461-3.048-2.267-.747-4.61-1.294-6.987-1.481-1.181-.149-2.379-.111-3.562-.107-.592,.002-1.185,.076-1.773,.141-.589,.07-1.175,.144-1.756,.246,.584,.129,1.163,.231,1.739,.328,.576,.106,1.151,.153,1.718,.299,1.138,.227,2.269,.416,3.381,.701,2.24,.472,4.421,1.128,6.579,1.834,2.161,.705,4.267,1.57,6.351,2.514,2.089,.944,4.133,1.994,6.178,3.18Z" fill="#390075"/><path d="M135.836,121.511c-1.867-1.477-4.052-2.501-6.291-3.299-2.25-.779-4.596-1.32-6.975-1.544-2.376-.227-4.782-.243-7.142,.1-1.185,.116-2.345,.418-3.497,.683-.576,.133-1.138,.336-1.698,.53-.559,.198-1.114,.4-1.659,.628,.598-.003,1.185-.032,1.769-.064,.585-.024,1.156-.105,1.741-.088,1.16-.03,2.305-.096,3.453-.064,2.288-.034,4.561,.123,6.822,.334,2.264,.21,4.509,.587,6.75,1.048,2.246,.459,4.472,1.031,6.728,1.736Z" fill="#390075"/><g><g opacity=".2"><path d="M160.999,130.743c1.078,4.299,3.309,6.507,5.791,7.542,4.903,2.051,10.79-.465,10.79-.465,1.799,4.756,4.135,7.316,6.486,8.594,3.897,2.119,7.844,.726,9.505-.065-10.347-2.978-12.535-10.201-12.535-10.201l-4.321-2.082c-7.381,4.442-15.468-3.095-15.715-3.324Z" fill="#390075"/></g><path d="M166.789,138.285c-.348,2.469-.424,5.435,.007,8.06,.472,2.928,1.563,5.446,3.584,6.42,2.036,.981,4.709,.262,7.309-1.209,2.35-1.331,4.649-3.277,6.375-5.142-2.35-1.278-4.686-3.838-6.486-8.594,0,0-5.887,2.516-10.79,.465Z" fill="#390075"/><g><path d="M166.796,146.345c.472,2.928,1.563,5.446,3.584,6.42,2.036,.981,4.709,.262,7.309-1.209,.23-2.499-1.172-5.043-3.687-6.254-2.522-1.215-5.404-.716-7.207,1.044Z" fill="#fb64c0"/><path d="M170.296,152.94c-1.868-.9-3.144-3.17-3.691-6.564l-.016-.099,.072-.07c1.91-1.864,4.894-2.297,7.427-1.08,2.514,1.211,4.04,3.802,3.796,6.447l-.009,.101-.089,.05c-2.505,1.417-4.718,1.946-6.478,1.561-.356-.078-.694-.193-1.011-.346Zm3.623-7.464c-2.353-1.135-5.119-.755-6.915,.938,.377,2.261,1.284,5.127,3.461,6.175,2.202,1.061,5.026-.028,7.041-1.153,.181-2.45-1.25-4.836-3.586-5.961Z" fill="#390075"/></g><g><path d="M185.583,133.165c-.354-1.751-7.295-5.393-9.228-4.445-1.933,.948-.27,6.385,2.067,7.51,2.337,1.126,7.554-1.122,7.161-3.065Z" fill="#390075"/><path d="M177.716,137.697c-2.284-1.1-3.828-4.542-3.836-7.066-.008-2.179,1.099-3.047,1.759-3.371,1.732-.85,4.508,.16,6.533,1.157,1.705,.84,4.623,2.531,5.006,4.426h0c.14,.696,.117,2.062-1.613,3.406-1.729,1.344-4.635,2.27-6.866,1.782-.347-.076-.677-.186-.984-.334Zm-.544-7.515c-.066,.286-.078,.961,.222,1.921,.435,1.397,1.218,2.414,1.734,2.663,.468,.224,1.618,.205,2.908-.273,.957-.354,1.581-.808,1.839-1.087-1.044-1.237-5.333-3.313-6.703-3.224Zm-.159,.023h0Z" fill="#390075"/><g><path d="M177.088,129.025c-.27,.561,1.226,1.842,3.342,2.862,2.116,1.019,4.051,1.391,4.321,.829,.27-.561-1.226-1.842-3.342-2.862s-4.051-1.391-4.321-.829Z" fill="#fff"/><path d="M180.338,132.076c-1.998-.963-3.821-2.351-3.44-3.143h0c.181-.376,.752-.475,1.698-.293,.833,.16,1.865,.523,2.905,1.025,1.039,.5,1.966,1.08,2.611,1.632,.731,.626,1.01,1.134,.829,1.51-.204,.425-.939,.46-1.885,.253-.817-.179-1.791-.538-2.717-.984Zm-1.822-3.023c-.875-.168-1.193-.032-1.239,.063-.139,.288,.854,1.429,3.244,2.581,2.392,1.151,3.901,1.216,4.04,.927,.046-.095-.047-.428-.724-1.008-.618-.529-1.513-1.087-2.52-1.573-.937-.452-1.864-.788-2.632-.956-.057-.013-.114-.024-.17-.035Z" fill="#390075"/></g></g><path d="M186.156,148.78c3.443,.753,6.541-.369,7.97-1.036,.03-.012,.06-.025,.089-.039,.586-.278,.936-.496,.974-.52,.7-.442,.91-1.368,.469-2.067-.441-.699-1.363-.909-2.063-.471h0s-.215,.133-.588,.313c-.027,.011-.055,.023-.082,.036-1.336,.636-4.803,1.918-8.145,.101-2.377-1.293-4.328-3.919-5.799-7.808-.145-.382-.439-.689-.815-.849-.374-.161-.8-.16-1.177,0-.051,.022-5.377,2.234-9.622,.461-2.431-1.014-4.084-3.209-4.915-6.524-.005-.019-.01-.037-.015-.055l-.01-.034c-.067-.278-.13-.566-.189-.862-.162-.811-.95-1.338-1.764-1.175-.812,.162-1.338,.952-1.175,1.764,.074,.371,.154,.729,.239,1.076,.009,.037,.019,.073,.031,.108,1.083,4.231,3.318,7.079,6.644,8.467,3.932,1.645,8.306,.717,10.517,.039,1.68,3.85,3.902,6.546,6.62,8.023,.944,.513,1.888,.848,2.808,1.049Z" fill="#390075"/><path d="M169.73,154.115c-2.269-1.093-3.795-3.697-4.413-7.527-.415-2.525-.419-5.628-.012-8.512,.065-.46,.339-.864,.743-1.093,.404-.23,.891-.259,1.32-.08,4.245,1.773,9.572-.439,9.622-.461,.377-.161,.802-.161,1.177,0,.376,.16,.67,.467,.815,.849,1.471,3.888,3.422,6.515,5.799,7.808,.406,.221,.688,.617,.763,1.074,.075,.456-.064,.922-.379,1.261-1.992,2.153-4.447,4.132-6.737,5.429-2.793,1.58-5.321,2.155-7.404,1.699-.453-.099-.886-.247-1.295-.444Zm6.999-14.407c-1.848,.567-5.208,1.307-8.559,.574-.029-.006-.059-.013-.088-.02-.156,2.047-.092,4.105,.194,5.844,.449,2.784,1.427,4.668,2.755,5.308,1.347,.649,3.45,.235,5.921-1.163,1.58-.895,3.259-2.166,4.769-3.598-1.989-1.569-3.661-3.895-4.992-6.946Z" fill="#390075"/></g><g><g><ellipse cx="202.765" cy="127.726" rx="9.49" ry="6.689" transform="translate(8.268 267.72) rotate(-67.953)" fill="#390075"/><path d="M199.131,136.699c-3.516-1.424-4.746-6.608-2.743-11.556h0c.967-2.386,2.532-4.365,4.409-5.573,1.897-1.222,3.887-1.512,5.602-.817,3.516,1.424,4.746,6.607,2.743,11.555-1.87,4.617-5.905,7.422-9.293,6.619-.243-.057-.483-.133-.718-.228Zm1.872-16.808c-1.811,1.166-3.324,3.082-4.261,5.396h0c-1.925,4.753-.788,9.714,2.533,11.059,3.33,1.343,7.59-1.428,9.514-6.181,1.925-4.753,.788-9.714-2.533-11.059-.219-.089-.443-.16-.671-.214-1.436-.34-3.037,.004-4.582,.998Z" fill="#390075"/></g><g><ellipse cx="206.873" cy="127.958" rx="3.187" ry="2.021" transform="translate(10.62 271.673) rotate(-67.953)" fill="#fff"/><path d="M205.606,131.088c-1.13-.458-1.481-2.235-.782-3.961,.333-.822,.851-1.515,1.46-1.95,.635-.454,1.296-.578,1.857-.35,.563,.228,.95,.776,1.09,1.544,.134,.736,.025,1.595-.308,2.417-.656,1.62-2.007,2.628-3.105,2.368-.072-.017-.143-.039-.212-.067Zm.9-5.601c-.551,.394-1.023,1.027-1.329,1.783h0c-.62,1.531-.364,3.085,.572,3.464,.937,.387,2.201-.559,2.821-2.09,.306-.756,.408-1.539,.287-2.205-.116-.635-.421-1.082-.859-1.259-.053-.021-.107-.039-.162-.052-.403-.095-.869,.029-1.33,.359Z" fill="#390075"/></g></g><g><g><ellipse cx="164.186" cy="111.316" rx="9.49" ry="6.689" transform="translate(-6.725 212.002) rotate(-64.64)" fill="#390075"/><path d="M160.039,120.064c-3.428-1.625-4.356-6.871-2.07-11.695h0c1.103-2.326,2.78-4.211,4.723-5.309,1.965-1.11,3.968-1.285,5.64-.492,3.428,1.625,4.356,6.87,2.071,11.694-2.134,4.501-6.324,7.068-9.66,6.071-.239-.071-.474-.161-.703-.27Zm2.84-16.672c-1.875,1.059-3.497,2.885-4.566,5.141h0c-2.196,4.634-1.349,9.652,1.889,11.187,3.247,1.534,7.66-.987,9.856-5.62,2.196-4.634,1.349-9.652-1.889-11.186-.214-.102-.433-.186-.658-.253-1.414-.422-3.032-.171-4.632,.732Z" fill="#390075"/></g><g><ellipse cx="167.924" cy="111.799" rx="3.187" ry="2.021" transform="translate(-5.025 215.656) rotate(-64.64)" fill="#fff"/><path d="M166.477,114.851c-1.102-.523-1.349-2.316-.552-3.999,.38-.801,.937-1.463,1.57-1.863,.66-.416,1.328-.502,1.874-.242,.549,.26,.904,.83,.999,1.604,.092,.743-.067,1.593-.447,2.395-.749,1.579-2.156,2.507-3.237,2.184-.071-.021-.14-.048-.208-.08Zm1.222-5.539c-.573,.361-1.081,.966-1.429,1.703h0c-.708,1.493-.542,3.059,.37,3.491,.913,.441,2.23-.431,2.937-1.923,.349-.737,.496-1.513,.414-2.185-.079-.64-.358-1.104-.785-1.306-.052-.024-.104-.045-.159-.061-.397-.119-.869-.021-1.349,.281Z" fill="#390075"/></g></g></g></svg>