<svg id="Layer_1" data-name="Layer 1" xmlns="http://www.w3.org/2000/svg" viewBox="0 0 4000 2000"><path d="M1486.18,1257.1l-35.7,141.5c-349.74-27.15-456-229.33-547.51-335.6-66.11-76.79-138.14-77.3-173-71.6a115,115,0,0,0-21.29,5.18l-83.16,25.59c-38,11.66-78.55,13.47-117,3.37C416.7,1001.4,403.59,932.64,426.34,867,443,818.7,479.5,779.84,525.4,757.46c77-37.46,160.26-44.93,241.14-31.92C928.41,751.45,1080.48,859.12,1151.88,971Z" fill="#ff6f0d"/><path d="M1293.32,1466.55c11.22-38.64,44.08-84.25,44.08-84.25l108.77,16.3-26.1,109.15" fill="#fff"/><g opacity="0.3"><path d="M1293.32,1466.55c11.22-38.64,44.08-84.25,44.08-84.25l108.77,16.3-26.1,109.15" fill="#000072"/></g><path d="M730,991.4a115,115,0,0,0-21.29,5.18l-83.16,25.59c-38,11.66-78.55,13.47-117,3.37C416.7,1001.4,403.59,932.64,426.34,867,443,818.7,479.5,779.84,525.4,757.46c77-37.46,160.26-44.93,241.14-31.92C766.54,725.54,627.74,844.56,730,991.4Z" fill="#fff"/><g opacity="0.3"><path d="M1483.18,1269.06l-32.7,129.54c-349.74-27.15-456-229.33-547.51-335.6-66.11-76.79-138.14-77.3-173-71.6a115,115,0,0,0-21.29,5.18l-83.16,25.59c-38,11.66-78.55,13.47-117,3.37C416.7,1001.4,403.59,932.64,426.34,867a185.07,185.07,0,0,1,42.17-68.24c2.18,43.89,27.93,82.18,91.76,99,38.45,10.1,79,8.29,117-3.37l83.16-25.6a116,116,0,0,1,21.3-5.18c34.87-5.7,106.89-5.18,173,71.61C1044.58,1039.48,1148.62,1236.21,1483.18,1269.06Z" fill="#000072"/></g><path d="M913.05,771.33s-52,65.69-51.51,131.1c0,0,0,.56-.07,1.58-1.54,53.2,58.5,85.41,102.32,55.21,48.58-33.48,97.3-67.92,138.67-51.53" fill="#000072"/><g opacity="0.6"><path d="M1486.18,1257.1l-6.78,27-327.52-280.26c-71.4-111.92-223.47-219.59-385.34-245.49-80.88-13-164.19-5.55-241.14,31.91C479.5,812.64,443,851.5,426.34,899.79a173.89,173.89,0,0,0-8.66,36.73c-3.05-22.12.52-46,8.66-69.53C443,818.7,479.5,779.84,525.4,757.46c77-37.46,160.26-44.93,241.14-31.92C928.41,751.45,1080.48,859.12,1151.88,971Z" fill="#fff"/></g><path d="M1234.59,1199.5s-17.27,127.8,38.86,119.17,65.25-63.27,146.62-55.82-82.71-69.74-82.71-69.74" fill="#000072"/><path d="M3061.32,1676l-145.81-110,50.47-16.17,173.78-55.8c49.85,9.69,85.19,25.18,108.66,43.57C3360.9,1625.65,3201.11,1779.74,3061.32,1676Z" fill="#fff"/><path d="M1834.05,1895.24c-97,122.33-254.59,10.75-254.59,10.75l146.93-94.2" fill="#ff6f0d"/><g opacity="0.3"><path d="M1834.05,1895.24c-97,122.33-254.59,10.75-254.59,10.75l146.93-94.2" fill="#000072"/></g><line x1="1579.46" y1="1905.99" x2="1726.39" y2="1811.79" fill="#f47414"/><path d="M3009.19,1815.7c-61.6,28.65-149.84,27.2-201.19-26.38a358.68,358.68,0,0,1-49.27,27.21c-105.86,48.13-239.33,48.75-391.14,17.67-2.28,1.29-4.51,2.59-6.79,3.88-185.7,105.55-370.62,113.21-554.93,47.72a915,915,0,0,1-96.78-41c-.16-.06-.26-.16-.42-.21l-5.28,3.42c-7.93,5.08-15.75,9.89-23.53,14.45,0,0-.1.06-.15.06-6,3.52-12,6.89-17.93,10-146.94,78.39-273.11,54.61-368.45-121-1.76,1.24-3.57,2.38-5.44,3.47-86.63,52.33-259.89-9.48-207.77-173.06a140.13,140.13,0,0,1,16.89-35.28,132.09,132.09,0,0,1,26.22-28.86,210.66,210.66,0,0,1,53.06-31.3c50.72-20.83,126.58-30.26,232.74,7.57,0,0,.06-7.2,1-19.43,3.11-38.71,15.29-127.88,62.75-199.17a250.5,250.5,0,0,1,29.48-36.64c91.55-93.68,564.77,32.44,564.77,32.44l848,298.34,15.9,5.6C3130,1674.3,3096.24,1775.13,3009.19,1815.7Z" fill="#ff6f0d"/><path d="M1414.39,1557.87c71.91,75.35,193,25.77,174.42-19-2.37-5.72-7-10.12-12.29-13.33-80.68-48.9-137.59-183-137.59-183l-24.54,124" fill="#000072"/><path d="M1414.37,1603.42c-56.22,10.1-99.07,53-124.2,139.32l-2.28,12.18c-86.63,52.33-259.89-9.48-207.77-173.06,8-25.07,22.7-47.56,43.11-64.14,42.54-34.56,132.59-78.29,285.8-23.73,0,0,.06-7.2,1-19.43Z" fill="#fff"/><g opacity="0.3"><path d="M3061.32,1676l-145.81-110,50.47-16.17,36.32,9.79c11.92,46.74,286.12,142.28,246.12-22C3360.9,1625.65,3201.11,1779.74,3061.32,1676Z" fill="#000072"/></g><path d="M1565.77,1304c0,1.81,18,153.61,125.08,200.61,25.47,11.17,54-8.85,52.47-36.62l-.09-1.43c-3.24-47.93,5.18-95.85,5.18-95.85" fill="#000072"/><path d="M1604.2,1888.62c-109.67-68.22-55.27-184.8,0-145.89s149,35.32,149.28,34.44c0,0-14.78,55.32-64.65,76.69" fill="#000072"/><g opacity="0.3"><path d="M2183.8,1585.85s-333.16-22.28-471.92-133.31-266.58,84.19-223.42,270.93c0,0-72.53-14.15-155.44-123.52s-157.15-111.14-157.15-111.14.16-.83.42-2.39c50.72-20.83,126.58-30.26,232.74,7.57,0,0,.06-7.2,1-19.43,3.11-38.71,15.29-127.88,62.75-199.17l310.72,67.15Z" fill="#000072"/></g><path d="M2527.11,1645.09c-131.17,161.55-184.36,120.46-189.61-45.17L2446,1628.23" fill="#000072"/><path d="M2808,1789.32a358.68,358.68,0,0,1-49.27,27.21l-10-3c-97.21-56.06-32.28-177.93-32.28-177.93s112.54-38.86,198.6-66.06l15.9,5.6C3270.85,1744.4,2931.94,1918.6,2808,1789.32Z" fill="#fff"/><path d="M2360.8,1838.08c-218.24,124-435.39,112.9-651.71,6.69,16.37-12.49,39.53-36.9,48.55-79.64,147.51,99.74,404,60.21,465.75-35.86Z" fill="#fff"/><path d="M2037.4,1940.73h0c-105.69,0-215.93-27.35-327.79-81.3-93.81,60.2-174.79,80.59-247.37,62.34-67-16.84-125.4-68.06-173.71-152.31-50.77,26.72-124.41,20.45-174.31-16.51-52.56-38.92-69.47-102.72-46.43-175,9-28.16,25.33-52.46,47.28-70.27,40.79-33.1,130.69-79.88,281.86-31.44,3.25-45.49,19.1-167.68,96.12-246.49,41-42,151.36-49.64,327.93-22.67,129,19.69,248.24,51.3,249.43,51.62a13,13,0,0,1-6.67,25c-129.6-34.52-481.44-108.25-552.17-35.87-86.9,88.92-89.56,244.72-89.57,246.29a13,13,0,0,1-17.3,12.06c-149.21-53.12-235.27-9.27-273.3,21.59-18,14.62-31.48,34.69-38.92,58-26.67,83.64,11.84,127.6,37.16,146.35,45.69,33.84,114.36,37.65,156.32,8.67a13,13,0,0,1,18.75,4.48c46,84.66,101.08,135.59,163.84,151.37,65.83,16.54,144.24-4.61,233-62.9a12.94,12.94,0,0,1,12.82-.8c229.49,112.8,441,109.54,646.68-9.93a12.91,12.91,0,0,1,9.1-1.49c187.92,38.44,328.8,24.36,430.67-43a13,13,0,0,1,16.5,1.84c45.37,47.31,121.75,48.17,173.52,28.94,44.68-16.6,72.4-46,74.13-78.53,2.49-46.73-47.17-97.87-139.83-144a13,13,0,0,1,11.55-23.19c131.34,65.4,156.32,127.77,154.15,168.57-2.3,43.22-36.32,81.14-91,101.45-58.58,21.76-139.54,20.89-193.53-27.82-106.16,66-249.15,79.75-436.55,42.14C2262.26,1909.5,2150.44,1940.73,2037.4,1940.73Z" fill="#000072"/><path d="M2506,1548.34c-9.59,10.26-22.75,18.76-39.95,25.08-225.39,82.9-253.94,27.15-619.17-158-274.77-139.33-613.63-196.58-764.61-216.43-49.75-6.48-79.07-9-79.07-9,77.25-239.12,242.69-333.42,547.46-198.6,50.1-153.74,197.77-191.3,197.77-191.3l472.39,241.61S2622.25,1424.56,2506,1548.34Z" fill="red"/><g opacity="0.6"><path d="M2233.44,1054,1758,823.88s-123.12,34.19-179.73,158.78c-9.06,20-32.29,29-52.85,21.44-267-98.27-417.8-14.83-491.78,189-19.58-2.18-30.41-3.11-30.41-3.11,77.25-239.12,242.69-333.42,547.46-198.6,50.1-153.74,197.77-191.3,197.77-191.3l472.39,241.61S2225.36,1046.06,2233.44,1054Z" fill="#fff"/></g><path d="M2300.52,1624c-84.66,0-158.52-39.11-302.22-115.19-45.15-23.9-96.31-51-157.3-81.91-358.68-181.88-834.16-223.64-838.93-224A12.95,12.95,0,0,1,990.83,1186C1031,1061.88,1094.25,979.72,1179,941.79c93.46-41.84,215.89-31,364.08,32.16,55.46-147.5,196-184.85,202.17-186.41a13,13,0,0,1,6.39,25.11c-2.3.61-141.61,38.43-188.64,182.74a12.93,12.93,0,0,1-17.55,7.83c-147-65-266.7-77.7-355.86-37.78-75.39,33.75-130.76,103.58-168.95,213.25,87.44,9.15,506.75,60.16,832.11,225.14,61.19,31,112.46,58.18,157.7,82.13,222.57,117.83,268.91,142.34,451.14,75.3,29.07-10.69,45.71-28,50.87-52.81,29.23-140.85-297.29-454.25-300.59-457.4a13,13,0,0,1,17.88-18.74c13.91,13.26,340.2,326.57,308.07,481.39-7,33.85-29.66,58-67.29,71.88C2400.44,1611.35,2348.72,1624,2300.52,1624Z" fill="#000072"/><path d="M1557,980.08c27.68,16.51,54.64,33.48,81.51,50.89s53.33,35.28,79.55,53.57,52,37.2,77.47,56.53,50.23,39.61,74.51,60.42a5.18,5.18,0,0,1-6.57,8l-.07,0q-37.37-29.48-76.3-56.89c-26-18.14-52.34-35.91-79.13-53s-53.77-33.74-81.07-49.93-54.91-32-82.58-47l-.13-.07a13,13,0,1,1,12.35-22.78Z" fill="#000072"/><g opacity="0.3"><path d="M2506,1548.34c-9.59,10.26-22.75,18.76-39.95,25.08-225.39,82.9-253.94,27.15-619.17-158-274.77-139.33-613.63-196.58-764.61-216.43.67-1.14,1.34-2.33,2.07-3.47,162.38-265.7,399-66,637.31,32.49s145.07-164.93,145.07-164.93l366.74,86.48c40.31,26.89,63.32,59.48,236.06,335.8C2484.37,1509.12,2496.39,1530,2506,1548.34Z" fill="#000072"/></g><path d="M3189.45,1465.23c-333.11,203.16-758,242.9-1008.39,51.19-105.34-80.88-176.27-206.63-210.73-380-149.9-92.28-258.45-209.89-311.4-361.6-12.85-36.74-.1-77.57,30.83-101.2,63.52-48.55,197.82-121.34,444.66-138.23,225.39-254.77,715-354.72,1023.32-29.38,0,0,76.43,85.49,129.54,231.86,17.41,47.93,32.95,84.15,46.06,111.25a534.6,534.6,0,0,0,25.85,48c23.74,38.65,41.51,80.88,50.57,125.33C3433.44,1138.24,3422,1311.55,3189.45,1465.23Z" fill="#ff6f0d"/><path d="M2417.78,347.14c19.06-92,35.93-187.22,76.95-246.8A85.32,85.32,0,0,1,2599.62,71c81.05,35.94,245.87,124.94,371.69,296.7" fill="#ff6f0d"/><g opacity="0.6"><path d="M2971.32,367.71l-23.16-.88c-121.77-150-270.31-229.79-346-263.31a85.36,85.36,0,0,0-104.87,29.38C2461.06,185.54,2443.7,266,2427,347.51l-9.23-.37c19.07-92,35.91-187.2,76.95-246.78A85.36,85.36,0,0,1,2599.61,71C2680.7,106.94,2845.51,196,2971.32,367.71Z" fill="#fff"/></g><path d="M2156.76,511.55s-56,61.22-74.15,131.17Q2419.89,679.8,2156.76,511.55Z" fill="#000072"/><path d="M2240.82,440.11q96.32,38.24,192.63,94.06c39.64,23,85.25-18.18,66.71-60.08-15.5-35-45.62-75.89-92.11-123.32" fill="#000072"/><path d="M2488.9,324.91c50.16,26.83,98.94,61.31,146.68,101.54,22.38,18.86,56.39,0,52-28.89-4.73-30.8-18.32-62.74-44-96.24" fill="#000072"/><g opacity="0.6"><path d="M3414.38,1049.37c-9.49-41.65-26.53-81.24-49-117.72-15.65-25.44-40.93-73.83-71.86-159.22C3240.44,626.06,3164,540.57,3164,540.57c-308.29-325.34-797.93-225.39-1023.32,29.37-246.84,16.89-381.14,89.74-444.66,138.29a90.59,90.59,0,0,0-35.75,70.37c-.47-1.25-.93-2.49-1.35-3.73-12.85-36.74-.1-77.57,30.83-101.2,63.52-48.55,197.82-121.34,444.66-138.23,225.39-254.77,715-354.72,1023.32-29.38,0,0,76.43,85.49,129.54,231.86,31,85.39,56.21,133.73,71.91,159.23,23.74,38.65,41.51,80.88,50.57,125.33Q3412.42,1035.47,3414.38,1049.37Z" fill="#fff"/></g><path d="M2866,1102.08s-124.15,55.27-118.44,147.12,117.37,133.53,243.16,76.6c133-60.19,139.18-230.6,38.14-253.59C3028.81,1072.21,2959.44,1056.79,2866,1102.08Z" fill="#fff"/><path d="M2605.93,304l-5.5-101.44a24.28,24.28,0,0,1,35.84-22.68c42.71,23.24,117.15,68.3,201.73,139.54" fill="#ff69b8"/><g opacity="0.3"><path d="M2838,319.48l-79.9-5.34c-50.51-36.37-93.26-61.66-121.81-77.2a24.24,24.24,0,0,0-33.42,10.62l-2.43-45a24.26,24.26,0,0,1,35.85-22.64C2679,203.15,2753.44,248.23,2838,319.48Z" fill="#000072"/></g><path d="M1975.1,1021.6c-14.23-126.5-1.7-236,42.74-325.13C1707,744.4,1718.62,807.87,1975.1,1021.6Z" fill="#ff69b8"/><g opacity="0.3"><path d="M2017.84,696.47q-25.26,50.76-37,110c-117-22-174.87-13.67-185.19,34.1C1753.34,763.47,1820.85,726.84,2017.84,696.47Z" fill="#000072"/></g><path d="M3003.33,688.86,3057.69,633a60.48,60.48,0,0,0,9.73-12.89c13.15-23.87,10-39.62-11.94-46-18-5.26-37.36-1.43-53,8.78-78.78,51.32-85.22,136.75-28.5,123.24C2985.19,703.44,2995.26,697.15,3003.33,688.86Z" fill="#fff"/><path d="M2541.81,831.67l-77.87,2.42a60,60,0,0,1-16.09-1.53c-26.48-6.41-36-19.38-25.91-39.89,8.24-16.8,24.16-28.52,42.28-33.2,91.05-23.48,158.42,29.44,110.16,62.16C2564.81,828.12,2553.37,831.31,2541.81,831.67Z" fill="#fff"/><path d="M2942.83,1074.17c-42.23-7.89-84.73,19.52-100.67,43.43-6.2,9.3-1.25,21.9,9.52,24.87,52.57,14.51,89,1.66,104.05-47.37A16.5,16.5,0,0,0,2942.83,1074.17Z" fill="#000072"/><path d="M2926.45,1128.63c4.76,8.79,9.07,17.79,13.58,26.69l6.49,13.48,1.58,3.39.92,2.06c.36.83.73,1.65,1,2.5a47.79,47.79,0,0,1,2.6,10.49,46.3,46.3,0,0,1-2.33,21.46,44.21,44.21,0,0,1-4.89,9.8,86.57,86.57,0,0,1-5.21,7,113.68,113.68,0,0,1-25,22.79,103.82,103.82,0,0,1-30.88,14.12c-11.16,2.76-23.55,3.91-35.75-.08a44.33,44.33,0,0,1-27.16-24.46c-4.66-10.92-5.74-22-5.16-32.51a5.53,5.53,0,0,1,11-.65l0,.14c1.62,9.34,4.16,18.38,8.81,25.19a26.77,26.77,0,0,0,17.95,12.11c7.19,1.34,15.41-.11,23.25-2.94a86.93,86.93,0,0,0,22.32-12.74,95.91,95.91,0,0,0,18-18.56c1.28-1.64,2.43-3.59,3.51-5.14a15.84,15.84,0,0,0,1.64-3.63,18.89,18.89,0,0,0,.62-8,17.41,17.41,0,0,0-1-4c-.1-.33-.26-.64-.39-1l-.22-.5-.4-.85-1.6-3.38-6.22-13.61c-4-9.16-8.13-18.22-11.85-27.5a13.76,13.76,0,0,1,24.87-11.67Z" fill="#000072"/><path d="M2945,1168.29l1.53,2.81,1.26,2.13a39.25,39.25,0,0,0,2.69,4,40.78,40.78,0,0,0,6.81,6.9,41.28,41.28,0,0,0,37.6,7.5,84.64,84.64,0,0,0,10-4.2,81.7,81.7,0,0,0,9.46-6,60.24,60.24,0,0,0,15.18-16,39.47,39.47,0,0,0,6.22-20,35.59,35.59,0,0,0-6.12-20c-3.94-6.35-10.21-11.33-16.54-16.1l-.45-.35a5.48,5.48,0,0,1,6.23-9c7.63,4.82,15.43,10,21.29,17.76a49.8,49.8,0,0,1,10.7,27.27,55.57,55.57,0,0,1-6.36,28.85,78.22,78.22,0,0,1-18,22.47,99,99,0,0,1-11.44,8.62,101.6,101.6,0,0,1-13.05,6.75,63.93,63.93,0,0,1-30.48,3.87,67,67,0,0,1-41.08-21.08,62,62,0,0,1-5-6.18l-2.25-3.2-1.75-2.67a13.75,13.75,0,0,1,23-15.09C2944.62,1167.65,2944.82,1168,2945,1168.29Z" fill="#000072"/><path d="M2592.28,1653.86c-165.87,0-309.8-43.48-419.1-127.15-107.32-82.38-179.44-210.94-214.43-382.19-158.6-98.72-260.7-218.27-312.07-365.37-14.64-41.95-.49-88.47,35.22-115.76,71.58-54.7,207-123.27,446.37-140.53,127.67-141.71,332.58-231.69,536.23-235.17,136.52-2.35,334.62,32.12,502.65,209.46,3.44,3.84,79,89.32,132.31,236.35,30.55,84.23,55.33,131.79,70.74,156.86,25.66,41.72,43.25,85.3,52.28,129.53,36.67,179.41-39.32,332.89-225.86,456.17-167,101.88-359.22,164.22-541.54,175.78Q2623.21,1653.87,2592.28,1653.86Zm84.79-1340.37q-6.15,0-12.13.1C2466.43,317,2266.87,405.27,2144.13,544a12.94,12.94,0,0,1-8.82,4.34c-248.69,17-381,92.29-437.67,135.63-26.8,20.48-37.45,55.3-26.5,86.64,49.84,142.72,149.93,258.78,306,354.81a13,13,0,0,1,5.92,8.51c33.29,167.67,102.56,292.9,205.89,372.22,117.82,90.19,278.47,131.62,464.5,119.83,178.2-11.29,366.17-72.3,529.29-171.78,176.45-116.63,248.71-261.1,214.37-429.13-8.43-41.25-24.9-82-49-121.14-16-26.1-41.73-75.32-73-161.59-51.66-142.38-126.27-226.81-127-227.65C2991.69,349.64,2807.84,313.49,2677.07,313.49ZM2134.42,535.42h0Z" fill="#000072"/><path d="M2971.32,380.65a13,13,0,0,1-10.46-5.3c-122.73-167.54-282.3-255.18-366.5-292.5a72.37,72.37,0,0,0-89,24.84c-36.13,52.47-53.46,137.2-70.22,219.13q-2.35,11.49-4.71,22.95a13,13,0,0,1-25.37-5.25q2.36-11.43,4.7-22.89c17.27-84.47,35.14-171.82,74.26-228.64a98.28,98.28,0,0,1,120.8-33.83c86.56,38.37,250.61,128.49,376.9,300.88a12.95,12.95,0,0,1-10.44,20.61Z" fill="#000072"/><path d="M2838,332.41a12.93,12.93,0,0,1-8.34-3C2748,260.55,2676,216.3,2630.08,191.3a11.32,11.32,0,0,0-16.71,10.6l5.5,101.44a13,13,0,0,1-25.87,1.4l-5.5-101.44a37.23,37.23,0,0,1,55-34.76c47,25.58,120.52,70.8,203.89,141a13,13,0,0,1-8.35,22.86Z" fill="#000072"/><path d="M1975.1,1034.56a12.88,12.88,0,0,1-8.29-3c-135.07-112.55-210.12-189.06-194-247,13.23-47.65,81.39-75.93,243.08-100.86a13,13,0,0,1,13.57,18.58c-41.81,83.85-55.76,190.81-41.47,317.9a13,13,0,0,1-12.87,14.41Zm20.82-321.46c-127.67,21.29-189.09,45.69-198.17,78.36-12,43.09,67.43,120.14,161.45,199.86C1950.79,883.59,1963.11,790.25,1995.92,713.1Z" fill="#000072"/><path d="M3344.53,882.48c2-2.5,3.53-4.09,5.3-5.94s3.45-3.46,5.19-5.15c3.52-3.29,7.06-6.51,10.76-9.45s7.39-5.91,11.23-8.61c3.75-2.85,7.71-5.35,11.62-7.91a308.5,308.5,0,0,1,49.44-25.36c8.63-3.24,17.18-6.63,26-9.14,8.7-2.93,17.62-5,26.48-7.18,4.41-1.2,8.91-2,13.39-2.81l13.42-2.48c9-1.34,18-2.32,27-3.49a5.18,5.18,0,0,1,1.73,10.2l-.37.08c-8.68,1.78-17.38,3.36-26,5.28l-12.8,3.35c-4.26,1.1-8.53,2.16-12.69,3.63-8.36,2.7-16.74,5.3-24.82,8.7-8.23,3-16.09,6.8-24,10.43a288.92,288.92,0,0,0-44.26,26.89c-3.41,2.61-6.86,5.14-10.05,8s-6.47,5.53-9.51,8.45-6,5.91-8.81,8.94c-1.36,1.54-2.8,3.06-4,4.61s-2.65,3.28-3.36,4.33l-.1.14a13,13,0,0,1-21.41-14.64C3344.1,883,3344.32,882.74,3344.53,882.48Z" fill="#000072"/><path d="M3405,996.7c9.1-.84,17.12-.94,25.58-.94s16.65.45,24.92,1.08a366.1,366.1,0,0,1,49.11,7c8.11,1.5,16.07,3.78,24.05,5.78,7.88,2.46,15.83,4.59,23.52,7.57,15.58,5.29,30.46,12.42,45,19.86a5.18,5.18,0,0,1-4.31,9.41l-.25-.11c-14.65-6-29.41-11.71-44.74-15.56-7.55-2.26-15.33-3.68-23-5.41-7.77-1.29-15.48-2.86-23.31-3.65a346,346,0,0,0-46.91-2.87c-7.82,0-15.62.35-23.37.87s-15.7,1.42-22.57,2.62l-.35.06a13,13,0,1,1-4.46-25.55A9.44,9.44,0,0,1,3405,996.7Z" fill="#000072"/><path d="M2207.56,1388.17a183,183,0,0,0-18.75,1.9c-6.43,1-12.86,2.12-19.26,3.54a307.07,307.07,0,0,0-167.32,99.86,348.12,348.12,0,0,0-44.48,66.65l0,0a5.18,5.18,0,0,1-9.32-4.52,361.07,361.07,0,0,1,42.78-71.18,322.25,322.25,0,0,1,59.56-58.73,332.68,332.68,0,0,1,113.09-55.38c6.83-1.87,13.75-3.46,20.74-4.85a204.85,204.85,0,0,1,21.79-3.2,13,13,0,0,1,2.23,25.83l-.58,0Z" fill="#000072"/><path d="M2306.07,1517.62c-1.93.94-4.72,2.48-7.1,3.92s-4.93,3-7.37,4.67c-4.86,3.28-9.6,6.81-14.23,10.5a227.76,227.76,0,0,0-25.84,24.55,230.48,230.48,0,0,0-39,60.06,253.2,253.2,0,0,0-19.66,69.75,327.82,327.82,0,0,0-1.46,73.46,5.19,5.19,0,0,1-10.3,1.19,340.56,340.56,0,0,1-2.4-76.23,269.5,269.5,0,0,1,17.08-75.15,250.54,250.54,0,0,1,66.06-95.87c4.92-4.37,10-8.58,15.32-12.57,2.67-2,5.38-3.94,8.18-5.81s5.46-3.6,9.06-5.59a13,13,0,1,1,12.56,22.67c-.19.11-.39.21-.59.31Z" fill="#000072"/><g opacity="0.3"><path d="M1979.71,1008.55a442.61,442.61,0,0,0,5.62,92.92c34.46,173.32,105.39,299.07,210.73,380,250.41,191.71,675.28,152,1008.39-51.19,100.07-66.11,159.16-135.86,192.17-203.09q-5.35,14.56-12.29,29.36c40.92-87,38.64-169.45,25.43-234-9.06-44.45-26.83-86.68-50.56-125.33a531.64,531.64,0,0,1-25.86-48l-8.4,2.59c123.7,608-1057.53,863.61-1345.26,156.72Z" fill="#000072"/></g><path d="M2598.29,919.9c-62.59-8.38-121.42,52.41-131.39,135.78s32.68,157.72,95.28,166.1,121.43-52.42,131.4-135.78S2660.89,928.27,2598.29,919.9Z" fill="#000072"/><path d="M2593.36,954.79c-20.09,6.87-29.12,35-20.16,62.87s32.49,44.86,52.58,38,29.12-35,20.17-62.88S2613.45,947.91,2593.36,954.79Z" fill="#fff"/><path d="M2523.43,1132.07c-9.55,6.06-10.94,21.72-3.1,35s21.94,19.1,31.5,13,10.94-21.72,3.09-35S2533,1126,2523.43,1132.07Z" fill="#b199c5"/><path d="M3056.37,766.3c52.19-29.19,125.18,3.83,163,73.75s26.19,150.26-26,179.45-125.17-3.83-163-73.75S3004.18,795.48,3056.37,766.3Z" fill="#000072"/><path d="M3072.87,795.3c20.08-.95,37.84,20.68,39.67,48.32s-13,50.83-33.06,51.78-37.84-20.69-39.67-48.33S3052.79,796.25,3072.87,795.3Z" fill="#fff"/><path d="M3196.23,927c10.52,2,17.2,15.31,14.92,29.72s-12.67,24.47-23.19,22.46-17.2-15.31-14.92-29.72S3185.71,925,3196.23,927Z" fill="#b199c5"/><g opacity="0.3"><path d="M1592.74,1016S1670,825.37,1831,1176.72" fill="#000072"/></g><path d="M1422,1494.54c-1.14,13.74-1.74,28.08-2,42.16s-.11,28.3.63,42.39a351.81,351.81,0,0,0,4.29,41.92c2.37,13.74,5.47,27.46,11.18,39.78l0,.11a5.19,5.19,0,0,1-9.2,4.77c-7.61-13.21-12.14-27.44-16-41.66a365.37,365.37,0,0,1-8.42-43.16c-2.08-14.48-3.56-29-4.59-43.53s-1.75-29-1.86-43.92a13,13,0,0,1,25.94-.19c0,.39,0,.77,0,1.15Z" fill="#000072"/><path d="M1702.05,1833.45a29.93,29.93,0,0,0,3.29-2.29c1.31-1.05,2.65-2.22,4-3.38l3.9-3.79,3.73-4.16a143.46,143.46,0,0,0,13.4-18.6,215.11,215.11,0,0,0,19.86-43c2.89-7.48,4.82-15.34,7.15-23.08,2.06-7.82,3.73-15.77,5.55-23.69,1.36-8,2.87-16,4.12-24.12l3-24.38,0-.25a5.18,5.18,0,0,1,10.31.86l-1.09,25.06c-.63,8.35-1.53,16.69-2.29,25.07-1.23,8.32-2.32,16.69-3.82,25-1.79,8.28-3.18,16.65-5.61,24.85a234.3,234.3,0,0,1-18,48.44,165.27,165.27,0,0,1-13.86,22.77l-4.15,5.42-4.58,5.25c-1.65,1.71-3.31,3.4-5.1,5.07a52.19,52.19,0,0,1-6.55,5.24l-1.77,1.18a13.17,13.17,0,0,1-14.64-21.89A14,14,0,0,1,1702.05,1833.45Z" fill="#000072"/><path d="M2211,1708.35c11,12,23.71,23.21,36.53,33.79s26.37,20.51,40.1,30,27.89,18.37,42.3,26.79c7.13,4.32,14.54,8.21,21.77,12.33l22.15,11.62.36.19a13,13,0,0,1-12,23c-.29-.15-.59-.33-.86-.5l-21.85-13.69c-7.13-4.81-14.4-9.37-21.39-14.37-14.12-9.77-27.87-20.08-41.27-30.8s-26.32-22-38.72-33.9-24.26-24.09-35.16-38a5.18,5.18,0,0,1,7.87-6.71Z" fill="#000072"/><path d="M2798,1797.58l-23.38-40.37a5.26,5.26,0,0,1,8-6.62L2818,1781a13.14,13.14,0,1,1-17.15,19.91A13.47,13.47,0,0,1,2798,1797.58Z" fill="#000072"/><path d="M2905.88,1720.18c13.75,15,25.58,32.89,30.84,54.21a87.83,87.83,0,0,1,1.72,33.17,101.11,101.11,0,0,1-10.49,32,13,13,0,1,1-23.11-11.85,11,11,0,0,1,.81-1.37l.16-.24a77.52,77.52,0,0,0,11-22.79,67.67,67.67,0,0,0,2.05-25.69c-1.87-17.72-10.06-35.33-21-50.9l-.06-.07a5.19,5.19,0,0,1,8.07-6.49Z" fill="#000072"/><path d="M2999,1693.16a129.82,129.82,0,0,1,21.67,25.89,111.29,111.29,0,0,1,14,31.53,85.79,85.79,0,0,1,1.88,35.76c-1.45,12.27-6.54,23.5-12.08,34.26a13,13,0,0,1-23.1-11.9,13.21,13.21,0,0,1,.71-1.21l.65-1c5.08-7.66,10.17-15.63,12.25-24.59a65.7,65.7,0,0,0,1.91-27.78,95.14,95.14,0,0,0-8.61-28.11,117.92,117.92,0,0,0-16.41-25.37l-.24-.28a5.18,5.18,0,0,1,7.41-7.21Z" fill="#000072"/><path d="M1270.77,1674l34.73,73.06a13,13,0,1,1-24.36,8.82L1261,1677.51a5.2,5.2,0,0,1,9.74-3.52Z" fill="#000072"/><path d="M1161.68,1628.29a90.24,90.24,0,0,1-14.38,21.49,74.92,74.92,0,0,1-21,16.5,72.65,72.65,0,0,1-13,5.21c-4.62.9-9.33,2.09-14.09,2-4.83.44-9.48-.18-14.21-.73s-9.07-2.06-13.68-3.16a13.06,13.06,0,0,1,6-25.41,14.07,14.07,0,0,1,2.27.76l1.36.62c6,2.71,12.26,5.39,18.67,5.91,3.24.67,6.42.26,9.72.28a53.2,53.2,0,0,0,9.7-2.14,58.91,58.91,0,0,0,18.38-10.16,79,79,0,0,0,15.06-16l.25-.36a5.18,5.18,0,0,1,8.93,5.18Z" fill="#000072"/><path d="M1211.68,1706.39a92.2,92.2,0,0,1-14.34,23.53,78.67,78.67,0,0,1-21.72,18.2c-4.17,2.57-8.84,4.23-13.49,6-4.79,1.23-9.65,2.6-14.62,2.86-5,.77-9.88.37-14.87.19s-9.64-1.44-14.52-2.21a13,13,0,0,1,4.05-25.7,13.26,13.26,0,0,1,1.57.35l2,.58c3.43,1,6.89,2.51,10.39,3.27,3.49.61,7.06,1.59,10.58,1.52,3.59.44,7.07-.09,10.66-.37,3.46-.76,7.08-1.34,10.44-2.8a62.25,62.25,0,0,0,19.3-11.74,80.61,80.61,0,0,0,15.16-17.93l.25-.39a5.17,5.17,0,0,1,9.19,4.68Z" fill="#000072"/><g opacity="0.3"><path d="M3073.55,1737.93l-64.36,77.77c-61.6,28.65-149.84,27.2-201.19-26.38a358.68,358.68,0,0,1-49.27,27.21c-105.86,48.13-239.33,48.75-391.14,17.67-2.28,1.29-4.51,2.59-6.79,3.88-185.7,105.55-370.62,113.21-554.93,47.72,3.89.83,8.09,1.76,12.49,2.8,329,76.89,371.66-225.39,371.66-225.39C2414.89,1816.94,2764,1711.6,2764,1711.6,2832.61,1786.27,3073.55,1737.93,3073.55,1737.93Z" fill="#000072"/></g><g opacity="0.3"><path d="M1775.2,1596.79v79s-12,122.28-71.81,172.23a92.3,92.3,0,0,1-23.53,14.45s-.1.06-.15.06a92.61,92.61,0,0,0-17.93,10c-146.94,78.39-273.11,54.61-368.45-121-1.76,1.24-3.57,2.38-5.44,3.47-86.63,52.33-259.89-9.48-207.77-173.06a140.13,140.13,0,0,1,16.89-35.28l6.32-5.55c10.57,212.6,117.41,195.08,147.57,147.62,6.53-10.31,21.29-11.19,29.74-2.38C1517.48,1932.85,1648.83,1774.35,1775.2,1596.79Z" fill="#000072"/></g><path d="M3159.52,1723.57c-33.09,0-69.72-10.33-105.9-37.19a13,13,0,1,1,15.44-20.8c60.39,44.83,121.53,36.12,158.62,13,32.72-20.4,50.28-53,44.74-82.95-7.64-41.31-56.89-73.73-135.15-88.94a13,13,0,1,1,4.95-25.43c122.21,23.75,150,78.9,155.67,109.66,7.49,40.53-14.69,83.57-56.5,109.64A155.82,155.82,0,0,1,3159.52,1723.57Z" fill="#000072"/><path d="M3122.71,1594.67a108,108,0,0,1,20.56,23.61,89.42,89.42,0,0,1,12.43,29.66c1.35,5.39,1.54,11,1.84,16.66-.47,5.58-.6,11.36-2.19,16.8-1,5.67-3.25,10.79-5.36,16.06-.93,2.72-2.51,5-3.82,7.43l-4.16,7.27a13,13,0,0,1-22.52-12.89c.19-.34.4-.66.61-1l1.13-1.62c2.39-3.41,5.39-6.64,7.47-10.24s4.31-7.23,5.5-11.17c1.79-3.82,2.28-7.91,3.3-12,.25-4.14.8-8.36.27-12.63a73.19,73.19,0,0,0-6.94-25.43,97.31,97.31,0,0,0-15-22.86l-.28-.3a5.18,5.18,0,0,1,7.21-7.4Z" fill="#000072"/><path d="M3221.35,1585.68a128.3,128.3,0,0,1,15.08,27.07,113.86,113.86,0,0,1,7.94,30.58,86.3,86.3,0,0,1-2.57,32.83c-2.62,11.08-8.55,20.92-14.89,30.25a13,13,0,1,1-20.62-15.76l.84-1c5.39-6.21,10.9-12.71,13.81-20.57a66.33,66.33,0,0,0,5.32-25,98.06,98.06,0,0,0-3.32-26.83,117.55,117.55,0,0,0-10.13-25.79l-.17-.31a5.17,5.17,0,0,1,8.71-5.55Z" fill="#000072"/><path d="M1718.69,1965.2c-76.65,0-145.64-47.88-146.72-48.64a13,13,0,0,1,15-21.14c6.19,4.35,148.86,102.9,237-8.23a13,13,0,0,1,20.3,16.09C1807.05,1950.14,1761.66,1965.2,1718.69,1965.2Z" fill="#000072"/><path d="M1450.5,1411.54c-.34,0-.68,0-1,0-307.49-23.87-428.95-178.9-517.64-292.1-13.53-17.28-26.32-33.6-38.67-47.94-84.6-98.2-178.86-63.15-179.8-62.78l-.88.31-83.16,25.55c-41.48,12.75-84.39,14-124.09,3.53-42.63-11.22-72.41-32.21-88.52-62.4-16.56-31.06-17.48-70.11-2.64-112.94,17.33-50,55.84-92.65,105.66-116.92,107.63-52.43,239.12-52,370.23,1.31,113.65,46.17,215.64,127.27,272.84,216.92A13,13,0,1,1,1141,978C1038.15,816.8,756.4,659.35,531.08,769.1c-43.69,21.29-77.42,58.5-92.52,102.11-8.66,25-15.51,61.28,1,92.26,12.57,23.57,36.88,40.24,72.25,49.55,35,9.21,73,8.09,109.89-3.24l82.94-25.49c9.33-3.27,115.6-37.17,208.14,70.26,12.75,14.8,25.71,31.35,39.44,48.87,85.72,109.41,203.12,259.26,499.24,282.25a13,13,0,0,1-1,25.87Z" fill="#000072"/><path d="M1293.32,1479.51a13,13,0,0,1-12.44-16.57c11.72-40.33,44.62-86.27,46-88.21a13,13,0,0,1,21,15.14c-.31.44-31.7,44.3-42.16,80.3A13,13,0,0,1,1293.32,1479.51Z" fill="#000072"/></svg>